<svg xmlns="http://www.w3.org/2000/svg" width="285" height="86" viewBox="0 0 242.3 68.7"><path fill="#FFF" d="M.6.4v67.7h61.9V.4"></path><path fill="#1D1D1B" d="M63 68.5V0H0v68.5h63zm-.8-.8H.9V.8h61.3v66.9zM61.1 1.9H1.9v64.8h59.2V1.9zM41.4 55.2h8.5v1.3h-3.3v6.8h-1.9v-6.8h-3.3v-1.3zm0-4.7c.1-.4.2-1.1.4-2.1l.9-3.3c0-.2.1-.4.1-.5.1-.6-.1-.8-.6-.8-.4 0-.6-.1-.6-.3.1-.5.6-.4 1.4-.5.9-.1 1.5-.3 1.7-.3.2 0 .3.1.3.4 0 .1-.1.4-.2.9l-1.2 4.6c-.1.5-.2.9-.3 1.2-.1.6.1.9.3.9.5 0 .9-1 1.2-1 .1 0 .2.1.1.3-.1.6-1.7 2.5-2.9 2.5-.4-.2-.7-.8-.6-2zm3.6-9.9c-.1 0-.3-.1-.4-.4l-.3-1c0-.1-.1-.3-.1-.4 0-.1.1-.3.2-.4l.9-1c.1-.1.3-.3.4-.3.1 0 .2.1.3.3l.5 1.1c.1.2.1.3.1.4 0 .1-.1.3-.2.4l-1.1 1.1c-.1.2-.2.2-.3.2zM39 37h-.4c-.2 0-.3-.1-.3-.3.1-.4.5-.5 1.3-.6 1-.2 1.7-.5 1.9-.5.3 0 .3.2.3.5 0 .1-.1.4-.1.7L39 48.4c-.2.7-.2 1.1-.3 1.2-.1.6 0 .9.3.9.5 0 .9-1 1.2-1 .1 0 .2.1.1.3-.1.6-1.7 2.5-2.9 2.5-.7 0-1-.7-.9-1.7.1-.8.3-1.6.5-2.3l2.4-10.1c0-.1 0-.2.1-.3.1-.6 0-.9-.5-.9zm-6.3 23.7h2c0 1.1 1 1.6 2.5 1.6 1.1 0 2.2-.3 2.2-1.2 0-2-6.5-.3-6.5-3.6 0-1.8 1.7-2.5 3.9-2.5 1.4 0 4.1.2 4.3 2.6h-2c-.1-.6-.7-1.3-2.2-1.3-1.2 0-2 .3-2 1.1 0 1.9 6.6.1 6.6 3.5 0 2.1-2.4 2.6-4.2 2.6-3.3 0-4.6-1.1-4.6-2.8zM32.5 50h-.1c-1.1 1.6-2.2 2.4-3.3 2.4-1.4 0-2.2-1.3-1.9-3.4.2-1.6 1-3.3 2.2-4.6 1.1-1.3 2.2-2 3.5-2 .4 0 .7.1 1 .3l1.1-4.5c0-.1 0-.2.1-.3.1-.6 0-.9-.4-.9h-.4c-.2 0-.4-.1-.3-.3.1-.4.5-.5 1.3-.6 1-.2 1.7-.5 1.9-.5.3 0 .3.2.3.5 0 0-.1.3-.1.7l-2.7 11.6c-.2.7-.2 1.1-.3 1.3-.1.6 0 .9.3.9.5 0 .9-1 1.2-1 .1 0 .1.1.1.3-.1.6-1.6 2.5-2.6 2.5-.7 0-1-.8-.8-2.3-.1 0-.1-.1-.1-.1zm3.6-17.2c-.7.1-1.2-.1-1.6-.4-.1-.1-.4-.2-.5-.4 0-.1.1-.3.2-.3.3.1.9.3 1.4.3.2 0 .4 0 .6.1.2.3.1.6-.1.7zm-13 22.4H25v4.6c0 1.1 0 2.5 2.4 2.5s2.5-1.4 2.5-2.5v-4.6h1.9v4.6c0 1.3 0 3.7-4.3 3.7s-4.3-2.4-4.3-3.7v-4.6h-.1zm-.1-4.5c.1-.8.3-1.6.5-2.3l2.4-10.1c0-.1 0-.2.1-.3.1-.6 0-.9-.4-.9h-.4c-.2 0-.3-.1-.3-.3.1-.4.5-.5 1.3-.6 1-.2 1.7-.5 1.9-.5.3 0 .3.2.3.5 0 .1-.1.4-.1.7l-2.7 11.6c-.2.7-.2 1.1-.3 1.2-.1.6 0 .9.3.9.5 0 .9-1 1.2-1 .1 0 .2.1.1.3-.1.6-1.7 2.5-2.9 2.5-.8-.1-1.1-.7-1-1.7zm-.8-10.3c-.1.1-.2.1-.3.1-.1 0-.3-.1-.4-.4l-.3-1c0-.1-.1-.3-.1-.4 0-.1.1-.3.2-.4l.9-1c.1-.1.3-.3.4-.3.1 0 .2.1.3.3l.5 1.1c.1.2.1.3.1.4 0 .1-.1.3-.2.4l-1.1 1.2zm0 9.5c-.1.6-1.7 2.5-2.9 2.5-.7 0-1.1-.7-.9-1.9.1-.4.2-1.1.4-2.1l.9-3.3c0-.2.1-.4.1-.5.1-.6-.1-.8-.6-.8-.4 0-.6-.1-.6-.3.1-.5.6-.4 1.4-.5.9-.1 1.5-.3 1.7-.3s.3.1.3.4c0 .1-.1.4-.2.9l-1.3 4.5c-.1.5-.2.9-.3 1.2-.1.6.1.9.3.9.5 0 .9-1 1.2-1 .4 0 .5.1.5.3zm-8.8 5.3H19c2.3 0 3 .9 3 2.2 0 1-.6 1.7-1.4 2 1 .2 1.3 1 1.3 2.2 0 .4 0 1.3.4 1.7h-2c-.1-.2-.2-.6-.2-1.2 0-1.1-.2-2-1.5-2h-3.2v3.2h-1.9l-.1-8.1zm1.8-16.6v1.1h3v.6h-4v-4.1h3.9v.6h-3v1H18v.6l-2.8.2zM4.3 55.2h8.5v1.3H9.5v6.8H7.6v-6.8H4.3v-1.3zm4-18.2H6.6v3.5h-.9V37H4v-.6h4.3v.6zm.4 7.5c-.2 1.5-.7 2.9-.8 4.2-.2 1.3 0 1.9.5 1.9.7 0 1.9-1.4 2.9-4.2.5-1.5.7-2.7.9-3.2.2-.6.4-.6 1.1-.6.6 0 .9.1.8.6-.1.7-.7 2.2-1 4.2-.3 2 .1 3.1.7 3.1.8 0 2.5-2.5 2.8-4.4.2-1.3-.4-1.9-.3-2.4.1-.5.7-1 1.3-1 .4 0 .6.4.4 1.2-.3 1.9-.9 3.7-2 5.4-1.4 2.2-2.7 3.2-3.5 3.2-1 0-1.5-1.3-1.3-4-1.4 2.7-3.3 4.1-4.1 4.1-.9 0-1.4-1.1-1.1-3.1v-.3c-1.3-.2-1.9-1-1.6-2.6.3-2.2 2-4 3.4-4 .8 0 1.1.6.9 1.9zm0-8.2h1v1.6h2.8v-1.6h.9v4.1h-.9v-1.9H9.6v1.9h-.9v-4.1zM27.1 6.2c-.4.3-.5 1-.7 1.6-.1.4-.3.9-.8.9-.3 0-.5-.4-.8-.4-.5-.1-1.1.2-1.4.5-.2.1-.3.5-.7.4-.3-.3-.1-.7-.1-1.1 0-.3-.1-.7 0-1 0-.1.1-.3.3-.5.1-.3.2-.6.5-.8.2-.1.5-.3.7-.5.3-.2.5-.4.7-.5.2-.1.4-.2.7-.3.2-.1.5-.4.7-.3.8 0 1.5.4 2 .8.2.9-.7.8-1.1 1.2zM46 7.9c0 .3-.1.5-.1.7l-.9.3c-.3.1-.7.2-.9.2-.4 0-.5-.7-.9-1-.4-.3-.8-.1-1.2-.4.1-.6.2-1.3-.2-1.5-.5-.3-1.8-.2-2.2-.6-.1-.3 0-.6.1-.7.8-.3 1.7-.3 2.5-.4.2 0 .4-.1.6-.1.2 0 .4.1.7.1.5.2.8.6 1.3.9.2.1.4.3.6.5.2.1.5.3.6.5 0 .1.1.9 0 1.5zm1.5 8.2c0 .3-.4.7-.6.9-.3.3-.4.6-.6.9-.3.4-.7.9-.8 1.4 0 .2 0 .6-.1.8-.1.3-.3.7-.4 1-.2.3-.4.6-.5.9v.5c0 .3-.1.7-.3 1-.1.6-.5 1-.9 1.4-.3.3-.5.6-.9 1-.1.1-.3.3-.4.3-.3 0-.6-.1-.8-.3-.4-.2-.7-.7-1-1.1-.1-.1-.3-.4-.4-.6-.1-.2-.3-.5-.5-.6-.4-.1-1.1.3-1.2.4-.2.3-.1 1.4-.1 1.9 0 .3-.2.6-.1.9 0 .1.2.2.4.3.4.2 1 .7 1.2 1 .1.1.1.4.3.5.1.1.3.3.3.5.1.3-.1.8-.2 1-.1.3-.2.7-.4.8-.2 0-.6-.2-.9-.3-.3-.1-.6-.2-1-.2-.2 0-.5.2-.7.3-.2 0-.8.1-1 .1-.3 0-.7-.2-1-.3-.3-.1-.7-.3-1-.3-.4 0-1 .3-1.3.6-.1.1-.3.4-.4.6-.1.4.1.9-.1 1.1-.7-.3-1.3-.6-1.4-1.4v-.4c0-.3-.5-.6-.8-.9-.3-.3-.6-.7-.8-.9-.6-.6-1.1-1.3-1.6-1.9-.3-.3-.6-.6-.8-1-.5-.7-1-1.3-1.7-1.8l-.6-.3c-.2-.1-.3-.3-.5-.3-.2-.1-.5-.2-.7-.4-.3-.1-.5-.3-.7-.4-.1 0-.3-.1-.5-.1-.1 0-.3-.1-.4-.1-.5-.1-1.2.1-1.7.3-1.1.3-1.9.7-2.7 1.2-.4.2-.7.6-1.1.8-.5.3-1 .5-1.4.8-.4.3-.9.6-1.3.9-.4.3-.9.6-1.4.9-.2.1-.4.3-.7.4-.2.1-.5.4-.7.4s-.7-.7-.7-1c0-.3.3-.9.4-1.1.2-.3.5-.6.6-.9.1-.3.2-.5.3-.7.1-.3.3-.4.3-.7.1-.3.1-.6.3-.8.1-.2.4-.4.4-.6 0-.2-.3-.6-.4-.8-.2-.4-.5-.8-.4-1.4 0-.2.3-.5.4-.7.4-.6 1.1-1.5 1.6-1.9.1-.1.7-.4.7-.6 0-.2-.2-.7-.3-.9-.2-.5-.4-1-.1-1.6.2-.3.9-.6 1.3-.8.2-.1.5-.2.7-.3.6-.3 1-.7 1.6-.8.9-.2 2.1-.1 3.3-.1.3 0 .6-.1.9 0 .1 0 .4.2.6.3l.6.3c.4.3.7.4 1.1.7.4.2.7.5 1 .8.3.3.7.6.9.9 0 .1.1.2.2.4.1.1.2.3.2.3.1.4-.1.8 0 1.1.1.3.5.4.7.6.3.3.5.4.8.6.2.1.7.2.8.4.1.3-.2.4-.1.8.4.4.7 0 1-.2.3-.2.6-.6 1-.6.2 0 .5.1.7.2.3.1.7.1 1.1.3.5.1 1.1.2 1.2.6.1.4 0 .9 0 1.3s0 .8-.1 1.3c-.2.2-.4.1-.7.2-.2.1-.5.2-.7.2h-.4c-.2.1-.4.4-.4.6 0 .4.4 1 .5 1.4.1.4.4 1 .3 1.5 0 .3-.2.6-.2.9 0 .2-.2.7-.2.9s.4.8.7.7c.3 0 .4-.7.6-.8.1-.2.5-.5.7-.6.2-.1.5-.2.7-.3.1-.1.3-.4.5-.6s.3-.5.4-.7c.1-.6-.1-1.6-.1-2.2-.1-.7-.1-1.6-.1-2.3V21c0-.4-.1-.8-.2-1.3s-.1-1-.2-1.3c-.2-.4-.7-.5-.9-.9-.2-.4-.1-1.3-.2-1.9 0-.1-.1-.3-.1-.4v-.9c-.1-1.1-.4-2.3-.3-3.5.2-.2.7-.1.9-.3.1-.2-.1-.5-.2-.7-.1-.4-.2-.8-.3-1.3-.1-.3-.3-.6-.4-1.1-.9 0-1-.4-.9-.6.1-.1 1.4-.5 1.6-.5.3 0 .5.1.7.1.2 0 .4.1.6.2.5 0 1-.3 1.6-.3.6.2.4 1.2 1 1.5.1.1.4 0 .5.1.1.1.2.6.3 1 .1.8.2 1.4.4 2.2.1.6.3 1 .3 1.6.2 1.3.1 2.6-.1 3.8 0 .4-.2.9-.2 1.1 0 .2.4.9.6 1 .2.1.7.3 1 .3.3.1.7.3 1 .3.1 0 .3-.3.4-.6.1-.3.3-.4.3-.6.3-.5.5-1.1.8-1.6.1-.2.3-.5.4-.7.1-.3.3-.5.4-.7.2-.3.3-.7.5-1.1.1-.3.4-.9.7-1 .6-.3 1.1.2 1.7.1.3.3.1.7.2 1.1.6 1 .9 1.4.8 2zm6.9 20.5c-.1.8-.5 1.4-.9 1.4-.7 0-.8-.9-1.4-.8-.5.1-1.3 1.9-1.8 5.1 0 .4 0 .4.3.4h1.5c.2 0 .2 0 .2.2l-.1.6c0 .1-.1.3-.4.3h-1.5c-.2 0-.3.1-.4.4l-1.5 6.3c-.5 1.9-1.5 3.1-2.8 3.1-.7 0-.9-.2-.9-.5.1-.4.6-.2 1-.6.6-.6.8-1.8 1.3-3.7l1-4.6v-.1c0-.2 0-.3-.1-.3h-1.2c-.2 0-.2 0-.2-.2v-.1l.1-.6c0-.1.1-.1.3-.1H48c.6 0 .4-.9 1.3-3.3.9-2.3 2.6-3.8 4.3-3.9.6 0 .9.3.8 1zm4.2 7.7c-.2 1.4-1.6 2.7-3.8 3.4-1.1.3-1.7.2-1.7.5-.2 1.7.5 3 1.8 3s2.2-1.2 2.5-1.2c.2 0 .2.1.2.3-.1.6-1.9 2.4-4 2.4-1.7 0-2.7-1.5-2.4-3.9.5-3.3 3.3-6.2 5.7-6.2 1.2-.2 1.8.6 1.7 1.7zm.2 16.6c0 2.1-2.4 2.6-4.2 2.6-3.2 0-4.4-1.1-4.5-2.9h2c0 1.1 1 1.6 2.5 1.6 1.1 0 2.2-.3 2.2-1.2 0-2-6.5-.3-6.5-3.6 0-1.8 1.7-2.5 3.9-2.5 1.4 0 4.1.2 4.3 2.6h-2c-.1-.6-.7-1.3-2.2-1.3-1.2 0-2 .3-2 1.1-.1 2 6.5.2 6.5 3.6zm-2.2-16.4c.1-.7-.2-1.1-.7-1.1-1.3 0-2.4 2-2.7 3.5 0 .2 0 .3.3.3 1.6 0 3-1.5 3.1-2.7zM41.4 21.9c.1-.1.4-.3.4-.5s-.2-.6-.3-.8c-.3-.3-1-.5-1.4-.7-.2.1-.1.5-.5.5-.2 0-.4-.1-.6-.1-.2.4 0 .8.1 1.1.1.1.3.3.5.4.4.2.8.5 1.4.5.1 0 .3-.2.4-.4zm-11 .4c.3.1.7.3 1 .3s.4-.4.6-.5c.1-.1.3-.1.3-.3 0-.2-.3-.7-.4-.8-.1 0-.2-.1-.3-.1-.3-.2-.8-.5-1.1-.4v.5c-.1 0-.1.1-.1.1-.3.1-.6-.1-.8-.2-.3.7.2 1.2.8 1.4zM6.7 45.1c.1-.4 0-.6-.2-.6-.5 0-1.3 1.1-1.5 2.3-.1 1 .1 1.4 1 1.5.3-1.5.6-2.6.7-3.2zm11.7 11.4h-3.2v2.4h3.2c1 0 1.6-.3 1.6-1.2 0-.9-.6-1.2-1.6-1.2zm14.5-9l.6-2.4c.1-.3.1-.6.1-.8.1-.7-.1-1.1-.7-1.1-1.6 0-3.2 2.3-3.6 5.4-.2 1.6.1 2.4.9 2.4 1-.1 2.2-1.3 2.7-3.5z"></path><path fill="#9FA920" d="M95.8 11.5l-.6-4.2c-.1-.6-.3-.8-.6-1-.8-.3-2-.6-3.7-.6-3.8 0-5.7 1.7-5.7 4.3 0 3.4 3.5 4.3 7.3 5.4 4.9 1.5 10.3 3.3 10.3 11 0 8.4-6.5 11.6-14.3 11.6-4.6 0-9.7-1.2-11.7-2.1V26h5.7l1 4.9c.1.6.2.8.9.9.6.1 2.3.6 4.3.6 4.2 0 6.5-1.6 6.5-4.7 0-3.3-2.9-4.3-6.3-5.3-5-1.4-11.3-2.8-11.3-11C77.3 3.7 83.2 0 91 0c4.4 0 8.2 1.1 10.5 2v10l-5.7-.5zM125.4 37.7L125 35h-.3c-2.1 1.6-4.7 3.4-9.1 3.4-5.4 0-7.4-3.1-7.4-9V16.8c0-.8 0-.9-.8-1.1l-2.4-.5.5-4.2H116v17c0 3.1.5 4.3 2.7 4.3 2.3 0 4.1-1.3 5.3-2.3V16.8c0-.8 0-.9-.8-1l-2.2-.5.6-4.2h10.1v21.2c0 .7 0 .9.7 1l2.6.4v4.1h-9.6zM152.9 19.1l-.5-2.7c0-.4-.1-.6-.5-.7-.7-.2-1.9-.4-3.3-.4-2.6 0-4 1-4 2.6 0 2.1 2.8 2.6 5.9 3.3 4 .9 8.6 2.3 8.6 8.3 0 6.2-5 8.8-11.6 8.8-4.6 0-9.2-1.2-10.1-1.9V29l5.4.4.5 2.9c0 .4.1.7.6.8.6.2 2 .5 3.9.5 2.7 0 4.2-.8 4.2-2.7 0-2-2-2.7-4.6-3.1-4.3-.8-9.9-1.7-9.9-8.4 0-6.3 5.4-8.9 11.3-8.9 4 0 8 .9 9.4 1.5v7.4l-5.3-.3zM177.2 19.1l-.5-2.7c0-.4-.1-.6-.5-.7-.7-.2-1.9-.4-3.3-.4-2.6 0-4 1-4 2.6 0 2.1 2.8 2.6 5.9 3.3 4 .9 8.6 2.3 8.6 8.3 0 6.2-5 8.8-11.6 8.8-4.6 0-9.2-1.2-10.1-1.9V29l5.4.4.5 2.9c0 .4.1.7.6.8.6.2 2 .5 3.9.5 2.7 0 4.2-.8 4.2-2.7 0-2-2-2.7-4.6-3.1-4.3-.8-9.9-1.7-9.9-8.4 0-6.3 5.4-8.9 11.3-8.9 4 0 8 .9 9.4 1.5v7.4l-5.3-.3zM209.9 35.7c-3.2 1.5-6.6 2.6-10.5 2.6-9.9 0-13.2-6.1-13.2-14.1 0-9.2 5.7-13.6 12.7-13.6 6.7 0 11.2 3.5 11.2 12.4 0 .6 0 2.4-.1 3.4h-15.6c.3 3.6 1.9 6 6 6 2 0 4.2-.4 7.6-1.7l1.9 5zm-7.3-14.2c0-4.3-1.7-5.4-3.8-5.4-2.2 0-4 1.2-4.3 5.4h8.1zM226.8 37.7v-4l2.4-.4-3.9-5.1-4.2 5 2.9.4v4h-12.3v-4l2.3-.4c.6-.1.9-.4 1.3-.9l6.7-7.5-6.9-8.3c-.4-.5-.6-.7-1.2-.9l-2-.6.5-4.2H226v4.1l-2.5.4 3.8 4.7 4.2-4.7-2.8-.4.5-4.2h11.3v4.2l-2.3.5c-.6.2-.8.5-1.3 1l-6.2 6.9 7 8.7c.5.5.7.8 1.3.9l2.3.4v4l-14.5.4z"></path><g><g fill="#575756"><path d="M92.6 68.3l-3.8-13.1-4 13.1h-2.1L78.1 51c-.1-.3-.2-.4-.5-.5l-1.6-.2.3-1.2h6.1v1.2l-2.4.3 3.9 15.7 3.9-13.1h2l3.9 13.4 4-16-2.5-.3.3-1.2h5.8v1.2l-1.4.2c-.4 0-.4.1-.6.5l-4.5 17.3h-2.2zM102.3 68.3v-1.2l1.9-.1c.4 0 .4-.1.4-.5V57c0-.3-.1-.5-.3-.6l-1.6-.5.2-1.1h3.4v11.7c0 .4 0 .5.4.5l1.9.2v1.2l-6.3-.1zm2.9-16.8c-.9 0-1.4-.5-1.4-1.4 0-.9.5-1.4 1.4-1.4s1.4.5 1.4 1.4c.1.8-.5 1.4-1.4 1.4zM110.1 68.3v-1.2l1.8-.1c.4 0 .4-.1.4-.5V50.4c0-.3-.1-.5-.3-.6l-1.6-.5.2-1.1h3.5v18.2c0 .4 0 .5.4.5l1.7.2v1.2h-6.1zM128.3 68.3l-.2-1.8h-.1c-1.3 1.2-2.7 2.2-4.8 2.2-3 0-5-1.9-5-6.8 0-5.2 2.2-7.4 5.5-7.4 1.6 0 3.2.6 4.2 1.3v-5.3c0-.3-.1-.4-.3-.5l-1.6-.5.2-1.1h3.5v18.2c0 .4 0 .5.4.5l1.4.2v1.2l-3.2-.2zm-.4-10.6c-.9-.9-2.5-1.7-4.2-1.7-2.7 0-3.8 2.3-3.8 5.8 0 4.2 1.6 5.3 3.4 5.3 1.9 0 3.3-1.1 4.5-2.5l.1-6.9zM133.4 68.3v-1.2l1.8-.1c.4 0 .4-.1.4-.5V50.4c0-.3-.1-.5-.3-.6l-1.6-.5.2-1.1h3.5v18.2c0 .4 0 .5.4.5l1.7.2v1.2h-6.1zM140.9 68.3v-1.2l1.9-.1c.4 0 .4-.1.4-.5V57c0-.3-.1-.5-.3-.6l-1.6-.5.2-1.1h3.4v11.7c0 .4 0 .5.4.5l1.9.2v1.2l-6.3-.1zm2.9-16.8c-.9 0-1.4-.5-1.4-1.4 0-.9.5-1.4 1.4-1.4.9 0 1.4.5 1.4 1.4 0 .8-.5 1.4-1.4 1.4zM149.1 68.3v-1.2l1.8-.1c.4 0 .4-.1.4-.5v-9.9c0-.1 0-.3-.2-.3h-2v-1.5h2.2v-2.3c0-2.9 1.4-4.5 4.6-4.5 2 0 3.7.5 3.7 2.9l-1.7.2c0-1.4-.7-1.6-2.1-1.6-2.2 0-2.7 1.1-2.7 3.1v1.9c0 .2 0 .3.2.3h4.4v1.5H153v10.2c0 .4 0 .5.4.5l3.1.2v1.2l-7.4-.1zM169.6 67.5c-1.2.7-2.7 1.1-4.6 1.1-4.7 0-6.2-3.2-6.2-7.2 0-4.7 2.6-7 5.9-7 3.2 0 5.3 1.7 5.3 6.3v1.1h-9.3c.1 3 1.3 5.1 4.5 5.1 1.6 0 2.5-.3 3.8-1l.6 1.6zm-1.4-7c0-3.3-1.6-4.4-3.5-4.4-2 0-3.7 1.1-4 4.4h7.5zM181.6 68.3v-1.2l2.7-.2c.4 0 .4-.1.4-.5V50.6h-4.6c-.3 0-.4 0-.4.3l-.4 2.3H178V49h15.5v4.1h-1.3l-.4-2.3c0-.3-.1-.3-.4-.3h-4.7v15.9c0 .4 0 .5.4.5l2.9.2v1.2h-8.4zM194 68.3v-1.2l1.4-.1c.4 0 .4-.1.4-.5V57c0-.3-.1-.5-.3-.6l-1.6-.5.2-1.1h3l.2 1.7c.9-.8 2.3-2 4.1-2 .6 0 1.3.1 1.7.2v3.7l-1.4-.1-.3-2c0-.2 0-.2-.3-.2-1.4 0-3 1.3-3.7 2v8.4c0 .4 0 .5.4.5l2.4.2v1.2l-6.2-.1zM216.2 68.3l-.2-1.9c-1.2 1.1-2.9 2.3-5.2 2.3-3 0-3.8-1.9-3.8-4.9v-6.9c0-.4 0-.6-.4-.6l-1.4-.4.2-1.1h3.4v8.5c0 2.6.5 3.9 2.4 3.9 2 0 3.8-1.4 4.9-2.7V57c0-.4 0-.5-.4-.6l-1.4-.4.2-1.1h3.4v11.7c0 .4.1.5.3.6l1.4.2v1.2c-.1-.3-3.4-.3-3.4-.3zM229.6 58.4l-.3-1.7c0-.1 0-.3-.3-.3-.4-.1-1.3-.3-2.2-.3-2.2 0-3.1 1-3.1 2.3 0 1.7 1.6 2.1 3.4 2.5 2 .5 4.3 1.1 4.3 3.9 0 3-2.6 4-5.2 4-2.1 0-4.2-.6-4.7-.9v-3.3l1.4.1.3 1.7c0 .1 0 .3.3.3.4.1 1.4.5 2.9.5 1.9 0 3.2-.7 3.2-2.3 0-1.7-1.6-2.2-3.3-2.6-2.1-.5-4.4-1-4.4-3.8 0-2.9 2.5-4 5.1-4 1.9 0 3.4.5 3.9.7v3.3l-1.3-.1zM242.3 67.9c-1 .4-2.2.7-3.4.7-2.3 0-3.4-1.2-3.4-3.3v-8.9c0-.1 0-.3-.2-.3h-2v-1.2c2-.3 2.4-1 2.8-3.6h1.2v3c0 .1 0 .3.2.3h4v1.5h-4.2v8.5c0 1.7.5 2.4 2 2.4.9 0 1.8-.2 2.6-.5l.4 1.4z"></path></g></g></svg>
