<svg xmlns="http://www.w3.org/2000/svg" width="1996.438" height="326.699" viewBox="0 0 1996.4375 326.69931"><defs><clipPath id="a"><path d="M0 680h1600V0H0v680z"/></clipPath></defs><g clip-path="url(#a)" transform="matrix(1.25 0 0 -1.25 -1.993 830.508)"><path d="M1601-10.994H0v458.34a2258.258 2258.258 0 0 0 11.981.166c2.298.026 4.633-.911 7.004-.891 3.43.03 6.935-.906 10.514-.886 2.139.01 4.304.98 6.496.987 2.306.009 4.641.014 7.004.017 1.653.003 3.32.964 5.001.965 2.145 0 4.312-.961 6.501-.964 2.96-.005 5.961.949 9.001.938.996-.003 1.997-.967 3.001-.971 2.08-.008 3.403-.974 5.498-.985 1.33-.008 2.666.945 4.01.937 3.614-.021 7.278-.047 10.99-.076.831-.007 1.665-.974 2.5-.981.83-.007 1.661.946 2.495.939 1.326-.012 2.657-.984 3.995-.997 2.381-.023 4.108.92 6.498.895 2.632-.028 5.285-.058 7.961-.09 1.346-.016 2.698-.992 4.055-1.01 2.803-.034 5.628.89 8.477.85 7.315-.1 14.782-.213 22.393-.34 4.662-.078 9.377.8 14.146.712l3.979-.074c2.979-.057 5.979-1.075 8.997-1.135l2.509-.05c4.609-.093 9.263-1.15 13.96-1.252l5.065-.111c2.809-.062 5.634 1.795 8.473 1.729 9.308-.214 18.776-1.405 28.396-1.652 6.954-.178 13.988-.366 21.096-.562a10968.184 10968.184 0 0 0 27.459-.788c13.131-.392 26.49-.812 40.054-1.26 1.014-.032 2.03 1.854 3.047 1.82 1.318-.043 2.638-2.007 3.961-2.051l2.497-.083c3.203-.107 6.418-1.175 9.643-1.283l4.858-.164c1.496-.051 2.994-1.061 4.494-1.113l3.513-.12c5.946-.202 11.927.552 17.94.344 3.018-.104 6.045.75 9.08.645 4.465-.156 8.947-1.273 13.445-1.432 1.662-.06 3.326-1.077 4.993-1.136 1.17-.042 2.342.877 3.514.836.998-.036 1.997.889 2.997.853 0 0 4.336.806 6.509.729 2.166-.078 4.336-2.075 6.509-2.153.666-.024 1.332.912 1.998.888 1.669-.06 3.339-1.08 5.012-1.14.832-.03 1.664-1.02 2.496-1.05 2.141-.077 4.286.806 6.434.728l4.993-.181c1.349-.05 2.699-1.058 4.051-1.107 1.828-.067 3.659.827 5.492.76l5.492-.2c2.179-.08 4.362.8 6.547.72 1.387-.05 2.774-1.061 4.163-1.112 2.782-.102 5.567.755 8.358.653.665-.025 1.331-1.01 1.997-1.033l5.991-.221 8.19-.303 8.286-.307 3.674-.137 7.368-.274c3.495-.13 6.996-1.222 10.503-1.352 3.655-.137 7.317.686 10.984.549l7.527-.282c1.158-.044 2.317.873 3.476.829 2.328-.087 4.657-1.134 6.989-1.222a83587.757 83587.757 0 0 1 13.518-.508l5.833-.221 15.174-.572 13.901-.525c3.657-.14 7.317-.277 10.982-.416 2.168-.082 4.338.796 6.509.714 1.843-.07 3.687-1.1 5.531-1.17 1.344-.05 2.689 1.819 4.034 1.769 1.663-.063 3.327-2.046 4.992-2.11 3.505-.132 7.013-1.224 10.523-1.357l8.007-.302c1.663-.063 3.327.834 4.991.77l8.028-.301 18.471-.696c1.165-.044 2.33.872 3.496.828 5.655-.213 11.313-2.347 16.973-2.558 4.16-.157 8.32.647 12.481.492l2.996-.113c4.826-.18 9.652.6 14.478.42 1.172-.044 2.343-1.047 3.514-1.091 4.174-.156 8.348.649 12.52.494 1.332-.05 2.663-1.058 3.994-1.107 3.163-.117 6.325.725 9.486.609 1.684-.063 3.368-1.085 5.051-1.147 4.162-.154 8.322-2.227 12.481-2.38l14.979-.548 3.495-.128c2.898-.106 5.22 1.73 8.045 1.627l6.029-.218 6.49-.235 5.531-.2c3.331-.12 6.659-.24 9.985-.358l10.485-.374c1.807-.065 3.613.83 5.419.767 2.356-.083 4.71-1.127 7.064-1.21 1.307-.047 2.615-.092 3.922-.138 2.523-.09 5.043-1.138 7.562-1.226 1.166-.041 2.331.878 3.496.837 1.832-.064 3.663-2.048 5.492-2.112 2.659-.093 5.317.775 7.972.682 1.505-.052 3.009.856 4.513.804 98.299-3.398 215.974 1.325 278.045-8.1 18.31-2.78 30.88 3.558 40.704 3.378 19.297-.354 23.27-5.084 45.282-4.827 17.991.21 22.253-.222 27.842-.257 5.434-.033 20.348-2.117 25.635-2.134 22.387-.072 43.179 5.53 71.58 7.66 1.212.09 6.106 10.553 6.106 9.332 0-9.332-1.211-.095 0 0 2.004.158 11.932-10.752 13.946-10.587l1.545.128c.897.074 1.793-.812 2.691-.737 1.161.098 2.324 1.157 3.488 1.257.651.056 1.303-.848 1.955-.792 2.465.214 4.935 1.39 7.406 1.613l2.598.235c1.672.152 3.345 1.266 5.017 1.422 1.094.1 2.188-.756 3.282-.653 1.35.127 2.701.223 4.051.298 1.227.069 2.454.12 3.68.166.615.023 1.23.044 1.844.064 4.074.134 8.142.24 12.193.654 1.734.177 3.465 1.316 5.193 1.495 3.553.37 7.092 1.704 10.611 2.082 2.117.227 4.228-.505 6.329-.275a3944.914 3944.914 0 0 1 24.245 2.733c6.711.78 13.272.599 19.635 1.369 2.314.28 4.603.99 6.862 1.722.587.19 1.172-.58 1.754-.393 1.159.369 2.311 1.675 3.454 1.942.74.173 1.476.312 2.208.404 1.203.15 2.398.178 3.582.144.397-.011.792-.03 1.186-.051.784-.045 1.565.852 2.341.789 1.143-.092 2.277-1.145 3.401-1.18a28.08 28.08 0 0 1 1.16-.013c.746.008 1.488-.91 2.224-.816 1.435.183 2.853 1.409 4.253 1.722.468.104.933.214 1.396.328.924.227 1.84.469 2.748.717 1.121.307 1.793.478 2.888.78.502.139 1.438.418 1.934.55.685.183 1.365.357 2.039.518 1.381.33 2.739-.356 4.073-.18 1.062.14 2.109 1.24 3.141 1.377 1.158.154 2.295 1.266 3.413 1.416l4.897.659c1.162.156 2.297-.65 3.405-.5 2.259.308 4.406.417 6.432.487 1.458.05 2.854 1.043 4.186 1.116 1.026.056 2.013-.824 2.96-.692 1.843.257 3.535 1.455 5.066 1.67 2.47.35 4.523-.317 6.121-.088 2.608.375 4 .58 4 .58V-10.994z" fill="#000000"/><path d="M1340.17 424.074c.008.514.02 1.038.038 1.585.269 7.677 2.249 13.672 4.03 17.805.469.696.875 1.421 1.195 2.152.675.553 2.007 1.7 3.06 2.953.419-.81.885-1.577 1.392-2.275-3.184-7.43-6.187-14.943-9.714-22.22m-.394-10.347c.019.066.03.136.048.202.003-.178.004-.355.008-.534l-.056.332zm-16.278 94.65c.003.003.006.01.007.013l.01-.006-.017-.008m13.269-3.096c-.168.21-.334.418-.5.62h.229c.09-.208.18-.417.27-.62m-13.954 2.657c.033.002.064.01.096.014-.012-.016-.027-.03-.04-.045l-.056.031m14.005-43.55v-.002.002zm36.12 30.763c-1.08.58-1.64-.497-1.64-.497.869.118 4.06-.838.57-8.107-3.726-7.763-8.627-14.86-13.032-22.239-1.542.452-3.196.455-4.773.226a11.969 11.969 0 0 1-2.16-.149 17.957 17.957 0 0 1-2.983-.704c.019.503.023 1.001.01 1.483 3.154 2.561 8.158 8.078 9.62 12.503.967 2.92-.371 8.27-.371 8.27.509 1.904 1.007 3.76 1.513 5.466 2.002 6.754-7.96 17.12-8.034 16.004-.132-2.017-1.412-6.776-6.147-11.44-.65-.642-.955-1.7-1.157-2.846a54.138 54.138 0 0 1-2.853 5.375c-.046 3.272.367 5.162.857 7.248 1.857-.1 3.71-.24 5.562-.423 0 0-.26 6.736-4.144 11.32.017.607.029 1.241.033 1.917.06 12.316-5.79 12.116.119 23.79 1.382 2.73-11.126-7.954-11.19-20.27-.002-.444.012-.89.033-1.339-3.353-.257-6.141-1.346-8.096-2.924 4.038 5.066 8.127 4.183 5.825 7.656-.6.905-2.494.078-5.111-2.337.475 2.525.48 5.358-.338 8.241-2.537 8.926-19.137 10.496-20.738 13.28 0 0 2.156-12.012 6.56-13.916 12.498-5.402 8.87-12.415 7.902-15.429-1.4.82-2.874 1.312-4.001 1.308-.122 8.052-12.45 7.747-8.496 1.494-1.782-.242-3.83-1.352-3.785-3.162.938.531 3.118.58 3.737.71 2.106.445 2.755 2.668 4.34 2.884.365-1.055.61-1.75.398-2.86-.12-.63-.62-1.818-.294-2.485l-.445.066c-4.366.614-6.885.273-6.761-.705.327-2.622 1.708-1.229 5.399-1.423a19.863 19.863 0 0 1-1.55-1.056c-4.145-3.139-5.036-12.008-5.036-12.008 3.71 2.431 7.57 1.04 11.354 3.108.24-.568.52-1.029.707-1.304-.278-1.533-.478-3.106-.323-4.617.299-2.953 4.32-6.267 7.959-5.77 3.634.493 6.823 4.536 6.519 9.343-.055.854-.311 1.804-.703 2.763.209.626.573 2.002.38 3.461 5.835-4.578 10.077-9.537 13.186-13.629a37.024 37.024 0 0 0 1.225-4.252c-1.984-3.428-2.278-4.556-1.641-8.112-.512-.33-.991-.7-1.35-.926-1.647-1.06-2.094-1.815-2.26-3.689-.192-2.057-1.687-2.98-1.687-2.98.937.045 2.658.317 3.588.191 1.429-.193 2.323.505 2.679 1.473.067-.467.137-.947.215-1.434-.491-.749-1.18-1.628-1.484-2.06-.495-.612-1.69-1.26-2.521-2.005-.68 1.364-1.844 2.931-3.271 4.482-3.373 3.654-5.644 4.917-6.543 4.086-.756-.698-1.283-2.89 1.95-5.368-.604-.036-1.286-.193-2.085-.478-6.753-2.405-13.321-6.292-18.117-11.174-.472-.479-3.942-4.952-3.555-5.075 2.929.691 9.724-3.575 18.044-3.51-.68-2.297-.61-4.53.452-5.893 2.696-3.454 7.42-7.814 12.226-6.812.027.005.055.014.084.021-1.303-2.89-2.45-6.248-3.104-9.98-1.561 3.895-3.363 4.373-3.78 5.472-1.496 3.951-.17 4.891-.17 4.891-1.626-.615-4.648-8.852-1.34-17.596.648-1.705 4.587-14.89 5.263-16.393l3.66.1v.001l2.507.07c.159-.98.359-1.62.618-1.753 0 0 0 .66.053 1.77l.297.008-.218 1.3c.34 4.797 1.54 14.131 5.79 20.121 1.977 2.783 7.496 8.057 10.402 10.87a21.195 21.195 0 0 1 3.377 4.21c.913-.12 1.816-.22 2.686-.324.774-.09 9.812-.272 9.867-.422-.8 2.272-2.405 9.714-6.645 16.475 11.444 37.597 6.367 38.418 6.367 38.418M228.53 578.142c.891.772 2.475 1.153 3.653 1.343 1.688.271 3.252-.275 4.84.45 1.378.63 2.773 1.591 4.007 2.42 1.396.938 2.471 2.203 3.754 3.296 1.32 1.123 1.294 2.726 2.4 3.667.615.524 1.158.164 1.666.87.496.69.66 1.53.512 2.42-1.396 8.48-9.346 14.815-16.03 19.423-1.16.8-2.677 1.013-3.78 1.778-1.618 1.121-1.347 2.94-3.036 3.658-2.695 1.147-18.603 1.957-19.96 3.71-.783 1.01-.607 3.551-.84 4.763-.277 1.444-.296 2.867-.484 4.29-.21 1.598-1.018 2.735-1.576 4.213-.746 1.974-1.166 3.985-1.773 6.01-1.05 3.498-1.987 6.947-3.154 10.39-1.073 3.164-3.872 5.266-6.536 7.142-3.632 2.556-6.665 3.511-10.33.5-.958-.788-1.965-1.744-2.177-2.975-.206-1.195.536-2.234.455-3.358-4.852.534-6.469 8.19-11.449 7.954-4.75-.224-3.967-5.13-2.509-8.273 2.758-5.939 2.502-12.993 5.505-18.858 2.15-4.198 5.86-6.495 9.033-9.817 1.808-1.892 3.416-3.96 5.177-5.896 1.674-1.839 3.582-3.3 3.965-5.944.198-1.364.19-2.833.325-4.175.152-1.496-.429-2.616-.634-4-.238-1.622.112-3.259.301-4.833.173-1.44.025-2.876.166-4.334.14-1.442.71-2.714.834-4.122.222-2.523-1.47-6.29-3.2-8.05-1.313-1.332-3.423-1.022-4.782-2.144-.88-.726-1.1-2.16-2.18-2.997-2.34-1.812-5.658-1.83-8.019-3.583-2.77-2.054-4.456-7.809-6.057-10.925-1.183-2.305-2.323-5.065-4.02-7.005-1.41-1.612-2.819-2.998-3.985-4.75-1.54-2.314-3.14-4.57-4.507-7.063-7.738-14.092-17.674-26.837-25.23-41.045-2.093-3.934-2.316-9.39-3.77-13.649-.812-2.377-2.007-4.482-2.25-7.006-.209-2.166-.135-4.349-.25-6.494-.235-4.357 1.79-9.32 2.487-13.756.74-4.699 1.501-9.204 2.702-13.745.6-2.268 1.444-5.546 3.517-6.926s5.155-.778 7.493-1.023c3.022-.318 5.908-.527 8.982-.787 6.641-.56 13.085-1.513 19.776-1.513 4.728 0 8.851.536 13.294 1.25a62.28 62.28 0 0 0 7.2.75c2.856.123 5.828-1.39 8.504-.962 2.311 6.481-7.797 6.235-11.022 8.406-3.503 2.36 2.307 5.733 4.542 7.531 6.953 5.593 8.084 13.298 11.823 20.706 1.697-2.343.948-5.985 1.203-8.742.315-3.416 2.34-5.917 3.817-8.924 2.556-5.202 3.377-10.55 5.22-15.723 1.323-.238 2.294-1.037 3.724-1.29 1.088-.194 2.385-.002 3.49-.002h7.728c2.003 0 5.632-.703 7.464 0 2.536.974.353 3.514-.45 5.52-2.242 5.601-3.63 12.008-4.988 17.968-1.536 6.732-3.628 13.16-4.762 19.956-.556 3.333-1.07 6.675-1.389 10.04a73.461 73.461 0 0 0-.323 5.093c-.019.792-.064 1.486.175 2.2.152.456.956.106.726 1.123.39-.08.91.121 1.295.042-.155.587-.59 1.17-.785 1.79.154-.086.314-.228.48-.35.471.288.403.341.968.54-.064.512.096 1.12.051 1.634.378-.04.897.136 1.266.048-.273.156-.469.498-.708.667 1.24-.13.586 1.243.475 1.962.331-.079.783.097 1.12.025.267.583.001 1.241-.323 1.63.713-.047.967.313.754 1.004-.224.012-.497.095-.697.095.73.581 1.52 1.335 2.207 2.074-.505.02-1.066.076-1.578.022a2.072 2.072 0 0 1 1.946.8c-.443.063-.664.307-.928.384.21.014.39-.016.598.021-.199.06-.788.368-.978.425 2.19-.293 1.58 1.394.408 2.342.188.017.372.038.558.054a5.904 5.904 0 0 1-.546 1.575c.481.326.6.918.848 1.54a3.194 3.194 0 0 0-.407.017c.253.016.508.214.771.204-.089.61-.23 1.306-.12 1.947.161.044.296.036.454.075a3.188 3.188 0 0 1-.35 1.611c-.396-.075-.912.12-1.298.013.32.388.55.887.995 1.2-.084.2-.123.39-.198.592.431.095.731.396 1.207.392-.162.104-.363.402-.546.522.37.288.465.734.861 1.002-.212.035-.566.334-.964.311.293.834 1.375 1.511.943 2.327.304.378.531.951.912 1.296-.213-.003-.437.04-.65.042-.008.614.052 1.31-.257 1.79.33.333.574.957.87 1.292-.312-.017-.844.156-1.124.13.287.15.58.46.902.591-.298.03-.595.19-.914.196.755.283 1.276.996 1.281 1.785-1.469-.109-.928 1.168-.14 1.694-.35-.024-.896.218-1.317.181.012.151.066 1.061-.026 1.157.15-.157-1.004 1.248-.855.701-.23.85.107 1.221.51 2.27-1.294.02-1.21 2.44-1.458 3.447-.522 2.115-1.99 14.756-2.029 19.574-.017 2.16-1.256 4.622-.608 6.757.33 1.092 1.248 3.656 2.116 4.41" fill="#000000"/><path d="M372.218 431.968c7.154 3.288 7.193 10.552 9.604 15.504 2.747 5.634 5.904 10.986 8.33 16.83 2.528 6.107 5.516 11.137 13.234 15.938-6.895-16.355-15.4-27.963-14.377-46.062 8.408 9.116 11.87 20.988 18.245 29.807 6.52 9.022 5.233 7.17 12.122 15.75.294.379-10.761-22.156-9.38-34.262 9.834 5.165 18.417 20.174 30.417 27.696.493.302-23.488-28.958-32.856-60.23-44.683.703-85.275 4.136-129.606 4.829-2.646 15.594-3.997 22.07-16.17 39.406 2.713-1.31 10.63-12.007 13.806-13.528-.115 1.698-5.14 12.107-5.461 12.544-3 4.1-6.094 8.098-10.093 13.346 9.16-2.76 17.005-13.678 22.244-29.895 1.756 3.8 1.918 6.556.636 9.97-.632 1.7-3.397 12.133-8.54 25.873-.94 2.509 9.596-10.463 15.884-29.848-1.446 4.453 1.613 22.344.86 28.734-3.908 33.203-.427 17.848 7.35-11.74 2.45 18.352-.87 34.514 5.857 49.438 2.886-13.082.48-52.8 1.52-74.134 3.589 41.457.626 53.903 29.979 78.804-1.206-3.486-13.215-21.8-18.324-39.892-1.29-4.56.042-31.33 3.603-37.878 3.36 6.682 6.66 12.865 9.635 19.282 3.027 6.52 5.743 13.273 8.595 19.928 4.867-7.257-.478-14.115-2.04-19.982-1.682-6.298-2.197-11.867-1.927-21.336 9.748 26.022 15.989 62.687 31.46 72.156.8 1.12.8 1.12 0 0-8.948-12.573-12.918-35.075-13.597-51.37-.203-4.784-.174-9.585.53-14.707 4.435 14.64 8.648 29.25 18.23 44.509-1.807-9.582-2.231-16.233-4.342-21.875-2.566-6.858-1.17-13.23-2.007-23.072.799 9.41 22.655 58.93 31.719 58.93 0 0-21.178-21.82-25.14-69.463M1263.1 415.028c1.7 16.78 4.57 33.486-7.74 50.513 11.548-6.548 20.793-22.809 27.206-43.859 13.626 3.23-1.053 40.156-1.763 44.516-.677 4.135-11.213 48.364-8.626 52.422 6.448-18.426 7.499-18.217 12.592-36.915 5.076-18.657 11.029-37.314 11.423-56.794.093-4.475 3.18-8.925 6.29-17.055l-.617-4.889c-29.643-10.077-109.423-2.093-126.448.61-9.296 5.685-15.444 25.78-14.43 26.527 2.798-2.505 5.875-4.816 8.307-7.558 2.2-2.487 3.344-5.675 5.578-8.122 2.807-3.087 6.249-5.726 9.418-8.549 6.404 5.577-2.665 10.72-1.813 17.03 3.09-1.394 4.858-2.187 8.378-3.76-4.948 18.18-14.306 33.04-25.95 48.096 2.849-1.23 24.329-24.032 31.383-34.602 3.393-5.097 4.81-11.163 7.434-17.566 7.05 9.954-3.606 18.594-.341 29.2 4.782-8.353 8.619-15.075 12.835-22.468 4.446 10.697-.621 19.494-4.707 28.32-6.455 13.965-27.618 40.89-28.058 43.043 5.129.292 35.897-34.653 37.198-37.564 1.309-2.92 1.72-6.129 3.273-12.097 1.165 4.356 1.637 6.037 2.065 7.732.393 1.516.74 3.04 1.98 8.156 1.614-9.12 2.098-14.792 3.728-20.215 1.453-4.819 4.177-9.366 7.83-13.64 1.856 26.346-8.925 50.107-19.53 74.051 19.79-26.163 33.758-54.388 43.106-84.563M-1.833 441.317l64.729-.525c3.425 12.845 13.133 30.99 13.477 31.34 3.195 3.333 6.48 6.576 10.727 10.834-9.26-2.09-17.63-10.962-23.662-24.266-1.557 3.18-1.58 5.467-.135 8.262 1.327 2.577 1.733 5.68 3.175 8.157 7.907 13.562 14.663 27.975 25.969 39.12.019.017-.453.604-.694.92-11.11-3.818-20.166-16.638-35.963-51.341-1.778 5.868-1.094 11.065-.322 15.814 1.014 6.169 3.415 12.137 5.209 18.198.239.822.477 1.644.575 2.484 2.28 20.238 1.15 14.435-11.168-17.986-1.512 15.238-2.087 26.843-4.955 36.759-3.532-10.762-.179-20.427.284-30.243.472-10.087-1.536-19.838-5.536-31.057-1.483 34.37-8.32 64.67-36.301 85.884 1.023-2.911 17.874-31.931 22.051-47.005 1.052-3.802 2.979-32.362-.896-37.701-3.008 5.599-5.986 10.782-8.628 16.15-2.687 5.463-5.05 11.107-7.553 16.674-2.243-7.061-.234-11.688 1.024-16.577 1.356-5.245 1.594-9.862.84-17.69-4.489 11.626-7.828 25.749-12.247 37.62v-53.825z" fill="#000000" fill-rule="evenodd"/><path d="M39.699 519.977c.535-1.965 2.51-3.137 4.413-2.614 1.9.52 3.007 2.533 2.469 4.497-.538 1.965-4.696 3.634-4.696 3.634s-2.727-3.553-2.186-5.517" fill="#000000"/><path d="M46.7 454.44c-.552 6.934-.994 13.868-.73 20.794.355 9.32 2.98 17.76 4.816 26.813 2.126 10.494 2.97 21.196 4.622 31.767M48.028 490.707c4.144 6.503-1.084 26.111-5.707 30.853" fill="none" stroke="#000000" stroke-width="1.5" stroke-miterlimit="10"/><path d="M60.34 533.936c-1.928-2.677-12.62-.706-11.066 3.518 1.99 4.155 10.235-.26 11.067-3.518" fill="#000000"/><path d="M57.287 534.412c5.14 1.43 9.38 5.683 14.15 7.619.898-2.823-10.863-9.473-14.216-8.054" fill="#000000"/><path d="M57.589 533.473c-6.8 5.082-4.551 19.477 6.08 16.028 10.126-3.817-.206-15.606-6.816-15.02M56.58 532.734c-6.104.957-16.804 3.97-16.955 11.588 6.146 2.168 12.908-6.038 15.784-10.508" fill="#000000"/><path d="M57.084 533.104c-2.986.917-7.608 5.657-9.949 7.81-1.104 1.517-4.39 3.368-4.114 5.11-.563 5.003 1.644 1.98 4.536 3.314 5.848 3.109 6.352 3.476 9.091-1.867 2.002-4.336 2.494-9.772.572-13.493M1145.517 483.932c-1.824-3.182-6.104-4.486-9.553-2.913-3.455 1.574-4.77 5.435-2.951 8.618 1.826 3.182 10.505 4.564 10.505 4.564s3.822-7.087 1.999-10.27" fill="#000000"/><path d="M1116.139 446.443c1.485 4.092 5.333 13.042 7.865 17.875 4.515 8.301 9.003 16.906 15.299 23.2M1114.538 436.099c5.788 48.442 2.252 80.54 1.973 80.57" fill="none" stroke="#000000" stroke-width="2.318" stroke-miterlimit="10"/><path d="M1116.816 515.49c-5.448.85-22.575 4.815-21.945 12.724.85 12.231 19.581-8.53 21.667-11.615" fill="#000000"/><path d="M1116.816 515.49c3.55 1.49 6.905 7.215 6.896 10.716.817 7.166-4.353 6.91-11.087 5.95-13.563-1.546-5.552-14.34 4.098-16.298" fill="#000000"/><path d="M1117.634 515.262c4.303.86 9.15.511 12.788 3.128 2.218 1.596 4.297 4.033 5.83 6.155.276.38 1.47 1.901 1.103 2.444-3.426 6.71-16.771-9.578-19.721-11.727" fill="#000000"/><path d="M1118.157 515.366c2.624 1.697 14.327 10.652 13.396 14.354-2.975 8.352-22.455-14.319-13.396-14.354M1082.305 393.749c2.714 15.879-.114 34.234-9.341 47.708-4.685 6.842-11.133 12.288-16.108 18.908-5.533 7.361-8.943 16.161-11.242 25.005-.126.485-1.725.061-1.598-.428 2.069-7.955 5.07-15.476 9.469-22.438 4.22-6.685 10.178-12.059 15.243-18.075 11.36-13.493 14.895-33.899 11.987-50.91-.092-.539 1.507-.252 1.59.23" fill="#000000"/><path d="M1065.843 450.444c-5.883 6.173-7.2 15.453-7.492 23.628-.296 8.249.798 17.365 4.756 24.733.142.266-1.356.15-1.58-.268-4.024-7.49-4.91-16.523-4.774-24.893.132-8.195 1.73-17.611 7.588-23.76.299-.312 1.783.264 1.502.56" fill="#000000"/><path d="M1065.744 448.233c-2.972 2.597-3.343 2.966-7.503 4.094-2.152.588-5.669 1.384-7.523 2.333 2.272 1.514 6.691-.023 9.447-.236.808 4.469 1.058 9.116 1.884 13.582 3.104-.55 1.141-6.893.962-9.512-.295-4.243 2.267-5.753 2.347-9.761M1061.257 495.062c4.816.208 9.792 2.932 14.387 3.659.212-2.669-12.876-6.929-15.538-4.992" fill="#000000"/><path d="M1061.698 494.024c-4.942 5.868-.013 18.08 8.638 12.866 8.133-5.44-3.377-13.7-9.079-11.828" fill="#000000"/><path d="M1060.66 493.583c-5.179 2.089-13.982 6.937-12.55 13.675 5.854.648 11.533-7.668 13.147-12.196" fill="#000000"/><path d="M1061.18 493.804c-2.442 1.417-5.54 6.538-7.156 8.914-.664 1.56-3.177 3.866-2.577 5.344.53 4.519 1.854 1.404 4.672 1.985 5.788 1.538 6.307 1.757 7.62-3.506.878-4.228-.103-9.856-2.558-12.737M1042.446 488.915c-1.997-1.643-3.893 3.574-3.786 5.592.202 3.804 2.888 4.064 6.15 3.413 3.161-.631 5.06-2.827 5.21-6.083.168-3.71-3.91-3.722-7.02-3.295" fill="#000000"/><path d="M1045.277 485.246c-3.989-1.05-4.13 1.88-4.469 4.72 1.9.605 3.86.086 3.65-2.347.761 1.004 1.161 2.327 1.92 3.44 2.023.255 2.802-2.167 2.164-3.836-.875-2.286-2.389-1.219-3.894-2.197M1258.416 489.8c-.234-1.896 1.067-3.623 2.909-3.845 1.838-.226 3.518 1.13 3.751 3.03.233 1.902-2.788 4.837-2.788 4.837s-3.642-2.118-3.872-4.021M1271.226 477.95c-1.39-1.315-1.481-3.475-.204-4.818 1.276-1.343 3.435-1.365 4.824-.047 1.389 1.32.926 5.505.926 5.505s-4.157.682-5.546-.64" fill="#000000"/><path d="M1249.337 447.32c-.308 4.603-2.56 8.606-1.747 13.622.518 4.781 3.69 9.274 6.04 13.587 4.108 8.153 2.849 16.35.288 24.956-4.402 13.91-11.64 28.935-19.46 41.067M1249.81 446.732c-8.363 17.027 9.956 27.4 11.863 42.51M1250.578 446.38c-3.742 10.077 14.917 26.055 23.816 28.853" fill="none" stroke="#000000" stroke-width="1.458" stroke-miterlimit="10"/><path d="M1234.245 546.89c-1.139 7.156-7.08 2.563-10.322-1.03-1.99-2.208-5.576-12.192 1.093-11.833-.023-3.67.74-4.722 4.008-3.564 1.493.53 2.326 1.946 3.723 2.62 1.47.703 2.352.39 3.29.72 3.537 1.25 11.032 6.031 7.732 10.98 4.214 2.055.598 4.497-1.574 5.498-.145.066-3.373.76-3.95.673-1.698-.259-3.104-1.898-4.417-2.944M1247.864 461.058c1.076.824-.487 3.333-1.095 4.174-.747 1.035-2.47 2.202-2.88 3.164 1.231.084 2.528-1.133 3.348-1.737-1.117 1.393-1.666 2.971-2.757 4.274 1.821-.875 3.822-2.9 4.313-4.933 2.47.178 4.935 1.502 7.414.341-.5-.338-1.224-.155-1.884-.209-.856-.07-1.503-.309-2.284-.713-1.79-.917-2.323-2.815-3.94-3.849" fill="#000000"/><path d="M1255.554 479.718c.113 12.625-9.965 22.098-13.923 22.94" fill="none" stroke="#000000" stroke-width="1.458" stroke-miterlimit="10"/><path d="M1244.803 501.02c.678 3.574-.47 8.336-.212 11.834 1.995-.303 3.075-10.266 1.195-11.887" fill="#000000"/><path d="M1245.64 501.806c-5.16-2.621-13.278 3.103-7.962 8.557 5.392 5.037 9.48-4.837 7.125-8.701" fill="#000000"/><path d="M1246.38 502.009c-2.427-3.443-8.092-10.116-12.796-7.908.53 4.412 7.615 7.153 11.219 7.56" fill="#000000"/><path d="M1245.714 501.389c-1.462-1.551-5.754-2.945-7.78-3.725-1.257-.218-3.383-1.67-4.366-.974-3.226 1.168-.712 1.604-.654 3.775-.136 4.512-.207 4.932 3.886 4.993 3.255-.085 6.726-1.425 8.42-3.722M94.214 397.04c-.39 13.701-7.07 25.126-12.625 37.273-.408.893-2.325.342-1.932-.518 5.488-12.002 12.207-23.343 12.594-36.88.03-1.06 1.99-.797 1.963.124" fill="#000000"/><path d="M86.404 425.107c-4.632 9.01-3.095 20.014-.711 29.44 2.498 9.88 6.97 20.47 14.28 27.763.442.44-1.415.23-1.758-.113-7.16-7.142-11.311-17.105-14.078-26.665-2.803-9.69-4.46-21.617.335-30.943.264-.511 2.112.168 1.932.518" fill="#000000"/><path d="M85.526 422.374c-2.556 4.057-2.859 4.614-7.306 7.376-2.298 1.434-6.114 3.584-7.942 5.332 3.171.971 7.778-2.356 10.911-3.562 2.494 4.917 4.403 10.24 6.918 15.147 3.421-1.722-1.069-8.417-2.19-11.402-1.82-4.834.634-7.483-.667-12.175M96.604 478.423c5.677-1.434 12.413.002 18.012-.75-.681-3.18-17.392-3.578-19.816-.4" fill="#000000"/><path d="M96.756 477.062c-3.708 8.549 6.28 21.04 14.53 11.962 7.57-9.157-8.7-14.763-14.682-10.601" fill="#000000"/><path d="M95.394 476.91c-5.297 4.234-13.854 12.938-9.842 20.28 7.038-1.283 10.751-12.935 11.051-18.767" fill="#000000"/><path d="M96.078 476.985c-2.35 2.499-4.17 9.537-5.225 12.863-.23 2.047-2.35 5.604-1.14 7.116 2.193 5.073 2.648.987 6.13.682 7.269-.223 7.949-.15 7.648-6.73-.455-5.225-3.553-11.431-7.413-13.931" fill="#000000"/><path d="M390.163 406.553c3.87 15.72 32.457 121.106 36.01 126.978" fill="none" stroke="#000000" stroke-width="2" stroke-miterlimit="10"/><path d="M420.041 534.22c-2.127 3.784-7.058 9.404-7.712 14.898-.846 7.106 18.052 9.016 23.712 6.077 5.453-2.833 14.165-10.911 7.844-16.885-7.086-6.695-17.197-1.57-24.442-3.111" fill="#000000"/><path d="M426.01 540.709c.695 4.49 6.015 9.278-1.257 15.473-4.97 4.233-11.722.056-15.287-3.931-7.708-8.624-4.438-24.736 4.61-30.933 1.466-1.004 4.169-3.158 6.212-2.624 2.337.611 3.198 4.346 3.773 6.65 1.108 4.439 2.797 11.139 2 15.689" fill="#000000"/><path d="M427.008 538.564c5.636-.927 12.32 5.125 18.637 5.1 7.166-.031 5.569-8.46 2.748-12.718-1.758-2.65-3.801-4.526-6.242-6.738-1.665-1.51-1.861-1.787-2.68-3.752-.717-1.723-.424-2.771-1.95-4.132-6.8-6.066-10.826 3.843-10.844 8.78-.008 2.253-.04 4.693.352 7.154.384 2.425-.4 4.605.029 6.63" fill="#000000"/><path d="M438.661 535.331c6.074-5.492.477-17.956-6.148-16.539-2.857.612-4.854 3-7.436 3.891-2.827.975-6.038.59-8.69 1.787-2.948 1.33-4.285 3.076-4.07 7.95.267 6.1 3.262 7.686 7.347 8.92l7.393-2.452 11.604-3.557z" fill="#000000"/><path d="M410.747 425.339c27.945 100.303 44.695 86.786 44.628 68.492" fill="none" stroke="#000000" stroke-width="2" stroke-miterlimit="10"/><path d="M447.793 480.547c1.07-9.268 6.126-16.295 11.295-15.7 5.164.6 8.486 8.596 7.413 17.86-1.068 9.267-6.127 16.295-11.294 15.694-5.166-.595-8.488-8.591-7.414-17.854" fill="#000000"/><path d="M1500.975 455.584c-9.43 114.381-30.367 103.226-34.093 83.41" fill="none" stroke="#000000" stroke-width="2.204" stroke-miterlimit="10"/><path d="M1472.331 523.04c-3.083-9.812-10.015-16.369-15.486-14.65-5.465 1.72-7.402 11.066-4.317 20.871 3.081 9.811 10.015 16.367 15.484 14.644 5.47-1.716 7.406-11.062 4.32-20.866" fill="#000000"/><path d="M362.977 409.99c15.384 40.393 12.422 106.431 10.54 113.133" fill="none" stroke="#000000" stroke-width="1.553" stroke-miterlimit="10"/><path d="M374.834 523.789c6.354 1.13 16.011 5.75 13.443-6.36-5.509-1.141-7.39-.25-6.957 5.483-1.662.292-3.383.474-5.077.702" fill="#000000"/><path d="M374.303 522.628c3.62-.052 8.582 2.178 13.096 2.264.972 2.342 3.688 9.33 2.445 12.019-1.571 3.399-7.83 3.125-11.044 2.713-4.654-.597-5.11-2.257-6.092-6.775-.976-4.491 1.92-6.367 1.595-10.221M372.834 522.334c-1.628 4.283-8.36 12.542-13.227 12.619-4.175.067-8.702-7.299-9.38-11.637 8.634-4.915 13.807-2.363 22.138-.923" fill="#000000"/><path d="M357.552 533.777c-2.542 2.847-4.859 4.998-.444 7.11 2.454 1.173 7.173 1.025 9.875.236.352-3.02-5.186-4.488-7.658-5.263.023-.822-.646-1.393-.775-1.73" fill="#000000"/><path d="M374.83 523.04c1.903 3.885 6.868 8.057 7.744 12.4 1.298 6.433-4.167 7.638-9.017 7.22-4.556-.394-10.517-1.616-14.587-4.194-2.68-1.697-8.326-9.666-8.132-13.317 3.5-1.986 6.328-4.041 10.308-4.703 4.575-.762 7.99 1.293 11.688 1.888" fill="#000000"/><path d="M1495.651 432.016c-2.863 44.977 20.458 109.838 24.401 115.933" fill="none" stroke="#000000" stroke-width="1.619" stroke-miterlimit="10"/><path d="M1518.944 549.018c-5.98 3.086-14.174 10.667-15.352-2.187 5.135-2.836 7.283-2.53 8.621 3.314 1.746-.222 3.515-.571 5.274-.866" fill="#000000"/><path d="M1519.115 547.698c-3.622 1.065-7.876 4.816-12.346 6.294-.245 2.633-.794 10.43 1.274 12.725 2.613 2.9 8.761.698 11.837-.705 4.45-2.03 4.39-3.823 3.976-8.626-.412-4.774-3.877-5.75-4.74-9.688M1520.488 546.952c2.943 3.763 12.194 9.914 17.066 8.489 4.18-1.222 6.416-9.955 5.754-14.484-10.117-2.233-14.48 1.905-22.336 5.908" fill="#000000"/><path d="M1539.238 553.636c3.411 2.052 6.382 3.479 2.635 6.943-2.082 1.927-6.828 3.235-9.763 3.283-1.282-2.9 3.782-6.07 6.005-7.605-.277-.811.215-1.585.238-1.962" fill="#000000"/><path d="M1518.717 548.271c-.696 4.457-4.354 10.143-3.886 14.74.692 6.807 6.505 6.322 11.207 4.408 4.417-1.797 9.977-4.853 13.235-8.676 2.146-2.518 5.31-12.196 3.992-15.774-4.098-.898-7.55-2.073-11.72-1.505-4.79.653-7.557 3.754-11.057 5.487" fill="#000000"/><path d="M970.965 624.006l20.314-1.391" fill="none" stroke="#000000" stroke-width="1.024" stroke-miterlimit="10"/><path d="M969.937 624.064l.77-.053" fill="none" stroke="#000000" stroke-width="1.031" stroke-miterlimit="10"/><path d="M972.434 623.894l2.592-.177" fill="none" stroke="#000000" stroke-width="1.031" stroke-miterlimit="10" stroke-dasharray="1.732,1.732"/><path d="M975.89 623.658l12.959-.886" fill="none" stroke="#000000" stroke-width="1.031" stroke-miterlimit="10" stroke-dasharray="1.732,1.732,1.732,1.732"/><path d="M989.713 622.713l.77-.053" fill="none" stroke="#000000" stroke-width="1.031" stroke-miterlimit="10"/><path d="M991.967 623.335c-1.336.067-2.435-.221-2.452-.643-.022-.422 1.055-.717 2.38-.888 1.163-.149 2.437.219 2.456.643.019.419-1.05.819-2.384.888" fill="#000000"/><path d="M991.967 623.335c-1.336.067-2.435-.221-2.452-.643-.022-.422 1.055-.717 2.38-.888 1.163-.149 2.437.219 2.456.643.019.419-1.05.819-2.384.888z" fill="none" stroke="#000000" stroke-width=".904" stroke-miterlimit="10"/><path d="M969.685 625.519l3.688 19.855" fill="none" stroke="#000000" stroke-width="1.02" stroke-miterlimit="10"/><path d="M969.49 624.518l.14.755" fill="none" stroke="#000000" stroke-width="1.026" stroke-miterlimit="10"/><path d="M969.943 626.961l.471 2.532" fill="none" stroke="#000000" stroke-width="1.026" stroke-miterlimit="10" stroke-dasharray="1.717,1.717"/><path d="M970.571 630.337l2.354 12.661" fill="none" stroke="#000000" stroke-width="1.026" stroke-miterlimit="10" stroke-dasharray="1.717,1.717,1.717,1.717"/><path d="M973.082 643.842l.141.755" fill="none" stroke="#000000" stroke-width="1.026" stroke-miterlimit="10"/><path d="M974.238 645.85c-.262-1.3-.81-2.279-1.226-2.194-.416.09-.43 1.198-.266 2.514.141 1.147.813 2.284 1.226 2.193.413-.089.535-1.21.266-2.513" fill="#000000"/><path d="M974.238 645.85c-.262-1.3-.81-2.279-1.226-2.194-.416.09-.43 1.198-.266 2.514.141 1.147.813 2.284 1.226 2.193.413-.089.535-1.21.266-2.513z" fill="none" stroke="#000000" stroke-width=".9" stroke-miterlimit="10"/><path d="M988.767 593.148c-1.796 3.402-2.05 4.765-4.293 8.552-2.145 3.617-4.984 10.264-9.21 13.359-2.148 1.57-4.61 2.838-7.101 3.772a8.411 8.411 0 0 1 1.086 1.965c.375-.114.793-.065 1.118.206.506.423.575 1.18.149 1.688a1.213 1.213 0 0 1-.29.233c1.64 1.132 3.47 2.755 3.819 3.142-.998-.236-1.776-.492-2.652-.631.27.625.805 2.128 1.075 2.75-1.254-.658-2.595-2.008-3.862-3.275-.034.059-.051.123-.097.177a1.197 1.197 0 0 1-1.687.15 1.183 1.183 0 0 1-.41-.955 7.754 7.754 0 0 1-2.304-.694c-.488 2.53-1.277 5.083-2.408 7.402-2.298 4.702-8.342 8.667-11.527 11.419-3.327 2.88-4.63 3.366-7.663 5.736-2.244 1.754-6.884 5.46-9.745 3.07 0 0 .576-1.753-1.044-4.446-.096-.162-1.175.396-1.451.123-.33-.336.07-1.288-.255-1.747-.317-.438-2.116-1.276-2.085-2.5-.306-.605 2.31-1.32 2.628-3.105.137-.758-.381-1.62-.128-2.37.262-.76 1.074-1.184 1.492-1.848.068-.103-1.335-1.411-1.355-1.576-.125-.84 1.473-1.567 1.473-1.567.208-.475-.101-.732-.345-1.212-.322-.634-1.43-1.27-1.001-2.177.63-1.325 1.478-.407 2.169-1.444a.564.564 0 0 0 .067-.298l-.317.07-.922-.768c-.66-.55-1.074-1.396-1.824-1.966-.766-.578-1.996-1.175-2.232-2.193-.13-.552.439-.96.459-1.493.026-.73-.232-.826-.834-1.33-.576-1.202-.881-1.642-.12-2.781.589-.88 1.492-1.631.696-2.714-.682-.913-2.92-1.41-1.198-2.831.783-.648 1.709-.134 2.486.21 2.559 1.134 3.26-2.183 3.625-3.958.73-2.33 2.756-1.5 4.326-2.837 1.45-1.232 2.374-2.08 4.385-1.233a41.021 41.021 0 0 1 3.573 1.69c.82.44 1.62.922 2.407 1.42-.553-.898-.84-1.546-.701-1.71.095-.114.562-.02 1.257.226-.46-.52-.907-1.051-1.337-1.596a40.818 40.818 0 0 1-2.293-3.217c-1.187-1.835-.521-2.89.437-4.536 1.038-1.78-.133-3.628 2.028-4.753 1.688-.675 4.828-1.95 3.26-4.268-.475-.706-1.143-1.527-.644-2.414 1.093-1.944 1.975.17 2.994.678 1.209.594 1.788-.425 2.552-1.16.985-.95 1.473-.727 2.759-.373.6.5.74.738 1.452.586.526-.113.826-.746 1.392-.718 1.042.055 1.847 1.16 2.549 1.813.694.635 1.603.896 2.26 1.448l.918.766-.013.333a.53.53 0 0 0 .28-.118c.903-.861-.155-1.538 1.04-2.393.817-.583 1.637.392 2.32.604.513.154.82.413 1.255.124 0 0 .43-1.702 1.277-1.727.169-.01 1.706 1.139 1.795 1.058.576-.532.854-1.407 1.555-1.798.693-.38 1.634-.024 2.357-.293 1.696-.625 1.94-3.328 2.59-3.133 1.2-.245 2.342 1.375 2.827 1.61.51.243 1.38-.326 1.766-.055.32.22-.04 1.383.138 1.45 2.937 1.118 4.558.243 4.562.243 2.853 2.396.025 7.614-1.305 10.138" fill="#000000"/><path d="M1083.792 487.418c-5.272-23.4-11.249-45.802-11.951-67.82-3.162 17.945-14.715 32.841-31.291 46.095 1.238-5.547 2.888-11.08 7.289-15.498 4.718-4.732 9.3-9.172 6.554-16.474-4.671 2.99-8.761 5.604-12.848 8.218.47-5.302 2.926-9.98 5.907-14.484 5.005-7.564 6.274-10.845 4.964-14.8-12.963 17.52-33.987 27.029-56.448 23.716 30.183-5.298 42.688-18.673 55.279-32.103-9.12 1.964-16.403 5.062-24.534 7.509-2.723.822-7.598-.011-12.093-.1 3.641-4.479 13.218-5.125 11.615-10.482-6.757.315-12.392.838-18.32.772-5.423-.06-11.166-.756-16.769-1.17 20.018-3.846 35.972 6.951 41.327-5.785 41.41 9.42 93.888-9.802 135.986-.225-7.604 17.885-5.405 53.402 0 72.893-14.128-13.182-20.195-26.419-24.637-39.795-12.467 27.853-1.666 58.885 7.368 89.744-23.746-30.869-26.447-60.125-28.252-89.483-6.071 11.108-5.975 23.776-12.477 34.756-2.123-7.132-.753-13.882-3.865-20.758-3.272-7.233.329-13.44-5.649-21.023l-8.561 37.638c-.779-.164-1.555-.327-2.332-.492l-2.679-27.432c-10.104 8.691-1.363 20.84-4.015 30.845-.078.294 1.433.936 1.417 1.275-.398 7.771 7.598 16.983-.985 24.463" fill="#000000" fill-rule="evenodd"/><path d="M1194.236 581.426c.758 1.846 1.4 2.956 3.354 3.706 1.79.687 2.942.38 4.356-.818 1.217-1.031 2.752-1.542 3.27-3.194.457-1.45-.47-2.477-.605-3.884a3.077 3.077 0 0 0-.222-.131c.248-1.51-1.944-2.29-3.173-2.15.041-.734.73-.677 1.004-1.25-.213-.025-.468-.236-.68-.268.005-.597.53-.627.765-.994-.267-.061-.555-.263-.824-.317.073-.3.116-.576.341-.813-.09.016-.397-.078-.537-.05.03-.261-.079-.49.028-.757-.559-.058-.88-.442-.639-1.016-.368-.213-.983-.067-1.265-.261-.39-.27-.519-1.078-.768-1.39-.268.235-.538.489-.825.69.083-.487-.156-.775-.639-.66-.172-.316-.217-.68-.175-1.042-.059.072-.14.09-.23.268-.698-.244-.583-1.484-.915-2.104-.34.173-.626.508-.927.789-.109-1.238-.869-.584-1.378-.133-.048-.115-.146-.237-.19-.322-.063.269-.258.557-.316.833-.514-.097-1.152-.54-1.254-1.064-.18.168-.377.244-.51.483-.372-.031-.669-.31-.895-.58-.022.223-.233.486-.26.714-.638-.388-1.017-1.141-1.838-1.214-.188.459-.318.955-.493 1.418-2.412.396-2.91-.404-3.794-2.446-.782-1.8-2.327-2.765-3.743-4.03-1.426-1.273-2.896-2.266-4.494-3.313-1.446-.947-3.709-3.161-5.51-1.882-1.475 1.045-1.994 3.597-2.53 5.22-.495 1.502-.708 2.86-.217 4.399.554 1.732 1.614 3.44 3.206 4.382 1.657.979 3.82.764 5.371 1.887 1.505 1.087 2.487 2.966 3.911 4.207 1.318 1.149 2.636 2.305 3.985 3.417.718.003.798-.15 1.345.284.385.304.156.779.8.936-.126.225-.143.643-.247.84.478.21 1.176.262 1.615.538.415.26.424.746.715.97.52.404 1.021-.094 1.481-.727.391.41.38 2.36 1.358 2.046.438-.14.61-1.067.488-1.402-.143.48.105.99.234 1.458.366-.481.437-1.12.675-1.661.17.454.252.962.515 1.358.224-.256.383-.565.467-.892.17.03.422.069.57.166" fill="#000000"/><path d="M1201.38 584.069c-.31.689.175 1.87.398 2.556.373 1.143.808 1.107 1.996 1.16 1.654.078 3.76.44 5.408.11" fill="#000000"/><path d="M1202.16 582.092c-.31.69.174 1.871.397 2.556.373 1.143.81 1.107 1.997 1.162 1.654.076 3.76.44 5.407.11M1186.502 579.882c-2.7-1.197-7.129 1.084-9.309 2.542-2.704 1.808-5.83 2.917-8.797 4.243-1.898.846-3.589 2.18-5.604 2.633-.442-1.597.797-4.585 1.542-5.974.192-.36.7-.862.494-1.224-.256-.448-2.059-.27-2.502-.276-1.047-.015-2.095.03-3.136-.075-.983-.1-1.996.083-2.973-.1.649-2.29 2.531-5.396 4.791-6.473-.579-.246-1.779-.827-1.957-1.49-.237-.881 1.084-1.651 1.719-2.132 1.348-1.021 3.419-1.746 5.062-2.006 5.701-.901 11.59 1.764 16.619 4.053.765.348 1.45.777 1.651 1.659.123.543 1.115.276 1.22.79.273 1.317.661 2.345 1.034 3.783M1193.354 567.733c-.795-.089-1.61-1.759-2.034-2.45-.503-.819-1.009-2.597-2.013-2.926.607-2.399 3.13-6.228.69-8.152" fill="#000000"/><path d="M1194.706 566.557c-1.043-.15-1.256-1.64-1.636-2.467-.412-.9-.988-1.566-1.486-2.416 1.24-1.274 5.127-5.958 2.444-7.45M1198.27 569.007c.659-.4 1.165-.993 1.91-1.39.57-.303 1.187-.527 1.687-.794-1.02-1.048-1.476-2.58-2.202-3.812-.672-1.137-1.665-1.354-2.911-1.765" fill="#000000"/><path d="M1198.037 570.224c.65.026 1.887-.885 2.552-1.104.647-.213 1.405-.318 2.001-.645-.304-.616-.838-1.93-1.243-2.377.047-.811-.482-2.72-.884-3.435-.324-.576-2.324-2.294-2.744-2.395M1189.477 568.734c-1.975-.606-3.605-2.175-3.434-4.249.09-1.08.382-2.014.62-3.054.256-1.107-.352-1.426-.807-2.434" fill="#000000"/><path d="M1190.006 568.1c-1.54-.252-1.888-2.433-1.73-3.636.087-.657.455-1.127.377-1.766-.064-.528-.387-1.149-.547-1.677" fill="#000000"/><path d="M1437.166 525.41c17.789-27.522 35.567-53.353 48.864-81.618-7.82 25.11-7.096 50.914-1.366 77.368 2.206-7.904 4.073-16.023 3.071-24.215-1.076-8.779-.125-35.294 6.317-43.267 2.045 6.481 1.751 30.346 3.542 36.018 2.685-7.16 3.405-14.612 3.601-22.129.326-12.624 1.198-17.598 4.541-22.017.349 30 11.84 54.053 31.901 62.22-21.324-23.664-23.697-48.013-26.108-72.485 6.237 7.622 21.631 27.607 25.314 29.985-.352-7.847-7.718-14.007-3.325-20.089 5.277 4.163 9.527 7.975 14.355 11.183 4.415 2.935 9.459 5.216 14.227 7.79-13.952-16.125-30.046-30.484-27.011-50.03-38.904-10.746-76.996-21.267-116.548-32.19-4.195 27.5-22.739 48.402-38.374 70.76 19.037-9.306 31.591-23.16 42.913-38.1-6.027 43.17-15.732 53.815-40.87 88.952 37.032-26.977 39.163-39.812 57.592-77.012-1.517 17.827-8.915 34.261-10.011 52.16 5.84-8.103 22.629-42.54 31.84-49.086-4.946 17.91-7.724 36.48-12.672 54.391.724.22-.724-.216 0 0l18.023-34.21c3.139 16.92-32.426 61.121-29.816 75.62" fill="#000000" fill-rule="evenodd"/></g></svg>
