<svg id="Layer_2" xmlns="http://www.w3.org/2000/svg" viewBox="0 0 45.1 28.8"><style>.st0{fill-rule:evenodd;clip-rule:evenodd}</style><path class="st0" d="M14.4 0c0 .7 1.8 2.1 2 2.6.5-.4.1-.7.4-1.5.2-.1.3.2.3.4.6 0 .3-.9.4-1.5.2-.2.2 1.5.7 1.6.5-.2-.1-.6 0-.9.5.5.4-.3.4-.7.5.7.2 2.2 1.1 2.6.4-.1.1-.9.2-1.3.5 0 .3.7.5.9.5-.2-.3-.6 0-1.1.2 0 .3.8.4 0 .2.1.2.5.2.7.5-.2.2-1.1.5-1.5.3.3-.1.7.2 1.3.2 0 .2-.3.2-.5.3 0 .4 1.5.5.5.5.3-.2.6.2 1.1.3-.4.4-.7.4.2.3-.5.5-1 .7-1.6.4.2 0 1.2.5 1.3.5-.2-.2-.5 0-.9.3.5.6.3.8-.2.3 0 .2 1.4.4.4.4 0 .1.8 0 .9.4.1.7-.6.7 0 .3-.4.4-.8.5-1.3.4.6-.5 1.4 0 2.2.6 0 0-1.2.7-1.1-.2.2-.2.6-.2 1.1.3-1.1.9-.5 1.5-1.6.3-.2-.6 1.3-.5 2C29 4 29 3 29.4 2.5c.1.5-.2 1.2-.2 2.5.3-.5.6-.9.5-1.6-.1.4 1.1 1.2.4 1.5.1.6.5 0 .5.4.3-.4.4-.8.4-1.3.3-.6.2.6.2.9.5-.2.8-.4.7-1.1.4.6.1.5.7.2.1.7-.4.9-.4 1.6.3-.1.6-1.3.5-.2.5.1-.2-1 .5-.7v.7c.4-.2.4-.8.5-1.3.1.9-.1 1.8 0 2.2.3.4 1.3.1 1.1-.5.3-.1.3 1 0 .9.2.5.3-.5.9-.2.1.2.2.4.2.7.5 0 .6-.4.5.4.4-.1.6-.5.9-.2 0 .5-.3.6-.4.9.4.4.7-1 1.5-.9-.2.6.5.2.5 0 .7.2 0 .6 0 1.1.3-.5.5-.4.7-.5.4.1-.4.6-.4.9.9-.1 1-.9 1.3-1.5.5.2-.1.8-.2 1.1.1.4.5-.2.5-.4.1.8.7 1.1-.4 2.2.3-.3.8-.3.9-.7.2.3 1 .3.5.7.5-.3.6.2.9-.2 1.1.2-1.1 1.1.4 1.1-.4.4-.4.9-1.3 1.1 0 .3.1.7-.2.7.1.2.2.4.5.4-.1 2.7.5 4.1 1.1 7.1.9 4.3 3 6.8-2 5.5 0 .6-.4-.1-.5.7-.5 0-.1-.6 0-.7-2.2-.7-4.1 0-6.8-.9-.6-.1-3.8-1.3-4.6-2.4-.2.1-.3.4-.4.7-.2-.1-.3-.4-.4-.7-.2.1-.2.5-.2.7-.3-.2-.7-.4-.7-.9-.5.2-.7.7-.9 1.3-.1-.4-.7-.2-.9-.5-.3.2-.6.3-.5.7.6 2.5 4.3.8 4.9 3.3-1 .4-4.5 1.2-6.2.4-.1-.4-.1-.2-.5-.4.1-.3.2-1.3-.5-1.5-.4.1-.5.4-.7.5.2 1.3 1.7.8 1.6 2.3.1.4-1.7.4-2.7 0-.1-1-.6-2.5-1.8-2.9 0-.4.1-.6.5-.5-.4-.4.2-.8-.2-1.1-2 1-3.5.7-4.6 1.1-.2-.7-.3-.3-1.1-.4v-.7c-.3.3-.7-.3-.7.5-.2-.1-.3-.3-.5-.4-.4.1.3.5-.5.4 1.4 2.3 4.9 1.3 6.9 2.7-.8.4-1.1.7-1.8.7.1.2.4.2.4.5-1.8.3-5.6-.4-5.1-.4-1.4-.7-2.5-1.6-3.7-1.6-.2.3-.5.5-.5.9-1.2-.9-1.4-2.6-1.8-3.3-.7.9-.7 0-1.1.4-.2-.9-1.1-.7-.7-1.5-.2-.5-.4.6-.9.4 0-.3.2-.4.2-.7-2.5 3.1 2.1 4.2 2.6 6.1-4.4.4-4.8-.4-5.5-3.2-.2.2-.7.2-.9 0 .3-1 1.3-2.9 0-3.5.3-.9.4-1.4.2-1.8.1-.7 1.1-.5 1.5-.9 0-.4-.5.2-.9 0 .2-.3.7-.3.7-.7-.2-.3-.8.4-1.1.5-.8-.2 1.1-.9 0-.9.1-.4.6-.5.9-.7 0-.2-1.2 0-1.5.2.3-.1.3-1 .9-1.3-.2-.5-.8.1-1.1 0 0-.5.7-.3.9-.5-.3-.4-1-1.1 0-1.1 0-.4-.8-.1-1.1-.2 0-.1 1.1-.6 1.8-.5-.2-.4-1.1-.1-1.5-.4.2-.4.8-.5 1.1-.9-1.8-.4-.9-.4.7-.4 0-.5-.6-.5-.7-.9.5-.4.8-.6 1.4-.6-.7-.4.1-.5.7-.5-.2-.3-.6-.3-1.1-.4-.5-.2.6-.2.8-.2.1-.5-.3-.6-.7-.5 0-.3 0-.5-.2-.5.2-.5.6.3 1.1 0 .5 0-.4-.5.4-.4 0-.4-.6-.1-.9-.2-.4-.2 1.1-.7 1.4-.2 0-.4-.5-.4-.7-.5.6-.2 1.2-.2.7-.8.2-.3.7.5 1.3.4-.2-.4-.6-.7-1.1-.8.4-.1 1.1-.1.4-.7.2-.5 1 0 1.3 0 .5-.1-.8-.7.1-.6.1.5.5.7.8.9.4-.1 0-.7-.2-.7.2-.4.5.5.9.5-.2-.2-.2-.6-.6-.7.5-.4 1.5-.9 2-.2.1-.5-.4-.4-.5-.5.4-.7.8-.1 1.1-1.3.4.3.5 1 .7 1.5.2 0 .1-.4.4-.4-.1-.7-.8-.7-.9-1.5.5.3.2.2.2-.3.6.5.6.5 1.3.9.6-.5-.4-.9-.4-1.5.5.2.6.6.9.9.5-.1-.5-.6 0-.9-.5.3-.2-1-.7-1.5.9 1.1 1.6 1.9 2.6 2.6-.2-.4-.4-.8-.7-1.1.2-.6.5.2.7.2.1 0 .2-.2.4-.2.1-.6-.3-.6-.2-1.3.4.5.4 1.3.9 1.6.2-.3-.5-1.3-.4-2.1zM.8 15.4c.5.2.6-.7.4-.2-.3 0-.7 0-.4.2zM20 2.4c-.3 1.6.1-.5 0 0zM7.2 7.1C6.5 6.9 5.8 5.5 5 5.9c.5.6 1.5 1.5 2.2 1.2z"/></svg>