<svg id="artwork" xmlns="http://www.w3.org/2000/svg" viewBox="0 0 1600 396"><defs><style>.cls-1,.cls-5{fill:#231f20;}.cls-2,.cls-3,.cls-4{fill:none;}.cls-3,.cls-4{stroke:#231f20;stroke-miterlimit:10;}.cls-3{stroke-width:12.91px;}.cls-4{stroke-width:7.75px;}.cls-5{opacity:0.5;}.cls-6{opacity:0.4;}</style></defs><title>Hero area_marine</title><path class="cls-1" d="M364.18,348.63c-1.76-3.53-3.66-6.74-7.66-8-3.85-1.17-12.77,1.82-11.61,7.23,2.94,1.39,18.4,5.93,18.94.39"/><path class="cls-2" d="M1583.05,195.45c24.06-45.94,107.58-58.45,153-58.5"/><path class="cls-1" d="M1306.08,98.05c-3.91,5.5-15,6.49-15.37-1.87-.76,1-1.81,2.25-2.52,3.33,0,.05-1.24-.22-1.09-.37,3.6-9.62,9.5-24.13,4.18-34.32a40.27,40.27,0,0,1-5.8-1.5c-3.59,4.3-5.62,10.39-10.05,14,1.69-6.09,5.55-10.53,7.43-16.45a14.21,14.21,0,0,0-2.66,1.08,9.54,9.54,0,0,0,.22-3.54c-10,1.25-12.27,3.13-18.54,12.3-8.8,12.86-13.17,27.95-11.07,43.4,2.54,18.76-9.4,35-26.84,39.53-19.05,5-33.25,16.2-47.75,29-11.06,9.8-20.05,20.61-31.16,29.83-5.06-4.35-7.35-11-9.38-18.77a17.1,17.1,0,0,0-2.7-5.23s-8.79,8-10.84-6.25c0,0-1.9,6.11-5.5,5.94-4.79.36-4.34-4.37-5.74-4.82-.84,6.43-6.56,8.64-10.69,1.3-1.39.78,1.14,5.1-2.19,7.13-4.55-.16-5-5.3-6-4.28-.22,5.27.26,11.17,2.84,15.71,5.81,10.23,20.08,19.17,31.75,25.7-6.43,9-8.73,18-20.94,19.41-7.93.95-23,.54-36.24,5.44-7.43,2.76-4.6,2.56-11.34,7.33-1.74,1.23-4.46,1.6-6.39,2.3a27.26,27.26,0,0,0-11.46,8.51c-2.07,2.59-2.47,4.25-2.25,6.19s.52,2.74,2.48,4.28a16.37,16.37,0,0,0,7.65,3.25c.94.11.28,1.18,1.14,1.64,8.22,4.39,23.38,7,27.26,8.59,6,2.4,10.55,6.66,16.24,9,6.7,2.76,14.54,3.51,22.17,4.81,18.69,3.2,42.75-2.17,64.2-11.13,5.38,6.29,11.13,12.88,18.17,17.11,6.67,4,14.45,4.86,22,6.29,7.09,1.36,14.16,3.3,21.41,1.91,2.64-.5,12.6-3.51,6.23-6.26,2.49-.61,4.27-2.12,6.6-3.32-1,.23-2.59-.9-3.38-1.43-.6-.4-1.06-.38-1-1.12a9.13,9.13,0,0,1,2.16-2.33c-2.7-.73-3.38-1.64-1.84-4.13a20.62,20.62,0,0,1-5.13-.79c.11-1.51.09-1.77,1.22-2.78-7-2.09-14.29-3-21.26-5.16-3.08-.94-8.21,1.2-10.51-1.21a13.77,13.77,0,0,0-4.43-3.22c-1.64-.81-2.72-1.35-3.66-2.93-.61-1-1.41-2-2.07-3.08,3.67-2.26,7.09-4.59,10.2-6.94,33-24.94,43.65-56.13,50.39-89.42,3.68-18.17,5.38-46.72,23.61-55.17,16.58-7.68,39.33-19.67,43.69-39.91C1326.14,99.37,1309.92,107.6,1306.08,98.05Z"/><path class="cls-3" d="M1357,354.63c42.84-6.09,123.43-53,114.82-132.14"/><path class="cls-1" d="M1476.37,241.47c10.66-5.25,16.74-12.18,22.5-22.53,7.28-13.07,13-22.91,14.73-38.08,1.51-13.44,1.6-27.45-4.48-40-6.66-13.78-24.52-20.69-34.78-31.6-9.41-10-9.83-21.38-15-33.25-9.22,13.64,2.47,32.31,13.32,41.18,11.52,9.42,20.21,17.82,23,33.14,1.41,7.78-1.91,14.41-3.61,22-2.31-5.51-1.13-13.23-3-19.29-2.37-7.71-5.54-14.52-11.38-20.44-11.11-11.25-27.2-14.52-38.33-25.89a31.54,31.54,0,0,1-7.42-12c-1.06-3-1.28-8.81-3.75-10.21-1.15,17,1.57,33.86,17.38,43,10,5.79,21.58,9.83,29.32,18.92,5.35,6.28,6.05,13.26,7.72,21,1.42,6.58,4.69,14.38.41,20.61-4.56,6.63-14.07,6.3-18.67,0-5-6.82-4.35-15.47-10.55-22-7.59-7.94-18.17-12.66-23-23.07-5.12-11-4-21.28-14.54-29.53-10.1-7.93-22.92-12.41-34.52-17.67,11.5,9.85,27.68,20.63,32.49,35.7,3.9,12.23-1.59,22.44,10.46,31.63,4.46,3.4,30.94,12.94,15.64,19.13-14.38,5.82-29.8-7.51-34.42-20.25-2.64-7.3-1.83-15.24-4.2-22.61-4.07-12.67-14.73-22.51-23.79-31.73,1.8,11.05,4.84,22.25,7.7,33.07,2.8,10.59,4.85,23.06,12.86,31,5.37,5.3,13.22,15.08-.3,15.43-13.25.34-20.5-13.24-26.07-23-6.67-11.64-14.93-21.63-28.88-23,.38,9.1,11.27,21.06,16.4,28.56,5.54,8.09,12.29,18.95,20.13,25,8.5,6.57,19.65,7.28,29.52,10.49,14.83,4.83,26.92,10.28,37.46,22.28,7.49,8.52,15.61,20.46,28.75,14.57"/><path class="cls-1" d="M0,295.46a79.9,79.9,0,0,1,16.35,7.27c2.39,1.33,4.77,2.71,7.12,4.09s4.39,2.56,6.54,3.77c2.62,1.47,5.2,2.82,7.7,4,2,.9,3.91.87,5.8,1.43,2.48.74,5.06,2.29,7.71,3.08l3.91,1.17,3.6,1.06c2,.59,2.09,1.41,4.13,2,1.41.41,4.74.58,6.17,1l2.7.77c.9.25,1.8,1.29,2.7,1.54,1.81.51,3.63.23,5.45.73q3.38.93,6.76,1.81l5.23,1.35q2.91.73,5.76,1.42,2.29.55,4.54,1.06c1.86.42,3.69,1.6,5.49,2q2.38.49,4.73.89c1.49.25,3-.31,4.44-.1,2.8.38,5.58,1.47,8.34,1.72,3.94.36,7.84-.17,11.73.05,4.51.26,9,.49,13.5.8,3,.21,5.93.46,8.91.78,2,.22,4-.32,6,0,4,.6,8.09,2.16,12.18,3.2,1.56.4,3.08,1.55,4.58,1.9s2.84-.14,4.23.15c2.47.52,4.86,1.75,7.2,2.14,2.83.47,5.58.07,8.28.37q2.67.3,5.29.5c2,.15,3.94.27,5.9.35,1,0,2-.71,3-.69,2.74.07,5.49.85,8.28.81q2.56,0,5.17-.13l3.95-.16,4.32-.22,4.33-.25c1.54-.09,4.65.47,6.25.37s1.39-.85,2.9-.94l3.26-.21,2.56-.15c1.37-.08,6.34,1.37,7.7,1.31,1.57-.08-.48-1.67,1.08-1.73l2.35-.08c3.16-.11,7.05-2.21,10.19-2.26,1.57,0,2.39.42,4,.41q3.84,0,7.65,0c3.73,0,7.44,2.43,11.15,2.52,3.51.08,7,1,10.51,1.1l7.08.28,3.58.16c2.92.14,5.84-1.29,8.76-1.13l7,.38,5.34.3,5.24.31,8.85.53,4.53.27,5.87.34c2.75.16,5.5-.47,8.25-.33,1.94.1,3.88-.58,5.83-.49q4.1.2,8.21.38t8.19.31q4.16.14,8.34.24c1.86,0,3.72.86,5.59.89,3.75.06,7.51.87,11.28.87h5.91l5.86.06,3.52,0,5.84.11,2.95.06,5.69.14,2.53.07c2.73.07,5.46.93,8.2,1l3.54.1,7,.2c2.15.06,4.31-.67,6.46-.61l2.93.07,4.69.1c2.08,0,4.17,1.65,6.26,1.68l4.18.05,2.79,0,5.58,0c2.36,0,4.71-.73,7.07-.64,1.34.05,2.69-.67,4-.59q2.39.14,4.77.32l3.33.27,3.68.33q3.2.3,6.4.64c.92.1,1.84,1,2.76,1.07,1.84.2,3.68-.39,5.52-.2l5.24.54c1.56.16,3.12-.48,4.68-.33,1.76.16,3.51,2.66,5.26,2.79,2.33.18,4.66-.46,7-.35s4.65.18,7,.21c3.08,0,6.16-.81,9.24-1q2.32-.12,4.63-.33c1.06-.1,2.13,1.37,3.19,1.27,1.34-.12,3.86.54,5.2.42s1.37-.23,2.64-.34,2.71-1,4.07-1.15c2.47-.22,4.94-2,7.41-2.23l5.92-.52,2.31-.21,3.53-.31c1.15-.1,2.31-1,3.46-1.09.84-.08.52-.15,1.36-.23s3-.17,4-.25l4.11-.37c2.14-.19,4.28.4,6.41.21,1.42-.13,2.84.53,4.27.4l4.52-.42,4.52-.42c1.16-.11,2.32-1,3.47-1.11l5.08-.48c3.38-.33,6.75.13,10.11-.21,1.77-.18,3.42-1.19,5-1.47a54.67,54.67,0,0,0,7.83-2c2.06-.69,4-1.46,5.79-2.27,2.19-1,4.28-2.79,6.44-3.81,1.42-.67,2.88-1.35,4.41-2,1-.44,2.1-.87,3.21-1.28,2.31-.85,4.84-.86,7.71-1.55,1.25-.3,2.57.25,3.94.06s2.74-1.11,4.18-1.22c1.69-.12,3.43-.2,5.21-.25,2.12-.05,4.29-.06,6.48-.06,1.75,0,3.52.81,5.28.82,3,0,6-.75,8.93-.83,1.47,0,2.91-.1,4.31-.19s2.7-.21,4-.36a5.81,5.81,0,0,1,1.18-2.31,12.13,12.13,0,0,1,4.9-3.26,33.86,33.86,0,0,1,5.61-1.66,81.64,81.64,0,0,1,11-1.45c3-.22,6.15-.34,9.35-.39,2.14,0,4.31,0,6.47,0,3.16,0,6.31.89,9.38,1a43.34,43.34,0,0,0,5.92-.54c2.66.12,5.2.25,7.55.37,4.33.22,8,1.2,10.66,1.26l5.17.1,7.65.14c2.17,0,4.32-.71,6.45-.67l6.45.12,7,.14c1.18,0,2.35.84,3.52.87q4.45.11,8.84.25l4.73.17c2.29.09,4.58-.6,6.86-.49q4,.19,7.91.43l5.2.35,4,.31q4.08.32,8.21.73,3.15.31,6.35.66,3.91.44,7.91,1,5.67.73,11.57,1.65,3,.47,6.12,1c.79.13,1.58,1,2.37,1.17q5.08.8,10.18,1.39c4.67.55,9.36.19,14.06.53s9.38.59,14.09.79c2.15.09,4.31-.62,6.47-.55q4.42.14,8.85.24c3.12.07,6.24.92,9.37,1l7,.14c4.3.09,8.61.19,12.91.33q3.51.11,7,.26t7,.34c2.39.13,4.79,1.07,7.18,1.24,1.59.12,3.19-.54,4.78-.4,3.19.28,6.38,1.38,9.56,1.76s6.07-.07,9.09.29l9.88,1.14,9.13,1,7.32.79,5.24.54c1.94.2,3.88,1.17,5.83,1.36,1.37.13,2.74-.52,4.11-.39.79.07,9,0,12.34.29,1.2.1,2.4,1,3.61,1.06q3.5.26,7,.5,4.94.33,9.89.59l3.5.17q4.69.22,9.4.37,4.1.13,8.23.21c3,.05,6,.87,9,.87q4.85,0,9.77-.07c2.87,0,5.75-.9,8.66-1,3.7-.12,7.47.57,11.28.51,2.71,0,5.45-.86,8.2-.88l4.12,0c1.75,0,3.51.78,5.28.78,2.72,0,5.46-.77,8.22-.76,1.56,0,3.12.8,4.69.81,4.07,0,8.17-1.49,12.3-1.45,1.57,0,11.34.91,14.67.95l7,.07,2.93,0,10,.06q5,0,10,0,6.46,0,12.92-.11l4.13-.07q3.55-.07,7.09-.16l2.94-.08c5.11-.16,10.19.42,15.24.14,1-.05,2-1.68,3-1.73q6-.35,11.85-.83c3.16-.26,6.3.23,9.41-.09q3-.31,5.95-.66c2.29-.27,4.56-1.35,6.82-1.66q7-1,13.76-2.22c1.44-.27,2.87-1.33,4.29-1.61,3.78-.76,7.5-2.38,11.16-3.3,2.43-.61,4.83,1.09,7.2.41q4.72-1.37,9.28-2.94,1.51-.52,3-1.07l1.49-.55a63.42,63.42,0,0,1,11.22-3c3.31-.59,6.75-1,10.28-1.27s7.16-.41,10.84-.47q2.06,0,4.13,0c3.11,0,6.25.82,9.39.88,3.32.06,6.64-.65,9.95-.59,1.52,0,3,.83,4.56.84l4.25,0q3,0,5.88-.08c2.19-.06,4.36-.93,6.5-1.07s4.27-.33,6.35-.57c2.8-.33,5.52-1.55,8.14-2.12,2.9-.63,5.68-.65,8.32-1.65,2.12-.81,4.74-2.59,7.72-3.71,1.4-.53,2.88-3.43,4.43-4,1.32-.49,2.69-.21,4.09-.72s2.6-.17,3.95-.65l4.14-1.47c1.83-.65,3.7.27,5.59-.37s3.9-1.32,5.87-2c1-.34,2-1.45,3.06-1.78l4-1.27c1.58-.49,3.15-.18,4.71-.63s3.08-1.67,4.58-2.08q1.69-.46,3.34-.88c2.28-.58,4.47-1.09,6.55-1.52.92-.19,1.82.42,2.69.26,1.33-.24,2.59-.43,3.79-.58s2-.23,3-.28a27.29,27.29,0,0,1,5.38.34V396H0"/><path class="cls-4" d="M95.23,382.64c-45.48-49.24-17.85-121.51.83-136.28"/><path class="cls-4" d="M49.5,390.73c40.68-67.8-61-141.42,14.53-234.41"/><path class="cls-1" d="M97.55,251.7c-6.74-3.14-8.1-13.48-8.27-20.07C89,223,95.54,216,101.51,210.4c5.59-5.22,12-11.11,19.29-13.81,11.45-4.25,23.68-5.86,35.27-9.6s25.81-8,36.11-14.88c2.92,9.19-27.2,15.17-30.72,21.83,12.7.69,24.2-4.81,34.21-12,3.78-2.72,7.17-6.4,11.23-8.77a41.64,41.64,0,0,1,19.74-4.92c-11.09,7.8-22.25,15.84-34,22.55-13.33,7.58-28.71,9.69-42.3,16.62-2.41,1.23-10.7,5-7.31,8.36,3.23,3.21,14.88-1.44,18.15-2.61,13.43-4.8,25.15-13.16,36.65-21.38,12-8.59,22.45-15.12,37.46-16.45-1.17,4.92-11.22,5.78-15,7.61-6.41,3.07-9.44,8.52-14.58,13-8.78,7.7-18.46,11.06-28.31,16.92,7.74-3.09,17-1,25.2-3.39a141.42,141.42,0,0,1,25-5.1c.2,5.07-10.9,4.27-14.46,5-5.75,1.24-11.12,3.38-16.68,5-5.38,1.61-10.6,3-15.27,6.74-4.89,3.92-9,5.27-14.48,7.14,11.33,1.68,21.17-6.41,30.78-10.41,6.26-2.61,12.82-3.52,19.39-4.12,4.33-.39,13.53-2.08,17.29.41-2.61,2.86-8,1.62-11.58,2.45-5.24,1.22-9.43,4.42-14.13,6.73a122.45,122.45,0,0,1-26.26,9.49c-11,2.58-22.56.7-33.53,2.85-8.12,1.59-16.44,6.4-23.48,10.55a51,51,0,0,1-11.92,5.5c-6.61,2-9.65,2.25-15.64-.54"/><path class="cls-1" d="M56.63,160.89c-30.32-5.32-29.47-35.27-17.78-57.71a133.16,133.16,0,0,1,23-32.08c11-11,24.11-14.9,37.84-21.23S125,34.52,135.79,24.11c-.11,2.23-2.31,3.57-3.12,5.7-1.35,3.51-1.15,5.79-4,8.91-3.38,3.63-8.07,6.67-12.39,9.07-11.36,6.31-24.7,11.28-34.14,20.73-4.77,4.78-10.89,14.14-10.4,21.24,15.56-4.21,24.25-17.56,37.32-25,9.19-5.24,19.05-7.85,29.2-10.69,8.74-2.45,17.37-6.36,26-9.38,10.21-3.58,18.4-7.61,25.5-15.82-.11,2-1.67,2.38-2.41,4.08-1.08,2.48-1.22,5.36-2.1,7.94a19.3,19.3,0,0,1-7.8,10.44c-9.24,6.1-20.33,9.35-30.85,12.36-20.1,5.75-40.2,13.54-57.23,25.91C82.14,94.8,69.2,108.13,71,118c6.78-5.61,16.53-10.67,24.34-14.82,8.62-4.58,18.6-5.92,27.91-8.08,11-2.55,19.89-6.2,28.54-13.77,7.16-6.26,14.17-13.24,22.2-18,4.77-2.85,9.73-5.89,15.18-7,4.45-.95,16.82-2.89,20.11.77-2.77,3.08-9.05,4.28-13,5.25a68.73,68.73,0,0,0-16.32,6.56c-12.44,6.57-19.81,17.05-29.16,27.45,13.84,4.42,24.63,2,36.91-5.15,7.56-4.42,14.45-12.22,22.7-14.92,3.77-1.23,16.92-4.11,18.86.57-4,3.45-10.89,3.58-15.82,5-5.15,1.54-9.72,3.2-14,6.37-10.36,7.59-19,11.82-31.32,15.84-13.42,4.39-27.74,1.44-41.58,4.2a103.3,103.3,0,0,0-31.5,11.39c-11.5,6.38-21.55,9.74-21.87,24.39,10.2-6.83,18.4-12.39,30.43-16,12.79-3.82,27-6.86,40.94-6.8,15.79.07,29.67-3.11,44.29-9.11C201.33,107,211,98.66,221.94,90.82c4.42-3.18,9.54-6.37,14.92-7.88,6.51-1.83,12.82-1.59,19.81-1.72-4.42,5.2-13.42,8.64-19.57,11.23-11.83,5-20.45,13.08-30.39,20.94C193.34,124,173,126,156.31,126a122.43,122.43,0,0,0-13.83.87c-3.45.39-12,1.27-14.63,3.47,17.31,4.14,37.23,4.56,55.24,3.83,16.82-.69,37-7.68,50.07-18.72,9.37-7.94,18.56-18.43,29.14-24.64-3.37,13.44-13.52,20.86-24.66,28.33-10.29,6.9-21.6,14.34-33.94,16.47-27.57,4.75-55.57,4.41-83.51,3.72-8.42-.21-26.95,6-19.63,10.24,11.56,6.75,23.51,1.16,44.18-2.84a194.44,194.44,0,0,1,37.49-3.5A161.41,161.41,0,0,0,220.1,139c13.76-3.17,22.92-10.18,34.5-18.09-3.42,17.52-19.26,21.79-34.44,27.15-16.35,5.78-32.6,5.87-49.67,7.33-15.82,1.35-30,.63-44.91,6.93-11.78,5-21.27,12.94-33.72,16.49-8,2.29-15.72,3.4-22.7-1.7-6.06-4.42-7.85-11.28-11.65-17.63l-.44,1"/><path class="cls-1" d="M431.49,289.07c-1.68-.69-3.47-1.35-3.21-3.75.13-1.22,1.86-2.19,3.83-3.78,3.43-2.75,4.87-6.25,3.26-6.19-5.89.24-17,9-17.6,10-3.13.06-10.48-.7-19.5-1.22l.79-1.27a17,17,0,0,1-6.48-5.23l-5.22,6.08a158.22,158.22,0,0,0-16.6.51l-1.93.19c-.06-.19-.07-.4-.11-.61-.68,0-1.08.19-1-.59a4.67,4.67,0,0,0-.52,0l-.36-.34a5,5,0,0,1-.13-.8,1.24,1.24,0,0,1-.64.07l-.23-.22a1.36,1.36,0,0,1,.08-1,5.7,5.7,0,0,1-1,.09l-.62-.59c-.07-.28-.07-.6-.11-.85a3.54,3.54,0,0,0-.76,0l-.62-.59a4.76,4.76,0,0,0,0-.74,2.16,2.16,0,0,1-1-.15c-.05-.26-.08-.54-.13-.81a.58.58,0,0,0-.41.42.48.48,0,0,0-.19.32l-5.75,8.25c-13.48,2.5-22.37,6.18-28.21,9.36-1.41.77-3.08.8-3.78,1.54a2.64,2.64,0,0,0-.94,2.13c.25,1.79,7.35,4.2,12.51,5.08,6.68,1.14,14,2.43,22.94,2.32h0s6.11,8.27,6.71,8,1.39,0,2.57-.36a10.68,10.68,0,0,0-.32-2.33l-1.31-.69s.87-1.94.11-2.24c-.6-.23-3.61-1.81-4.84-2.46a90.22,90.22,0,0,0,10.45-1.09,108.77,108.77,0,0,0,20.82-6.18l6.47,4.92a55.73,55.73,0,0,1,3.85-7.88l-2.11-.42c6.78-2.92,12.28-5.58,14.77-6.51a25.55,25.55,0,0,1,3-.9c1,1.46,19.48,8.22,19.23,5.42S434.24,290.2,431.49,289.07Z"/><path class="cls-1" d="M520.18,267.55c-1.3-1.27-2.71-2.55-1.57-4.68.58-1.08,2.54-1.34,5-2.07,4.21-1.27,6.86-4,5.34-4.51-5.55-2-19.2,2-20,2.63-2.93-1.12-9.45-4.58-17.62-8.44l1.21-.88a17,17,0,0,1-4-7.28L481.29,246a158.25,158.25,0,0,0-15.58-5.75l-1.86-.55c0-.2.08-.4.12-.6-.64-.21-1.07-.23-.74-.94a4.68,4.68,0,0,0-.46-.23l-.2-.45a4.9,4.9,0,0,1,.18-.79,1.25,1.25,0,0,1-.62-.17l-.13-.29a1.36,1.36,0,0,1,.43-.86,5.7,5.7,0,0,1-1-.29l-.35-.77c0-.28.16-.58.21-.83a3.48,3.48,0,0,0-.71-.26l-.35-.78a4.74,4.74,0,0,0,.3-.67,2.17,2.17,0,0,1-.83-.5c0-.27.13-.53.18-.8a.58.58,0,0,0-.54.23.47.47,0,0,0-.29.22l-8.42,5.49c-13.43-2.74-23.05-2.67-29.66-1.91-1.59.18-3.15-.41-4.08,0a2.65,2.65,0,0,0-1.67,1.62c-.44,1.75,5.24,6.65,9.69,9.4,5.76,3.56,12.09,7.51,20.39,10.76h0s2.56,10,3.22,9.92,1.31.49,2.51.63a10.73,10.73,0,0,0,.57-2.28l-1-1.13s1.53-1.48.94-2-2.67-3-3.56-4.1a89.81,89.81,0,0,0,10.09,2.91,108.78,108.78,0,0,0,21.61,2.08l4.15,7a55.81,55.81,0,0,1,6.53-5.86l-1.79-1.18c7.38-.17,13.48-.56,16.14-.49a26.14,26.14,0,0,1,3.15.3c.41,1.74,15,14.93,15.79,12.23S522.31,269.63,520.18,267.55Z"/><path class="cls-1" d="M396.11,266.51c-1.09-1.26-2.29-2.55-1.09-4.42.61-.95,2.44-1,4.72-1.52,4-.84,6.6-3.12,5.25-3.73-4.94-2.25-17.77.37-18.6.89-2.6-1.25-8.32-4.93-15.53-9.09l1.17-.71a15.62,15.62,0,0,1-3.16-7l-6.82,2.83a145.69,145.69,0,0,0-13.86-6.46l-1.67-.65c0-.18.11-.36.16-.54-.58-.24-1-.29-.6-.92a4.23,4.23,0,0,0-.41-.25l-.15-.43a4.44,4.44,0,0,1,.22-.72,1.15,1.15,0,0,1-.55-.2l-.1-.27a1.26,1.26,0,0,1,.46-.75,5.37,5.37,0,0,1-.85-.33l-.26-.74c.06-.26.19-.52.26-.75a3.29,3.29,0,0,0-.63-.29l-.26-.74a4.33,4.33,0,0,0,.33-.59,2,2,0,0,1-.72-.52c.07-.24.16-.48.23-.72a.54.54,0,0,0-.51.17.43.43,0,0,0-.29.18l-8.15,4.39c-12.12-3.53-21-4.2-27.07-4-1.48,0-2.86-.62-3.75-.3a2.43,2.43,0,0,0-1.66,1.36c-.54,1.57,4.3,6.5,8.18,9.36a111.3,111.3,0,0,0,17.9,11.42h0s1.59,9.33,2.2,9.35,1.16.55,2.26.77a9.93,9.93,0,0,0,.7-2.05l-.79-1.11s1.52-1.24,1-1.79-2.22-3-3-4a83,83,0,0,0,9,3.43,100.12,100.12,0,0,0,19.67,3.56l3.28,6.73a51.42,51.42,0,0,1,6.44-4.88l-1.56-1.22c6.78.41,12.41.51,14.84.78a23.45,23.45,0,0,1,2.87.52c.25,1.63,12.61,14.84,13.56,12.43S397.9,268.58,396.11,266.51Z"/><path class="cls-1" d="M393.39,227.22c-.81-1.06-1.69-2.15-.64-3.58.53-.72,2-.7,3.84-1,3.2-.47,5.42-2.14,4.37-2.7-3.82-2-14.18-.62-14.87-.25-2-1.13-6.38-4.36-11.91-8l1-.51a12.47,12.47,0,0,1-2.16-5.73l-5.58,1.91a116.05,116.05,0,0,0-10.71-5.87l-1.3-.6c0-.14.1-.28.16-.43-.45-.22-.75-.28-.43-.76a3.69,3.69,0,0,0-.31-.22l-.1-.35a3.63,3.63,0,0,1,.21-.56.91.91,0,0,1-.43-.19l-.06-.22a1,1,0,0,1,.41-.58,4.28,4.28,0,0,1-.66-.31l-.17-.6c.06-.2.18-.4.25-.58a2.59,2.59,0,0,0-.49-.26l-.17-.6a3.49,3.49,0,0,0,.29-.45,1.6,1.6,0,0,1-.55-.45c.06-.19.15-.37.22-.56a.43.43,0,0,0-.42.11.35.35,0,0,0-.24.13l-6.72,3.08c-9.47-3.44-16.48-4.42-21.37-4.58-1.18,0-2.25-.64-3-.43a2,2,0,0,0-1.39,1c-.51,1.23,3.09,5.4,6,7.88a88.94,88.94,0,0,0,13.67,10h0s.79,7.52,1.27,7.56.9.5,1.76.73a7.83,7.83,0,0,0,.66-1.6l-.57-.93s1.27-.91.9-1.37-1.61-2.49-2.15-3.37a66.25,66.25,0,0,0,7,3.2A80,80,0,0,0,364.58,219l2.27,5.53a40.84,40.84,0,0,1,5.38-3.56L371,220c5.38.67,9.86,1,11.79,1.38a18.29,18.29,0,0,1,2.26.56c.11,1.31,9.28,12.47,10.17,10.6S394.71,229,393.39,227.22Z"/><path class="cls-1" d="M308.48,276.18c-1.09-1.13-2.29-2.27-1.25-4.09.52-.92,2.23-1.1,4.35-1.68,3.67-1,6-3.28,4.73-3.78-4.76-1.85-16.66,1.29-17.41,1.82-2.51-1-8.07-4.18-15.06-7.71l1.06-.73a14.68,14.68,0,0,1-3.34-6.39l-6.25,3A136.64,136.64,0,0,0,262,251.32l-1.6-.52c0-.17.08-.34.12-.52-.55-.19-.92-.22-.62-.83a3.73,3.73,0,0,0-.4-.21l-.17-.39a4.31,4.31,0,0,1,.17-.68,1.09,1.09,0,0,1-.53-.16l-.11-.25a1.18,1.18,0,0,1,.4-.73,5.1,5.1,0,0,1-.82-.27l-.29-.68c0-.24.15-.5.2-.72a2.91,2.91,0,0,0-.61-.24l-.29-.68a3.9,3.9,0,0,0,.28-.57,1.89,1.89,0,0,1-.71-.45c0-.23.13-.46.18-.69a.51.51,0,0,0-.47.19.41.41,0,0,0-.26.18L249,247.66c-11.56-2.67-19.89-2.83-25.62-2.32-1.38.12-2.72-.43-3.53-.09a2.29,2.29,0,0,0-1.48,1.37c-.42,1.5,4.38,5.88,8.17,8.35a104.69,104.69,0,0,0,17.4,9.77h0s2,8.67,2.56,8.66,1.12.45,2.16.6a9.31,9.31,0,0,0,.55-2l-.8-1s1.36-1.24.86-1.73-2.24-2.68-3-3.63a77.75,77.75,0,0,0,8.67,2.74,94.28,94.28,0,0,0,18.65,2.29l3.44,6.14a48.24,48.24,0,0,1,5.78-4.92l-1.52-1.06c6.39,0,11.67-.18,14-.06a22.1,22.1,0,0,1,2.72.33c.32,1.52,12.62,13.26,13.39,10.94S310.27,278,308.48,276.18Z"/><path class="cls-1" d="M466.85,354a7.23,7.23,0,0,0,1.94-1.38c.13-9.16-6.75-10.7-12.79-15.87-8-6.82-19-7.86-29.15-8.27-4.76-.19-18.48,2-16.47,9.32.82,3,5.18,6.3,7.24,8.46a22.41,22.41,0,0,0,13,7.21c11.39,2,24.67,1.34,36.24.53"/><path class="cls-1" d="M410.51,350.3c-3.82-7.73-9.14-12.72-18.52-10.31-2.8.72-6.95,3-7.07,6.4-.14,3.88,4.14,4.52,7.13,4.91,5.63.73,13.57,2.19,18.8-.67"/><path class="cls-5" d="M1452.67,376.8c-4.46-3-5.87-7.68-9.43-11.45-4.42-4.67-8.18-9.42-14.54-11.4-7.62-2.38-9.92-2.83-14.58-9.65a40.11,40.11,0,0,0-11.72-11.59c-11.87-7.91-25.26-10.51-39.18-5.95-6.31,2.07-15.53,4.74-16.87,12a26.76,26.76,0,0,0,.06,9.43c.67,2.78,2.12,4.46,3.82,6.46,4.5,5.3-2.09,4.22-6.06,4.63-1.51.16-5.86,2.28-7.2,2.07-7-1.11,3.23-6.84,1.31-13.13-4.25-2.42-9.1,4.12-12,6.38-1.57,1.23-2.85,0-5-1.33s-5.08-2.6-3-4.95c1.86-2.08,12-4.67,14.54-10,5.61-11.87-7.65.81-10,2.86-2.82,2.43-5,4.76-8.42,2.59-2.27-1.44-3.65-4-2.58-6.66-5.4-7.14,3.4-10.62,10.63-11.37-4-3.35-12.26.06-16.39-1.78-3.11-1.38-.42-5.08.9-8.81.73-2.06-.52-4.33.29-5.74,7.73,1.53,16,10.81,24,4.26,6-4.87-.4-5.38-4.79-6.95-4-1.41-8.42-3.08-11.79-5.66.52-2.27,2.17-3.36,4.31-2.21-.1-7.08-.33-9.95,7.7-3.66a78.16,78.16,0,0,0,14.86,9.11c4.9,2.32,10.16,5,15.47,6.37a85.57,85.57,0,0,1,13.1,4.13c3.43,1.43,16,4.48,15.87,1.22-.15-4.22-11.89-11.75-15.5-14.2-5.22-3.53-10.19-4.4-16.84-4.64a49.6,49.6,0,0,1-17.77-3.53c-4.78-1.9-12.32-3.71-15.38-8.14-5.06-7.31,5.84-7.72,10.07-5.13-.55-3-3.73-4.66-3.85-7.72-.21-5.25,1.69-4.47,5.47-2.64,6.64,3.23,7.14,11,13.9,13.78,1.52.61,8.28,3,9.61,1.93,3-2.52-2.29-6.93-4-8.36-5.23-4.46-11.26-7.89-16.45-12.19-1.86-1.54-5.22-5.63-1.92-8,3-2.11,5.56,3.47,9.21,2.21-1-4-4.1-10.6,3.11-9.14,4.91,1,3.87,5.13,5,9.16.84,3.09,5.48,10.6,8.12,4.19.6-1.47-2.22-15.91,4.57-8.74-.67,1.57-.22,2.51,1,3.62,2.55-3.27,5.43-1.82,6.07,1.08.49,2.19-1.33,5.09-1.59,7.27-.62,5.26,2,7.88,3.8,12.33,2.66,6.53,3.16,17.87,11.32,20.94,5-5.86.59-19.17-1.84-25.36-1.63-4.17-4.31-7.88-6-11.86-3-7.2,3.25-4.43,6.88-1.44.39-2.05-.35-4.09,1-6,10.86,2.06.12,15.6,9.23,18.81,3.61-2.43,1.3-5.91.55-9.27-.92-4.14-1.18-6.88,1.19-10.47a13.83,13.83,0,0,1,4.49,1.94c-.78-4.34,3.95-3.44,6.07-1.53-2.38,5.13-2.65,11.09-4.83,16.5-1.59,3.95-8,15.53-1,17.51,5.83-4.62,3-10.76,3-17.42,0-3.68-.56-7.8,1.9-10.56.55-.62,2.35.9,3.5.06,1.63-1.18,2.75-4.56,4-3.69-1,2.49-2.39,8.65,1.07,9.68,1.26-1.17,2.63-5.23,4-5.85,1.56-.71,5,1.05,6.69,1.81-.6,4.28-15.39,18.14-9.71,20.25,4.18-2.06,7.13-7.85,12.6-5.35,3.29,1.5.76,2.62-.91,4.69-1,1.26.86,3.89-1.06,4.87-6.82-1.64-9.76,1.05-13.31,1.89,3.22,2.38,10.18,1.59,13.18,4.36a11.12,11.12,0,0,1-2.11,3.82c-1.32.11-2.43-1.79-3.6-1.75s-2.89,2.8-3.82,2.11c-7.62-5.64-10.16,1.23-14,7.36-5.37,8.67.73,12.88,7.7,19,3.31,2.91,6,4.7,7.86,8.85s2.18,6.22,5.85,8.94a95.61,95.61,0,0,1,16,14.49c5.23,6,12.48,12,14.93,19.66"/><g class="cls-6"><path class="cls-1" d="M1516.26,366.67a35.38,35.38,0,0,1-7.69-15.67c-1.84-7.81-6.23-10.56-13.12-14.1-3.16-1.62-7.43-.9-10.63-4.4-4.07-4.44-9.4-6.16-12.39-8.13-2.26-1.49-3.5-2.7-2.76-5.95.66-2.86,5.19-2.07,7.23-.68,1.82,1.24,3,5.89,6.71,9.47,3.18,3.1,9.62,3.22,9.62,3.22,1.3-1.47-.6-3.3-5.89-7.17-2.39-1.75-2.25-2.87-3.28-4.25s-3.23-3-3.61-3.86c-1-2.13-2.5-5.1.31-5.29s6.61,6.48,7.89,8.32c3.25,4.67,6.63,1.92,10.49,11.49.6,1.49.07,2.06.77,3.48s2.92,2.44,3.79,3.84c1.92,3.09,2.7,6.55,4.42,9.41,3.14,5.22,2.61,11.36,5.4,16.66a29.63,29.63,0,0,0,2.3,3.55"/><path class="cls-1" d="M1512.56,359.6c.16.24.38.46.56.68a12.68,12.68,0,0,1-1.8-10.81c1.2-5,1.09-6.51-2.29-10.55-5.41-6.48-8.35-13.9-11.53-21.61-6.94-16.87,6.09-30,5.17-46.88-.27-5,.42-9.79-2.1-14.24a9,9,0,0,0-4.09-4c-2.34-1.29-2.42.56-4.07-2.08-1-1.76-.68-4.58.16-5,1.7-.9,1.84.63,3.16.18,1.83-.62,2.59-2.8,4.33-3.75,1.47,1.6,2.12,2.39,2.35,4.32s-.62,3.34.17,5.32c0,0,2.41.37,2.68,4.78.12,1.9,1.31,3.51,1.88,5.33,2-2.95,1.18-5,.78-8.21s2.19-4,3.25-6.82c.81-2.17-1.4-3.2,0-5.21,2.48-3.57,3.51.31,5.2.52,1.22.15,1.72-.9,2.46-.41,3,1.94,2.18,3.55.24,5.75-2.91,3.3-2.91,3.3-2.83,7.63.1,5-5.37,8.92-4.3,14.13.69,3.33,2.65,3.41.21,6.75s-2.8,3.19-2.39,7.31c.32,3.21-.67,3.36-2.1,5.9-.92,1.63-2.16,4.64-.06,6,4.75,3.15,7-6.5,8-9.09.82-2.15,2.28-4.18,3-6.29,1-2.77-.3-3.75-.75-6.45-.53-3.18,2.55-5.8,1.71-8.88-.76-2.77-4.11-4.15-2.63-7.33.28-.6,1.6-.76,2.59-1.69,1.38-1.29,1.52-4.75,2.51-4.38,2.06.77,3.1,7.67,3.46,9.52,1.73-2.22.41-9.13,2.35-9.62,4.34-1.08,2,2.17,3.58,3.33.88.67,3.81-.31,4.27.07,2.46,2,1.76,3.56-1.29,5.48-3.26,2-2.26,4.09-3.65,7.21-1.17,2.64-5.32,5.24-5.91,8-.72,3.38.3,3.16,3.44,3.06,9-.27,10.77-12.87,14.66-7.58.44.6-.38,2.24.15,3.83s2.42,3.14,2.53,3.88c.67,4.6-5.28,3.57-8.83,3.82-6,.43-13,5.11-14.64,11.4-1.93,7.33-5.48,8.26-11.4,12.52-5.17,3.73-3.08,11.88-1.88,17.24,1.26,5.66,4.1,10.81,5.61,16.42a15.91,15.91,0,0,1,.11,7.82c-.53,3.17.36,6.05.08,9.16a10.52,10.52,0,0,1-1.29,4.06"/><path class="cls-1" d="M1514.74,363.28c-2.84-6.71,5.46-15.29,10.35-19.11a2.27,2.27,0,0,0-3,.34,10.78,10.78,0,0,1-2.36-3.77,30.87,30.87,0,0,1-3.26,9.79c-1.8,3.49-4.64,8.56-2.43,12.45"/><path class="cls-1" d="M1512.81,359.39c-1.54-4.73-1.5-7.2.39-11.84,1.61-4,3.79-7.77,3.9-12.15.21-8.79-4.66-15.49-10.09-22-3.23-3.88-5.33-5.6-10-7.59-4-1.71-8.29-4-10.62-7.8-4.51-7.43-2.78-17.29-6.76-25.08-2.55-5-6.65-7.27-5.32-13.53.77-3.66,3.23-14.76-2.95-16.1-1.94,2.86,3.59,12.66-1,12.3s-2.13-9.51-5-11.68c-7.39-5.58.46,5.24-3.85,6.32-2.07.52-1.85-5.5-5.8-3.9-2.73,1.11.06,4.87,1.31,6.46,2.56,3.27,6.64,4.64,9.79,7.47,4.12,3.71,4.71,6,3.33,11.06-1.17,4.27,2,7.74,2.73,12s-4.13-.4-7.14-1.51c-2.5-.92-8,.6-8.69-2.12-.63-2.46-.39-11.17.44-13.57.64-1.87,6.19-9,1.84-10.16-2.46-.67-3.49,4.21-4.9,5.59-1.51-1.65-6.67-12.14-6.18-1.46.1,2.22,4.63,5.35,5.23,9.05,1.15,7.06-4.62,1.63-6.62-1-1.65-2.18-5.24-10.12-8.76-7.36-.41,5.22,3.38,6.84,5.82,10.69-3.88,1.82-9.25-7.06-11.66-3-1.94,3.28,7.59,7.16,10.05,7.81,5.28,1.39,9.29.09,13.66,7.37,2.47,4.11,1.63,5.89,6.08,8.78s10.3,4.59,16.13,7.79c4.5,2.47,9.14,4.07,13.16,7.1s7.44,6.87,11.51,10.12c3.75,3,5.62,7.39,8.77,10.93,4.09,4.58,6.17,7.66,3.6,13.65-2,4.76-7.17,11.17-2.7,15.92"/></g><g class="cls-6"><path class="cls-1" d="M1538.42,332.25c-.21.19-.47.36-.7.53a12.68,12.68,0,0,0,4.26-10.1c0-5.13.45-6.58,4.67-9.73,6.77-5.05,11.35-11.58,16.22-18.35,10.66-14.8,1-30.56,5.84-46.8,1.43-4.8,1.86-9.62,5.34-13.37a9,9,0,0,1,4.92-3c2.58-.71,2.23,1.1,4.44-1.08,1.37-1.49,1.73-4.3,1-4.93-1.44-1.27-1.94.18-3.12-.56-1.64-1-1.87-3.33-3.35-4.65-1.8,1.22-2.62,1.84-3.28,3.66s-.17,3.39-1.39,5.13c0,0-2.43-.2-3.71,4-.55,1.83-2.09,3.12-3.06,4.75-1.28-3.34,0-5.15,1.14-8.17s-1.21-4.36-1.58-7.39c-.28-2.3,2.11-2.79,1.21-5.07-1.59-4-3.48-.51-5.18-.7-1.22-.14-1.46-1.27-2.3-1-3.33,1.2-2.95,2.95-1.57,5.53,2.07,3.89,2.06,3.88,1,8.08-1.26,4.88,3.16,9.92.9,14.74-1.44,3.08-3.37,2.7-1.77,6.52s2,3.76.63,7.66c-1.05,3-.13,3.42.67,6.23.51,1.8,1,5-1.34,5.89-5.35,2-5.34-8-5.7-10.7-.3-2.28-1.25-4.59-1.47-6.81-.29-2.91,1.16-3.58,2.23-6.1,1.26-3-1.14-6.23.39-9,1.38-2.52,5-3.09,4.26-6.52-.13-.64-1.38-1.12-2.12-2.24-1-1.58-.37-5-1.43-4.84-2.18.27-4.79,6.75-5.57,8.45-1.17-2.56,1.72-9-.06-9.9-4-2.06-2.49,1.63-4.25,2.41-1,.44-3.64-1.18-4.17-.92-2.87,1.4-2.54,3.05,0,5.63,2.69,2.75,1.25,4.51,1.88,7.86.53,2.84,4,6.33,3.89,9.17-.09,3.46-1,3-4.05,2.18-8.73-2.36-7.5-15-12.51-10.78-.57.48-.15,2.27-1,3.69s-3.08,2.5-3.36,3.19c-1.72,4.32,4.3,4.69,7.7,5.76,5.76,1.82,11.45,8,11.6,14.48.18,7.58,3.42,9.3,8.18,14.83,4.16,4.82.24,12.27-2.17,17.21-2.54,5.21-6.49,9.56-9.26,14.67a15.92,15.92,0,0,0-1.92,7.58c-.22,3.21-1.76,5.8-2.2,8.9a10.55,10.55,0,0,0,.32,4.25"/><path class="cls-1" d="M1535.45,335.32c4.32-5.87-1.77-16.14-5.64-21a2.27,2.27,0,0,1,2.81,1,10.81,10.81,0,0,0,3.17-3.12,30.86,30.86,0,0,0,.9,10.28c.95,3.81,2.53,9.4-.52,12.68"/></g><path class="cls-1" d="M669.8,310.88c6.72-5.39,6.78-14.8,3.9-22.76,6.25,4.22,11.43,10.53,9.3,17.83-1.92,6.68-16.17,11.61-12.35,3.48"/><path class="cls-1" d="M672.07,314.45c-7.88-9.67-5.92-23.66-3.76-35.14-14.46,9.49-3.8,39.9,3.76,35.14"/><path class="cls-1" d="M667.48,314.63c-13.32-10.11-13.2-30-31.14-35.72h0c8.92,10.72,22.83,26.27,25.25,40.71,3.77-.81,9.43-3.08,10.48-5.16"/><path class="cls-1" d="M661.8,320c-9.57-6.75-14.7-22.46-30.19-20,8.56,1.52,13.75,6.78,18.73,13.7,2.9,3.78,7.24,12.58,12.3,5.93"/><path class="cls-1" d="M654.88,324c-1.2-9.83-14.93-19.74-24.77-17.5,11.49,2.16,14.33,15.35,22.66,19.58h0c.84-.42.84-1.46,1.48-2.29"/><path class="cls-1" d="M650.32,329.37c-2.64-12.77-19.52-21.65-31.45-18.38,10.24.69,16.06,5.11,22.29,12.47,2.29,2.52,6.83,10.71,8.75,5.07"/><path class="cls-1" d="M642.92,330.36c-7.47-8.83-6.94-26.8,1.26-35.53-10.06,3.91-13.6,36.92-2.53,37.19,0-1,.63-.83,1.26-1.66"/><path class="cls-1" d="M659.26,324.18c-11.48-3.21-11.58-21.39-3.8-28.87-3.4,9,5.92,23.65,2.75,28.86"/><path class="cls-1" d="M660.67,322.29c6.6-24.72-11.73-31.22-29.27-33,9.44-5.17,23-2,28,7.07,3.72,6.5,12.61,22.44,1.31,25.92"/><path class="cls-1" d="M673.11,315.5c6.53-8.95,17-12,9.78-26.7-2.58,10.64-4.09,19.21-12.71,26.05,1.67.22,2.93-.4,4.61-1.23"/><path class="cls-1" d="M671,317.58c10.9-5.37.57-25.29-8.62-27h0A27.9,27.9,0,0,1,670,305c.81,3.77-1.74,11.28,1,12.55"/><path class="cls-1" d="M643.27,306.75c-4.15-4.21-6.41-10.91-7-17.39-3.62,11.68,5.69,27.42,17.58,30.42"/><path class="cls-1" d="M647.62,328.86c-13.37-1.75-23.11-15.19-17.6-28.33-12.6,10.38,6.48,38.45,22,28.72"/><path class="cls-1" d="M654.66,325.63c-.4-2.93-2.05-6.29-3.29-9.85-2.46-7.12-.29-20.7-8.42-24.51,4.35,7.76,2.33,29.07,11.71,33.31"/><path class="cls-1" d="M675.21,314.47c4.4-1.64,3.59-5.41,3-9.8-1-12.55-9.91-20.13-22-21.46,18,3.66,13.48,17.85,19.46,30l2.94-1.44"/><path class="cls-1" d="M641.88,332.51c-5.41-4.63-18.53-12.24-26.49-10.4,9.81,1.94,17.87,17.25,27.95,10.2"/><path class="cls-1" d="M706.95,337.68c-10.95-8.18-14.77-27.3-31.51-24-13.75,2.21-50,32.85-60.8,41,92.31,15.93,71.57-14.8,92.31-17"/><path class="cls-1" d="M1252.85,344.73c.34-4.86-6.36-9.29-15-9.9s-19.16,7.48-19.5,12.34,9.64,4.64,18.26,5.25S1252.51,349.59,1252.85,344.73Z"/><path class="cls-1" d="M1316.74,344c1.54-8.24-9.05-17.13-23.66-19.86s-34.22,9-35.76,17.27c-.73,3.92,2.76,6.34,8.2,8.08l42,3.44C1312.53,351.05,1316,347.94,1316.74,344Z"/></svg>