<svg id="artwork" xmlns="http://www.w3.org/2000/svg" viewBox="0 0 1600 396"><defs><style>.cls-1,.cls-2,.cls-3,.cls-4{fill:#231f20;}.cls-2,.cls-3,.cls-4{stroke:#231f20;stroke-miterlimit:10;}.cls-2{stroke-width:0.95px;}.cls-3{stroke-width:1.11px;}</style></defs><title>Hero search area_bluebells</title><path class="cls-1" d="M1345,382.57c-4.91-.08-11.95-2.13-16.3-2.13-2.38,0-3.64-1.64-6.35-1.75s-4.32,1.32-7,1.19l-2.67-.13c-1.47-.07-2.92-.13-4.34-.18-2-.07-3.65,1.79-5.75-.11s-3,0-5.91.1c-1.47.07-3.42.19-4.88.27l-9,.42c-3.39.17-5.78,1.29-9.16,1.31s-8,.13-11.54.29c-3.35.15-6.69-.67-10-.51-4.16.2-8.3.37-12.44.4-7.83.05-14.85-1.06-22-1.87-1.93-.22-3.87.58-5.83.43-2.48-.19-5-.3-7.63-.28-2.28,0-4.62.14-7,.34-1.21.1-2.43-.79-3.65-.66-4.11.42-8.31,1-12.46,1.48a139.38,139.38,0,0,1-14.87,1.17c-12.65.12-28.89,2.24-41.46,2.37-9.61.1-17.2-1.84-25.66-2.91-1.29-.16-2.6-.31-3.94-.42-2.2-.19-4.48-.29-6.89-.27-5.1.05-10.21.32-15.33.6-2.56.14-5.13.28-7.7.4-3.32.16-6.65-.72-10-.69-5.68.05-11.38,1.07-17.1,1.07q-7.07,0-14.17,0-7.9,0-15.85-.13-9-.09-18-.22l-15-.21c-6.31-.09-12.65-1.19-19-1.27-6.62-.09-13.28-2.17-20-2.24-5.63-.06-11.3,2.9-17,2.87-4.7,0-9.42-1-14.16-1-8.94,0-17.88,1-26.83,1-8.67,0-17.33-1-26-1-5.67,0-11.33,2-17,2-6.67,0-13.33-1-20-1-5.33,0-10.67-1-16-1-9,0-18,1-27,1-4.33,0-8.67-1-13-1-9.23,0-18.45,1-27.68.94L713,381.15,692,381q-21-.15-42-.39-12.48-.15-25-.35l-9-.15c-6.81-.12-13.61-1.24-20.42-1.38-6.35-.13-12.7,1.75-19,1.63-3.17-.06-6.35-1.12-9.52-1.17l-32-.54-26-.44c-2.34,0-4.68-2.08-7-2.12-7-.13-14,2.74-21,2.6-4.67-.1-9.34-1.2-14-1.3q-10.51-.24-21-.52l-5-.14c-9.32-.26-18.64-2.55-28-2.88-3-.11-6,1.79-9,1.67q-8.49-.32-17-.7c-13.77-.6-125.67-4-153.34-2.43-8.66.51-18.12,1.08-28.1,1.71l-8.82.57c-8.5.55-17.31,2.14-26.27,2.76-11,.76-22.21.56-33.39,1.4-7.85.59-15.68,1.2-23.39,1.82-2.72.22-5.42-.56-8.11-.34-15.06,1.25-29.54,3.54-42.69,4.86-14,1.4-49.92,1-62.91,1,0,0,0,7.72,0,9.78q188.84.79,377.68,1.62l383.4,1.64,390.76,1.67,311.39,1.34,143.92.62,3.85,0V382.48l-11-6.62-6.35-.46-4.69,1.32-6.34.79-6,.16-9.45.68-5.62-.65-12.57.46c-2.62.09-5.61,1.2-8.91,1.31-1.77.06-3.63-.87-5.57-.81l-6.94.23-8.49.28-13,.42-12,.38C1443.91,381.5,1378.65,383.16,1345,382.57Z"/><path class="cls-1" d="M1558.18,393.41s0-1.45,0-4.16c0-1.35,0-3,0-5s0-4.18,0-6.69c0-5-.09-11.13-.25-18.13s-.44-14.9-.91-23.51c-.91-17.22-2.5-37.3-5.21-58.7s-6.5-44.13-11.55-66.6c-2.52-11.23-5.32-22.41-8.44-33.31s-6.5-21.53-10.13-31.7-7.54-19.85-11.65-28.86A255.25,255.25,0,0,0,1497.33,92a151,151,0,0,0-13.41-19.34A76.8,76.8,0,0,0,1471,60a46.39,46.39,0,0,0-5.64-3.65c-.88-.43-1.68-.87-2.44-1.19s-1.46-.63-2.1-.84l-1.7-.55c-.49-.15-.92-.23-1.26-.31l-1-.24,1,.21c.34.08.77.14,1.27.27l1.72.5c.65.2,1.35.5,2.13.78s1.59.72,2.49,1.12a46.75,46.75,0,0,1,5.8,3.5A77.47,77.47,0,0,1,1484.72,72a152.21,152.21,0,0,1,14.13,19.09,257.67,257.67,0,0,1,13.68,24.56c4.42,8.95,8.63,18.6,12.63,28.72s7.74,20.74,11.2,31.63,6.65,22.07,9.54,33.31c5.78,22.5,10.31,45.31,13.71,66.84s5.64,41.76,7.09,59.14c.75,8.69,1.23,16.67,1.65,23.75s.64,13.25.81,18.35l.21,6.82c0,2,.08,3.64.11,5,.06,2.71.09,4.15.09,4.15Z"/><path class="cls-1" d="M1533.87,394.25l1.63-14.83c.31-2.38.45-4.93.64-7.73l.63-9.06q.08-1.21.17-2.47t.07-2.56q.07-2.6.15-5.34t.16-5.63c0-1,.07-1.93.07-2.92s0-2,0-3q-.09-6-.19-12.53l-.78-13.39c0-1.15-.17-2.3-.29-3.46l-.36-3.5-.73-7.13-.19-1.81-.27-1.81-.54-3.64-1.09-7.39c-.38-2.48-.93-5-1.39-7.46s-.94-5-1.49-7.56l-1.82-7.58-.92-3.82c-.29-1.28-.71-2.53-1.06-3.8l-2.21-7.63c-.35-1.29-.77-2.55-1.21-3.8l-1.29-3.79-1.29-3.8-.64-1.9-.73-1.87-2.93-7.5A249.34,249.34,0,0,0,1502,196.72l-1.93-3.46L1498,189.9c-1.39-2.22-2.71-4.48-4.15-6.64l-4.35-6.39c-.7-1.07-1.46-2.1-2.23-3.11l-2.27-3-2.26-3c-.77-1-1.57-1.94-2.35-2.9-1.59-1.9-3.1-3.85-4.7-5.67l-4.81-5.37c-1.58-1.77-3.28-3.4-4.88-5.07a184.07,184.07,0,0,0-19.55-17.29,151.25,151.25,0,0,0-18.4-12.21l-2.11-1.2c-.7-.38-1.41-.72-2.09-1.07l-4-2-3.76-1.64c-1.2-.53-2.34-1-3.46-1.41-2.23-.8-4.19-1.59-6-2s-3.26-1-4.51-1.22l-3.81-.8,3.84.68c1.27.17,2.77.64,4.56,1.08s3.8,1.13,6.07,1.86c1.14.34,2.3.81,3.52,1.3l3.83,1.53,4.06,1.88c.7.33,1.43.64,2.14,1l2.16,1.14a152.69,152.69,0,0,1,19,11.71,186.41,186.41,0,0,1,20.34,16.83c1.68,1.64,3.45,3.23,5.11,5l5.05,5.28c1.69,1.8,3.28,3.71,5,5.59.82,1,1.68,1.89,2.49,2.87l2.39,3,2.41,3c.82,1,1.62,2,2.37,3.09l4.64,6.35c1.53,2.15,2.95,4.4,4.44,6.61l2.21,3.35,2.08,3.46a254.58,254.58,0,0,1,15.18,28.94l3.24,7.56.8,1.89.72,1.92,1.44,3.84,1.44,3.83c.49,1.27,1,2.55,1.36,3.85l2.51,7.73c.4,1.29.87,2.56,1.21,3.86l1.07,3.88,2.12,7.71c.64,2.57,1.19,5.14,1.78,7.69s1.2,5.07,1.68,7.6l1.36,7.53.67,3.72.33,1.84.25,1.85,1,7.28.48,3.58c.16,1.18.33,2.36.41,3.54l1.25,13.7.62,12.84.14,3.06c0,1,0,2,0,3q0,3,0,5.77t0,5.49q0,1.33,0,2.63l-.09,2.56-.34,9.43c-.11,2.91-.18,5.61-.4,8l-1.14,14.87Z"/><path class="cls-1" d="M1477.22,100.75c.58-8.17,16.33-9.92,22.75-9.92-9.33,0-11.67,10.5-22.75,9.33"/><path class="cls-1" d="M1478.18,100.49c.68-5,6-6.91,10.25-8a44.15,44.15,0,0,1,6.34-1c1.05-.11,2.11-.17,3.17-.21.68,0,2.61-.89.42-.6-8.07,1.07-11.72,9.74-20.51,9.15-.39,0-2.21.7-1.26.76a16.6,16.6,0,0,0,9.57-2c4.46-2.59,7.9-7.15,13.39-7.39.33,0,2-.76,1.05-.75-7.22.06-23.06,1.09-24.35,10.56,0,.2,1.85.05,1.93-.52Z"/><path class="cls-1" d="M1375.35,157.56c-22.75-3.5-8.75,39.67-22.75,40.83,0-2.33-1.17-4.67-.58-7-8.17,2.33-6.42,14.59,2.33,10.5.58,0-.58.58-.58.58-.58-.58-3.5-1.75-4.09-2.33-2.33,7,7,9.33,10.5,4.67-2.33,5.25,8.75,5.83,11.08,1.75-2.33,7,15.16,9.33,12.83-1.75-5.25,4.66-8.75-.58-8.17-5.83.58-4.67,5.83-11.08,7-16.33,1.75-8.17,5.25-27.42-9.92-25.08"/><path class="cls-1" d="M1375.69,156.87c-9.77-1.26-13.82,5.79-15.32,14.42-.91,5.23-1.05,10.56-1.75,15.82a26.36,26.36,0,0,1-1.8,7.16,7,7,0,0,1-2,2.64c-2.51,2.06-2-4.49-1.86-5.59.05-.58-.74-.71-1.15-.56-3.76,1.34-7.76,5.45-5.58,9.78a5,5,0,0,0,4.69,2.87,7.07,7.07,0,0,0,2.72-.51c2-.8-2.86-3-3.24-3.29a1.22,1.22,0,0,0-1.72.63c-2,7.76,7.84,9.86,12.28,4.86l-1.73-.37c-2.29,6.94,10,6,12.81,2.12l-1.78-.19c-2,8.08,16.67,9.62,14.78-2.09-.11-.68-1.26-.42-1.6-.16-4.65,3.52-6-.42-6.53-3.09-.51-2.43.55-4.8,1.53-6.94,1.6-3.52,3.73-6.73,5.05-10.38,1.42-3.91,1.79-8.59,2-12.71.43-8.52-3-15.53-12.41-14.39-1.06.13-1.5,1.53-.18,1.37,14.25-1.71,11.39,18.25,8.29,26.79-2.21,6.08-7.41,11.1-6,18,1.11,5.26,6.12,4.76,9.48,2.22l-1.6-.16c1.51,9.35-12.51,7.82-10.89,1.41.22-.88-1.47-.62-1.78-.19-1.73,2.39-11.09,3.87-9.36-1.38.34-1-1.28-.87-1.73-.37-4,4.46-10.09,1-8.72-4.48l-1.72.63c1.3.9,2.79,1.44,4.08,2.33a1.22,1.22,0,0,0,1.17,0,9.61,9.61,0,0,0,.9-.56.61.61,0,0,0,.25-.84l-.11-.15c-.29-.4-.93-.28-1.31-.13-7.67,3.08-7.68-7.2-1.74-9.31l-1.15-.56c-.22,2.48.35,4.71.59,7.18,0,.36.61.46.88.43,7.71-1,8-11,8.6-17,.87-9.07.77-25.55,13.9-23.85.93.12,2-1.2.68-1.37Z"/><path class="cls-1" d="M1409.81,58.73c-16.34-16.92-35.85,33.85-41.69,43.18a8.65,8.65,0,0,0,4.08-.58c0,1.17-1.17,2.33-.58,2.92,1.17.58,1.75-1.17,2.92-.58a25.18,25.18,0,0,1,.59,2.92c11.08-3.5,38.18-35.6,34.68-47.85"/><path class="cls-1" d="M1410.72,58.4c-18.36-18-37.48,33.73-43.55,43.68-.11.18.24.23.33.23a15,15,0,0,0,5-.76l-1.29-.05c-.27,1.12-.76,1.88-.59,3,0,.13.26.13.34.14a3.67,3.67,0,0,0,1.74-.1c1.55-.56,1.21.69,1.42,2.3,0,.35,1.15,0,1.3,0,8.89-3.09,16.31-12.1,22-19.18s15.76-19.17,13.35-29.16c-.1-.43-2,.07-1.93.52,2.07,8.59-5.74,18.81-10.43,25.23-5.68,7.78-14.11,18.83-23.62,22.14l1.3,0a27,27,0,0,0-.59-2.92c0-.13-.25-.13-.34-.14a3.89,3.89,0,0,0-1.49,0c-1.94.52-1-.34-.52-2.13.11-.46-1.13-.1-1.29-.05-4.41,1.52-1.35-1.93-.4-3.79,1.1-2.18,2.17-4.37,3.25-6.56,2.68-5.43,5.46-10.81,8.53-16,4.61-7.87,15.29-25.86,25.66-15.67.36.35,2.12-.36,1.82-.66Z"/><path class="cls-1" d="M1390.3,66.33c-15.17-2.92-29.17,3.5-41.42,12.25,1.17,0,2.33.58,3.5.58l-1.75,1.75c.58.58,2.33,0,2.92,0-.58,1.17-1.17,1.17-1.17,1.75,8.17,1.17,21.58,0,29.75-2.92,8.17-2.33,22.17-13.42,5.83-14.58"/><path class="cls-1" d="M1390.62,65.6c-15.63-2.66-29.84,3.68-42.39,12.51a.66.66,0,0,0,.33,1.21l3.5.58-.49-1.05-1.75,1.75a.61.61,0,0,0,.27,1,6.87,6.87,0,0,0,3.39.07l-.74-1.06a15.48,15.48,0,0,0-1.28,1.93c-.24.43.21.82.61.87,11.86,1.49,26.21.26,36.73-5.87,3.09-1.8,6.71-4.43,7.68-8.07,1.08-4.08-5.86-4.81-8.17-5-1-.1-2,1.35-.65,1.48,4.23.41,9.08,1.84,5.25,6.45-2.5,3-6.5,5.12-10.11,6.44a63.36,63.36,0,0,1-14.68,3.13c-2.53.28-5.07.39-7.61.45-1.21,0-7.31.48-6.13-1.13.41-.56-.1-1.16-.74-1.06-2,.29-2.2,1.09-.43-.69.44-.44,0-1-.49-1.05l-3.5-.58.33,1.21c12-8.43,25.5-14.53,40.44-12,1,.17,1.94-1.26.65-1.48Z"/><path class="cls-2" d="M1502.88,190c0-3.76-26.56-16.07-29.93-7.81"/><path class="cls-2" d="M1458.32,122.92c0,1-8.25,1.75-18.44,1.75"/><path class="cls-2" d="M1477.52,101.54c3.69-6.5,15.29-6.86,26-.82"/><path class="cls-3" d="M1460.3,74.14c0-7.54,15.35-10.72,21.58-4.58"/><path class="cls-3" d="M1419.44,67.32c0-7.8,20.17-13.26,40.82-13.26"/><path class="cls-3" d="M1407,60.73c0-4.29,32.73-15.55,55.3-5.92"/><path class="cls-1" d="M1509.6,97.28c3.5-6.42-4.67-17.5-6.42-23.92h0c7.58,10.5,13.42,28.59,5.25,40.25h0c-2.34-1.17-2.34-2.92-2.92-5.25"/><path class="cls-1" d="M1510.56,97.13c3.51-7.87-4.17-16.76-6.41-24l-1.93.52c7.82,11.17,13.33,27.71,5.26,40.15l1.86-.5c-2-1.32-2.36-3-2.86-5.17-.11-.48-2,0-1.93.52.55,2.44.85,3.9,3,5.33a1.73,1.73,0,0,0,1.86-.5c8.11-12.49,2.61-29.13-5.24-40.35-.29-.42-2.09,0-1.93.52,2.2,7.14,9.88,16.09,6.43,23.82-.17.39,1.68.2,1.91-.32Z"/><path class="cls-1" d="M1507,104.54c-2.33-12.25-14.58-25.08-26.83-29.17,7,1.75,14.58,7.58,19.25,12.83,5.25,5.25,5.25,9.92,8.75,15.75"/><path class="cls-1" d="M1507.88,104.3c-2.94-13.4-14.29-24.73-27-29.3l-1.49.75c6.62,1.9,12.21,5.94,17.12,10.66,5.45,5.23,7.14,11.45,10.71,17.79.28.5,2-.17,1.83-.49-3.34-5.95-5.07-11.76-9.78-16.88A41.08,41.08,0,0,0,1480.88,75c-.41-.12-2.12.53-1.49.75,12.58,4.52,23.76,15.8,26.67,29,.1.45,1.94,0,1.83-.49Z"/><path class="cls-1" d="M1486.63,78.84c.62-15.57-17.83-29.26-29.52-35.49h0c8,3.74,15.38,9.34,22.14,14.94,9.22,7.47,7.38,10.58,9.84,21.17h0"/><path class="cls-1" d="M1487.6,78.58c.12-16.5-16.7-28.6-29.71-35.65l-1.56.84a100.4,100.4,0,0,1,25.21,17.72c5.13,4.92,5.14,11.72,6.58,18.23.12.54,2.06.06,1.93-.52-1.39-6.26-1.51-12.5-5.88-17.55-6.74-7.8-17.1-14.27-26.29-18.72-.46-.22-2.27.46-1.56.84,12.91,7,29.45,19,29.34,35.33,0,.45,1.93.14,1.93-.52Z"/><path class="cls-1" d="M1501.72,99.29c-2.92-1.75-7-2.33-9.33-4.67-2.33-1.17-3.5-4.08-5.83-5.83-4.67-2.92-11.08-4.67-15.17-9.33,8.17,10.5,17.5,18.67,30.92,18.67"/><path class="cls-1" d="M1502.26,98.6c-2.67-1.42-5.61-2.17-8.19-3.76-2.37-1.47-3.68-3.87-5.71-5.67-4.8-4.27-11.51-5.37-16.1-10.15-.62-.64-2.44,0-1.76.88,8.17,10.35,18,18.66,31.73,19,1.14,0,1.45-1.48.14-1.51-13.08-.31-22.39-8.57-30.11-18.35l-1.76.88c4.89,5.08,12.65,6.23,17.2,11.36a26.11,26.11,0,0,0,6,5.41c2.31,1.43,5.09,2,7.49,3.3.85.45,2.2-.79,1.1-1.37Z"/><path class="cls-1" d="M1480.13,67.71c-.34-7.25-29.17-10.69-35.58-6,7.58,0,12.56-2.11,21.58,0,10.73,2.51,12.63,4.64,14,6.27"/><path class="cls-1" d="M1481.1,67.45c-.79-5.9-12.09-7.2-16.43-7.84-6.21-.91-15.12-1.87-20.73,1.77-.5.33-.43.88.23.86,8-.15,15.22-1.52,23.17.41,4.19,1,9,2.26,11.89,5.68.45.52,2.3-.17,1.79-.76-2.74-3.22-6.94-4.42-10.87-5.55a43.11,43.11,0,0,0-13.55-1.78c-1.5,0-3,.22-4.5.38l-2.85.29c-.6.06-5.52,1.56-2.76.37,5.54-2.39,13.41-1.2,19.13-.25,3.79.63,12.87,2,13.54,6.95.09.67,2,.23,1.93-.52Z"/><path class="cls-1" d="M1472.4,60.73c-4.84-14.58-24.58-2-31.83,1.26,10.88,0,23.26-12.47,31.83-1.26"/><path class="cls-1" d="M1473.36,60.47c-5.54-14.68-24.39-2.81-33.37,1.32-.57.26-.41.68.18.66,10.5-.43,22.78-11.52,31.33-1.36.36.43,2.2-.24,1.81-.7-8.48-10.07-20.11-.82-30.14,1-2.66.48-1.06.38,0-.13s2.18-1.1,3.28-1.64c2.5-1.25,5-2.41,7.66-3.42,6.84-2.64,14.38-3.05,17.36,4.83.21.56,2.12,0,1.93-.52Z"/><path class="cls-1" d="M1504.57,197.91c-5-7.12-19.36-9.25-22.48-19.93,5,1.42,12.8,7.75,15.3,12,5-14.94-18.43-20.56-27.17-26.25h0c6.87,3.56,18.11,4.27,24.36,10,6.25,6.4,11.13,12.79,5.63,17.08"/><path class="cls-1" d="M1505.46,197.54c-6.29-8.18-18.79-9.16-22.42-19.81l-1.74.72a30.71,30.71,0,0,1,15.18,11.93c.33.51,1.72,0,1.86-.5,4.59-15.63-17.75-20.55-27.37-26.58l-1.54.91c5.92,2.85,12.51,3.85,18.56,6.36,5.8,2.41,18.43,13.57,11.42,20.08-.82.76,1.1.7,1.54.29,6.39-5.94-1.63-14.36-6.52-18.46-6.45-5.4-16.08-5.64-23.46-9.19-.5-.24-2.33.42-1.54.91,9.43,5.91,31.46,10.68,27,25.92l1.86-.5a31.24,31.24,0,0,0-15.43-12.1c-.35-.12-2,0-1.74.72,3.67,10.79,16.2,11.77,22.55,20,.39.5,2.25-.15,1.8-.75Z"/><path class="cls-1" d="M1465,135.17c-6.42-1.75-18.08-8.17-18.08-16.33,4.67,8.17,14.58,11.67,21,17.5"/><path class="cls-1" d="M1465.76,134.79c-7.32-2.13-17.44-7.62-17.91-16.22l-1.93.52c5,8.13,14.12,11.51,21.06,17.57.39.34,2.12-.4,1.82-.66-6.89-6-16-9.36-20.94-17.43-.25-.41-2,0-1.93.52.48,8.78,10.81,14.28,18.26,16.45.44.13,2.15-.59,1.59-.75Z"/><path class="cls-1" d="M1431.52,118.25c-13.42-5.25-29.17-4.67-43.17-9.33,7,0,14,2.33,21.58,2.92,5.83.58,11.67-1.17,16.33,2.33"/><path class="cls-1" d="M1432.08,117.63c-13.92-5.18-29.06-4.86-43.17-9.33l-.91,1.28c6,.16,11.89,1.58,17.84,2.5,6.4,1,14-1,19.67,2.62.67.43,2.39-.5,1.5-1.07-4.7-3-9.82-2.27-15.15-2.36-7.81-.13-15.35-2.82-23.17-3-.6,0-2.08.92-.91,1.28,14.1,4.47,29.26,4.16,43.17,9.33.77.29,2.27-.82,1.13-1.24Z"/><path class="cls-1" d="M1352.6,216.47c-1.75,1.17-4.08,2.33-4.08,4.67h3.5c0,1.75-.58,2.33-.58,4.08-1.75.58-2.92,2.33-4.67,3.5a4.68,4.68,0,0,0,4.09,5.83c-.59,1.17-.59,3.5-1.17,4.67,1.17-.58,2.92,0,4.67,0,0,1.75.58,4.09,0,5.25a2.89,2.89,0,0,0,1.75.58c.58,4.67,0,9.33,5.25,9.92.59.58-.58,1.75,0,2.33,1.17.58,2.34,0,2.92.58-.58,4.08,2.92,5.83,7,6.41-1.17,5.83,6.42,8.75,9.33,14,4.66,6.42,8.75,8.16,14,13.42,0-5.25.58-14.58-.58-18.08-1.75-5.84-7-12.25-8.75-18.09-1.16-2.92-.58-6.42-2.33-9.92-1.17-2.33-5.83-5.83-6.42-8.75-1.17-3.5,3.5-5.25.58-9.33-.58-.58-8.75-1.75-10.5-2.33-1.17-3.5-1.17-4.08-5.84-3.5,4.67-7-5.83-9.92-9.33-5.83"/><path class="cls-1" d="M1352,216.12c-2.17,1.41-3.9,2.48-4.44,5.12-.07.34.34.52.61.52,7,0-2.21,6-2.51,8.1a5,5,0,0,0,1.86,4.1c2,1.94,2.21,2.26,1.19,5.37-.19.58.86.51,1.12.46,3.69-.72,4.26,1.69,3.55,4.79a.38.38,0,0,0,.21.41c2.74,1.28,1.71,4.55,2.59,7.31.84,2.6,3.7,2.45,4.2,5.27a.5.5,0,0,0,.39.32c3.06.53,3,4.31,6,5.91.93.5,3.31.49,3.43,1.89a8.66,8.66,0,0,0,2.14,4.95,43.31,43.31,0,0,0,4.32,4.26c2,1.93,3.41,4.33,5.19,6.46,3.42,4.09,8.06,7.06,11.88,10.76.41.39,1.86.22,1.86-.5.05-8.41,1-16.07-3-23.76-2.42-4.69-5.26-9-6.8-14.07-.85-2.81-.76-5.63-1.88-8.41-.73-1.82-2.68-3.38-4-4.81-1.92-2.13-3.26-4.41-2-7.24a8.22,8.22,0,0,0,1-3.67c0-2.85-2.45-3.11-4.58-3.55-1.73-.35-3.46-.65-5.19-1-1.9-.37-1.87-1.1-2.67-2.75-1-2-4-1.45-5.7-1.26l.8.67c4.33-7.55-6.2-10.78-11-6.11-.84.81,1.05.94,1.58.43,4.39-4.24,10.54.48,7.63,5.56-.3.53.42.71.8.67,2.74-.29,4.18.74,5,3.15.11.34.63.39.9.47,2.78.79,5.72,1.08,8.54,1.71,4.14.92.49,6,.28,8.33-.25,2.83,3,5.58,4.63,7.39,3.36,3.65,3,8,4.31,12.43,1.22,4,3.6,7.67,5.65,11.3,4.54,8,3.73,15.78,3.68,24.71l1.86-.5c-4.7-4.55-10-8.17-14-13.42-3-4-9.84-8.17-9.25-13.7a.45.45,0,0,0-.4-.48c-3.4-.61-6.76-1.81-6.61-5.93a.46.46,0,0,0-.4-.48,2.85,2.85,0,0,1-2.53-2.59.5.5,0,0,0-.39-.32c-4.86-1-4.44-5.69-4.86-9.6,0-.26-.41-.34-.61-.36-1.29-.14-1.1-4.69-1.14-5.48,0-.26-.42-.34-.61-.36a18,18,0,0,0-5.18.05l1.12.46c.5-1.54.66-3.13,1.17-4.67.08-.25-.21-.43-.4-.48-6.62-1.87-2.71-6.17.62-8.4.91-.61.83-3.54.94-4.54,0-.34-.32-.52-.61-.52-3.7,0-.93-2.55.84-3.7,1.1-.71-.54-1.16-1.23-.71Z"/><path class="cls-4" d="M1368.77,334.76c-3.56,6.33-32.73,15.09-64.94,15.09-11.08,0-5.73-50.36,12.84-76.5,15.61-22,33.19-51.52,52.69-36.44S1379.33,316,1368.77,334.76Z"/><circle class="cls-4" cx="1352.01" cy="221.14" r="5.25"/><path class="cls-1" d="M1350.6,222.16c-14.92-9.69-37.06-21.82-37.09-25.19"/><path class="cls-1" d="M1350.55,222.24s-2.41-1.46-6.08-3.57L1331,210.92c-2.44-1.42-4.91-2.8-7.16-4.21a65.2,65.2,0,0,1-5.9-4.25,23.05,23.05,0,0,1-3.73-3.63,4.49,4.49,0,0,1-.75-1.31,1.85,1.85,0,0,1-.08-.55h.19a1.62,1.62,0,0,0,.19.42,4.77,4.77,0,0,0,.93,1c.47.37,1,.82,1.75,1.3s1.5,1,2.38,1.57l6.08,3.82,6.88,4.58c4.72,3.08,9.49,6.1,13,8.47s5.83,4,5.83,4Z"/><path class="cls-1" d="M1350.54,220.86c-12.07-13.08-30.53-30.3-29.72-33.57"/><path class="cls-1" d="M1350.47,220.93s-2-2-5-5l-11.11-10.82c-2-2-4.07-3.92-5.9-5.84a64.67,64.67,0,0,1-4.67-5.58,23,23,0,0,1-2.72-4.44,4.49,4.49,0,0,1-.4-1.46,1.8,1.8,0,0,1,.06-.55l.18,0a1.64,1.64,0,0,0,.08.45,4.82,4.82,0,0,0,.66,1.19c.37.48.81,1.06,1.38,1.69s1.21,1.34,1.92,2.11l5,5.2,5.54,6.14c3.82,4.15,7.69,8.25,10.5,11.42s4.66,5.29,4.66,5.29Z"/><line class="cls-2" x1="1374.76" y1="232.79" x2="1384.57" y2="237.48"/><line class="cls-3" x1="1384.57" y1="237.48" x2="1380.63" y2="209.56"/><line class="cls-3" x1="1377.1" y1="227.56" x2="1383.64" y2="209.56"/><line class="cls-3" x1="1362.4" y1="222.16" x2="1371.47" y2="221.14"/><line class="cls-3" x1="1371.47" y1="221.14" x2="1374.76" y2="211.95"/><line class="cls-3" x1="1360.76" y1="221.72" x2="1373.12" y2="208.99"/><line class="cls-2" x1="1359.13" y1="214.9" x2="1362.4" y2="208.99"/><line class="cls-2" x1="1360.94" y1="216.6" x2="1363.86" y2="207.29"/><path class="cls-2" d="M1354.68,214.9c3.35-.24,5.53-4.77,5.27-8.08a4.87,4.87,0,0,0-5.23-4.45,3.85,3.85,0,0,0-3.59,4.12,3.11,3.11,0,0,0,3.34,2.84,2.46,2.46,0,0,0,2.3-2.63,2,2,0,0,0-2.14-1.82,1.58,1.58,0,0,0-1.47,1.69,1.27,1.27,0,0,0,1.37,1.16,1,1,0,0,0,.94-1.08.82.82,0,0,0-.88-.75"/><path class="cls-4" d="M1429.16,305.72c1.05,7.18-13.56,36-44.33,45.5-12.25,3.8-37.34-8.78-37.34-40.83s-1.31-75.25,23.34-75.25S1426,284.41,1429.16,305.72Z"/><path class="cls-1" d="M1480.13,96.71c-6.31-3.91-10.74-1.66-14.11,4.21-5.42,9.44-11.48,39-13.53,42.1-1,1.49-5.09,3.11-6.79,1.42s-.18-6.43.6-8.09c-11.67,4.08-3.5,16.92,6.41,12.83-.58,4.09,4.08,5.84,8.17,5.25,1.16,4.09,2.91,4.09,5.83,1.17,2.91,2.33,7,3.5,10.5,1.17,3.5,5.83,12.83,4.08,14-2.92-7.18,1.68-11.78-1.07-12.36-5.18-.83-5.9,7.9-36.68,6.54-44.65-.74-4.29-2.3-7.39-5.26-7.3"/><path class="cls-1" d="M1480.91,96.27c-13.16-7.34-18.22,9.12-21.2,18.81-2,6.66-3.75,13.42-5.59,20.13-.6,2.2-1.21,4.4-2,6.55-.94,2.65-5.37,4.15-6.18.7-.45-1.91.56-4.51,1.29-6.27.23-.56-1.17-.26-1.33-.2-4.5,1.81-8.07,5.5-5.27,10.43,2.51,4.42,8.21,4.56,12.42,3.08l-1.33-.08c0,1.93.62,3.71,2.52,4.55,1.42.63,5.6.56,6.11,2,1.34,3.87,5.18,1.44,7.1-.32l-1.66.25c3.87,2.76,7.79,3.29,12,1l-1.49.13c4.44,6.31,14.14,3.78,15.86-3.42.1-.4-.6-.38-.81-.34-4.69.9-10.34.47-11.54-5-.37-1.7.16-3.82.41-5.51.9-6.14,2.32-12.2,3.53-18.28,1.14-5.69,7.38-27.27-3-28.38-.54-.06-2.26.85-1.21,1,7.69.82,4.62,15,3.83,19.65-1.28,7.58-3,15.07-4.42,22.63-.77,4.16-2.34,9.28.66,12.86,1.89,2.26,5.42,2.5,8.11,2.46,3.33,0,2.27,1.48.19,3.49-3.42,3.31-7.72,1-9.77-1.9-.26-.38-1.2,0-1.49.13-3.45,1.85-6.2.71-9-1.3a1.58,1.58,0,0,0-1.66.25c-1.75,1.61-3.37.81-4.11-1.31-.1-.3-.59-.24-.82-.22-3.75.32-7.43-.94-7.35-5,0-.46-1.17-.13-1.33-.08-8.84,3.12-15.45-8.23-5.68-12.16l-1.33-.2c-2.09,5-1.85,10.5,4.71,8.68,4.21-1.17,4.72-5.67,5.74-9.29,2-7,3.75-14.07,5.85-21.05,2.35-7.8,6.31-24,17.72-17.66.49.27,2.28-.46,1.55-.87Z"/><path class="cls-1" d="M1463.22,65.75c-13-4.41-22.65,35.79-31.3,23.63-4.12,1.49-.79,9,4.46,8.46-1.17,1.17-1.17,2.33-2.92,3.5,1.91,1.63,4.66,10.36,14,2.92,1.14-.91,1.48,4.52,2.78,4.81,4.46,1,8.08.56,8.32-3.06h0c-8.17-1.17,5.84-17.05,7.58-22.89,2.34-7,2.92-14.45-2.92-17.36"/><path class="cls-1" d="M1464,65.31c-6.37-1.83-11.16,3.89-14.5,8.48-2.75,3.77-5.08,7.83-7.74,11.66-2.17,3.14-5.54,8-8.93,3.57-.29-.38-1.18,0-1.49.12-2.66,1.41-2.6,3.89-1.17,6.35,1.91,3.28,7.18,1.79,2.54,5.73-.14.12-.3.32-.13.49,2,2,3,4.45,5.71,5.65s6.42-.38,8.59-2c.84-.62,1.39,2.68,1.72,3.22.84,1.36,2.57,1.37,4.08,1.4,3.2.05,6.2-.6,6.85-4.13,0-.24-.17-.32-.36-.36-6.61-1.43,5.09-16.84,6.71-19.79,3.39-6.15,5.14-16.25-1.87-20.41-.5-.29-2.29.45-1.55.89,8.56,5.08,3.15,17.27-.82,23.68-2.07,3.35-8.47,11-6.13,15.31a2.84,2.84,0,0,0,1.58,1.11c1.61.65-5.51,4.45-6.93.93-.48-1.19-.59-3.94-2.47-3.49-1.37.33-2.14,1.25-3.43,2-3,1.87-5.36.68-7.33-1.48a30.32,30.32,0,0,1-2-2.64c-.48-.67,1.75-3.12,2.31-3.82.29-.36-.24-.5-.51-.5-3,0-8.78-5.32-4.26-7.71l-1.49.12c9.33,12.23,21-26.55,31.42-23.55.55.16,2.29-.68,1.55-.89Z"/><path class="cls-1" d="M1418.88,64.58c-23.34-7.58-16.63,43.32-32.43,42,3.55,7,8.51,4.67,12,4.67-.58,4.67,1.75,8.17,6.42,9.33-.58-4.08.58-8.17,3.5-10.5-1.16,5.83,5.43,10.5,11.06,5.08-10.83-1.58-.56-17.33,3.52-26.67,2.92-7,7.58-25.08-6.42-24.5"/><path class="cls-1" d="M1419.43,63.92c-10.36-3.11-15.75,4.68-18.8,13.52-1.93,5.58-3.12,11.4-4.86,17-1.28,4.17-3.48,11.64-9,11.39-.58,0-1.65.4-1.21,1.15,2.68,4.65,6,5.7,11.1,5.09,1.26-.15.78,3.16,1.57,4.54a9.68,9.68,0,0,0,6.08,4.6c.64.2,1.59-.15,1.52-.93-.34-3.76.28-7.05,3.18-9.78l-1.63-.39c-.88,8.06,7.36,9.89,12.69,5.48.54-.45.35-1-.32-1.18-8.52-1.74-1.73-13.7.47-18.23s4.44-9,5.74-14c2.24-8.51,1.61-19-9.35-19-1.12,0-1.47,1.46-.16,1.46,14.07-.06,7.69,19.34,4.13,26.73-2.8,5.84-13.17,22-1.49,24.43l-.32-1.18c-4.76,3.95-10.05,1-9.44-4.69.09-.82-1.22-.78-1.63-.39-3.28,3.09-4.22,6.79-3.82,11.22l1.52-.93c-4.29-1.35-6.28-4.23-6-8.73,0-.5-.49-.68-.9-.66-5,.22-8.29.7-11.21-4.37l-1.21,1.15c8.78.4,11.14-11,12.92-17.51,2.54-9.31,5.47-28.68,19.29-24.54.86.26,2.28-1,1.11-1.33Z"/><path class="cls-1" d="M1510,105c-8.81,2.94-8.81,21.74-10,30-.59,4.7.59,11.75-5.29,13.51-7,1.76-8.81-7-4.7-11.16-11.16,1.17-2.35,25.26,10,17.62-1.76,2.35-1.17,2.35-5.29,3.52,5.88,4.7,18.8,7.64,20-2.35,7.64,8.22,27.61-2.35,18.8-9.4-1.76,5.29-8.81,7.05-10,.59,4.7,4.11,9.4.59,10-5.29-22.91,11.16.59-42.3-22.91-37.6"/><path class="cls-1" d="M1509.68,104.79c-8,3.23-8.85,14.17-9.68,21.6-.54,4.81-1,9.62-1.29,14.45a15.14,15.14,0,0,1-.92,4.27c-1.41,3.93-6,3.83-8.06,1-1.9-2.67-.74-6.59,1.19-8.83.36-.41-.52-.35-.7-.32-6.79,1.1-7.22,7.71-4.78,13.13,2.85,6.32,9.26,8.32,15.16,5l-1.52,0a6.59,6.59,0,0,1-4.42,3c-.11,0-1.17.4-.82.66,6.18,4.65,20,7.89,21.84-2.85l-1.86.5c4.27,4.1,11.1,3.69,16.16,1.26,4.52-2.17,9.47-6.84,4.45-11.33-.35-.32-1.69.08-1.86.5-1.83,4.4-6.8,5-8.07.16l-1.87.59c5.47,4.07,10.84.45,11.85-5.79.09-.54-1.32-.07-1.52,0-12.31,5.74-9.63-14.51-9.71-21.15-.1-8.62-1.62-18.59-12.46-16.68-.79.14-1.7,1-.35.76,22.28-3.92-1,48.86,23.65,37.37l-1.52,0c-.61,3.75-3.67,8.1-8.12,4.79-.31-.23-2,.09-1.87.59,1.85,7.06,9.73,4.24,11.91-1l-1.86.5c3.51,3.14,2,6.62-1.45,9.09-4.56,3.31-11.38,3.63-15.53-.36-.3-.29-1.79.07-1.86.5-1.61,9.31-12.83,5.82-18.11,1.85l-.82.66c3-.87,4.35-1.53,6.16-4,.27-.37-1.37-.06-1.52,0-8.26,4.64-15.39-6.88-13.11-14.13.28-.89,3-3.93,1.52-1.56A8.24,8.24,0,0,0,1487,144c.18,3.36,3,5.33,6.2,5.11,8.36-.58,7.34-10,8.06-16,.91-7.69.22-24.22,9.15-27.8,1.27-.51.07-.78-.68-.48Z"/><path class="cls-2" d="M1449.1,130.84c-54.35-17.22-72.39,28.25-72.39,28.25"/><path class="cls-1" d="M1444.48,120.59c-4.17-3.89-12-.63-16,3.13-5.51,5.24-6.13,14.27-9.48,21.47-1.62,3.88-11.39,14.71-10.08,3.16-2.65,4.68-.62,9,4.76,9.18-3.32,1.24-2.64,1.7-6.3,1.23-1.63,6.86,6,9.52,11.19,5.54-5.77,10,11.49,13.21,11.64,4.86-1.15.22-1.6.91-2.86.56.13-2.4.13-2.4,2.19-4-.3.23,4.38,3.33,4.79,3.51a13,13,0,0,0,6.63,1.29c6.23-.71,6.13-6.32,2.59-10.13-.45,1.56-1.56,3.55-3.18,4.21-4.62,1.89-4.18-6.1-2.91-8.46,1.62-3,3.41-6,5.11-9,3.32-5.82,10-13.94,7.75-20.62-1.12-3.3-2.44-5.4-5.81-6"/><path class="cls-1" d="M1445.38,120.23c-6.68-5.12-16.55.93-20.46,6.82-3.3,5-4.18,11.41-6.32,16.91a20.31,20.31,0,0,1-3.73,5.89,19.15,19.15,0,0,1-2.48,2.36c-3.33,2.71-2.6-3.4-2.55-4s-1.71-.15-1.92.29c-1,2-2,4.95-.32,6.95a7,7,0,0,0,2.67,2q.68.21,1.38.37c2,.2-7.56,0-3.7.44-.37,0-1.48.1-1.57.61-1.34,8.3,7.61,9.06,12.91,5.5l-1.72,0c-5.41,10.58,12.75,13.7,13.56,4.57.05-.58-1.06-.26-1.32-.17-3.08,1-.24-2.48.45-3l-1.72.16c.59,1.45,3.3,2.65,4.57,3.45a12.74,12.74,0,0,0,9,1.3c5.88-1.1,5.46-6.91,2.32-10.69-.35-.42-1.69,0-1.86.5q-.6,3-4.46,2.75a5.87,5.87,0,0,1-.55-2.5,9.9,9.9,0,0,1,.84-4.8c2.5-5.66,6.37-10.87,9.55-16.16,3.53-5.87,6.77-17.41-2.68-19.65-.52-.12-2.24.69-1.56.85,8.46,2,6.07,12.11,3.15,17.65-3.26,6.19-7.79,11.77-10.63,18.19-1.07,2.43-1.26,7.28,1.66,8.4,3.11,1.2,5.77-2.79,6.6-5l-1.86.5c3.85,4.64,3.3,11.25-6,8.69-1.48-.41-5.56-2.42-6.18-4-.22-.54-1.43-.07-1.72.16-1.69,1.33-2.25,2-2.39,4.24,0,.21.14.31.35.32a8.77,8.77,0,0,0,3.83-.71l-1.32-.17c-.65,7.34-14.19,3.59-9.72-5.15.3-.6-1.55-.07-1.72,0-5.29,3.56-10.38,0-9.47-5.59l-1.57.61c3,.31,4.52-.26,7.26-1.38.33-.13,1-.7.25-.78-5.3-.54-6.51-4.49-4.41-8.85l-1.92.29c-.64,8.07,4.95,5.42,8.73,1.33,3.47-3.75,4.83-8.55,6.29-13.34a39.48,39.48,0,0,1,4.54-10.64c3.13-4.71,11.09-8.72,16.09-4.88.49.37,2.23-.38,1.81-.71Z"/><path class="cls-1" d="M1418.1,110.11c-11.71-12.88-28,30.76-39.45,32.65,1.65-3.3.5-3.46,3.8-5.94-9.32-4.87-15.85,11.87-2.23,11.47-.83,5.77,6.26,9.74,11.55,5.78-3.31,6.6,3.46,8.75,8.08,5.28-6.77,6.1,6.92,13.37,10,4.38-.22.64-6.06.13-6.67-1.16-7.09-15,43.38-45.44,12.73-53.37"/><path class="cls-1" d="M1419,109.78c-6.56-6.73-14.69,2.25-18.69,7.35-4.14,5.27-7.8,10.89-11.83,16.25a48.34,48.34,0,0,1-6.07,6.86c-4.07,3.69-.83-2.11.91-3.49.06,0,.16-.2,0-.26-5.58-2.56-14.13,1.81-11.42,8.78a5.38,5.38,0,0,0,3.39,2.86,15.52,15.52,0,0,0,3.08.55c.86.08,1.34,3.62,1.9,4.31,3.25,4,8.18,3.65,12.2,1.12l-1.69.14c-3.21,7.63,5,8.28,9.77,5.14l-1.62,0c-6.76,7,8.08,13.11,11.81,4.14.2-.48-1.53,0-1.69.14-1,.68-4.73-.84-5.19-1.9a7.77,7.77,0,0,1-.46-3.3c.1-2.88,1.63-5.7,3-8.13,3.5-6.09,8.32-11.4,12.57-17,3.32-4.35,7.26-9.39,7.76-15s-5.57-8.29-10.13-9.55c-.45-.12-2.15.6-1.59.75,7,1.92,11.63,5.92,8.76,13.4-2.56,6.68-8,12.38-12.31,17.92-4,5.07-9,10.85-10,17.45-.26,1.74-.2,4.71,1.84,5.35s5.15,1.36,7.14.08l-1.69.14c-3.1,7.47-13.65,1-8.15-4.62.47-.48-1.38-.11-1.62,0-6.53,4.25-8-1.55-6.39-5.42.2-.48-1.53,0-1.69.14-5.48,3.45-10.08-1.14-9.84-6,0-.12-.29-.14-.34-.14-5,0-9-2.94-6.79-8.13a7.15,7.15,0,0,1,1.52-2.12c1.52-1.58,6.73-1.62,4.24.75-1.16,1.11-1.48,3.12-2.12,4.53-.15.32.67.21.77.19,7.27-1.56,12.06-10.14,16-15.71,3.77-5.32,14.79-25.09,22.71-17,.35.36,2.12-.35,1.82-.66Z"/><path class="cls-1" d="M1473,182.19c-12.64-4.42-11.37,18.33-11.37,25.91,0,2.53,1.26,8.22,0,11.37-2.53,5.69-10.11,6.95-7.58-1.26-5.06,3.79-4.42,12.64,3.79,13.27,0-1.9.63-3.16.63-5.69-3.16,7,5.05,10.11,8.85,4.42,4.42,3.79,9.48,2.53,11.37-2.53,5.06,14.54,18.32-4.42,6.32-4.42a11.68,11.68,0,0,1,1.26,4.42c-10.11-2.53,8.22-53.08-13.27-45.5"/><path class="cls-1" d="M1473.73,181.77c-8.38-2.56-11.63,4.71-12.63,11.84a90,90,0,0,0-.49,13.5c0,3,.48,5.88.57,8.83a8.1,8.1,0,0,1-2.78,6.64c-4.44,4.09-3.83-3-3.44-4.52.17-.67-1.51-.14-1.72,0-5.79,4.92-3.59,12.83,3.94,13.84.34,0,1.53-.11,1.57-.61.14-1.91.52-3.77.63-5.69,0-.71-1.74-.2-1.92.29-3,8.12,6.49,9.65,10.69,4.26l-1.79.38c4.93,3.67,10.6,2.7,13.24-3l-1.93.4c1.93,5,6.08,7.6,10.61,3.79s2.52-8.69-2.93-8.95c-.24,0-1.56.27-1.36.74a16,16,0,0,1,1.26,4.42l1.75-.68c-3.7-1.17-3.16-7.79-3.12-10.74.09-6.22.86-12.42,1.06-18.64.28-8.51-.9-19.77-12.1-16.1-1.11.36-.92,1.18.21.8,20.57-6.74.92,41.88,12.38,45.52.39.13,1.83,0,1.75-.68a16,16,0,0,0-1.26-4.42l-1.36.74c9.38.44-.18,16-5,3.68-.24-.61-1.73,0-1.93.4-1.86,4-6.1,4.57-9.51,2a1.62,1.62,0,0,0-1.79.38c-4.3,5.51-8.85.39-7-4.59l-1.92.29c-.11,1.92-.49,3.78-.63,5.69l1.57-.61c-6.78-.91-8.87-8.25-3.64-12.7l-1.72,0c-.87,3.42-.29,7.1,4,5.95,4.77-1.28,6.14-5.9,6-10.29-.19-6.57-3.65-35.28,9.11-31.39.52.16,2.26-.64,1.56-.85Z"/></svg>