<svg id="artwork" xmlns="http://www.w3.org/2000/svg" viewBox="0 0 1600 396"><defs><style>.cls-1,.cls-2{fill:#231f20;}.cls-2{opacity:0.5;}</style></defs><title>Hero search area_dragonfly</title><path class="cls-1" d="M431.34,335.61c-.39,20.26-55.79,29-123.9,27.7s-123.14-12.14-122.76-32.4c.06-2.93,93.74,6.47,96,3.78C281.91,333.18,188,322,191,319.48c17.29-14.28,65-23.92,117.7-22.91C376.82,297.87,431.73,315.34,431.34,335.61Z"/><path class="cls-1" d="M36.38,258.56c0,16.05,55.7,29.07,124.42,29.07s124.42-13,124.42-29.07a8.2,8.2,0,0,0-1.64-4.74c-1.56-2.22-94.44,6.76-98,4.74-4.41-2.49,80-15.92,72.93-18-22.79-6.74-58.08-11.07-97.69-11.07C92.08,229.49,36.38,242.5,36.38,258.56Z"/><path class="cls-1" d="M314.81,279.81c-.24,4,2.86,7.93,8.6,11.65,4.73,3.06,62.58-5.61,70.51-3,6.33,2.08-37.77,15.54-29.86,17.16a316.73,316.73,0,0,0,43.79,5.63c52.25,3.21,94.6-5.71,96.19-19.8,1.13-10-40.79-28.21-93-31.43S315.68,265.66,314.81,279.81Z"/><path class="cls-1" d="M331.28,103.22c-2-2.17-8-5.36-12.11-4.91-3.46.37-6.16,5.37-8.09,11.07-.06.18-.13.35-.21.52-1-3.57-2.21-6.82-2.21-6.82-8.34-10.55-22.51-18.66-30.44-10.22-2.91,3.09-10.38.11-18.94,2.39-13.6,3.62-31.81,11.38-51.11,10.66-71.3-2.64-95.63,2.49-94.69,8.83.87,5.9,43.76,3.09,85.17-.73,22.11-2,43.68.52,56.79.55,7,0,14.78,4.8,14.78,4.8,2.29-.39,4.91,10.64,33.39,6.18,4.94-.77,7-2.42,7.87-4.2,2.72,5.35,7.45,8.64,12.27,7.93,2.59-.38,7-3.38,7-3.38a60.71,60.71,0,0,0,4.17-5.8h0c-.37,2.14,1.79-5.12,1.13-9.54C335.2,104.65,333.28,105.38,331.28,103.22Z"/><polygon class="cls-1" points="307.66 116.98 308.75 125.67 308.79 125.99 308.69 126.25 305.6 134.44 305.27 135.31 304.41 135.09 260.4 123.95 304.86 133.11 303.68 133.77 306.4 125.44 306.34 126.02 304.87 117.39 307.66 116.98"/><polygon class="cls-1" points="310.48 122.3 311.18 127.67 311.3 128.58 310.42 128.69 299.69 130.1 299.57 130.11 299.48 130.1 256.28 123.38 299.68 128.66 299.48 128.66 310.16 126.91 309.39 127.93 308.51 122.59 310.48 122.3"/><polygon class="cls-1" points="302.78 123.95 300.33 129.72 300.03 130.41 299.33 130.26 254.74 120.48 299.68 128.52 298.69 129.06 300.92 123.2 302.78 123.95"/><path class="cls-2" d="M274.49,103.05c7.52,6.6,1.73-1.36,23.86-26.57,4.67-5.31,7.47-14.35,11.35-19.26,14.52-18.36,26-29.29,18.33-34.63-12.53-8.68-33.35,2.11-53.81,28.7C263,65.91,267,96.46,274.49,103.05Z"/><path class="cls-2" d="M253,136.24c5.36-17.11,21.76-39.62,15.18-39.43-3,.08-47.05,33-47.76,36.48-.32,1.61,3.88,9.79,6.14,15.89,2,5.46,11.5,15,14.94,16.55,1.59.72,4.19,6.27,6.13,6.46C254.23,172.83,247.73,153.21,253,136.24Z"/><path class="cls-2" d="M241.66,127.13c7.48-5.79,21.37-10.58,18.47-12.49-1.32-.86-30.31.07-31.68,1.38-.63.6-1.27,5.41-2.14,8.73-.77,3,.45,10,1.48,11.67.47.79-.08,4,.7,4.65C231.13,143.32,234.24,132.87,241.66,127.13Z"/><path class="cls-2" d="M272,77.76c1.25-15.29,1.65-24.05.36-24.16s-3.79,8.48-5,23.78-1.22,27.78.08,27.89S270.73,93.06,272,77.76Z"/></svg>