<svg id="artwork" xmlns="http://www.w3.org/2000/svg" viewBox="0 0 1600 396"><defs><style>.cls-1,.cls-2,.cls-3,.cls-4{fill:#231f20;}.cls-2,.cls-3,.cls-4{fill-rule:evenodd;}.cls-3{opacity:0.3;}.cls-4{opacity:0.2;}.cls-5{opacity:0.4;}</style></defs><title>Hero area_woodland with people</title><path class="cls-1" d="M425.36,206.2c-4.7-2.33-24.91-16.36-25.25-18.36,6.41,2.47,13.42,2.61,20.19,3.16,9.77.79,18.32,1,26.89-4.63-12.68,5.58-32.3.86-44.54-4-5.81-2.3-10.64-6.17-15.81-9.73l-15.58-14c-8.37-8.23-16.47-15.87-23.43-25.34-1.46-2-2.95-4-4.43-5.94,10.27-3.74,24.33-12.66,34.3-22.69,8-8,16.56-10,15.43-12l16.52-8.88-.82-1.19L378.19,88.9c-2.47-.68-4.58-1.2-6.37-1.57-6.23-2.9-17.7-4.64-30.67-.77C327.94,90.5,315.73,98.19,317.49,101l-2.69.55C294,105.89,276.63,105,256,110.25c-20.5,4.87-37.76,16.13-56,30.3l.17,0c-5.69,3.12-10.84,7.24-16.85,11.29,1.48.13,3.85,1.33,5.32,1.46-2.81,3.72-6.92,5.34-11,7a10,10,0,0,1,4,1.26l-26.85,8.75c-4.52,1.41-22.47,4.21-17.62,5.88,1.1,1.08,6.92.48,7.88.67-3.32,1.75-6.74,3.34-10.11,5-2.34,1.16-9.36,3.3-10.63,5.54-1.49,2.63,17.25-1.84,20-2.17-7,3.68-14.14,7.09-21,11.09.65,2.73,20.82-3.35,24-3.88-4.16,3.42-10.94,6-13.36,11.16,8.8-1.65,15.24-6.06,22.84-9.09-2.4,2.37-7.47,6-6.94,7.39,7.86-2.66,15.69-5.39,23.52-8.13-.12,1,.52,1.95,2.46,2.54-.75,2.91,0,5.45.33,7.46.45.53,3.48-.19,3.4.8.4,1,.53-.45,1,.08,1.7,3.13,1.72,16.79,3.16,14.65,3.46-5.12,3.72,17.15,5.93,19.85,2.37,2.9,6.53-2.4,9.53-4.11-2.9,4.7-6.64,7.84-7.61,13.2-1,5.85-.3,14.59,1.64,22.06,6.45-9.94,6.45-9.94,13.8-20.2,0,0-2.95,8.15-7.21,17.19-4.09,8.67.31,18.86,4,27.12,7-13.46,7.57-11.36,10.41-16.92,1.62,4.1,4.18,8.8,6.29,12.94,3.66-3.81,6.93-7.55,8.93-11.73,4-8.4,5.09-10.64,6.42-16.15,1.59,7.2,6.52,15.94,11.26,18.34,14.22-15.1,15.93-28.82,18.79-44.43,2.84,12.64,10.19,19.24,13.1,3.13,1.59-9,.79-16.34.94-24.74,5.88,1.14,10.39,1.18,11.13.29,1.61-3.55.68-9.84-1.89-16.85,4.45,3.21,16.95,5.73,16.95,5.73,6.54,5.17,5.23,8.85,10.39,9.35,2.45.24,3.89-3.58,7.79-5.2s10.66,13.31,13.72,14c2.57.57,10.34-11,9.13-12.43,5.71,2.09,30,32.3,30.41,31.34,2.42-5.23,1.65-21.51-2.49-26.4,7.47,8.81,15.76,22.56,25.56,29.21a24,24,0,0,0,1-3.92,33.86,33.86,0,0,0,4.93,5.38c.22-2.88-.42-14.46-2.7-16.65,5.54,5.31,10.85,11.43,17,15.89-13.12-27.57-14.79-29.31-17.64-42.15.25,1.14,16.84,7.89,18.61,8.66a61.58,61.58,0,0,0,11,3.83c7.1,1.59,17.12,2.08,22-1.86C450.33,215.94,433.52,210.23,425.36,206.2ZM288,195.14a.07.07,0,0,1,0,.06Z"/><path class="cls-2" d="M1761.61-323.17c-5.32,4.3-2.6,15.75-10.77,15.77a19.84,19.84,0,0,0-12.36-5.32v0h0l-8.58,1.08c-4.55-2.44-8.36.19-10.5,3.9-1.3,2.25,2.92,3.87,4.54,5.91,1.19,2.75,1.56,5.22-1.11,6.69a6.54,6.54,0,0,0-.31,2.57c-1.19,4.3-5.52,5.73-6.77,10-5.09-3.61-7.67,1.12-10.75,4.26-4.32-.19-5.84-3.78-6.52-8.36-.05-.76-.1-1.52-.15-2.29l1.25-2.38-7.36-8.47h0c.19-3.3.78-8.26-2.44-8.48-5.07-.32-10.81-.17-13.56,6.85-3.88.55-6.47,3.29-8.35,7.25-8.52-5.1-11.52-2.62-15.83,13.12h0c-2.6,1.11-8.6-3.86-6.61,5.44-3.34-1.1-2.43-5.78-4.52-7.94-.5-3.68,1.43-6.25,2.3-9.31,2.93-2.44,2.18-8.25,5.76-10.1,2.77,1.75,6,2.13,6.78-1.71,1.75-8.31,8.29-12.47,10.12-20.52h0a6.3,6.3,0,0,0-2-.94c-3.63-2.28-4.07-6.67-4.18-11.7-.07-3.15-1.1-7.39-4.5-7.28-2.81.08-3.46,3.54-3,6.72.67,4.12-2,5.7-3.35,8.33-.9,4.11-4.17,6.83-3.93,11.6l-3.21,2.84c-.49.8-1,1.63-1.41,2.46l-.66-.17-.85.19-2.84-3.8c.09-7.56-7.93-6.43-9-12.75q-.75-4.47-1.49-8.94c1-4.72,5.61-9.79-1.54-13.72-2.06-3.71-5.54-1.21-8-3.37.34-1.63.66-3.27,1-4.92h0l.09-.1a2,2,0,0,0,.35-.37c2.9-3,5.17-6.17.53-10.77l-1.13-4h0a5.85,5.85,0,0,0-5.15-2.14c-3.65-2.76-7.5-3.11-11.46-2.47l-3.61-2.34h0c-.32-.68-.66-1.36-1-2,.07-2.67-1.55-4.09-2.89-5.73l-6.26-9.08-1.59-1.62h0c.16-1.65.32-3.31.48-5,4-7.7,8.57-15.28,2.21-25.17,5.54-2.26,6.71-5.36.76-9.86q-.54-3.2-1.08-6.4c2.16-3.19,3.51-6.62,1.28-12.35-3,6.63-10.73,3.65-12.91,11.31-1.29,2.57-1.28,6.28-4.09,7.49-.34-1.4-.83-3.69-2-2.94a12.25,12.25,0,0,0-6.09,11.91c.45,5.23.49,11.68,7,12.17q.51,2.17,1,4.36c-1.43,5.26-6.45,10.4.43,16a16.32,16.32,0,0,0-1.51,15.89h0l-5.45-1.07-1.83,0q-.67,1.44-1.8.39c-3.1,1.53-2.13,4.21-.92,7q2.48,4.21,5,8.42a10.25,10.25,0,0,1,1.68-.07l2.29,1.63a3.18,3.18,0,0,1,1.64.83c-.14-1-.26-2.08-.39-3.12l1.95.19q1.3,3.07,2.62,6.13c-.42.93-.82,1.88-1.27,2.79-1.79,3.62-5,6.37-2.27,12,2.9,6,5.12-3.69,7.65.52l3,6.69c1.13,4.89,2,9.62-3.74,10.16h0l-7.37-4.72c-2.84,3.54.91,8.82-1.48,12.36-8.06-2.87-4.71,7.35-7.61,10.38-2.93-4.44-3.27-11.52-8.93-13.14l-.73-1.07.06,0c9.47-11.4,10.18-15.46,4.17-24.14-3.26-2-7-7.57-8.89,1.06-1.36-.4-2.7-1.25-4.06-1.63.25-3.6,1.15-6.87,4.12-8.23,4.55-2.09,4.88-6.2,3.76-11.34-11.47-5.95-15.44-18.16-17.92-31.63,1.68.91,3.37,2.05,5.07.47-.53-1.08-1.32-2.14-.61-3.39h0c-.66,1.25.09,2.31.61,3.39l-.45-3.34c1.52.44,3.15,1.55,4.34-.44.87-1.47,0-2.39-1.1-3,.78-2.4-.1-4.42-1.24-6.38-2.92-4.25-5.84-5.85-8.79-1l-.31,0c0,.05.06.11.1.17l-1.88.13-4.74,5.41c-2.78-1.79-4.65-1.33-5,2.87q-.63,2.14-1.27,4.29c-.43.14-.85.3-1.28.47-4.33-3.34-4.66-8.28-4.11-13.57-.44-1.79-.53-3.92-1.4-5.33-1.73-2.82-1.46-8.47-5.47-8.07-4.46.45-1.66,6-2.79,8.94-6.26-2.48-12.59-2-18.9-2.09h0a10.72,10.72,0,0,1-1.59-.21c.89-9.61-1-17.06-10-19.05-2-.91-4.16-1.39-5.86-2.83-8-6.76-10.41-2.85-9.84,7.2-3.77.12-3.88,5.15-6.24,7.15-3.91-2.06-7.25-.09-10.63,1.55h0c-1.39-2.61.46-6-1.66-8.41-7.07-5.08-11-3.77-13.22,4.2-.82,2.9-2.6,4.68-5.21,4.93-.87-6.31-4.83-5.6-8.27-6.08h0c.6-6.53-5.83-6.64-7.22-11.7-.45-1.63-3.15-.5-3.21,1.45-.26,7.86-4.47,7.78-9.24,7.76-2.41,0-6.56-1.33-6.82,2.63-.3,4.51,2.91,7.91,6.38,10,4.91.85,9.7,1.31,13,7.74,1.6,3.15,4.24,1.39,6-.79l.64,0,.63-.12q1.1,7.45,2.21,14.91l-10.51,2.18c-8,6.66-12.65-4.18-18.87-6.82l-.78.41,0-.11h0l.83-.3-2.28-4.49c-4.45-13.34-6.48-14.52-12.39-7.1-1.29,1.63-.58,3.25.45,4.78-.33,1.39-.67,2.79-1,4.19-6.22-1.71-9.09.79-7.24,9,1.17,5.18,2.13,10.31-.08,15.18-6.08,1.55-14.41-4.81-17.69,6.57-4.15-1.67-8.23-3.85-7,5.41.54,4.07-1.19,7.3-5.45,5.36-6.5-15.34-7.92-15.79-18.11-5.76-3.11,3.49-5.48-7.2-8.71-1.37l-5,4.9-4.94-2.72c-2.27-.83-4.56-1.6-6.82-2.51-8.25-3.32-9.59-1.53-7.71,10.33v0L1277.55-350l-1.55.15c-.62-2.14-1.1-4.89-3.34-4.78-2.57.14-2.53,3.64-3.6,5.7-2.07-3.36-4.68-4.65-7.62-2.85-2.41,1.48-1.14,4.22-.59,6.6-1.94,3.36-6.25,5.73-2.6,11.45-1.55,7.45,3.43,12,5.85,17.67l-3.24,4.53-12.39-.11c-4.41-.22-3.73-6.24-6.34-8.51l-3.6-6.27c.19-.7.38-1.41.55-2.12,8.73-11.17,8.73-11.17.84-20.74l-1.64-3.4c-.16,1.23-.31,2.46-.47,3.68,1.45,5.21,2.15,10.23-1.7,14.05l-4.41-3.59c-.87-10.07-9.31-2.39-11.87-8.48h0a16.23,16.23,0,0,0-1.34-1.24c-2.18-3.77-.66-7.93-1.23-12-2.44-.33-4.06,5.86-6.71.69-1.74-3.4-4.25-5.54-6.65-3.09s.82,5.31,1.48,8c.27,1.08.57,2.15.87,3.23-2.66,10.34-1.57,12.25,7.25,12.75h0c3.55,6.59,8.66,4.8,13.43,4.82a12.42,12.42,0,0,1,2.1,11,6.37,6.37,0,0,0-.79-.54c-3-1.43-7-4.43-8.75-.84-2.46,5,2.41,7.23,5,10q-4.64,5.89-9.29,11.78l-1.83.17c-3.7,1.07-7.22-8.41-10-2.63s-1.94,13.42,2.88,19.25l-2.93,3.1c-4,3.88-10.47,4.55-10.94,13,.11,1.46.22,2.94.34,4.41-2.67,1.79-5.08,3.63-.38,6.64,4.74.6,9.55,4.92,14.21.75,2.62,5.44-2.63,14.92,6.37,17.08,1.58,5.85,4.88,11.56-3.57,13.91-3.53,1-2.18,12.29-9.41,10.91l-11.07-2.69-4.71-4.24h0c-1.21-7.16-3.15-12.35-10.52-10.08-2.84.87-6.61-.58-9.08-4-6.62-9-4.79.12-5.58,3.66-4,.72-11.41-3.19-7.5,8.41.61,1.79-.29,2.8-1.67,3-2.5.38-5.47.73-3.41,5.18,1.43,3.06,3.43,7.14,7,2.86,1-1.26,2.19,0,3,1.31.71,1,1.38,1,2,.08q1-5.74,2-11.49l1.8-.46,2.89,5.78h0c.42,4.86.62,10.35,5.08,12.25,3.46,1.48,4.39-2.24,4.65-5.83l2.5-5.38c.41-1.41-.36-3.57,1.53-4a11.6,11.6,0,0,0,.36,1.77c.95,2.06,2.27,1.39,3.55,1,1.24,10.93-1.52,18-11.16,18.07-4.58.05-7.28,2.12-6.69,8.4l-1.17,2.34c-4.58-.42-10.76-4.19-9.46,7.18.24,2.12-2.37,2.68-4,3.46-3.33-.18-6.86-.22-2.76,5.41,1.56,2.15,4,3.31,6.07,4.92-.2,3.6.55,6.29,3.7,8,2.18,1.16,2.08,4.63.37,5.12-9,2.61-2,8.08-1.07,12.46.28.67.53,1.33.77,2,.64,4.77-4.14,5.63-4.24,9.86v0l0,0h0l-.08-.09,0,.12c-7.44,4.24-2,12.45-2.79,18.74,4,13.29,13.38,13.24,22,15.14,1.68-1.07,3.42-1.55,5.34-.59,2.81,2.07.77,4.37.54,6.58-6.19,4.43-10.2,15.32-20,9.2a27.13,27.13,0,0,0-1.74,3.4c-3.12.31-4.84-6.71-7.42-4.1-3.28,3.31-2.46,9.16-1.62,14.32l-3.72,4c-5.07-.73-9.26,6.21-15.58-.66,1.38,8.57,3.75,14,7.55,18.52,4.56,3.84-3.44,6.21-.25,9.89l-1.4,2.54-2.56-2.27h0v0a47.66,47.66,0,0,0-1.33,7.13c-.12,2.89-5.6,3.56-2,7.51,2.54,2.74,4.88-.2,7.09-1.64,3.42,2.82,6.06,3.1,6.86-2.74,2-.91,4-2,5.71.94-.93,4.69,2.27,4.94,4.45,6.29q.17,1.42.34,2.85h0c-4,.44-7.72,1.31-8.44,7.32a89,89,0,0,1-4.81,8.87c-1.1,1.59-3,2.6-4.45-.26-1-1.87,2.91-5.71-1.18-5.85-3.9-.14-2.86,5.45-4.07,8.47-7.9-4-15.32-1.08-19,7.47a5,5,0,0,0,.5,5.07c1.73,2.61,3.63,2.11,5.54.77,2.54,2.57.75,5.94,1.48,8.84l-1.59,2.28-14.89.69v0c-2,1.43-1.09,6.67-4.22,6-11.49-2.55-12.07,5.39-10.13,16.07.22,6.71.06,13.56,7.51,15.35,2.54.61,3.44,3,2,5.81-2.22,4.47.14,5.73,3.1,6.66,2,1.6,3.59,6.32,6.26,1.54,5.88-.75,10.31-3.73,13.93-9.82,2.44-4.09,5.26-9,10.26-9.68l4.18,3.77.38,2.33c-7.28,13-7.28,13,3.17,23-2.35,8.08,1.46,18.49,7.08,19.31h0c6.65-4.19,13.8-1.33,20.79-.7.6,5.48-2.89,12.26,3.94,15.77,3.18-6.3,9.7-3.18,13.87-6.71l5.65,2.86c-2.8,4.16-.83,10.32-3.27,14.64-4.84,4.23-9.23,8.81-8.3,17.56.12,1.5.24,3,.37,4.52,1,3.78,3.25,5.42,5,2,2.2-4.19,5.87-5.59,8.61-8.64,4.18,4.49,2.86,11.07,4.78,16.41.24,6.34,3.94,7.11,7.59,6.91s8.18.54,8.32-6.51h0c-.46-6.15,6.62-7,5.7-13.47l.85.06c2.71,11.92,3.94,12.26,15.83,4.54.43,1.22.85,2.45,1.28,3.68-2.22,4.1.49,8.14,2.32,9.69,2.49,2.12,5.56-.69,7.79-2.84,1.55-1.5,2.61-3.76,3.88-5.68,2.15-5,2.4-11.66,7.59-14h0l4.19-5.83c2.24,2.29,3.12,6.85,7.29,6.5-.16-3.09-.31-6.25-.46-9.41l2,2c10.2,8.49,10.2,8.49,10.55-2-.25-7.58,4.83-11.87,6.62-18.2,4.78-.23,9-1.23,8.42-9.06l1.48-1.28c2.18,7.49,3.88,14.17,12.75,10.77,4.31-1.65,4.19,9.07,8.84,10.78l7.74,7.34c3.1-1.34,4.71-4.57,6.37-7.74.59-1.19,1.17-2.38,1.76-3.57h0l12.2-.69c2.7,3.21,4.48,2.9,5.49-1.57.68-3,1.67-5.89,2.52-8.83,4,.92,5.21-1.32,4.38-6-.63-3.57-1-7.16.29-10.53,5.56-1.31,9.27,9.14,15.3,4.84,2.39,1.54,4.3,4.75,7.42,3.79,2.66,10.45,10.78,11.53,17,15.9,5.5,7.32,14,11.21,15.55,23.15.5,4,5.56,4,8.6,5.57l14.91,16.83c5.07,6.37,11.27,11.5,14.34,20,5.81,12.2,1.1,25.8,5.16,38.25.63,4.72.74,9.6,3.34,13.7a4.13,4.13,0,0,0,.3,1.81c.83,9.62,6,18,7.63,26.67.1,1.21.25,2.4.46,3.58a21.84,21.84,0,0,1-1.54,9.68c-.29,1.73-.09,10.36-1.26,10,1.17.39,6.49,4.87-5.75,45.5-4,13.29,52-4.7,64.84-9,.53-.83-13.71-55.75-16.9-50-1.45-4.14-.86-9-3.34-12.76h0c-5.32-15.8-7.89-32.21-9.48-48.86-1.94-11.38.41-23.27-4.24-34.34,1.57-14.6,6.51-28.25,5-43.83-.44-4.52-2-8.65-2.1-13.09,2.8-3,1.74-8.13,3.67-11.62,5.77,3.15,5.91-6.19,10.12-6.51,4.79,4.92,8.87-2.66,13.56-.24a3.61,3.61,0,0,0,1-2.21c-.31-1.95-1.45-3.84-3.07-3.5-5.73,1.19-5.11-4.65-6.4-8.41,0-1.4,0-2.81,0-4.21,1-2.15,1.46-5,4-5.25,2.54,3.64,3.86,2.06,4.62-1.41.64-3-.65-6.51,1.42-9l1.91.41c4.9,5.45,9.94,5,15.06,1.75,1.76.08,3-.88,4-2.56a1.72,1.72,0,0,0,.66-1.74l1.71-.9c1,.88,2.05,1.7,3.11.6a18.72,18.72,0,0,0-1.22-2.5l3.11-1.17c1.38-2.63,2-5.67-.2-8s-3.78-.43-5.38,1.09a2.88,2.88,0,0,0-.8.73c-3.72-1-6.54,1-9.16,3.64l-1.43-2-2.12-2.48q-.6-4.19-1.2-8.38c4.29-1.17,8.43-2.71,11.41-6.93-.22-2.12.23-5-.73-6.24-5.63-7.07-2.9-13.65-.76-20.37l5.2-.31c3.68,14.44,8.78,4.78,13.46,2.26l1.33,1.38c.23.44.44.66.61.63,1.21,3,3.19,4.21,5.75,4,1.84,1.41,3.74,1.93,5.74,1.1l1.82.61c1.36,2.52,2.69,5.11,5.46,5.35,1.3,2.35,1.08,5.87,3.76,7.18-4,9.22,4.21,8.84,7,12.74a14.75,14.75,0,0,0,.68,1.42c3.23,3,6.08,1.85,8.81-.59l5.38,10.38c1.47,3.06.42,9.16,4.07,9,4.16-.21,1.72-7.77,4.59-10.4a12.38,12.38,0,0,0-.29-2.13c5,3.3,10.1,8.92,14.39-.15l12.46-3.77,3.78,2.69c-2,5.74-5,10-3.44,18.4,1.16,6.29,3.83,5.38,5.36,5.35,3.49-.08,6.11-3.4,10.41-3,3.92.4-2.68-5.44.47-7.68,5.28.24,1.84-3.89,1.38-5.82-1.62-6.8-.19-10.69,5.65-11.12a5.28,5.28,0,0,1,5.4-.09c-.68,6,0,10.65,6.29,10.23h0c2.86,14.1,4.31,14.68,19.17,6.16-10-.24-15.58-3.74-11.73-14.7q.36-.88.68-1.8c-.26-4.59-6.79-4.69-5.24-10.58.74-3.1,1.5-6.22,2.24-9.32,1.18,2.83,2.78,4.89,6.47,4.87-3.13-5.62.1-11.59-2.59-17.14-2.53-7.5,4.83-11.37,3.51-18.42l2.79-3.51c5.39,1.12,8.22,8.34,13.57,9.56l6.59,4.09c1.6-2.73,10.16,7.31,6.45-5.17-2.67-5.53-8.18-8.55-9.23-15.52l12.9.59c1.41,1.45,1.84,4.36,4.17,4.43,1.18-.23,2.37-.79,3.54-.64,11.75,1.54,17.12-6,10.19-21.28a8.32,8.32,0,0,0,.2-2h0c5.26-7.4.16-12.81-3.19-18.56l2.66-7.34c5.87-1.86,9.68-6.56,7.36-14.15-1.44-4.69-5.82-8-10.29-3.67-6.35-4-10.19,3.64-15.58,4.07l-2.75-6.21.16.2c2.16-1.25,5.71-.21,5.94-4.74.2-3.89-2.4-5-4.71-5.55s-2.83-2.36-3.66-4.37c-2.52-6.06-4.83-3.51-7.1-.22l-5.61-1-5.76-2.12c-1.76-2.56-3.32-5.24-6.31-5.94-4.53-1-3.61-4.86-2.79-8.47a16.65,16.65,0,0,0,.7-2.93c-8-5.77-5.91-14.11-4.78-22.19,5.94-.28,7.35-3.45,5.11-10.76-2.07-6.73-5.35-12.41-8.34-18.41,1.84-8.13-4-9.36-7.6-12.55a10.28,10.28,0,0,0-.13-2.1c5.24-6.29,13.8-1,19.07-7.13,5.36,1.44,6.44-3.54,7.93-7.93,6-2.18,7-8.09,6.71-14.93,7.75,1.25,10.34-6.86,14.33-12.09,1.39-1.83,2.37-6.15-.15-7.93-1.62-1.15-6.25-.09-6.44,1-2.16,12.64-7.5,3.68-11.75,2.19a19.1,19.1,0,0,0-3.58-.56c1.56-10.3,11-5.3,14.87-11.23,2.7-3.61,8.68-4.41,6.78-12-1.43-5.67-4.74-8.56-9.55-8.2l1.13-5c2.83-1.13,6.19-.45,8.51-3.31h0l.17,0s0-.06,0-.09l1.64-.43,3.68,2a1.26,1.26,0,0,1,2.12-.15c1.21-.55,2.65,2.27,3.73-.11a5.49,5.49,0,0,0,1.37-.94c3.83-.63,7.93-.86,7.81-7.6-1-6.22,6.32-11.81,0-18.43.54-4,5.41-4.52,4.82-9.51,3.34,2.83,7.09,8.7,7.75-2.17.14-2.27,3.59-4.14,5.7-5.88,2.37-1.93,4.32-3.78,2-7.77C1769.51-313.64,1762.4-317.59,1761.61-323.17ZM1616.79-375.9l-.37,1.62A4,4,0,0,1,1616.79-375.9ZM1538-406.74h0a2,2,0,0,1,.45-.4l-.44.44v0h0l0,.08h0l0-.09a1.74,1.74,0,0,0-.16.2ZM1181.85-221.88l0-.1h0S1181.86-221.92,1181.85-221.88ZM1130.62,50.84a4.77,4.77,0,0,0,.51-2,5.87,5.87,0,0,0,1,.91ZM1140.4,34l-1-1,0-.08-3.29-1.42-.08-.09a19.22,19.22,0,0,0,5.54,1.75A6.06,6.06,0,0,0,1140.4,34Zm22.13,22.94c-2,2.53-4.87,4.18-4.34,8.72.85,3.23,1.95,6.14,4,7.85a20.84,20.84,0,0,0-3.35,8.07,14.28,14.28,0,0,1,1.49-5.09c1.27-2.47-.64-5.73-3.17-7.31h-.2l1.13-4a5.73,5.73,0,0,0-1.12-1.86,10.06,10.06,0,0,0-.63-10.11,4.82,4.82,0,0,0-1.45-1.11c2.32-4.38-.54-9.36-1.32-14.1-1.62-5.13-4.46-6.06-7.63-5.84a9.92,9.92,0,0,0,5.17-8.61,3.23,3.23,0,0,0,.6.39l-.07.12c-.87,11.75,6.56,9.12,11.55,10.74.76.16,1.52.37,2.27.58l.26.7-5.28,2.63c0,.39-.07.77-.09,1.15.34.16.67.34,1,.52l0,0-1-.54c.14.44.26.88.38,1.31-1.58,3.17-1.15,6.25.72,9.28.13-.74.25-1.47.38-2.22h0l.76-.13.75-.1h0l5.8,2.14C1167.22,52.79,1164.53,54.41,1162.53,56.92Zm-.06-10-.61,1.19q.29-.62.6-1.22Zm20.69-20.17-.33,0a5.36,5.36,0,0,0-3.46,2.42,10,10,0,0,0-.72,2l-1.29-.35a9.49,9.49,0,0,0,.46-1.53,8,8,0,0,0-.52-4.08c2,.64,3.93,1.12,5.93.35C1183.21,26,1183.18,26.36,1183.16,26.77Zm125-271.83a27.11,27.11,0,0,0,3.67-1.09,3.72,3.72,0,0,0,1.47-.63,12.77,12.77,0,0,0,5.08,5.48,9.47,9.47,0,0,1,1.35,4.44l-.17-.11c-3.23-.68-6.77-3.29-9.49-.82-.52-.91-1.05-1.8-1.57-2.72-.87-1.77-1.83-3.46-2.78-5.16A5.09,5.09,0,0,0,1308.14-245.06ZM1303-151.27a13.17,13.17,0,0,0,4.83,1.1c1.84,2.39,3.68,4.79,4.28,8.25-8.12-3.57-16-1.5-24-.82-.62-5.84-3.72-9.21-7.26-12.15,2.52-.2,3.78-1.54,2.24-5.45a8.74,8.74,0,0,0,.67-.83,8.78,8.78,0,0,0,.81-5.09c-2.39-6.24-6.92-5.84-11.08-6.61a6.14,6.14,0,0,0,3.74-2.09c2.28,3.49,4.89,6,9.46,2.46,3.59-1.77,6.31,1.52,9.33,3.1l-1.73,4.82c1.24,3.65,2.79,4.32,4.46,3.75C1298.52-157,1299.42-153.58,1303-151.27Zm-11.27-114.07a7.4,7.4,0,0,0,5.21-.89l.95-.26.62.66,2.46,4.33a12.63,12.63,0,0,0-2.26,8.17,3.46,3.46,0,0,0-2,1.72,136.07,136.07,0,0,1-6.85-14.6A9,9,0,0,0,1291.73-265.34ZM1281-284.24a18.4,18.4,0,0,0,1.2,1.53,2.59,2.59,0,0,0-1.29,1.14,4.39,4.39,0,0,0-1.81-.33A6.52,6.52,0,0,0,1281-284.24ZM1267.66-288l2.72.78h0l2.28,4.15c.64,5.2,1.69,10.64-4,12.17.46,5.54,6.34,5.5,7.22,10.61,4.28,3.51,6.58,8.37,7.88,13.92A5,5,0,0,0,1279-247c2.11,4.47,6.26,7.28,5.76,12.74l2.3-.15c.28.73.56,1.46.81,2.2,2.65,4.42,5.67,7.58,9.84,6.84a7.22,7.22,0,0,0-.34,3l-3,.39c-.15-.34-.32-.67-.5-1-2.24-4.73-6-4.52-9.46-5.1l-.47.15-.2-1.6c-3.51-2.36-6.61-1.77-9.5.38l-.39-.28c-.38-.18-.77-.34-1.15-.5,0-.23,0-.46-.06-.7a4,4,0,0,0-4.9-1.68,9.78,9.78,0,0,1-2.44-2.43,13.28,13.28,0,0,0-1.27-.85,11.36,11.36,0,0,1,4.45-5.16c2.61-3.83,4.06-8,1.43-13.07a9.58,9.58,0,0,0-1.85-1.44,4.73,4.73,0,0,0-1.21-1.93l-2.54-.51c1.32-4.91.68-10,0-15.17a5.41,5.41,0,0,0-.43-.82C1268.27-276.6,1266.64-283.08,1267.66-288Zm5.67,115.11c-.34-.06-.67-.13-1-.22s-.45-.22-.67-.33A8.42,8.42,0,0,0,1273.34-172.91Zm-1.89,52.54a2.81,2.81,0,0,0,2.6.78,4.5,4.5,0,0,0,.53-.26c4.41,2,8.72,5.09,13.26-.2,2.25-2.63,3.27,1.33,4,3.71l2.19,2.49c-.29,2.2-.58,4.42-.86,6.62h0l-1.82,1.49a7.34,7.34,0,0,0-.94-1.16c-4.6-2.91-8.12-1.36-10.93,3.09,0-.28-.08-.57-.14-.86-4.61-9.42-8.85-2.1-13.21-.79,1-5.58-.48-8.06-6.94-12.27,3.09-1.21,4.77-3.76,2.68-9.92C1265.31-125.8,1267-119.45,1271.45-120.37ZM1258.61-180a3,3,0,0,1-.49,0,8.63,8.63,0,0,1,5.43,1.16A9.38,9.38,0,0,0,1258.61-180Zm1.31-15.64c.29,0,.58-.06.87-.1l.23,1.55c-.52.76-1,1.55-1.51,2.35l-5.08,2.54a9,9,0,0,0-.73,2.74,9.9,9.9,0,0,0-1.18-2.22c-1.71.66-3.42,1.63-5.13.94.08-.31.15-.63.23-1,.74-3.08-.16-5.85-1.41-8.55a9,9,0,0,0-1.81-2.58l-.33-.29c1.75-2,1.21-3.59-.13-5.09a5.06,5.06,0,0,0,2.06-1.52,16.19,16.19,0,0,0,1.29-3.51h0c0,.12,0,.24,0,.37C1249.3-196.49,1249.3-196.49,1259.92-195.65ZM1228.33-160a3.47,3.47,0,0,0,2.3.13,5.15,5.15,0,0,0,1.33-.63l.59,1.06c-.18.44-.36.88-.53,1.33a8,8,0,0,0,2.47,6.08l.06,0c-1.82,1.61-5.27-.19-6.73,2.15C1228.6-153.16,1229.28-156.47,1228.33-160Zm5.4,38.93c0-.48-.11-.94-.19-1.39,5.39-1.91,10.77-3.25,16,3.06q0,5.28.07,10.55c-4.77,1.63-9.43,2.93-14.21-2.21a3.31,3.31,0,0,0-2.87-1.13C1233.38-115,1234.31-117.78,1233.73-121.08Zm-2.27-155.16a6.28,6.28,0,0,0,3.44,5.51c3.93,2.09,7.85,7.72,12.23,5.33a8.91,8.91,0,0,0,.43,5.76,9.88,9.88,0,0,0,2.85,4.68c-2.57.77-4.28,2.73-5,6.06-3.21-7.16-6.55-9.15-12-7,.06-1.35-.53-2.63-2.6-3.75.16-.17.33-.35.49-.56a8.29,8.29,0,0,0,.79-3.1c-.39-4.09-.28-8.37-2.33-11.85A5,5,0,0,0,1231.46-276.24Zm-.14,47.47a13.68,13.68,0,0,0,4,5.85c1.25,1.08.71,2.25.46,3.41-2.93-2.86-5.13-1.4-7.29.32a11.86,11.86,0,0,0-.79-7.47l-.46-.77A10.85,10.85,0,0,0,1231.32-228.77ZM1217-37.41l4.63,4.09a18.5,18.5,0,0,0,.43,2h0a15.56,15.56,0,0,1-2.86,9.59q-2,4.93-4,9.87c-2.46,1.54-3.74,4.2-4.35,7.49l-4.19-1.83-3.77-3.9c3.16-6.18,2.79-11.29-1.65-15.17C1211.4-23.85,1213.74-25.78,1217-37.41Zm-23.25-107a8.5,8.5,0,0,0-2-4.12l.13-.18c1.56-5.18,3-10.34-2.83-13.54a3.53,3.53,0,0,0-.7-4c-.08-.51-.15-1-.22-1.53a13.56,13.56,0,0,0,3.51-12.7q.09-5.8.19-11.61a7.53,7.53,0,0,0,1.15-1.06,6.42,6.42,0,0,0,.82-2c3.32,4.35,7.2,7.07,12.6,5.43,3-.92,5.18,1.27,7.47,3.08-4,2.63-7.1,6.06-6.44,13.24h0q-.61,2.42-1.23,4.83c2,2.46,2.69,5.52,3.14,8.72h0c-4,2.82-5.08,6.62-2,11.82C1202.76-146.84,1198-146.65,1193.71-144.37Zm20.46,266.68c1.32-8.42-.7-9.8-11.85-11.84l-2.06-1.07.11-2.21a3.22,3.22,0,0,0,2.08-.48,5.61,5.61,0,0,0,1.48.45c5-.26,10.21,1.13,15.07-.94,8.68-.41,9.14-9.62,10.92-16.89.39-1.59.66-3.27.92-5a16.53,16.53,0,0,0,2.38,6.48c1.6,1.72,3.27,1.87,5,.73a4.39,4.39,0,0,0,1-2.14,13.82,13.82,0,0,1,1.21,9c.06.13.13.24.19.37a5.3,5.3,0,0,0-4.05,3.69c-.87-2.35-3-2.9-7.17-2.86-3.14,2.4-5.74,5.19-4.68,10.66l-2.88,5.1a6.15,6.15,0,0,0-1.21-.27C1217,115.4,1216.11,119.6,1214.17,122.31Zm18.1,27.46c-1.48-6.18-4.36-5.76-7.47-4.3a8.56,8.56,0,0,0,0-5.08c-.58-1.68-1.18-3.32-1.84-4.82a42.3,42.3,0,0,0-1.15-5.55,11.35,11.35,0,0,1,2.92-10.84l11.79-3.42a9.24,9.24,0,0,0,4.05,4.38,15.86,15.86,0,0,0-.63,5.46,23.73,23.73,0,0,0,2.44,7,6.39,6.39,0,0,0,1,1.12c-.12.49-.25,1-.37,1.46l.9,1.29C1237.39,137.33,1234.67,143.33,1232.27,149.78Zm87.07-116.3c-2.19-.9-4.4-1.12-6.68.79q-.49-2.5-1-5c-3.89-3.4-7.58-8.23-12.56-3.54-4.08,6.83-10.06,6.68-16.27,5.68a6.53,6.53,0,0,0-3.8.88c-1.69.71-3.52,1.05-4.76,2.8-1.65-4.7-5-4.1-8.21-3.73q.06-2.32.11-4.64c2.32-1.4,2.85-4,2.6-7-3-.77-5.86-.92-8.53.4-2.07-5.54-6.92-5.19-10.47-7.59a5.73,5.73,0,0,0-3.56-1.38c-.79.2-1.58.38-2.39.51l-2.51.45c-.35-.85-.67-1.72-.94-2.61-3.35-4.53-8-4.39-12.19-5.93-3.09-1.15-4.88,1.12-5.33,4.91,0,.5.07,1,.12,1.45a4.82,4.82,0,0,0-1.08.46c-1.48,2.74-4.63,5.57-1.11,9,3.23,3.11,6.62,1.5,9.41-1.42-.11,5.6,4.21,8.92,5.84,13.62-3.1-.72-5.6.56-8,2.24,1.3-2.79-.21-5.83-3.19-7.58-3.36-2-7.42-4.73-11.33-2.91a6.84,6.84,0,0,0-.06-4.75c4.19-3.67,5.8-8.48,3.31-15.09-.22-.43-.44-.86-.66-1.3l4.25-3.79c.59,0,1.2,0,1.78-.08,1.85.27,3.26-.85,4.63-2.06.25-.31.51-.6.77-.9,2.81,1.66,5.63,3.16,8.56,2.67,1.12.8,2.56,1,4.56.22,3.05-2.29,3.27-6.57,4.38-10.23,3.26,2.63,7.45,3.74,9.41,8.48a2.79,2.79,0,0,0,3.7.33c.12-.25.24-.49.35-.74,8.87,6.15,17,3.4,25-1.5,1.76-.94,3.07-.37,3.88,2-.39,3.51,7.51,3.31,2.88,8.72-.55,1.62-.55,3.13.8,4.36l1.82-.33,2,1.88c3.9,4.66,9.4,1.47,13.49,5.22l3.46-.48a8.49,8.49,0,0,0,4.62,6.22l3.25.9C1317.88,27,1317.28,30.68,1319.34,33.48ZM1294.1-8.39l1.46-1.72.39.38c1.81.28,3.63.63,5.42.77-.13.08-.25.18-.39.25l-.13.29C1298.74-9.35,1296.35-8.42,1294.1-8.39Zm17.32,1.47.44,0c0,.09-.1.18-.14.27Zm6.78-78.68-3.45,2.78c1.2,2.82,2.39,5.66,3.59,8.49L1315-68.68c-2.55,5.74-9.53,5.29-11.34,12.06-.39-.5-.79-1-1.16-1.5.26-2.75,3.14-5.73-1-8.5-2.36-1.58-4-3.5-5.69-1a4,4,0,0,0-.47-.11l0,0c.27-3.38-.57-7,.52-10.19,0-.17-.06-.34-.09-.5,2.3-1.15,3.39-3.91,4.34-6.86a3.5,3.5,0,0,0-1.63-.78,11.46,11.46,0,0,0-1-4.65l-.08-.11,1.5-1.12-2.2.24a4.89,4.89,0,0,0-1.45-1.07,3.4,3.4,0,0,0-1.45,0,12.39,12.39,0,0,0,0-2,17,17,0,0,0,2.38.92c3.22.07,6.72.83,8.07-3.45a5.49,5.49,0,0,0,3.7,2.37,5.79,5.79,0,0,0,4.58-2.13,5,5,0,0,0,3.68,1.7,8.51,8.51,0,0,1,4.55,2.06A11.38,11.38,0,0,0,1318.2-85.6Zm-8.31-215.59c0-.2,0-.41,0-.61a6.76,6.76,0,0,0-1.5-2.85c2.6-1.4,4.67-3.24,4.47-6.92a11.65,11.65,0,0,0,6.41,1.7c-1,7.58-.73,8.69,3.49,10,.7,3.53,2.58,6.53,3.42,10C1319.2-289.17,1315.5-297.95,1309.89-301.19ZM1503.24-421.9h0Zm-3.6,60.28c-1.51,4.39,0,8.29,2.92,12-2.12-.25-3.19,1.34-3.29,4-.08,2.36.4,4.41,1.93,5.38a6.2,6.2,0,0,0-.11,3.27c-2.64.48-4.18,2.29-4.06,6.13l-1.31-2.28a12.35,12.35,0,0,1,1.08-.87c.48-2.06,1-4.12.12-6.32-.52-1-1.1-1.9-1.68-2.85,3.11-5.95.32-8.79-3.7-11q0-.56.14-1.15a7.86,7.86,0,0,0-.95-3.1C1494.13-357.37,1496.83-359.81,1499.65-361.62Zm-44.43-12.31a9.3,9.3,0,0,0-.13,1.23l-.3-1.12Zm-25.53,1.69c1.87,2,4.14,1.61,6.65-.33a8.59,8.59,0,0,0,2.16-2.42c.56,1.7,1.68,3.09,2.28,4.77-1.48,2.83-7.31,3.8-2.21,9.47-1.25,2.06-2.71,4-1.53,7.09,3.24,4.65,6.32.4,9.48.46,3-.47,6.13,2.19,9-.25a8,8,0,0,0,3-7.17,10,10,0,0,0-3-5.24,6.66,6.66,0,0,0,.4-3.56c1.29,2.44,4.08,3.82,6.63,5.38a7.28,7.28,0,0,0,.77,0,5.93,5.93,0,0,0,.14.9,13.83,13.83,0,0,1,2.21,8c-.08,4.42,1.84,6.65,5.39,6.75h0a41.23,41.23,0,0,0,.18,5.72c-.53.84-1.07,1.67-1.59,2.52-1.22,2.23-2,4.61-1.05,7.48,4.62,5.62,6.82,15.79,15.29,14.25-2.08,3.26.86,9.06-2.81,11.52-6.57-4.1-14.49-3.94-20.09-11.14l-2.22.47c-5.87-.82-9.48-4.64-10.37-12.11-.11-2.47-2.36-6.71,2.09-5.76,3.3.7,6.71,1.59,6.11-3.85-.56-5.11-4-5.89-7.66-4.34-.66.28-1.91-1.32-2.88-2.06l-8.83,1-2.88,5.25-.08-.59c.57-1.27,1.12-2.58,1.64-3.91-2.55-5.78-4.15-8.52-6-8.62a17.05,17.05,0,0,0,3.54-10.8c-.54-3.79-1.63-6.7-4.17-7.38C1429.38-371.19,1429.54-371.71,1429.68-372.24Zm43.91,83c-2.1,1.2-4.18,2.45-6.32,3.57l-.54-2.81.44-1.94.57.13A53.33,53.33,0,0,1,1473.6-289.22Zm-23.94,53.28c-2.51-1.92-5-4.2-7.62-2.5a15.46,15.46,0,0,0-.57-3.21c-.2-.88-.48-1.74-.75-2.6q-.67-2.64-1.55-5.2c-.35-.63-.68-1.27-1-1.92a17.48,17.48,0,0,1,2.45,2.37c1.51,1.92,3.63,1.63,4.88-.49,1.65,2.87,3,6,5.13,8.44C1449.28-240.2,1449.32-238.07,1449.66-235.94ZM1443-89.81c1.17-.3,2.29.36,3.42,1l.18.71a7.74,7.74,0,0,0,2.51,3.9,39.76,39.76,0,0,1-3.28,4.71C1446.56-82.11,1445.48-85.14,1443-89.81Zm-11.1-29.79-.9-6.48q1.91-6.83,3.82-13.67a10.69,10.69,0,0,0,2.77.62,4.82,4.82,0,0,0,3.55-2c1.15,5.32,2.62,10.6,2.6,16.17C1440.07-122.24,1436.25-120.11,1431.86-119.6Zm9.93,146.47c-.08.6-.13,1.18-.17,1.74-.33-.84-.68-1.67-1-2.49A7.32,7.32,0,0,0,1441.79,26.87Zm-4-6.57c-2.4-3.61-6.3-3-9.55-.09-2.66,5-3.92,10.83-6,16.19a8.76,8.76,0,0,0,.34,3c-2.42,0-4.33,2.43-5.68,4.84-1.25,2.24-2.49,4.43-3.84,6.52a9.55,9.55,0,0,0-2.1-3.29c-.52-.08-1-.13-1.56-.17-.71-2.4-3.22-3.08-4-5.41l2.86-2.51c2.09-13.65-4.54-21.52-13-28.14l-1.9-2.15c1.26-3.52,3.2-5,6.08-2.18,4.11,4,7.84,2.35,11.6.08,2.09,3.79,4.78,6.52,8.39,7.59q.76-8,1.52-15.9c8-5.31,10.73.61,12.19,9.36a6.72,6.72,0,0,0,4.68,5.91l-.09.17A59.58,59.58,0,0,0,1437.78,20.3Zm-42.4-244.85c0,.08-.08.15-.11.23l-.08-.37-.35-3.28c.21,0,.43,0,.65-.08,4.14-.52,6.05-3.34,5.58-8.6-2.65-6.65-8.57-.19-11.61-5.27l-1.47.16c.14-3.19-1.22-5.37-2.84-7.37a8.7,8.7,0,0,0,3.51-1.55,11.08,11.08,0,0,0,1.69,3.44c6.24,4.55,8-.4,10.09-4.83,1.32,5.53,5.69,5.7,9.33,7.15-2.31,1-4.48,2.34-5.61,5.38-1.38,7.15,0,11.53,4.89,12.47a7.9,7.9,0,0,0-3.76,7.28c-2.77-3.12-5.76-5.7-10.1-4.89Zm-9-81.59a5.47,5.47,0,0,1,1.17.76c2.45.27,4.21-.94,5.78-2.5-.61,3.42.75,6.7,4,9.85a13.73,13.73,0,0,0,1.33.73,61.58,61.58,0,0,1-4.4,13.28l-7.3-3.55h0c-.84-1.32-1.67-2.66-2.51-4h0a18.66,18.66,0,0,0,2.13-9.56A17.2,17.2,0,0,1,1386.39-306.13Zm16.21,45.52q.34-.18.67-.38a5.55,5.55,0,0,1-.32.52Zm14.32,77.78c-3.62-5.35-7.08-6.41-10.71-4.83a10.41,10.41,0,0,0,.16-3.34,7.93,7.93,0,0,0-1.94-5,8.34,8.34,0,0,1,2.65,0c2.41.42,4.28-.39,5.24-2.32C1411.49-193.12,1416.38-188.94,1416.92-182.83Zm-4-17.53c0-.1,0-.19,0-.29l.08.05Zm8.91,110.52a1.76,1.76,0,0,0-.42,0l-.19-.33a11.14,11.14,0,0,0-5.69-3.57,21.26,21.26,0,0,0-.64-2.76c-.3-1-.73-2-1.06-3,2.31,1.65,4.85,1,7.58-.62l.77-.44a9.78,9.78,0,0,0-1.58,3.93A8.82,8.82,0,0,0,1421.85-89.83Zm-10.83,50c.12.8.28,1.59.45,2.38l-.69.54c-2.58-4.65.73-11.44-4.25-15.21-1.21-3.92-.45-7.67,0-11.45l.17-.25A22.41,22.41,0,0,0,1412-50.7l-.26.3C1409.64-47.22,1410.58-43.5,1411-39.87Zm36.12-223.25.46,1.23-1,.93h0l-12.8-12.87c0-.59.07-1.18.14-1.76a8.57,8.57,0,0,0-.45-1.32c2.33.32,4.59.36,6.28-2.07,1.83,2.15,3.7,2.75,5.61,1.73A14.16,14.16,0,0,0,1448-272C1445.79-270.22,1445.81-267.07,1447.13-263.13Zm-44.26-77.35c1.75-.56,2.41-2,2.81-3.59a20.85,20.85,0,0,0,9,12.33,9.32,9.32,0,0,0,2.5,0,9.34,9.34,0,0,0,5.88,2.82h0l5.85,3.67c2,4.71,4.1,9.33,8.84,10.47,1.85,4.29-4.47,9.55,1.69,13.31l2.86,8.74-5.74-3.75c-9.89,1.69-11-9.11-13.32-16.2-3.09-9.37-5.46-13.27-11.47-4.22a8.37,8.37,0,0,1-2.41,2.25,13.54,13.54,0,0,1,1.21-6.88c3.15-6.45,2.06-11.74-4.36-14.7a8.91,8.91,0,0,0-2.57-.23c-.19.09-.37.2-.56.3a21.93,21.93,0,0,0-2.87-5A6.73,6.73,0,0,0,1402.87-340.48ZM1329-309.05l0-.08H1329c.6-2.54.59-5.38,1.63-7.7a5.05,5.05,0,0,0,1.06.29c4.29-1,6.64-4.16,8-8.43a6.47,6.47,0,0,0,2.07.94c6.33-.29,7.59-9,12.67-11.36,3.54-4.78,9.94-6.57,9.75-15.28,0-.8-.05-1.56-.13-2.28a4.13,4.13,0,0,0,1.69,0,4.57,4.57,0,0,0,1.58-1.07c2.06,2.09,4.46,1.21,6.85.5,2.86-.62,5.57-1.6,7.63-4.25a8.36,8.36,0,0,0,.63-1.6c3.86,9.59,6,10.39,12.25,5,.41-3.58-.91-4.71-2.59-5.32a11.4,11.4,0,0,0,3.4-5.1c1,2.77,2.13,5.47,4.71,6.3l-3.93,8.18c-.16.49-.33,1-.49,1.48a18.4,18.4,0,0,0,1.07,3.81c-2.58-.92-4.89-.75-6.55,2.19l-.48-.33c-4.58-.91-8.34.06-9.85,6.14-.45,4.86-3.28,10,1.81,14.18l-3.15,2.36c-2.8-2.79-5.12-8.26-9.35-3.34,0,.77-.05,1.55-.09,2.32l-1.66.31a8.5,8.5,0,0,0-4.8,5.34l-4-1.84a56.94,56.94,0,0,0-4.19,7.7c-.6-3-2.24-4.68-6-3.7,0,.73,0,1.45,0,2.17-.3,7.5-6.31,12.79-4.33,21.17-7,.49-6.34-7.58-8.88-12.07C1334.33-306.39,1331-306.67,1329-309.05Zm44,116.23a13.8,13.8,0,0,0-1.18,2.22,2.87,2.87,0,0,0-2.29-.86A15.88,15.88,0,0,0,1373-192.83Zm-4.38,1.45-.71.14-.05-.21A4.4,4.4,0,0,0,1368.65-191.37Zm-31,19.28a7.83,7.83,0,0,0-2.82-.86c1.09-5-1-8.88-4.08-12.37,7.25.06,7.89-.83,8-12.24l2.27.91h0c2.2,3.39,4.59,6.67,5,11.2-.24,4-.2,8,1.55,11.77C1343.93-174.23,1339.2-177.52,1337.67-172.09Zm18.69-100.49c-3.2,2.75-8.28,1.58-10.41,6.57-3.54.36-5.92-2.18-8-5.39l-1.1-8c4.9.25,10.23,1.34,11-6.39l.18.06a4.89,4.89,0,0,0,2.66-.3c-.6,2.65,0,5.2,2.51,6.33,3.74,1.69,7.75,2,10.47-1.51.27,2,.57,3.94.75,5.92l-6.71,1.2A9.19,9.19,0,0,0,1356.36-272.58Zm16.26,259.35a5.34,5.34,0,0,0-.43.73,7.67,7.67,0,0,0-1.46-2.18,9.31,9.31,0,0,0-4.09-2c-.37-3.31,0-7.06-3.64-8.47-.7-3.58-1.93-6.74-4.73-8.62l.9-4.88a8.13,8.13,0,0,1,4.71-5.24c.47,14.9,1.53,17.47,10,18.73a9,9,0,0,0,.59,2.76l.14.22C1371.3-20,1370.44-17.13,1372.62-13.23Zm6.27,59.09a8.79,8.79,0,0,0-.1-3.76,4.87,4.87,0,0,0,1.66-.33,5.36,5.36,0,0,0,2.49,3.86A11.28,11.28,0,0,0,1378.9,45.86Zm6.31-125.8c-1.43,4.2-4.84,8.17-1,13l0,0h0c-2.36-2.19-4.55-5-7.57-4.85.19-2.55-1.33-5-2.32-7.5-.1-.14-.21-.27-.31-.41,3.78.19,7.61.79,11.21-.78.13.1.26.18.4.27Zm.28-97.28a4.88,4.88,0,0,0-2.22-2.74c4.18-1.92,8.76-1.86,13.27-2.2a9.49,9.49,0,0,1-3,.27l-2.72.33C1388.28-181.07,1386.76-179.31,1385.48-177.23Zm1.65,179.89.53-.42c.05.21.1.43.15.64A4.39,4.39,0,0,0,1387.13,2.66Zm50.33,114.83c-2.17-3.61-4.66-6.31-8.5-4.69a4.19,4.19,0,0,0-1,.83l-3.78-1.79c-2.24-4-5.07-5.21-8.53-3.46a4.65,4.65,0,0,0-2.54,3.19c-1.22-2.2-1.9-5-3.47-6.78,3-2.24,4.09-6.53,5.17-10.88a5.1,5.1,0,0,0-1.26-2.91c-5.94-1-8.61,5.69-13,8.27v0c-3.28-5-7.42-6.31-12.05-5.48a4.5,4.5,0,0,0,.36-.6c.05-.35.1-.7.16-1.05h0c3.42-3.49,8.8-5.56,6-13.63a8.78,8.78,0,0,0-4.13-5.12,9.57,9.57,0,0,0-3-.53c1.33-2,2.55-4.15,4.32-5.51l4.25,5.53c5.14,1.26,9.93.09,14.55-2.23,1.2-.13,2.68.44,3.71-.1l.21.22c6.56,4,10.34,11.61,15.06,18a6.58,6.58,0,0,0,2.44.75c7.75.66,9.12,8.15,8.26,14.59-1.18,8.76,1.12,15.37,6.45,23.39C1442.19,124.8,1439.75,121.29,1437.46,117.5Zm12.67-62.89c-1.94,2.19-1.44,4.87-1,7.55-3,.27-3.22,4.34-4.7,6.68a6.56,6.56,0,0,0-1.07-.65,3.56,3.56,0,0,0-3.26-.11c-2.08-4.21-3.1-9-5-13.26l0-.06c3.13-2.68,4.83-7,6.62-11.15a15,15,0,0,0,1.65-7c1.56,2.29,4.07,3.72,7.33,4.45l.3,0L1449.63,47Q1449.88,50.81,1450.13,54.61Zm17.1-15.8a32.87,32.87,0,0,1,.33,3.32l-3,2.7a6.31,6.31,0,0,0,1.11,5.65c-.11.18-.22.36-.32.55a9.83,9.83,0,0,0,0,4.81,3.64,3.64,0,0,0-3.68.48,8.4,8.4,0,0,0-1.14,1.41c-4.15-4.3-7-9-3-15.78l.33.08c.5.15,1,.33,1.51.46l.16.08c.1.36.66.61,1.29.71l3.1,2-.89-4.27c.23-10.24-2.76-17.51-11.83-19.19q-.41-3.45-.83-6.88c1.36-.55,3.84-.87,3.9-1.67.58-7.54,5.94-5.37,9.36-7.07l.36-.16L1462,9.14c-3.18,4.67-4.38,10-1.28,16.39,2.75,5.65,5.93,5.89,9.91,4.63C1468.29,31.44,1466.65,33.61,1467.23,38.81Zm9.06-153.47a13.23,13.23,0,0,0,.26-2.45,8.24,8.24,0,0,0,3.11,2.92A27,27,0,0,0,1476.29-114.66Zm15,5a13.29,13.29,0,0,0-4.94,7.29l-.5-.35.05-.27c.84-7.57-1.89-10.08-5.69-11.07,1.26.15,2.65-.82,4.29-3.84.82,4.83,3.61,5.9,6.94,5.95C1491.36-111.19,1491.31-110.43,1491.26-109.66Zm6.06-39a5,5,0,0,0-1.81,1.12l-2.07-1.22c-.46.78-1,1-1.62.6,1.46-5.12.58-9-1.76-12.23,2.89,2.31,5.82,4.15,9.12,2.27.11,3.77,1.83,7.6,2,11.37A3.91,3.91,0,0,0,1497.32-148.66Zm3.5-124.46a9.54,9.54,0,0,0,.28,4.68c-1.49.16-2.68,1.51-3.63,3.75,4,19.54-.69,36.5-7.77,52.75l-.2.36-9-4c0-.78.05-1.57.08-2.36-2.14-.8-4.19-1.09-5.83,1.1l-3.75,2.36-4.49,3.08-2.68-4.64c-.87-2.51-1.69-5.05-4.17-5.78.29-2.29.57-4.59.85-6.89l2.62-7.28c3.31-.18,5.14-2,6.19-4.68,1.11,2.53,2.08,5.19,4.1,6.59,3.23,2.23,6.16,2.56,3.92-4l-1.31-10.2c4.18,1.47,8.21,3.67,12.74,2.44,5.94-1.61,9.72-4.91,8.82-13.39-1.23-7.38-.58-14.07,3.76-19.42.18-.87.39-1.74.6-2.6a5.75,5.75,0,0,0,1.23,2A9.93,9.93,0,0,0,1500.82-273.12Zm3.24-43.57c-6.59-1.94-9.47,1.86-8.35,11.85-5.19-2.7-4.45-11.37-9.48-14.21,2.83-4.71,9.46-3.49,11.14-10,1.72,4.39,4.27,7.45,7.76,9A5.71,5.71,0,0,0,1504.06-316.7Zm31.91,71a5.87,5.87,0,0,0-2.87,1.32,9.71,9.71,0,0,0-.23-2.1l-.22-.49.27.25a4.38,4.38,0,0,0,1.89,1,3.32,3.32,0,0,0,1-.11Zm-2.78,22.05c-3.51,2.16-4.67-3.76-7.38-4.86-1.05,2.4-2.21,4.68-4.45,5.61l-2.75.46a10.72,10.72,0,0,0-1.9-6.54c1.94.54,4.08-.72,7.71-3.17,1.9-1.56,1.92-5.16,3.92-6.62,0,2.65,1.16,5.08,3.11,7.36a2.74,2.74,0,0,0,2.07.11C1533.14-228.72,1535.8-225.3,1533.19-223.69Zm-4.82-103.88a8.06,8.06,0,0,0,4.53,5.9,7.46,7.46,0,0,0,1,0,76.07,76.07,0,0,1,1.34,9.13c-.41.44-.81.89-1.17,1.35a17.5,17.5,0,0,0-1.48,2.44c-.14.36-.28.71-.44,1-3.44.19-6.85.16-10-2.92-2.31-1.08-4.42-2.39-4.53-6l-2.9-8.67C1524.54-321.24,1526.16-320.88,1528.38-327.57ZM1517.4-146l-1.36-8c3.6-3.47,6.16-1.82,8.07,3.09-2,3.92-.49,5.73,2.73,6.57,3-.08,4.24-2.33,5.14-4.95a7.6,7.6,0,0,0,6.78,3.05,4.68,4.68,0,0,0-.88,1.23l-1.12-.16a6.24,6.24,0,0,0-1-1.05c-3.26-.63-4.55,1.11-4,5.1a7.52,7.52,0,0,1,.89,1.1,1.32,1.32,0,0,0-.07,1.15c.2.48.38.71.53.69l.92,6.54-4.45,4.19c-.45-.94-1.12-2-1-2.82C1529.85-141.09,1525.67-145.75,1517.4-146ZM1536.06-23.2l-.15-.18-1.28-3a3.53,3.53,0,0,0,1.16-.74,5.85,5.85,0,0,1,4.81-2.19A26.84,26.84,0,0,0,1536.06-23.2ZM1534.34-69c-2-1.6-4-2.42-6.65-.28a5.73,5.73,0,0,0-1.19-1.35l-.63-.21q-.46-4.42-.92-8.83c6.06,1.89,4.09-5,5.62-8.08,3,3.47,4.35,9.15,9,10.3l2.84,1.33C1540-73.59,1534.47-73.42,1534.34-69Zm9.3,59.44-.26.08c0-.1,0-.19,0-.29l.23.2Zm2.58-95.28a7.36,7.36,0,0,0-.48-1.67c-1.66-2.46-3.64-3.87-6.13-3.56a7.09,7.09,0,0,0-1.5-2c-1.94-4.67-4-3.28-6.1-.94-.37,0-.74.07-1.1.08-.08-1.68-.71-3.43-.84-5.11a6.39,6.39,0,0,1-.2-1c1.62-.9,3.24-1.82,4.83-2.79,3.81-2.34,2-5-.27-7.54l1.46,0,3.67-2.47c.78,6.21,6,6.29,8.69,9.82-.08,2,1.2,2.83,2.28,3.82-2.08,2.75-4.56,5.33-2.21,9.88h-.08l.11,0v0l-.12-.07a2.63,2.63,0,0,0,2.07.88l1.06.45c.08.48.15,1,.24,1.42,0,.21,0,.41,0,.62C1549.73-106.38,1548-105.7,1546.21-104.88Zm86.61-142.74a1.64,1.64,0,0,0,1.46-.7,1.41,1.41,0,0,0,2-.25q-.33-3.1-.66-6.21a3.66,3.66,0,0,0,.16-1.79c1.88,2.41,4.08,2.85,6.65,1a6.83,6.83,0,0,0,.53-.69l.67,1.54a9.8,9.8,0,0,0-1.13,3.16c1.61,12.82,6.62,18.3,15,16.39a9.84,9.84,0,0,0,.49,1.41c-1.1.59-1.71,2.09-2.22,3.78-.48,2.87,2.81,8.12-2.89,7.67-3.76-.21-6-5.65-9.87-5.37a17.69,17.69,0,0,0-5.19-10.13c-4-5.13-7,1-10.6.72C1627-241.93,1629.9-244.78,1632.82-247.62Zm2.54,26.61a17.87,17.87,0,0,0-.25,2.73c-3-1-5,1.71-6.94,4.51a30.79,30.79,0,0,1-.06-6.39l.46.13C1631.18-219.22,1633.5-219.37,1635.36-221ZM1620-252.61c-.24-7.06,4.08-9.76,7.47-13.36a19.86,19.86,0,0,0-.37,3.65,6.41,6.41,0,0,0-1.58,1.88l1.57-.38s0,.09,0,.14a12.77,12.77,0,0,0,2.78,5.95c-2,.47-2.16,3.27-2.72,5.58-.08,7-5.59,8-8.77,11.5a6.54,6.54,0,0,0-3,.25,9.93,9.93,0,0,0-1.91-5.14C1617.9-242.86,1619.59-246.9,1620-252.61Zm-45.93,108.42c2.4,2.95,4.79,5.88,8.08,6,0,.07,0,.14.07.21a19,19,0,0,0,4.62,3.69,9.3,9.3,0,0,0-3,.8c-.26.31-.51.63-.76.95-4.62-1.65-9.62-2.36-12.26-8.92Zm-19-92.17c2.8-4.89,5.49-9.84,6.89-15.53a8.4,8.4,0,0,0,2.47,4.3c-2.44.8-3.42,3.24-3.19,6.49a27.41,27.41,0,0,1-1,8.46C1559.36-236.43,1557.25-236.53,1555-236.35Zm41.3,185a6.64,6.64,0,0,0-4.64,2.49c-1.12-4.49-3.81-7-7.66-7.93a5.42,5.42,0,0,0-4.1.31,6.24,6.24,0,0,0-2.83,2.76,34,34,0,0,0-5.42-6.49c-2.31-2.79-4.87-3.14-7.57-2a3.25,3.25,0,0,0-.79-1.3,4.22,4.22,0,0,0-4.42-.76,24.62,24.62,0,0,0,0-10.28c-.41-1-.84-2.07-1.3-3.08,2.25-1.58,4.88-2.27,7.35-3.35l1.8.91a5.9,5.9,0,0,0,2.51,4.51c1,2.41,2.09,4.82,3.14,7.21l5.51-.54,7,1.25,0,.12h.06c.08,2.25-1.25,4.58.62,6.72l2.53-.72,3.35,2,2.4,1.41a2.27,2.27,0,0,0,.78.46h0l.79,0,2.07,2Zm-1-79.76c-1-.65-1.77-.53-2.34.21a9.92,9.92,0,0,0-1.8-2,11.2,11.2,0,0,0,4.93-.63,13.14,13.14,0,0,0-.79,2C1595.37-131.41,1595.38-131.27,1595.38-131.12Zm5.73,92.69.06-.13s0,.09,0,.14Zm.52-4a37,37,0,0,0-.38-3.87,5.88,5.88,0,0,0,1.44-.29C1602.34-45.22,1601.93-43.85,1601.63-42.45Zm1.57-34.33a4.31,4.31,0,0,0-3.46.76,9.29,9.29,0,0,0,0-8.78,5.4,5.4,0,0,0,3.84,1A8.69,8.69,0,0,0,1603.19-76.78Zm3.68,61.53a8.87,8.87,0,0,0-1-.68,10.35,10.35,0,0,0,2.93-2.74,6.26,6.26,0,0,0,2.54,1.3A9.17,9.17,0,0,0,1606.87-15.25Zm11.06-34.33c-4.8-1-9.42-.08-14,1.42q0-1.92-.08-3.84l4.63-.53h0c2.16.21,5,1.78,5-2.89,0-6,3.49-2.58,5.56-3l2.28,2.21C1619.63-54.25,1618.06-52.23,1617.92-49.58Zm-2.16-147.6a1.27,1.27,0,0,1,.29-.66c0,.06,0,.13,0,.19h0c-.11.31-.21.61-.3.93A1.09,1.09,0,0,1,1615.76-197.17Zm5.15,7.89c-1.47,1.16-2.51.81-3.39-.13a3.24,3.24,0,0,0-.51-1.83c-.24-1.52-.47-3-.7-4.56,0-.67-.09-1.32-.16-2a1.7,1.7,0,0,0,.24-.56l.4-.85-.62-.46s-.07-.08-.1-.08l-.44-.48c-1.47-3.22-2.74-6.74-6.37-6.73a14.37,14.37,0,0,0-8.08,5.41c-1.47-2.56-4.24-4.08-6-6.37a10.45,10.45,0,0,0-8.18,3.7,13,13,0,0,0,1.63-8.75,22.73,22.73,0,0,0,2.68,1.22c2.63.06,5-.33,6.73-2-.06,3,.2,5.83,2.81,8.14,1.93.62,3.61.35,4.7-1.86l1.64-4.68c3.46,3.61,7.25,6.31,11.81,6.92,2.53-1.87,4.73-4.55,7.71-5.36-.07.2-.14.41-.22.61-5.32,13.89-4.43,17.2,7.19,21.13a10.07,10.07,0,0,0,.88,6l.26.39c-4.33-.07-6.56,2.64-7,7.67a7.38,7.38,0,0,0-1-1.86c-.46-.48-.9-.9-1.32-1.26C1624.59-182,1624.36-186.47,1620.91-189.29ZM1628.72,25l-.2-.17.21,0Zm.49,2.17c0-.07,0-.14,0-.2l.07,0,.09.25Zm3.56-50.74a20.78,20.78,0,0,0-2.92-4.17,4.62,4.62,0,0,0,1.06.27h.2c.7,1.36,1.45,2,2.24,2.09A7.58,7.58,0,0,0,1632.78-23.55Zm14.51-12.54a29.57,29.57,0,0,0-8.53-.49c-.81-10-5.8-17.84-13.39-20.86.84-2.55.31-5.85,1.15-8.4a4.29,4.29,0,0,0,2.77,1.1l.8-.24c2.7,3.11,5.3-1,8-1.49.09.27.17.54.27.81,1.16,1.31,2.36,2.17,3.65,1.92a4.84,4.84,0,0,0,3.11,3,6.46,6.46,0,0,0-.24,2.07,6.69,6.69,0,0,0,3.12,5.49c-1.83,2.33-3.19,4.68.6,7.32C1646.69-43,1647.86-39.29,1647.29-36.09ZM1648.62-200c-.35.64-.76.86-1.22.67a5.46,5.46,0,0,0,.39-.44,6.52,6.52,0,0,0,.06-5.71l.44-.18c.38-.14.76-.27,1.14-.38Zm7,2.61a18.79,18.79,0,0,0-1.87.24l-1.13-3.37,1.09-2.63-3.12-3.16a11,11,0,0,1,3.38-.16,33,33,0,0,1,5.77,1.48h0a7.84,7.84,0,0,0,.39,3.24c.14.22.28.41.43.6a3.21,3.21,0,0,0-.65,1.11,3.89,3.89,0,0,0-1.16-.43C1656.76-199.91,1655.54-199,1655.59-197.36Zm7.79,185a8.37,8.37,0,0,0-.32,1.73c-1.75-1.56-3.44-3.22-5.23-4.69,2.17-.72,4.31-1.8,6.56-.55,0,.22-.06.44-.08.66a4.74,4.74,0,0,0,.34,1.44A18.31,18.31,0,0,0,1663.37-12.34Zm54.43-37.84.21.39-.24.22h0C1717.78-49.77,1717.79-50,1717.81-50.18Zm5-206,0-.11.08.09Z"/><polygon class="cls-2" points="1184.29 128.27 1184.44 128.86 1184.82 128.42 1184.29 128.27"/><path class="cls-2" d="M1600,282.61c-35.08.25-38.42,9-52.31,17.34a88.94,88.94,0,0,1-15.83,7.68c-1.57.57-3.23,1.12-5,1.64-2.33.69-4.83,2.33-7.54,2.9-4.37.93-8.74.92-13.1,2-3.36.8-6.72,2.62-10.08,3.47-4.54,1.14-9.11,3.25-13.9,3.3a73.28,73.28,0,0,0-32.27,7.61c-4.91,2.5-8.62,6-14.09,7.68-5.63,1.78-12.5,1-17.89,3-2.13.81-7,6-8.53,3.55-2.27-3-38.87,11.1-43.79,12.33-2.83.71-5.62.38-8.38,1q-6.77,1.56-13.25,2.81c-8.3,1.59-16.22,3.74-23.7,4.34-2.3.18-4.6-.64-6.91-.46-6.42.49-12.87-.06-19.36.36-4.66.3-9.33,1.59-14,1.86q-6.27.36-12.57.68l-3.15.16c-10.35.51-20.77,1.94-31.22,2.3-3.57.12-6.5-.79-10-.68-6.75.2-13.51,1.36-20.28,1.49-3.18.06-6.36-.88-9.54-.83q-9.55.15-19.12.21-5.94,0-11.88,0-8.31,0-16.62,0l-8.31-.07-8.58-.1-9.35-.15-10.12-.21q-16.84-.38-33.56-1l-1.46-.06c-2.34-.09-4.68-1.18-7-1.28-2-.08-3.9.84-5.85.75-1.65-.07-3.2-1.26-5-1.37-2.18-.13-4.38.38-6.55.47-3.58.15-7.09,0-10.66-.2-8.16-.46-15.6-5.93-23.83-5.42-1.82.11-3.66-.33-5.49-.37-2,0-3.22-1.22-5-1.35-7.68-.55-15.51-4.59-23.24-4.74-3.13-.06-6.25.89-9.38.83-2.57,0-4.85.88-7.15.89-2.55,0-5.43.93-8.22.9-3.31,0-6.62.92-9.93.88-4.63-.05-9.25.82-13.88.93-4.2.1-8.61.84-12.77.13-2.75-.47-6,.38-8.78.6-3.11.25-5.46,2.09-8.65,1.66s-5.91.23-9.14.22c-2.6,0-4.66-.28-6.93-.34-1.14,0-2,.36-3.36.46-28.48,2.13-56.49-.49-84.86-.59h-6.43c-2.13,0-4.27-1-6.42-1-2.83,0-5.67,2-8.53,2-1.44,0-2.88-1-4.32-1-3.67,0-7.37,2-11.09,2-1.36,0-2.73-1-4.1-1s-2.72-1-4.09-1c-1.75,0-3.5,1-5.25,1H739l-7,0h-8.76c-2.72,0-5.44,1-8.18,1-1.65,0-1.85-1-3.5-1h-8.18c-1.36,0-2.73,1-4.09,1h-2.92l-10.52,0c-2.14,0-4.28-1-6.42-1H657.23c-2.92,0-5.84,1-8.76,1-4.29,0-8.74-.92-13.1-1.14l-.75,0-1.51,0c-1.52,0-3,0-4.58.05l-3.42.1c-1,0-2,0-2.93,0h-9.35c-1.81,0-2.56-.71-4.38-.71-.91,0-2.89.71-3.8.71H600a22.17,22.17,0,0,0-3.17.27,43.84,43.84,0,0,1-6.17.73,32.86,32.86,0,0,1-5.12-.57,27,27,0,0,0-4.22-.43H536.9c-1.17,0-4.09-1.2-5.26-1.2-2.86,0-4,1.2-6.82,1.2h-9.74c-.78,0-2.53,1-3.31,1-1.3,0-4.35-1-5.65-1h-9c-1.29,0-3.05-2.38-4.34-2.38h-12c-2.93,0-5.94,1.25-8.74,1.75-6.52,1.16-16.27.19-22.85-.53-2.83-.31-5.26.88-8,1.1-3,.23-5.48-.72-8.41-.8-2.66-.08-4.89.64-7.56,0-3.64-.86-3.56-.18-7.39.75-6.84,1.66-15.27-.62-22.28.21-3.81.45-6,1.52-9.92.94A98.22,98.22,0,0,0,371,360.6c-2.08,0-2.6,1.78-4.67,1.79-3,0-7.54-1.76-10.51-1.76H349.2l-7.4,0c-1.08,0-4,1.72-5.06,1.72-2.83,0-3.82-1.71-6.62-1.7h-4.28l-7.4,0h-4.68l-8.1,0c-2.11,0-9.55-1-12.36-.45-3.19.62-6.3-.33-9.5-.19-1.17.05-2.35,1.11-3.54,1.16l-3.92.18c-1.18.05-2.35-.89-3.49-.84-1.75.07-3.44,1.14-5,1.19s-3.29.08-4.74.09c-5.13,0-5.06-1-10-1l-5.85,0-11.68,0-13.7.06c-4.35,0-4.28,1-8.48,1-3.16,0-3.35,3-6.42,3-6.43,0-12.07,0-18.1,0-3.58,0-11.08,0-14.51,0-6.94,0-13.45,2.6-19.75,2.64-5.73,0-11.22-2.68-16.39-2.64-7.19.06-12.65-.06-18.67,0-8.17.08-16-3.23-21.82-3.14-2.59,0-6.47-2.92-8.55-2.88-5.64.11-9.27-1.45-10.9-1.33-9.67.67-13.92,1.48-22.59,1.33-4.31-.07-5.1-3.14-9.35-3.33-6.63-.3-21.94-6.9-28.82-7.33-6.19-.39-10.62-5-17.37-5.33V396l1600,0V282.61"/><path class="cls-3" d="M1084.24,379.66c-1.79-16.75,6.91-31.22,7.26-47.47.21-10.23,1.76-22.08-6.57-27.68-12.1-8.13-26.7-8.79-40.1-2.62-6.26,2.88-14.51,22.32-14.67,14.95,5.42-2.7,1.19-10.34,6.59-13.24-8.79-1.42-14.29,2.15-17.31,10.29l-3.24-.76c-2.74,15.29-21.5,7.76-26.11,21.23-1.13,3.3-20.22-2.05-23-5.22-4.87-5.5,1.34-8,2.88-11.84-10.41-.21-10.41-.21-8.47,7.59-7.8-2-7.75-2-9.45,6.2-.15.72-1.46,1.29-2.33,1.69-3.74,1.68-5.15.81-6.86-3.89-5.51-15.16-1.93-25,12.65-28.37,10.86-2.53,15.52-9.08,15.37-22.11-9.19,3.64-17.66,7.16-26.25,10.27-2,.72-1.86,7.37-6,2.35-3.3-4-2-6.57,1.12-9.46,1-.93,1.41-2.65,2.76-5.37l-23.66,7.43c1.16-6.26,4-9.33,8.76-12.15a25.8,25.8,0,0,0,9.62-11.09c2.33-4.81,4.64-12.5,12.81-8.77,1.88.87,3.37,1,3.7-2.22.38-3.84-1.69-3.15-3.9-3.65-8.47-2-16,2.93-24.17,3.44-3.24.2-10.19-3.32-8.4,6.28.39,2.07-2.45,2.1-4.35,1-4.32-2.53-7.22-14.4-4.11-18.34,7.59-9.63,14.15-21.21,27.93-21.19,9.59,0,9.43-9.3,9.66-14.35.21-4.62,7.91-10.33-.64-16.1-2.13-1.44,4.26-9.73,9.47-12.82,1.87-1.11,9.19.09,2.87-7-2.67-3,5.63-4.05,7.4-7.53-7.47-3.88-15.35-.48-22.81.5-7.08.93-6.61-4.8-7.82-7.72-1.82-4.38,2.08-7.84,5.72-8.26,6.6-.77,8.78-4.46,9-10.9.06-1.8.89-4.64,2-5.08,2.31-.89,6.31,1.83,6.1-3.72s-3.17-3.06-6.09-2.73c-2.42.28-.61-1.83-.2-3.08,1.81-5.43-2.1-10.38-4.84-11.33C932.61,102,941.27,94,945.31,90.28c9.68-8.88,16.44-20.85,28-28,4.86-3,4.4-12.75,3.68-19.36-.68-6.15-6-7.37-11.41-6.56-1.59.23-3.32-.68-6.88-1.5,17.92-14.16,35.74-21.42,58.36-19.62l-11.7-8.78c8-4.4,12.35-11.35,15-19.68,4.41,1.52.43,9.53,6,8.35,3.63-.78,8.23-2.87,5.36-9.12-.42-.91-.59-2.94,1.11-2.51,11.44,2.89,17.49-8.54,26.71-11.49,2.49-.79,4.21-1.65,4.9,1.94.24,1.2.39,4.55,1.13,3.19,6.49-11.89,10.32,2.86,16.21,1.81,5.22-.93,9.25,0,8.94-8.52,12,22.33,22,2.51,33.08-1.65-.29,6.5-9.78,9.37-4.91,15.09,4.42,5.2,10.64,1.09,15.51-1.41,9.1-4.66,18.56.83,27.86-1.69,2.19-.59,2.28,6.83,6.83,10.37,8.15,6.36,17.07,8.8,25.8,12.1,8,3,15.28,4.11,16.52,16,.63,6,8.89,6.56,14.21,7.58,8.54,1.63,10.75,9.67,13.3,15.83,4.17,10-2.46,14.43-10.89,15.18-3.33.29-6.5.32-6.75,4.27s3.71,2.83,5.9,3.87c4.86,2.31,7.83,4.3,7.28,12.23-.8,11.47,7.82,19.41,15.25,27.06,5.39,5.56,14.31,10.63,3.76,20-2.68,2.37-.42,5.56,1,7.43,5.46,7.25,14.56,11.52,15.66,22.37,0,.44,1.11,1.22,1.22,1.13,11.27-9.08,16.39,4.78,24.39,7.66,15.72,5.68,15.49,23.76,23.21,35.68-4,2.32.8,14.56-9.67,9.84-1.77-.79-4.07-2.51-7.13.23,10.52,4.23,7.35,16.92,13.62,24,.9,1,3.71,5.38-1.11,6.56-2.68.65-5,2.8-8.12-.48-9.34-9.91-22.94-10.39-34-16.79-4.74-2.75-7.89-2.7-5.64,5.48,1.51,5.47-4.86,9.2-7,14.28s-3.75,3.66,1.55,7.46c8.5,6.09,16,13.64,24.9,19.3,4.79,3,8.92,8.57,5.26,16-2.93,6,2.08,11,3.38,15.6,2.75,9.68-.81,7-5.7,6-11.86-2.61-24.06-2.94-34.62-11.45-3.68-3-10.82,1.45-16.17-3.44-1.12-1-1.38,6.86.41,7.1,6.33.84,1,9.88,6.93,10.17-2.83,1.25-1.87,8.62-6.32,6a190.09,190.09,0,0,0-18.26-9.4c-3.18-1.42-10.89,5.17-14.61,3.78-3.88-1.45-12-5.43-16.48-6.74-9.86-2.88-13-10.73-25.81-12.12-2.61-.28-6.39,2.41-7.18-2.88-.66-4.44,2.71-5.74,5.25-7.77-4.47,2.35-17.4-5.06-10.07,10.65-7.47,2.39-.73,8-2.29,11.73-.57.36-1.11,1-1.71,1-5.34.59-9.28-8.07-13.61-4.85-9.81,7.3-18.7,16.32-23.51,28.54-6.25,15.88-3.4,32.63-3.05,49.08"/><path class="cls-4" d="M458.94,367.06c.54-8.59-4.19-17.08-4.81-25.35-.39-5.21-1.55-11.21,2.87-14.3a23.5,23.5,0,0,1,21.91-2.48c3.51,1.29,8.54,11,8.44,7.21-3-1.22-.93-5.24-4-6.56,4.78-1,7.89.69,9.76,4.75l1.76-.48c1.9,7.72,12,3.34,14.88,10.08.71,1.65,11-1.62,12.49-3.31,2.53-2.94-.94-4-1.89-6,5.7-.4,5.7-.4,4.84,3.63,4.23-1.23,4.2-1.22,5.34,2.89.1.36.84.62,1.32.8,2.09.75,2.84.27,3.66-2.18,2.62-7.89.4-12.79-7.68-14.11-6-1-8.75-4.19-9-10.84,5.13,1.6,9.87,3.15,14.66,4.49,1.12.31,1.22,3.7,3.36,1,1.7-2.12.94-3.41-.87-4.79-.58-.45-.84-1.31-1.66-2.66L547.52,312c-.8-3.16-2.43-4.65-5.12-5.95a13.52,13.52,0,0,1-5.56-5.38c-1.4-2.39-2.87-6.25-7.25-4.11-1,.5-1.82.61-2.09-1-.31-1.94.85-1.65,2-2,4.59-1.24,8.86,1,13.34,1.07,1.78,0,5.5-2,4.77,3-.16,1.07,1.4,1,2.41.38,2.3-1.41,3.58-7.55,1.77-9.47-4.42-4.69-8.32-10.41-15.87-10-5.26.28-5.41-4.48-5.67-7-.24-2.35-4.61-5-.07-8.23,1.13-.79-2.59-4.84-5.53-6.27-1.05-.51-5,.3-1.76-3.5,1.39-1.61-3.2-1.91-4.26-3.63,4-2.19,8.4-.68,12.52-.39,3.91.27,3.5-2.64,4.08-4.16.88-2.29-1.35-3.94-3.35-4.05-3.64-.21-4.93-2-5.22-5.3-.08-.91-.61-2.34-1.24-2.54-1.29-.39-3.41,1.11-3.44-1.72s1.66-1.65,3.26-1.56c1.34.07.29-.95,0-1.58a4.75,4.75,0,0,1,2.35-5.91c7.5-2.85,2.54-6.67.23-8.44-5.54-4.25-9.56-10.16-16.08-13.49-2.75-1.4-2.75-6.37-2.53-9.77.21-3.16,3.07-3.93,6.08-3.67.87.08,1.8-.44,3.73-1-10.2-6.71-20.16-9.91-32.51-8.35l6.19-4.81c-4.53-2-7.07-5.44-8.72-9.61-2.38.9,0,4.87-3.06,4.43-2-.29-4.59-1.23-3.18-4.5.21-.47.25-1.52-.67-1.25-6.19,1.8-9.81-3.86-14.95-5.1-1.38-.33-2.35-.72-2.64,1.13-.1.62-.09,2.33-.53,1.66-3.87-5.88-5.58,1.75-8.84,1.38-2.88-.33-5.07.29-5.13-4.09-6,11.72-12,1.9-18.18.1.33,3.3,5.61,4.5,3.09,7.55-2.29,2.78-5.81.86-8.54-.28-5.11-2.12-10.15,1-15.32-.07-1.22-.24-1.07,3.54-3.47,5.48-4.3,3.48-9.12,5-13.82,6.9-4.29,1.76-8.27,2.53-8.63,8.64-.19,3.09-4.7,3.6-7.59,4.27-4.64,1.07-5.64,5.24-6.87,8.45-2,5.24,1.73,7.29,6.37,7.43,1.83.05,3.57,0,3.81,2s-2,1.54-3.13,2.14c-2.6,1.32-4.18,2.42-3.67,6.44.74,5.83-3.77,10.12-7.64,14.23-2.81,3-7.57,5.82-1.53,10.3,1.53,1.13.38,2.82-.35,3.82-2.8,3.85-7.68,6.29-8,11.85,0,.23-.58.65-.64.61-6.42-4.31-8.86,2.9-13.17,4.6-8.47,3.34-7.86,12.55-11.78,18.85,2.26,1.07-.06,7.45,5.56,4.74.95-.46,2.16-1.39,3.91-.09-5.66,2.46-3.58,8.84-6.83,12.65-.47.54-1.89,2.85.78,3.31,1.49.26,2.84,1.29,4.44-.47,4.86-5.32,12.3-5.95,18.17-9.53,2.53-1.54,4.26-1.6,3.24,2.63-.68,2.83,2.91,4.55,4.2,7.08s2.15,1.76-.65,3.85c-4.5,3.35-8.4,7.41-13.14,10.55-2.55,1.68-4.67,4.62-2.46,8.3,1.77,3-.85,5.67-1.44,8.05-1.25,5,.63,3.56,3.28,2.87,6.43-1.67,13.11-2.18,18.67-6.82,1.94-1.62,6,.43,8.77-2.21.59-.56.94,3.46,0,3.63-3.45.61-.28,5.07-3.53,5.38,1.59.55,1.25,4.34,3.63,2.9,6.88-4.18,13.71-5.58,21.06-1.39a2,2,0,0,0,1.79.08c3.22-2.87,5.83-.67,8.68.74,1.07.53,2.53,2,3.84.26.93-1.24-.15-2.36-.58-3.4-2.71-6.71-1.15-9.73,5.76-10.91,1.42-.24,3.57,1,3.86-1.67.25-2.28-1.63-2.85-3.08-3.81,2.52,1.07,9.41-3.08,5.8,5.15,4.16,1,.61,4.06,1.57,5.92.32.17.64.46,1,.48,2.94.15,4.87-4.38,7.33-2.86a41,41,0,0,1,13.64,13.88c8.92,14.74,2.89,19.91,3.14,28.32Z"/><g class="cls-5"><path class="cls-2" d="M139.09,277.25c-.41-.15-1.83.92-1.83,1.42,0,1,.55,2.58,1.14,2.71,1.14.26,2.48-.27,3.7-.6a14.25,14.25,0,0,0,2.17-1,5.78,5.78,0,0,1,0,1.49c-.56,2.2-1.28,4.37-1.71,6.59-.1.53.67,1.24,1,1.86,1.95-1.16,1.81.57,2.4,1.6a5.62,5.62,0,0,0-1-.07c-.78,3-2.9,2.51-5.06,2a4.86,4.86,0,0,0-2-.21c-.37.08-1,.9-.87,1.12a44.18,44.18,0,0,0,2.39,4.68c.26.44,1,1,1.34.93,3-.81,2.51,1.53,2.77,2.36-.94,1.35-1.47,2.24-2.13,3a26.7,26.7,0,0,1-1.89,1.91,10.65,10.65,0,0,1-1-2.5,12,12,0,0,1,.21-2.82c-1.18,2.86-1.91-.72-2.86.09a11.92,11.92,0,0,1,.69,3.2c0,.93-.66,2.55-1.16,2.59-1.11.11-2.5-.07-2.83-1.88-.15-.83-1.18-1.51-2.1-2.6.15-1.2.61-3.11-2.31-3.28-.07,1-.13,1.87-.19,2.71-2.51.49-5.2,2-7.21-.38-.7-.81-.07-2.76-.06-3.71l4.35-.92c-2-2.43-3.8-2.59-5.84-1l-.73-1.6c-1.19.54-2.72.76-3.27,1.6-.75,1.15-.76,2.78-1.08,4.21l-.65.3-3.87-5.81-1,2.57c-1.15-1.6-1.73-3.15-2.82-3.71a3,3,0,0,1-1.73-3.5c.19-1.22.86-2.36,1.09-3.57.16-.86.2-2.39-.18-2.56a9.57,9.57,0,0,0-3.77-.56c-.22,0-.38,1.21-.67,1.81a2.24,2.24,0,0,1-.93,1.13,2,2,0,0,1-1.58-.11,19.13,19.13,0,0,1-2.16-2,52.19,52.19,0,0,0-.51,5.55c0,1.74.49,3.48.54,5.22,0,.53-.66,1.48-1.09,1.52a3,3,0,0,1-2-.85c-.39-.34-.35-1.16-.71-1.56a9.59,9.59,0,0,0-1.74-1.27,7.14,7.14,0,0,0-.37,2.44,31.08,31.08,0,0,0,1.37,4c-3.42,1.39-4.16-.52-4.37-2l-3.56-2.22-.76.78c-2.19-3.07-1.07-6.44,3.06-8.37L81,281.95c0,1.5,0,2.26,0,3.19-2.39-.66-2.55.83-3,1.73l-6.48,3.27c-.07-1.17-.17-2.82-.3-4.94l2.73,1.22c1.1-2.42.5-3.54-2.77-2.87.34-2.09.06-4.65,1-5.22a4,4,0,0,1,5.75,1.2,24.62,24.62,0,0,0,1.44-3.11,16.4,16.4,0,0,0,.33-3c-1.43.74-2.17,1.41-2.92,1.42s-1.4-.68-2.07-1.1a7.35,7.35,0,0,1-1.8-1.26,2.42,2.42,0,0,1-.68-1.75c.43-1.84-.42-2.36-2-2.13-.25-3.53.24-4.1,3.88-4.65-1.1-2-.17-3.53,1.42-4.43.5-.29,1.82.87,3.1,1.54,1-1,2.43-2.22,2.24-4.55a2.57,2.57,0,0,1,1.28-1.86c2.67-1.44,3.54-3,3-6.22l-4.53,1.73c-.15,2.33-1.37,3.09-4.81,2.59l-.25,2.17L72,254.08l-5.74,3.31L65,253.16l-.63.16-1,2.48-1.18-1.89-1.45,1c-1.2-2.87-1.5-5.39,0-8.05.44-.78.23-1.92.35-3.21l-3.69,1.54c-.41-2.5-.83-4.94-1.19-7.39,0-.19.27-.41.37-.64a16.4,16.4,0,0,0,.8-2.08c.75-2.89,2.33-3.54,5-2a9.44,9.44,0,0,0,1.31.52c1.15-2.87.76-3.26-3.59-3.49A23.88,23.88,0,0,0,59.6,221a6.7,6.7,0,0,1-.1-1.56l-2.71-.2c.18-1.74.36-3.48.55-5.31-.93-.21-3.06-3-2.67-4.38a4.61,4.61,0,0,1,1.7-2.22c.19-.14,1.31.7,1.8,1.28a18.34,18.34,0,0,1,1.55,2.76,37.87,37.87,0,0,1,.09-4.2c.21-1.53.28-3.56,2.36-3.53,1.54,0,2.2-.73,3-1.63,2.07-2.22,4.37-3.7,7.57-2.25.31.14.81-.13,1.22-.22l2.85-.62a33.39,33.39,0,0,1-.09,3.74,2.18,2.18,0,0,1-.64,1.07c1.49.12,3.72-.21,4,.42.76,1.51.63,3.48.89,5.58,3.28,1.15,2,3.8.82,6.52l2.63.69c1.31-1.42,2.22-2.87,3.54-3.71a6.79,6.79,0,0,0,3-3.39c.38-.92,1.75-1.51,2.78-2,1.22-.64,2.55-1.07,3.84-1.59l-.08-.82a29.55,29.55,0,0,0-5.25-3c-.69-.23-1.9,1.09-2.88,1.7l-.59-.25c.66-2.37,1.16-4.79,2-7.09.49-1.29,1.41-2.33,3.32-1.77a3.6,3.6,0,0,0,4.2-1.35c.55-.75,1.61-1.1,2.39-1.7,2-1.56,5.94.15,6.63-3.79,0-.12.45-.25.67-.23,2.14.28,3.64-1.27,5.39-1.8,2.08-.63,1.36-1.48,1.44-2.7l-4.36,1.94-.67-3.67-3.81-.06.57,4.63-8.13-2.14c-.29,1.79,0,4.12-3.09,2.81-1.21,2-2.93,1.69-4.73.77.06,2.81.22,2.9,3.65,1.91-.19,1.23-.35,2.2-.58,3.66l-2.29-1.92a16.14,16.14,0,0,0-1.15,2.72A2.09,2.09,0,0,1,87,195.42c-2.69-2-2.84-3.88-.49-6.63L87.89,190c1.66-2.34,1.83-5.93,6-5.76q.05-3.53.1-7a4.88,4.88,0,0,0-1.78,2.89c-.26,2.92-.16,2.94-3,2-.22,1.26-.44,2.52-.69,4-3.54-2.23-3.77-5.8-5.11-8.93-.29,1.45,0,2.84-.12,4.17s.26,3.41-2,3.32c-.53-1.89-1.05-3.57-1.47-5.29a5.54,5.54,0,0,1-.23-2.64,24.87,24.87,0,0,1,1.78-3.73c1.42.15,1.76-1,2-2.58.08-.52.78-1,1.23-1.41s1-.83,1.47-1.28c1.31-1.26,2.56-2.58,3.94-3.76.14-.12,1.23.42,1.34.8a9.64,9.64,0,0,1-.2,2.75,43.43,43.43,0,0,1,4.31-4.59,2.76,2.76,0,0,1,2.65.23,15.94,15.94,0,0,1,2.35,3.34c.49-1.21.59-2.48,1.18-2.77,2-1,1.85-2.54,1.53-4.27L97.05,157l1.52-4.32-2,.26c-1.1,2.35-1.92,4.34-3,6.17-.19.33-1.53.27-2.18,0A5.3,5.3,0,0,1,88,155.22c-.6-2.06-2.1-4.27-5-4.26-.19,1.42-.39,2.95-.6,4.61-3.32-1.77-3.34-1.95-1.34-5.71a9.06,9.06,0,0,0-1.58-2.22,4.25,4.25,0,0,0-2.45-.74,10.73,10.73,0,0,0-2.68.8c0-1.33.27-2.17,0-2.75a3.8,3.8,0,0,1,.46-4.21c1-1.43.58-2.59-.43-4a4.58,4.58,0,0,1-.42-3.66c.39-1.12,1.79-1.83,2.55-2.87a31.91,31.91,0,0,0,1.94-3.48L75,125.3c.47-.73,1.08-1.6,1.61-2.51a3.54,3.54,0,0,1,5.17-1.15A13.47,13.47,0,0,0,84,122.69c.17-1.65-.09-3.31.49-3.68.75-.49,2.27-.22,3.27.19,2.39,1,4.51-.38,4.42-3.24l-4.84.83c-.13-.55-.27-1.18-.36-1.56l-7-1.71-.84,3.3-5.9-6.92.6,4.68c-2.79-.36-4.35-4.25-2.79-6.61.94-.52,2.13-1.25,2.15-2,.06-2.24.49-3.93,2.56-4-.15-1.55-.22-2.82-.43-4.07a17.45,17.45,0,0,0-.76-2.4l-.73.25c.15.77.31,1.54.35,1.76-1.87,1.39-3.48,2.54-5,3.76a2.49,2.49,0,0,1-3.91-1.18c-.91-2.53,1.31-3.39,2.75-5.13l-4.32-1.85L66.91,88l-3.09,0c-.17-4,3.09-3.49,5.57-4l-.15-1-3.58-.52.87-1.52c.91-1.6,1.56-3.46,2.79-4.77,2.05-2.16,3.22.74,4.83,1.25.7.22,1.42.36,2.26.57.75-2.37,2.3-3,4.21-1.61,2.19,1.58,4.72,3.1,6.11,5.28,1.82,2.85,4.52,4,7.16,5.77,1-2.53,3.35-4.45,1.13-7.28-.27-.35.56-2.27,1.06-2.35a4.63,4.63,0,0,1,3,.89c.57.4.69,1.44,1.18,2.58a25.23,25.23,0,0,1,1.55-2.41c.47-.57,1.17-1.48,1.64-1.41a3.21,3.21,0,0,1,2,1.47,6.58,6.58,0,0,1,.6,2.91c.06,2,0,4.05-.07,6.24,2.56-.27,4.61-.85,5.12,2,0,.27,1.26.49,1.93.45s1-.58,1.57-.74c3.51-1,3.51-1,3-4.58-.22-1.64,1.62-3.7,3-3.24,2.34.79,4.64,1.71,7.35,2.73a17.2,17.2,0,0,1-.09-2.94,33,33,0,0,1,.85-3.5,13.12,13.12,0,0,1,2.36,1.95c1,1.35,1.81,2.86,3,4.8l3-5.83c-.41-.24-.56-.4-.68-.38-2.83.51-5.17.34-5.39-3.4,0-.45-.92-.86-1.42-1.27l-2.17-1.75c1.84-2.4,1.53-4.17-1.11-7a18,18,0,0,1,.27,2.1c0,1.28-.6,1.85-1.95,1.5-1-.26-2.06-.31-3-.63-.41-.13-.68-.72-1.23-1.35,2-.38,4.11-.21,4.13-3.18l-3.17-.33a8.3,8.3,0,0,0-3-2.18c-1.18-.54-2.12-1-1.42-2.61,1.44-3.19,1.32-3.4-2.07-4.7l.76,7.17-.82.33-5.23-2.83a18.88,18.88,0,0,1-.21,2.48c-.12.59-.4,1.4-.84,1.6a1.83,1.83,0,0,1-1.73-.4c-1.43-2.26-3-1.22-4.8-.52l.76,4.06c-1.93-1-3.52-1.41-4.64-2.39a29.15,29.15,0,0,1-3.42-4.27l-.77.41,1.73,6.57-5.92.65A10.42,10.42,0,0,0,90,65.13c0-1.9,1.15-4.37-2.27-4.76-.23,0-.53-1.63-.36-2.4s.89-1.27,1.46-2L86.56,55c.5-1.58.32-3.59,3-2.51.35.14,1.51-.57,1.55-1,.27-2.45,1.66-2.82,3.63-2.05,1-3.46,1-3.46-.13-8.26a1,1,0,0,1,0-.5c.95-2.67.13-6.19,3.72-7.61.46-.19.65-1,1.06-1.38a2.52,2.52,0,0,1,1.23-.63c1.24-.22,2.49-.34,3.73-.49l-.1.27,2.28.31c-.23-3-.43-5.7-.64-8.35h-.61l-.82,3a14.51,14.51,0,0,1-3.62-1.24c-2.16-1.47-5-2.67-3.93-6.23.07-.23-.33-.58-.44-.89-.86-2.6.19-4.9,2.54-5.59-.51-2.15-2.38-4.35.25-6.39,1.94-1.5,4-2,6.28-.76a16.31,16.31,0,0,1,.55-3.2,40.2,40.2,0,0,1,2-3.84l3.06,3c.56.1,1.3.27,2,.35s1.5.33,1.78,0c1.38-1.47,2.45,0,3.17.53.89.68,1.25,2,1.85,3.12l-3.1,1.55,1,2.61c3-1.6,2.94-1.55,4.43,1.54a15,15,0,0,0,2.5,2.95c.47-.28.68-.42.9-.53l2.62-1.41a29.9,29.9,0,0,1,.74,3.44,17.65,17.65,0,0,1-.14,3c-.12,1.8,1.3,3.38,2.8,3a14.4,14.4,0,0,0,2.3-1c.75-.34,1.89-.54,2.11-1.1s-.46-1.5-.84-2.52c-1.89,1.79-2.63,1.05-3-.69a4.79,4.79,0,0,0-.83-2.33c-1.61-1.5-1.69-2.9-.39-4.61a1.55,1.55,0,0,0-.22-1.51c-2.25-1.68-1.36-3.27.14-4.91-2.56-3,.86-3.37,2.09-4.85-2.28-1.61-1.07-3.54-.24-5.25.28-.58,1.5-.71,2.64-1.19.66-2.74,1-3,3-2,1.17-.66,2.23-1.77,3.05-1.62a24.92,24.92,0,0,1,4.82,1.77c1.41-1.27,2.4-2.77,3.71-3.15s1.82-.82,2.11-2a6.56,6.56,0,0,1,1-1.55l2.1,3,1.53-2.52.71,0q.44,1.92.87,3.83c2.78-1.46,3.13-1.32,5.76,2.47l3.48-1.5c-.66-1.86-.12-4.77,1-5.65a4.86,4.86,0,0,1,1.62-.48l.94,2.12c3-1.16,3.78-.87,5.53,2.23l2.34-3.13c2.5-.74,3.58.24,3,3,.53-.32,1.06-.78,1.18-.7,2.17,1.59,2.49-.07,2.56-1.56.11-2.28,1.4-2.76,3.32-2.7,1.17,0,2.53.26,3.49-.21,1.8-.89,2.63-.21,3.2,1.36,1.32-.76,1.32-.76,6,1.65l1.91-1.05,1,2.57c2.33-1.07,3.41.56,3.82,2.2.37,1.47-.1,3.16-.21,4.86l-2.91,0c.44,1.64.82,3,1.19,4.4l.52-.05c.07-1,.15-2,.22-3.07l2,.34c.07-.93.13-1.66.18-2.38,3.56-.85,3.76-1.09,4-4.45,0-.5.08-1.19.4-1.43a40.85,40.85,0,0,1,5-3.36c1-.53,2.25-.45,3.32-.84a4.16,4.16,0,0,1,5.89,3.51,13.76,13.76,0,0,0,.36,1.52,30.27,30.27,0,0,0,3.68.35c1.57,0,3.13-.41,4.7-.43,2.94,0,4.1,2.73,6.12,4.15a2.8,2.8,0,0,1,.63,2.68,4,4,0,0,1-2.79,1.42,31.5,31.5,0,0,1-5-.43q.29,3,.59,6L236-.05l2,3.36,2.42.39,2.25-4.81C243.92,2,245.23,1.12,246,.4l4.37,1.89L250.86.2C252,.9,253,1.88,254.1,2c3,.45,4.32,1.92,3.76,5.15,1,.15,2.11,0,2.81.53a17,17,0,0,1,3,3.26s-.88.85-1.64,1.57l3.36.44.83,2.26c3.21-.71,2.32,1.88,3.13,3.55L264.6,19q0,1.33,0,2.69c4.42-.35,8.38,3.4,8.64,8.1a5.08,5.08,0,0,1-.06,2c-.19.51-.81.85-1.25,1.26a5.47,5.47,0,0,1-1.15-1.41,10.45,10.45,0,0,1-.27-2.36c-3.74.61-.43,3.62-2.61,5.22l-2.77-2.3L264,33.94l-2.15-3c-.36,3.82,3.54,7.19,1.16,11.21-3.31.29-2.5-3-3.55-4.34l-3.91,2.61c-1.59-1.24.38-4.39-2.88-3.82-1,1.76-1.31,3.3.46,4.85.67.58.78,1.8,1.16,2.72.8,1.93,1.61,3.86,2.49,5.94.52-5.15,2-6.24,6.78-6.24a2.82,2.82,0,0,0,1.65-.75c1.14-1,4.83-1.11,5.86-.14a18,18,0,0,0,2,1.48c.4-.76.82-1.51,1.2-2.28.21-.41.35-.85.69-1.69,1,1.34,1.65,3.07,2.52,3.2,2,.29,2.05,1.69,2.61,2.94a4.85,4.85,0,0,0,1.18,1.79c3.38,2.76,3.38,3.8-.18,6.44a18.51,18.51,0,0,0,5.64.74c2.72-.21,5.41,1.28,5.87,3.88a23.54,23.54,0,0,1,0,4.07c3.83,2.87,3.84,2.88,3.71,7.6a34.48,34.48,0,0,1-3.27-1.6,2.9,2.9,0,0,0-4,.68c-.8,1.05.34,1.9,1.42,2.62a3.06,3.06,0,0,1,1.09,2.45c-.09.78-1,1.46-1.65,2.2.95.67,1.85,1.22,2.66,1.89,1.12.91,2.09,2.56,3.27,2.71,2.85.35,2.51,2.43,2.9,4.17a4.32,4.32,0,0,1-.13,1.5c-.94.22-1.78.35-2.57.61a22.8,22.8,0,0,0-2.11.89l-1.83-3.07-.86.36c.5,1.7.59,3.73,1.61,5,1.52,1.95.72,3.39-.2,4.94a13.91,13.91,0,0,1-2,2.18c-2-1.07-1.68-2.46-1.26-4,.19-.69.15-1.94-.25-2.18a5,5,0,0,0-2.51-.16,17.69,17.69,0,0,0-2.12.39c2,1.18,3.9,2.26,2.22,4.18-.74.84-2.47.82-3.75,1.19l1.3,3.53-2.14.88.8,3.91-6-1-1.13-3.73-.47.58L272,100.78l1.4,3.75-2.42-.25c-.31,1.06-.59,2-.92,3.14l1.75,1.17c2.53-2.69,3.6-2.07,5.51,3.05a13.78,13.78,0,0,0,3.8-.21c1.82-.62,3.14-.19,4,1.34,1.19,2.06,2.63,3.4,5.3,2.79.14-.78.29-1.62.48-2.71l2.41,1.65-1.17,1.44c1.32,1,3,1.72,3.62,3s.53,3.22.77,5.11c-2.75-1.45-3.51.9-4.12,2.31s-.08,3.09-.06,4.91c1.33-.36,1.92-.46,2.46-.67s1-.58,1.53-.85a3.67,3.67,0,0,1,4.35,1.43,9.45,9.45,0,0,1-2,10c3.37,3.08,2.55,6.86,1.57,10.91l-7-.1.79,3c2.11.22,3.77.81,3.81,3.23,0,1.4.38,3-2.16,2.67l1.45,4.39c3-2.27,2.92-2.2,5.47-.5.43.29,1.44-.38,2.19-.41s2.15-.21,2.58.28c1.33,1.48.91,4.67-.58,6.38l-1.59-1.4.6.89c-1,.57-2.33.92-2.88,1.77s-.25,2.19-.28,2.67c2,.16,3.66-.12,4.8.49a10.62,10.62,0,0,1,3.56,3.49c.81,1.22-1,3-2.55,2.7a4.26,4.26,0,0,1-1-.38c-.39,2-.65,3.83-1.14,5.62-.59,2.16-2,3.58-4.8,4.39a26.08,26.08,0,0,1,1.06-4c.7-1.57.63-2.56-1.27-2.9a2.64,2.64,0,0,1-2.44-3.12,7.57,7.57,0,0,0-.43-1.94c-1.43,1.16-2.46,2.63-3.71,2.84s-2.57-.94-4-1.56l-1.1,6.91L286.09,184l-4.23,1.92-.68-.74a16.1,16.1,0,0,0,.94-3.47,4.65,4.65,0,0,0-.88-2.67,16.16,16.16,0,0,0-2.2-1.9c-.56-.54-1-1.21-1.91-2.31l-.06,4-2-3.33-.62.1-.51,2.71-3.76-.06.73,2.58c1.51.32,3,.18,3.56.84a35.12,35.12,0,0,1,3.24,5.39c.07.13-.27.43-.31.66a12.79,12.79,0,0,0-.36,3.58c.29,1.76.17,3-2.29,3l2.15,4.37c3.63-1.82,4.26-1.48,4.7,1.88.16,1.27.61,2.67,2.29,2.09l0-2.93c1.08,1,1.59,1.82,2.26,2,3.3.82,5,2.7,4.38,6.18-.14.81-.28,2-.8,2.29a18.18,18.18,0,0,1-4,1c-2.76,2.16-5.1,5.5-10.1,4.42a5.79,5.79,0,0,0,1.69,1.95c1.15.95,2.39,1.8,3.44,2.85a17,17,0,0,1,2.15,2.91,5.93,5.93,0,0,1,1.25,2.55c.09,3.44,0,6.87,1.91,9.95l3.14-1.38-.73-2a11.67,11.67,0,0,1,2.91-.26c.83.15,1.59,1,2.36,1a3.67,3.67,0,0,0,2-1.33,9.32,9.32,0,0,0,1-2.45c1,1.7,1.78,2.75,2.38,3.88,1.71,3.24,2.08,3.36,5.39,1.19,1.29,2.16,3.07,4.17,3.73,6.5s.94,5.3-2.69,6.21a14.13,14.13,0,0,0,.5,1.35c2.23,4.51,2.24,4.51-1.36,8.3-.75.8-1.83,1.39-2.31,2.31a2.25,2.25,0,0,1-3.55.8c-.94-.91-1.82-1.88-2.4-2.48a16.79,16.79,0,0,1-3.41,2.35c-.3.12-1.2-1.31-2-2.26-2.63.75-2.17-2.35-3.46-3.88a5.74,5.74,0,0,0-.8,1.49c-.5,3.51-.92,7-1.4,10.56-.26,1.91-.57,3.83-.92,5.73,0,.2-.49.32-.76.47l-2.23,1.28c-.45,2.85-.83,5.23-1.21,7.65a14.43,14.43,0,0,0,2.47-.44c2.74-.94,4.21-.31,5.29,2.22.2.46.89.71,1.37,1a7.12,7.12,0,0,1,1.59,1.1c.94,1.19.45,6.64-.63,7.68a3,3,0,0,1-.91.38l-2.09.89L285.22,292c-.37.33-.61.56-.87.77-2.37,1.93-3.09,1.6-5.08-.66-1.37-1.54-2.8-2.81-2.93-5,0-.26-.77-.49-1.23-.75l-.72,4.18-2.18-.65c1,2.47-.69,3-2.34,3.73,0,2.47-.07,4.92-.11,7.44L266,303.95c-.25-1.63-1-3.23-.56-4.23,1-2.18,1-3.93-.49-5.8l-2.21,1.2c.48,2.11.91,4,1.44,6.36l-4.78-.9c0,2.25-.07,4.47-.1,6.83l2.12-.8c-.25-1.26-.45-2.31-.79-4,1.62.22,3.23,0,4.06.66,1.81,1.5,1.53,4.83-.58,5.76-1.82.8-2.19,1.9-2,3.94-1.2-.44-2.32-.54-2.91-1.15s-.87-1.85-1.41-3.14l-.79,3.61-.67.27-6.24-8.79-.73.34a20.51,20.51,0,0,1,.6,3.81,10.18,10.18,0,0,1-.85,3.92c-.13.29-1.73-.08-2.82-.17l.45,1.8c.38,1.56-.74,2.07-1.75,1.75a9.43,9.43,0,0,0-6.86.6c-1.92.82-3,.08-3.19-2,0-.47-.14-.93-.16-1l-3.2-1.28-4.48,1.83-.59-.43,3.45-6.38c-.11-.91-.23-2-.41-3.51l-4,.74c-.05-.95-.1-1.69-.17-2.92-2.13,2-1.61-.63-2.9-1.4a26.48,26.48,0,0,0,.7,3.26c.78,2.13-.21,3.27-2,4.11-1.23.57-2.4,1.26-3.47,1.83L214,305.56l-3.68,3.15-.39-.44c0,.71-.1,1.43-.13,1.76a37.18,37.18,0,0,1-6.14.54c-1.39-.1-3.41.38-3.87-2-.22-1.17-1-1.55-1.79-.28h0l-3.36-.71,2.84-5.46-4.45-.81-.25-1.06c-1.48.91-3,1.79-4.42,2.75-.38.25-.94.79-.88,1.08,1,4.19-1.23,8.31-.06,12.6a10.89,10.89,0,0,1-.45,7.94,19,19,0,0,0-1.37,7.28c-.29,5.76-.19,11.55-.46,17.32-.32,6.66-.47,13.25,2.26,19.55a15.61,15.61,0,0,1,.64,2.91c-3.42-.41-7,.68-9.13-3.13-1,2-2.07,3-3.94,1.44-.23-.19-.86.12-1.3.16-.79.07-1.59.16-2.38.15s-1.81-.1-2.92-.18c-.15-2.32-.33-5.12-.51-7.93l-.34,0q-.39,2.77-.79,5.55l-.89-.1c-.14-.86-.29-1.71-.43-2.57l0,.06c0-1.22.07-2.44.07-3.66,0-3.16-.12-6.33,0-9.5.28-6.72,3-13.16,2.35-20a11.5,11.5,0,0,1,.38-5.43c1.06-2.47-.77-5.38,1.41-7.54.07-.07-.2-.45-.23-.69-.11-1.24-.26-2.49-.29-3.74-.09-3.73-.14-7.46-.2-10.71l-4.16.86c0-1.44,0-2.37,0-3.31l-.54-.13-1.62,4.52c.63,1.61,1.23,2.9,1.6,4.25a2.07,2.07,0,0,1-.47,1.72,1.65,1.65,0,0,1-1.58-.13c-.41-.36-.83-1.27-.65-1.64,1.48-3-.49-4.11-2.63-5.19l-1.32-2.29a15.42,15.42,0,0,1-1.75.1c-.9,0-3.71-2.81-3.36-3.41.75-1.27,1-3.43,3.43-2.56,1,.37,2.1.55,3.24.83,0-.68,0-1.46,0-2-1-.37-2.32-.7-2.3-.92a15.21,15.21,0,0,1,.85-3.18l2.69.81c2.08-3.86,1.61-5.17-2.5-5.42.6-.84.94-1.82,1.42-1.89,2.07-.33,1.47-1.5,1.25-2.57-2.44-.61-2.86,1.27-3.68,2.62-1,1.71-2,1.7-3,.1a9.68,9.68,0,0,0-1.85-1.71c-1.24,1.93-4.66,3-5.13,1.8s.25-2.55.52-4.39l-3.22-.87A45.63,45.63,0,0,0,139.09,277.25ZM272.78,261c-.94-1.35-1.71-2.82-2.62-4.34l-1.31,2.74c.69,2.36,1.64,5.61,2.59,8.87,2.58-.56,3.82-1.87,3.86-4.34.91,0,1.83,0,2.74.09,2.06.15,2.36-1,2-3.14L275.38,264A34.83,34.83,0,0,1,272.78,261ZM251.54,100.32c2.12-2.17,3.81-2.66,5,.92.08.26,2.15-.12,3.34-.5,2.36.52,1.12,2.36,1,3.16a33.33,33.33,0,0,0,5,2.76c1,.35,2.27-.12,3.41-.22l.12-.74L265,104.45c-.06-1.21-.14-2.76-.23-4.5l-1.75.71c-.16-.42-.42-.75-.35-1,.82-3-1.6-3.58-3.36-4.65-.2-.12-.51-.12-.64-.28-.66-.89-1.33-2.62-1.89-2.57a50.77,50.77,0,0,0-6.82,1.31l.91,6.8c-.36.14-.78.49-1.06.39-1.5-.48-3-1.06-4.61-1.68.53,2.88,1,5.28,1.41,7.68l.67.14c.83-2.4,5.26-2.57,3.59-6.52C251.06,100.29,251.43,100.43,251.54,100.32Zm-2.81,68.75a19.87,19.87,0,0,0-2.12,2.92,28.24,28.24,0,0,0-1.64,4.57c-.09.33.41,1.19.66,1.2a52.76,52.76,0,0,0,5.64-.06,13.8,13.8,0,0,0,3.32-.66,3.52,3.52,0,0,0,1.65-1.19c.74-1,1.3-2.11,2-3.25l2.35.7,1-2-3.45-1.94-.43,1.74-.47,0c-.15-1.61-.29-3.23-.45-5l-3-.74-1.25,6.23ZM138,175.38a4.18,4.18,0,0,1,3.15-4.46c2.41-.78,2.36-2.76,2.29-4.72a1.43,1.43,0,0,0-.65-1c-1-.61-2.12-1.11-3.3-1.71-.13,1-.29,2.23-.47,3.62l-1.94-.5c-1.21,2.08-2.37,4.06-3.51,6-.12.21-.29.5-.23.68.46,1.44.8,3-.83,3.75-1,.46-2.45.12-3.69.15-.56,0-1.12.06-2.31.13.77,1.71,1.1,4,2.24,4.54a4,4,0,0,0,5.09-1.31c.4-.57,2.06-.24,3.58-.36A35.31,35.31,0,0,0,138,175.38ZM252,259.07c-.62.21-.72,2.3-.82,3.55-.05.66.41,1.37.83,2.62l-2.31-1.83,3.4,14.88.64,0c.77-3.66-3-9.44,4.43-9.92,1.21-2.57-2-5.63.74-8.31l-4.81,2.85c-.39-4.4.69-9.35-4.44-11.61L246.79,259l.52.16,5.43-3.68C253.11,257.15,254.19,258.31,252,259.07Zm-120.75-107-2.14-4c-.09,1.51-.15,2.47-.21,3.43l-3,.86,1.41,3.44c3.82-1.15,4.59-.52,4.66,3.76,4.15,1.7,4.53,1.54,6.26-2.58l1.92,0c-2.06-4.48-2.06-4.48-.35-7.92C138.39,148.48,132.22,150.6,131.21,152.09Zm1.88-92.67c-.78,1.28-3,1.67-5,2.63-.05,2.13,4.65,3.39,2,6.18l5.29-4.54,3.37,3.23,3.45-3.5.93.3c-.32-1.52-.13-3.64-1.06-4.45-2.4-2.08-2.48,2.22-4.66,2.06-2.13-2,.37-6.59-3.66-7.46C133.6,55.65,134,57.92,133.09,59.42Zm20-25.27,1.27-2,2.19.67c3.9-4.18-1-4.89-3-7.38-.2,2-.35,3.58-.51,5.17l-6.62-3.21c-2.57,3.41.76,4.92,2.43,7l.34-.65ZM143,95.22c0,3-.38,5.87,0,8.66.2,1.5,1.62,2.84,2.68,4.55.44-2.78-1-6.16,2.71-7.21.86-.24,1.92.22,3.09.4l-1.21-4.9c-3.81,1.74-4.37,1.54-5.55-1.7Zm7.24,144h.62l-4,3c3.38.22,6.12.42,8.87.53.31,0,.74-.41.95-.74,1-1.54,1.86-3.12,3.07-5.17a52,52,0,0,1-5,2.65c-.83.33-2.78-2.92-2-3.71,2.56-2.71.23-3.09-2.35-4.13ZM144.09,16c-2.36,2.78-4.32,3.39-6.72,2.46L140,26.29a9.5,9.5,0,0,1,.44-2.67,3.71,3.71,0,0,1,1.74-1.69,49.12,49.12,0,0,1,6.36-2.16c.24-.06.85,1.28,1.28,2l1.24,2,2.11-1.92ZM178,173.75c.22.1,1.06-.51,1.15-.9s-.41-1.33-.63-1.32c-3.07.11-1.16-1.31-.63-2.13a5.78,5.78,0,0,1,1.48-1.13l-.94-1.09c-1.61.22-2.71.36-3.8.53s-2.09.38-3.57.66l-1.63-2c0,1.46,0,2.2-.05,3s.1,1.66-.25,1.89c-3.36,2.23-.32,3.93,0,5.83l.81.09c.12-.58.49-1.26.31-1.7-1.13-2.7-1-3,1.71-4.11.53-.22,1-.51,1.53-.78q0,.37,0,.73C175,172.15,176.45,173,178,173.75Zm12.95-88.84a12.17,12.17,0,0,0,2.19,3.92c.84,1.25,2,1.54,2.56-.1a22.89,22.89,0,0,0,.94-5.36c0-.38-.82-.87-1.29-1.27-1.49-1.26-3-2.49-4.81-4C189.28,80.55,190.5,82.77,190.94,84.91Zm74,92.63c4.14-.3,6.09-2.86,5.27-6.41a3.36,3.36,0,0,0-1.29-1.81c-1.25-.87-2.63-1.54-3.82-2.21C265,170.29,265,173.89,264.92,177.54Zm-66.38,4.76c.6,3.26-5.54,4-3.12,8.75a39.19,39.19,0,0,1,2.56-3.42,3,3,0,0,1,2-1c.5,0,1.39,1,1.34,1.39s-.91,1-1.43,1.49c-.16.15-.37.26-1,.73l2.88.56C204.23,186.46,202.06,184,198.54,182.3Zm-3.19-9.84c-.33-.07-.54,0-.64-.14-.7-.69-1.38-1.4-2.06-2.1a13.85,13.85,0,0,0-1.17,3.08,44.43,44.43,0,0,0-.12,5,3.84,3.84,0,0,0,4.4-2.51c.69-1.53,3.23-2.77,1-5.16Zm48.95,98.37c2.6-1.17,3.87-.36,4.17,2.06,2.84-3.47.78-7.43-4.87-9.14C243.83,266.12,244,268.3,244.3,270.83Zm-11.34-5a46.32,46.32,0,0,0,4.39,5.1c.1.11,1.49-.6,1.47-.83a23.2,23.2,0,0,0-1-5.6c-.37-1-1.07-3-3-1.27-.31.28-1.09,0-1.82,0C232.92,264.12,232.55,265.23,233,265.81Zm-5.1-8.34c-.44-.38-1.94.51-3.06.84l-.43-1-.78,0c-.07,1-.55,2.35-.09,3a4.39,4.39,0,0,0,2.91,1.54,20,20,0,0,0,4.47-.51A20.34,20.34,0,0,0,227.86,257.47Zm22.55,24.08c-1.15-1.18-2.84-3.28-4.79-.89l3,7.42C249,285.41,253.1,284.34,250.4,281.55ZM202,224.41c4.73-4.28,4.73-4.28.3-7.94.13,1,.68,2.27.28,3-.48.91-1.76,1.4-2.84,2.17Zm35.32,56.44c1.71-2.41.5-5-.08-7.53a2.47,2.47,0,0,0-1.61,0,12,12,0,0,0-2.08,1.6C235.69,276.29,233.43,280.3,237.31,280.85Zm-8.7-77.44c-1.45,3.75-1.18,4.15,2,5.45a2.38,2.38,0,0,0,3.31-1.09c.3-.53-.21-1.92-.79-2.45-1.45-1.34-1.72-1.22-3.38.3Zm16.46-46.72c.34-.37.5-1.55.29-1.69a6.43,6.43,0,0,0-2.95-1.29c-.51,0-1.46,1-1.59,1.72a50.63,50.63,0,0,0-.44,5.84C242,159.7,243.61,158.26,245.07,156.7ZM141.31,114.35c.85.29,1.6.92,2.46,1.11.49.11,1.1-.35,1.65-.54a12.31,12.31,0,0,0-.6-1.59,15.69,15.69,0,0,0-1.08-1.54l-1.23.85-2.38-3.86C137.91,111.23,138.49,113.38,141.31,114.35Zm91.57,99.21c0-.67-.07-1.54-.12-2.66L229,212.66q.87,2.36,1.78,4.81c1.64-1.1,2.75-3.34,5.53-1.73C236.16,213.05,234,214.44,232.88,213.56ZM243.07,48.91c2.49-.6,3.79-2.88,3.56-6.06l-3-.48c-.08,1.14-.11,2.21-.27,3.25a7.8,7.8,0,0,1-1.6.1ZM149.84,159.73l2.9-6.35c-2.83-1.17-3.69,1.37-5.31,2.17Zm-9.29,51.7,4.21,1.5-1.24-5-1.45-.07ZM202,13.73l-3.62-.57,4.28,5.09.77-.13q-.18-3.42-.35-6.84l-1,.07C202,12.13,202,12.91,202,13.73ZM161,117.3a6.3,6.3,0,0,0,0-3.92c-.41-1-1.84-1-2.28.33a33.58,33.58,0,0,0-.7,4.77C159.45,118,160.88,117.82,161,117.3Zm65.4,54.56-.88.81L222.28,167c-1.45,3.73,1.52,5.18,1.65,8Zm55.12-99-2,.7c.14,1.68-.56,3.84,2,4.14.67.08,1.51-1.26,2.27-2l-.88-.37ZM239.42,41.23c1.67.09,1.88.08,1.42-2-2.63,2.86-4.66-2-7.37-.45l2.1,3.36C236.39,40.06,238.16,41.16,239.42,41.23ZM200.59,179.12c.73.58,2.51-.21,2.21,1.67,0,.2,1.18.73,1.86.84.22,0,.87-.84.81-1.22a5.12,5.12,0,0,0-.95-2.37,10.46,10.46,0,0,0-2.29-1.6Zm63.33-65.89c.72-.78,1.85-1.47,2-2.34.12-.58-1-1.69-1.84-2-.39-.17-1.3.86-2.37,1.62ZM119,113l-.82-.41c-.91,1-2.43,1.95-2.52,3-.07.8,1.7,1.76,3.25,3.21C119,116.39,119,114.7,119,113Zm34.7,35.8a7,7,0,0,0,4.6,7.72ZM200.5,28.1l.62-1.94a26.29,26.29,0,0,0-3.65-2.81c-.46-.24-1.44.51-2.68,1ZM191.81-3.28c-.64-.86-1.26-1.78-2-2.62a4.25,4.25,0,0,0-1.08-.7c-.19.35-.6,1-.54,1,2.14,1.76.42,3.78.61,5.85Zm-68,288.55.2-1c-.87-.4-1.85-1.27-2.58-1.1a23.21,23.21,0,0,0-4.38,1.95l.52.73Zm90.89,12.83c-.58,1.52,1.21,2,2.28,2.54a3.12,3.12,0,0,0,2.66-.59c.34-.26-.1-1.53-.13-1.87ZM136.26,35.48c-.5,1.68,2,3.34-.8,4.5.26.36.46.94.8,1,1.09.33,2.23.49,3.66.78Zm-28.09-3.63-4.24,4.43c1.67,1.74,2.08.75,2.71-.39a14.66,14.66,0,0,1,2.35-2.5ZM227.94,89.62l.74.3c.63-1,1.79-1.92,1.76-2.85s-1.27-1.78-2-2.66l-.46.5Q228,87.27,227.94,89.62Zm-113.38-65-3.75.63c0,.35-.09.7-.14,1l3.83,1.9ZM228.68,165.45c.11-.93.19-1.6.28-2.38l-.57.2-3.45-2C224.09,165.28,227.56,163.73,228.68,165.45ZM258.46,19.86l1.87,1.52L262,18.44l-1.31-1Zm-26.33,225c3.37-.6,3.5-1.17.89-4.91C232.66,242,232.41,243.36,232.13,244.89ZM150.81,85.2a39.14,39.14,0,0,0,4.69.61c0-.25,0-.5.08-.76l-5.11-1.91-.56.38C150.2,84.11,150.4,85.1,150.81,85.2ZM196.65,8.79c-.15-.32-1.13-.26-1.73-.38a9.36,9.36,0,0,0,.51,1.59c.6,1.13,1.28,2.23,1.93,3.34l.82-.22A42.11,42.11,0,0,0,196.65,8.79Zm39.74,39-.95.85,1.74,4.54L240,49.8l-.77-1.14-2.23.89ZM178.87,93.6,180,96.39c1.43-.47,3.24-.32,2.69-2.34Zm98.07-7.76-.39-.14-3.79,3.1,2.13,1.88Zm-35.62-65c0,.4.54.83.84,1.25.38-.3,1.1-.61,1.1-.91a33.56,33.56,0,0,0-.4-3.68l-.93.2A22.84,22.84,0,0,0,241.32,20.84Zm-9.38,148.88,4.43-1.87-4.57-1.46C231.84,167.51,231.88,168.4,231.94,169.72ZM271.8,57.78c-.73.89-1.59,1.54-1.49,1.9a14.22,14.22,0,0,0,1.56,2.84l1.2-.57C272.71,60.77,272.36,59.59,271.8,57.78ZM157.69,104.43l-.41-.28-1.59,1.7-1.22-.73c-.18.27-.36.48-.33.51.69.86,1.4,1.7,2.11,2.54l.91-.48C157.34,106.61,157.52,105.52,157.69,104.43Zm87.83,61.1,2.31-4.27C244.13,162.48,244.13,162.48,245.53,165.53ZM122.71,152l-1-2.36-2,7.28.27.14Zm155-79.59-4.09-2c0,.88,0,1.76,0,2.82Zm-135.57,17-2.8.89.47,3.76.61-.17Zm-35.08,26,3.84-2.77-.43-.47C109.28,113.1,106.46,111.81,107.1,115.4ZM136,103.08l-.92-.54c-2,.72-1.48,2.84-2.34,4.19l.75.43Zm81.13,103.14.7-.38-2.3-4.22C213.54,204.62,216.63,204.66,217.17,206.22ZM257.71,22.07l-1.56-2.29-1.88,4.34.53.53Zm33,148c.1,1.29.16,2.1.24,2.91s.2,1.63.33,2.69C293.25,173.81,293.22,173.47,290.7,170.12ZM172.39-1.77l1.36.8,1.56-2.93-1-.5Zm40.73,75.7-2.43-1.61-.47.65,3.93,3,.61-3.51-.42-.06ZM163.72,181.18l-.88.2,1.13,5,1.3-.37Zm-56.13-12.72c1.28-3.21-2.27-3.13-3.39-4.55ZM235.9,203.12l3.37-.21c0-1.75,0-1.75-2.76-2.17C236.31,201.49,236.12,202.26,235.9,203.12Z"/><path class="cls-2" d="M165.46,365.16l-1.15-5.69-.45,0a31.84,31.84,0,0,0-.31,5.39c.15,1.45-1.69,3.22.35,4.67.58-1.68,1-3,1.52-4.4Z"/><path class="cls-2" d="M151.38,291.5c1.47-.52,3.33-.86,2.62-3.06-.15-.46-2.29-.87-2.42-.66a15.9,15.9,0,0,0-1.2,3.44Z"/><path class="cls-2" d="M159,304.82l-1.32-2.29c-2.24.94-1.34,2.67-1,4.19.06.24,1.15.51,1.21.42A19.64,19.64,0,0,0,159,304.82Z"/><path class="cls-2" d="M84,187.56c1.59-1.35,2.39-2.59.3-4.13C82.35,184.65,83.18,186,84,187.56Z"/><path class="cls-2" d="M198,308.27l-2.13,4,3.18,0c-.39-1.47-.73-2.77-1.08-4.08Z"/><path class="cls-2" d="M252.51,171.6l-3.79-2.53a19.87,19.87,0,0,0-2.12,2.92,28.24,28.24,0,0,0-1.64,4.57c-.09.33.41,1.19.66,1.2a52.76,52.76,0,0,0,5.64-.06,13.8,13.8,0,0,0,3.32-.66,3.52,3.52,0,0,0,1.65-1.19c.74-1,1.3-2.11,2-3.25l2.35.7,1-2-3.45-1.94-.43,1.74-.47,0c-.15-1.61-.29-3.23-.45-5l-3-.74Z"/><path class="cls-2" d="M137.48,180.24a35.31,35.31,0,0,0,.56-4.86,4.18,4.18,0,0,1,3.15-4.46c2.41-.78,2.36-2.76,2.29-4.72a1.43,1.43,0,0,0-.65-1c-1-.61-2.12-1.11-3.3-1.71-.13,1-.29,2.23-.47,3.62l-1.94-.5c-1.21,2.08-2.37,4.06-3.51,6-.12.21-.29.5-.23.68.46,1.44.8,3-.83,3.75-1,.46-2.45.12-3.69.15-.56,0-1.12.06-2.31.13.77,1.71,1.1,4,2.24,4.54a4,4,0,0,0,5.09-1.31C134.3,180,136,180.36,137.48,180.24Z"/><path class="cls-2" d="M252.73,255.45c.37,1.7,1.46,2.86-.77,3.63-.62.21-.72,2.3-.82,3.55-.05.66.41,1.37.83,2.62l-2.31-1.83,3.4,14.88.64,0c.77-3.66-3-9.44,4.43-9.92,1.21-2.57-2-5.63.74-8.31l-4.81,2.85c-.39-4.4.69-9.35-4.44-11.61L246.79,259l.52.16Z"/><path class="cls-2" d="M250.82,100.27c.25,0,.61.16.72,0,2.12-2.17,3.81-2.66,5,.92.08.26,2.15-.12,3.34-.5,2.36.52,1.12,2.36,1,3.16a33.33,33.33,0,0,0,5,2.76c1,.35,2.27-.12,3.41-.22l.12-.74L265,104.45c-.06-1.21-.14-2.76-.23-4.5l-1.75.71c-.16-.42-.42-.75-.35-1,.82-3-1.6-3.58-3.36-4.65-.2-.12-.51-.12-.64-.28-.66-.89-1.33-2.62-1.89-2.57a50.77,50.77,0,0,0-6.82,1.31l.91,6.8Z"/><path class="cls-2" d="M139.71,149.08c-1.32-.6-7.49,1.52-8.5,3l-2.14-4c-.09,1.51-.15,2.47-.21,3.43l-3,.86,1.41,3.44c3.82-1.15,4.59-.52,4.66,3.76,4.15,1.7,4.53,1.54,6.26-2.58l1.92,0C138,152.52,138,152.52,139.71,149.08Z"/><path class="cls-2" d="M133.76,53.87c-.16,1.78.22,4.05-.68,5.55-.78,1.28-3,1.67-5,2.63-.05,2.13,4.65,3.39,2,6.18l5.29-4.54,3.37,3.23,3.45-3.5.93.3c-.32-1.52-.13-3.64-1.06-4.45-2.4-2.08-2.48,2.22-4.66,2.06C135.29,59.34,137.79,54.74,133.76,53.87Z"/><path class="cls-2" d="M149.23,33.65l3.87.5,1.27-2,2.19.67c3.9-4.18-1-4.89-3-7.38-.2,2-.35,3.58-.51,5.17l-6.62-3.21c-2.57,3.41.76,4.92,2.43,7Z"/><path class="cls-2" d="M144.7,95l-1.71.2c0,3-.38,5.87,0,8.66.2,1.5,1.62,2.84,2.68,4.55.44-2.78-1-6.16,2.71-7.21.86-.24,1.92.22,3.09.4l-1.21-4.9C146.44,98.47,145.88,98.27,144.7,95Z"/><path class="cls-2" d="M150.34,231.69l-.11,7.56h.62l-4,3c3.38.22,6.12.42,8.87.53.31,0,.74-.41.95-.74,1-1.54,1.86-3.12,3.07-5.17a52,52,0,0,1-5,2.65c-.83.33-2.78-2.92-2-3.71C155.25,233.11,152.92,232.73,150.34,231.69Z"/><path class="cls-2" d="M153.2,21.81,144.09,16c-2.36,2.78-4.32,3.39-6.72,2.46L140,26.29a9.5,9.5,0,0,1,.44-2.67,3.71,3.71,0,0,1,1.74-1.69,49.12,49.12,0,0,1,6.36-2.16c.24-.06.85,1.28,1.28,2l1.24,2Z"/><path class="cls-2" d="M173.48,171.32c1.49.83,3,1.71,4.51,2.43.22.1,1.06-.51,1.15-.9s-.41-1.33-.63-1.32c-3.07.11-1.16-1.31-.63-2.13a5.78,5.78,0,0,1,1.48-1.13l-.94-1.09c-1.61.22-2.71.36-3.8.53s-2.09.38-3.57.66l-1.63-2c0,1.46,0,2.2-.05,3s.1,1.66-.25,1.89c-3.36,2.23-.32,3.93,0,5.83l.81.09c.12-.58.49-1.26.31-1.7-1.13-2.7-1-3,1.71-4.11.53-.22,1-.51,1.53-.78Q173.49,171,173.48,171.32Z"/><path class="cls-2" d="M190.52,78.09c-1.25,2.46,0,4.68.42,6.82a12.17,12.17,0,0,0,2.19,3.92c.84,1.25,2,1.54,2.56-.1a22.89,22.89,0,0,0,.94-5.36c0-.38-.82-.87-1.29-1.27C193.85,80.84,192.35,79.61,190.52,78.09Z"/><path class="cls-2" d="M265.07,167.11c0,3.18-.1,6.78-.16,10.43,4.14-.3,6.09-2.86,5.27-6.41a3.36,3.36,0,0,0-1.29-1.81C267.65,168.46,266.26,167.78,265.07,167.11Z"/><path class="cls-2" d="M275.36,264a36.66,36.66,0,0,1-2.57-2.95c-.94-1.35-1.71-2.82-2.62-4.34l-1.31,2.74c.69,2.36,1.64,5.61,2.59,8.87,2.58-.56,3.82-1.87,3.86-4.34Z"/><path class="cls-2" d="M201.69,190.76c2.54-4.3.36-6.73-3.16-8.46.6,3.26-5.54,4-3.12,8.75a39.19,39.19,0,0,1,2.56-3.42,3,3,0,0,1,2-1c.5,0,1.39,1,1.34,1.39s-.91,1-1.43,1.49c-.16.15-.37.26-1,.73Z"/><path class="cls-2" d="M196.75,170.66l-1.41,1.8c-.33-.07-.54,0-.64-.14-.7-.69-1.38-1.4-2.06-2.1a13.85,13.85,0,0,0-1.17,3.08,44.43,44.43,0,0,0-.12,5,3.84,3.84,0,0,0,4.4-2.51C196.44,174.28,199,173,196.75,170.66Z"/><path class="cls-2" d="M243.6,263.74c.23,2.37.45,4.55.7,7.09,2.6-1.17,3.87-.36,4.17,2.06C251.31,269.42,249.25,265.46,243.6,263.74Z"/><path class="cls-2" d="M232.93,263.21c0,.9-.38,2,0,2.59a46.32,46.32,0,0,0,4.39,5.1c.1.11,1.49-.6,1.47-.83a23.2,23.2,0,0,0-1-5.6c-.37-1-1.07-3-3-1.27C234.43,263.48,233.65,263.22,232.93,263.21Z"/><path class="cls-2" d="M250.83,100.28c-.36.14-.78.49-1.06.39-1.5-.48-3-1.06-4.61-1.68.53,2.88,1,5.28,1.41,7.68l.67.14c.83-2.4,5.26-2.57,3.58-6.52Z"/><path class="cls-2" d="M230.86,261.38a20.34,20.34,0,0,0-3-3.92c-.44-.38-1.94.51-3.06.84l-.43-1-.78,0c-.07,1-.55,2.35-.09,3a4.39,4.39,0,0,0,2.91,1.54A20,20,0,0,0,230.86,261.38Z"/><path class="cls-2" d="M248.58,288.07c.46-2.66,4.52-3.73,1.82-6.53-1.15-1.18-2.84-3.28-4.79-.89Z"/><path class="cls-2" d="M199.74,221.64l2.25,2.76c4.73-4.28,4.73-4.28.3-7.94.13,1,.68,2.27.28,3C202.1,220.39,200.82,220.87,199.74,221.64Z"/><path class="cls-2" d="M233.54,274.91c2.15,1.38-.11,5.39,3.77,5.94,1.71-2.41.5-5-.08-7.53a2.47,2.47,0,0,0-1.61,0A12,12,0,0,0,233.54,274.91Z"/><path class="cls-2" d="M229.73,205.64l-1.11-2.22c-1.45,3.75-1.18,4.15,2,5.45a2.38,2.38,0,0,0,3.31-1.09c.3-.53-.21-1.92-.79-2.45C231.66,204,231.39,204.11,229.73,205.64Z"/><path class="cls-2" d="M240.39,161.28c1.64-1.58,3.23-3,4.68-4.59.34-.37.5-1.55.29-1.69a6.43,6.43,0,0,0-2.95-1.29c-.51,0-1.46,1-1.59,1.72A50.63,50.63,0,0,0,240.39,161.28Z"/><path class="cls-2" d="M140.13,108.77c-2.21,2.46-1.64,4.61,1.19,5.58.85.29,1.6.92,2.46,1.11.49.11,1.1-.35,1.65-.54a12.31,12.31,0,0,0-.6-1.59,15.69,15.69,0,0,0-1.08-1.54l-1.23.85Z"/><path class="cls-2" d="M236.32,215.74c-.17-2.69-2.33-1.3-3.44-2.18,0-.67-.07-1.54-.12-2.66L229,212.66q.87,2.36,1.78,4.81C232.43,216.37,233.54,214.13,236.32,215.74Z"/><path class="cls-2" d="M144.22,279.89a45.63,45.63,0,0,0-5.13-2.63c-.41-.15-1.83.92-1.83,1.42,0,1,.55,2.58,1.14,2.71,1.14.26,2.48-.27,3.7-.6a14.25,14.25,0,0,0,2.17-1Z"/><path class="cls-2" d="M241.74,45.71l1.34,3.2c2.49-.6,3.79-2.88,3.56-6.06l-3-.48c-.08,1.14-.11,2.21-.27,3.25A7.8,7.8,0,0,1,241.74,45.71Z"/><path class="cls-2" d="M147.43,155.55l2.41,4.18,2.9-6.35C149.9,152.22,149,154.75,147.43,155.55Z"/><path class="cls-2" d="M142.08,207.83l-1.53,3.59,4.21,1.5-1.24-5Z"/><path class="cls-2" d="M202,11.35c0,.78,0,1.55,0,2.38l-3.62-.57,4.28,5.09.77-.13q-.18-3.42-.35-6.84Z"/><path class="cls-2" d="M158,118.49c1.43-.53,2.86-.67,3-1.19a6.3,6.3,0,0,0,0-3.92c-.41-1-1.84-1-2.28.33A33.58,33.58,0,0,0,158,118.49Z"/><path class="cls-2" d="M223.92,175l2.51-3.1-.88.81L222.28,167C220.82,170.73,223.8,172.18,223.92,175Z"/><path class="cls-2" d="M282.92,75.34l-1.37-2.52-2,.7c.14,1.68-.56,3.84,2,4.14.67.08,1.51-1.26,2.27-2Z"/><path class="cls-2" d="M235.56,42.1c.83-2,2.59-.95,3.86-.87,1.67.09,1.88.08,1.42-2-2.63,2.86-4.66-2-7.37-.45Z"/><path class="cls-2" d="M202.23,176.44l-1.65,2.68c.73.58,2.51-.21,2.21,1.67,0,.2,1.18.73,1.86.84.22,0,.87-.84.81-1.22a5.12,5.12,0,0,0-.95-2.37A10.46,10.46,0,0,0,202.23,176.44Z"/><path class="cls-2" d="M261.73,110.46l2.18,2.78c.72-.78,1.85-1.47,2-2.34.12-.58-1-1.69-1.84-2C263.71,108.67,262.79,109.7,261.73,110.46Z"/><path class="cls-2" d="M118.94,118.83c0-2.44.06-4.13.09-5.82l-.82-.41c-.91,1-2.43,1.95-2.52,3C115.62,116.42,117.39,117.38,118.94,118.83Z"/><path class="cls-2" d="M158.33,156.53l-4.6-7.72A7,7,0,0,0,158.33,156.53Z"/><path class="cls-2" d="M194.79,24.36l5.71,3.75.62-1.94a26.29,26.29,0,0,0-3.65-2.81C197,23.11,196,23.87,194.79,24.36Z"/><path class="cls-2" d="M188.84.27l3-3.56c-.64-.86-1.26-1.78-2-2.62a4.25,4.25,0,0,0-1.08-.7c-.19.35-.6,1-.54,1C190.37-3.81,188.65-1.79,188.84.27Z"/><path class="cls-2" d="M117.57,285.85l6.23-.59.2-1c-.87-.4-1.85-1.27-2.58-1.1a23.21,23.21,0,0,0-4.38,1.95Z"/><path class="cls-2" d="M219.5,298.16l-4.8-.07c-.58,1.52,1.21,2,2.28,2.54a3.12,3.12,0,0,0,2.66-.59C220,299.77,219.53,298.5,219.5,298.16Z"/><path class="cls-2" d="M139.91,41.8l-3.65-6.33c-.5,1.68,2,3.34-.8,4.5.26.36.46.94.8,1C137.34,41.36,138.49,41.51,139.91,41.8Z"/><path class="cls-2" d="M109,33.38l-.82-1.53-4.24,4.43c1.67,1.74,2.08.75,2.71-.39A14.66,14.66,0,0,1,109,33.38Z"/><path class="cls-2" d="M228,84.91q0,2.35-.07,4.71l.74.3c.63-1,1.79-1.92,1.76-2.85s-1.27-1.78-2-2.66Z"/><path class="cls-2" d="M114.51,28.16l.05-3.58-3.75.63c0,.35-.09.7-.14,1Z"/><path class="cls-2" d="M224.94,161.29c-.85,4,2.62,2.44,3.73,4.16.11-.93.19-1.6.28-2.38l-.57.2Z"/><path class="cls-2" d="M260.64,17.47l-2.18,2.4,1.87,1.52L262,18.44Z"/><path class="cls-2" d="M233,240c-.36,2-.61,3.39-.89,4.91C235.51,244.29,235.63,243.72,233,240Z"/><path class="cls-2" d="M149.9,83.52c.29.59.5,1.58.91,1.68a39.14,39.14,0,0,0,4.69.61c0-.25,0-.5.08-.76l-5.11-1.91Z"/><path class="cls-2" d="M198.19,13.13a42.11,42.11,0,0,0-1.53-4.34c-.15-.32-1.13-.26-1.73-.38a9.36,9.36,0,0,0,.51,1.59c.6,1.13,1.28,2.23,1.93,3.34Z"/><path class="cls-2" d="M237,49.54l-.65-1.8-.95.85,1.74,4.54L240,49.8l-.77-1.14Z"/><path class="cls-2" d="M182.69,94l-3.82-.44L180,96.39C181.43,95.91,183.25,96.07,182.69,94Z"/><path class="cls-2" d="M274.9,90.68l2-4.84-.39-.14-3.79,3.1Z"/><path class="cls-2" d="M241.93,17.7a22.84,22.84,0,0,0-.61,3.14c0,.4.54.83.84,1.25.38-.3,1.1-.61,1.1-.91a33.56,33.56,0,0,0-.4-3.68Z"/><path class="cls-2" d="M231.8,166.39c0,1.12.08,2,.14,3.33l4.43-1.87Z"/><path class="cls-2" d="M273.08,61.94c-.36-1.18-.72-2.35-1.28-4.17-.73.89-1.59,1.54-1.49,1.9a14.22,14.22,0,0,0,1.56,2.84Z"/><path class="cls-2" d="M157.17,107.7c.17-1.09.35-2.18.53-3.27l-.41-.28-1.59,1.7-1.22-.73c-.18.27-.36.48-.33.51.69.86,1.4,1.7,2.11,2.54Z"/><path class="cls-2" d="M275.31,264c.91,0,1.83,0,2.74.09,2.06.15,2.36-1,2-3.14L275.37,264Z"/><path class="cls-2" d="M247.84,161.25c-3.71,1.23-3.71,1.23-2.31,4.27Z"/><path class="cls-2" d="M120,157.1l2.75-5.06-1-2.36-2,7.28Z"/><path class="cls-2" d="M273.62,73.21l4.13-.77-4.09-2C273.65,71.28,273.63,72.16,273.62,73.21Z"/><path class="cls-2" d="M140.46,93.92l1.72-4.49-2.8.89.47,3.76Z"/><path class="cls-2" d="M110.52,112.16c-1.24.94-4.05-.35-3.41,3.25l3.84-2.77Z"/><path class="cls-2" d="M133.53,107.16l2.51-4.08-.92-.54c-2,.72-1.48,2.84-2.34,4.19Z"/><path class="cls-2" d="M215.57,201.61c-2,3,1.06,3,1.6,4.61l.7-.38Z"/><path class="cls-2" d="M254.8,24.65l2.91-2.58-1.56-2.29-1.88,4.34Z"/><path class="cls-2" d="M291.27,175.72c2-1.91,2-2.25-.56-5.6.1,1.29.16,2.1.24,2.91S291.14,174.66,291.27,175.72Z"/><path class="cls-2" d="M214.33,72.41l-1.21,1.52-2.43-1.61-.47.65,3.93,3,.61-3.51Z"/><path class="cls-2" d="M165.26,186l-1.55-4.8-.88.2,1.13,5Z"/><path class="cls-2" d="M104.2,163.91l3.39,4.55C108.87,165.25,105.32,165.33,104.2,163.91Z"/><path class="cls-2" d="M236.51,200.75c-.19.74-.38,1.51-.61,2.37l3.37-.21C239.28,201.16,239.28,201.16,236.51,200.75Z"/></g><path class="cls-1" d="M1260.44,287.16l1.14-.84,1.2-.23.65-.79.66-.67,1-.09,1.45-.14,1.44-.26,1.21-.11-.9-.52,3.48-1.79,5.11-2.56,1.63-.77L1280,278l.14-1.11,2-1,1.67-.4,1.5-.87,2.09-1.05,3.24-1.77,2-1,2.11-.81.35-1.37,1.14-.81,2.33-1.1,1.76-2,1.38-2.08,1.08-1.44,2-.68,2.9-1.49,2.25-1.92,2.54-1.46,1.53-1.85,1.26-2.07-.74-1.39-.91-1.86-.72-2.49.1-2.81-.23-2.41,0-2.8,2.07-2.51,2.08-1.17,2.83-1,2.65-.25,2.23.4,4.93,4.52,1,2,.22,2.29.24,2.53.15,1.57.14,1.45,1.62-.89,2.17-.21,2.05-.2,2.4-.35,1.19-1.57-.22-2.29-.25-2.65L1340,237l-.18-1.93-.08-.78c-.75.07-1.51.13-2.3.16l-3-1.67-1.64-1.91s-.42-4.43-.45-4.69c-.09-.94,1.79-2.84,2.39-3.42,2.91-2.82,6.46-3.07,10.16-4l-.27-1.56.93-1.79a17.94,17.94,0,0,1,2.87-4.29,32.9,32.9,0,0,1,4.36-7.79c1.84-2.21,5.69-2.62,8.31-3.39,1-.3,2-.69,2.95-1-.06,0-3.37-1.55-3.93-1.71l-1.11-.14,1-.59.92-.58.28-.88-2.38.59.17-.75,1.16-.6c.91-.47.65-3,1.45-3.91l.95-1.55-.37-2.64-.7-2.25-.06-3.16-.21-2.17.16-2.2c.15-2.17,3.1-3.93,4.61-5.19l4.22-.4c4.41.83,6.61,2.24,8.28,6.39l.88,2.84.25,2.65.2,2,.18,1.93s.16,1.67.16,1.69,2.56.53,2.9.72a24.67,24.67,0,0,1,3.47,2.13c0,.3-1.1.75-1.38.93l-.72.07c.85-.08,1,1.72,2.31,1.24-2.17.78-3.42.45-5.7.18l.95,1,1.14.5,1.57-.15,1.66.82.67.67,2,.42,1.26.49,1.4.6,1.74.57,1.55.7,1.19,1,.91,1.86.18,1.93.07.72.84-.08.09,1,.11,1.21.1,1.08,1-.09.07.72.14,1.45.08.84.72-.07.78.53.13,1.33.13,1.32.7.91.72-.07,1.22,1.35.11,1.2,1.07,1c1.16,1.08,1.94,2.17,3.44,2.84l.9.52.08.85.08.84.78.54.9.52,1.21,1.23.8.77.11,1.21,1.57-.15.92.76.82.89.07.73,1.21-.12c.58-.05,2.58,1.54,3.11,1.85a19.74,19.74,0,0,1,4.06,3,78.75,78.75,0,0,0,6.8,6.31l.86,1.38-.67,1.64s1.54,1.94,1.68,2.06c.79.64.8,1.23.89,2.2l-.51,1c0,.06.45.75.46,1,0,.47-.29.75-.48,1.15-.25.55-.33,1.43-.69,1.84a3.53,3.53,0,0,1-3.16.55c-.68-.42-.91-1.26-1.27-1.91a16.46,16.46,0,0,1-1.09-1.51l-.33-.94.34-1.49-3.15.18-1.89-.79a32.83,32.83,0,0,1-8-5l-.43-.69-2.07,0-.79-.65-.54-.56-.91-.64c-.35-.25-1-.12-1.38-.32-.59-.3-.54-.61-1.06-1.06-1.68-1.46-3.84-2.29-5.59-3.69l-1.35-1.45-1.2-1.1L1399,231l-.79-.65-.78-.53-.48-1.17-.84-2.23-1.4-2.18-.73-1.27-.8-.77-.79.68-.3,2-.33,1.61.15,1.57-.62,1.15.27,2.77-.74,1.17.6,1.16c1,1.95,2.13,3.83,3.11,5.79l0,2.32.52,4.21,1.57,5-.53.78,1.74,8-2.1.93.13,2.66-.41,3.32-.6,4-.75,3.6c-.9,4.29-1.53,8.62-2,13l-.33,3-.41,3.32-.23,2.7.09,2.18,0,1.46.09,1,.48,0v1.22s-.29.76-.14,1.11a10.16,10.16,0,0,1,.34,1.06l-.29.76.56.8.17,1.81.16,1.69,0,2.19-.46,1.51,0,1.46,0,3,0,1.58,1.33-.13,0,1.7-.55,4.43-.82,2.88.27,2.77-.67,3.11-.18,2-.85.08.35,1.06.23,1.19-.72.07.58.92.68.79.86,1.38,1.25,1.59,1,1.37.86,1.38.25,1.32-.5,1.14-.87,1.06-1.57.15-1.21.12-1.81.17-1.93.18-1.9-.79-2.26-2-1.64-1.91-1-2.09-.18-1.93-.17-1.81-.14-1.45-.06-.6.58-.3-.71-1-.93-9.77-.47-4.94.41-3.33,1.14.5-.61-2.5.81-.44.15-1-.31-.7-.19-.71,0-1,.57-.42-.21-1,.26-1.12-.07-.73-.79-.65-.31-3.26.08-1.71-.82-.9-.38-1.42.13-1.23.6-1.4,0-2.19v-5.11l-.16-6.8-.35-5-.43-3.25-.58-3.47-1,0-.46,1.5-.56,1.76c-.31,1-1,1.57-1.05,2.68a22,22,0,0,0,.29,3.61,43.73,43.73,0,0,0,1.57,9.81l.24,2.53-.35,2.71.22,2.29-.83,1.54-2.16,1.54-.87,1.06.18,1.93-.8.56-.66.79.16,1.69c.49,5.13,2.42,9.21-.88,13.71l-1.7,1.26-1.44.26-1.84-.19-1.73-1.54-1.45-2.42-1-3.19-.32-3.38.77-3.36.37-2.47.59-1.52,0-1.46,0-1.7-.51-1.53-.33-2.16-.2-2.05.84-1.42.54-.66.62-1.15-1-1.13-.67-1.88c-.7-2-.87-4.62-1.33-6.76-.79-3.64-1.43-7.33-2.55-10.88l-.51-2.75-.2-2.05-.78-.53-.8-.78-.16-1.69-.1-1.08-1.36-.24-.38-4,.08-5.49.12-3.9.51-1,.34-1.49.33-1.61-.17-1.81a15.3,15.3,0,0,1,1.09-7.77l.95-1.55-.68-2-.6-2.5-.37-2.64-.22-2.29-.42-3.12-.84.08.1,1.09-.86,1.18.13,1.33-.52.9-1.92,1.52.12,1.21-1.22,1.21a6.82,6.82,0,0,1-3.15,1.48l.21,2.21.3,3.13.22,2.29.18,1.93.17,1.81.21,2.17.2,2-.85,1.3-.56,1.76-1.18,1.69L1345,255.1l-1.36,1-1.82,1.39-1.77,1.87-1.38.86-.84.08.35,2.4-.48,2.6.79.65.41,5.56.78.54.3,1.92.47,1,.14,1.45.54,1.89.39,1.54.37,1.3.72,1.15.28,1.67.59,1,.52,1.66-.24,1.36.61,1.28.78,1.75.52,1.65.25,1.31-1.14.84-1.15.72-1.2.12-.9.82-.74,1.17.32,3.38,1,3.8.59,2.38.05,1.82.34,2.28.49,1.29-.55.66.68.79-.27,1,.56,2,.44,3.36.28,2.9,0,2.07.24,2.53-.18,2-.73,1.29.7.91.5,1.41.31,2,.08,2.06.23,2.41-.83,1.54-.78,2-1.27.73-1.57.15-1.53-.7-1.33-1.21-.49-1.29-.11-2.42-.55-1.89-.16-1.69-1.56-1.07-1.56-1.07-1-1.12-.18-.59-.83-1,.12-1.23.71-.19-.66-1.76-.15-1.57-.51-1.53-1.27-1.83.75-1L1331,320l-.93-.88-.86-1.38.3,3.13.24,2.53.21,2.17-.49,1.27.12,1.21.17,1.81.13,1.33.07.73-.84,1.42-.55,1.88.13,1.33-.73,1.29.31,3.25.25,2.65.27,2.77.92,2,1.92,1,.23,1.19-.62,1.16-1.16,1.81-.41,2.11-.59,1.52.1,1.09.14,1.45-.72,1.41-1.06,1.68-.95,1.55-.91,1.91-.8,1.78-1,.83-1.86.91-2.29.22-1.93.18-1.29-.73-.95-1-.15-1.57-.17-1.81,1.09-1.32,1.08-1.44,1.6-1.13-1.07-12.43.72-.07-.64-2.86-.12-2.54.29-2.1.1-1.47-.59-1,.3-.64-.35-1.18.64-.91-.86-1.38.78-.68-.06-.6-.33-.94.73-1.29.34-1.62-.48-1.17-.48-1.17-.84-1.14-.86-3.94-.41-3-.33-2.16-.72-1.15-.76-1.63-.35-2.4-.05-1.82-.22-2.29.69-3,.28-2.16-.09-2.12-.78-.53-1.24-.24-.77-.41-.53-3,.14-3.67.49-3.82.39-2.23.49-1.26-.08-2.06.05-2-1.53-2-.8-2-1-1.61h-1.22l-1.74.9-2.66,1.47-1.68.28-1.18.36-.68,1.77-1.45,1.35-1.31.25-1.53.51-1.77.53L1293,284l-1.43.26-1.8.29-1.92.31-2.12.69-.86,1.18-1,0h-1.22l-.79.68-1,.46-1,.09-1.5.88-1.48,1.11-1.52.63-2.16.33-1.3.37-.06-.6-2-.18h-1.22l-1.55.39h-1.34l-.89-.4-1-.39-1,.59-1.09.1-.66-.54-1-.39-.91-.64-.11-1.21Z"/></svg>