<svg id="artwork" xmlns="http://www.w3.org/2000/svg" viewBox="0 0 1600 396"><defs><style>.cls-1,.cls-2{fill:#231f20;}.cls-1{opacity:0.5;}</style></defs><title>Hero search area_people and wildlife</title><path class="cls-1" d="M411.69,27.13c-1.46-1.15-3.23-.84-4.93-.56.95-.79,2.4-1.19,3-2.32-.73-.8-.8-.77-1.88-.62l-2.19.29a24.84,24.84,0,0,1-4.13.5,8.91,8.91,0,0,1,1.17-1A3.19,3.19,0,0,0,403.85,22c-1.14-.45-2.68.25-3.78.39-2.24.3-4.26.87-6.52.6-3.15-.37-6.39,1.06-9.15,2.43-3.31,1.64-6.43,3.63-9.67,5.38l0,.4a10.07,10.07,0,0,0-1.11.78c-2.93,2.31-5,3.5-6.06,7.18-1.42,5.48-1.16,9.72-6.39,16.88-2.51,1-5.26-.37-6.53-.21-2.21.29-4.17,1.83-4.21,3-.2,0-.32.11-.51.28a1.87,1.87,0,0,0,.22,2.81c.17-.39-.32-.83.17-1a3.1,3.1,0,0,1,1,0l0,0c.95.8,2,1.37,2.48,1.89-4.79-.17-6.64-1-9.08-.67a6.46,6.46,0,0,0-5,3.85c-.62,1.51-2.46,2.73-2.73,4.56-.25,1.65.09,1.85.31,3.55.13,1-1.59,6.13-1.84,8.19-.11.92,1.77.17,2.26-1.29-.31,1.54-1.26,6.6-1.14,6.8.4.66,2.62-.59,3.65-5.42-.43,2.48-1.32,8.16-.63,8.23,1.68.17,4-5.77,3.83-10.29.07,1.1.18,3,.21,4.9,0,2.89-.13,5.8.38,5.52,1.12-.63,2.76-2.85,2.36-6.64-.08-.74.88,1.38,1.54,1s1-1.38,1.66-2.75c.2-.43.47.5,1.16,0a3.88,3.88,0,0,0,1-1.35c.25-.39.41.49,1,0,.37-.31.52-.89,1-1.19.27-.18.61.46.9.29.75-.47.46-.77.93-1.29.21-.23.36.42.84.14s.37-.68.77-.88a24.36,24.36,0,0,1,2.43-.55c.35-.19.62-.59,1-.6s.65.41,1.11.17c.66-.34.2-1.14.44-1.36s1.09,1.31,2.69.89c.65-.17.48-.38.3-.48.81.32,1.57.37,1.72.11s-.09-.64-.44-1.17,1.77,1.41,2.65,1q.94.51,1.86,1h0l7.55,10.41.72,1.16,2,3.28,0-.08,0,.08h0l2.12,4.77a33.75,33.75,0,0,1,1.46,5.27l.26,0a4,4,0,0,0,1.09-.14l0-.07a1.46,1.46,0,0,0,.6-.64,4.09,4.09,0,0,0,.56-1.84,21.38,21.38,0,0,0-.33-2.43l-.34-2.54-1.37-3.46a7.41,7.41,0,0,0,2.44,3c.88.5,3,1,2.92-.34,0-.73-.15-1.78-.25-2.51l.11-3.13.47-2.17-.14-1,1.81-.09.09,0h0l.42-.11L395,83.9l.63-.08a8.55,8.55,0,0,0,2.77-.24c.46-.22,1.13-2.12.4-2a37,37,0,0,0,4.4-.72,4.75,4.75,0,0,0,.92-.43l1-.3.43-.67a3.26,3.26,0,0,0,1-1.17.64.64,0,0,0,0-.46l.17-.27-.45-.07c-1-.78-4.12-.79-4.82-.88-1.89-.25-3.8-.44-5.69-.67l-.19,0-7.78-2.76-4.75-2.4-3.31-1.82.31-1.37a8,8,0,0,1,.55-1.76,16.13,16.13,0,0,1,.32-2.37l.44-.5.06-1.83c0-.44,1.09-1.37,1.31-1.88.73-1.72,1.34-3.44,2.21-5.13a6,6,0,0,0,.43-1.66c.18-.75.47-.79.88-1.42s.08-1.37.45-2.06c.13-.23,1-.92,1-1-.46-1.15,1.25-2,2-2.59-.12-.4-.25-.81-.39-1.21a4.78,4.78,0,0,0,2.59-2.07c.1-.37-.29-.75-.15-1.11s.73-.56,1.09-.79c.75-.47,1.87-1.17,1.53-2.23,1.76-.82,2.8-2.3,4.52-3.23a11.21,11.21,0,0,1,2.7-1.48,23,23,0,0,1,2.33-.31c1-.14,2.1-.24,3.13-.48.42-.1,3.46-.95,3.39-1.5-.11-.86-1.45-1-2.16-1l-4.17-.15c1.05-.32,2.1-.67,3.16-1C407.55,28.72,412.17,27.51,411.69,27.13Z"/><path class="cls-2" d="M1411,241.62c6.75,5.52,15.41,5.06,22.69,2.8,8.6-2.66,18.3-11.46,24-18.3.43-.52.84-1.05,1.22-1.59-3.9-2.17-6.95-4.43-8.46-6.28a1.92,1.92,0,0,1-1,.39c-1.42.25-2.42-.4-3.54.8-.23-2.67,1.54-3.76,3.57-3.87.88-3.21,7.62-3.66,15.47-2.83l0-.07c11.21-12.33,11.72-30.3,8.36-45.68a94.44,94.44,0,0,1-1.88-14.42c3.74.36,4.4,7.19,6,10-.84-1.92-.54-7.76-.64-11-.11-3.91-2-12.41,1.14-11.31,4.11,5.08,2.21,11.21,4.36,16.79,1.44-5.79,1.85-11.93,3.23-17.74,4,2.43.31,11.34,2.08,14.73,3.26-4.06,4.1-15.47,7-14.06,1.67,2.64-.74,7.72-.15,11.09,2.29-3.94,2.63-9.34,5.9-12.73,1.41,2.86.79,6.83.24,9.95,1.09-1.32,1.91-1.13,3.16-1.44a33,33,0,0,1,0,8.65c.93-.93,2.27-2,3.62-1.79.65.09-.42,5.83-.47,6.24,3.25.17,2,2.64,3.2,4.47a3.15,3.15,0,0,0,.48.63c1.65,1.52,1.59.92,1.43,3.15-.1,1.37.57,3.09.28,4.37-.42,1.9-1.31,3-1.4,4.73,0,.7,1.42,2.1,1.61,3s-.7,1.73-.61,2.6c.27,2.52,1,4.2.32,6.81-1,4.06-2.77,7.62-4.29,11.47-.69,1.74-.68,3.8-1.72,5.47-.5.8-1.36,1.11-2,1.77s-.44,1.05-.62,1.73c-.29,1.13,0,.63-1.12.88-.22,1.09-1.11,2-1.13,3.16a8.19,8.19,0,0,0-1.83,1.1c.59-.33.61.76.55,1.08a5.14,5.14,0,0,1-1.09,1.65c-.7.91-1.51,1.74-2.22,2.65,6.47-.59,13-1.12,19.42-1.77.85-.09,3.7-1.73,3.73.87.23-.67,1.92,0,2.26.23,1,.7.28,1.62.78,2.12s1.39.28,1.61,1-.73,1.75-1,2.23c.35.6,1.18,1.4,1.17,2.13a5.88,5.88,0,0,1-1.11,1.74,6.56,6.56,0,0,1,1.73,2.17c0,.82-2.39,1.94-2.23,2.39,1.09,2.9,1.92,3.65-1.3,5-.59.25.29,2,.15,2.5-.38,1.29-3,.76-3.12,1.22-.49,2.44-1.28,2.7-3.6,2.3a5.72,5.72,0,0,1-1,2.67c-.69.44-2.17.14-3,.15-.35.77-.58,2.19-1.47,2.51-.24.08-2.65-.53-2.72-.46-.33.31.07,1.36-.47,1.76s-1.66-.08-2.24-.18c0,0-.14,2.24-1,2.22-.73,0-5-5.6-6.26-7l-7.11-8.35c-.21-.25-1.15-1.13-2.23-2.14a5.58,5.58,0,0,1-.29,1c-.54,1.27-1.67,1.33-2.27,2.52-.52,1,.67,1.59-.15,2.9-.7,1.12-1.36.83-1.65,2.5-1,.63-1.33-.07-1.92-.2-.12,2.1-3,6.82-5.17,6.55a3.7,3.7,0,0,1-4.08,2.93c-2.8-.28-3.46,1.54-4.29,1.71-1.59.33-1.2-1.3-2.52-1.23-1.65.08-3.74,2.95-3.94.16-.1-1.39-1.71,0-3.17.84-5.28,3-3-.71-4.91.19-1.58.75-3.85,1.53-3,.31,1.49-2.1-4.3,1.76-6.58.75,0-.42.11-.75.07-1.17-2.37-.26-4.54,1.21-6.94.41-1.21-2-5.7,2.48-7.38,1.74-1-.69,2.66-3.14,3.26-4.55-2.78.66-6.67,4-8,3.73.07-3.43,4.16-4.41,4.82-7.73-1,.11-8.82,4.12-13.61.23,1.18-.4,1.7,1,3.92-.21C1416.52,249,1412.09,244,1411,241.62Z"/><path class="cls-2" d="M1427.67,121.66a7.78,7.78,0,0,0-1-2.41c-1.45-3.55-1.06-8.26-4.37-10.76-3.67-2.77-8.74-1.68-12.89-3.37,1.66-2.07,5.34-4.34,5.27-7.16.42-.06.77,0,.79.53s0,.66.45.36a1.77,1.77,0,0,0,.51-.62c.79-1.49-.92-2.61-2.17-2.87a1.13,1.13,0,0,0-.55,0c-4-5.17-13.78,3-17.75-4a13.28,13.28,0,0,1-1.55-5.22,36.27,36.27,0,0,1,.25-7.18,7.57,7.57,0,0,0,0-1.64c-.11-1.78-1-2.44-3-3.74-3.24-2.17-6.28-4.72-9.63-6.73-3-1.82-6.48-2.89-9.77-4.17h0c-6.69-3-13.05-6.66-19.76-9.66a4.4,4.4,0,0,0,0,.49c.15,2.12,1.81,3.39,3.55,4.5-3-1.52-6.83-3.21-9.63-3.2,0,.08,0,.14,0,.22h0c.31,3,2.6,3.73,5.15,5,1.91,1,3.81,1.93,5.73,2.88-4.44-1.28-9-3-13.65-3.25,0,.08,0,.15,0,.22h0c.34,2.72,2.56,3.15,5,4,1.44.5,2.9.94,4.37,1.37-2.1-.18-4.2-.29-6.29-.46-1.32-.11-3.43-.79-4.71-.27-.87.36-1.12.71-1,1-.15.94,2.93,1.75,4,2.07a1.63,1.63,0,0,0-.14.95c0,1.49,2.68,1.46,4.11,1.39a1.57,1.57,0,0,0-.77,1.62A3.49,3.49,0,0,0,1350,74c-.72.73-.94,1.33-.84,1.84,0,1,1.35,1.74,2.6,2.43,2,1.09,1.62,4,3.64,4.62a1.63,1.63,0,0,0-.24,1.2,10.38,10.38,0,0,0,1,2.78c.25.69.18,2.09.8,2.47a4.71,4.71,0,0,0-.47,1.72l0,0,0,.2c.63.21.91.44,1,.68,0,.47-.6,1-.6,1.68a1.25,1.25,0,0,0,0,.27c0,1.07,1.13,1,1.37,1.75,0,.64-.62,1.88-.47,2.55,0,.47.23.76,1,.63a.39.39,0,0,0,0,.26c-.1.56,1.23,1.36,1.62,1.54-.15.49-.3,1-.41,1.48l.06.06,0,.16a3.93,3.93,0,0,0,1.41.89,2.88,2.88,0,0,0-.09,1.18,1.42,1.42,0,0,0,1.59,1.5,1.17,1.17,0,0,0,0,.23c0,1.41,2,1.14,3.08,1.38-.13,2.36-8.43,4.35-10.43,5.05-3.18,1.11-7.36,1.62-10.17,3.46-1.86,1.22-2.23,4.1.69,4a7.5,7.5,0,0,0-1.78,2.55,2,2,0,0,0,1.61,1c-.23,4.7,9.48.31,10.93-.35,3.59-1.63,7-4,10.72-5.28a32.37,32.37,0,0,1,6.08-1c.28,0,.7.61.8,1.16a.6.6,0,0,1-.1.38h.11a.49.49,0,0,1-.09.2,10.1,10.1,0,0,1,1.7.3,1.18,1.18,0,0,0,0,.36,2.9,2.9,0,0,0,.29,1.06c.3.36.81.21,1.13.44s.43.66.56.76a2.35,2.35,0,0,0,2,.7c-.42.07,2.6,2.62,2.94,2.75a15.21,15.21,0,0,0,1.93.15c.49.1.82.53,1.33.56s1-.63,1.54-.5c1,.23.47.61,1,1.18a11,11,0,0,0,2.28,2.23,10.82,10.82,0,0,0,3.65,1.24,1.78,1.78,0,0,0,0,.43c.08,1.43,1.87,1.91,2.48,3.16s.18,3.27,2.34,2.6v.09a12.44,12.44,0,0,0,.89,2.89c.68.72,1.65.58,2.43,1.53s1,1.84,2.38,1.46c0,.12,0,.24,0,.37.19,2.19,1.65,5.81,4,3a12.36,12.36,0,0,0,.05,1.65,4.12,4.12,0,0,0,.57,1.84c1.39,2.29,2,.36,3.36-.7.76.64,1.88,2.92,3,2.63.91-.23,1.37-2.39,1.67-3.13,3.95,2.12,4.29-4.68,6.26-7a23.4,23.4,0,0,0,3.73-7.25c.35-1,.7-1.91,1.07-2.84C1430.25,127.44,1429,124.55,1427.67,121.66Z"/><path class="cls-2" d="M274.81,211.11c-.73-3.78-.27-9.37-2.83-12.58-2.06-2.58-6.77-2.93-10.24-4.93a23.3,23.3,0,0,0-6.33-2.51c-10.55-12-26.75-29.79-29.16-31.66-5.53-4.29-9.21-3.14-9.82-11.17-.08-1-.21-2.12-.36-3.21L239.39,137l0-.12,4.27-1.35C248,111.36,232,102,232,102l-4.12,1.77-.11-.31-29.1,11.91c-4.2-2-6.12,2-9.89.87-3.24-.94-6.64-3.55-9.84-.38-1.11,1.1-.24,2.25-1.51,3.29-2.19,1.8-6.15-1.68-9.41,1.23-1.81,1.62-.92,3-1.17,5.57-4.89-2.72-10.77.33-7.95,5.71l-10.16,4.16a11.93,11.93,0,0,0-1.17-1.48l.15-.05-.15,0h0a23.77,23.77,0,0,0-.11-4,23.24,23.24,0,0,0,6-.55,46,46,0,0,1-6.32-3.8c2-.1,1.9-.65,3.31-1.49a17.27,17.27,0,0,1-7.83-4.64c7.2-1.61-3.36-5.08-5.24-5.85a61.55,61.55,0,0,0-18.49-4.51c-10.34-.89-22.1,2.6-30.48,7.64-3.67,2.21-7.24,6-9.89,9.71-3.56,4.93-8.62,6.76-10.15,13-2,8.18-3.77,20.67-1.77,29a55.86,55.86,0,0,0,3,7.83c.23.68.47,1.36.72,2a18.68,18.68,0,0,1,.71,3.13c.26,2,.21,4.25.85,6.16s2.9,1.51,2.23,4.77a5.6,5.6,0,0,1,3.49,5.51c3.3-.23,5.06,2.69,8.24,3.13a7.06,7.06,0,0,1-.23-1.16c.73.52,1.46,1,2.23,1.47-6.69.7-9.1,7.79-15.09,13.52-11.81,11.29-21.08,13.91-21.64,30.51a273.22,273.22,0,0,0,3.49,55.85c1.54,8.76,5.12,17.16,8.89,25.54,1,2.3,1.25,9.41,2.27,11.71.79,1.78,2.4-1.24,3.15.55,1.75,4.22-.05,9.59,1.12,13.95,1.33,4.93,5.47,8.66,5.84,13.45.27,3.54,2.75,6.05,2.66,9.55s-2.73,8.11-3,11.68c-.22,2.64-.48,5.29-.75,8H209.67c-1.7-4.18-1.68-7.43-2.67-11.64-.61-2.59-3.5-14.31-4.67-20.37-1.21-6.25-5.09-12.49-5.78-18.75-.27-2.46-1.51-.93-1.73-3.41-.26-3,.5-10,.29-12.94-.25-3.48,1.53-7,1.31-10.49-.3-4.79-1.59-9.62-1.93-14.5-.12-1.74-1.25-3.48-1.38-5.23-.27-3.53-.58-7.08-.94-10.68q6.2-1.84,12.25-3.93,2.32-.81,4.61-1.66c3-1.13,6-.31,9-1.56s5.89-2.6,8.74-4,4.66-4.9,7.37-6.47c2.23-1.29,5.41-2.64,7.53-4,1.28-.85,6.53-1.71,7.76-2.6,3-2.17,3.86-4.46,6.56-6.91,3.27-3,3.31-6.13,6.08-9.53,1.3-1.59,6.54-3.3,7.71-5.09,1.58-2.42,0-5,1.24-7.66.87-1.88,3.63-3.81,4.26-5.76a43.45,43.45,0,0,0,1.71-7.23C277.47,218,275.47,214.48,274.81,211.11ZM225,208.87a55.66,55.66,0,0,1-2.82,8.13,9.39,9.39,0,0,1-5.62,5.19,13.55,13.55,0,0,1-5.35.23,89.15,89.15,0,0,1-9.56-1.87c-3.79-.87-7.43-1.69-10-1.66-2.28,0-4.49,0-6.65,0-10.38,0-16.64.3-27-3.5a18.33,18.33,0,0,0,4.14-12.27c-4.15,4.67-9.83,8.2-16.61,7,11.44-5.78,11.27-7.62,11.27-7.62,2-1.5,2.56-8.67,2.5-13.17s-1.84-8.44-3-12.62a34.52,34.52,0,0,0,3.67-1.57c.37-2.81-2.67-6.27-4.15-9.26l11.88-4.11c8,7.08,10,4,20.69,2.78,8.59-1,10.55.55,16.41,7.95,3.3,4.17,15.79,23.15,22,31.79A35,35,0,0,0,225,208.87Z"/></svg>