<svg version="1.1" id="Слой_1" xmlns="http://www.w3.org/2000/svg" xmlns:xlink="http://www.w3.org/1999/xlink" x="0px" y="0px" viewBox="0 447 1590 424.1" enable-background="new 0 447 1590 424.1" xml:space="preserve">
<path fill="#000000" d="M1520.3,797.8V677.2h-30.7v-11h-8.3v-30.7h-20v41.6  h-11.7v-4h-6.5v-22.8h-0.8l-9.4-37.6l-8.1,37.6h-0.7v22.8h-4.9v65.7H1405v-42h-5.6v-20.4h-7v-8h-35.8v7.3h-19.1v9.9h-5.6v11.1h-14.8  v-58.3h-7.9v-9h-16.3v-4.4h-49.7v43.5h-13.9v12.1h-13v-4.2h-2.4v-5.2h-21.3V666h-18.5v5.3h-13.5v5.2h-7v-5.2h-17.2v5.2h-16.7v-33  H1082v-26.9h-2.8v26.9h-17.6v85.1h-26V657h-4.8v-13.5h-5.6v-90.1h-7.4v-20h-4.9l-16.6-14.8l-16.2,14.8h-4.8v20h-5.2v90.1h-6.1V657  h-15.4v83.5h-8.1V560.8H938l-7-6.1v-8.9l-5.2-5.6v-5.2v-1.9h-1.6l-5.8-6.5v-8.3v-1.9h-1.2l-10.5-16.7v-44.7H903v44.7l-8.7,16.7h-0.9  v1.9v8.3l-6.5,6.5v6.5l-4.2,6.1v8.9l-6.1,6.1h-1.9v-39.1h-9.3v-59.5h-59.5v59.5H797v45.6h-39.5v-6.5H753l-18.7-30.5l-17.5,30.5h-4  v13h-10.2v117.1h-5.6v-9.3h-32.6v9.3H658v9.3h-49.3v-47.4h-74.3v30.7L524,700.2h-3.6v23.2h-9.3v18.5h-13v-98.6h-8.3v-16.7h-4.8  l-16.2-21.9l-18.2,21.9h-1.9v16.7h-8.3v98.6h-25v-1.5h-43.7v-30.9h-38.2v-9.3h-25v-53.9h-66v53.9H237v9.3h-10.2v88.2h-7.4v-11.7  h-22.3v11.7h-8.3V646.2h-68.9v86.4h-26v-41.9H77.1v-9.3H34.5v116.2H0v73.4h1160.6h13.5H1590v-73.4h-69.7V797.8z"/>
</svg>
