<svg id="Layer_1" data-name="Layer 1" xmlns="http://www.w3.org/2000/svg" viewBox="0 0 1600 680"><defs><style>.cls-1,.cls-10,.cls-11,.cls-2,.cls-4{fill:#231f20;}.cls-1,.cls-10,.cls-11,.cls-2{fill-rule:evenodd;}.cls-1{opacity:0.6;}.cls-2{opacity:0.4;}.cls-3,.cls-5,.cls-6,.cls-7{fill:none;}.cls-5,.cls-6,.cls-7{stroke:#231f20;stroke-miterlimit:10;}.cls-5{stroke-width:0.76px;}.cls-6{stroke-width:2px;}.cls-7{stroke-width:1.55px;}.cls-10,.cls-8{opacity:0.5;}.cls-9{opacity:0.8;}</style></defs><title>Spotlight area_mixed land_hare and woodpecker</title><path class="cls-1" d="M534.24,595.52c10.64-2.28,11.75-10.39,15.9-15.46,4.72-5.77,10-11.13,14.29-17.2,4.48-6.34,9.46-11.38,21.12-15.24-12.18,16.95-26,28.27-27.14,48.72,13.27-8.55,19.92-21.15,30.26-29.77,10.58-8.82,21.77-16.89,32.81-25.14.47-.37-25.89,26.61-31.61,46.38,6.1-20.81,59.19-44.59,77.33-50.65.74-.24-56.87,49.49-75.07,84.63L403.65,593.4c-1.49-18-9.7-33.58-22.62-47.73,3.66,2,7.32,4,11.6,6.34.08-1.92.5-3.05.11-3.61-3.66-5.18-7.48-10.26-12.39-16.91,12.61,4.88,22.16,18.64,27.24,37.81,3-3.91,3.68-7,2.36-11-1.2-3.74-1-8-2.36-11.63-7.67-19.93-13.48-40.75-26.61-58.21,0,0,.8-.71,1.23-1.08,14.78,7.62,24.27,26.81,37.6,76.81-1.4-5.26,5.55-24.68,5.41-32-.72-37.92,2-20.05,8.73,14.57,6.15-20.05,3.79-38.79,15.52-54.16,2.19,15.2-5.12,27.38-8.35,40.42-3.32,13.4-3,26.91-.29,42.82C452,530.15,469.63,491.14,515,469c-2.22,3.66-33.79,38.73-43.68,58-2.5,4.85-12.74,42.65-8.63,50.67,5.75-6.82,11.34-13.09,16.5-19.69s10.09-13.72,15.11-20.61c5.85,9.07-2.74,15.7-5.81,22-3.31,6.72-4.85,12.84-5.85,23.49,17.64-27.2,31.85-67,55.2-74.56h0C523.26,520.57,514.34,545,511,563.07a72.1,72.1,0,0,0-1.39,16.56c8.43-15.51,16.55-31,32.38-46.22-4,10.37-5.54,17.72-9.36,23.62-4.64,7.17-3.59,14.57-6.21,25.42,2.51-10.37,63.52-88.52,72.27-75.27C598.7,507.17,546.81,543,534.24,595.52Z"/><path class="cls-2" d="M249.47,573.13c2.73-22.11,7.4-44.11-13.06-66.61,19.14,8.69,34.52,30.16,45.24,57.93,22.53-4.19-1.94-52.93-3.14-58.68-1.14-5.45-18.8-63.79-14.53-69.13,10.76,24.32,12.5,24,21,48.71s18.44,49.23,19.18,74.91c.18,5.9,5.31,11.78,10.49,22.51,29.33-14,3-88.81,6.82-101.35,3,6.32,7.33,12.5,8.8,19,4.9,21.62,8.79,43.36,13.71,68.35,15.39-29.77-6.1-56.78,1.59-85.61,10.63,18.1,4.67,60.14,21.12,78.85.33-22.28,3.43-64.54,2-82.86-.23-3-5-32-3.06-42.17,10.88,21.66,11.33,44.28,15.55,66.33,4.43,23.24.37,47.19,0,72.22,11.58-5.47,14.25-29,13.51-35.71-2.73-24.66,3.78-48.24,18.64-74-29.5,97.38,5.87,116.19,8.94,118.51,12.24-12.26,22.22-25.73,47.58-37.12C461.33,557.6,456.4,563.6,449,572.59l-11.09,20c-64.5,7-261.27,4.53-333.52-4.82-15.41-7.54-25.69-34.05-24-35,4.64,3.31,9.74,6.38,13.78,10,3.65,3.29,5.56,7.5,9.27,10.73,4.66,4.08,10.37,7.58,15.63,11.31,10.57-7.32-4.46-14.14-3.09-22.46,5.12,1.86,8.05,2.91,13.88,5-8.28-24-23.84-43.61-43.18-63.51,4.72,1.64,40.38,31.79,52.11,45.76,5.64,6.73,8,14.74,12.39,23.18,11.62-13.08-6.06-24.52-.71-38.48,8,11,14.34,19.91,21.35,29.67,7.3-14.07-1.12-25.69-7.93-37.34-10.75-18.43-45.91-54-46.65-56.86,8.49-.36,59.58,45.85,61.75,49.69s2.87,8.08,5.48,16c1.91-5.74,2.68-7.95,3.38-10.18.64-2,1.21-4,3.24-10.74,2.72,12,3.54,19.5,6.27,26.66,2.43,6.36,7,12.37,13,18,2.94-34.71-15-66.08-32.69-97.69C210.6,496.06,233.85,533.32,249.47,573.13Z"/><path class="cls-3" d="M1583.05,436.27c24.06-45.94,107.58-58.45,153-58.5"/><path class="cls-4" d="M33.25,537.42a1.81,1.81,0,1,0,3.09-1.87c-.53-.88-2.79-1.12-2.79-1.12S32.72,536.54,33.25,537.42Z"/><path class="cls-5" d="M45.73,568.4a89.74,89.74,0,0,1-3.23-10c-1.12-4.59-1-9.07-1.36-13.74-.42-5.41-1.49-10.74-2.14-16.12"/><path class="cls-5" d="M41.36,550.53c1.12-3.74-4.14-12.58-7-14.25"/><path class="cls-4" d="M41.38,527.76c-.57,1.57-6.05,2.09-5.88-.18.39-2.3,5-1.29,5.88.18"/><path class="cls-4" d="M39.83,528c2.31-1.41,3.79-4.07,5.84-5.67.83,1.25-4,6.12-5.81,5.89"/><path class="cls-4" d="M40.11,528.37c-4-1.54-4.91-8.87.75-8.65,5.46.46,2.06,7.63-1.24,8.26"/><path class="cls-4" d="M39.72,528.87c-3.11.38-8.74.39-9.87-3.3,2.7-1.91,7.13,1.16,9.15,2.94"/><path class="cls-4" d="M39.91,528.61c-1.58,0-4.49-1.7-5.93-2.43-.75-.59-2.61-1-2.71-1.92-1-2.36.53-1.19,1.75-2.24,2.42-2.32,2.62-2.57,4.69-.35,1.58,1.84,2.57,4.42,2.15,6.5"/><path class="cls-4" d="M80.49,540.85c-.27-6.75-3.44-12.31-6.2-18.3-.2-.44-1.14-.17-.95.25,2.73,5.92,5.92,11.44,6.18,18.11,0,.52,1,.39,1-.06Z"/><path class="cls-4" d="M76.66,527.07c-4.08-8.51.42-21.62,6.66-28.08.22-.22-.7-.12-.86.05-6.27,6.5-10.87,19.68-6.75,28.28.12.25,1-.07.95-.25Z"/><path class="cls-4" d="M76.23,528.41a8,8,0,0,0-3.59-3.62,28.67,28.67,0,0,1-3.9-2.62c1.56-.48,3.82,1.16,5.36,1.75,1.22-2.41,2.16-5,3.4-7.44,1.68.85-.52,4.13-1.08,5.6-.89,2.37.31,3.67-.33,6"/><path class="cls-4" d="M81.67,500.9c2.79.7,6.09,0,8.84.37-.33,1.56-8.54,1.76-9.73.2"/><path class="cls-4" d="M81.74,501.56c-1.82-4.2,3.08-10.33,7.13-5.87,3.72,4.5-4.27,7.25-7.21,5.21"/><path class="cls-4" d="M81.07,501.64c-2.6-2.08-6.8-6.35-4.83-10,3.46.63,5.28,6.35,5.43,9.21"/><path class="cls-4" d="M81.41,501.6c-1.15-1.23-2-4.68-2.56-6.31-.11-1-1.15-2.75-.56-3.49,1.08-2.49,1.3-.48,3-.33,3.57.11,3.9.07,3.75,3.3-.22,2.56-1.74,5.61-3.64,6.84"/><path class="cls-4" d="M172.63,600.07c-1.27-6.64-5.25-11.64-8.87-17.17-.25-.38-1.15,0-.87.43,3.57,5.45,7.53,10.44,8.79,17,.09.47,1,.22.95-.25Z"/><path class="cls-4" d="M166.81,587.11c-5.36-7.85-2.81-21.47,2.43-28.82.08-.12-.77-.08-.94.16-5.21,7.29-7.77,21.1-2.44,28.92.17.25,1-.12.95-.25Z"/><path class="cls-4" d="M166.56,588.43a8,8,0,0,0-4.09-3,28.66,28.66,0,0,1-4.25-2c1.47-.7,3.95.58,5.56.93.85-2.57,1.39-5.29,2.25-7.86,1.79.59.1,4.17-.23,5.7-.53,2.48.85,3.59.57,6"/><path class="cls-4" d="M167.84,560.41c2.86.28,6-.91,8.8-1-.1,1.59-8.18,3-9.59,1.64"/><path class="cls-4" d="M168,561.06c-2.43-3.88,1.51-10.67,6.18-6.87,4.34,3.89-3.14,7.8-6.35,6.22"/><path class="cls-4" d="M167.37,561.23c-2.88-1.67-7.67-5.27-6.26-9.12,3.51.11,6.16,5.49,6.74,8.3"/><path class="cls-4" d="M167.69,561.14c-1.32-1-2.72-4.32-3.48-5.86-.26-1-1.55-2.55-1.07-3.37.69-2.62,1.21-.67,2.93-.78,3.54-.42,3.87-.51,4.2,2.71.16,2.57-.89,5.81-2.58,7.3"/><path class="cls-6" d="M469.28,585.48c3.87-15.72,32.46-121.11,36-127"/><path class="cls-4" d="M499.15,457.81c-2.13-3.78-7.06-9.4-7.71-14.9-.85-7.11,18.05-9,23.71-6.08,5.45,2.83,14.16,10.91,7.84,16.88-7.08,6.7-17.2,1.57-24.44,3.11"/><path class="cls-4" d="M505.12,451.32c.69-4.49,6-9.28-1.26-15.47-5-4.23-11.72-.05-15.29,3.93-7.71,8.62-4.44,24.74,4.61,30.93,1.46,1,4.17,3.16,6.21,2.62,2.34-.61,3.2-4.35,3.77-6.65,1.11-4.44,2.8-11.14,2-15.69"/><path class="cls-4" d="M506.12,453.47c5.64.93,12.32-5.13,18.64-5.1,7.17,0,5.57,8.46,2.75,12.72a35.41,35.41,0,0,1-6.24,6.74,7.59,7.59,0,0,0-2.68,3.75c-.72,1.72-.42,2.77-2,4.13-6.8,6.07-10.83-3.84-10.84-8.78a44.15,44.15,0,0,1,.35-7.15c.38-2.43-.4-4.61,0-6.63"/><path class="cls-4" d="M517.77,456.7c6.07,5.49.48,18-6.15,16.54-2.86-.61-4.85-3-7.44-3.89-2.83-1-6-.59-8.69-1.79-2.95-1.33-4.29-3.08-4.07-8,.27-6.1,3.26-7.69,7.35-8.92l7.39,2.45Z"/><path class="cls-6" d="M527.72,564.9c16.24-102.85,34.43-91.35,36.47-73.17"/><ellipse class="cls-4" cx="567.35" cy="503.66" rx="9.42" ry="16.89" transform="translate(-99.91 142.66) rotate(-13.18)"/><path class="cls-7" d="M437.74,577.54c15.38-40.39,12.42-106.43,10.54-113.13"/><path class="cls-4" d="M449.59,463.74c6.35-1.13,16-5.75,13.44,6.36-5.51,1.14-7.39.25-7-5.48-1.66-.29-3.38-.47-5.08-.7"/><path class="cls-4" d="M449.06,464.9c3.62.05,8.58-2.18,13.1-2.26,1-2.34,3.69-9.33,2.45-12-1.57-3.4-7.83-3.12-11-2.71-4.65.6-5.11,2.26-6.09,6.78s1.92,6.37,1.59,10.22"/><path class="cls-4" d="M447.59,465.19c-1.63-4.28-8.36-12.54-13.23-12.62-4.18-.07-8.7,7.3-9.38,11.64,8.63,4.91,13.81,2.36,22.14.92"/><path class="cls-4" d="M432.31,453.75c-2.54-2.85-4.86-5-.44-7.11,2.45-1.17,7.17-1,9.87-.24.35,3-5.19,4.49-7.66,5.26,0,.82-.65,1.39-.78,1.73"/><path class="cls-4" d="M449.59,464.49c1.9-3.88,6.87-8.06,7.74-12.4,1.3-6.43-4.17-7.64-9-7.22-4.56.39-10.52,1.62-14.59,4.19-2.68,1.7-8.33,9.67-8.13,13.32,3.5,2,6.33,4,10.31,4.7,4.58.76,8-1.29,11.69-1.89"/><g class="cls-8"><line class="cls-4" x1="496.91" y1="332.33" x2="513.86" y2="331.67"/><line class="cls-4" x1="496.06" y1="332.38" x2="513.2" y2="331.7"/><path class="cls-4" d="M514.37,331c-1.11.06-2,.4-2,.75s.94.5,2.05.52,2-.4,2-.75S515.48,330.95,514.37,331Z"/><line class="cls-4" x1="495.72" y1="331.19" x2="497" y2="314.42"/><line class="cls-4" x1="495.65" y1="332.04" x2="496.94" y2="315.08"/><path class="cls-4" d="M497.67,313.95c-.1,1.1-.47,2-.82,1.93s-.47-1-.45-2.06.47-2,.82-1.93S497.78,312.85,497.67,313.95Z"/><path class="cls-4" d="M514.41,356.3c-1.79-2.66-2.12-3.76-4.32-6.7s-5-8.06-8.82-10.24a25,25,0,0,0-6.22-2.49,7,7,0,0,0,.72-1.72,1,1,0,0,0,.91-.27,1,1,0,0,0-.29-1.58,26.35,26.35,0,0,0,2.88-2.94c-.81.29-1.43.57-2.14.76.17-.54.48-1.83.64-2.37a15.71,15.71,0,0,0-2.91,3.06.93.93,0,0,0-.1-.14,1,1,0,0,0-1.41,0,1,1,0,0,0-.25.83,6.46,6.46,0,0,0-1.85.78,24.91,24.91,0,0,0-2.66-5.92c-2.32-3.69-7.68-6.43-10.56-8.43s-4.13-2.37-6.86-4.07c-2-1.25-6.19-3.91-8.35-1.67,0,0,.63,1.4-.47,3.77-.06.14-1-.22-1.21,0s.17,1.06-.06,1.47-1.64,1.25-1.5,2.26c-.2.53,2,.88,2.45,2.34.18.62-.17,1.38.1,2s1,.89,1.4,1.4c.06.08-1,1.29-1,1.43,0,.71,1.36,1.17,1.36,1.17.21.38,0,.62-.18,1s-1.07,1.18-.63,1.89c.64,1,1.26.21,1.92,1a.44.44,0,0,1,.08.24l-.27,0-.7.72c-.5.51-.76,1.25-1.34,1.79s-1.55,1.15-1.65,2c-.06.47.45.75.51,1.2.09.6-.12.7-.57,1.17-.37,1-.58,1.44.15,2.31.57.68,1.38,1.22.82,2.19-.48.82-2.29,1.43-.74,2.45.71.46,1.43,0,2-.4,2-1.17,2.9,1.52,3.35,3,.81,1.86,2.42,1,3.84,2s2.15,1.51,3.74.63c1-.53,1.9-1.1,2.81-1.72.64-.44,1.26-.91,1.87-1.39-.38.79-.56,1.36-.43,1.48s.47,0,1-.3c-.33.47-.66,1-1,1.44-.58.93-1.12,1.89-1.61,2.87-.82,1.63-.17,2.44.77,3.72s.21,3,2.1,3.75c1.46.41,4.17,1.18,3.08,3.24-.33.63-.81,1.37-.32,2.06,1.08,1.51,1.62-.32,2.42-.83s1.52.19,2.22.73c.9.7,1.29.47,2.32.06.45-.47.55-.68,1.15-.61.45,0,.75.54,1.22.47.86-.14,1.43-1.12,2-1.73s1.25-.88,1.74-1.4l.69-.72,0-.28a.45.45,0,0,1,.24.07c.82.63,0,1.29,1.07,1.89.73.41,1.32-.47,1.87-.71s.64-.42,1-.21c0,0,.51,1.37,1.21,1.32.14,0,1.31-1.1,1.39-1,.52.39.83,1.09,1.45,1.35s1.35-.13,2,0c1.46.37,1.91,2.58,2.42,2.36,1,.1,1.82-1.35,2.2-1.59s1.17.15,1.47-.11-.16-1.14,0-1.21c2.33-1.19,3.75-.61,3.76-.61C518.55,362.34,515.74,358.27,514.41,356.3Z"/></g><path class="cls-4" d="M646,459.7c1-2.12,2.33-4.57,1.4-6.65a7.25,7.25,0,0,0-3.68-3.44,12.35,12.35,0,0,0-5.74-1.4h-.29l1-.37c1.4-.47,3.39-.67,4.5-1.74,2.19-2.1.82-7.43-.44-9.7-.35-.64-2.38-4.17-3.52-3.45a28.83,28.83,0,0,0-6.25,5.25l-.23.25-.12.14a28.92,28.92,0,0,0-4.11,6.09c-.11.22-.54,1.26-.95,2.37l-.21-.1,0-.15a2.62,2.62,0,0,0-.55-.42.43.43,0,0,0-.69-.35v-.18h0l0-.61h0l0-.61h0l0-.61h0l0-.61h0l0-.61h0l0-.61h0l0-.61h0l0-.61h0l0-.61h0l0-.61h0l0-.61h0l0-.61h0l0-.61h0l0-.61h0l0-.61h0l0-.61h0l0-.61h0v-.44a3.06,3.06,0,0,0,.24-1.35,2.43,2.43,0,0,0,0-.47,0,0,0,0,0,0,0c-.12-.6-.36-1-.59-1s-.36.47-.36,1.05h0a4,4,0,0,0,0,.49,2.52,2.52,0,0,0,.33,1.25l.37,11.15a.67.67,0,0,0-.25.11.68.68,0,0,0-.2.24h0l-.56-.25h0l-.56-.25h0l-.56-.25h0l-.56-.25h0l-.56-.25h0l-.56-.25h0l-.56-.25h0l-.56-.25h0l-.56-.25h0l-.56-.25h0l-.56-.25h0l-.56-.25h0l-.56-.25h0l-.56-.25h0l-.56-.25h0l-.56-.25h0l-.56-.25h0l-.4-.18a3.06,3.06,0,0,0-1.11-.81,2.37,2.37,0,0,0-.44-.17l0,0c-.59-.15-1.08-.12-1.15.09s.26.53.79.78h0a4,4,0,0,0,.44.22,2.53,2.53,0,0,0,1.27.25l10,4.47s0,.05,0,.08a.44.44,0,0,0-.24.36.43.43,0,0,0,.36.45,3.56,3.56,0,0,0,.14.38l.09,0a4.93,4.93,0,0,0,0,.52,36.24,36.24,0,0,0-4.22.7,29,29,0,0,0-6.78,2.89l-.09,0-.37.22a28.82,28.82,0,0,0-6.33,5.13c-.91,1,2.17,3.64,2.72,4.11,2,1.67,7,4,9.44,2.28a5.93,5.93,0,0,0,1.69-2.33,12.15,12.15,0,0,0,0,4.29,7.24,7.24,0,0,0,2.17,4.55c1.7,1.51,4.42,1,6.76.68.4-.06.88.64,1.25.55a6,6,0,0,1,1.35-4.12c.64-.62,2.24-1.1,2.63.2a21.09,21.09,0,0,0-.77-2.06c-.64-1.7-1.65-3.82-2.65-5.84l.32.31v0h.06a5.87,5.87,0,0,0,1.91,1.27l2.35,1.75-.73-3.08a5,5,0,0,0-.15-1c1.2,1.13,2.39,2.2,3.43,3a21,21,0,0,0,1.74,1.36c-1.12-.77-.18-2.15.61-2.57a6,6,0,0,1,4.33,0C646.36,460.74,645.84,460.07,646,459.7Z"/><g class="cls-9"><polygon class="cls-4" points="169.05 461.88 168.75 461 167.83 460.81 167.22 461.51 167.52 462.4 168.43 462.58 169.05 461.88"/><path class="cls-4" d="M168,461.44l.27.05.09.26-.18.21-.27-.06-.09-.26.18-.21m-.21-.62-.61.7.3.88.92.18.62-.7-.3-.88-.92-.18Z"/></g><path class="cls-4" d="M158.72,461.86c-.59,11.41-4.52,20.4-6.82,33.5-.63,3.64-5.24,64.25-5.47,67.72-.17,2.53-3,4.85-3,1,0-3.65,6.61-69.45,7.37-73.17,1.56-7.67,4.22-15.06,5.29-22.87.4-2.94.33-5.77.73-9.34.05-.47,2,.6,2,.6Z"/><path class="cls-4" d="M163.71,446.43a20.8,20.8,0,0,0-2.56,6.59h0c.64-2.52,2.7-4.1,3.55-6.37-.45-.26-.3-.17-1-.21"/><path class="cls-4" d="M157.64,450.22a20.81,20.81,0,0,0,1.44,6.92h0c-.84-2.46,0-4.91-.49-7.28-.52,0-.34,0-1,.36"/><path class="cls-4" d="M162.05,445a20.81,20.81,0,0,0-.43,7.05h0c-.16-2.59,1.32-4.72,1.44-7.15-.51-.11-.33-.07-1,.1"/><path class="cls-4" d="M164.33,454.16a20.82,20.82,0,0,0-4.2,5.68h0c1.28-2.26,3.68-3.24,5.11-5.21-.36-.37-.25-.24-.91-.47"/><path class="cls-4" d="M163.43,459a20.84,20.84,0,0,0-4.2,5.68h0c1.28-2.26,3.68-3.24,5.11-5.21-.36-.37-.25-.24-.91-.47"/><path class="cls-4" d="M164.25,450.88a18.85,18.85,0,0,0-3.81,5.15h0c1.16-2.05,3.34-2.94,4.63-4.72-.33-.34-.22-.22-.82-.43"/><path class="cls-4" d="M164.64,458.63c-2.11,2.66-1.24,7.56-6.21,10.14h0c5.79-1.37,5.16-6,7.28-9.51-.39-.56-.27-.36-1.06-.63"/><path class="cls-4" d="M151.93,457.33c1.66,3-.15,7.88,4.45,11.11h0c-5.66-2.1-4.15-6.76-5.65-10.59.51-.53.35-.33,1.21-.52"/><path class="cls-4" d="M167.92,457.47c-2.18,3-1.52,8.22-6.5,11.19h0c5.74-1.7,5.31-6.68,7.52-10.55-.37-.59-.25-.37-1-.64"/><path class="cls-4" d="M157.27,457.83c.28,4.48.44,9,2.28,13.85,0,0-1.6-9.1-.59-13.87-.84-.32-.56-.19-1.69,0"/><path class="cls-4" d="M160.59,453.1a25.23,25.23,0,0,0-1,8.49h0c0-3.15,1.94-5.62,2.27-8.54-.6-.18-.4-.1-1.23,0"/><path class="cls-4" d="M155.34,455.64a25.3,25.3,0,0,0,5.5,6.55h0c-2.3-2.15-2.78-5.25-4.69-7.49-.54.32-.35.22-.81.93"/><path class="cls-4" d="M158.34,455a25.21,25.21,0,0,0,1.35,8.45h0c-.87-3,.31-5.94-.18-8.83-.63,0-.41,0-1.17.39"/><path class="cls-4" d="M163,439c-1.7,2.63-2.75,3-1.24,7.3,3.33-1.33,2.38-5,1.37-7.09"/><path class="cls-4" d="M161.65,446.51l.13-.05a3.58,3.58,0,0,0,2.13-2c.74-1.92-.23-4.3-.69-5.24l-.25.12c.44.9,1.38,3.19.68,5a3.27,3.27,0,0,1-1.85,1.83c-1.2-3.46-.64-4.27.57-6,.22-.31.46-.65.71-1l-.23-.15c-.25.39-.49.72-.7,1-1.24,1.78-1.87,2.67-.55,6.39Z"/><path class="cls-4" d="M160.18,446.4c-2.41-.84-2.81-3.9-1.46-5.92,1.24,1.88,3.18,3,1.61,5.75"/><path class="cls-4" d="M160.13,446.53l.09-.26a3.09,3.09,0,0,1-1.94-2,4.37,4.37,0,0,1,.43-3.56c.24.34.49.66.74,1,1,1.28,1.93,2.38.75,4.47l.24.14c1.28-2.25.28-3.48-.77-4.78-.29-.35-.58-.72-.84-1.12l-.11-.17-.11.17a4.65,4.65,0,0,0-.58,4A3.37,3.37,0,0,0,160.13,446.53Z"/><path class="cls-4" d="M163.4,448c-1.43-2.12.09-4.81,2.38-5.62-.13,2.25.75,4.3-2.16,5.57"/><path class="cls-4" d="M163.29,448.12l.23-.15a3.08,3.08,0,0,1-.36-2.75,4.36,4.36,0,0,1,2.48-2.59c0,.41,0,.82,0,1.22.06,1.64.12,3.06-2.08,4l.11.25c2.37-1,2.31-2.62,2.25-4.29,0-.46,0-.93,0-1.4v-.21l-.2.07a4.65,4.65,0,0,0-2.84,2.83A3.35,3.35,0,0,0,163.29,448.12Z"/><path class="cls-4" d="M164.32,455.37l-.31-.11c-1.15-3.34,4.37-5.68,4.37-5.68s-.35,1,.77.79h0c-.49,1.89-2.27,6.52-4.84,5"/><path class="cls-4" d="M164.28,455.5l-.37-.13,0-.06c-1.18-3.42,4.22-5.75,4.45-5.85l.29-.12-.1.29a.68.68,0,0,0,0,.49c.09.13.29.17.61.11l.21,0-.05.21c-.06.23-1.5,5.67-4.15,5.39h0A2.15,2.15,0,0,1,164.28,455.5Zm4-5.23a.75.75,0,0,1-.09-.45c-1,.49-5,2.58-4.08,5.33l.27.1a1.94,1.94,0,0,0,.78.27h0c1.87.19,3.27-3.08,3.8-5A.68.68,0,0,1,168.3,450.26Z"/><path class="cls-4" d="M158.76,450.63a10.69,10.69,0,0,1-1.67.05,2,2,0,0,1-1.16-.76,3.83,3.83,0,0,1-.42-2.7c.07-.7.51-1.46.58-2.15.42,0,.42.42.78.59.2-.3-.2-.7-.05-1,.14.3.83.52,1,.77a6.78,6.78,0,0,1,.86,1.31,4.35,4.35,0,0,1,0,3.92"/><path class="cls-4" d="M157.07,450.79a2.09,2.09,0,0,1-1.22-.81,3.86,3.86,0,0,1-.44-2.77,5,5,0,0,1,.3-1.11,4.86,4.86,0,0,0,.28-1V445h.13a.68.68,0,0,1,.5.33,1.09,1.09,0,0,0,.19.21.8.8,0,0,0-.06-.33.8.8,0,0,1,0-.58l.09-.21.1.21a1.43,1.43,0,0,0,.53.4,1.9,1.9,0,0,1,.49.34,6.8,6.8,0,0,1,.87,1.33,4.47,4.47,0,0,1,0,4l0,.07h-.07a3.75,3.75,0,0,0-.69,0,3.36,3.36,0,0,1-.79,0Zm1.56-4a6.69,6.69,0,0,0-.84-1.29,1.78,1.78,0,0,0-.43-.29,3,3,0,0,1-.44-.29,1.52,1.52,0,0,0,.06.21.68.68,0,0,1,0,.61l-.05.08-.08,0a1,1,0,0,1-.37-.33.51.51,0,0,0-.27-.23,5.92,5.92,0,0,1-.28,1,4.77,4.77,0,0,0-.29,1.06,3.69,3.69,0,0,0,.4,2.63,1.82,1.82,0,0,0,1.09.72,2.62,2.62,0,0,0,.91,0,4.14,4.14,0,0,1,.66,0A4.26,4.26,0,0,0,158.63,446.76Z"/><path class="cls-4" d="M163.2,451.71c1.13,0,1.54.37,2.36-.26,1.65-1.09,1.22-3.21,2.56-4.63h0c-.17.16-.81.14-1,.29a9.18,9.18,0,0,1,1.33-1.1c-4.23.69-4.46,3.46-5.27,5.69"/><path class="cls-4" d="M163.07,451.66c.11-.3.21-.62.31-.95.63-2,1.33-4.22,5.06-4.83l.67-.11-.58.36a6.64,6.64,0,0,0-.88.69,1.06,1.06,0,0,0,.37-.11l.19.2a5.19,5.19,0,0,0-1.05,2.14,4.12,4.12,0,0,1-1.52,2.5,1.88,1.88,0,0,1-1.65.35,7.94,7.94,0,0,0-.79-.07H163Zm4.58-4.55a1.3,1.3,0,0,0-.42.11L167,447h0c.22-.2.51-.48.83-.74-3,.71-3.64,2.65-4.23,4.52-.08.26-.17.53-.26.78l.63.06a1.64,1.64,0,0,0,1.46-.31A3.86,3.86,0,0,0,166.9,449a6.41,6.41,0,0,1,.82-1.88Z"/><path class="cls-4" d="M156.43,455.91c-1.09-.3-1.57-.1-2.18-.94-1.26-1.52-.24-3.43-1.1-5.18h0c.11.2.74.37.85.57a9.37,9.37,0,0,0-.95-1.44c3.85,1.9,3.26,4.61,3.38,7"/><path class="cls-4" d="M156.39,456c-.3-.08-.56-.12-.78-.17a1.86,1.86,0,0,1-1.48-.81,4.13,4.13,0,0,1-.73-2.85,5.2,5.2,0,0,0-.38-2.36l.24-.13a1.13,1.13,0,0,0,.32.21,6.78,6.78,0,0,0-.64-.92l-.45-.52.61.3c3.39,1.67,3.41,4,3.43,6.1,0,.34,0,.67,0,1v.19Zm-2.27-5.74-.24.14a1.22,1.22,0,0,0-.37-.23l-.06,0a6.4,6.4,0,0,1,.23,2,3.87,3.87,0,0,0,.67,2.68,1.6,1.6,0,0,0,1.3.71c.19,0,.39.07.62.13,0-.27,0-.55,0-.82,0-2,0-4-2.73-5.56C153.77,449.69,154,450,154.12,450.3Z"/><path class="cls-4" d="M160.78,450.13c-2.25-1.33-1.15-3.21-.24-5.27,1.61,1.14,2.87,4.92.24,5.27"/><path class="cls-4" d="M160.71,450.25c-2.17-1.28-1.37-3.07-.51-5l.22-.49.07-.15.14.1a4.66,4.66,0,0,1,1.75,4.2,1.7,1.7,0,0,1-1.57,1.32h0Zm-.26-4.84c-.83,1.83-1.55,3.42.36,4.58a1.42,1.42,0,0,0,1.29-1.1,4.43,4.43,0,0,0-1.5-3.81Z"/><path class="cls-4" d="M158.69,456.25c-3-.59-2.47-3.06-2.26-5.65,2.18.64,5,4.27,2.26,5.65"/><path class="cls-4" d="M158.66,456.38c-2.84-.57-2.63-2.81-2.42-5.18,0-.2,0-.41.05-.62v-.17l.16,0a5.36,5.36,0,0,1,3.48,3.9,1.94,1.94,0,0,1-1.2,2l0,0Zm-2.15-5.15c-.21,2.33-.39,4.34,2.15,4.87a1.66,1.66,0,0,0,1-1.71,5.13,5.13,0,0,0-3.12-3.6Z"/><path class="cls-4" d="M161.12,454.67c-4.5-.88-1.28-3.94.65-6.53h0c.33,2,2.77,6.12-.65,6.53"/><path class="cls-4" d="M161.09,454.81c-1.3-.26-2.06-.71-2.3-1.38-.44-1.18.84-2.79,2.07-4.33.28-.35.55-.7.81-1l.19-.26.05.32a11.87,11.87,0,0,0,.47,1.66c.49,1.48,1,3.15.38,4.17a2.1,2.1,0,0,1-1.63.86h0Zm0-5.54c-1.18,1.49-2.41,3-2,4.07.21.57.89,1,2.08,1.2a1.8,1.8,0,0,0,1.41-.73c.58-.91.05-2.52-.41-3.94-.16-.5-.32-1-.42-1.39Z"/><g class="cls-9"><polygon class="cls-4" points="164.82 462.33 165.04 461.42 164.37 460.77 163.47 461.04 163.25 461.95 163.93 462.59 164.82 462.33"/><path class="cls-4" d="M164.21,461.42l.2.19-.06.27-.27.08-.2-.19.06-.27.26-.08m.15-.64-.89.27-.22.91.68.64.9-.27.22-.91-.68-.64Z"/></g><path class="cls-4" d="M167.22,458.57c.91-.36,3.1-.38,3.91-1.23.2,1.15.55,1.71-.34,2.64-.65.68-1.49.54-.79,1.42.52.73,2.11.68,2.64,1.57.87,1.21-.38,1.33-1.48.87,0,1,1.05,1.62,1.41,2.43-.67,0-1.87-1.18-2.31-1.74.19.74,1.22,1.53,1,2.36a1.42,1.42,0,0,1-2.07.56c-1.11-.71-1.52-3.17-2.3-4.21,0,0-.25.09-.16.09-.07.58.12,1.15.05,1.73-1.68-.28-.51-3-.79-4"/><path class="cls-4" d="M169.8,467.81a1.8,1.8,0,0,0,.76-.09,1.26,1.26,0,0,0,.83-.79,1.84,1.84,0,0,0-.46-1.48,3,3,0,0,0,1.65,1h.2l-.08-.19a4,4,0,0,0-.64-.93,2.94,2.94,0,0,1-.74-1.24c.63.22,1.35.28,1.64-.07.14-.17.21-.5-.21-1.09a2.63,2.63,0,0,0-1.49-.93,2.4,2.4,0,0,1-1.15-.63c-.17-.22-.25-.38-.23-.47s.16-.18.35-.29a2.87,2.87,0,0,0,.67-.5,2,2,0,0,0,.48-2.22c0-.17-.08-.35-.11-.54l0-.27-.19.2a5.08,5.08,0,0,1-2.55.89,8.12,8.12,0,0,0-1.31.31l.1.26a7.67,7.67,0,0,1,1.26-.29,6.26,6.26,0,0,0,2.51-.81l.07.32a1.73,1.73,0,0,1-.41,2,2.46,2.46,0,0,1-.6.44c-.23.14-.44.25-.48.47s.05.39.28.69a2.57,2.57,0,0,0,1.27.73,2.44,2.44,0,0,1,1.35.82c.26.36.33.62.23.76s-.87.19-1.53-.09l-.2-.08v.21a2.72,2.72,0,0,0,.82,1.62,6.19,6.19,0,0,1,.47.62,6,6,0,0,1-1.95-1.64l-.41-.53.17.65a3.24,3.24,0,0,0,.49.92c.31.45.62.92.5,1.37a1,1,0,0,1-.66.6,1.38,1.38,0,0,1-1.2-.12,5.21,5.21,0,0,1-1.42-2.41,8,8,0,0,0-.85-1.77l-.06-.08-.1,0c-.17.06-.29.11-.27.24v0a4.38,4.38,0,0,0,0,.82,4.93,4.93,0,0,1,0,.68c-.77-.23-.72-1.15-.57-2.4a4.44,4.44,0,0,0,0-1.48l-.27.07a4.29,4.29,0,0,1,0,1.38c-.14,1.13-.31,2.52.94,2.74l.14,0,0-.14a4.14,4.14,0,0,0,0-.9,4.22,4.22,0,0,1,0-.75,9.07,9.07,0,0,1,.74,1.6,5.34,5.34,0,0,0,1.52,2.54A1.5,1.5,0,0,0,169.8,467.81Z"/><path class="cls-4" d="M157,458.53c-1.13.13-1.12-.22-1.58-.38-2-2.23.63-4.76.26-7.12,1.41,1.86,4.22,5.59,1.32,7.5"/><path class="cls-4" d="M155.63,458.43a1.28,1.28,0,0,0-.29-.16h0l0,0c-1.24-1.41-.74-2.93-.25-4.4a6.17,6.17,0,0,0,.48-2.79l-.09-.54.33.44c1.09,1.44,2.91,3.86,2.57,5.86a2.73,2.73,0,0,1-1.28,1.84l-.06,0a3.38,3.38,0,0,1-.69,0h0A1.32,1.32,0,0,1,155.63,458.43Zm2.42-1.68c.3-1.72-1.17-3.84-2.23-5.27a7.79,7.79,0,0,1-.53,2.43c-.48,1.45-.93,2.83.17,4.11a1.55,1.55,0,0,1,.31.17,1,1,0,0,0,.54.21,3.25,3.25,0,0,0,.6,0A2.46,2.46,0,0,0,158.05,456.75Z"/><path class="cls-4" d="M156,458.65c-.77.84-1,.57-1.45.75-2.95-.4-2.63-4-4.46-5.55,2.29.49,6.85,1.47,5.91,4.81"/><path class="cls-4" d="M154.55,459.54c-1.86-.25-2.48-1.74-3.07-3.17A6.19,6.19,0,0,0,150,454l-.42-.36.54.12c1.77.38,4.73,1,5.77,2.75a2.72,2.72,0,0,1,.24,2.23l0,.06c-.58.63-.88.67-1.18.71a1.23,1.23,0,0,0-.32.07h-.07Zm1.13-2.93c-.89-1.49-3.46-2.15-5.14-2.52a7.72,7.72,0,0,1,1.19,2.18c.59,1.41,1.14,2.75,2.82,3a1.68,1.68,0,0,1,.35-.08c.25,0,.49-.06,1-.6A2.45,2.45,0,0,0,155.68,456.6Z"/><path class="cls-4" d="M161.75,458.36c-4.41.11-.63-5.47,1.25-6.72h0l.14.41c.37-.28,1-.65,1.37-.93-.54,2-.66,6.67-3,7.14"/><path class="cls-4" d="M159.64,457.43c-.53-1.68,1.85-5,3.29-5.91l.15-.1.14.41.54-.36c.24-.16.5-.32.68-.45l.32-.24-.1.39c-.12.46-.23,1.08-.34,1.73-.37,2.22-.84,5-2.56,5.47v.13a4.26,4.26,0,0,1-.57,0A1.6,1.6,0,0,1,159.64,457.43Zm1.9.7c1.67-.34,2.13-3.09,2.51-5.29.09-.5.17-1,.26-1.39l-.39.25c-.25.16-.5.32-.68.46l-.15.12-.14-.42c-1.36,1-3.51,4-3,5.49.18.56.73.86,1.66.87Z"/><path class="cls-4" d="M152.3,459.45c.3-1.17,2.79-.21,3.55.39-.73-.09-4.19,2.36-3.47-.62"/><path class="cls-4" d="M152.42,460.66c-.26-.22-.33-.63-.22-1.24h0a.89.89,0,0,1,.07-.18v0h0a.83.83,0,0,1,.47-.36c.91-.31,2.59.41,3.21.9l.38.3-.48-.05h0a3.54,3.54,0,0,0-1,.33,4.83,4.83,0,0,1-2,.53A.82.82,0,0,1,152.42,460.66Zm.4-1.57a.56.56,0,0,0-.32.24c-.13.58-.1,1,.1,1.12.38.32,1.39-.09,2.13-.4.3-.12.56-.23.77-.29A4.18,4.18,0,0,0,152.82,459.09Z"/><path class="cls-4" d="M150.07,459c-.06-1.32-3.08-1.27-3.78-1.38,1.09.49,1.44,2,2.75,2.13.9.13,1.12-.25,1-.75"/><path class="cls-4" d="M149,459.88a2.55,2.55,0,0,1-1.68-1.16,3.2,3.2,0,0,0-1.08-1l-.91-.41,1,.15.51,0,.75.06c1.11.11,2.59.38,2.63,1.38a.79.79,0,0,1-.15.7,1.05,1.05,0,0,1-.9.22Zm-2.16-2.08a5.57,5.57,0,0,1,.69.74,2.32,2.32,0,0,0,1.5,1.07h0a.92.92,0,0,0,.79-.12.56.56,0,0,0,.08-.49c0-.6-.81-1-2.39-1.14Z"/><path class="cls-4" d="M149.89,460s-3.12-2.6,1.15-4.35a3.62,3.62,0,0,1,1.57,4.8c2.53.21,3.07,1.76,1,2.73l-.19-.07c-.47-.51-1.44-.84-1.72-1.28-.34,1.58-1.13,3.85-3.43,2.37a13.1,13.1,0,0,1,.71-2.65,12,12,0,0,0-3.5-.54c-.35-2.83,2-1.91,4.21-1.09"/><path class="cls-4" d="M148.19,464.28l-.07,0v-.09a12.72,12.72,0,0,1,.67-2.54,12.14,12.14,0,0,0-3.33-.49h-.12l0-.12c-.11-.89,0-1.48.44-1.8.74-.58,2.16-.11,3.58.42a2.57,2.57,0,0,1-.69-2c.14-.87.92-1.61,2.32-2.18l.06,0,.06,0a3.75,3.75,0,0,1,1.71,4.8c1.24.14,2.07.63,2.19,1.3s-.38,1.22-1.34,1.67l-.05,0-.25-.09-.06,0a4,4,0,0,0-.85-.61,4.79,4.79,0,0,1-.69-.47c-.34,1.44-.86,2.29-1.57,2.58a1.55,1.55,0,0,1-.76.1A2.91,2.91,0,0,1,148.19,464.28Zm3.62-2.56a2.58,2.58,0,0,0,.79.6,4.41,4.41,0,0,1,.89.64l.11,0c.8-.38,1.22-.88,1.14-1.35s-.94-1-2.14-1.1h-.2l.09-.18a3.48,3.48,0,0,0-1.46-4.59c-1.27.53-2,1.18-2.09,1.94a2.8,2.8,0,0,0,1,2.15l-.18.21-.13-.12,0,.07h0c-1.39-.52-3-1.12-3.65-.59a1.57,1.57,0,0,0-.35,1.43,11.85,11.85,0,0,1,3.42.55l.12.07,0,.13a13.34,13.34,0,0,0-.68,2.51,1.85,1.85,0,0,0,1.68.32c.66-.27,1.15-1.17,1.47-2.65l.07-.33Z"/><path class="cls-4" d="M152.6,460.45c.11-1.24-.88-2.6-1.94-3.74,3.17-.68,2.48,3.3,1.94,3.74"/><path class="cls-4" d="M152.47,460.44c.09-1-.54-2.17-1.91-3.63l-.17-.18.24,0a1.84,1.84,0,0,1,2.44,1.19,3.42,3.42,0,0,1-.38,2.79l-.25.21Zm-1.54-3.64a6.26,6.26,0,0,1,1.8,3.14,3.72,3.72,0,0,0,.08-2.1,1.38,1.38,0,0,0-1.25-1.07A2.66,2.66,0,0,0,150.93,456.79Z"/><path class="cls-4" d="M149.89,460c.52-1.17,0-2.12.85-3.15-3.34-1-1.63,2.73-.85,3.15"/><path class="cls-4" d="M149.82,460.08a3.4,3.4,0,0,1-1.15-2.92c.11-.35.43-.75,1.31-.66a4,4,0,0,1,.79.17l.19.06-.13.16a2.63,2.63,0,0,0-.53,1.67A4,4,0,0,1,150,460l-.06.14Zm-.89-2.84a3.24,3.24,0,0,0,.9,2.5,4.13,4.13,0,0,0,.21-1.21,3,3,0,0,1,.47-1.66C149.61,456.64,149.08,456.76,148.93,457.24Z"/><g class="cls-9"><polygon class="cls-4" points="150.46 459.33 151.62 459.61 152.07 460.54 151.36 461.19 150.2 460.91 149.75 459.98 150.46 459.33"/><path class="cls-4" d="M150.64,460l.54.13.11.23-.11.1-.54-.13-.11-.22.11-.1m-.18-.71-.72.65.45.93,1.16.28.72-.65-.45-.93-1.16-.28Z"/></g><path class="cls-4" d="M162.47,461.53c-5-2-.6-4.89,2.23-7.47h0c-.07,2.41,1.85,7.76-2.23,7.47"/><path class="cls-4" d="M162.42,461.66c-1.45-.59-2.22-1.28-2.36-2.11-.24-1.46,1.6-3,3.37-4.56.4-.35.8-.69,1.18-1l.24-.22v.32a14.5,14.5,0,0,0,.17,2c.23,1.82.5,3.89-.49,4.93a2.47,2.47,0,0,1-2.07.63h0Zm1.2-6.46c-1.72,1.47-3.5,3-3.28,4.31.12.72.83,1.34,2.17,1.89a2.17,2.17,0,0,0,1.83-.55c.89-.94.64-2.94.41-4.71-.08-.64-.16-1.25-.18-1.77Z"/><path class="cls-4" d="M164.49,459.63c-2.82-2.14,3.51-5.2,5.14-5.53l-.95,1.38h0c.37,0,1.75-.08,2.12-.07-1.36,1.07-4.64,5.06-6.31,4.22"/><path class="cls-4" d="M164.4,459.73a1.56,1.56,0,0,1-.73-1.65c.45-2,4.67-3.87,5.92-4.12l.33-.07-1,1.44.79,0,1.06,0h.39l-.31.24c-.32.25-.76.68-1.27,1.18-1.44,1.4-3.41,3.32-4.76,3.18h0A1.2,1.2,0,0,1,164.4,459.73Zm5.35-4.16-1.07,0h-.26l.89-1.3c-1.55.46-5,2.2-5.36,3.82a1.29,1.29,0,0,0,.6,1.36,1,1,0,0,0,.33.09h0c1.23.13,3.14-1.74,4.54-3.11.37-.36.7-.69,1-.94Z"/><path class="cls-4" d="M162.68,460s-.25-2.52.89-2.85,2.05,2.3,2.05,2.3a10.45,10.45,0,0,0,3.38.18c-.44,1.08-.45,1.74-1.7,2.06-.91.23-1.9-.41-1.79.71.06.89,2.57,1.32,2.54,2.35.09,1.49-1.82,1.38-2.5.4-.5.85,2,1.15-.11,2.81-1.27-.65-1-2-1-2.71a4.3,4.3,0,0,1-1.12,2c-.59.51-2-.63-2.34-1.39-.56-1.19,1.9-3.06,2.28-3.89a8,8,0,0,0-1.17.35c-.37.46-.52,1-.88,1.49-1.27-1.13,1.15-2.76,1.48-3.81"/><path class="cls-4" d="M165.39,468A2.08,2.08,0,0,1,164.3,466a3.61,3.61,0,0,1-.9,1.34.72.72,0,0,1-.56.15,3.12,3.12,0,0,1-2-1.59c-.42-.89.63-2.05,1.47-3,.24-.27.48-.53.64-.74-.35.09-.67.18-.77.22a3.92,3.92,0,0,0-.42.72,4.2,4.2,0,0,1-.46.77l-.09.11-.11-.1c-1-.84-.06-1.94.66-2.82a4.47,4.47,0,0,0,.77-1.12c0-.3-.19-2.63,1-3a.88.88,0,0,1,.35,0c1,.1,1.71,1.93,1.85,2.34.19,0,.73.14,1.34.2a5.9,5.9,0,0,0,1.9,0l.26-.07-.1.25c-.08.18-.14.36-.2.52-.28.78-.49,1.34-1.6,1.62a2.94,2.94,0,0,1-1,0c-.3,0-.55,0-.66.07a.58.58,0,0,0-.07.45c0,.35.59.66,1.14,1,.7.38,1.42.78,1.41,1.39a1.18,1.18,0,0,1-.32,1,1.29,1.29,0,0,1-1.06.31,2,2,0,0,1-1.18-.55,1.18,1.18,0,0,0,.31.43,1.26,1.26,0,0,1,.48.94,2,2,0,0,1-.89,1.24l-.07.06Zm.28-3a1.66,1.66,0,0,0,1.18.66,1.05,1.05,0,0,0,.84-.23.91.91,0,0,0,.24-.75c0-.46-.64-.81-1.26-1.16s-1.25-.68-1.28-1.18a.8.8,0,0,1,.15-.67c.2-.2.51-.18.88-.15a2.77,2.77,0,0,0,.87,0c1-.24,1.12-.67,1.4-1.45l.11-.29a7.34,7.34,0,0,1-1.74,0c-.78-.08-1.44-.22-1.44-.22l-.08,0,0-.07c-.19-.59-.87-2.15-1.64-2.23a.63.63,0,0,0-.24,0c-.84.24-.86,2-.79,2.7V460a4.4,4.4,0,0,1-.82,1.24c-.8,1-1.33,1.72-.8,2.33a4.79,4.79,0,0,0,.33-.6,4.21,4.21,0,0,1,.43-.73c0-.09.13-.15,1.27-.44l.28-.07-.12.26a5.62,5.62,0,0,1-.86,1.09c-.79.87-1.77,2-1.42,2.69a2.83,2.83,0,0,0,1.77,1.43.46.46,0,0,0,.35-.09,4.17,4.17,0,0,0,1.08-2l.21-.64.06.67a4.44,4.44,0,0,1,0,.48,2,2,0,0,0,.86,2.07c.46-.38.7-.71.72-1a1,1,0,0,0-.4-.73c-.26-.27-.55-.58-.31-1l.11-.18Z"/><path class="cls-4" d="M165.62,459.42c.07-.84-.93-1.43-1.64-2.2,2.12-.46,2,1.89,1.64,2.2"/><path class="cls-4" d="M165.48,459.41c0-.55-.46-1-1-1.51-.2-.19-.41-.38-.6-.58l-.16-.18.23-.05a1.47,1.47,0,0,1,1.92.94,1.69,1.69,0,0,1-.16,1.5l-.25.22Zm-1.22-2.09.41.38a3.69,3.69,0,0,1,1,1.19,1.93,1.93,0,0,0-.06-.78,1.07,1.07,0,0,0-1-.8A1.72,1.72,0,0,0,164.26,457.31Z"/><path class="cls-4" d="M162.68,460a11.64,11.64,0,0,1,1.31-2.75c-2.58-.8-1.91,2.42-1.31,2.75"/><path class="cls-4" d="M162.61,460.09a2.44,2.44,0,0,1-.54-2.3c.24-.76.93-1,1.95-.71l.19.06-.13.16a6.78,6.78,0,0,0-1,1.89c-.11.28-.21.56-.33.83l-.06.14Zm-.27-2.21a2.5,2.5,0,0,0,.29,1.86c.09-.21.17-.42.25-.64a7.64,7.64,0,0,1,.87-1.8C163,457.12,162.51,457.31,162.34,457.88Z"/><g class="cls-9"><polygon class="cls-4" points="163.64 460.76 163.72 459.97 164.63 459.67 165.47 460.17 165.4 460.96 164.48 461.25 163.64 460.76"/><path class="cls-4" d="M164.56,460.27l.33.19v.08l-.34.11-.33-.19v-.08l.34-.11m.07-.6-.92.3-.08.79.84.5.92-.3.07-.79-.84-.5Z"/></g><path class="cls-4" d="M159.88,460.61c.37-2,3.9-.94,5-.09-1,0-5.76,4.81-4.9-.3"/><path class="cls-4" d="M160.21,462.56c-.41-.27-.55-.92-.42-2h0a1.51,1.51,0,0,1,.09-.31.81.81,0,0,1,0-.08h0a1.39,1.39,0,0,1,.8-.72c1.25-.47,3.41.25,4.29.94l.31.24h-.4a5,5,0,0,0-1.42.77c-1,.64-2.1,1.36-2.86,1.28A.91.91,0,0,1,160.21,462.56Zm.56-2.84a1.13,1.13,0,0,0-.67.62c-.17,1.09-.08,1.76.26,2,.59.38,2-.5,2.95-1.14a9,9,0,0,1,1.24-.73C163.67,459.91,161.85,459.31,160.77,459.73Z"/><path class="cls-4" d="M157.56,460.17c-.14-2.19-4.38-1.48-5.36-1.5,1.55.59,2.12,3.06,4,3,1.27,0,1.55-.64,1.41-1.46"/><path class="cls-4" d="M153.72,460.2a4.16,4.16,0,0,0-1.57-1.4l-.76-.29.81,0c.16,0,.42,0,.72,0a15.12,15.12,0,0,1,2.44,0c1.49.15,2.28.72,2.34,1.66a1.4,1.4,0,0,1-.23,1.2,1.6,1.6,0,0,1-1.31.43h-.31A3.39,3.39,0,0,1,153.72,460.2Zm-.78-1.43h-.22a6,6,0,0,1,1.22,1.24c.57.71,1.12,1.38,1.94,1.47h.28a1.36,1.36,0,0,0,1.1-.34,1.16,1.16,0,0,0,.17-1c-.05-.81-.74-1.28-2.09-1.42A14.88,14.88,0,0,0,152.94,458.78Z"/><path class="cls-4" d="M157.51,460.41c-3.23-.38.48-3.62,1.35-4.6.8.82,2.36,2.2,2.11,3.56-.13.63-1,1.14-1,1.66.11.94,1.14,1.11,1.77,1.52,1.47,1,2.14,2.42.06,3.22-1.44.43-2.33-.81-2.79-2.13-.19.82.26,1.62.16,2.42-.06,1-.87,1.38-1.51,2.19-1.45-1.32-1.44-2.54-.92-4.29-.55.79-1.11,2.38-2.43,2.09a2.43,2.43,0,0,1-1.6-2.43c.44-1.74,3.57-2.2,4.79-3.2"/><path class="cls-4" d="M157.57,468.35a3.38,3.38,0,0,1-1.19-3.53c-.43.72-1,1.49-1.91,1.39h0l-.19,0a2.16,2.16,0,0,1-1.29-1,2.25,2.25,0,0,1-.42-1.59c.3-1.18,1.75-1.8,3-2.34a11,11,0,0,0,1.54-.74,1.25,1.25,0,0,1-1-.71c-.35-1,1.16-2.54,2.15-3.56l.47-.5.1-.11.1.11.24.24c.85.85,2.15,2.14,1.91,3.44a2.17,2.17,0,0,1-.56.91c-.22.26-.43.5-.43.71.07.62.59.86,1.13,1.12a4.72,4.72,0,0,1,.57.3c1,.64,1.5,1.41,1.43,2.09,0,.4-.32,1-1.4,1.38s-2.1-.27-2.73-1.65a6,6,0,0,0,.1.67,3.77,3.77,0,0,1,.1,1.15,2.45,2.45,0,0,1-.94,1.62,6.93,6.93,0,0,0-.6.65l-.09.12Zm1.57-4.75c.26.74.86,2,1.94,2.12a1.78,1.78,0,0,0,.67-.07c.75-.29,1.17-.69,1.22-1.15s-.43-1.25-1.31-1.83a4.45,4.45,0,0,0-.54-.29c-.56-.27-1.19-.57-1.29-1.34a1.45,1.45,0,0,1,.49-.91,2,2,0,0,0,.5-.78c.21-1.16-1-2.38-1.83-3.19l-.14-.14-.38.4c-.83.85-2.39,2.45-2.09,3.28.11.31.49.51,1.14.58l.32,0-.25.2a8.1,8.1,0,0,1-1.87,1c-1.29.55-2.61,1.11-2.88,2.15a2,2,0,0,0,.38,1.38,1.92,1.92,0,0,0,1.11.88l.16,0c.86.09,1.36-.76,1.79-1.51.12-.2.22-.38.33-.54l.49-.71-.25.83c-.5,1.67-.52,2.82.77,4.05.17-.21.35-.38.53-.55A2.22,2.22,0,0,0,159,466a3.48,3.48,0,0,0-.09-1.07,3.3,3.3,0,0,1-.06-1.36l.1-.47Z"/><path class="cls-4" d="M160.13,460.48c.17-1.08-.74-2.23-1.35-3.17,2-.75,3,2.09,1.35,3.17"/><path class="cls-4" d="M160,460.46a4.21,4.21,0,0,0-1.06-2.66l-.27-.41-.09-.14.16-.06a1.89,1.89,0,0,1,.86-.12,1.72,1.72,0,0,1,1.45,1.38,2,2,0,0,1-.83,2.16l-.26.17Zm-1-3.07.17.25a5.13,5.13,0,0,1,1.13,2.54,1.74,1.74,0,0,0,.48-1.68,1.45,1.45,0,0,0-1.21-1.17A1.52,1.52,0,0,0,159,457.39Z"/><path class="cls-4" d="M157.51,460.41c-2.38.13-.81-2.74.48-3.62h0a3.55,3.55,0,0,0-.48,3.62"/><path class="cls-4" d="M156.17,459.84c-.25-1,.87-2.57,1.74-3.16l.78-.53-.6.73a3.42,3.42,0,0,0-.47,3.46l.13.2h-.24a2.4,2.4,0,0,1-.4,0h0A1,1,0,0,1,156.17,459.84Zm1.24-2.33a3.16,3.16,0,0,0-1,2.27c.07.29.31.46.71.5h.13A3.61,3.61,0,0,1,157.41,457.5Z"/><g class="cls-9"><polygon class="cls-4" points="157.81 461.14 157.88 460.35 158.8 460.05 159.64 460.55 159.56 461.34 158.65 461.63 157.81 461.14"/><path class="cls-4" d="M158.73,460.65l.33.19v.09l-.34.11-.33-.19v-.08l.34-.11m.07-.6-.92.29-.08.79.84.5.92-.3.07-.79-.84-.49Z"/></g><g class="cls-8"><path class="cls-4" d="M437.78,211.85c2.14,16.19-58.58,39-54.15,38.94,33-.66,86.61-16.35,87.4-30,0-.74.81-1.79,1.93-3,1.5-1.69,10.28,4,18.47-2,2.08-1.52.46-7.21-2.26-10.37-1.28-1.48-6.48-3.48-7.65-5.19-4.17-6.09,6.28-9.7,3.63-13.91-12.44-19.74-47.29-39.35-67.24-43.08-6.64-1.24,39.18,22.13,36.5,36.45-.55,3-11.12,6.49-26.55,2.55-15.65-4-33.83-14-47.56-22.43-4.47-2.74-11.54-5.27-17.32-5.27-2.63,0,39.55,15.45,43.09,26.06.63,1.88-13.67-.51-27-4.61-12.23-3.77-23.61-9.31-22.28-7.1,1.17,1.94-1.59-1.37,1.28,1.18C368.64,179.35,434.49,186.92,437.78,211.85Z"/><polygon class="cls-4" points="489.4 216.94 493.28 217.67 491.95 214.04 489.4 216.94"/></g><g class="cls-8"><polygon class="cls-4" points="215.23 102.6 164 107.38 213.86 105.34 215.23 102.6"/><polygon class="cls-4" points="216.22 110.24 166.5 123.46 213.99 108.14 216.22 110.24"/><path class="cls-4" d="M236.41,118.75a26.2,26.2,0,0,1-9.44,5.92,175,175,0,0,1-26.29,6.78c-2,.37-4,.78-6,1.08-.53.08-3.8.42-3.8.42,3.93-3.85,23.22-12.11,26.33-15,4.46-4.13,2.8-8.69,2.57-14.12,0-.85.69-7,.13-7.53,0,0,4.43,4,5.66,5.23,1.4,1.36,8.83.74,10.76.86,2.64.16,5.28.25,5.56,3.19C242.38,110.69,240,115.26,236.41,118.75Z"/><path class="cls-4" d="M233.44,87.87c-3.13-2.28-6.65-3.13-10.43-3.62a172.42,172.42,0,0,0-27.21-1.14c-2,.06-4.09.08-6.13.21-.53,0-3.8.38-3.8.38,4.5,3.68,25.25,6.94,28.9,9.1,5.23,3.09,4.56,7.9,5.48,13.26.15.84,2.16,6.72,1.71,7.33,0,0,3.49-4.84,4.44-6.31,1.09-1.62,8.47-2.58,10.34-3.11,2.54-.72,5.11-1.36,4.76-4.29-.51-4.28-4.67-9.33-8-11.77Z"/><path class="cls-4" d="M211.31,103.26a38.66,38.66,0,0,0,9.91-3.71,30.06,30.06,0,0,1,17.66-4.39c2.1.18,2.32,3.71,2.67,4.84s1.17,3.31-.39,4.39a35.63,35.63,0,0,1-18.19,6.2c-3.45.26-7.92-.35-11.25.56C209.58,111.72,208.73,103.91,211.31,103.26Z"/><path class="cls-4" d="M208.27,106.72c-.67-1.37-5.56-2.67-2-3.25,3.4-.56,12-1.6,12-1.6-9.64,4.5-6.94,7.22,1.77,6.94,0,0-9.53,3.95-12.71,3.25-.71-.15,1.4-1.26,1.35-3.33A5,5,0,0,0,208.27,106.72Z"/><path class="cls-4" d="M251.35,97.64c.61,2.91-1.81,5.88-5.39,6.63s-6.93,1.52-8.11-3.86c-1.21-5.6,2.31-5.92,5.9-6.67S250.73,94.73,251.35,97.64Z"/><polygon class="cls-4" points="253.49 98.05 249.78 96.91 250.19 99.77 253.49 98.05"/><path class="cls-4" d="M248.73,94.57a.7.7,0,1,0,.3,1.38.7.7,0,1,0-.3-1.38Z"/><circle class="cls-4" cx="249.83" cy="100.76" r="0.7" transform="translate(-15.85 56.27) rotate(-12.46)"/></g><path class="cls-10" d="M1465.65,374.26c-1.76.14-3,1.29-1.92,2.72,9.41,12,20.67,21.65,36.47,22.95,5.92.48,9.86,7.5,18.07,2-2.71,3.46-3.78,4.85-4.71,6,1.49,6.09,7.6,8.26,10.77,13.36-11.61,2.08-14.58-13.12-26.08-11.12,1.7,6.1,4.51,11.87,9.56,13.69,7.22,2.62,9.46,9.13,13.85,13.84,1.67,1.79,5.86,3,4.37,7.9-16.24-8.37-29.42-21.5-48.39-25.42,7.68,8.2,14.75,15.91,22.3,22.22.16,4.83-4.35,3.37-6,6.1,8.12,6.95,17.81,11.06,28,16.3-10.76,5.88-19.09-6.34-29.65-2.8,5.38,5,11.28,6.61,15.1,8.53,3.68,4.29-2.9,4-.68,7.78,4,2.85,8.81,1.07,13.61.29,2.89-.48,5.77-.35,4.78,4.65-3.92.75-8.53-2-11.84,2.29-.8,1-4.06.38-6.16.17-10.53-1.06-21-1.85-31.35-5-15.46-4.67-30.3-9.72-40.3-23.7-2.62-3.65-6.57-6.52-10.34-9.12-6.62-4.57-13.89-6.5-23-3.32,11.8,11.58,21.51,24.09,34.39,33.36,4,2.86,8.4,5.91,13.47,6,10.58.18,19.64,5.95,29.82,7.45,4.14.61,5,3.57,3.78,7.17-1.6,4.83-5.4,6.31-10.19,3.26-5.1-3.23-10-7-15.8-8.55-9.29-2.47-19.32-1.81-28.49-8,.6,5.08,1.55,8.32,4.45,10.49,18.55,2,24.17,4,31.91,11.19-8.56.8-16.68-5.46-26.45-2.25,7.93,6.85,17.61,6.68,25.9,10.78-5.94,4.55-6.14,5.07-9.64,3.76-6.93-2.62-14.46-3.74-20.68-8.21-2-1.44-4.07-2.36-5-5.08-2.4-6.66-6.62-12.43-9.07-19.2-2.37-6.58-4.66-13.34-8.43-19.42-8.28-13.31-19.48-15-32-5.88-13.92,10.2-16,24.66-14.87,39.79,1.58,21.91,5,43.65,8.54,65.36,2,12.38,7,23.2,16.07,31.56,5.08,4.68,16.63,11.54,13.59,15-3.59.22-19.7-4.58-22.41-5.49-9.35-3.17-18.91-3.85-28.21-.47-5.64,2-50.48,12.24-52.19,6,3.35-4.13,20-25.11,20.5-29.25a362.48,362.48,0,0,0,2.52-44.56c-.18-20.08-2.22-40.28,2.69-60.18.83-3.38,1.22-7.56-1.07-10.35-5.84-7.17-13.21-11.06-23.06-10.56-9,.47-12.69,6.31-14.45,13.22-2.78,10.92-7.17,21.57-7.07,33.11.06,6.25-2.76,10.56-8.11,13.93A169.28,169.28,0,0,1,1251,530c-3.32,1.47-7,3-10.69.87.09-3.44,2.63-4,4.45-4.46,7.8-2,13.72-7.28,20.52-11,6.49-3.57,8.4-9.07,6.33-15.51-3.56-2.7-6.66.53-9.85-.78-10.6-4.35-18.62-.32-24.88,8.3-3.63,5-8.54,7.83-14.45,7-7.05-1-14.09-.45-21.11-1-2.45-.18-4.74-.66-5.26-3.72,3.64-2.43,7.29-.84,10.69-1.32,3.85-.54,7.78-.4,11.68-.66,10.94-.75,16.7-5.46,20.58-17a69.49,69.49,0,0,1-18.81-2.77c-8.87-2.53-17.42-2.59-25.16,5.58-9,9.47-21.28,7.18-32.82,5.77,9.68-4.69,21.63-3.53,30-12.08-2.43-2.23-5-.89-7.17-3.8,4.2.25,7.61.75,11,.61,11.32-.46,22.55-.74,33.75,1.83,3.57.82,7.75.87,11.19-2.25-1.66-5.23-5.47-8.13-10.35-9.8-2.69-.92-5.42-1.53-7.44-3.83-2.88-3.27-6.38-3.6-10.63-2.67-13.39,2.92-26.79,6.32-40.71,3.88-1.8-.32-4.47.85-4.49-3l20.22-2.16c-2.86-2.76-7,.5-8.17-3.76,4.43-1.63,8.79-1.39,13.49-.77,11.93,1.56,20.84-3.87,27.88-13-2-2.87-4.34-1.89-6.29-1.94a55.11,55.11,0,0,0-12.69,1.07c-11.77,2.4-17.65,2.19-27.3-.51,16,1.65,30.57-5.48,46.06-7.18a17.5,17.5,0,0,0,11.7-6.9c4.19-5.58,9.85-7.42,16.58-8.14,4.87-.52,10.39-.45,14.81-4.93-3.71-2.93-6.73-5.78-10.72-6.76-13.4,9.56-17.7,10.31-23.48,4.3,12.54-3.92,12.54-3.92,16.67-10.07a9.67,9.67,0,0,0-2.8-5.72c-5-5.64-8-5.34-12.12,1-2.72,4.14-5.66,8.11-7.5,12.81a12.56,12.56,0,0,1-3.81,5c-5.7,4.51-24.72,4.9-32,.84,1.81-3,5-2.16,7.57-2.5,3.87-.49,7.85-.19,11.69-.83,5.15-.87,10.06-2.47,10.95-9.33-8.09-1-15.67,6.47-23.21-1.28,8.23,1,15-4.87,22.93-2.09,2,.69,4.62-1.74,5.73-4.13,1.61-3.42,4-6.62,3.82-11.46-8,.1-15.82-.08-23.56.4a62.73,62.73,0,0,0-12.45,2.54,52.67,52.67,0,0,1-26.32.41c-2.32-.54-3.93-1.52-4.72-5.1,21,5.57,35-4.56,47.54-19.54-3.8-2.79-6.46-3.66-9.88-2-4.76,2.33-9.73,4.24-14.63,6.26-2.47,1-4.85,1.43-6.13-1.76,8.52-2.26,16.32-5.62,22.09-13.08,7.5,2.93,15.46,3.31,24,3.46-.39-8.64-4.75-14.52-9.37-20.48-5.06-.2-10,.5-14.87-1a10.07,10.07,0,0,0-8.25,1.27c-8.93,5.7-15,.49-23.15-5.93,7.53,1.38,13,4.82,19.07,1.53-4.59-6.53-12.66-7.52-17.39-14.39,8.92-6.58,18.84,2.31,27.44-2.53-2.64-5-9.4-4.11-12.53-8.92,4.78-.5,8.44,3.47,12.46,1.08.78-2-2.07-2.85-.73-5.14,3,1.82,6,3.56,9,5.42,3.16,2,6.8,3.19,10.17,1.94a192.52,192.52,0,0,0,26.75-11.78c-6.59-5.39-11.81-11.43-19.19-9.65-9.25,2.24-15.64-1.64-22.31-6.17,6.95,1.52,13.69,3.18,20.85.65,3.86-1.37,7.47,0,11.1,2.06,5.13,2.92,10.14,6.39,16.2,7.33,4.79-4.57,5.58-9.66,4.26-16.17-5.08,4.21-10.13,3.66-15.65,3.14-7.16-.68-13.34-5.16-20.69-4.54-2,.18-4.39.61-4.52-2.44,11.6-8,23.21,4.87,35,.09,1.12-4.63,3.8-9.14-1.48-12.66-4.85-3.22-9.68-6-15.45-1.21-4.28,3.54-9.63,4.59-15.1,3.87-5.7-.74-10.27-3.19-12.65-10.4,10.17,3.55,19.48,8.94,27.42-1.41-6.58-8.55-10.83-18.37-21.63-21.94a3.94,3.94,0,0,1-2.06-6.16c2.23-3.54,5.16-2,7.22-.12,5.42,5.06,11.87,8.95,16.46,15a66,66,0,0,0,8.54,9.45c6.75,6,11.79,6.26,18.92,1.43-1.8-5.58-3.79-11.23-5.42-17-1.78-6.28-1.11-6.85,6.79-6.44,1.6,6.28-3.07,14.33,5.06,19.58,2.92-3.51,7.5-3.93,11.42-6.93a118.41,118.41,0,0,0-2.86-28.69c-10.52,14.16-21.26,13-32.91,4.86,1.8.11,3.31-.16,4.52.33,9.54,3.85,16.88.33,22.3-7.3,7-9.83,15.68-16.27,28.15-15.86-.42-7.76-7.41-7.79-10.73-11.52-3.94-4.42-7.88-3.3-12.31-.79-6.88,3.9-10.72,9.87-13.75,17-2.17,5.08-4.42,11.53-10.23,12.94-7.44,1.8-15.41,2.84-23-.64-2.56-1.18-5.21-2.23-5.82-5.53,26.87,1.45,26.87,1.45,30.89-5.75-2.62-3.05-5.87-3.53-9.58-2.33-3,1-6.07,2.06-9.17,2.83-5.79,1.42-10.14-.45-13.27-6.17,6.07-1.42,11.87,1.87,17.15-1.34,6.46-3.93,13-4.25,19.8,1.36,1.76-10.93,12.55-13.07,16.91-21-10.67-5.78-25.32-.73-32-14.75,9.43,3.61,18.56,6.47,28.31,5.89,3.1-.19,5.21,2,7.83,2.92,5.79,2.1,10,7.13,16,9.36,1.37-5.14-.79-9.17-1-13.38-.16-3.75-3.66-7.52,1.45-12.78,1.81,24.11,10,44.55,22.38,64.23,2.58-5.81,2-11.61,4.45-16.84,5.25-11.38,4.19-22-6-30.75-3.94-3.38-5-8.37-5.8-13.34-.35-2.22-.94-4.2,2.71-4.84,2.31,6.67,4.15,14,12.62,16.72.64-3.34,1-6.14,1.72-8.87.62-2.41.82-5.17,5.07-8.73-.87,26.84-1.2,51.24-8.57,75.14,7.92-6.23,13.64-13.87,18.78-21.81a18,18,0,0,0,3-12.21c-1.48-10.57,1.37-21.18-.57-31.83-.7-3.82,1-8.13,3.2-11.66.64-1,2.37-1.51,4.35-.76,4.13,4.4,7.76,10,13.32,13.9,2.8-6-1-11.89.92-19.42,3.07,6.71,5,11.89,3.71,17.15-2.17,8.5.59,14.68,7.21,19.85,5.27-6.84,7.81-14.19,5.71-22.9-.91-3.77-1.06-7.75,2.51-10.48,7.91,15.43,3.49,28.8-7,41.06-1.68,2-3.08,3.93-3,6.6.27,7.83.59,15.65.95,24.76,2.86-2.07,4.15-3.3,5.68-4.06,8.85-4.35,11.47-11.35,10.64-21-.6-6.95.76-14.06,1.32-21.1.16-1.94,1.13-3.28,4-3.24,4.78,5-1.9,12.12,2.38,17.91,8-1.71,10.85-8.29,13.95-16.41,1.42,13.1-6.65,17.07-15.45,21.12,1.83,12.19-3.45,21.11-13.79,27.41-1.49.91-2.65,2.35-4.07,3.4-4.21,3.12-5.95,7.3-6.2,13.76a25.29,25.29,0,0,1,11.29-5.9c7.47-2.06,14-5.32,19.84-11.25,8.33-8.48,18.95-12.05,31.23-8.19,6.13,1.92,12.49,2.27,18-2.28,1.74-1.43,3.67-2,5.65-.64-1.95,8.7-6.85,13.56-15.8,16.2a31.11,31.11,0,0,0-18.69,14.53c13.67,11.54,18.54,10.79,26.41-3.64.68-1.25.94-2.89,1.91-3.77a3.93,3.93,0,0,1,5.75-.07c1.17,4.58-6.12,6.17-3.89,11.53,8.8-6.28,10.32-18.63,19.26-24.76,2.91,3.34,3.29,6.12,1.07,7.74-4.26,3.11-6.05,7.81-8.82,11.86-8.16,11.93-18.09,20.93-33.49,21.51-.88,0-1.08.68-.18,2.35,3.87,2.17,8.64,4.31,12.93,7.4,5.46,3.93,9.06,2.21,12.07-4.44.86-1.91,1.26-4.14,4.45-4.9,8.74,3.14-2.22,9.56,1.59,13.51,4.18.75,6.49-1.82,8.68-4.8,3.57-4.85,7.29-9.59,10.89-14.42,2-2.73,4.37-4.28,8.76-3.23-2.77,7.46-8.92,11.48-12.59,17.21a34.4,34.4,0,0,1-16,13.18c5.92,5.06,12.58,2,19.1,3.15-3.38,4-7.44,3.92-11.21,4.38-4.68.56-8.9-1.08-12.59-3.87-1.62,2.66-5.13,2.58-5.15,6.37,2.6,1.16,5.69,2,8.14,3.74,8.06,5.68,16.28,5.78,25.24,2.29,5.42-2.12,11.26-3.54,17.54-1.08-3.62,4.85-9.39,6.49-13.88,10.88,7.68,4.69,16.72,5.83,25.6,12.7a86.1,86.1,0,0,1-29.92-7.33c-2.35-1-4-2.14-6.7-1.13a44.84,44.84,0,0,1-19.91,2.39c-2.06-.17-5-1-6.47,3.18a186.79,186.79,0,0,0,30.7,7.85c6.46,1.06,12.89,2.33,18.38,6.23a3.55,3.55,0,0,1,1.41,3.76,4.08,4.08,0,0,1-3.72,3.28,8.58,8.58,0,0,1-4.07-.86c-9.47-4.1-15.68,1.24-23.95,8.29,7,1.53,10.31,5.69,14.26,9.07,3.47,3,7.77,4.67,12.8,3.56,7.35-1.62,13.41,2.14,19.64,4.72-.39,1.92-1.4,2.47-2.41,2.61-1.37.19-3.29.58-4.1-.11-5.48-4.7-11.18-1.83-17.7-1.36,3.58,6.84,10.14,8.59,15,12.36,5.28,4.09,12.18,5,17.35,9.43A51.62,51.62,0,0,1,1496,372.13c-10.86-8.69-21.29-17.1-36.18-16.4a5.35,5.35,0,0,1-2-.61c-5.75-2.24-8.49.75-10.47,5.8,4,2.16,8.08,3.73,11.39,6.27,2.56,2,7.07,2.59,6.69,7.35Zm-37.71-16.07c-.16-3.9-1.3-6.71-3.37-10.69-5.34,11.14-13.92,19.08-18.63,29.61-6.18,1.06-8.54,6.71-12.54,10,.09,4.12,3.5,2.94,5.8,5.79,1.61-6.55,7.76-9.44,6.52-16C1414,371.43,1419.67,363.07,1427.95,358.19Zm-110.08-22c-3.7-19-7.44-38-9.86-57.25-1.76-14-6.82-27-24.2-30.64-1.22,7.79-4.31,14.19-10.74,19.27-3.77,3-4.28,8.85-4.09,13.86a59.27,59.27,0,0,0,14.39,36.91c9.6,11.36,18.59,23.29,28.67,34.2,3.17,3.43,4,8.21,9,12C1322.64,353.93,1319.58,344.94,1317.87,336.19ZM1316,265.68c.82,11,10.09,39.31,16.33,50.09,3.13-.08,3.79-3.23,4.47-4.92,7-17.67,13.71-35.51,16.86-54.39,1.46-8.77-4.46-17.39-14.23-20.85-4.94-1.74-10.14-2.74-15.83-4.24C1315.75,242.45,1315.11,253.92,1316,265.68Zm-63.52,218.46c5.17,3.81,17.41.22,20.47-5.52a46.89,46.89,0,0,0,3.64-8.78c4.54-15.54,13-23,28.45-24.72,1.73-.2,3.49-.6,4.49-2.37.28-2.42-1.36-3.81-3-5.22-6.2-5.48-13.63-8.86-21.26-11.55-9.6-3.4-16.83.41-19.79,10.18a46.45,46.45,0,0,1-14,21.79c-5.82,5.18-11.84,9.07-20.37,6.31-.18.69-.37,1.36-.56,2C1237.83,472.27,1244.89,478.55,1252.46,484.14Zm133.85-114.27c3.15-.94,5.24-5.43,7.82-8.29,9.05-10,15.58-21.53,20.79-33.87,1-2.49.62-4.7-.32-7.14A51,51,0,0,0,1401.93,302c-5.35,1.19-5.53,4.88-5.34,8.42.32,6.14-1.57,11.88-2.6,17.79a21.06,21.06,0,0,1-10.59,15.09c-4.57,2.7-9.2,5.26-13.69,8.1-7.85,5-14.19,10.66-11.09,21.47.83,2.91.46,6.16.71,10.35C1369.73,379.18,1377,372.64,1386.32,369.86Zm4.22-54.82c.51-18.06.61-18.14,18-21.07a103.09,103.09,0,0,1,20-1.74c9.9.24,17.14-5.29,21.94-14-11.38-8.46-33.83-16.83-42.28-15.37,4.8,10.05,13.56,15.78,22.33,22.39-5.41,2.17-8-1.65-10.47-3.88-4.53-4-9.55-7.23-14.34-10.84s-7.45-2-10.11,2.15c2.45,2.57,5.82.43,8.64,2.37-3.37,5.19-9.58,2.15-14.13,6.69-1.7,5.1-5.25,11.47-1.84,18.63-12.86,10.74-10.62,27.05-16.3,41.29C1386.29,338,1390.17,327.83,1390.54,315Zm68.62,91.7c-4.78,1.13-6.6-1.09-8.09-4.08a17.89,17.89,0,0,1-2.36-8.11,18,18,0,0,0-6.15-14.11c-7.74-7.15-14.62-6.47-19.72,2.57-2.07,3.66-3.62,7.61-5.33,11.25,11.65,15.95,30.33,20.44,47.18,30.72-9.33,2.06-15.81-3.87-23.27-3,4.56,10.19,15.75,19,29.54,23.42,1.54-11.43-4-21.46-6.18-32.15-1.61-7.86-2.2-15.87-6.24-23-1.33-2.37-2.22-5.09-6.13-6.36C1454.88,391.68,1452.29,400,1459.16,406.75Zm-58.13,30c19-2.88,32.39,6.11,43.86,20,8,9.65,11.68,11.58,21.18,13.23-13.73-12.08-20.69-28.68-32.18-41.86-6.44-7.38-11.49-16.09-21.66-21.8-6,9.26-9.28,19.44-13.62,29.45C1400.41,436.46,1400.74,436.75,1401,436.71Zm-127.78-31.38c6.51-16.18,19.5-24.7,36.7-27.8-2.48-10.65-10.57-13.49-18.82-15.24-7.53-1.6-13.16,2-18.15,8a42.78,42.78,0,0,0-10.14,30.87C1266,403.81,1268.85,405.68,1273.25,405.33ZM1325,434c2.35-10-.19-18.64-.91-27.22-.42-5.09-5.64-6.92-9.38-9.46-5.1-3.46-11.19-5.44-16.94-4.41a13.48,13.48,0,0,0-11.18,11.32c-.38,2-4.25,2.67-3.43,6.66C1296.3,418.9,1313.64,420.19,1325,434ZM1374,294.41c-4.6-5.24-7.44-10.54-12.82-13.58-7.34,10.53-18.09,53.64-16.36,67C1360.65,332.65,1362.54,311,1374,294.41Zm21.39,104.72c-10.84-3.39-13-3-18.81,5.07-5.35,7.43-10.87,14.79-13.25,23.94-1,3.77-2.34,7.38-.62,12.71C1384.89,435.14,1391.67,418.35,1395.36,399.13Zm-136.85-50.92c-4.7,7-9.05,14.39-17,19a27.64,27.64,0,0,0,7.49,13.05c12.27-11.35,22.14-25.62,39.42-32.15C1277.13,336.13,1266.14,336.77,1258.51,348.21ZM1398,255.94c-.88-7.38-3.65-13.07-10.18-16.64-5.56-3-10.69-2.55-15.23,2-6.39,6.42-7.2,10.5-3.29,16.68s7.51,9,16.56,12.66C1393,267.38,1393.37,259.86,1398,255.94Zm-42.78-23.69c7.47-10.54,7-29.11-8.11-39-1.41,12.12-11.16,19.1-17.28,29.8C1339.17,226,1346.1,232.15,1355.23,232.26Zm-96,199.67c-11.6-1.9-21.21.5-27.94,11-3.93,6.11-8.22,12-12.47,18.13C1240.87,464.17,1254.88,454.11,1259.28,431.92Zm-26.91-117,8.28,8.34c11.15-4.65,22.18,4.31,35.24,5.23C1263.18,307.22,1251.68,304.87,1232.37,314.92ZM1295,203.77c-5.48-1.11-10.91-2-15.87,3.08,2.87,9.58-.07,20.25,4.58,30.47C1294.93,226,1297.22,218.86,1295,203.77Zm123.47,30c5.36-6.69,12.92-10,18.93-15.69-14.92-7.31-23-5.8-34.53,7.1Zm-58.37-50.26c-.58-2.48-1.22-4.81.14-7.16,3.21-5.57.2-10.48-2.34-14.86s-6.53-8-10-12.19c-2.46,2.62-.61,4.76-.16,7,1.19,5.89,3.25,11.82,3.14,17.71-.19,10.36,4,18.27,12.21,24.93C1362.11,193.79,1361.29,188.62,1360.1,183.53ZM1288,240.6c5.57,2.86,9.47,7.4,15.71,9.22,1.13-8.58,2.33-16.49,3.17-24.44.5-4.68.17-9.3-6.29-12C1301,224.79,1294.78,232.46,1288,240.6Zm152.69,55.64c-8,2.25-15.8,2.44-23.83,3.23,14.49,6.44,29,11.85,45.37,3.53C1456.11,297,1448.06,294.15,1440.66,296.24Zm5.89,46.81c4.3-1,6.3-4.32,8.93-6.88-8.52-11.64-14.09-12.55-23.47-3.79C1435.48,338.68,1440.89,341.08,1446.55,343Zm-216.4-.09c1.65,6.42,5.05,10.7,8.62,15.37,9-1.5,9.72-9.83,15-16.52A91.3,91.3,0,0,1,1230.15,343ZM1228,382.84c.74-5.05-.28-9.2-4.67-10.81s-9.09-.93-12.23,3.4c-1.78,2.46-5.19,3.66-5.79,7.93C1213,385.44,1220.33,382.16,1228,382.84Zm259,89.43c-12.78-20.61-9.92-17.76-26.59-20.89C1465.05,463.65,1476.38,466.63,1487,472.26Zm-104.57-195c-4.78-5.51-10.75-8.14-17.29-12.11-.56,10,4.87,15.39,10.66,20.74C1379.18,283.6,1380.06,280.12,1382.42,277.23Zm10.17-46.5,12.23,19.19c3.5-4.06,6.8-7.09,6.72-12.44C1407.21,231.93,1400.77,232.21,1392.59,230.73ZM1262.17,333.95c-11.07-7-19.56-4.23-29.93,2C1243.38,339.18,1252.11,338.59,1262.17,333.95Zm159.07-15.59c5.14-1,8.51-5.08,13.67-6.18-6.93-2.11-12.06-7.61-21.13-7.4C1416.74,310.19,1418.92,314.16,1421.23,318.36Zm-215.45,7.53-17.68,2.79c7.9,5.5,15.61,5.33,23.89,3.94C1212.75,326.45,1210.12,325.2,1205.78,325.89Zm260.34,19c-2.8-.12-4.5,1.22-5.63,4.42,2.91,2.08,5.95,3.72,10.62,3.15A13.93,13.93,0,0,0,1466.12,344.86Zm-193.49-93.24c-4.75,2-9.46,2.73-8.53,10.25C1270.63,258.16,1270.62,258.15,1272.63,251.62Zm209.65,188c-1.84,2.44-1,4.52.65,6.72a11.51,11.51,0,0,0,8-1.62C1487.9,441.6,1485.45,440,1482.28,439.59ZM1254.57,300.81c6.52.73,6.52.73,4.2-8A14.34,14.34,0,0,0,1254.57,300.81Zm3.3,80.41c-6.11,4.14-6.11,4.14-2.88,10.6C1256.17,387.46,1256.94,384.61,1257.86,381.21ZM1231,327c-4.12-2.92-4.12-2.92-10.65-3.25C1224,327.92,1226.91,329,1231,327ZM1439,348.77c-.14-2.59-2.51-2.87-4.22-4-4.68,2.05-2.08,4.78-1.31,7.49C1436.34,352,1437.93,350.85,1439,348.77Z"/><path class="cls-4" d="M0,536.28a79.9,79.9,0,0,1,16.35,7.27c2.39,1.33,4.77,2.71,7.12,4.09s4.39,2.56,6.54,3.77c2.62,1.47,5.2,2.82,7.7,4,2,.9,3.91.87,5.8,1.43,2.48.74,5.06,2.29,7.71,3.09L55.13,561l3.6,1.06c2,.59,2.09,1.41,4.13,2,1.41.41,4.74.59,6.17,1l2.7.77c.9.25,1.8,1.29,2.7,1.54,1.81.51,3.63.23,5.45.73q3.38.93,6.76,1.81l5.23,1.35q2.91.74,5.76,1.42,2.29.55,4.54,1.06c1.86.42,3.69,1.6,5.49,2q2.38.49,4.73.89c1.49.25,3-.31,4.44-.1,2.8.38,5.58,1.47,8.34,1.72,3.94.36,7.84-.17,11.73.05,4.51.26,9,.49,13.5.8,3,.21,5.93.46,8.91.78,2,.21,4-.32,6,0,4,.6,8.09,2.16,12.18,3.21,1.56.4,3.08,1.55,4.58,1.9s2.84-.14,4.23.15c2.47.52,4.86,1.75,7.2,2.14,2.83.47,5.58.07,8.28.37q2.67.3,5.29.5c2,.15,3.94.27,5.9.35,1,0,2-.71,3-.69,2.74.07,5.49.85,8.28.81q2.56,0,5.17-.13l3.95-.16,4.32-.22,4.33-.25c1.54-.09,4.65.47,6.25.37s1.39-.85,2.9-.94l3.26-.21,2.56-.15c1.37-.08,6.34,1.37,7.7,1.31,1.57-.08-.48-1.67,1.08-1.73l2.35-.08c3.16-.11,7.05-2.21,10.19-2.26,1.57,0,2.39.42,4,.41q3.84,0,7.65,0c3.73,0,7.44,2.43,11.15,2.52,3.51.08,7,1,10.51,1.1l7.08.28,3.58.16c2.92.14,5.84-1.29,8.76-1.13l7,.38,5.34.3,5.24.31,8.85.53,4.53.27,5.87.34c2.75.16,5.5-.47,8.25-.33,1.94.1,3.88-.58,5.83-.49l8.21.38q4.08.17,8.19.31t8.34.24c1.86,0,3.72.87,5.59.89,3.75.06,7.51.87,11.28.87h5.91l5.86.06,3.52,0,5.84.11,2.95.06,5.69.14,2.53.07c2.73.07,5.46.93,8.2,1l3.54.1,7,.2c2.15.06,4.31-.67,6.46-.61l2.93.07,4.69.1c2.08,0,4.17,1.64,6.26,1.68l4.18.05,2.79,0,5.58,0c2.36,0,4.71-.73,7.07-.64,1.34.05,2.69-.67,4-.59q2.39.14,4.77.32l3.33.27,3.68.33q3.2.3,6.4.64c.92.1,1.84,1,2.76,1.07,1.84.2,3.68-.39,5.52-.2l5.24.54c1.56.16,3.12-.48,4.68-.34,1.76.16,3.51,2.66,5.26,2.79,2.33.18,4.66-.46,7-.35s4.65.18,7,.21c3.08,0,6.16-.81,9.24-1q2.31-.12,4.63-.33c1.06-.1,2.13,1.37,3.19,1.27,1.34-.12,3.86.54,5.2.42s1.37-.23,2.64-.34,2.71-1,4.07-1.15c2.47-.22,4.94-2,7.41-2.23l5.92-.52,2.31-.21,3.53-.31c1.15-.1,2.31-1,3.46-1.09.84-.08.52-.15,1.36-.23s3-.16,4-.25l4.11-.37c2.14-.19,4.28.4,6.41.21,1.42-.13,2.84.53,4.27.39l4.52-.41,4.52-.42c1.16-.11,2.32-1,3.47-1.11l5.08-.48c3.38-.33,6.75.13,10.11-.21,1.77-.18,3.42-1.19,5-1.47a54.94,54.94,0,0,0,7.83-2c2.06-.69,4-1.46,5.79-2.27,2.19-1,4.28-2.79,6.44-3.81,1.42-.67,2.88-1.35,4.41-2,1-.44,2.1-.87,3.21-1.28,2.31-.85,4.84-.86,7.71-1.54,1.25-.3,2.57.25,3.94.06s2.74-1.11,4.18-1.22c1.69-.12,3.43-.2,5.21-.25,2.12-.05,4.29-.06,6.48-.06,1.75,0,3.52.81,5.28.82,3,0,6-.75,8.93-.83,1.47,0,2.91-.1,4.31-.19s2.7-.21,4-.36a5.79,5.79,0,0,1,1.18-2.31,12.13,12.13,0,0,1,4.9-3.26,33.7,33.7,0,0,1,5.61-1.66,81.46,81.46,0,0,1,11-1.45c3-.22,6.15-.34,9.35-.39,2.14,0,4.31,0,6.47,0,3.16,0,6.31.89,9.38,1a43.46,43.46,0,0,0,5.92-.54c2.66.12,5.2.25,7.55.37,4.33.22,8,1.2,10.66,1.26l5.17.1,7.65.13c2.17,0,4.32-.71,6.45-.67l6.45.12,7,.14c1.18,0,2.35.84,3.52.87q4.45.11,8.84.25l4.73.17c2.29.09,4.58-.6,6.86-.49q4,.19,7.91.43l5.2.35,4,.31q4.08.32,8.21.72,3.15.31,6.35.66,3.91.43,7.91.95,5.67.73,11.57,1.65,3,.47,6.12,1c.79.13,1.58,1,2.37,1.17q5.08.8,10.18,1.39c4.67.54,9.36.19,14.06.53s9.38.59,14.09.79c2.15.09,4.31-.62,6.47-.55q4.42.14,8.85.24c3.12.07,6.24.92,9.37,1l7,.14c4.3.09,8.61.19,12.91.33q3.51.11,7,.26t7,.34c2.39.13,4.79,1.07,7.18,1.24,1.59.12,3.19-.54,4.78-.4,3.19.28,6.38,1.38,9.56,1.76s6.07-.07,9.09.29l9.88,1.14,9.13,1,7.32.79,5.24.54c1.94.2,3.88,1.17,5.83,1.36,1.37.13,2.74-.52,4.11-.39.79.07,9,0,12.34.29,1.2.1,2.4,1,3.61,1.06q3.5.26,7,.5,4.94.33,9.89.59l3.5.17q4.69.22,9.4.37,4.1.13,8.23.21c3,.05,6,.87,9,.87q4.85,0,9.77-.07c2.87,0,5.75-.9,8.66-1,3.7-.12,7.47.57,11.28.51,2.71,0,5.45-.86,8.2-.88l4.12,0c1.75,0,3.51.78,5.28.78,2.72,0,5.46-.77,8.22-.76,1.56,0,3.12.8,4.69.81,4.07,0,8.17-1.49,12.3-1.45,1.57,0,11.34.91,14.67.95l7,.07,2.93,0,10,.06q5,0,10,0,6.46,0,12.92-.11l4.13-.07q3.55-.06,7.09-.16l2.94-.08c5.11-.16,10.19.42,15.24.14,1-.05,2-1.68,3-1.73q6-.35,11.85-.83c3.16-.26,6.3.23,9.41-.09q3-.31,5.95-.66c2.29-.27,4.56-1.35,6.82-1.66q7-1,13.76-2.22c1.44-.27,2.87-1.33,4.29-1.61,3.78-.76,7.5-2.38,11.16-3.3,2.43-.61,4.83,1.09,7.2.41q4.72-1.37,9.28-2.94,1.51-.52,3-1.07l1.49-.55a63.42,63.42,0,0,1,11.22-3c3.31-.59,6.75-1,10.28-1.27s7.16-.41,10.84-.47c1.37,0,2.75,0,4.13,0,3.11,0,6.25.82,9.39.88,3.32.06,6.64-.65,9.95-.59,1.52,0,3,.83,4.56.84l4.25,0q3,0,5.88-.08c2.19-.06,4.36-.93,6.5-1.07s4.27-.33,6.35-.57c2.8-.33,5.52-1.55,8.14-2.12,2.9-.63,5.68-.65,8.32-1.65,2.12-.81,4.74-2.59,7.72-3.71,1.4-.53,2.88-3.43,4.43-4,1.32-.49,2.69-.21,4.09-.72s2.6-.16,3.95-.65l4.14-1.47c1.83-.65,3.7.27,5.59-.37s3.9-1.32,5.87-2c1-.33,2-1.45,3.06-1.78l4-1.27c1.58-.49,3.15-.18,4.71-.63s3.08-1.67,4.58-2.08q1.69-.46,3.34-.88c2.28-.58,4.47-1.09,6.55-1.52.92-.19,1.82.42,2.69.26,1.33-.24,2.59-.43,3.79-.58s2-.23,3-.28a27.44,27.44,0,0,1,5.38.34V680H0"/><path class="cls-4" d="M333.59,396a11.21,11.21,0,0,1,5.16-1.89c2.38-.38,4.59.39,6.83-.64a41.84,41.84,0,0,0,5.66-3.42,61.74,61.74,0,0,0,5.3-4.65c1.86-1.59,1.83-3.85,3.39-5.18.87-.74,1.63-.23,2.35-1.23a4.47,4.47,0,0,0,.72-3.42c-2-12-13.19-20.91-22.62-27.41-1.64-1.13-3.78-1.43-5.34-2.51-2.28-1.58-1.9-4.15-4.28-5.16-3.8-1.62-26.25-2.76-28.17-5.23-1.1-1.43-.86-5-1.18-6.72-.39-2-.42-4-.68-6.05-.3-2.26-1.44-3.86-2.22-5.95-1.05-2.79-1.65-5.62-2.5-8.48-1.48-4.94-2.8-9.81-4.45-14.67-1.51-4.47-5.46-7.43-9.22-10.08-5.13-3.61-9.41-5-14.58-.7-1.35,1.11-2.77,2.46-3.07,4.2s.76,3.15.64,4.74c-6.85-.75-9.13-11.56-16.16-11.23-6.71.32-5.6,7.24-3.54,11.68,3.89,8.38,3.53,18.34,7.77,26.62,3,5.92,8.27,9.17,12.75,13.86,2.55,2.67,4.82,5.59,7.31,8.32s5.06,4.66,5.6,8.39c.28,1.93.27,4,.46,5.89.21,2.11-.61,3.69-.9,5.65a25.81,25.81,0,0,0,.42,6.82c.24,2,0,4.06.24,6.12s1,3.83,1.18,5.82c.31,3.56-2.08,8.88-4.52,11.36-1.85,1.88-4.83,1.44-6.75,3-1.24,1-1.55,3-3.08,4.23-3.31,2.56-8,2.58-11.32,5.06-3.91,2.9-6.29,11-8.55,15.42-1.67,3.25-3.28,7.15-5.67,9.88a65.07,65.07,0,0,0-5.63,6.71c-2.17,3.26-4.43,6.45-6.36,10C217.63,465,203.61,483,192.95,503c-3,5.55-3.27,13.26-5.32,19.27-1.15,3.35-2.83,6.32-3.17,9.89-.3,3.06-.19,6.13-.35,9.17-.33,6.15,2.53,13.15,3.51,19.41a191.15,191.15,0,0,0,3.81,19.4c.85,3.2,2,7.83,5,9.77s7.28,1.1,10.57,1.44c4.27.45,8.34.75,12.68,1.11,9.37.79,18.47,2.14,27.91,2.14a114.08,114.08,0,0,0,18.76-1.76,88,88,0,0,1,10.16-1.06c4-.17,8.23,2,12,1.36,3.26-9.15-11-8.8-15.55-11.87-4.95-3.33,3.26-8.09,6.41-10.63,9.81-7.89,11.41-18.77,16.69-29.22,2.39,3.31,1.34,8.45,1.7,12.34.44,4.82,3.3,8.35,5.39,12.59,3.61,7.34,4.77,14.89,7.37,22.19,1.87.34,3.24,1.46,5.26,1.82a29.59,29.59,0,0,0,4.92,0h10.91c2.83,0,7.95,1,10.53,0,3.58-1.38.5-5-.63-7.79-3.16-7.91-5.12-16.95-7-25.36-2.17-9.5-5.12-18.57-6.72-28.17-.79-4.7-1.51-9.42-2-14.17-.23-2.39-.4-4.79-.46-7.19a8.83,8.83,0,0,1,.25-3.1c.22-.64,1.35-.15,1-1.58.55.11,1.28-.17,1.83-.06-.22-.83-.83-1.65-1.11-2.53a6.85,6.85,0,0,1,.68.49,4.82,4.82,0,0,1,1.37-.76c-.09-.72.14-1.58.07-2.31a15.48,15.48,0,0,1,1.79-.07c-.39-.22-.66-.7-1-.94,1.75.18.83-1.75.67-2.77.47.11,1.11-.14,1.58,0a2.26,2.26,0,0,0-.46-2.3c1,.06,1.37-.44,1.06-1.42-.31,0-.7-.13-1-.13a29.63,29.63,0,0,0,3.12-2.93,16.62,16.62,0,0,0-2.23,0,2.91,2.91,0,0,0,2.75-1.13,5.7,5.7,0,0,1-1.31-.54,7,7,0,0,0,.84,0c-.28-.08-1.11-.52-1.38-.6,3.09.41,2.23-2,.58-3.3l.79-.08a8.36,8.36,0,0,0-.77-2.22c.68-.46.85-1.3,1.2-2.17a4.58,4.58,0,0,1-.57,0c.35,0,.72-.3,1.09-.29a9,9,0,0,1-.17-2.75c.23-.06.42,0,.64-.1a4.5,4.5,0,0,0-.49-2.27c-.56.1-1.29-.17-1.83,0a7.9,7.9,0,0,1,1.4-1.69c-.12-.28-.17-.55-.28-.83.61-.14,1-.56,1.7-.55-.23-.15-.51-.57-.77-.74.52-.41.66-1,1.21-1.41-.3,0-.8-.47-1.36-.44.41-1.18,1.94-2.13,1.33-3.29a14.36,14.36,0,0,1,1.29-1.83c-.3,0-.62-.06-.92-.06a4.94,4.94,0,0,0-.36-2.53c.46-.47.81-1.35,1.23-1.82-.44,0-1.19-.22-1.58-.18.41-.21.82-.65,1.27-.83-.42,0-.84-.27-1.29-.28a2.75,2.75,0,0,0,1.81-2.52c-2.07.15-1.31-1.65-.2-2.39-.5,0-1.26-.31-1.86-.25a6.14,6.14,0,0,0,0-1.63c.21.22-1.42-1.76-1.21-1-.33-1.2.15-1.72.72-3.2-1.83,0-1.71-3.44-2.06-4.87-.74-3-2.81-20.83-2.86-27.63,0-3-1.77-6.52-.86-9.54C331.07,400.64,332.37,397,333.59,396Z"/><path class="cls-11" d="M484.27,580.56c10-4.59,10-14.72,13.4-21.63,3.83-7.86,8.24-15.33,11.62-23.48,3.53-8.52,7.7-15.54,18.47-22.24-9.62,22.82-21.49,39-20.06,64.27,11.73-12.72,16.57-29.29,25.46-41.59,9.1-12.59,7.3-10,16.91-22,.41-.53-15,30.92-13.08,47.81,13.72-7.21,25.7-28.15,42.44-38.64.69-.42-32.78,40.4-45.85,84-62.35-1-119-5.77-180.84-6.74-3.69-21.76-5.58-30.8-22.56-55,3.79,1.83,14.83,16.75,19.26,18.88-.16-2.37-7.17-16.89-7.62-17.5-4.18-5.72-8.5-11.3-14.08-18.62,12.78,3.85,23.73,19.09,31,41.71,2.45-5.3,2.68-9.15.89-13.91-.88-2.37-4.74-16.93-11.92-36.1-1.31-3.5,13.39,14.6,22.16,41.65-2-6.21,2.25-31.18,1.2-40.09-5.45-46.33-.6-24.9,10.26,16.38,3.42-25.61-1.22-48.16,8.17-69,4,18.25.67,73.67,2.12,103.44,5-57.85-5-64.14,36-98.89-1.68,4.86-12.6,19.35-19.73,44.59-1.8,6.36.06,43.71,5,52.85,4.69-9.32,9.29-17.95,13.44-26.9s8-18.52,12-27.8c6.79,10.13-.67,19.7-2.85,27.88-2.35,8.79-3.06,16.56-2.69,29.77,13.6-36.31,22.31-87.47,43.9-100.68h0c-12.49,17.54-18,48.94-19,71.68a113,113,0,0,0,.74,20.52c6.19-20.43,12.07-40.81,25.44-62.11-2.52,13.37-3.12,22.65-6.06,30.52-3.58,9.57-1.63,18.46-2.8,32.2,1.11-13.13,31.61-82.23,44.26-82.23C519.35,483.64,489.8,514.08,484.27,580.56Z"/><path class="cls-11" d="M47.69,579.79l100.77.82c5.33-20,20.45-48.25,21-48.79,5-5.19,10.09-10.23,16.7-16.87-14.42,3.25-27.45,17.07-36.84,37.78-2.42-5-2.46-8.51-.21-12.86,2.07-4,2.7-8.84,4.94-12.7,12.31-21.11,22.83-43.55,40.43-60.9,0,0-.7-.94-1.08-1.43-17.3,5.95-31.39,25.9-56,79.93-2.77-9.13-1.7-17.22-.5-24.62,1.58-9.6,5.32-18.89,8.11-28.33a24,24,0,0,0,.9-3.87c3.55-31.51,1.79-22.47-17.39,28-2.35-23.72-3.25-41.79-7.71-57.23-5.5,16.75-.28,31.8.44,47.08.73,15.7-2.39,30.88-8.62,48.35-2.31-53.51-13-100.68-56.51-133.71,1.59,4.53,27.83,49.71,34.33,73.18,1.64,5.92,4.64,50.38-1.39,58.69-4.68-8.72-9.32-16.79-13.43-25.14s-7.86-17.29-11.76-26c-3.49,11-.36,18.19,1.59,25.81,2.11,8.17,2.48,15.35,1.31,27.54-7-18.1-12.19-40.09-19.07-58.57Z"/><path class="cls-4" d="M1540.79,205.73c4,7.32,12.64,2.69,16.19.41l-14.33-3.21c.27-.7.72-1.41,1.2-2.46,1.53-3.31.65-3.2-.91-5.93-2.68-4.7-4.6-11.53-3.91-12.72a12.52,12.52,0,0,0,2-7.28c0-1.45.28-3.29.35-5l15.14-5.17c-7.23-7.71-12.48-2.27-15.32,2.54,0-.12-.06-.24-.09-.35-4.92,1.63-6.7,6-7.29,12.15-.31,3.18-1.76,6.24-3.42,9.23-2.14.7-5.87,1.83-6.46,2a17,17,0,0,1-6.25.46,97.87,97.87,0,0,0-.54-11c-.08-.8-.17-1.59-.26-2.37h.2l-.18-.07h0s0,0,0,0h0c3.62-1.67,6.43-5.21,5-9.2-.68-1.93-2.67-3.25-2.19-5.55a5.22,5.22,0,0,1,.94-1.88l12.05,1c-2.57-8.49-7-7.14-10.41-4.28-3.46,1.07-5,3.67-5.91,7.63-.2.84-.59,2-.95,3.38-8.4-41.92-37.05-59.47-59.94-58.82-3.94-8.67,6.25-19.39,9.17-24.25l.14-.05,20.53-21.91-32.82,15.13-2-.42,0,.2a20.57,20.57,0,0,0-4.19-.69,24.06,24.06,0,0,0-4-1.27c-22.33-4.18-34.64,3.6-39.22,12.86-.48,1,3.55-.25,3.2.74-1.29,3.7-3.54,5.18-4.24,7.83-.22.83,4.39-.63,4.3.21,0,0-4.22,4.89-4.12,6.48.21,3.41,4.1,16.64,7.54,19.72.74.67,1.37-3.84,2.06-3.34s.5,4.78,3.09,7.73c.59.68,1.22-4.3,1.57-3.57,1.42,3,4.91,8.52,6.92,8.51,1.3,3.43,3.55,8.22,4.47,20.65,1.81,24.59,30.52,75.49,54.45,100.65.32,10.1,6.18,27.31,11.71,32.54,2.21-5.07,2.14-15,.93-23.6l40.61,52.57-.47-16.57-27.08-33.7c-2.29-26.62,2.33-38.11,5.39-49.76.43-1.63,1.46-5.31,2.25-8.37a11.62,11.62,0,0,1,3.15.2c.08-2.77-.15-5.63-.09-8.4,5.43-.78,4.4,2.94,7.89-2.7,1-1.59,2-3.24,2.89-4.9,1.45-1.16,2.92-2.65,4.15-3.64a21.52,21.52,0,0,0,2.11-2c1.69,1.83,2.22,8.13,2.06,9.49C1537.47,199.34,1537.34,203.9,1540.79,205.73Z"/><path class="cls-4" d="M1479.56,573.12c6-22.5,22.5-40.5,27-64.5,3-15,3-28.5,7.5-45,6-19.5,7.3-20.69,5.8-43.19-3-15,.2-40.81.2-55.81,0-61.5-.09-119.33,1.5-178.49.78-29.18-2.5-54-1-78a305.14,305.14,0,0,0-.5-54c-2.63-27.06-4.16-43.81-4-54.15H1600c9,55.5-3,556.94,0,582.44-22.5,6-40.95-10.9-64.95-4.9-15,4.5-55.5-4.41-55.5-4.41"/></svg>