<svg id="Layer_1" data-name="Layer 1" xmlns="http://www.w3.org/2000/svg" viewBox="0 0 1600 680"><defs><style>.cls-1,.cls-10,.cls-11,.cls-12,.cls-2,.cls-3{fill:#231f20;}.cls-1,.cls-10,.cls-2{fill-rule:evenodd;}.cls-11,.cls-2,.cls-9{opacity:0.6;}.cls-4,.cls-5,.cls-6,.cls-7,.cls-8{fill:none;stroke:#231f20;stroke-miterlimit:10;}.cls-4{stroke-width:3.24px;}.cls-5{stroke-width:2.77px;}.cls-6{stroke-width:3.43px;}.cls-7{stroke-width:2.93px;}.cls-8{stroke-width:0.42px;}.cls-10{opacity:0.5;}.cls-12{opacity:0.8;}</style></defs><title>Spotlight area_urban</title><path class="cls-1" d="M1259.23,619.9c2.82-1.29,2.83-4.16,3.79-6.11,1.08-2.22,2.33-4.33,3.28-6.63a12,12,0,0,1,5.22-6.28c-2.72,6.45-6.07,11-5.67,18.16,3.32-3.59,4.68-8.27,7.19-11.75s2.06-2.83,4.78-6.21c.12-.15-4.24,8.73-3.7,13.5,3.88-2,7.26-8,12-10.92.19-.12-9.26,11.41-13,23.74-17.61-.28-33.61-1.63-51.08-1.9-1-6.14-1.58-8.7-6.37-15.53,1.07.52,4.19,4.73,5.44,5.33a35.21,35.21,0,0,0-2.15-4.94c-1.18-1.62-2.4-3.19-4-5.26,3.61,1.09,6.7,5.39,8.77,11.78a4.58,4.58,0,0,0,.25-3.93c-.25-.67-1.34-4.78-3.37-10.2-.37-1,3.78,4.12,6.26,11.76-.57-1.75.64-8.81.34-11.33-1.54-13.09-.17-7,2.9,4.63,1-7.23-.34-13.6,2.31-19.49,1.14,5.16.19,20.81.6,29.22,1.41-16.34-1.4-18.12,10.17-27.93-.48,1.37-3.56,5.46-5.57,12.6-.51,1.8,0,12.35,1.42,14.93,1.33-2.63,2.62-5.07,3.8-7.6s2.26-5.23,3.39-7.85c1.92,2.86-.19,5.56-.8,7.88a27,27,0,0,0-.76,8.41c3.84-10.26,6.3-24.71,12.4-28.44h0c-3.53,5-5.09,13.82-5.36,20.25a32.06,32.06,0,0,0,.21,5.8c1.75-5.77,3.41-11.53,7.19-17.54-.71,3.78-.88,6.4-1.71,8.62-1,2.7-.46,5.22-.79,9.09.31-3.71,8.93-23.23,12.5-23.23C1269.14,592.52,1260.79,601.12,1259.23,619.9Z"/><path class="cls-1" d="M984.25,631l35.36-6c.62-5.63,4.15-14.05,4.3-14.23,1.42-1.68,2.89-3.33,4.8-5.5-4.85,1.75-8.55,6.21-10.55,12.29-1.16-1.16-1.39-2.11-.88-3.4s.39-2.51.94-3.67c3-6.36,5.28-13,10.36-18.64,0,0-.3-.21-.47-.31-5.69,2.64-9.38,8.8-14.62,24.64a11,11,0,0,1-1.71-6.5c0-2.64.68-5.34,1.07-8a5,5,0,0,0,.07-1.08c-.73-8.57-.78-6.07-4.34,8.5-2.31-6.14-3.75-10.88-6.29-14.7-.88,4.78,1.89,8.45,3.1,12.46s1.09,8.34,0,13.35c-4.16-14-10.84-25.9-28.17-32,.84,1.1,12.86,11.47,16.61,17.29.94,1.47,4.78,13.08,3.18,15.65-2.19-2-4.32-3.88-6.28-5.84s-3.84-4.1-5.74-6.16c-.54,3.13,1,4.85,2.17,6.75a15.57,15.57,0,0,1,2.18,7.22c-3.58-4.37-6.78-9.88-10.35-14.36Z"/><path class="cls-2" d="M199.5,304.26l-.11-5.25,8.82-4.43-.23-11-1.37,0-.3-3.24,8.68-.18.05,2.5,4.57.16,0,2.25,1.15.23.06,3-2,.54.18,8.75,5.49.14,3.55,5.93-2.86,5.56.29,29.08L253.21,346l4.45,7,32.71,3.41,12.8-33.35L336,320.71l.1,5,10,25.47,17-2.35,7.81,24.51,26.68,8.12L423.13,422l-6.4.13.25,12,18.27-.37L464,452.12l1.19,58S319.26,507.89,226.69,517-11.05,558.87-11.05,558.87l-7-339.93L75.22,187c1.82-2.06,3.94-3.91,6.55-3.64.26,3.07.19,6.34.27,9.5l48.47,105,71.17,23.21-.3-14.66"/><path class="cls-1" d="M184.14,522.2c82-15.62-203.4-17.37-227.4,84.64C-53.24,651-26,667.89,0,680H1600c9-18,6.9-82.15,9.9-106.16v-84c0-45,20.1-48.83-27.9-60.83-63-15-185.23,3-248.23,6,56.09,3,213.16-21,219.16,39,5.11,51.1-51.93,100.46-159.05,128-74.7,19.24-165,19.8-240,19.8-162,0-321,12-483,12h-201c-54,0-152.52,9.46-356.79-2.77S102.16,537.83,184.14,522.2Z"/><rect class="cls-3" x="1231.15" y="575.89" width="91.5" height="11.13" transform="translate(688.29 1855.06) rotate(-89.68)"/><polyline class="cls-3" points="1524.35 621.03 1526.29 528.1 1514.21 527.89 1512.28 620.82"/><line class="cls-4" x1="1277.53" y1="562.38" x2="1519.08" y2="559.5"/><path class="cls-5" d="M1502.45,621.3c1.1-34.63,0-56.21.64-68.42,1.58-31.92-11.06-24.9-12.35-.8C1489.52,575,1486,621,1486,621"/><path class="cls-5" d="M1476.19,621.7c1.09-34.63,0-56.21.63-68.42,1.58-31.92-11.06-24.9-12.34-.8-1.23,22.9-4.73,68.92-4.73,68.92"/><path class="cls-5" d="M1446.81,623.77c1.09-34.63,0-56.21.62-68.41,1.59-31.92-11.06-24.91-12.34-.8-1.21,22.9-4.72,68.93-4.72,68.93"/><path class="cls-5" d="M1418.45,624.42c1.1-34.63,0-56.21.63-68.42,1.59-31.92-11.06-24.9-12.35-.8-1.22,22.9-4.73,68.93-4.73,68.93"/><path class="cls-5" d="M1394.86,626.11c1.09-34.63,0-56.21.63-68.42,1.58-31.92-11.06-24.9-12.35-.8-1.22,22.91-4.72,68.92-4.72,68.92"/><path class="cls-5" d="M1368.82,624.87c1.1-34.63,0-56.21.63-68.41,1.59-31.92-11.06-24.91-12.34-.8-1.22,22.91-4.72,68.93-4.72,68.93"/><path class="cls-5" d="M1338.78,626.35c1.09-34.63,0-56.21.62-68.42,1.59-31.92-11.06-24.91-12.34-.8-1.22,22.91-4.72,68.92-4.72,68.92"/><path class="cls-5" d="M1314,626.11c1.1-34.63,0-56.21.63-68.42,1.59-31.92-11.06-24.91-12.34-.8-1.22,22.9-4.73,68.93-4.73,68.93"/><polygon class="cls-3" points="707.56 640.64 719.31 640.71 719.95 544.03 708.2 543.97 707.56 640.64"/><polyline class="cls-3" points="975.19 634.16 977.24 535.98 964.48 535.75 962.43 633.93"/><line class="cls-6" x1="714.42" y1="572.19" x2="969.62" y2="569.15"/><path class="cls-7" d="M952.05,634.44c1.16-36.59,0-59.39.68-72.29,1.67-33.72-11.69-26.31-13-.84-1.29,24.2-5,72.82-5,72.82"/><path class="cls-7" d="M924.31,634.53c1.16-36.59,0-59.38.67-72.28,1.67-33.73-11.69-26.31-13-.84-1.3,24.2-5,72.82-5,72.82"/><path class="cls-7" d="M893.27,636.71c1.15-36.59,0-59.39.66-72.28,1.68-33.72-11.68-26.31-13-.85-1.28,24.2-5,72.82-5,72.82"/><path class="cls-7" d="M863.31,637.4c1.16-36.59,0-59.39.67-72.29,1.68-33.72-11.69-26.31-13-.84-1.29,24.2-5,72.82-5,72.82"/><path class="cls-7" d="M832.28,639.18c1.16-36.59,0-59.39.67-72.29,1.67-33.72-11.69-26.31-13-.84-1.29,24.2-5,72.82-5,72.82"/><path class="cls-7" d="M804.76,637.87c1.16-36.59,0-59.39.67-72.28,1.68-33.72-11.68-26.31-13-.85-1.29,24.2-5,72.83-5,72.83"/><path class="cls-7" d="M773,639.44c1.15-36.59,0-59.39.66-72.28,1.68-33.73-11.69-26.32-13-.85-1.28,24.2-5,72.82-5,72.82"/><path class="cls-7" d="M746.88,639.18c1.16-36.59,0-59.39.67-72.28,1.68-33.73-11.68-26.32-13-.85-1.29,24.2-5,72.82-5,72.82"/><polygon class="cls-3" points="448.26 646.03 460.01 646.1 460.65 549.42 448.9 549.36 448.26 646.03"/><polyline class="cls-3" points="715.89 639.55 717.94 541.37 705.18 541.14 703.14 639.33"/><line class="cls-6" x1="455.12" y1="577.58" x2="710.32" y2="574.54"/><path class="cls-7" d="M692.76,639.83c1.16-36.59,0-59.39.68-72.29,1.67-33.72-11.69-26.31-13-.84-1.29,24.2-5,72.82-5,72.82"/><path class="cls-7" d="M665,640.26c1.16-36.59,0-59.38.67-72.28,1.67-33.73-11.69-26.31-13-.84-1.3,24.2-5,72.82-5,72.82"/><path class="cls-7" d="M634,642.44c1.15-36.59,0-59.39.66-72.28,1.68-33.72-11.68-26.31-13-.85-1.28,24.2-5,72.82-5,72.82"/><path class="cls-7" d="M604,643.13c1.17-36.59,0-59.39.67-72.29,1.68-33.72-11.69-26.31-13-.84-1.29,24.2-5,72.82-5,72.82"/><path class="cls-7" d="M573,644.92c1.16-36.58,0-59.39.67-72.29,1.67-33.72-11.69-26.31-13-.84-1.29,24.2-5,72.82-5,72.82"/><path class="cls-7" d="M545.47,643.6c1.16-36.59,0-59.39.67-72.28,1.68-33.72-11.68-26.31-13-.85-1.29,24.2-5,72.83-5,72.83"/><path class="cls-7" d="M513.73,645.17c1.15-36.59,0-59.39.66-72.28,1.68-33.73-11.69-26.32-13-.85-1.28,24.2-5,72.82-5,72.82"/><path class="cls-7" d="M487.58,644.91c1.16-36.59,0-59.39.67-72.28,1.68-33.73-11.68-26.32-13-.85-1.29,24.2-5,72.82-5,72.82"/><polygon class="cls-3" points="192.53 648.53 204.28 648.6 204.92 551.92 193.17 551.86 192.53 648.53"/><polyline class="cls-3" points="460.16 642.04 462.21 543.86 449.45 543.64 447.41 641.82"/><line class="cls-6" x1="199.39" y1="580.08" x2="454.59" y2="577.03"/><path class="cls-7" d="M437,642.33c1.16-36.59,0-59.39.68-72.29,1.67-33.72-11.69-26.31-13-.84-1.29,24.2-5,72.82-5,72.82"/><path class="cls-7" d="M409.28,642.75c1.16-36.59,0-59.38.67-72.28,1.67-33.73-11.69-26.31-13-.84-1.3,24.2-5,72.82-5,72.82"/><path class="cls-7" d="M378.24,644.93c1.15-36.59,0-59.39.66-72.28,1.68-33.72-11.68-26.31-13-.85-1.28,24.2-5,72.82-5,72.82"/><path class="cls-7" d="M348.28,645.62c1.17-36.59,0-59.39.67-72.29,1.68-33.72-11.69-26.31-13-.84-1.29,24.2-5,72.82-5,72.82"/><path class="cls-7" d="M317.25,647.41c1.16-36.59,0-59.39.67-72.29,1.67-33.72-11.69-26.31-13-.84-1.29,24.2-5,72.82-5,72.82"/><path class="cls-7" d="M289.74,646.1c1.16-36.59,0-59.39.67-72.28,1.68-33.72-11.68-26.31-13-.85-1.29,24.2-5,72.83-5,72.83"/><path class="cls-7" d="M258,647.66c1.15-36.59,0-59.39.66-72.28,1.68-33.73-11.69-26.32-13-.85-1.28,24.2-5,72.82-5,72.82"/><path class="cls-7" d="M231.85,647.41c1.16-36.59,0-59.39.67-72.28,1.68-33.73-11.68-26.32-13-.85-1.29,24.2-5,72.82-5,72.82"/><polyline class="cls-3" points="202.35 640.1 204.4 541.92 191.64 541.69 189.6 639.88"/><line class="cls-6" x1="-58.42" y1="578.14" x2="196.78" y2="575.09"/><path class="cls-7" d="M179.22,640.38c1.16-36.59,0-59.39.68-72.29,1.67-33.72-11.69-26.31-13-.84-1.29,24.2-5,72.82-5,72.82"/><path class="cls-7" d="M151.47,640.81c1.16-36.59,0-59.38.67-72.28,1.67-33.73-11.69-26.31-13-.84-1.3,24.2-5,72.82-5,72.82"/><path class="cls-7" d="M120.43,643c1.15-36.59,0-59.39.66-72.28,1.68-33.72-11.68-26.31-13-.85-1.28,24.2-5,72.82-5,72.82"/><path class="cls-7" d="M90.47,643.68c1.16-36.59,0-59.39.67-72.29,1.68-33.72-11.69-26.31-13-.84-1.29,24.2-5,72.82-5,72.82"/><path class="cls-7" d="M59.44,645.47c1.16-36.59,0-59.39.67-72.29,1.67-33.72-11.69-26.31-13-.84-1.29,24.2-5,72.82-5,72.82"/><path class="cls-7" d="M31.93,644.15c1.16-36.59,0-59.39.66-72.28,1.68-33.72-11.68-26.31-13-.85-1.29,24.2-5,72.83-5,72.83"/><path class="cls-7" d="M.19,645.72c1.15-36.59,0-59.39.66-72.28,1.68-33.73-11.69-26.32-13-.85-1.28,24.2-5,72.82-5,72.82"/><line class="cls-8" x1="1272.88" y1="536.05" x2="1280.4" y2="525.53"/><line class="cls-8" x1="1279.14" y1="536.46" x2="1285.63" y2="526.43"/><path class="cls-3" d="M1311.41,510.58l-17.47,2.53c-.29-2.45-7.72-5.77-8.71-6.27-1.74-.88-2.89-2.47-4.17-3.89-1.89-2.1-4.5-4-7.39-4.37s-4.27.85-4.27.85h0a3.74,3.74,0,0,0-1.54,1.17,17.19,17.19,0,0,0-3.93-.41,8.73,8.73,0,0,0,3.85,2.46,2.58,2.58,0,0,0,.25.33c2.21,2.51,1.4,5.75,1.43,9a14.87,14.87,0,0,0,3.92,9.14c2,3.48,5.54,5.74,9.13,7.65,2.41,1.34,7,4,9.83,4,.83,0-2.43-4.51-3.07-6.17a9.24,9.24,0,0,1-.54-1.71c.53-.36,1-.76,1.55-1.19,2.72,2.11,7.13,4.86,7.13,4.86.55-.37-1.87-6.19-3.24-8.82a8.4,8.4,0,0,0,1.7-2.64s0-.05,0-.08l13.2-1.94-1.85-1.34,2-.22-1.06-.47,1.48-.19Z"/><path class="cls-1" d="M1034.24,556.79q-.35-4.07-.7-8.15c.1-.76.2-1.52.29-2.28.24-2,.52-3.9.68-5.86.25-3,.38-6,.64-9.06.31-3.66.56-7.34,1.09-11s1.43-7,4.13-9.73a1.89,1.89,0,0,0,.25-2.3,2.06,2.06,0,0,1,0-2.61c.69-.86,1-2.37,2.79-1.79.16.05.37-.07.55-.12,0-.15,0-.25,0-.34.09-1.52.36-2.92,2.24-3.37a.77.77,0,0,0,.48-.32c.55-1.12,1.49-1,2.5-.82a.93.93,0,0,0,.63-.13c.08-.06,0-.34,0-.51a39.67,39.67,0,0,1-1.06-4,11.56,11.56,0,0,1,2.61-9.73,8.34,8.34,0,0,1,5.07-2.61,9.82,9.82,0,0,1,8.45,1.91c1.06.87,2.1,1.76,3.14,2.63,1.6-2.21,3.23-4.36,4.75-6.57,1-1.52,1.86-3.17,2.89-4.69a28.44,28.44,0,0,1,3.11-3.93c1.34-1.37,3-2.49,4.35-3.83a4.39,4.39,0,0,1,2.17-1.14,9.18,9.18,0,0,0,1.8-.62c1.28-.59,2.53-1.25,3.52-1.74a10.28,10.28,0,0,1,.32-3c1-2.28,3.07-3.55,5.39-4.39.73-.27,1.06-.74.64-1.21-1.11-1.28-.76-2.73-.82-4.16a28.75,28.75,0,0,0-.43-3.51,9.54,9.54,0,0,1-.48-2.42c.37-2.88,2.19-5,4.21-7.06a1.67,1.67,0,0,1,.71-.34,17.46,17.46,0,0,1,9.23-.52c2.1.52,4.39,1,5.67,3a9.4,9.4,0,0,1,1.57,7.81,2.07,2.07,0,0,0,0,.81,17.58,17.58,0,0,1,.45,3c-.06,1.85-1.14,3-3.11,3.56.39.16.6.34.81.32a3.6,3.6,0,0,1,2.48,1.13,6.46,6.46,0,0,1,.79.86l2.18,2.33c.46.49.94,1,1.38,1.49.22.26.54.61.5.88-.13.89.44,1.19,1.12,1.46,1.66.63,3.34,1.22,5,1.91a8,8,0,0,1,2.13,1.28c2.82,2.45,4.78,5.56,6.94,8.5a1.49,1.49,0,0,1,.19.45c.43,1.32.92,2.62,1.28,4,.82,3.09,1.56,6.2,2.36,9.29.5,1.93,1,3.85,1.55,5.78s1.16,3.87,1.65,5.83c.34,1.34.54,2.72.8,4.08.07.84.14,1.68.22,2.52a28.91,28.91,0,0,1,0,3.56,23.53,23.53,0,0,1-.78,3.62,11.77,11.77,0,0,1-.75,1.79c-.87,1.91-1.47,3.95-3.22,5.41a9.2,9.2,0,0,0-1.26,1.74c-1,1.31-1.84,2.83-3.8,2.83a1.48,1.48,0,0,0-1.58,1.16l-.37.91c-.31.74-.74,1.26-1.92.74a28.28,28.28,0,0,0,.3,4.2,36.88,36.88,0,0,1,.5,10.91c-.15,1.91-.85,3.78-1.09,5.7-.38,3.08-.57,6.17-.86,9.25a29.47,29.47,0,0,0-.4,4.34,19,19,0,0,1-1.21,7.89,6.88,6.88,0,0,0-.17.86c-.19.86-.38,1.72-.6,2.58a25.37,25.37,0,0,0-1,4,28.8,28.8,0,0,0,.21,4.92c.18,2,.5,4,.71,6.08.17,1.58.31,3.16.38,4.74s-.06,3,.06,4.53c.18,2.32.57,4.62.74,6.94.14,1.84,0,3.7.14,5.54.09,1.21.55,2.39.65,3.6.15,1.73-.76,2.81-2.46,3.36-.26.09-.64.5-.61.72.11.92.39,1.82.54,2.74s.42,2.11-.56,2.88a2.33,2.33,0,0,0-1,2.39c.32,1.77.76,3.53,1,5.31s0,1.94-1.76,2.06c-1.9.14-3.8.25-5.7.24a16.35,16.35,0,0,1-3.28-.44,1.74,1.74,0,0,1-1.49-1.81,3.38,3.38,0,0,0-.19-2.41,1.64,1.64,0,0,1,0-.86c.28-2.35.3-4.61-1.9-6.26a1,1,0,0,1-.37-.85c.67-2,.41-4.18,1.8-6a1.28,1.28,0,0,0,0-1.26,9.22,9.22,0,0,0-2.79-1.5c-1.49-.4-2.32-.94-1.73-2.87.78-2.56,2-5,3-7.5a3,3,0,0,0,.41-1.16c-.1-2.32.07-4.72-.51-6.94A18.89,18.89,0,0,1,1112,589a46.42,46.42,0,0,0,.39-5.3,9.08,9.08,0,0,0-1.18-4.95c-1.76-2.81-2-6.11-2-9.37a11.34,11.34,0,0,0,0-1.71c-.13-.85-.42-1.67-.54-2.53-.3-2.14.59-4.24.1-6.43s-.53-4.46-.83-6.69c-.05-.38-.41-.72-.63-1.08-.18.81-.11,1.5-.25,2.15-.68,3.35-1.79,6.62-2,10.06-.08,1.66-.34,3.32-.48,5-.26,2.91-.21,5.87-1.44,8.64a1.39,1.39,0,0,0-.11.72c.49,3.69,1.05,7.38,1.46,11.07.29,2.67.39,5.37.56,8.05.11,1.64.15,3.29.32,4.93.2,2,.52,4,.76,6a3.33,3.33,0,0,1-1.25,3.39c-.45.34-.66.95-1,1.4a13.16,13.16,0,0,1-1.12,1.18c-.23.23-.75.5-.71.63.34,1.13-.24,2.15-.41,3.21a20.18,20.18,0,0,0,.38,6.19c.14.92.17,1.85.25,2.81-.45.09-.78.18-1.11.22-1.76.16-3.53.22-5.27.48a4.58,4.58,0,0,1-4-1,6.37,6.37,0,0,0-3.26-1.57c-1.51-.34-2.18-.87-2.06-2.31a36.28,36.28,0,0,1,1.11-5.43,1.48,1.48,0,0,1,.84-.92c1-.3.85-.94.85-1.68a6.23,6.23,0,0,1,.5-1.91,3,3,0,0,1,.51-.71,8,8,0,0,1-2.11-1.06,5.34,5.34,0,0,1-1.39-5.85,8.33,8.33,0,0,0,.49-2.95c-.12-3.17-.41-6.34-.56-9.51a9.06,9.06,0,0,1,.87-5.35,5.54,5.54,0,0,0,.76-4.12,2.11,2.11,0,0,1,0-.49c0-4.07.07-8.14.15-12.21,0-2.55.18-5.09.26-7.64a3.13,3.13,0,0,0-.14-.83c-.13-.5-.31-1-.4-1.48-.61-3.27-1.19-6.55-1.82-9.82-.31-1.64-.79-3.25-1-4.9-.27-1.88-.4-3.79-.5-5.69-.08-1.64-.06-3.29,0-4.93a12.82,12.82,0,0,1,.29-2.38c.15-.73.34-1.4-.5-1.88a.71.71,0,0,1-.31-.55,61.29,61.29,0,0,1,.66-6.41,1.55,1.55,0,0,0-.83-2c-.31-.18-.7-.5-.73-.8a13.34,13.34,0,0,1,0-2.41c.06-1.51.2-3,.25-4.52s-.06-3,0-4.55c.29-4,.66-8,1-12.06.07-.86,0-1.73,0-2.6l-.3,0c-.17.22-.3.54-.53.65-1.53.75-2,2.08-2.38,3.55a2.91,2.91,0,0,1-1.67,1.84c-1.86,1-3.79,1.84-5.23,3.44a11.46,11.46,0,0,1-7.13,3.9c-.13,0-.24.17-.51.37a19.72,19.72,0,0,0,2.64,1.19,9.29,9.29,0,0,1,6.61,6.11c.71,2,1.37,4.11,1.88,6.2.81,3.29,1.52,6.61,2.17,9.94.57,2.93,1,5.87,1.51,8.81.51,3.1,1.09,6.19,1.46,9.31a42.42,42.42,0,0,1,.06,5.12q0,3.23-.06,6.46c0,.18-.05.47-.17.52-1.22.54-1.59,1.62-2,2.69a1.68,1.68,0,0,1-.77.76,11.69,11.69,0,0,1-3.1,1.37,1.33,1.33,0,0,0-1.31,1.46c-.23,3.22-.51,6.44-.63,9.67a30.55,30.55,0,0,1-2.31,10.46,4.37,4.37,0,0,0-.34,1.31c-.25,3.71-.44,7.41-.7,11.11-.13,1.83-.34,3.66-.55,5.48-.08.7-.35,1.38-.42,2.08-.17,1.54-.24,3.09-.39,4.63-.27,2.69-1.15,5.31-.45,8.11.31,1.21-.32,2.65-.61,4-.17.81-.56,1.59-.71,2.39a1.82,1.82,0,0,0,.9,2.1,3.91,3.91,0,0,1,1.76,2.27c.67,1.76.11,3-1.76,3.52a14.15,14.15,0,0,1-4,.61,18.33,18.33,0,0,1-4.42-.75c-1.66-.47-3.25-1.19-4.88-1.76-.88-.31-1.09-.74-.78-1.63s.4-1.53.63-2.49a9.49,9.49,0,0,1-6.36.84c-1.76-.28-1.87-.59-1.72-2.26a9.19,9.19,0,0,0-.26-3.37,7.31,7.31,0,0,0-1.63-2.07c-1.17-1.39-1.09-2.29.11-3.7a2.24,2.24,0,0,0,.5-1.74,48,48,0,0,0-1.55-4.65c-.2-.54-.7-1-.73-1.56a45.66,45.66,0,0,1,0-5.22c.07-1.18.53-2.34.61-3.52.19-3,.29-6,.39-9a40.33,40.33,0,0,0,0-6.3c-.62-4.83-1.49-9.63-2.27-14.45a5.86,5.86,0,0,0-.22-1.14,1,1,0,0,0-.57-.53c-.7-.2-1.47-.25-2.15-.49-1.19-.42-2.44-.95-2.79-2.19a2.48,2.48,0,0,0-1.35-1.64,1.36,1.36,0,0,1-.61-1,9,9,0,0,0-.5-3.89,12.94,12.94,0,0,1-.39-1.88C1034.67,558.52,1034.45,557.65,1034.24,556.79Z"/><path class="cls-1" d="M1483.83,435.72s2.91-.75,3.21-1.49c.57-1.73.4-2.89-1.6-2.67l-.08-.07,0,.06-.44-.5-2.53-.17c-.09-1.16-.62-1.59-1.86-.78l-1.47.56-.4-.26c0-1.93,1.33-3.07,2.93-4a7.06,7.06,0,0,0,1.2-1.53c.42-1.09,2.06-2.22,1.1-3.25s-2,.82-3.1,1.13c-.64-2.29-2.13-3.95-3.44-5.74h0a3.74,3.74,0,0,1-.28-.49c2.88-1.8,4.57-3.92,3.2-6.87a8.53,8.53,0,0,1-.46-2.25c.19-3.69-1.42-3.53-4.12-1.22-.84-1-2.27,0-3.33-.22-.26-1.54-1.52-2.05-2.7-2.65h0c.44-.95,1.77-1.14,2-2.26-.09-3.07-1.29-3.89-4-2.81a2.12,2.12,0,0,1-2.5-.41c1.58-1.59.54-2.55-.06-3.62h0c2-1.22-5.44-.47-6.54,1.83-.54,1.12.51,1.48,1.51,1.52l.15.17.17.15-3.71,3.8-2.85-2.48c-3.57-.81-1.53-4.44-2.11-6.75l-.28-.13,0,0h0l.26.17.77-1.6c2.79-4.09-2.82-3.43-3.28-3.23-.85-2.11-6.51,2.69-8.35,3.11-1.73-1.37-1.72-5.07-5.61-3.56-.41-1.52-.67-3.13-3-.81-1,1-2.3,1.23-2.67-.39,2.91-5.09,2.74-5.59-2.25-6.31-1.64-.13.85-3.07-1.47-2.74l-2.44-.36-.29-2c-.25-.82-.52-1.62-.75-2.45-.83-3-1.62-3-4.54,0h0l-5.3,2.63-.37-.4c.47-.63,1.14-1.35.63-2s-1.56.07-2.37.21c.5-1.3.31-2.31-.82-2.75-.93-.36-1.43.58-2,1.24-1.35.17-2.94-.53-3.77,1.71-2.42,1.15-2.63,3.52-3.71,5.41l-2,.06-2.61-3.5c-.88-1.28,1-2.38,1-3.59l1-2.35.71-.3c5,.07,5,.07,6-4.19l.6-1.19-1.13.65c-1.15,1.52-2.41,2.78-4.3,2.52,0-.67,0-1.33.07-2,2.64-2.39-1.32-3.12-.15-5.14h0a5,5,0,0,0,.06-.64c.59-1.41,2.08-1.87,3.09-2.89-.43-.75-2.51.11-1.62-1.74.58-1.21.65-2.37-.55-2.52s-1.32,1.36-1.94,2.12c-.25.31-.48.62-.72.93-3.47,1.46-3.77,2.17-2,4.75h0c-1.09,2.4.5,3.45,1.51,4.79a4.37,4.37,0,0,1-2.64,2.94,2.23,2.23,0,0,0,0-.33c-.23-1.14-.24-2.9-1.63-2.63-1.91.37-1.51,2.22-1.76,3.53l-5.28-.09-.44-.48c-1.09-.81.82-3.82-1.39-3.36a6.42,6.42,0,0,0-4.78,4.91l-1.5-.16c-1.94-.3-3.51-2-6-.3l-1.16,1c-1.07-.37-2.1-.65-1.94,1.31.84,1.46.66,3.72,2.82,4.14-1,1.89-4.75,2.44-3.43,5.43-1.3,1.69-2.2,3.83-4.66,2-1-.78-3.91,2-5.07-.31l-1.61-3.68.18-2.22h0c1.75-1.87,2.79-3.52.58-5.1a3.09,3.09,0,0,1-.83-3.39c1.11-3.78-1.06-1.32-2.22-.78-1.06-1-1.54-3.88-4-.31a.72.72,0,0,1-1.2.17c-.64-.62-1.37-1.38-2.18.15-.55,1.05-1.27,2.49.69,2.57.58,0,.48.6.26,1.11s0,.59.41.59l3.65-1.88.51.41-1,2h0c-1.28,1.15-2.77,2.38-2.35,4,.32,1.29,1.57.75,2.63.06l2-.45c.48-.18.92-.86,1.45-.43a4.07,4.07,0,0,0-.42.48c-.37.7.09.93.47,1.21-2.8,2.68-5.36,3.4-7.45.72-1-1.27-2.15-1.59-3.78-.09l-.91.17c-.86-1.37-1.12-3.91-4-1.12-.54.52-1.26-.09-1.81-.37-.66-1-1.4-2-2.11.38a9.88,9.88,0,0,0-.09,2.75,2.6,2.6,0,0,0-1.44,2.73c.14.86-.86,1.57-1.36,1.2-2.65-2-2.7,1.15-3.72,2.35-.13.22-.26.43-.4.65-1.2,1.2-2.46,0-3.67.91h0v0l0,0c-2.78-1.18-3.91,2.1-5.85,3.21-2.88,3.95-.86,6.58.45,9.4a1.79,1.79,0,0,1,1.3,1.37c0,1.23-1.06,1.15-1.73,1.55-2.56-.79-6.47.41-6.85-3.66a10,10,0,0,0-1.32.24c-.75-.81.85-2.79-.43-3-1.63-.21-3.09,1.26-4.36,2.6l-1.91-.19c-.87-1.58-3.71-1.27-3.14-4.51a12.63,12.63,0,0,0-3.58,6.07c-.1,2.1-2.48.36-2.83,2l-1,.15c0-.4.06-.8.09-1.2h0a17.05,17.05,0,0,0-2.28,1.15c-.84.58-2.19-.81-2.53,1-.23,1.29,1.1,1.33,2,1.64-.06,1.56.42,2.36,2.23,1.34.68.36,1.41.68,1,1.8-1.51.74-.9,1.69-.81,2.59l-.73.7h0c-1-1-2-1.88-3.85-.81a31.15,31.15,0,0,1-3.51.55c-.68,0-1.36-.28-.88-1.3.32-.67,2.22-.4,1.39-1.58s-2.14.36-3.24.67c-.55-3.08-3-4.53-6.15-3.74a1.76,1.76,0,0,0-1.32,1.22c-.36,1,.18,1.47,1,1.72-.18,1.26-1.51,1.48-2.17,2.3l-1,0-3.37-4h0c-.82-.25-2.1,1.12-2.58.09-1.73-3.76-4.08-2.24-6.66.58-1.84,1.49-3.79,2.91-2.71,5.38.37.84-.1,1.6-1.19,1.81-1.73.33-1.58,1.26-1.21,2.29,0,.89-1,2.35.9,2.08a6.38,6.38,0,0,0,5.72,1.81c1.67-.19,3.65-.45,4.9.81-.05.66-.11,1.32-.16,2l-.58.6c-5.2.74-5.2.74-5.79,5.8-2.77,1.06-.13,4.82.83,6.57Z"/><path class="cls-1" d="M240.8,654.3s3.14-.89,3.38-1.74c.39-2,0-3.3-2.17-3l-.1-.08,0,.07-.56-.57-2.85-.17c-.26-1.33-.91-1.81-2.19-.87l-1.57.66-.49-.29c-.26-2.2,1.05-3.53,2.7-4.66a6.86,6.86,0,0,0,1.12-1.76c.32-1.25,2-2.56.77-3.73s-2.16,1-3.3,1.32c-1-2.6-2.94-4.49-4.65-6.53h0a4.92,4.92,0,0,1-.38-.56c3-2.09,4.55-4.53,2.61-7.89a10.79,10.79,0,0,1-.82-2.56c-.31-4.22-2.08-4-4.77-1.35-1.08-1.17-2.53,0-3.75-.22-.5-1.75-2-2.33-3.39-3h0c.35-1.09,1.82-1.33,1.92-2.6-.53-3.5-2-4.43-4.86-3.17a2.45,2.45,0,0,1-2.84-.44c1.55-1.83.25-2.92-.58-4.13h0c2-1.42.26-3.49,1.31-5.18.34-.54-.73-1.13-1.3-.67-2.3,1.86-3.44.5-4.76-1-.67-.77-1.44-2.41-2.64-1.52-1.36,1-1.43,2.88-1.07,4.51,1.12,1.77-5.76,4.65-6.74,2l-.34-.15,0,0h0l.32.19.64-1.84c2.54-4.71,2.31-5.65-1.43-5.69-.82,0-1.08.62-1.23,1.32l-1.46.72c-1.24-2.4-2.75-2.7-4.56-.07-1.14,1.65-2.33,3.22-4.32,3.72-2.12-1.55-2.64-5.77-6.77-4-.68-1.73-1.19-3.57-3.48-.89-1,1.18-2.4,1.43-3-.41,2.54-5.86,2.27-6.42-3.4-7.18-1.85-.13.52-3.52-2-3.11l-2.78-.39-.6-2.25c-.4-.93-.81-1.85-1.18-2.79-1.35-3.45-2.23-3.43-5.06.1h0l-5.55,3.07-.48-.46c.43-.73,1.08-1.56.43-2.25s-1.73.09-2.61.26c.38-1.49,0-2.64-1.31-3.13-1.09-.4-1.51.68-2,1.44-1.49.21-3.36-.57-4,2-2.54,1.34-2.44,4.05-3.38,6.22l-2.18.09-3.41-4c-1.16-1.46.73-2.73.65-4.12l.78-2.7.75-.35c5.59,0,5.59,0,6.1-4.85l.51-1.36-1.17.76c-1.07,1.75-2.3,3.21-4.45,2.93l-.21-2.29c2.61-2.76-4-1.87-2.68-.35a4.26,4.26,0,0,1-2.53,3.39,2.81,2.81,0,0,0-.07-.38c-.42-1.3-.68-3.31-2.19-3-2.09.44-1.38,2.55-1.47,4.06l-5.91,0-.55-.54c-1.33-.91.38-4.38-2-3.83a6.26,6.26,0,0,0-4.65,5.67l-1.69-.17c-2.21-.31-4.2-2.21-6.72-.27l-1.15,1.2c-1.25-.41-2.44-.72-2,1.52,1.15,1.66,1.26,4.25,3.73,4.71-.81,2.18-15.24,5.46-16,4.06,0-.85-.07-1.69-.11-2.54h0c1.69-2.15-4.14-.67-3.4-.85.51-.22,1.28-.15,1.16,0-.32.81.24,1.06.7,1.38-2.75,3.1-5.51,4-8.21.91-1.29-1.44-2.62-1.79-4.23-.05l-1,.2c-1.15-1.56-1.8-4.46-4.66-1.24-.53.6-1.42-.09-2.08-.4-.87-1.1-1.84-2.24-2.3.46a11.69,11.69,0,0,0,.29,3.14,2.69,2.69,0,0,0-1.23,3.14c.28,1-.73,1.81-1.35,1.38-3.24-2.22-2.85,1.35-3.82,2.73-.11.25-.23.5-.36.75-1.17,1.38-2.74.07-4,1.09h0v0l0,0c-3.27-1.32-4.07,2.45-6.08,3.74-2.66,4.54-5.41,14.63-6.41,10a10.21,10.21,0,0,0-1.44.29c-1-.92.55-3.2-.9-3.37-1.85-.23-3.28,1.48-4.51,3l-2.16-.2c-1.2-1.79-4.33-1.41-4.14-5.12a12.74,12.74,0,0,0-3.15,7c.18,2.4-2.71.44-2.87,2.36l-1.11.18c0-.46,0-.91-.07-1.37h0a16.43,16.43,0,0,0-2.39,1.34c-.85.67-2.56-.9-2.67,1.23-.07,1.48,1.41,1.5,2.43,1.85.15,1.78.8,2.69,2.68,1.51.81.4,1.67.76,1.32,2.05-1.59.86-.77,1.94-.54,3l-.71.81h0c-1.23-1.16-2.51-2.13-4.42-.88a32.4,32.4,0,0,1-3.85.66c-.76,0-1.56-.3-1.16-1.48.26-.77,2.43-.48,1.33-1.82s-2.34.44-3.53.8c-1.05-3.51-3.94-5.14-7.39-4.2a1.7,1.7,0,0,0-1.3,1.41c-.26,1.2.41,1.68,1.32,2,0,1.45-1.47,1.7-2.09,2.66l-1.08.06-4.33-4.57h0c-1-.27-2.19,1.3-2.86.13-2.46-4.28-4.87-2.51-7.36.75-1.84,1.73-3.82,3.37-2.26,6.18.53,1,.11,1.83-1.08,2.08-1.88.39-1.59,1.46-1,2.63.09,1-.79,2.7,1.3,2.37a7.69,7.69,0,0,0,6.65,2c1.83-.23,4-.55,5.59.87,0,.75.06,1.51.09,2.26l-.56.7c-5.7.9-5.7.9-5.64,6.7-2.94,1.25.53,5.51,1.85,7.5Z"/><path class="cls-1" d="M850.38,653.33s4.16-1.12,4.45-2.25c.48-2.63,0-4.41-3-4.1l-.13-.11,0,.1-.75-.77-3.79-.29c-.38-1.78-1.25-2.44-2.93-1.21l-2.07.84c-.21-.14-.43-.27-.65-.4-.39-2.95,1.32-4.69,3.49-6.17a8.79,8.79,0,0,0,1.45-2.33c.39-1.66,2.59-3.37.93-5-1.85-1.78-2.86,1.23-4.37,1.69-1.44-3.51-4-6.07-6.34-8.83h0a7,7,0,0,1-.52-.76c3.9-2.72,5.95-6,3.29-10.49a15,15,0,0,1-1.15-3.45c-.51-5.65-2.87-5.42-6.38-1.92-1.46-1.59-3.37,0-5-.38-.71-2.36-2.7-3.15-4.58-4.09h0c.45-1.45,2.39-1.73,2.5-3.44-.78-4.7-2.74-6-6.53-4.35a3.29,3.29,0,0,1-3.79-.65c2-2.42.26-3.9-.86-5.54h0c2.65-1.85-8.18-.77-9.33,2.73-.57,1.71,1.08,2.28,2.56,2.35l.25.26.28.23-4.7,5.78L798,597c-5.47-1.28-3.21-6.81-4.57-10.35l-.45-.21,0-.05h0l.43.26.81-2.44c3.27-6.23,2.94-7.5-2-7.64-1.09,0-1.42.8-1.61,1.74l-1.93.93c-1.71-3.24-3.72-3.67-6.07-.2-1.48,2.18-3,4.25-5.67,4.88-2.86-2.12-3.64-7.78-9.1-5.5-.94-2.33-1.67-4.8-4.65-1.28-1.31,1.55-3.16,1.85-4-.62,3.24-7.77,2.88-8.53-4.68-9.68-2.47-.21.61-4.69-2.77-4.2l-3.71-.58-.85-3c-.55-1.25-1.12-2.49-1.64-3.76-1.88-4.64-3-4.63-6.73,0h0l-7.32,4-.64-.62c.56-1,1.4-2.06.51-3s-2.3.09-3.47.29c.47-2,0-3.53-1.81-4.21-1.45-.56-2,.87-2.67,1.88-2,.25-4.48-.84-5.23,2.58-3.35,1.74-3.16,5.36-4.36,8.24l-2.9.07-4.63-5.38c-1.58-2,.91-3.63.77-5.49l1-3.58,1-.45c7.43.15,7.43.15,8-6.35l.64-1.81-1.54,1c-1.39,2.31-3,4.23-5.86,3.81-.11-1-.22-2-.33-3.07,3.41-3.63-5.35-2.6-3.57-.53a5.44,5.44,0,0,1-3.29,4.47,3.87,3.87,0,0,0-.1-.51c-.59-1.75-1-4.44-3-4-2.76.54-1.77,3.38-1.86,5.39l-7.87-.2-.75-.73c-1.79-1.25.4-5.84-2.78-5.16s-5.71,3.51-6.05,7.47l-2.26-.26c-2.95-.47-5.63-3-8.94-.51l-1.51,1.57c-1.67-.57-3.26-1-2.61,2,1.56,2.24,1.77,5.71,5.07,6.38-1,2.89-6.53,3.69-3.94,8.27-1.58,2.58-2.45,5.85-6.5,3-1.7-1.21-5.38,3-7.6-.53l-3.17-5.65c-.07-1.13-2.86-3.1-2.24-2.67-3.59,4.08-7.24,5.16-10.91,1-1.75-2-3.53-2.45-5.63-.17l-1.31.25c-1.57-2.11-2.5-6-6.22-1.76-.7.79-1.89-.16-2.77-.59-1.19-1.5-2.5-3-3,.56-.21,1.37.28,2.8.46,4.21-1.41,1.08-2.12,2.27-1.56,4.17.39,1.32-.94,2.4-1.76,1.82-4.36-3-3.77,1.74-5,3.57-.14.34-.29.66-.46,1-1.53,1.82-3.65,0-5.26,1.36h0v0h0v-.07l0,.05c-4.38-1.84-5.36,3.18-8,4.86-3.44,6,.13,10.06,2.67,14.4a3.31,3.31,0,0,1,2.23,2.11c.29,1.88-1.33,1.75-2.24,2.36-4-1.24-9.52.55-11-5.67a13.47,13.47,0,0,0-1.92.35c-1.29-1.25.67-4.26-1.27-4.53-2.46-.34-4.32,1.91-5.93,3.93l-2.87-.32c-1.64-2.42-5.79-2-5.62-6.94-2.66,3.37-3.76,6.13-4,9.25.29,3.21-3.6.53-3.77,3.09l-1.47.22c0-.61-.08-1.22-.12-1.84h0a21,21,0,0,0-3.15,1.74c-1.12.88-3.42-1.27-3.53,1.58-.06,2,1.92,2,3.28,2.53.24,2.39,1.13,3.62,3.6,2.07,1.08.56,2.24,1.05,1.8,2.77-2.09,1.12-1,2.58-.66,4l-.93,1.07h0c-1.66-1.58-3.39-2.9-5.9-1.27a42.22,42.22,0,0,1-5.1.8c-1,0-2.08-.44-1.58-2,.33-1,3.22-.59,1.73-2.4s-3.1.53-4.67,1c-1.48-4.72-5.36-7-9.93-5.79a2.18,2.18,0,0,0-1.69,1.86c-.32,1.59.58,2.25,1.8,2.64,0,1.93-1.92,2.24-2.73,3.5l-1.44.05-5.86-6.2h0c-1.27-.38-2.88,1.69-3.81.11-3.38-5.78-6.54-3.47-9.77.83-2.41,2.27-5,4.42-2.87,8.21.73,1.29.19,2.45-1.39,2.76-2.49.48-2.08,1.91-1.31,3.49.15,1.37-1,3.59,1.78,3.2a10.48,10.48,0,0,0,8.89,2.84c2.43-.27,5.32-.65,7.45,1.29.06,1,.12,2,.18,3l-.73.92c-7.57,1.07-7.57,1.07-7.36,8.83-3.88,1.6.83,7.38,2.64,10.07Z"/><g class="cls-9"><path class="cls-3" d="M1406.33,327V240.28l4.29,0V230h-4.29v-8.22h-20.92L1355.21,80.6l-23.4,141.15h-25.11v.34h-.31V230h-6v11.5l7.26-.08V436.77h294V327Zm-36.41-97v-4.49h6.76V230Zm-9.62-4.49V230h-9.46v-4.49Zm-19.08,0V230h-7.84v-4.49Zm55.48,4.49h-10.41v-4.49h10.41ZM1316,225.49h7.77V230H1316Z"/><path class="cls-1" d="M1352.09,57.59c-.32,1-1.6,1-1.94,1.93a4.3,4.3,0,0,0,0,3.16,1.84,1.84,0,0,1-.18,2.2,4.78,4.78,0,0,0,.19,5.35,14,14,0,0,0,3.54,3.36c.62.49,2.65.64,1.18,2.32,0,0,0,.17.07.21.84.8.33,1.82.38,2.72.07,1.15-.6,1.75-1.74,1.75-1.47,0-2.94,0-4.41-.06-.25,0-.41,0-.35.4h4.46c1.61,0,2.07.48,2.07,2.1q0,7.19,0,14.39c0,.29,0,.59,0,.88s.08.41.34.44.44-.18.45-.46,0-.67,0-1q0-7.07,0-14.14c0-1.75.47-2.2,2.24-2.2l4.42,0a2.32,2.32,0,0,1,.5.13l.12,1,1-.08c-.61-.06-.61-.47-.59-.93,0-.23.62-.36.06-.75-.23-.16-.12-.79.12-.82a.42.42,0,0,0-.62,0l-.12,1h-5.72a.91.91,0,0,1-.77-.29,4.11,4.11,0,0,1-.11-4.42c-.78-.56-.87-1.08.08-1.58a3.14,3.14,0,0,0,1.89-1.88,2,2,0,0,1,1.18-1.39c2.89-.82,2.93-2.81,2.55-4.75.23-.09.42.33.7,0l-.84-1h.81c-.16-.7-1-.56-1.24-1,.1-.35.56,0,.6-.38-.37-.35-.92-.19-1.33-.38.28-.65,1-.61,1.36-1-.84-.4-1.58,0-2.43.21,1.35-1.7,2.08-1.81,4.28-.79a3.4,3.4,0,0,0-4.95-.45,8.6,8.6,0,0,0-2.21,3.33c-.55,1.3-1.54,1.49-2.54.47a3.63,3.63,0,0,1-1.07-2,9.13,9.13,0,0,0-1-2.86c.91-.08,1.23-.6,1.29-1.47l-.94.1c-.27-.36.48-.58,0-.92l-.81.38.16-1"/><path class="cls-1" d="M1352.35,57.59l-.16,1,.81-.38c.49.35-.26.56,0,.92l.94-.1c-.06.87-.38,1.39-1.29,1.47a9.13,9.13,0,0,1,1,2.86,3.63,3.63,0,0,0,1.07,2c1,1,2,.83,2.54-.47a8.6,8.6,0,0,1,2.21-3.33,3.4,3.4,0,0,1,4.95.45c-2.2-1-2.93-.91-4.28.79.86-.16,1.59-.61,2.43-.21-.4.44-1.08.4-1.36,1,.4.2,1,0,1.33.38,0,.41-.5,0-.6.38.25.43,1.07.29,1.24,1h-.81l.84,1c-.28.3-.47-.12-.7,0,.39,1.94.34,3.94-2.55,4.75a2,2,0,0,0-1.18,1.39,3.14,3.14,0,0,1-1.89,1.88c-.95.49-.85,1-.08,1.58a4.11,4.11,0,0,0,.11,4.42.91.91,0,0,0,.77.29h5.72l.12-1a.42.42,0,0,1,.62,0c-.24,0-.36.66-.12.82.56.39,0,.51-.06.75,0,.45,0,.87.59.93l-1,.08-.12-1a2.32,2.32,0,0,0-.5-.13l-4.42,0c-1.78,0-2.24.45-2.24,2.2q0,7.07,0,14.14c0,.34,0,.67,0,1s-.12.49-.45.46-.34-.21-.34-.44,0-.59,0-.88q0-7.2,0-14.39c0-1.62-.46-2.08-2.07-2.1h-4.46c-.06-.38.1-.4.35-.4,1.47,0,2.94.06,4.41.06,1.14,0,1.81-.6,1.74-1.75-.06-.91.46-1.92-.38-2.72,0,0-.1-.18-.07-.21,1.47-1.68-.56-1.83-1.18-2.32a14,14,0,0,1-3.54-3.36,4.78,4.78,0,0,1-.19-5.35,1.84,1.84,0,0,0,.18-2.2,4.3,4.3,0,0,1,0-3.16c.34-.89,1.62-.94,1.94-1.93Z"/></g><polygon class="cls-10" points="1597.73 275.33 1593.07 267.67 1593.07 251 1591.33 251 1591.33 249.36 1587.33 249.36 1587.33 251 1584.67 251 1584.67 249.36 1580.33 249.36 1580.33 251 1578.4 251 1578.4 267 1573.73 275.33 1537.07 274.33 1500.4 303 1503.14 303 1503.14 326.48 1600 326.84 1600 275.28 1597.73 275.33"/><path class="cls-11" d="M208.82,78.44c3.48-2.23,24.84,9.49,30,16.4,3.13,4.21,5.58,8.43,6.25,11.65,3.65-1.26,4.88-.26,5.41,1a5.19,5.19,0,0,1,1.26.54l-1.25.23c-.34,1.22-1.88,3.08-2.09,3.8h0c3.25.88,9,9.62,10.11,19.5,1.17,10.6-.78,16.5-.78,16.5-.69-3-3.91-17.3-12.43-27.51-1.53-1.83-3.82-1.71-6.09-4.11l-.18-.19c-.32.1.94-.26,0,0-2,.91-4.9.14-6,2.47a34.47,34.47,0,0,1-2.17,3.58,15.82,15.82,0,0,1-.41-4.75,29.18,29.18,0,0,1-5.35-1.87,57.54,57.54,0,0,0,7.61-2.45c.27-.11,1.37-1.68,1.64-1.66l.44-.38L235,105c-2.26-3-6.43-11.13-11.72-16.5C215.73,80.85,208,78.94,208.82,78.44Z"/><path class="cls-12" d="M1265,92.16c28.38-18.91,59-22.6,54.6-23-32.87-3.34-62.2,11.23-69,15.07-2.89,1.64-6.75,6.91-9.11,12.07a11.7,11.7,0,0,0-3.62-1.42,17.81,17.81,0,0,0-4.88-.57c-1.67.12-3.28,1.1-4.94.86,4.33,3.69,5.31,8.24,8.34,11.87a24.78,24.78,0,0,0,9.46,6.83l24.17,43.32h1.06v-1.48l-13.24-39.26,1.22,0c3.3,0,6.57-.33,9.88-.2,3.49.14,6.81,1.21,10.31,1-1.59-1.21-6.84-4-7.09-5.89a18.94,18.94,0,0,0,7.76-3.15c-4.38.14-8.69.12-13.05,0a44.23,44.23,0,0,1-9.46-1.2C1257.76,105.22,1259.45,95.88,1265,92.16Z"/><g class="cls-9"><path class="cls-3" d="M398.71,155h0S398.67,155.06,398.71,155Z"/><path class="cls-3" d="M350,165.38c1-.21,8.1,1.2,12.52,2.11-1.36-.68-2.49-2.59-3.07-3.67a19,19,0,0,1-1.93-4.46c1.42.63,2.84,1.31,4.28,1.88a17.75,17.75,0,0,0,6.77,1.33,19.7,19.7,0,0,0,4-.38c.88-.17,1.88-.5,2.81-.59,6.48-23.27-30.65-49.3-26.7-49.3,4.7,0,24.92,12.23,34,24.66a36.49,36.49,0,0,1,6.67,14.85,7.71,7.71,0,0,1,4.49-1c3.42,0,5.19,1.83,5.29,2.42a1.31,1.31,0,0,1,0,.24c.52,0,1-.07,1.54-.07-.56.25-1.2,1.29-1.94,1.58,0,0,0-.08,0,0a19.72,19.72,0,0,0-2.73,2.08c-.13.14-.24.28-.36.44-1.59,3.68-8.2,10.41-14.39,11-1.55.14-2.84.23-3.9.25-1.56.49-3.41.76-4.09,1-4.64,1.47-8.82,4-13.49,5.43.82-2.15,1.48-4.48,2.85-6.35-3.26-.52-8.28-1.69-9.3-1.83C352.59,166.85,347.15,166,350,165.38Z"/></g><path class="cls-1" d="M1474.06,377.55c-.25-.08-1.11.47-1.11.72,0,.49.34,1.32.7,1.39a6,6,0,0,0,2.24-.3,9.52,9.52,0,0,0,1.32-.49,2.47,2.47,0,0,1,0,.76c-.34,1.13-.77,2.23-1,3.37-.06.27.41.63.63,1,1.18-.59,1.1.29,1.46.82a4.09,4.09,0,0,0-.63,0c-.47,1.52-1.76,1.28-3.07,1a3.47,3.47,0,0,0-1.2-.11c-.23,0-.58.46-.53.57a21.69,21.69,0,0,0,1.46,2.39c.16.22.6.53.81.48,1.83-.41,1.53.78,1.69,1.21-.57.69-.89,1.14-1.29,1.55s-.76.65-1.14,1a5,5,0,0,1-.62-1.28,5.2,5.2,0,0,1,.13-1.44c-.71,1.46-1.16-.37-1.73,0a5.28,5.28,0,0,1,.42,1.63c0,.47-.4,1.3-.7,1.32-.67.05-1.52,0-1.72-1-.09-.43-.72-.77-1.28-1.33.09-.61.37-1.58-1.41-1.68,0,.51-.08,1-.11,1.38-1.52.24-3.16,1-4.38-.2-.42-.42,0-1.41,0-1.89l2.64-.46c-1.25-1.24-2.31-1.33-3.55-.54l-.45-.82c-.72.28-1.65.38-2,.81a5.88,5.88,0,0,0-.65,2.14l-.39.15-2.36-3-.62,1.31c-.7-.82-1.05-1.61-1.72-1.9a1.47,1.47,0,0,1-1.06-1.79c.12-.62.52-1.2.65-1.82.1-.44.12-1.22-.11-1.31a6.88,6.88,0,0,0-2.29-.29c-.13,0-.23.62-.41.92a1.21,1.21,0,0,1-.56.57,1.41,1.41,0,0,1-1-.06,11.2,11.2,0,0,1-1.31-1,22.53,22.53,0,0,0-.3,2.83c0,.89-.06,3.42-.33,3.44a2,2,0,0,1-1.19-.44c-.24-.18-.21-.59-.44-.8a5.86,5.86,0,0,0-1.06-.65,3.11,3.11,0,0,0-.22,1.25,14.19,14.19,0,0,0,.84,2c-2.07.7-2.53-.27-2.66-1l-2.16-1.14-.46.4c-1.33-1.57-.66-3.29,1.85-4.26l-2.9-3.13c0,.77,0,1.16,0,1.63-1.45-.34-1.55.42-1.81.88L1433,384c0-.6-.11-1.44-.19-2.52l1.66.63c.67-1.23.3-1.81-1.69-1.47.2-1.07,0-2.37.6-2.66a2.74,2.74,0,0,1,3.49.62,11.55,11.55,0,0,0,.87-1.59,7,7,0,0,0,.2-1.54,6.27,6.27,0,0,1-1.77.72c-.42,0-.85-.35-1.26-.56a4.61,4.61,0,0,1-1.1-.65c-.24-.23-.49-.63-.42-.89.26-.94-.26-1.21-1.22-1.09-.16-1.8.14-2.09,2.35-2.37-.67-1-.11-1.8.86-2.26.3-.15,1.11.45,1.89.79a2.62,2.62,0,0,0,1.35-2.32c0-.3.41-.78.78-.95,1.62-.73,2.14-1.53,1.83-3.17l-2.75.88c-.08,1.19-.83,1.58-2.92,1.32l-.15,1.11-2.1-.43-3.48,1.68-.81-2.16-.38.08-.57,1.27-.72-1-.88.51a3.78,3.78,0,0,1,0-4.11c.26-.4.14-1,.21-1.64l-2.24.78c-.25-1.28-.51-2.52-.74-3.77,0-.09.17-.21.22-.33a7.51,7.51,0,0,0,.48-1.06c.45-1.47,1.41-1.81,3-1a6.18,6.18,0,0,0,.79.27c.69-1.46.46-1.66-2.18-1.79a10.32,10.32,0,0,0-.29-4.65,2.84,2.84,0,0,1-.06-.79l-1.65-.11c.11-.89.21-1.78.33-2.71-.57-.11-1.86-1.51-1.63-2.24a2.45,2.45,0,0,1,1-1.13c.11-.07.8.36,1.09.66a9.06,9.06,0,0,1,.95,1.41,16.32,16.32,0,0,1,.05-2.14c.13-.78.17-1.82,1.43-1.8a2.34,2.34,0,0,0,1.84-.83c1.26-1.13,2.65-1.88,4.6-1.14.19.07.49-.07.74-.11l1.73-.31a14.46,14.46,0,0,1,0,1.91c0,.28-.37.52-.39.55.9.06,2.26-.1,2.46.22a8,8,0,0,1,.55,2.85c2,.59,1.24,1.94.51,3.33l1.59.36a12.09,12.09,0,0,1,2.14-1.89,3.71,3.71,0,0,0,1.81-1.72c.23-.47,1.06-.77,1.69-1s1.55-.54,2.33-.81l-.05-.42a19.18,19.18,0,0,0-3.19-1.52c-.42-.12-1.15.55-1.74.87l-.36-.13a37.65,37.65,0,0,1,1.22-3.62,1.54,1.54,0,0,1,2-.9,2.43,2.43,0,0,0,2.55-.68,6.69,6.69,0,0,1,1.45-.87c1.23-.79,3.61.08,4-1.93,0-.06.27-.13.41-.11,1.3.15,2.21-.65,3.27-.91,1.26-.32.82-.75.87-1.37l-2.64,1c-.14-.61-.27-1.22-.41-1.88l-2.32,0,.35,2.37-4.94-1.1c-.17.91,0,2.1-1.87,1.43-.73,1-1.78.86-2.87.38,0,1.43.14,1.48,2.22,1-.12.63-.21,1.12-.35,1.87l-1.39-1a7.44,7.44,0,0,0-.7,1.39,1.33,1.33,0,0,1-2,.69c-1.64-1-1.73-2-.31-3.39l.87.62c1-1.19,1.1-3,3.63-2.93l.05-3.6a2.45,2.45,0,0,0-1.08,1.47c-.16,1.49-.09,1.5-1.83,1l-.42,2c-2.15-1.14-2.3-3-3.12-4.56a17.21,17.21,0,0,0-.06,2.13c-.09.69.16,1.74-1.22,1.69-.33-1-.64-1.83-.9-2.7a2.41,2.41,0,0,1-.15-1.35,11.8,11.8,0,0,1,1.08-1.9c.86.08,1.07-.53,1.2-1.32,0-.27.47-.5.75-.72s.61-.42.89-.65c.79-.64,1.55-1.31,2.39-1.91a1.21,1.21,0,0,1,.82.41,4.18,4.18,0,0,1-.12,1.4,24.3,24.3,0,0,1,2.61-2.34,2,2,0,0,1,1.61.12,8.36,8.36,0,0,1,1.43,1.71c.29-.62.35-1.26.71-1.41,1.23-.51,1.12-1.3.92-2.18l-3.69-1.24.91-2.21L1448,314c-.66,1.2-1.16,2.21-1.81,3.15-.12.17-.93.14-1.33,0a2.93,2.93,0,0,1-2-2,3.09,3.09,0,0,0-3-2.18l-.36,2.35c-2-.91-2-1-.82-2.92a4.79,4.79,0,0,0-1-1.14,3,3,0,0,0-1.49-.38,7.41,7.41,0,0,0-1.63.4c0-.68.16-1.11,0-1.4a1.7,1.7,0,0,1,.27-2.15c.61-.73.35-1.32-.27-2a2,2,0,0,1-.26-1.87c.24-.57,1.09-.93,1.54-1.46a15.43,15.43,0,0,0,1.17-1.77l-2.11-.74c.28-.37.65-.82,1-1.28a2.39,2.39,0,0,1,3.14-.58,9.1,9.1,0,0,0,1.36.54c.1-.84-.06-1.69.29-1.88a3,3,0,0,1,2,.1c1.45.5,2.74-.19,2.68-1.65l-2.94.42-.22-.8-4.23-.88-.5,1.68-3.59-3.54.37,2.39a2.22,2.22,0,0,1-1.71-3.38c.57-.26,1.29-.63,1.3-1,0-1.15.29-2,1.55-2-.09-.79-.14-1.44-.27-2.08a8,8,0,0,0-.46-1.23l-.44.13.21.9c-1.13.7-2.11,1.29-3.06,1.91A1.64,1.64,0,0,1,1429,287c-.56-1.29.79-1.73,1.66-2.61l-2.63-.95,1.92-2.6-1.88,0c-.11-2,1.87-1.78,3.38-2l-.09-.51-2.17-.27.52-.77a11.74,11.74,0,0,1,1.69-2.43c1.24-1.1,2,.38,2.94.65.42.11.86.19,1.37.3a1.55,1.55,0,0,1,2.55-.81,13.28,13.28,0,0,1,3.72,2.7c1.11,1.46,2.75,2,4.36,3,.62-1.29,2-2.27.68-3.71-.16-.18.34-1.16.64-1.2a3.22,3.22,0,0,1,1.83.46c.35.2.42.73.72,1.32a12.8,12.8,0,0,1,.94-1.23c.29-.29.71-.76,1-.72a2,2,0,0,1,1.24.75,2.91,2.91,0,0,1,.37,1.49c0,1,0,2.07,0,3.19,1.56-.14,2.8-.42,3.11,1,0,.14.77.25,1.17.23s.62-.29.95-.37c2.13-.52,2.13-.51,1.83-2.33a1.65,1.65,0,0,1,1.81-1.65c1.42.41,2.82.88,4.47,1.4a7.31,7.31,0,0,1-.06-1.5,14.33,14.33,0,0,1,.51-1.79,7.82,7.82,0,0,1,1.43,1c.62.69,1.11,1.46,1.83,2.45l1.8-3c-.25-.12-.34-.21-.42-.2-1.72.26-3.14.16-3.28-1.74,0-.23-.56-.44-.86-.65l-1.32-.9c1.11-1.22.92-2.13-.68-3.56a7.93,7.93,0,0,1,.17,1.07c0,.65-.36.94-1.18.76-.61-.13-1.25-.16-1.84-.33-.25-.07-.41-.37-.75-.69,1.24-.19,2.5-.1,2.5-1.62l-1.92-.17a5.13,5.13,0,0,0-1.82-1.12c-.72-.28-1.29-.53-.86-1.33.87-1.63.8-1.73-1.27-2.4l.47,3.66-.5.17-3.18-1.45a8.35,8.35,0,0,1-.12,1.27c-.07.3-.24.72-.51.82a1.27,1.27,0,0,1-1.05-.21c-.87-1.16-1.85-.63-2.91-.27l.46,2.07a15.08,15.08,0,0,1-2.82-1.23,15.77,15.77,0,0,1-2.08-2.18l-.47.21,1.06,3.36-3.59.32a4.52,4.52,0,0,0,.16-.88c0-1,.69-2.23-1.38-2.43-.14,0-.32-.83-.22-1.23s.54-.65.88-1l-1.39-.47c.3-.81.19-1.83,1.79-1.28.21.07.91-.29.94-.49.16-1.25,1-1.44,2.2-1,.58-1.76.58-1.76-.09-4.22a.42.42,0,0,1,0-.26c.57-1.36.07-3.16,2.25-3.88.28-.09.39-.5.64-.7a1.64,1.64,0,0,1,.75-.32c.75-.11,1.51-.17,2.26-.24l-.06.14,1.38.16c-.15-1.55-.27-2.91-.4-4.26h-.37l-.5,1.52a10,10,0,0,1-2.2-.64c-1.31-.75-3-1.37-2.39-3.19,0-.12-.2-.29-.27-.46a2,2,0,0,1,1.54-2.85c-.31-1.1-1.45-2.22.14-3.26a3.74,3.74,0,0,1,3.81-.38,7.06,7.06,0,0,1,.33-1.63,19.32,19.32,0,0,1,1.21-2l1.86,1.53c.34.05.79.14,1.24.18s.91.17,1.08,0c.83-.75,1.49,0,1.93.27s.76,1,1.13,1.59l-1.88.79.63,1.34c1.84-.81,1.78-.79,2.69.79a8.27,8.27,0,0,0,1.52,1.51l.55-.27,1.59-.72a13.22,13.22,0,0,1,.46,1.76,7.65,7.65,0,0,1-.08,1.53,1.46,1.46,0,0,0,1.7,1.54,9.57,9.57,0,0,0,1.39-.48c.46-.17,1.15-.27,1.28-.56s-.28-.76-.51-1.29c-1.14.91-1.6.53-1.85-.36-.12-.41-.18-.93-.51-1.19-1-.77-1-1.48-.24-2.35a.7.7,0,0,0-.14-.77c-1.37-.86-.83-1.67.08-2.51-1.56-1.54.52-1.72,1.26-2.47-1.39-.82-.65-1.81-.16-2.68.17-.3.91-.36,1.6-.61.39-1.4.58-1.5,1.84-1,.71-.33,1.35-.9,1.85-.82a17.08,17.08,0,0,1,2.93.91c.86-.64,1.45-1.41,2.25-1.61s1.1-.42,1.28-1c.07-.24.33-.44.62-.79l1.28,1.54.92-1.29.43,0,.53,2c1.69-.74,1.9-.67,3.5,1.27l2.11-.76a2.69,2.69,0,0,1,.61-2.88,3.35,3.35,0,0,1,1-.24l.58,1.08c1.82-.59,2.29-.44,3.36,1.15l1.42-1.6c1.52-.37,2.17.13,1.8,1.52.32-.16.64-.4.72-.35,1.32.82,1.51,0,1.55-.79.06-1.16.85-1.41,2-1.38a5.63,5.63,0,0,0,2.12-.1c1.09-.45,1.6-.1,1.95.7.8-.38.8-.38,3.62.85l1.16-.54.63,1.31a1.59,1.59,0,0,1,2.32,1.13,7.29,7.29,0,0,1-.12,2.48l-1.77,0,.73,2.25.32,0,.13-1.57,1.23.18.11-1.22c2.16-.43,2.28-.55,2.39-2.27,0-.25,0-.61.24-.73a25.59,25.59,0,0,1,3-1.71,17.62,17.62,0,0,1,2-.42c1.75-.54,3.36.26,3.58,1.8a6.11,6.11,0,0,0,.22.78,21.8,21.8,0,0,0,2.24.18c1,0,1.9-.2,2.85-.21,1.78,0,2.5,1.4,3.72,2.13a1.27,1.27,0,0,1,.38,1.37,2.58,2.58,0,0,1-1.69.72,22.76,22.76,0,0,1-3.05-.23q.18,1.52.37,3l-.23,0,1.24,1.72,1.47.2,1.36-2.46c.74,1.59,1.53,1.14,2,.78l2.65,1,.27-1.06a7.13,7.13,0,0,0,2,.94c1.83.23,2.63,1,2.29,2.63a5,5,0,0,1,1.71.27,9.53,9.53,0,0,1,1.83,1.67s-.53.43-1,.8l2,.23.51,1.15c1.95-.36,1.41,1,1.91,1.82l-2.88.12c0,.45,0,.91,0,1.37a4.85,4.85,0,0,1,5.26,4.15,2.19,2.19,0,0,1,0,1c-.12.26-.49.43-.76.64-.24-.24-.58-.45-.7-.72a4.51,4.51,0,0,1-.17-1.21c-2.27.31-.26,1.85-1.58,2.66l-1.69-1.18-.65.88-1.31-1.54c-.21,1.95,2.16,3.67.72,5.73-2,.14-1.52-1.55-2.16-2.22l-2.37,1.33c-1-.63.23-2.24-1.75-2-.58.9-.79,1.68.29,2.47.41.3.48.92.71,1.39l1.52,3c.31-2.63,1.19-3.18,4.11-3.17a1.86,1.86,0,0,0,1-.38,4.37,4.37,0,0,1,3.56-.06,11.15,11.15,0,0,0,1.22.76c.24-.39.49-.77.72-1.16.12-.21.21-.43.42-.86.61.68,1,1.57,1.54,1.64,1.21.15,1.25.86,1.59,1.5a2.5,2.5,0,0,0,.72.92c2.06,1.41,2.06,1.94-.1,3.29a13.29,13.29,0,0,0,3.43.38c1.65-.1,3.29.66,3.57,2a10.08,10.08,0,0,1,0,2.08c2.33,1.47,2.33,1.48,2.27,3.89-.78-.32-1.43-.52-2-.82a2,2,0,0,0-2.44.34c-.49.54.21,1,.86,1.34a1.47,1.47,0,0,1,.67,1.25c-.06.4-.63.74-1,1.12.58.34,1.13.63,1.62,1,.68.46,1.27,1.31,2,1.39,1.74.18,1.53,1.24,1.77,2.13a1.86,1.86,0,0,1-.08.77c-.57.11-1.08.18-1.56.3s-.92.32-1.28.45l-1.12-1.57-.52.18a7,7,0,0,0,1,2.57c.93,1,.44,1.73-.11,2.52a7.66,7.66,0,0,1-1.2,1.11c-1.23-.55-1-1.26-.77-2,.12-.35.09-1-.15-1.12a3.6,3.6,0,0,0-1.53-.08,12.65,12.65,0,0,0-1.28.2c1.19.6,2.37,1.16,1.35,2.14-.45.43-1.5.41-2.28.6l.79,1.8-1.3.44.49,2-3.67-.51-.69-1.91-.29.3-2-.78.86,1.92-1.47-.13-.55,1.6,1.07.6c1.53-1.37,2.18-1,3.35,1.57a9.88,9.88,0,0,0,2.31-.1,2,2,0,0,1,2.44.69,2.88,2.88,0,0,0,3.22,1.43l.29-1.38,1.47.85-.71.73c.8.52,1.81.88,2.2,1.51a7,7,0,0,1,.47,2.61c-1.67-.75-2.13.46-2.5,1.17s0,1.58,0,2.51c.81-.18,1.16-.23,1.49-.34s.61-.3.93-.43a2.48,2.48,0,0,1,2.64.74,4.25,4.25,0,0,1-1.18,5.09c2.05,1.58,1.56,3.5,1,5.57l-4.23-.06.49,1.54c1.28.11,2.29.42,2.32,1.65,0,.71.24,1.55-1.3,1.36l.88,2.24c1.8-1.15,1.77-1.12,3.32-.25.26.15.87-.19,1.33-.21s1.3-.1,1.57.14c.81.76.56,2.39-.34,3.26l-1-.72.37.45c-.6.29-1.41.47-1.74.9s-.15,1.12-.17,1.37a10.16,10.16,0,0,1,2.92.26,6.14,6.14,0,0,1,2.17,1.79c.5.62-.58,1.54-1.54,1.37a2.91,2.91,0,0,1-.59-.2c-.23,1-.39,2-.68,2.87-.36,1.1-1.22,1.83-2.91,2.23a11.65,11.65,0,0,1,.64-2c.42-.8.38-1.31-.78-1.48s-1.56-.67-1.48-1.6a3.39,3.39,0,0,0-.27-1c-.87.59-1.49,1.34-2.25,1.44s-1.56-.48-2.46-.8l-.66,3.52-2.25-1.81-2.57,1-.42-.38a7.11,7.11,0,0,0,.57-1.77,2.15,2.15,0,0,0-.54-1.36,9.8,9.8,0,0,0-1.34-1c-.34-.28-.62-.62-1.16-1.18,0,.91,0,1.42,0,2l-1.22-1.7-.38.05-.31,1.38-2.28,0,.45,1.32c.92.17,1.83.1,2.16.43a17.71,17.71,0,0,1,2,2.76c0,.06-.17.22-.19.34a5.52,5.52,0,0,0-.21,1.83c.18.9.11,1.52-1.39,1.53l1.31,2.23c2.2-.92,2.59-.75,2.86,1,.1.65.37,1.36,1.4,1.07,0-.5,0-.9,0-1.49.66.5,1,.93,1.38,1,2,.42,3,1.39,2.67,3.16-.08.42-.17,1-.48,1.17a12.75,12.75,0,0,1-2.42.49c-1.67,1.1-3.09,2.8-6.13,2.24a3.21,3.21,0,0,0,1,1c.7.48,1.45.92,2.09,1.46a9,9,0,0,1,1.31,1.49c.31.41.74.86.76,1.3.06,1.75,0,3.51,1.18,5.08l1.91-.7-.45-1a8.32,8.32,0,0,1,1.77-.13c.5.08,1,.54,1.43.53a2.3,2.3,0,0,0,1.24-.67c.24-.21.28-.57.59-1.25.64.87,1.09,1.41,1.45,2,1,1.65,1.27,1.71,3.28.62a14.85,14.85,0,0,1,2.27,3.33c.41,1.2.58,2.71-1.63,3.17a6.53,6.53,0,0,0,.3.69c1.36,2.3,1.36,2.31-.82,4.23-.46.41-1.11.71-1.4,1.17a1.49,1.49,0,0,1-2.16.4c-.57-.47-1.11-1-1.46-1.27a10.35,10.35,0,0,1-2.07,1.2c-.19.06-.73-.67-1.23-1.16-1.6.38-1.32-1.2-2.11-2-.22.33-.45.54-.48.76-.3,1.79-.55,3.59-.83,5.39-.16,1-.34,2-.55,2.93,0,.1-.3.16-.46.24l-1.35.65-.72,3.9a10,10,0,0,0,1.5-.22c1.66-.47,2.56-.15,3.22,1.14.12.23.54.37.83.53a4.6,4.6,0,0,1,1,.56c.57.61.29,3.39-.37,3.92a2.08,2.08,0,0,1-.55.2l-1.27.45-1.31-.85c-.22.17-.37.29-.53.39-1.43,1-1.88.81-3.09-.34-.83-.79-1.71-1.44-1.79-2.57,0-.14-.47-.25-.75-.38l-.43,2.13-1.32-.33c.61,1.26-.41,1.55-1.42,1.9,0,1.26,0,2.51-.06,3.8l-2.25,1.46c-.16-.83-.63-1.65-.35-2.16a2.21,2.21,0,0,0-.31-3l-1.34.61.88,3.25-2.9-.47c0,1.15,0,2.28-.05,3.49l1.29-.41c-.15-.64-.28-1.18-.48-2,1,.12,2,0,2.46.34a1.67,1.67,0,0,1-.35,2.94,1.62,1.62,0,0,0-1.23,2,5.78,5.78,0,0,1-1.77-.59,5.34,5.34,0,0,1-.86-1.61l-.47,1.84-.4.14-3.8-4.5-.45.17a9,9,0,0,1,.37,1.95,4.49,4.49,0,0,1-.51,2c-.08.15-1,0-1.71-.09l.27.92c.24.79-.45,1.05-1.06.89a6.71,6.71,0,0,0-4.17.3c-1.17.41-1.8,0-1.94-1,0-.24-.09-.48-.1-.53l-1.94-.65-2.72.93-.36-.22,2.09-3.25c-.07-.46-.14-1-.25-1.79l-2.45.38c0-.48-.06-.87-.11-1.49-1.29,1-1-.33-1.76-.72a11.83,11.83,0,0,0,.43,1.67c.48,1.09-.12,1.67-1.22,2.1-.75.29-1.46.64-2.1.93l-2.22-1.6-2.23,1.6-.24-.23c0,.37-.06.73-.08.9a26.51,26.51,0,0,1-3.73.27c-.85-.05-2.07.19-2.35-1-.13-.6-.6-.79-1.09-.15h0l-2-.37,1.72-2.79-2.71-.42-.15-.54c-.9.46-1.8.91-2.68,1.39-.23.13-.57.4-.53.55.59,2.14-.73,4.24,0,6.43a4.74,4.74,0,0,1-.26,4.05,8.33,8.33,0,0,0-.82,3.72c-.17,2.94-.1,5.9-.25,8.84-.18,3.4-.26,6.76,1.4,10a6.85,6.85,0,0,1,.4,1.49c-2.07-.21-4.23.34-5.55-1.61-.6,1-1.25,1.53-2.39.73-.14-.1-.52.06-.79.08-.48,0-1,.08-1.45.08s-1.1-.06-1.78-.1c-.09-1.19,6.52.65,6.4-.79-.07,0-2.32.72-2.39.73-.16.94-4.86-2.09-5-1.14l-.54-.05c-.09-.44,3.3-.27,3.22-.7,0,0,1.78-8.51,1.43-24.46,0-.07-2.8-5.74-2.84-7.4l-2.53.43c0-.73,0-1.21,0-1.69l-.33-.07-1,2.3a21.76,21.76,0,0,1,1,2.18.94.94,0,0,1-.29.88,1.16,1.16,0,0,1-1-.07c-.25-.18-.51-.65-.4-.84.89-1.52-.3-2.1-1.61-2.65l-.81-1.17c-.35,0-.71.06-1.06.05-.55,0-2.26-1.44-2-1.75.45-.65.59-1.75,2.08-1.3.62.19,1.27.28,2,.43,0-.34,0-.75,0-1-.59-.19-1.41-.36-1.4-.47a6.74,6.74,0,0,1,.51-1.62l1.63.42c1.26-2,1-2.64-1.53-2.77.36-.43.57-.93.86-1,1.25-.16.89-.76.75-1.31-1.49-.31-1.73.64-2.23,1.33-.63.87-1.23.86-1.85,0a5.63,5.63,0,0,0-1.13-.88c-.75,1-2.82,1.51-3.11.91s.15-1.3.31-2.24l-2-.45A30,30,0,0,0,1474.06,377.55Zm81.17-8.08c-.57-.69-1-1.44-1.6-2.22l-.79,1.4,1.58,4.53c1.57-.28,2.32-1,2.34-2.21.55,0,1.11,0,1.66.05,1.25.08,1.43-.51,1.19-1.6l-2.81,1.56A19.59,19.59,0,0,1,1555.23,369.47Zm-13.13-82.07c1.28-1.1,2.31-1.35,3,.48a5.43,5.43,0,0,0,2-.25c1.44.27.68,1.21.64,1.61a21.74,21.74,0,0,0,3,1.42,6.43,6.43,0,0,0,2.07-.11l.07-.38-2.7-.65-.15-2.3-1.06.36c-.1-.21-.26-.38-.22-.51.5-1.52-1-1.83-2-2.38-.12-.06-.31-.06-.39-.15-.4-.45-.81-1.34-1.15-1.32a36,36,0,0,0-4.14.66l.56,3.47c-.22.07-.47.25-.64.2-.91-.25-1.8-.55-2.8-.87l.87,3.92.41.07c.5-1.22,3.19-1.3,2.17-3.32C1541.8,287.38,1542,287.45,1542.09,287.4Zm-1.61,35.09a10.43,10.43,0,0,0-1.28,1.49,12.86,12.86,0,0,0-1,2.33.73.73,0,0,0,.4.61c1.14,0,2.29,0,3.42,0a9.74,9.74,0,0,0,2-.33,2.15,2.15,0,0,0,1-.6,19.14,19.14,0,0,0,1.2-1.66l1.43.36.63-1-2.1-1-.26.89h-.28c-.09-.82-.18-1.65-.28-2.57l-1.84-.38-.75,3.18Zm-67.2,3.06a2.19,2.19,0,0,1,1.91-2.27c1.46-.39,1.43-1.41,1.38-2.4a.74.74,0,0,0-.39-.51c-.62-.31-1.29-.57-2-.88-.08.5-.17,1.14-.28,1.85l-1.18-.26c-.73,1.06-1.43,2.07-2.12,3.08-.07.11-.17.25-.14.35.28.74.49,1.55-.5,1.91a7.53,7.53,0,0,1-2.24.07c-.34,0-.68,0-1.4.06.47.87.67,2,1.37,2.32a2.74,2.74,0,0,0,3.09-.66c.24-.29,1.25-.12,2.17-.18A15.16,15.16,0,0,0,1473.28,325.55Zm69.3,42.89c-.38.11-.44,1.18-.49,1.81,0,.34.25.7.5,1.34l-1.41-.94,2.08,7.6h.39c.46-1.87-1.84-4.82,2.68-5.05.73-1.31-1.24-2.88.44-4.24l-2.92,1.45c-.24-2.24.41-4.77-2.71-5.93l-1.7,3.91.32.08,3.29-1.87C1543.27,367.46,1543.93,368,1542.58,368.44Zm-73.49-54.79-1.3-2.06-.12,1.75-1.84.44.86,1.76c2.32-.58,2.79-.26,2.84,1.93,2.52.87,2.75.79,3.8-1.31l1.16,0c-1.26-2.29-1.26-2.29-.23-4C1473.45,311.82,1469.7,312.89,1469.09,313.65Zm1-47.3c-.47.65-1.83.85-3,1.34,0,1.09,2.83,1.74,1.22,3.16l3.21-2.31,2.05,1.65,2.09-1.78.57.15c-.2-.78-.08-1.86-.65-2.27-1.46-1.06-1.5,1.13-2.82,1-1.3-1,.21-3.36-2.23-3.81C1470.41,264.42,1470.64,265.58,1470.1,266.35Zm12.12-12.87.77-1,1.33.34c2.36-2.13-.62-2.5-1.82-3.77l-.3,2.64-4-1.65c-1.56,1.74.47,2.51,1.49,3.55l.21-.33Zm-1.45,104.69h.38l-2.42,1.53c2,.12,3.72.22,5.39.29a.9.9,0,0,0,.58-.37c.58-.79,1.13-1.59,1.86-2.63-1.28.58-2.12,1-3,1.34-.5.17-1.69-1.49-1.24-1.9,1.55-1.38.14-1.58-1.43-2.11C1480.8,355.72,1480.79,356.95,1480.77,358.17Zm-4-114c-1.43,1.42-2.62,1.73-4.08,1.25l1.63,4a4.17,4.17,0,0,1,.27-1.36,2.11,2.11,0,0,1,1.05-.86,33.93,33.93,0,0,1,3.86-1.09c.15,0,.52.65.78,1l.76,1,1.28-1Zm20.81,80.6c.13.05.64-.26.7-.46s-.25-.68-.38-.67c-1.86.05-.7-.67-.38-1.09a3.49,3.49,0,0,1,.9-.57l-.57-.56c-1,.11-1.64.18-2.31.26s-1.27.19-2.17.33l-1-1c0,.74,0,1.13,0,1.51s.06.85-.15,1c-2,1.14-.19,2,0,3l.49,0c.07-.29.29-.64.18-.87-.69-1.38-.64-1.52,1-2.1.32-.11.62-.26.93-.39,0,.13,0,.25,0,.37C1495.7,324,1496.6,324.41,1497.53,324.77Zm7.73-45.33a6,6,0,0,0,1.33,2c.51.64,1.22.79,1.55,0a10,10,0,0,0,.57-2.73c0-.19-.5-.44-.79-.65L1505,276C1504.25,277.21,1505,278.35,1505.27,279.44Zm45.06,47.39c2.51-.15,3.69-1.45,3.19-3.26a1.78,1.78,0,0,0-.79-.93c-.76-.44-1.6-.79-2.33-1.13C1550.38,323.13,1550.35,325,1550.33,326.83Zm-40.3,2.33c.37,1.66-3.36,2-1.88,4.46a20.1,20.1,0,0,1,1.55-1.74,2,2,0,0,1,1.2-.52c.3,0,.85.49.81.71s-.55.51-.87.76c-.1.07-.22.13-.63.37l1.75.29C1513.49,331.3,1512.16,330.06,1510,329.17Zm-2-5c-.2,0-.33,0-.39-.07-.43-.35-.84-.72-1.25-1.08a6.38,6.38,0,0,0-.71,1.57,18.87,18.87,0,0,0-.07,2.57,2.39,2.39,0,0,0,2.67-1.27c.42-.78,2-1.41.6-2.63Zm29.87,50.29c1.58-.59,2.35-.18,2.54,1.05,1.72-1.77.46-3.79-3-4.67Zm-6.89-2.58a25.71,25.71,0,0,0,2.67,2.61c.06.05.91-.3.89-.42a10.22,10.22,0,0,0-.64-2.86c-.23-.52-.66-1.54-1.84-.65-.19.14-.66,0-1.1,0C1531,371,1530.8,371.55,1531,371.84Zm-3.11-4.26c-.27-.19-1.18.26-1.85.43l-.26-.49-.48,0c0,.53-.33,1.2-.05,1.55a2.86,2.86,0,0,0,1.77.79,14.29,14.29,0,0,0,2.71-.25A10.92,10.92,0,0,0,1527.94,367.58Zm13.73,12.33c-.7-.61-1.73-1.68-2.91-.46l1.81,3.79C1540.84,381.88,1543.3,381.34,1541.66,379.91Zm-29.48-29.24c2.87-2.18,2.87-2.18.17-4.05.08.52.41,1.16.17,1.54s-1.06.71-1.72,1.1Zm26.06-34.5c.21-.19.3-.79.17-.86a4.32,4.32,0,0,0-1.79-.66c-.31,0-.88.52-1,.88a21.93,21.93,0,0,0-.26,3C1536.4,317.69,1537.36,317,1538.25,316.16Zm-63.07-21.77c.52.15,1,.47,1.5.57.3.06.67-.18,1-.27a5.78,5.78,0,0,0-.37-.81,8.21,8.21,0,0,0-.66-.79l-.75.43-1.45-2C1473.11,292.8,1473.46,293.9,1475.17,294.4Zm55.75,50.77c0-.34,0-.79-.08-1.36l-2.27.9,1.09,2.46c1-.56,1.66-1.7,3.36-.88C1532.91,344.92,1531.6,345.62,1530.93,345.17Zm5.95-84a2.63,2.63,0,0,0,2.15-3.09l-1.83-.25a16.41,16.41,0,0,1-.16,1.66,5.59,5.59,0,0,1-1,0Zm-56.46,56.44,1.75-3.24c-1.72-.6-2.24.69-3.22,1.1ZM1474.85,344l2.56.77-.76-2.56-.88,0Zm37-100.83-2.2-.29,2.61,2.61.47-.07q-.11-1.75-.22-3.49l-.63,0C1511.88,242.3,1511.87,242.7,1511.86,243.12Zm-24.71,52.81a2.74,2.74,0,0,0,0-2,.76.76,0,0,0-1.38.17,14.57,14.57,0,0,0-.42,2.44C1486.19,296.27,1487.06,296.2,1487.15,295.93Zm73.13-22.53-1.21.35c.09.86-.34,2,1.21,2.11.41,0,.91-.64,1.37-1l-.54-.19Zm-25.63-16.19c1,0,1.14,0,.86-1-1.59,1.46-2.83-1-4.48-.24l1.28,1.72C1532.81,256.61,1533.88,257.17,1534.65,257.21Zm-23.38,70.34c.45.3,1.52-.11,1.35.86,0,.1.72.38,1.13.43.13,0,.53-.43.49-.63a2.41,2.41,0,0,0-.58-1.21,6.61,6.61,0,0,0-1.39-.82ZM1549.62,294c.44-.4,1.12-.75,1.23-1.19.07-.3-.63-.87-1.12-1-.24-.09-.79.44-1.43.82Zm-88-.32-.5-.21c-.55.51-1.47,1-1.53,1.54s1,.9,2,1.64C1461.62,295.41,1461.63,294.54,1461.64,293.68ZM1482.76,312a3.56,3.56,0,0,0,2.81,3.95ZM1511,250.46l.38-1a16.1,16.1,0,0,0-2.22-1.44c-.28-.12-.88.26-1.63.51Zm-5.32-16c-.39-.44-.77-.91-1.19-1.34a2.67,2.67,0,0,0-.66-.36c-.12.18-.37.5-.33.53,1.3.9.26,1.93.38,3Zm-40.88,147.2.12-.5c-.53-.21-1.12-.65-1.57-.57a15.6,15.6,0,0,0-2.66,1l.32.37ZM1520,388.3c-.35.77.74,1,1.39,1.3a2.16,2.16,0,0,0,1.61-.3c.21-.13-.06-.78-.08-1Zm-48-134.17c-.3.86,1.22,1.71-.48,2.3.16.18.28.48.48.54.66.17,1.36.25,2.22.4Zm-17.06-1.89-2.57,2.26c1,.89,1.26.39,1.65-.2a8.11,8.11,0,0,1,1.42-1.28Zm72.82,29.67.45.16c.38-.48,1.08-1,1.06-1.45s-.77-.91-1.2-1.36l-.28.26Q1527.76,280.7,1527.75,281.9Zm-68.95-33.37-2.28.32c0,.18-.05.36-.08.53l2.33,1C1458.78,249.54,1458.79,249,1458.8,248.53Zm87.38-2.2,1.14.78,1-1.5-.8-.5Zm-15.66,114.83c2-.3,2.12-.59.53-2.51Zm-21.89-120.57c-.09-.17-.69-.13-1.05-.19a4.37,4.37,0,0,0,.31.81c.37.58.78,1.14,1.17,1.71l.5-.11A19.42,19.42,0,0,0,1508.63,240.59Zm24.19,19.94-.57.43,1.06,2.32,1.73-1.7-.47-.58-1.35.45ZM1498,283.86l.69,1.42c.87-.24,2-.16,1.63-1.19ZM1557.5,280l-.24-.07-2.3,1.57,1.3,1Zm-21.72-33.23c0,.2.33.42.51.64.23-.15.67-.31.66-.46a14.27,14.27,0,0,0-.25-1.88l-.56.1A10.08,10.08,0,0,0,1535.77,246.81Zm-5.48,76,2.69-.95-2.78-.75C1530.23,321.66,1530.25,322.12,1530.29,322.79Zm24-57.09c-.44.45-1,.79-.9,1a7,7,0,0,0,1,1.45l.73-.29Zm-69.23,23.65-.25-.14-1,.87-.74-.37c-.11.14-.22.24-.2.26.42.44.85.87,1.28,1.3l.55-.24Zm53.43,31.31,1.4-2.18C1537.68,319.12,1537.68,319.12,1538.54,320.67Zm-74.6-7.07-.61-1.21-1.21,3.71.17.07Zm94-40.4-2.49-1,0,1.44Zm-82.3,8.48-1.7.45.29,1.92.37-.08Zm-21.26,13.2,2.33-1.41-.26-.24C1455.72,293.71,1454,293.05,1454.4,294.89Zm17.55-6.25-.56-.28c-1.2.37-.9,1.45-1.42,2.14l.45.22Zm73.77-41.18-1-1.17-1.13,2.22.32.27ZM1566,323.08c.06.66.1,1.07.15,1.49s.12.83.2,1.37C1567.53,325,1567.51,324.8,1566,323.08Zm-72.1-87.92.82.41.95-1.49-.62-.26ZM1454.77,322c.78-1.64-1.38-1.6-2.06-2.33Zm78,17.88,2-.1c0-.9,0-.9-1.68-1.11Z"/><path class="cls-1" d="M1486.17,391.65l-.81-1.17c-1.36.48-.81,1.36-.59,2.14,0,.12.7.26.73.22A9.48,9.48,0,0,0,1486.17,391.65Z"/><path class="cls-1" d="M1440.5,331.69c1-.69,1.45-1.32.18-2.11C1439.47,330.2,1440,330.9,1440.5,331.69Z"/><path class="cls-1" d="M1509.89,393.47l-1.29,2,1.93,0-.66-2.08Z"/><path class="cls-1" d="M1542.79,323.78l-2.3-1.3a10.43,10.43,0,0,0-1.28,1.49,12.86,12.86,0,0,0-1,2.33.73.73,0,0,0,.4.61c1.14,0,2.29,0,3.42,0a9.74,9.74,0,0,0,2-.33,2.15,2.15,0,0,0,1-.6,19.14,19.14,0,0,0,1.2-1.66l1.43.36.63-1-2.1-1-.26.89h-.28c-.09-.82-.18-1.65-.28-2.57l-1.84-.38Z"/><path class="cls-1" d="M1543,366.58c.23.87.89,1.46-.46,1.85-.38.11-.44,1.18-.49,1.81,0,.34.25.7.5,1.34l-1.41-.94,2.08,7.6h.39c.46-1.87-1.84-4.82,2.68-5.05.73-1.31-1.24-2.88.44-4.24l-2.92,1.45c-.24-2.24.41-4.77-2.71-5.93l-1.7,3.91.32.08Z"/><path class="cls-1" d="M1541.65,287.37c.15,0,.37.08.44,0,1.28-1.1,2.31-1.35,3,.48a5.43,5.43,0,0,0,2-.25c1.44.27.68,1.21.64,1.61a21.74,21.74,0,0,0,3,1.42,6.43,6.43,0,0,0,2.07-.11l.07-.38-2.7-.65-.15-2.3-1.06.36c-.1-.21-.26-.38-.22-.51.5-1.52-1-1.83-2-2.38-.12-.06-.31-.06-.39-.15-.4-.45-.81-1.34-1.15-1.32a36,36,0,0,0-4.14.66l.56,3.47Z"/><path class="cls-1" d="M1474.25,312.12c-.8-.31-4.55.77-5.16,1.53l-1.3-2.06-.12,1.75-1.84.44.86,1.76c2.32-.58,2.79-.26,2.84,1.93,2.52.87,2.75.79,3.8-1.31l1.16,0C1473.22,313.88,1473.22,313.88,1474.25,312.12Z"/><path class="cls-1" d="M1470.5,263.51c-.09.91.14,2.07-.41,2.83s-1.83.85-3,1.34c0,1.09,2.83,1.74,1.22,3.16l3.21-2.31,2.05,1.65,2.09-1.78.57.15c-.2-.78-.08-1.86-.65-2.27-1.46-1.06-1.5,1.13-2.82,1C1471.44,266.31,1473,264,1470.5,263.51Z"/><path class="cls-1" d="M1479.87,253.21l2.35.26.77-1,1.33.34c2.36-2.13-.62-2.5-1.82-3.77l-.3,2.64-4-1.65c-1.56,1.74.47,2.51,1.49,3.55Z"/><path class="cls-1" d="M1482.26,247.17l-5.54-3c-1.43,1.42-2.62,1.73-4.08,1.25l1.63,4a4.17,4.17,0,0,1,.27-1.36,2.11,2.11,0,0,1,1.05-.86,33.93,33.93,0,0,1,3.86-1.09c.15,0,.52.65.78,1l.76,1Z"/><path class="cls-1" d="M1550.41,321.51c0,1.63-.05,3.46-.08,5.32,2.51-.15,3.69-1.45,3.19-3.26a1.78,1.78,0,0,0-.79-.93C1552,322.2,1551.13,321.85,1550.41,321.51Z"/><path class="cls-1" d="M1556.79,371a20.65,20.65,0,0,1-1.57-1.51c-.57-.69-1-1.44-1.6-2.22l-.79,1.4,1.58,4.53c1.57-.28,2.32-1,2.34-2.21Z"/><path class="cls-1" d="M1537.51,370.81l.43,3.62c1.58-.59,2.35-.18,2.54,1.05C1542.2,373.71,1540.94,371.69,1537.51,370.81Z"/><path class="cls-1" d="M1531,370.52c0,.46-.23,1,0,1.32a25.71,25.71,0,0,0,2.67,2.61c.06.05.91-.3.89-.42a10.22,10.22,0,0,0-.64-2.86c-.23-.52-.66-1.54-1.84-.65C1531.94,370.66,1531.47,370.53,1531,370.52Z"/><path class="cls-1" d="M1541.66,287.37c-.22.07-.47.25-.64.2-.91-.25-1.8-.55-2.8-.87l.87,3.92.41.07c.5-1.22,3.19-1.3,2.17-3.32Z"/><path class="cls-1" d="M1540.57,383.24c.27-1.36,2.74-1.9,1.1-3.33-.7-.61-1.73-1.68-2.91-.46Z"/><path class="cls-1" d="M1531.42,376.49c1.31.71-.06,2.75,2.3,3,1-1.23.3-2.55-.06-3.84a1.76,1.76,0,0,0-1,0A7.25,7.25,0,0,0,1531.42,376.49Z"/><path class="cls-1" d="M1529,341.12l-.68-1.13c-.88,1.91-.71,2.12,1.21,2.79a1.57,1.57,0,0,0,2-.55c.18-.27-.13-1-.48-1.25C1530.17,340.29,1530,340.35,1529,341.12Z"/><path class="cls-1" d="M1535.41,318.5c1-.8,2-1.54,2.84-2.33.21-.19.3-.79.17-.86a4.32,4.32,0,0,0-1.79-.66c-.31,0-.88.52-1,.88A21.93,21.93,0,0,0,1535.41,318.5Z"/><path class="cls-1" d="M1477.18,378.9a30,30,0,0,0-3.12-1.35c-.25-.08-1.11.47-1.11.72,0,.49.34,1.32.7,1.39a6,6,0,0,0,2.24-.3,9.52,9.52,0,0,0,1.32-.49Z"/><path class="cls-1" d="M1536.06,259.5l.82,1.63a2.63,2.63,0,0,0,2.15-3.09l-1.83-.25a16.41,16.41,0,0,1-.16,1.66A5.59,5.59,0,0,1,1536.06,259.5Z"/><path class="cls-1" d="M1478.95,315.44l1.47,2.14,1.75-3.24C1480.45,313.74,1479.93,315,1478.95,315.44Z"/><path class="cls-1" d="M1511.88,241.91c0,.4,0,.79,0,1.21l-2.2-.29,2.61,2.61.47-.07q-.11-1.75-.22-3.49Z"/><path class="cls-1" d="M1525.43,325.46l1.52-1.58-.53.41-2-2.9C1523.54,323.3,1525.35,324,1525.43,325.46Z"/><path class="cls-1" d="M1561.11,274.69l-.83-1.29-1.21.35c.09.86-.34,2,1.21,2.11.41,0,.91-.64,1.37-1Z"/><path class="cls-1" d="M1532.31,257.65c.5-1,1.57-.48,2.34-.44,1,0,1.14,0,.86-1-1.59,1.46-2.83-1-4.48-.24Z"/><path class="cls-1" d="M1512.26,326.18l-1,1.37c.45.3,1.52-.11,1.35.86,0,.1.72.38,1.13.43.13,0,.53-.43.49-.63a2.41,2.41,0,0,0-.58-1.21A6.61,6.61,0,0,0,1512.26,326.18Z"/><path class="cls-1" d="M1548.3,292.58l1.33,1.42c.44-.4,1.12-.75,1.23-1.19.07-.3-.63-.87-1.12-1C1549.5,291.67,1548.94,292.2,1548.3,292.58Z"/><path class="cls-1" d="M1485.57,316l-2.81-3.95A3.56,3.56,0,0,0,1485.57,316Z"/><path class="cls-1" d="M1507.52,248.54l3.47,1.92.38-1a16.1,16.1,0,0,0-2.22-1.44C1508.87,247.9,1508.27,248.29,1507.52,248.54Z"/><path class="cls-1" d="M1503.87,236.23l1.8-1.81c-.39-.44-.77-.91-1.19-1.34a2.67,2.67,0,0,0-.66-.36c-.12.18-.37.5-.33.53C1504.79,234.15,1503.75,235.18,1503.87,236.23Z"/><path class="cls-1" d="M1522.92,388.34l-2.92,0c-.35.77.74,1,1.39,1.3a2.16,2.16,0,0,0,1.61-.3C1523.21,389.16,1522.94,388.52,1522.92,388.34Z"/><path class="cls-1" d="M1474.22,257.36l-2.23-3.24c-.3.86,1.22,1.71-.48,2.3.16.18.28.48.48.54C1472.66,257.13,1473.35,257.21,1474.22,257.36Z"/><path class="cls-1" d="M1455.43,253l-.5-.78-2.57,2.26c1,.89,1.26.39,1.65-.2A8.11,8.11,0,0,1,1455.43,253Z"/><path class="cls-1" d="M1527.78,279.5q0,1.2,0,2.4l.45.16c.38-.48,1.08-1,1.06-1.45s-.77-.91-1.2-1.36Z"/><path class="cls-1" d="M1458.77,250.36c0-.82,0-1.32,0-1.83l-2.28.32c0,.18-.05.36-.08.53Z"/><path class="cls-1" d="M1526,318.48c-.51,2,1.59,1.25,2.27,2.13.07-.48.11-.82.17-1.21l-.34.1Z"/><path class="cls-1" d="M1547.5,245.11l-1.32,1.22,1.14.78,1-1.5Z"/><path class="cls-1" d="M1509.57,242.81a19.42,19.42,0,0,0-.94-2.22c-.09-.17-.69-.13-1.05-.19a4.37,4.37,0,0,0,.31.81c.37.58.78,1.14,1.17,1.71Z"/><path class="cls-1" d="M1533.22,261.45l-.4-.92-.57.43,1.06,2.32,1.73-1.7-.47-.58Z"/><path class="cls-1" d="M1556.26,282.51l1.24-2.47-.24-.07-2.3,1.57Z"/><path class="cls-1" d="M1536.14,245.2a10.08,10.08,0,0,0-.37,1.6c0,.2.33.42.51.64.23-.15.67-.31.66-.46a14.27,14.27,0,0,0-.25-1.88Z"/><path class="cls-1" d="M1530.2,321.09c0,.57.05,1,.09,1.7l2.69-.95Z"/><path class="cls-1" d="M1555.12,267.84l-.78-2.13c-.44.45-1,.79-.9,1a7,7,0,0,0,1,1.45Z"/><path class="cls-1" d="M1484.79,291l.32-1.67-.25-.14-1,.87-.74-.37c-.11.14-.22.24-.2.26.42.44.85.87,1.28,1.3Z"/><path class="cls-1" d="M1556.76,371c.55,0,1.11,0,1.66.05,1.25.08,1.43-.51,1.19-1.6L1556.8,371Z"/><path class="cls-1" d="M1539.93,318.5c-2.25.62-2.25.62-1.4,2.18Z"/><path class="cls-1" d="M1462.27,316.19l1.66-2.58-.61-1.21-1.21,3.71Z"/><path class="cls-1" d="M1555.46,273.59l2.51-.39-2.49-1Z"/><path class="cls-1" d="M1474.63,284l1-2.29-1.7.45.29,1.92Z"/><path class="cls-1" d="M1520.4,339c-1.23,1.53.65,1.56,1,2.35l.42-.2Z"/><path class="cls-1" d="M1544,248.77l1.77-1.31-1-1.17-1.13,2.22Z"/><path class="cls-1" d="M1566.33,325.94c1.2-1,1.18-1.15-.35-2.86.06.66.1,1.07.15,1.49S1566.25,325.4,1566.33,325.94Z"/><path class="cls-1" d="M1495,233.83l-1.15,1.34.82.41.95-1.49Z"/><path class="cls-1" d="M1519.46,273.1l-.73.78-1.48-.83-.29.33,2.39,1.54.36-1.79Z"/><path class="cls-1" d="M1452.71,319.65l2.06,2.33C1455.55,320.33,1453.39,320.37,1452.71,319.65Z"/><line class="cls-3" x1="186.34" y1="399.99" x2="206.29" y2="399.27"/><line class="cls-3" x1="179.83" y1="365.65" x2="209.15" y2="365.35"/><path class="cls-3" d="M203.16,387,208,365.79l2.42,0-11.81-10.67-1.13,0-1-6.46c1-.18,1.75-.43,1.74-.75,0-.83-1.14-1.5-2.72-1.76,0,0,0-.07,0-.11-.16-1.29-1.34-1.78-.53-3.2s.36-1.64-.42-3.36c-.66-1.45-.37-2.59-1.28-3.92a12.57,12.57,0,0,0-.66,3.26c-.19.89-1.12,2.26-1,3.13.19,1.27,1.29.87,1.5,2.28.08.54-.5,1.33-.76,1.95-2.06.26-3.15,1.07-3.11,2.06,0,.33.8.54,1.9.63l-.66,6.51-1.93.07-10.15,10.31,2,.06v1.1l5.48,20.17.4-.12v.14h.59a3.17,3.17,0,0,0-1.4,1.47c-.55,1.33.2,2.67,1,3.83s2.16,1.26,3.32,1.38a9.74,9.74,0,0,1,1,.13l-.33,1.51,1.54,2-.44.76h-2.26a2,2,0,1,0,0,1.69h3.76l-2.9,102.68,6.43-.23-6.64.24a1.78,1.78,0,0,0-1.72,1.84L187,507.07c0,.35.29.44.67.4a1.76,1.76,0,0,0-.61,1.38l.31,8.58a1.78,1.78,0,0,0,1.85,1.72l10.68-.39a1.78,1.78,0,0,0,1.72-1.85l-.31-8.59a1.77,1.77,0,0,0-1-1.53c.55,0,1-.09,1-.56L200.07,504a1.78,1.78,0,0,0-1.85-1.72h-.09l-2.4-102.39h6a1.93,1.93,0,0,0,1.93,1.45,2,2,0,1,0-.14-3.92,1.93,1.93,0,0,0-1.62,1v-.24H197.5l-.53-.94,1.17-2.4-.69-1.12a7.22,7.22,0,0,1,1.09-.25c1.15-.2,2.58-.45,3.21-1.62l.12-.22c.72-1.31,1.35-2.44.79-3.55a2.19,2.19,0,0,0-.59-.72l1.09,0ZM190,507h0l5.34-.19Zm-7.67-140.09,4.79-.1,2.85,19.12-3.09,0ZM189.92,392c-.79-.08-1.76-.18-2-.58-.52-.8-1-1.69-.81-2.2.14-.33.77-1,3.2-1.53a3.15,3.15,0,0,0-.38.88A4.36,4.36,0,0,0,191,392.2C190.62,392.12,190.25,392.08,189.92,392Zm.78-4.86Zm-2.34-20.44,10.76-.23-2,19.48.23,0H197a10,10,0,0,0-1.83-.63l-.1-13a2,2,0,0,0,1-2c0-1.12-.73-2-1.55-2s-1.44,1-1.4,2.09a2.28,2.28,0,0,0,.71,1.63l.1,13.29a12,12,0,0,0-1.36.53l-1.28,0Zm7.45,25.76-.23.27-1.6.1-.29-.3c-.71-.7-2.36-2.33-2.06-3.54.17-.68,1-1.29,2.38-1.8l1.32,0c1.28.4,2.08.92,2.29,1.56C198,390,196.46,391.75,195.81,392.5Zm4.52-1.71-.13.23c-.19.35-.89.52-1.56.65a4.15,4.15,0,0,0,.65-3.4c0-.06-.07-.12-.1-.18,1.52.33,1.83.67,1.89.78C201.23,389.16,200.73,390.06,200.33,390.79Zm-1.9-4.76,2-19.55,6.29-.13-4.53,19.75Z"/></svg>