<svg id="Layer_1" data-name="Layer 1" xmlns="http://www.w3.org/2000/svg" viewBox="0 0 1600 680"><defs><style>.cls-1,.cls-2,.cls-3{fill:#231f20;}.cls-1,.cls-3{fill-rule:evenodd;}.cls-1{opacity:0.3;}.cls-4{opacity:0.4;}</style></defs><title>Spotlight area_upland</title><path class="cls-1" d="M-6.85,645.55C-203,357.17,537.77,546.23,587,523.49c39.36-18.19,323.9-6.57,323.9-6.57s46.43,33.35,72.15,38.9c50.18,10.84,98.59-32.24,149.28-38.58,37.79-4.72-21.34,112.4-78.67,162.75"/><path class="cls-2" d="M1600.9,621.85c0-57,0-114,3-171,0-15,6-33,3-51-6-36,3-33-27-30-9,0-18.9,1.18-39.9,4.18-18,0-38.11,7.82-56.11,7.82-24,3-34.89-2.27-55.89-2.27-15,3-37.12,14.27-52.12,14.27-39,0-78,27-114,45-150,63-286.2,203.5-477,225,1.1,5.15,2,10.57,2.87,16.15H1069s35-15.7,36-16.35l1.84-1.21,1.2-.78,1.51-.95c2.12-1.32,4.83-3.06,7.79-4.77l4.84-2.85c1.72-1,3.57-2,5.51-3.11,7.76-4.4,17.31-9.34,28.35-14.77,2.76-1.37,5.65-2.65,8.61-4s6-2.83,9.15-4.19l9.71-4.19c1.66-.71,3.33-1.45,5-2.16l5.2-2.07,10.72-4.26c3.66-1.4,7.43-2.72,11.24-4.11l5.77-2.09,2.92-1.05,3-1,12.12-4c2.05-.65,4.09-1.38,6.2-2l6.33-1.83,12.88-3.72c4.37-1.15,8.81-2.22,13.28-3.35l6.74-1.68c1.13-.28,2.25-.57,3.39-.83l3.44-.72,13.88-2.91c2.33-.47,4.65-1,7-1.42l7.11-1.19,14.34-2.4,1.8-.3,1.82-.23,3.64-.45,7.3-.91,7.33-.91,3.67-.45,3.51-.41c1.19-.15,2-.25,3.18-.42s2.19-.34,3.29-.54c2.21-.39,4.42-.83,6.64-1.34a158.19,158.19,0,0,0,26.13-8.32c8.34-3.54,16.37-7.87,22.63-13.23a43.4,43.4,0,0,0,4.23-4.18c.58-.73,1.21-1.45,1.7-2.2a10.91,10.91,0,0,0,.74-1.11l.62-1,.83-1.62a1.5,1.5,0,0,0,.12-.27l.08-.21.18-.42.1-.21.09-.29.19-.58a8.85,8.85,0,0,0,.34-1.2,22.86,22.86,0,0,0,.63-5.29,56.06,56.06,0,0,0-1.72-12.44c-1-4.4-2.3-9-3.44-13.76-.57-2.38-1.12-4.82-1.55-7.32a70.51,70.51,0,0,1-1-7.66c-.12-1.29-.13-2.63-.17-3.94s0-2.66.15-4,.28-2.68.46-4,.48-2.66.87-4l.27-1,.13-.49c-.1.3.21-.69.21-.66l.08-.2.63-1.59,1.25-3.18c.36-1,1-2.22,1.5-3.34l1.61-3.37c1.16-2.15,2.36-4.2,3.57-6.26l2-3c.68-1,1.28-2,2-2.89a93.11,93.11,0,0,1,19.43-19.12,115.91,115.91,0,0,1,22-12.6,157.59,157.59,0,0,1,22.07-7.72,233,233,0,0,1,39.84-6.9c11.95-1.08,22.38-1.34,31-1.37s15.3.22,19.89.4,7,.27,7,.27-2.45.1-7,.18-11.3.3-19.82.86-18.85,1.5-30.56,3.32a228.13,228.13,0,0,0-38.46,9.22,150.61,150.61,0,0,0-20.57,8.7,107.39,107.39,0,0,0-19.62,12.94,83,83,0,0,0-16.2,18.09c-.62.83-1.07,1.76-1.61,2.64l-1.57,2.68c-.92,1.86-1.87,3.74-2.73,5.61l-1.13,2.81c-.37,1-.78,1.79-1.12,2.93l-1,3.25-.53,1.63-.06.18c0-.14.19-.55.09-.22l-.07.35-.14.69c-1.5,7.39.14,15.55,2.84,24.18,1.33,4.33,2.91,8.8,4.34,13.62a71.45,71.45,0,0,1,3.14,15.83,39.59,39.59,0,0,1-.48,9.1,22.21,22.21,0,0,1-.48,2.33l-.3,1.16-.15.58-.22.64-.45,1.28-.24.64c-.08.2-.17.46-.22.57l-.72,1.67-.09.21-.22.44-.26.52-.54,1c-.35.7-.74,1.35-1.14,2-.77,1.33-1.65,2.52-2.52,3.74a60.63,60.63,0,0,1-5.72,6.48c-8.1,7.86-17.25,13.4-26.58,18.12a178.8,178.8,0,0,1-29,11.33q-3.73,1.11-7.55,2-1.91.47-3.85.88c-1.24.27-2.79.56-4,.79l-3.67.67-3.49.66-7,1.32-6.93,1.31-3.45.65-1.72.33-1.71.4-13.57,3.18-6.72,1.57c-2.23.52-4.42,1.2-6.62,1.79l-13.06,3.62-3.23.89c-1.07.32-2.13.67-3.18,1l-6.32,2c-4.19,1.35-8.35,2.63-12.43,4l-12,4.32-5.9,2.12c-2,.68-3.86,1.51-5.77,2.25l-11.26,4.49-2.76,1.1-2.71,1.18-5.34,2.33c-3.52,1.56-7,3-10.39,4.57l-9.87,4.68-4.78,2.26c-1.57.77-3.09,1.57-4.62,2.34l-8.9,4.53c-2.9,1.46-5.64,3-8.34,4.49s-5.33,2.86-7.83,4.31c-8,4.59-15.08,8.8-21.1,12.61h449.67C1620.34,680,1600.9,641.27,1600.9,621.85ZM1069,680s76.71,3.92,78.42,2.8c1.38-.9,2.85-1.84,4.36-2.8H1069Z"/><path class="cls-2" d="M1316.3,417.93c0-1.76.44-2.92.52-4.45.12-2.15-.75-3.34-.22-5.27.85-3.13,4.25-4.6,5.8-6.87a1.5,1.5,0,0,0-1-.7,11.54,11.54,0,0,1-5.91,5.45c.24-2.67,2-6.71,2.9-9a2.43,2.43,0,0,0-1.32-.34c-.84,2.58-1.35,5.41-2.53,7.77a28.34,28.34,0,0,1,.09-8.33c.67-3.05,1.74-4.24.88-7.66-1.29-5.07.86-12.09,2.34-17.22a1.74,1.74,0,0,0-1.12,0,78.77,78.77,0,0,0-3,13.88,57,57,0,0,1,.89-15.17c-2.33-.88-1.9,3.14-1.9,5.45,0,3,0,6.22-.24,9.16a2.09,2.09,0,0,1-.65,0c-.85-4.26-.16-10.23-.16-14.73,0-4.93.16-10,0-14.86-2,0-1.15,11.82-1.22,14.07a54.91,54.91,0,0,1-4.37-14.61c-3-.95,3.92,22.83,4.22,25s.38,4.44.67,6.5a54,54,0,0,1,.38,5.83c.11,3.46.47,9-.06,12.23-1.56-.14-3,.63-4.5.84s-9.8-1.44-11.17-.27c1.33,1.65,9.59,1.59,11.26,1.84.81.12,3.43.17,4,1.29,1.08,2.31-.63,8.12-.52,10.68a33.07,33.07,0,0,0,6.26.1"/><path class="cls-2" d="M1314,402.19c.26-1.3,1.11-1.09,1.93-1,.47,0,.81.78,1.08.76.49,0,.87-.71,1.36-.76,2.71-.3,1,3.67,3.64,4-.45,2.49.27,2.71,1.28,1.81.6-.53.78-3.44,1.71-.8.3.85-.56,1.61-.19,2.58s1.37,1.15,1.91,1.42a4.86,4.86,0,0,0,3.68.23,7.13,7.13,0,0,0-.28,2.82c2.6.73,1.56-4.11,4.29-3.34.07,2.07,1.51,1.33,1.62-.26.46.16,1.1.12,1.46.39-.53-1-2.7-6.19-.21-4.71.91.54.43,2.14.82,2.71.63.93,1.28.55,2.26,1.1.05.24.21.82.23,1,.91-.69.24-2.5.34-3.87,1.4-.49.93,2.31,2.26,2.34s.87-2.73,2.21-3.52c1.69-1,1.63,2,3.3.16.72-.78,1.07-2.8,1.09-4-1.68-.71-2.66.4-4.17.29-.92-.06-2.33-.6-3.33-.8-1.52-.3-1.18-.38-2.13-2-.6-1-2-2.06-2.25-3.29,2.18-1.17,5,.92,7.31.81,1,0,3,.25,3.74-.87s.37-2.42,1-3.45c1.23-2,2-.91,3.19.45,1-1.73,1.08-6,.2-7.93-1.6,2.67-6,10.58-8.54,7.57-2-2.38.5-3,1.54-4,1.57-1.53,1.63-3.56,1.06-6.08,1.34-.3,2.15.65,3.36-.95.61-.79,1.41-2.92,1-4.17s-5.75-4.92-5.22-1.06c.44.23.72.87,1,1.22-.6.23-1.77.39-2.27,1-.31.36-.09,1.79-.41,2-.92.65-2,0-2.73-1.07-1.17-1.78-1.62-5.17-3.93-3.36-1.69,1.34-2.13,4.14-4.46,2.82-1.11-.63-1.15-1.93-2.55-1.51-1.21.37-1.42,2.1-2.18,3-1.74,2-3.4.35-5.28-.07-2.56-.58-3.46,1.69-5.61,2.62-1.94.83-4.09.25-5.89-.06-1-.17-3.17.91-3.67-.92-.45-1.66.67-2.24,1.22-3,3.75-5.31-3.34.06-1.78-5.8.7-2.63,4.45-3.33,4-6.41a2.33,2.33,0,0,0-2.27-2.1,7.24,7.24,0,0,1-4.25-1.83c-2.45-2.08-4-3.34-3.72-7.83-2.46-.45-3.43-.28-5.25,3-.67-5.24-5.38-.35-7-.57a4,4,0,0,0-3.5-3.06c-.81-.16-2.46-.15-3.13.52s-.81,2.23-1.62,2.94c-1.2,1-2.6-.16-2.62,2.8,0,.64.72,1.1.71,2.1s-.75,1.38-.7,2.64c1.33.68,3.23-1,4.34-.29,1.47.95.19,1.08-.33,2.16-1,2.1-.83,2.66-3,2.85-1.22.11-3-.85-2.54,2.1a5.89,5.89,0,0,0,4,0,4.1,4.1,0,0,1-1.24,2.59,3.28,3.28,0,0,0,2.14.26c.72-.19,1.71-1.4,2.41-1.25,1.64.36.41,2.89,1.25,4.39-.41,2.22-2.58,1.16-3.8,1.32-1.52.19-1.73-.16-3.2-.73-3.76-1.46-5.13,2.48-5.72,7,.93.06,2.57-1.09,3.25-.75,1.77.86-.45,3-1.29,3.64,2.32-.06,3.66.06,5.89-1,.62,1.79-.91,4.6-.19,6.54.91,2.45,3.14-.55,4.63-.53s3.16,1.6,4.59-.05c2.21-2.56-.66-3.4-.63-5.42a13.12,13.12,0,0,1,3.51-.11,4.67,4.67,0,0,0,2.14.15c.51-.14,1.64-1.23,2.16-1.08,1,.28.64,1.39,1.21,1.87a2.65,2.65,0,0,0,1.92.71c2.28.24,3-1.21,4.91-2.34.39,2.42-.51,2.87-1.72,3.71s-3.77,2.86-5.09,2c-.71-.46-1.16-4-2.73-1.68s1.31,4.11,2.56,3.85c.12,2.9-.72,3.57,1.69,3.89,1.39.19,2.85-.06,4.24,0,.14,3.22,5.45,2.14,7,2-.3-2.5-4-1.51-4.91-3.3-1.16-2.37.31-4.67,2-4.53s2.13,2.44,3.84,2.89c2.45.64,1.93,2.25,1.93,5.77"/><path class="cls-2" d="M1310,370.7c1,.33,3.2.47,2.82,2.44.82.44,2.72-.94,3.27-.1.43.67-.26,3.18-.3,3.91,1.75.14,3.48-.42,5.2-.18-1.64,4.92,5,1.79,6.62,1.79,1.84,0,2.11-.13,3.33-1.82.66-.92.22-1.11,1.26-1.59a5.18,5.18,0,0,1,2.24,0c-.06.43.11,1.08.05,1.51,1.23.52,2.1.22,3.08-1,.33-.41.64-1.45,1-1.8.55-.61,1.87-.61,2.21-1.16,1.34-2.12-2.11-3.18,1.38-3.83,1.08-.2.68.89,1.44-.58a9.32,9.32,0,0,0,.33-2.86c-1.09-.3-2,1.16-2.77,0s-.08-3.11-.35-4.45c-.48-2.45-1.05-2.14-2.28-1-.41.37-.41,1.43-.82,1.83-1.2,1.13-2.32.07-3.14-.55a29.7,29.7,0,0,1-3.23-3.14c-.63-.67-.8.37-1.19-1.11a4.67,4.67,0,0,1,.21-2.23c1-2.23,3.73-.6,3.65-3.81-.07-2.81-2.43-3-3.47-1.8-.24-2.36.71-3.92.47-6.23-1.88-.28-3.57,2.77-5.39,1.81s-.33-1.81,0-3.85a3.51,3.51,0,0,0-2.42.2c-.43.21-.33,1.32-.83,1.34s-.6-.8-1.14-1.11c-1.25-.72-.92-.77-2-.06-.86.55-1,2-2.46,1.59-.2-2.07,1-2.33,1.2-3.85.36-2.56-1.21-1.06-2.46-1.54-.91-.35-2.85-3.62-4-2.42s.19,4.36.51,5.39c-.75-.38-1.1-1.42-1.53-2.32-1.52.71-1,3-1.14,4.74a12.71,12.71,0,0,0-3.93-.26c-.28-1.7.78-2.25,1.21-3.53-.52-.32-3.59-1.57-4.38-.9-1.75,1.49.39,2.23.88,2.94,1,1.49,1.46,1.87-.3,3.11-1.55,1.09-1.92.37-2.33-2.1-1.44.54-1.39,2.91-2.61,1.3-.74-1,.48-3.64-1.56-3.18-1.51.34-2.21,5-2.11,6.8a6.17,6.17,0,0,1-2.94.33c-.67,3.54,2.47,3.73,1.22,7.28,3.24,1.28,3.33-1.14,5.92-2.37,2-1,5.36-1.29,3.87,3.16,1.28.94,2.31-.21,3.51-.5.59-.14,2.57-.36,3.08.08s-.09,1.83.38,2.39c.81,1,2.28.26,3.24.45,1.18.22,1.09.37,2.05,1.26a8,8,0,0,0,2.73,1.89c.86.34,1.86-.27,1.73,1.8a3.94,3.94,0,0,0-2.87.82c-.5.5-.59,1.33-.94,1.65s-1.29.68-1.51,1c-1.08,1.47-1.64,3-3,4.46"/><path class="cls-2" d="M1301.62,398.52c1.4-.55,2,1.4,1.35,3.09-.6,1.52-1.72.67-2.19,2.42-.87,3.27,3.6,1.81,3.59,4.93,0,4.15-3.63-.86-4.87,0-.92.67-.49,2.07-1.77,2.12a2,2,0,0,1-1.53-2.76c-1.81-1.6-4-.9-5.58-.2-.55.24-1-1-1.57.65a5.37,5.37,0,0,0,.32,2.78,8.29,8.29,0,0,1-5.58.09c-.33-3,1.07-4.37-1.72-4.72a4.92,4.92,0,0,0-.36,2.81c-1,.38-1.17-.17-1.72-.82-1-1.13-.35-1.5-1.76-2-2-.75-3.26,1.36-5.33.2-1-.56-.94-1.23-2.24-1.25s-1.18.88-2.22,1.39c-2.65,1.3-3.75-2-.6-3,.2-1.59-4.56-3.87-1-5.22.84-.32,1.66.33,2.44.61.36.13,1.24.92,1.63.75.72-.33.36-1.27.9-1.83.76-.77,1.67-.17,1.71-1.87,0-1.14-1.58-2-1.08-3.61s4.2-1,5.26-.27c2.69,1.84,1.65,6.16,5.43,4.4,1.21-.57,2.65-2.65,4.23-1.37.79.64.66,2,1.55,2.19,1.18.24,1.58-2.05,2.59-2.12,1.16-.09,1.16,1.5,2,2.12,1.29,1,2.36-.31,3.53-.81s4.68-1.67,4.78.8"/><path class="cls-3" d="M11.52,613.31c120-60,509.9-18,581.88-6,90,18,180,60,275.94,72L0,680c-13.58-13.13-8.56-29.11-6.48-66.69"/><path class="cls-3" d="M1082.08,533.06c1.46-5.39,3.66-10.65,3.43-16.36a5.71,5.71,0,0,0-1.7-3.67,57.06,57.06,0,0,0-7.37-5.43,9.3,9.3,0,0,0-4.22-1.35c-6.19-.38-12.37,2-18.58,0a2,2,0,0,0-.87,0c-2.32.33-3.91-.79-5.13-2.59-.7-1-1.32-2.09-1.92-3.18-1.67-3-.88-4.61,2.53-5.13a6.69,6.69,0,0,0,5.22-6.18l-9.38,2.94-.32-.7a8.4,8.4,0,0,1,1.72-1.23c2.1-.81,4.45-1.19,6.33-2.34a21.28,21.28,0,0,0,5.78-5c1.67-2.19,2.64-4.92,4-7.38,1-1.76,1.08-3,.28-4.5-.89,4-1.78,5.29-4.38,5.64a20.12,20.12,0,0,0,1.39-4.13,15.2,15.2,0,0,0-.54-3.84l-.63.09a7.07,7.07,0,0,1,.27,2.11,13.23,13.23,0,0,1-.95,2.5c-.64-.56-1.31-1.09-1.92-1.69a4.51,4.51,0,0,1-.59-1l-.54.19,1.21,4.17-1.85-.76c1,1.57,2.21,2.62,2.52,3.88.74,3-1.32,6.54-4.28,7.71-1.75.7-3.58,1.2-5.38,1.79-2.58.84-3.83.1-4.32-2.64-.23-1.28-.35-2.59-.53-3.88l-.79.12,1.11,8.18a16.07,16.07,0,0,1-2.13.89,3,3,0,0,1-3.9-2.94c-.09-2.23-.27-4.46-.41-6.69a6.05,6.05,0,0,0-.64,2.78c-.31,5.41-1.14,5.85-6.07,3.27-.19-.1-.39-.2-.57-.32a5.93,5.93,0,0,1-1-9.29c1-1,2.07-1.9,3.11-2.84l-.29-.37-3.38,2.12.53-3.42a25.28,25.28,0,0,0-2.07,3.84c-.25.49-.88.79-1.33,1.17-.33-.59-.94-1.18-.92-1.76a22.4,22.4,0,0,1,.64-3.56l-.26-.11-1.52,3.07-.38-.1q-.08-1.48-.15-3l-.66.1c.11,3.8.38,7.78,2.14,11.08a11.79,11.79,0,0,0,7.7,6,13.85,13.85,0,0,1,3.08,1.09c.46.24.71.9,1.06,1.36l-.42.5c-2.63-1.53-5.15-3.47-8.47-3.06.5,3.21,2.39,5.52,5.15,6,2.35.41,3.22,1.95,3.35,3.94.17,2.75,0,5.53,0,8.29.09,4.47-.64,9.21,2.26,13.07,2.25,3,4.61,5.85,5.82,9.47a4.68,4.68,0,0,0,1.13,1.59"/><path class="cls-3" d="M1081.64,534.69l1.34,2.86.83,2.92.2,3.19.6,2.59.92,3V554l1.27,7,1.19,2.19,1,2.39v2l-2.59-.2-.87-1.59V562l-1.12-3-.4-2.59-.4-3.39-.6-2.39-.6-2.19-.8-1.34-.2-2.24-1.2-2.79-1.8-4.58-1.59-2.39-.6.8-.6,1.59.8,1.79.8,2,1.59,3.39.4,2.44-.4,2.34-.6,2.39-.4,5-1,5-.4,4.38.4,1.79-1.2.6H1074l-.6-1.39-.2-1.79.8-1.39.6-3.59.6-3.79v-7.17l-.4-2.34-1.2-1.25-1.4-2.59-1.19-3-1.39.8-2,.2-2-.4-2.79-.6h-1.59l-.4,2.19-.4,1.39-.4,3.24-.4,2.74V552l-.4,2.79.4,3,.2,4,.4,3.19,1.4,3.79-1,1.2h-1.59l-1.79-1,.2-2.19.4-2.79-.2-4.38V556l-.8-2.19-.8-1.4-.2-2.39.4-2.94.4-1.64-.4-3.39-.4-3.59-1.19-.6h-1l-.85,1.39v14l-1.14,1.39-.2,3.39.2,12-4-.8c1.8-4.19,1.1-26.08.5-27.8-.13-.38-.72-.7-.71-1,.13-3.74-2.16-6.18-4.48-8.62a4.68,4.68,0,0,1-1.13-1.59c-1.21-3.62-3.56-6.47-5.82-9.47-2.89-3.86-2.17-8.6-2.26-13.07-.05-2.76.13-5.54,0-8.29-.12-2-1-3.53-3.35-3.94-2.76-.48-4.65-2.79-5.15-6,3.33-.41,5.84,1.53,8.47,3.06l.42-.5c-.35-.47-.6-1.13-1.06-1.36a13.85,13.85,0,0,0-3.08-1.09,11.79,11.79,0,0,1-7.7-6c-1.77-3.3-2-7.29-2.14-11.08l.66-.1q.07,1.48.15,3l.38.1,1.52-3.07.26.11a22.4,22.4,0,0,0-.64,3.56c0,.58.6,1.17.92,1.76.45-.38,1.08-.69,1.33-1.17a25.28,25.28,0,0,1,2.07-3.84l-.53,3.42,3.38-2.12.29.37c-1,.95-2.08,1.88-3.11,2.84a5.93,5.93,0,0,0,1,9.29c.19.12.38.21.57.32,4.93,2.58,5.77,2.14,6.07-3.27a6.05,6.05,0,0,1,.64-2.78c.14,2.23.32,4.46.41,6.69a3,3,0,0,0,3.9,2.94,16.07,16.07,0,0,0,2.13-.89l-1.11-8.18.79-.12c.17,1.29.29,2.6.53,3.88.5,2.74,1.74,3.49,4.32,2.64,1.79-.59,3.63-1.09,5.38-1.79,3-1.17,5-4.69,4.28-7.71-.31-1.26-1.47-2.32-2.52-3.88l1.85.76-1.21-4.17.54-.19a4.51,4.51,0,0,0,.59,1c.61.6,1.28,1.13,1.92,1.69a13.23,13.23,0,0,0,.95-2.5,7.07,7.07,0,0,0-.27-2.11l.63-.09a15.2,15.2,0,0,1,.54,3.84,20.12,20.12,0,0,1-1.39,4.13c2.6-.35,3.49-1.6,4.38-5.64.8,1.5.68,2.73-.28,4.5-1.34,2.46-2.3,5.19-4,7.38a21.28,21.28,0,0,1-5.78,5c-1.88,1.15-4.23,1.53-6.33,2.34a8.4,8.4,0,0,0-1.72,1.23l.32.7,9.38-2.94a6.69,6.69,0,0,1-5.22,6.18c-3.41.52-4.2,2.11-2.53,5.13.6,1.08,1.23,2.15,1.92,3.18,1.22,1.79,2.82,2.92,5.13,2.59a2,2,0,0,1,.87,0c6.2,1.93,12.39-.4,18.58,0a9.3,9.3,0,0,1,4.22,1.35,57.06,57.06,0,0,1,7.37,5.43,5.71,5.71,0,0,1,1.7,3.67c.23,5.71-2,11-3.43,16.36Z"/><g class="cls-4"><path class="cls-3" d="M-37.26,543.16c36-15,63-10.08,102-19.08s138-16.24,174-19.24c75-3,174,38.33,264.76,19.24,123.45-26,248.81,28.32,365.82,70.33,24,6,200.13-53.09,277.54-20.34,48.89,20.68-215.56,106.87-248.56,106.87,0,0-518.54-5.08-677.56-5.08-69,0-141-3-210,3C4.74,642.85-3,569,0,533"/></g><path class="cls-2" d="M1591.9,354.82c.67-14.82-59.48-21.3-101.57-35.55-8-3.91-15.78,25.27-18.06,41.1,16.34-.6,32.3,22.53,50.71,27.37,18.84,5,42.08,3.69,62.47,2.64,5-11.28,8.68-25.15,6.45-38.56"/><path class="cls-2" d="M1485.46,345.1c-16.66,0-35.41-3.37-48.82,5.92-6,4.14-31.65,46.51-29.39,51.16,19.12,39.5,79.41-26.93,92.89-36.74a33,33,0,0,0-17.68-14.34"/><path class="cls-2" d="M1486.73,293.24c-15.83,11.7-39,16.89-57.91,36.88,6,8.23,17.65,15.79,25.07,16,29-13,65.82-25.75,61.73-30.78-6.81-10.24-11.06-21.47-28.89-22.07"/><path class="cls-3" d="M743.18,640.51c14.12-2.94,16.78-15.43,22.91-23,7-8.66,14.61-16.66,21.08-25.8,6.76-9.56,14-17.08,29.65-22.42-18.31,25.53-37.85,42.28-42.46,73.81,18.48-12.51,29-31.62,43.66-44.39,15-13.05,12-10.36,27.56-22.51.67-.54-27.38,34-29.19,55.4,19.65-5.17,40.53-27.75,64.94-36.15,1-.33-49,34.33-77.08,84.58-80.66-18.1-156.81-32.74-236.83-50.7.76-27.82.62-39.48-15.24-73.9,4.45,3.28,15,24.67,20.17,28.49.4-3-5-22.77-5.41-23.64-4-8.19-8.15-16.23-13.52-26.77,15.6,8.2,25.92,30,29.63,59.83,4.53-5.87,5.8-10.55,4.7-16.91-.54-3.16-1.83-22.16-6.25-47.74-.8-4.67,13.65,21.63,18.13,57.35-1-8.21,10.88-37.82,11.79-49.1,4.75-58.6,5.58-30.87,9.13,23,11-30.65,10.72-59.7,28.22-82.84.57,23.6-17.94,91-23.66,128.12,21.27-70,9.93-80.43,72-112.17-3.43,5.54-21.29,20.44-37,49.63-4,7.36-11.08,53.92-7,66.52,8.47-10.22,16.64-19.61,24.31-29.53s15.13-20.66,22.66-31c6.23,14.32-5.9,24.1-10.82,33.6-5.28,10.2-8.2,19.59-11.09,36,26.93-41.08,51.29-101.8,82.68-112.24h0c-20.68,18.24-35.89,55.46-42.93,83.23a135.44,135.44,0,0,0-4.28,25.5c13.25-23.51,26.08-47,48.87-69.68-6.69,15.81-9.82,27.08-15.66,36C739.78,591.8,740,603.29,735,619.9c4.79-15.89,62-92.81,78.43-89.39C813.45,530.52,767.32,560,743.18,640.51Z"/><path class="cls-3" d="M32.2,642.88l165-27.92c2.89-26.26,19.36-65.52,20.08-66.35,6.61-7.84,13.51-15.55,22.39-25.64-22.62,8.16-39.9,29-49.22,57.28-5.41-5.43-6.5-9.82-4.09-15.84,2.2-5.56,1.82-11.71,4.37-17.12,14-29.63,24.63-60.4,48.34-86.9,0,0-1.42-1-2.18-1.46-26.54,12.32-43.78,41-68.23,114.89-7.19-10.5-7.8-20.81-8-30.29-.23-12.33,3.18-24.89,5-37.35a23.34,23.34,0,0,0,.34-5c-3.39-40-3.63-28.3-20.26,39.61C135,512.08,128.24,490,116.42,472.19c-4.1,22.3,8.84,39.4,14.46,58.09,5.79,19.2,5.1,38.86,0,62.26C111.52,527,80.35,471.77-.52,443.44c3.93,5.14,60,53.47,77.49,80.62,4.41,6.85,22.29,61,14.84,73C81.61,587.6,71.67,579,62.51,569.8c-9.32-9.32-17.9-19.12-26.8-28.71-2.5,14.59,4.72,22.59,10.15,31.44,5.83,9.5,8.53,18.27,10.17,33.68-16.7-20.37-31.62-46.07-48.27-66.94Z"/><path class="cls-3" d="M1138.47,523.29a2.71,2.71,0,0,0-.85-2.48c-1.2-1.31-2.59-2.52-3.12-4.37a5.74,5.74,0,0,1,.33-3.54,44,44,0,0,0,2.18-7.23c.62.75.38,1.73,1.26,2.64-.08-1.44.92-2.21,1.11-3.32a3.93,3.93,0,0,0-2.8-4.6c-2.14-.68-4-1.87-6.17-2.59a10.38,10.38,0,0,0-6.15-.45,51.89,51.89,0,0,1-7.06,1c-1.55.18-3.11.33-4.66.5a20.77,20.77,0,0,1-6.69-.19c-3.18-.67-6.28.08-9.39.6a7.91,7.91,0,0,1-4.75-.85,1.71,1.71,0,0,1-.94-1,15.13,15.13,0,0,0-2-3.74,3.66,3.66,0,0,1,1.16-5c1.31-.85,1.74-3.87.71-5a.68.68,0,0,0-1,0,6.49,6.49,0,0,0-2.06,2.39c-.71,1.67-1.4,2-3.19,1.85-.18,0-.38-.13-.52-.07-1.54.65-2.26-.32-2.95-1.43a5.56,5.56,0,0,0-2.57-1.82c-.57-.28-.82.12-.95.65a3.59,3.59,0,0,0,2.4,4.54c1,.4,1.12,1.39,1.28,2.28.35,1.91.43,3.89,1.67,5.53a1.69,1.69,0,0,1,.31,1.61,3.14,3.14,0,0,0,.23,2.49,30.66,30.66,0,0,0,4.41,7,22.51,22.51,0,0,0,2.86,2.27,33.82,33.82,0,0,1,3.68,4.43,6.46,6.46,0,0,0,5.5,2.9c-.09,0,1.58.9,1.84,2.11.14.64.38,1.26.51,1.91l.3,2.82.43,2.14,1.71,4,2.85.43.14-5.41-.76-3.55v-4.21l.85-.6,3.21.34,4,.45,3.42-.31,2.94-1,2.18-1.09,2.29,2.16,1.58,2.49,2.45,1.8,3.22,1,2.42.57.85,2.56.57,2.33.71,2.8,2.4.94C1139.33,532.94,1138,525.75,1138.47,523.29Z"/><path class="cls-2" d="M513.26,565.26c7.44,4.72,38.19,7.59,46.55,8.87,0-7.54-29.59-19.17-38.74-26.22,4.94,2.94,21.36,5.84,29.87,4.94-15.62-8-29.1-15.11-44.33-25.71-4.86-3.38-12.41-11.1-17-14.14-8.81-5.82-17.66-8.7-25.36-16-8.38-8-17-16-24.29-24.93-11.27-13.85-27.93-30-44.18-38.44-20.52-10.69-35.42-24.73-55.41-37.24-23.09-14.45-30.59-27.93-35.91-56.74-1.65-8.92-4.19-24.34-5.32-27,0,0,7.82-6.25,10.64-9.75a7.46,7.46,0,0,0,.61-.9c1,.28,2,.58,2.93.9,1.22.42,6.46,1.26,7.76,1.77,26.38,7.31,64.34,62.38,64.65,63.17,5.17,2.22,3.4-4,3.4-4a141.47,141.47,0,0,0-26.89-41.51c-2.44-2.65-5-5.28-7.7-7.78s-5.49-4.89-8.37-7.11-5.77-4.32-8.7-6.2c-1.44-1-2.92-1.83-4.34-2.72s-2.86-1.68-4.28-2.42-2.79-1.49-4.16-2.13-2.69-1.27-4-1.85-2.6-1.12-3.82-1.6h0c-4.32-4.65-4.55-11.46-5.64-15.72-1.81-7.05-5.73-8.91-12.07-12-8.91-4.37-22.65-5.57-32,.64-6.65,3.1-10.32,5.18-11.53,13.3-1,6.78-6.65,17.42-1.77,24.09,0,0,5.17,33.35,2.64,49.1-2.33,14.49-3.29,28.66-6.85,42.71-3.71,14.6-3.71,31.15-4.37,46.35-.72,16.57-2.81,33,3,48.52,6.26,16.61,19.52,32.77,34.82,42.36,13.14,8.23,26.71,11.78,40.19,17.55.49,5.84,5.18,8.81,7.08,14.35a138.73,138.73,0,0,1,4.73,16.59c1.23,5.76,2.09,12.18,3,18.29.69,4.7-.11,16.31,7,14.09.23-9.51,4.39-16.21,1.86-25.29a94.82,94.82,0,0,1-3.56-25.65c2.1,2,4.16,3.95,6.36,5.72.62,6.57.44,14.18,1.48,17,3.61,9.61,5.19,18.27,6.45,28.3a7.64,7.64,0,0,0,3.37,0c-.34-6.68,3.43-12.44,2.93-18.83-.55-6.92-2.84-13.84-3.35-21.16,4-.65-.92-10.19,3.11-13.5l.2-.71c6.17,2.27,11,7.83,17.77,8.84a86.7,86.7,0,0,0,20.89,0c6-.77,10.74-3.3,17-3.56,10.18-.42,19.49,5.61,29.31,7.78,13.17,2.91,25.84,7.1,39.22,9,14.39,2.06,35.35,5.11,48.54,11.57C531.29,577.81,518.62,571.56,513.26,565.26Z"/></svg>