<svg id="Layer_1" data-name="Layer 1" xmlns="http://www.w3.org/2000/svg" viewBox="0 0 1600 680"><defs><style>.cls-1,.cls-3{opacity:0.6;}.cls-2,.cls-3,.cls-4{fill:#231f20;}.cls-3,.cls-4{fill-rule:evenodd;}</style></defs><title>Spotlight area_children and hedgehog</title><g class="cls-1"><path class="cls-2" d="M1006.33,0c4.2,2.91-7.79,15.61-.88,18.51l5.92,4.74-2.92,5.09c-.85,2.32-1.64,4.64-2.58,7-3.44,8.43-1.3,9.67,12.38,7.11l19.3,2.22q.13.77.25,1.54c-2.46.75-5.62,1.38-5.38,3.61.29,2.56,4.34,2.32,6.78,3.27-3.8,2.26-5.16,4.94-2.94,7.77,1.83,2.33,5,.9,7.68.22,4,1.74,6.95,5.91,13.41,2,8.71,1.13,13.74-4.1,20.21-6.84l5.41,3q.23,6.2.48,12.38c0,4.42-7.06,4.08-9.56,6.82l-7.1,4-2.48-.43c-13.38-8.08-13.38-8.08-24.09.34L1036.38,84l4.29.26c6-1.75,11.75-2.72,16.38.9l-3.95,4.61c-11.63,1.44-2.31,9.44-9.26,12.35a17.35,17.35,0,0,0-1.37,1.4c-4.26,2.39-9.17,1.11-13.8,1.91-.27,2.46,7,3.72,1.12,6.67-3.86,1.93-6.21,4.56-3.25,6.81s6.12-1.12,9.24-1.93c1.24-.33,2.47-.7,3.71-1,12.12,2.07,14.28.88,14.43-8,7.47-3.92,5.14-8.92,4.94-13.69a16.29,16.29,0,0,1,12.67-2.73,6.51,6.51,0,0,0-.58.81c-1.52,3.05-4.8,7.21-.55,8.78,5.86,2.17,8.26-2.82,11.4-5.53l14.11,8.62c.1.6.2,1.21.28,1.82,1.42,3.63-9.4,7.69-2.57,10.12a23.88,23.88,0,0,0,22.17-4l3.74,2.75c4.69,3.77,5.79,10.2,15.61,10.19l5.09-.59c2.2,2.56,4.45,4.87,7.71,0,.46-4.77,5.24-9.81.18-14.24,6.17-2.93,17.43,1.78,19.49-7.33,6.71-1.91,13.17-5.53,16.31,2.77,1.33,3.47,14.36,1.48,13.12,8.78q-1.28,5.6-2.57,11.2l-4.68,4.94c-8.24,1.62-14.16,3.85-11.17,11.08,1.15,2.79-.35,6.64-4.14,9.3-10.12,7.12.37,4.78,4.52,5.36,1,4-3.14,11.57,10.12,7,2-.71,3.26.13,3.57,1.49.56,2.47,1.12,5.42,6.17,3.11,3.48-1.6,8.11-3.83,3-7.15-1.51-1-.15-2.18,1.37-3,1.12-.76,1.06-1.43,0-2l-13.42-1.37c-.22-.59-.42-1.18-.63-1.77l6.56-3.21c5.62-.7,12-1.2,14-5.77,1.54-3.54-2.81-4.26-7-4.31l-6.36-2.2c-1.65-.33-4.12.56-4.74-1.3a15.4,15.4,0,0,0,2-.46c2.34-1.06,1.5-2.34,1-3.6,12.61-1.86,20.9.5,21.5,10.12.29,4.57,2.82,7.15,10.06,6.21l2.77,1c-.27,4.6-4.33,11,8.79,9,2.44-.36,3.22,2.21,4.2,3.75,0,3.33.08,6.86,6.41,2.45,2.41-1.68,3.64-4.2,5.41-6.34,4.19,0,7.26-.91,9-4.14,1.24-2.24,5.27-2.34,5.92-.66,3.47,8.84,9.47,1.58,14.5.36.76-.31,1.52-.61,2.3-.89,5.5-.91,6.73,3.81,11.65,3.68h0l-.11.09.14,0c5.28,7.19,14.53,1.26,21.86,1.72,15.22-4.71,14.69-14.12,16.47-22.83-1.32-1.62-2-3.33-.95-5.31,2.26-2.92,5-1,7.61-.91,5.44,5.93,18.26,9.32,11.65,19.5a33.72,33.72,0,0,0,4,1.54c.51,3.1-7.54,5.22-4.39,7.65,4,3.08,10.74,1.94,16.68.81l4.79,3.49c-.6,5.1,7.65,8.89,0,15.6,9.87-1.87,16-4.54,21.1-8.59,4.23-4.77,7.37,3.08,11.48-.31l3,1.25-2.51,2.68h0a63.34,63.34,0,0,0,8.34.92c3.36,0,4.4,5.39,8.8,1.54,3.05-2.69-.47-4.87-2.25-7,3.1-3.57,3.3-6.23-3.51-6.7-1.13-1.88-2.49-3.77.65-5.66,3.85-2.32,10,3.75,17.21,14.41,1.6,2.38,3.25,5,4.93,7.77,2.58,4.28,5.25,9,7.95,14,2.9,5.38,5.84,11.08,8.75,16.94s5.75,11.78,8.53,17.7c3.2,6.84,5.28,13.62,8.14,20.07,1.64,3.71,4.22,7.31,5.7,10.74,2.39,5.53,4.53,10.63,6.36,15.07,2,4.75,3.55,6.75,4.69,9.71.91,2.37,2.52,7.07,2.79,8,1.85,6.21,2.52,11.36,4,17.47q1.11,4.53,2.1,9c1.47,6.68,4.73,12.3,5.81,18.87,2.78,17.07,2.26,34.79,2.59,51.28.14,6.72-.91,13.4-1.14,20.05-.12,3.57,1.7,7.12,1.48,10.67-.25,4-1.57,8.08-2,12.1q-.6,6.36-1.4,12.69-1.74,13.78-4.36,27.46c-2.7,14.18-6.07,28.32-10,42.49-2.26,8.17-3.69,16.36-6.29,24.57-1.3,4.11-3.64,8.23-5,12.36-1.59,4.75-4.22,9.52-5.9,14.29-6.78,19.3-13.29,38.81-21.22,58.72H1600V107.67a12,12,0,0,1,2.83.78c5.14,4.59,10.67,8.72,20.77,7.29l5.22-.62c4.34-1.26,6.13-3.55,2.09-5.15-5-2-6.77-5.54-10.44-8.11,5-4.43,12.7-3.48,18.8-5.7,7.34-.6,8.05-4.34,7.64-8s.23-8.21-8-7.93c-7.12.81-8.42-6.22-15.9-4.92l0-.85c13.68-3.39,14-4.63,4.48-16.07l4.21-1.48c4.87,2,9.41-.95,11.13-2.86,2.33-2.61-1.07-5.52-3.67-7.62-1.81-1.46-4.49-2.39-6.78-3.55-5.9-1.86-13.64-1.74-16.59-6.79l-7-3.85c2.55-2.36,7.79-3.51,7.18-7.65l-10.88,1,2.2-2.06c9.35-10.67,9.35-10.67-2.79-10.43A21.14,21.14,0,0,1,1600,13V0M1190.68,133l0,0h.13Zm358.4-75-.09,0,.09,0Zm.58,6.63c.08.91.15,1.83.23,2.76l-.59-.09c-1.87-.3-3.82-.47-5.79-.64A23.36,23.36,0,0,0,1549.67,64.6Zm-5.89,74.14a18.64,18.64,0,0,1-6-1.2c-2.92-1.13-6.61,1-8.32,3.58,0,.07,0,.13,0,.2l-4.65-.9a6.93,6.93,0,0,0-2.1,1.22,13.31,13.31,0,0,0-11.7,1.2,5,5,0,0,0-1.21,1.51c-5.2-2.07-10.83,1.07-16.28,2.12-5.87,1.91-6.81,4.79-6.4,8-2.16-2.93-5.42-4.67-10.24-4.68a3.24,3.24,0,0,0,.42-.62l.14.06c13.67.2,10.26-7.07,11.89-12.14.15-.77.36-1.54.57-2.3l.79-.3c1.1,1.7,2.21,3.41,3.31,5.12.45,0,.89,0,1.34,0,.17-.35.36-.69.55-1l0,0-.58,1c.5-.16,1-.31,1.51-.45a11.87,11.87,0,0,0,10.72-1.25l-2.59-.26-.19-.75-.15-.75h0l2.2-5.91c3.15,1.74,5.16,4.33,8.17,6.19s5.09,4.63,10.33,3.84c3.7-1,7-2.29,8.91-4.4C1537,137.48,1540.32,138.2,1543.78,138.74ZM1272.06,82.95c-3.86-.6-7.73-1.09-11.8.06a3.1,3.1,0,0,0,.21-1.63c3.61.26,7.2.58,10.74,1A2.85,2.85,0,0,0,1272.06,82.95Zm-29.51-42.46a7.68,7.68,0,0,0,.56-1.7c-.06.34-.12.68-.21,1S1242.67,40.26,1242.55,40.49Zm72.94,35.65c-3.27-.74-6.54-1.5-10.35-.74-.55.07-1.09.16-1.6.27-2.48-5.28-4.29-10.57,2.76-16.12l12.23-.67c2.12,4.68,3.86,9.25-1.87,14.32A3.09,3.09,0,0,0,1315.49,76.14Zm61-74.25c-.56.41-1.11.84-1.68,1.25-3.2-.11-6.8-2.81-9.8,1.47-1.71,2.45-3.86,4.24-.91,5.74a3.23,3.23,0,0,0-.1.47l0,0c-3.93-.08-8.06,1-11.84.06l-.58.12c-1.44-2.23-4.7-3.16-8.16-3.95a3.32,3.32,0,0,0-.82,1.67,15.15,15.15,0,0,0-5.35,1.25l-.12.08-1.38-1.44c.13.73.26,1.46.39,2.19a5,5,0,0,0-1.17,1.51,2.94,2.94,0,0,0,.09,1.45,16.6,16.6,0,0,0-2.36.09,15.66,15.66,0,0,0,1-2.43c-.07-3.22.63-6.76-4.4-7.86,1.4-1.07,2.46-2.26,2.57-3.83m140.34,2c8.12,3.68,8.24,9.67,7.38,15.93a5.81,5.81,0,0,0,1.21,3.74c.9,1.64,1.39,3.46,3.48,4.6-5.37,1.92-4.52,5.19-3.93,8.41l-5.38.15c-1.74-2.24-4.72-2.63-8.23-2.2-.75,3-.77,5.91.88,8.5-6.32,2.39-5.68,7.21-8.29,10.89a5.3,5.3,0,0,0-1.43,3.63,23.82,23.82,0,0,1,.71,2.36l.65,2.48c-1,.39-2,.77-3,1.09-5.08,3.6-4.7,8.27-6.28,12.51-1.19,3.15,1.54,4.81,6,5,.58-.05,1.13-.12,1.68-.2a4.54,4.54,0,0,0,.58,1c3.25,1.32,6.69,4.31,10.47.6,3.45-3.4,1.42-6.7-2.11-9.32,6.5-.21,10.13-4.71,15.51-6.6-.68,3.14.92,5.57,3,7.84-3.3-1.14-6.75.54-8.64,3.62-2.12,3.47-5.12,7.68-2.82,11.48a9.15,9.15,0,0,0-5.5.33c-4.46-4-10.11-5.31-17.66-2.44-.48.25-1,.49-1.47.73l-4.61-4c0-.59-.1-1.19-.18-1.78.22-1.87-1.14-3.21-2.61-4.51-.37-.23-.72-.47-1.08-.72,1.79-2.9,3.39-5.8,2.68-8.7.87-1.16,1.06-2.61,0-4.57-2.81-2.92-7.78-2.89-12.07-3.8,2.89-3.41,4-7.65,9.37-9.88a2.52,2.52,0,0,0,.2-3.71l-.87-.31c6.7-9.21,3.11-17.19-3-24.88-1.18-1.7-.58-3,2.11-4,4.09.19,3.48-7.69,10-3.37,1.91.46,3.66.37,5-1-.15-.6-.31-1.19-.47-1.79l2.08-2.15c5.22-4.16,12.48-.68,16.64-5m5.48,115.76H1479c0,.11,0,.21,0,.33a5.43,5.43,0,0,0,3,3.31,12.9,12.9,0,0,0,2.37.61l-.34,1.31a12.41,12.41,0,0,0-1.8-.38,10.63,10.63,0,0,0-4.7.75C1478.16,121.46,1478.63,119.46,1477.63,117.51Zm9.08,46.83a17.42,17.42,0,0,0,1.76-5.63,6.08,6.08,0,0,0,1,1.1l-1.12,1.09-.09,0-1.48,3.37Zm20.51,3.88a6.35,6.35,0,0,0,1-1l1.3,1.41A6.26,6.26,0,0,0,1507.23,168.22Zm-3.82-31.17,0,0,1.4.54C1504.36,137.42,1503.88,137.24,1503.41,137.05ZM1431.22,6.93c.24-1.82.55-3.66.62-5.45.1.13.22.24.31.38l.35.11c-1,2.16.22,4.49.36,6.74l-2.06-1.36Zm1.49,80.78c1.91,2.37,5.05,3.5,8.89,3.92l-1.91,4.29-4.34,4c-7.31-2.8-13.22-2.15-17.51,2.51,1.13-10.22-1.22-12.46-14.86-15l4.52-4.86c.78-.14,1.54-.32,2.29-.54h0a20.16,20.16,0,0,1,11.26,2.31ZM1318.3,15.21h0l1.82,1.73a8.48,8.48,0,0,0-1.3,1c-3.15,4.76-1.18,8.19,4.11,10.74-.33.05-.66.11-1,.19-10.7,5.14-2,9-.27,13.24-6.52-.68-9.32.94-13.89,7.63-1.55-3-4.59-4.55-11.63-2.12,2-3.49,9.25-5.58,8-9.93a2.56,2.56,0,0,0,.77-2.64,4.18,4.18,0,0,0-.33-.52c2.16-4.52,5.48-9-.88-13.23-3.16-2.1,1.38-3.35,4.11-4.23l2.79-2.33Zm-75.39,10.24c-2.23-3.48,1.46-6.39,3.14-9.5l5.68,1.45c4.17-1.45,4.87-3,4.13-4.67,4.49,0,8.39-1.1,10.89-4.81a11.66,11.66,0,0,0,1-4.88c2.68-2,8.4,11.37,9.58,19.31-6.74,1-10.5,4.24-13.74,7.94-.35-2.5-2-3.69-6.42-1.92a10.28,10.28,0,0,0-1-.62,11.65,11.65,0,0,0-5.95-.52c-7.12,2.74-6.43,7.25-7.12,11.44a6,6,0,0,0-2.61-3.61C1244.46,32.57,1247.22,29.82,1242.91,25.45Zm-7.31,28.45a2.61,2.61,0,0,1,0,.49,7.67,7.67,0,0,1,1.08-5.49A8.35,8.35,0,0,0,1235.59,53.9ZM1166.07,5.79c-1,.57-2,1.15-3.08,1.72-2,1-3.92,2-5.85,3.07a4.54,4.54,0,0,0,.59-2.46,24.19,24.19,0,0,0-1.44-3.61,3.47,3.47,0,0,0-.81-1.43m-21.74,17.43-.35-.93.74-.66,4.9-2.7a16.43,16.43,0,0,0,9.58,1.79,3.7,3.7,0,0,0,2.1,1.86,170.48,170.48,0,0,1-16.59,7.67,8.46,8.46,0,0,0,.91-1.88C1135.51,23.77,1134.75,22.11,1133.75,20.51Zm-41.17-11-.71.07a8.34,8.34,0,0,0-3.23,1.66c-1.76-2.51-4-4.48-8.24-4.07m36.05,32a7.45,7.45,0,0,0-2.81-1.76,21.17,21.17,0,0,0,1.71-1.29,2.76,2.76,0,0,0,1.39,1.22A3.87,3.87,0,0,0,1116.45,39.21Zm32.39,44.17c-1.56,0-3,.68-4.22,2.81-.21-.15-.43-.31-.67-.46a10.87,10.87,0,0,0-3.63-.61c-4.72.62-9.7.75-13.63,3a5,5,0,0,0-1.36-1.63,7.48,7.48,0,0,0,6.22-3.75c2.23-4,8.57-8.27,5.59-12.52a15.37,15.37,0,0,0,11.94-3.87c1,2.52,3.38,4.12,7.28,4.66C1148.21,74.61,1146.07,78.07,1148.85,83.38Zm29.05-42.25c-.1.14-.19.27-.3.41-.19.39-.36.78-.53,1.18l-.8.1c-2.44,1.77-2.34,3.4-1.71,5a10.72,10.72,0,0,1-2.7,2.58,13,13,0,0,0-.92,1.32,12.82,12.82,0,0,1-6.2-4.15c-4.57-2.39-9.42-3.6-15.23-.69a10,10,0,0,0-1.58,1.93,5.72,5.72,0,0,0-2.17,1.31l-.47,2.57c-5.76-1-11.67-.11-17.59.83a6.74,6.74,0,0,0-.93.47c-3.65-4.24-11.08-2.24-16.86-3l.77-2.76h0l4.71-2.52c6-.94,12.25-2.29,14.3,3.34,6.4-.77,6.06-6.64,11.95-7.81,3.86-4.48,9.38-7,15.75-8.66a4.48,4.48,0,0,0-.44,4.8c5.08-2.36,8.13-6.67,14.49-6.48l-.28-2.29c.83-.33,1.66-.64,2.51-.93,5-2.9,8.51-6.1,7.45-10.22a9.65,9.65,0,0,0,3.49.16l.6,3c-.38.17-.76.35-1.14.56-5.37,2.5-5,6.22-5.45,9.74l.2.46-1.84.29C1174.43,35.3,1175.27,38.37,1177.9,41.13ZM1183,87.38l-.88.51a9.86,9.86,0,0,0-1.75-4,16.15,16.15,0,0,0,6.58-4.36c1.19-1.31,2.58-.84,3.94-.65-3.17,3.09-1.37,5.21.73,7.26A15.83,15.83,0,0,0,1183,87.38Zm33.07-20.09a10.57,10.57,0,0,0-2.9,2c-.12.11-.22.23-.32.35-2.37-1.64-4.22-1-5.9.42a5.19,5.19,0,0,0-1.87-2A20.78,20.78,0,0,0,1201,67h0l.42-.05c15.53-2.76,15.53-2.76,16-13.41,0-.29-.1-.57-.16-.86l1.79-.31c.91.47,1.84.93,2.79,1.37l3.2,4.93a11.75,11.75,0,0,0,3.21.57,12.23,12.23,0,0,0-2.52,1.3c.85,1.67,2.06,3.32,1.35,5.07l-1.13-.17C1222.33,64.83,1219.17,65.89,1216.09,67.29Zm59.33,51.63-.22-.12c-6.09-1.27-12.14-2.46-15.56,3.6a4.61,4.61,0,0,0-4.6.93l-1.76.31c-4-2.88-8.75-4.16-14.89-2.79l-13.47.47a8.1,8.1,0,0,0-1.29-1.09,8.2,8.2,0,0,0-2.41-.7c4.88-3.56,7.84-7.6,5.68-12.89-1.21-2.94,1.22-5.24,3.2-7.63,3.24,3.81,7.37,6.75,15.67,5.68h0l5.66,1c2.76-2.09,6.27-3,10-3.63h0c3.46,3.85,7.93,4.7,13.81,1.34,1.59,4.47,2,9.23,4.89,13.36A10.57,10.57,0,0,0,1275.42,118.91Zm245.65,91.48c3.16-1.08,5.57-3,6.42-6.78.58-2.57,3.29-3.61,6.63-2.36,5.29,2,6.63-.46,7.57-3.47,1.76-2.06,7.15-3.94,1.48-6.34-1.15-5.83-4.82-10.08-12.07-13.36-4.87-2.21-10.7-4.74-11.72-9.7l4.16-4.39,2.69-.51c15.33,6.48,15.46,6.52,26.31-4.22-.5,27.4-2.13,57.93-5.46,91.29A327.13,327.13,0,0,0,1521.07,210.39Zm79.06-159.12,1.71.29,1.45-1c1.31,6.47,8.4,8.85,16,10.88-7.09,1.83-6.47,4.69-4.62,7.71a11.47,11.47,0,0,0-5.89.28c-1.92.68-3.79,1.37-5.5,2.11a25.58,25.58,0,0,0-3.27.66V51.4Z"/></g><path class="cls-3" d="M605.14,324c.42.54.78,1.95,1.54,2a3.89,3.89,0,0,0,0-2.85c-.36-.74-1.75-1.89-1.66-2.75.91-.18,1.41.83,1.91,1.42a9.49,9.49,0,0,0,1.55,1.5,5.66,5.66,0,0,1,1.6,1.82c.28.56.48,1.58,1.12,1.83.62-.89,1,.14,1.59-.09s.44-1,.48-1.46a12.44,12.44,0,0,0,0-1.78,5.79,5.79,0,0,0-.5-1.45c-.23,0-.35-.13-.56-.16a6.85,6.85,0,0,0-.26-2.33c-.23-.51-.2-.32-.64-.66s-.39-.59-.58-1c-.36-.76-.93-1-1.66-1.35a8.65,8.65,0,0,0-1.89-1c.09-.68.77-1,.89-1.57.17-.85-.81-.78-1.36-1.21-1.29-1-8.85-7.39-10.28-7.61a2.66,2.66,0,0,1-1.65-.61c-.55-.53-.66-1-1.46-1.21s-2-.14-2.65-.69c-.47-.38-.64-1.06-1.06-1.49-1.13-1.15-3-1.7-4.28-2.63-1.55-1.1-2.76-2.2-4.6-2.77a39.55,39.55,0,0,1-5.47-2.67,11.4,11.4,0,0,1-2.63-2c-.88-.85-1.33-2-2.3-2.77a7.46,7.46,0,0,1-2.29-2.75,15,15,0,0,1-.95-2.4c-.17-.73-.32-1.46-.54-2.17-.42-1.33-.62-2.66-1-3.95a15.59,15.59,0,0,0-3.19-5.1c-1.56-2-5.56-4.52-6.16-5.28,1.2-2.88-.18-6,.56-8.37.53-1.71,1.36-3.54,1.4-5.35,0-1.51-1-2.79-1.63-4.1a58.45,58.45,0,0,1-2.24-5.64,12.81,12.81,0,0,0-2.12-4.38c-2.62-3-7.12-3.17-10.81-3.41-2-.13-4.19-.16-6,1-3.12,1.94-3.59,5.67-6.61,7.62a3,3,0,0,0-1.74,3.11c0,1.43.15,2.76.16,4.19a7.51,7.51,0,0,1,0,1.84c-.16.57-.66.74-.8,1.31-.61.07-1.26,0-1.87.06.29,1.19,2,2.07.23,3.11-1.15.68-2.63.6-3.91.73,1.06,1.13,2.47.82,4,1,0,2.53-4.86,2.2-6.33,2.84a5.59,5.59,0,0,0,3.93,1.64c.34,1.24-5.24,1.16-6.2,1.25-2.1.2-4.72-.09-6.58,1.12-.76.5-1.12,1.3-1.75,1.91a12.71,12.71,0,0,0-1.9,1.84,31.52,31.52,0,0,0-2,3.86c-.37.72-.56,1.45-1.46,1.49-.59,0-1.46-.74-2-.48-.42.19-.29.44-.48.84-.64,1.35-1.54,3-3,3.66-1.24.6-2.45-.76-3.41-.28-.49.25-1.06,1.16-1.53,1.54-1.48,1.17-3.16,1.9-4.66,3a5.31,5.31,0,0,1-1.19.84c-.69.26-1.6,0-2.32.23a18.31,18.31,0,0,0-1.8.75,56.34,56.34,0,0,0-5.14,4.08,3,3,0,0,0-.62,1.28c-.22.56,0,.41-.69,1s-1.06,1-1.64,1.5c-.37.3-.5.66-1.12.84-.4.12-1.45-.13-1.74.11s0,.71-.22,1.06a3.69,3.69,0,0,1-1.35.79c-.82.38-1.42.42-1.94,1.15-1,1.38-1.71,2.8-3.24,3.64a5.86,5.86,0,0,0-2.08,1.57c-.46.6-.74,1.3-1.23,1.88a3.58,3.58,0,0,1-1.79,1.13c-.59.21-1.81.43-1.92,1.2a13.84,13.84,0,0,1,3,.34c1.6.51.6,1.12.49,2.38-.1,1.08.75,2.46,1.12.74.12-.56-.28-1.3.56-1.1.47.11.64.89,1.16,1.05.86,3.1,6.09,1.44,8,.65,1-.4,1.82-.93,2.83-1.35,1.31-.55,2.73-.73,4.06-1.17,3-1,5.51-2.89,8.35-4.38s5.69-3.05,8.45-4.72c2.43-1.46,5.75-2.72,8.6-2.47-.14,2.09-1.3,3.33-2.15,5.18s-1.56,4-2.39,6c-1.46,3.45-3.67,6.87-4.21,10.61-.37,2.59-8.22,16.83-8,21a4.71,4.71,0,0,0,1.07,2.38c.62,1,.79,2.11,1.35,3.1,1,1.72,4.07,2.44,5.83,3,2.34.75,5.08.24,7.24,1.56,2.36,1.45,2.63,5.68,3.05,8.14,1,5.58,2.29,11.19,3.54,16.65.37,1.61-.56,1.41-1.06,2.91-.57,1.7.39,2.83,1,4.29.84,2.12-.67,1.43-1.58,2.86-.66,1.05-.07,3.29-.16,4.53-.1,1.51-.66,3.45-.08,4.9.67,1.69,1.16,1.42.31,3.2-1.3,2.75,0,5.49.72,8.22a70.53,70.53,0,0,1,1.46,9.75,12.7,12.7,0,0,1-.57,4.8c-.41,1.32-1.31,2.34-1.54,3.74,1.24.11.7,4.63.68,5.72s-.55,2.05-.49,3c.08,1.12,1.12,1.76,1.49,2.83a28.78,28.78,0,0,0,5.56,1.25c2.25.15,3.94-.91,6-1.11,1.4-.13,2.6.73,3.95,1a10.32,10.32,0,0,0,5.6-.47c4.66-2.2-3.24-7.93-4.58-10.17-2.28-3.8-3.86-7.34-3.86-11.77A62.87,62.87,0,0,1,522.9,402c2.65-.5,1.73-2.34,1.4-4.38a28.82,28.82,0,0,1-.47-4.72A33.25,33.25,0,0,1,525,384.3c.69-2.68,1.69-5.07,1.68-8.06s.24-5.72.24-8.63c0-3.15,0-6.23.28-9.34,2.65,4.86,1.58,11.57,1.66,16.92a38.61,38.61,0,0,1-.31,8c-.53,2.66-.75,4,.69,6.48.6,1,1.39,2.16.86,3.38s-1.38,1.17-1.26,2.78c.18,2.51,1,5,1.17,7.53s0,5.26,0,7.88c0,2.37-.59,4.37-.87,6.69-.14,1.19-.07,2.43-.13,3.63s-.64,2.84-.14,3.8c1,1.94,6.93,2.27,9,2.13-.13-2,4.19-.36,5.05-.23.54-2.33,1.25-5.42-.58-7.21-1.49-1.45-1.9-1.88-1.8-4,.07-1.58.3-3.11.48-4.66a61.43,61.43,0,0,1,1.45-9.12c.59-2.11,2.17-6.59-.28-8a9.32,9.32,0,0,0,2.36-4.9,37.75,37.75,0,0,0,.81-6.68c-.06-2.77-.79-5.37-.72-8.18s.9-6.29,0-9c-.32-1-1.11-1.77-1.35-2.8-.36-1.56.44-1.39.8-2.6.59-1.95-.87-4.15-.19-6.3.54-1.69,2.14-3.1,2.57-4.72.3-1.14.34-2.16.72-3.32s.72-2.55,1.09-3.8c.81-2.72.67-6.34.9-9.19.09-1.1,0-2.26.07-3.35.17-2.1.43-3.11,1.82-4.54-1.81-2.58-4.46-7.67-2.67-10.7,1.38-2.33,4-3.77,5.44-6.1,1.12-1.78,1.62-3.87,2.7-5.66,1.58-2.6,2.89,0,4.43,1.39,2,1.8,4.26,2.93,6.13,4.89,3.75,3.95,9.18,4.19,13.86,6.71,2.26,1.22,4.06,3.23,6.48,4.12a40.31,40.31,0,0,0,6.31,1.8c.35,1.39,1.27,1,2,1.74,1,.94.62,2.09,2.25,2s2-2.19,3-3.18C603,320,604,322.48,605.14,324Z"/><path class="cls-4" d="M377,287.17c4.59,3.75,9.41,6.38,13.05,11.12,1.64,2.13,2.42,3.44,4.51,4.91s4.87,2.24,6.86,4a29.57,29.57,0,0,1,7.7,12.4c2.12.64,3.18-1,5.24-.29s3.62,3.43,5.4,3.94c2.6.75,6,.51,5.28-2.19-.59-2.17-3.12-3-3.82-5.29,2.73-.44,6.06.47,6.84,2.81,1.05,3.14-2.14,5.29-2.45,8,2.67.55,3.34-.61,4.32-2.78.46,2.13-1.8,3.95-1.31,6.28,4.66.5,6.11-2.47,6.41-6.65,4.67,2.49,5.52.26,2.85-3.85-3-4.58-7.92-6.59-11.38-10.54-2.77-3.16-3.23-7.65-6.12-10.78-3.08-3.34-7.57-4.72-10.56-8.24-3.58-4.22-5.88-9.14-10-13-3.92-3.66-7.35-6.82-10.15-11.48-4.94-8.22-11.9-14.65-17.73-22.25-3.44-4.48-7.61-8.57-10.48-13.46-2.39-4.07-3.71-8.26-7-11.79-8-8.49-18.55-14.22-26.79-22.47-6.58-6.59-.32-13.44-4.41-21-2.27-4.2-5-7.74-6.76-12.24-1.95-4.87-4.16-10.17-9.71-11.71-10.73-3-22.38,6.37-28.21,14.24-4.85,6.56-12,18.47-6.21,26.28a2.38,2.38,0,0,1-2.16-1,8.17,8.17,0,0,1,2.75.49,13.69,13.69,0,0,1,.69-4.67c1.41,1.59,1.39,4,2.92,5.56a13.53,13.53,0,0,1,1.37-3.33c-.19,4.91,3.24,9.52,4.69,14,3.21,9.85-7.66,7.79-13.93,6.19-2.95-.75-5.23-1.74-8.31-1.74-2.59,0-5.63.55-8.17-.13-2.75-.75-6-2.83-8.47-4.25-3.18-1.82-2.9-4.22-5.13-6.84-3.66-4.31-10.05-5.79-15.49-5.13-1.8,3.23,2.2,3,1.35,5.52-.37,1.11-4.93,2.6-6.35,2.49-1.11,1.55.16,1.58.39,2.42-.16-.57,1.51,3.1,1,2.5a9.3,9.3,0,0,0,5.47,2.08c.59,2.5,3.65,1.66,5.51,2.5.35,4.53-2.22,10.33,2.44,13,5.16,2.9,11.66,1.93,16.59,4.88a50.92,50.92,0,0,0,15.29,6.53c4.79,1.14,11.45,4.31,14.52,8.44,2.89,3.88,1.83,8.44,3.16,12.66.7,2.24,2.66,3.5,3.7,5.55.95,1.87,1.23,4.13,2,6.1,2.06,5.51,1.63,9.92,1.87,15.72.2,4.64,2.76,9.1.17,13.13-2.05,3.2-4.52,6.43-4.62,10.47-.06,2.42,1.06,4.73,1.55,7.08,1,5,2.48,11.58,6.32,15.23,1.07-1.79,3-4.17,3.07-6.2,1.44,1.86,2,6.22,2.43,8.36a40.79,40.79,0,0,1,1.1,8.63,72.55,72.55,0,0,0,2.5,18.36c.83,3.18,2.23,6,3,9s.91,5.63,2,8.51c2,5.2,4.5,10.89,4.5,16.73a24.22,24.22,0,0,0,1.76,9c.69,2,.13,4.13.55,6.14.45,2.17,1.38,3.27,1.12,5.57-.43,0-.93.13-1.35.11-.7,8.19,4,16.81,5.25,24.89.65,4.08.06,8,1.48,12,1.36,3.84,4,7.25,4.52,11.35.68,5.45-13.78,13.27-15.21,12.74-5.15-1.92-11.14-.53-12.62,3.46-1.23,3.32,5.58,5.32,7.93,6.74,8.5,5.13,16.54,2.93,25.49.84-.13.67.27,1.67.15,2.34,4.23,1.55,13.07,4.13,14.68,2.09,1.38-1.76-1.05-5.94.75-8s2-9,2.67-12.81a47.84,47.84,0,0,0-.82-19.44c-1.56-6.23-1.68-12.67-3.09-18.93s-1.52-18.63-8.17-21.4c-2-5.15-3.58-10.75-3.58-16.28q0-8.75,0-17.49a117.53,117.53,0,0,0,10.85,29.07c4.41,8.57,7,17.54,10.62,26.43,3.47,8.57,13,16.55,11.79,25.89-3.51,26.46-13.05,19.88-16,29.71-1.64,5.44,5.37,8.05,10.49,8.79,5.5.79,9.33-.55,13-1.68,2.07-.65,4.29-1,5.65-2.43S382,480.2,384.25,478s8-4.09,8.25-9.25c.75-13.25-5.3-22.12-6.51-33.19-1.11-10.19-5.09-27.35-10.49-35.31-1-1.46-2.68.19-4.5,0,0,0-3.66,0-4.25-.75-7.83-9.79-9.89-16-9.34-29,.54-12.67,3.81-24.84,3.28-37.63-.12-3-.36-6-.6-9,5.15-.81,1.66-18,.82-21.54a47.26,47.26,0,0,1-.91-10.79,25.55,25.55,0,0,1,.24-4.73C362.35,275.31,371.43,282.65,377,287.17Z"/><path class="cls-2" d="M0,681H1600V610.84c0-4-10.45-5.57-13.73-6.13-9-1.53-17.73,1.37-26.6,2.32-9.32,1-18.18-2.59-27.64-1.54-17.23,1.93-34.54,1.92-51.67,4.6-4.39.69-7.21-1.54-11.79-2.34-11.49-2-21.8.38-32.69,3.08l-4.72,1.17-9.11,3.26L1410.91,617l-10.46,6-9.39-1-5.44,1.35-32.4,8-33.64,10.73-9.42,2.61-10,3.7-10.67,1.82-17.14-3.08-9.19,1.57-11.92,0L1235,651.48l-7,.19-5.93,1.19-11.2-1.63-9.43.31-4.67,2.15-8.25-1.73-10,.33-18.38,1-21.79,1.18L1127.72,656l-5.29-.71-7.17,2.39-16.62-.1-10.07-.45-3,.16-6.8-1.23-16,.46-14.19-.48-18.89-.64-28.89-1-16,2.46-15.37-1.52L957.62,653l-8.32-.28-10.63.64-4.72-1.16-8.23-1.28-6.49.78-6.48-1.3-10.61.72-13.49-.46-11.84-.4-8.89-.3-10.61-.36-15.42-.52-10.68-.36-15.28-.52-2.95-.1-10.56-.36-20.09-.68-12.45-.42-14.17-.48-8.32-.28-11.81-.4L718.53,651H701.3l-15.24,3-30.7-11.36H630.6c-5.86,0-13.23-8.69-17.27-8.13l-34.44-11.17-467.23-6.72-22.54-.32-13.54.81-15,2.78-24,2.66-25.49-7.37L0,615Z"/><path class="cls-2" d="M607.91,532.7a14.93,14.93,0,0,0-1.78.26c-1.83-.93-1.53-3.07-3.15-4s-4.86.11-6.5-.46c-3.42-1.19-3.33-5.43-5-7.89-6.17,2.41-12.2,5.11-18.2,7.91,11.56-22.84,17.46-48.44,5.45-71.95-17.62-34.5-62.72-41.16-94.36-23-27.54,15.81-42.21,46.48-74.71,54.25-38.91,9.31-87.22-11.78-126.59-6.92-23.21,2.87-70.38,19.23-108.43,22.77-43.81,4.07-87.82,5-131.54,10.12-9.32,1.08-18.62,2.29-27.92,3.52l-3,1.5c12.66-.39,12.6,14.4,25.52,16.48,10.68,1.73,18.71-1,28.53,3.78,9.67,4.72,17.33,11.89,27.54,14.3,13.15,3.1,22.85,7.79,26.26,22.58-8.52,3.12-17.32,3.77-26.69,4.54-2.24,8.73,4.09,5.71,8.84,7.34,4.33,1.48,8.62,5.8,13.28,6.19,2.58,7.72-5.11,8.63-6,14.53,35.09,18.07,69.24,25.48,108.78,24.87,45.68-.71,90.88-4.75,136.63-2.89,40.37,1.64,83.33,6.11,122.25-7.52,31.85-11.15,55.75-36,75.67-62.37l.27-.36c8.87-4,17.65-8.54,26.56-12.53C590.2,543.08,598.74,538.84,607.91,532.7Z"/><path class="cls-4" d="M1200.66,637.7c-.4-.15-.81-.34-1.23-.5h0A5.5,5.5,0,0,0,1200.66,637.7Z"/><path class="cls-4" d="M1298.94,600.53c.69,0,1.57-.28,2.27-.26a19.64,19.64,0,0,1-4.73-3.84c.33,0,.69-.08,1-.09a4.34,4.34,0,0,1-1.78-2.16c.72.41,1.55.6,2.25,1-.62-.73-1.24-1.51-1.69-2.14a19.18,19.18,0,0,1,3.29.29,8.76,8.76,0,0,1-3.76-1.94c.41,0,.93-.22,1.35-.21a9.57,9.57,0,0,0-.54-1.23c.42,0,1.27-.34,1.79-.29-.82-1.48-1.55-3-2.54-4.49a21.73,21.73,0,0,1,3-.41,30.52,30.52,0,0,0-3.61-1.69,9.55,9.55,0,0,0,2.66-.31,5.13,5.13,0,0,0-2.64-1.44c1-.59.87-1.1.92-2.18a9,9,0,0,0-1.59,0c.59-.25,1.12-1.13,1.5-1.42-1.16-.72-2.31-1.5-3.48-2.16.34,0,.85-.31,1.3-.33a30.38,30.38,0,0,0-2.18-2.89,2.16,2.16,0,0,0,2.13-1.3c-1.3,0-2.76.38-3.87-.11l.67-.77c-.42,0-.9-.29-1.38-.29.06-.47-.27-1.16-.22-1.62-.76-.21-1.13-.71-1.71-1a3.82,3.82,0,0,0,2.66-1.92,18.43,18.43,0,0,0-2.85-.44c.14-.26.23-.73.39-1a11.6,11.6,0,0,0-3.92-.14c.34-.21,1-1.15,1.29-1.41a7.93,7.93,0,0,0-2.5-.21,16.14,16.14,0,0,1,4.26-2,10.63,10.63,0,0,0-3.91-.31c.45-.52.86-1.53,1.43-2.09-.87.2-1.84.06-2.7.18a15.19,15.19,0,0,1,.88-1.62,14.28,14.28,0,0,0-3,.12,4.59,4.59,0,0,0,2.6-2.15,10.1,10.1,0,0,0-1.1.84c-1.22.13-1.48-.9-1.29-2.08-.46.12-1.16-.09-1.62,0a15.54,15.54,0,0,1,.29-3.3c-.46.53-1.13.76-1.59,1.3a9.58,9.58,0,0,1,0-2.62c-1.25.31-2.43,1.18-3.86,1,0-1.94,1.27-3.15,2.39-4.62a14.61,14.61,0,0,0-1.84.5,1.88,1.88,0,0,0,0-.41,10.94,10.94,0,0,1-2.06.07,10.23,10.23,0,0,1,.86-2.84c-.85.21-1.64,0-2.48.41.17-.44.1-1.45.29-1.89-1.54.41-2.75,1.57-4.3,1.71a4.26,4.26,0,0,1,.22-2.61c-.62.16-1.52-.1-2.14.08a10.46,10.46,0,0,1,.37-1.3c-1.14-.07-2.45.14-3.6.08a4.66,4.66,0,0,1,1.1-2.58c-.55.25-1.24.15-1.82.42,0-.49-.27-1.15-.21-1.64a7.6,7.6,0,0,0-3.5,1,9.65,9.65,0,0,1-.11-3.29c-.37.29-.87.34-1.26.61a4.7,4.7,0,0,1,.05-2.73c-.93.73-1.78,1.62-2.73,2.3.15-.78-.27-1.66-.2-2.41a8.89,8.89,0,0,0-1.38,0c.36-.3.48-.66,1-.95a3.93,3.93,0,0,0-1.41-.44c.28-.41.08-.71.64-1.17a11.32,11.32,0,0,1-2.15.14,8.14,8.14,0,0,1,.12-3.09c-1.43,1.15-2.43,2.79-3.73,4.11,0-.57-.24-1.25-.21-1.82-.25.27-1,.58-1.29.93,0-.9-.29-1.88-.29-2.79a2.42,2.42,0,0,0-1.84,1.74c0-.71-.38-1.18-.46-1.84-1.55.52-2.16,2.24-4.06,2.38-.06-1.05-.12-2.13-.28-3.15-.6,1.49-.74,3-1.39,4.47a11.07,11.07,0,0,0-.9-1.56c-.12.19-.36.56-.44.73-.32-2,0-4.94-.85-6.63a8.22,8.22,0,0,0-.87,4.4c-.52-1.47-1.1-3.15-1.5-4.74a22.36,22.36,0,0,0-.54,4,15.68,15.68,0,0,0-1.45-2.08c-.28.78-1,1.39-1.3,2.1.08-.7-.28-1.54-.26-2.24-.22.22-1.19.54-1.54.94-.45-.9-.91-1.82-1.39-2.68-.06.8-.46,1.52-.45,2.35a11.31,11.31,0,0,1-1.39-3.4c-.7,1.11-.7,3.21-.43,4.79a21.48,21.48,0,0,0-.81-2.13c-.46,1.61-.29,3.9-1,5.65-1.08-1.56-1.5-3.42-2.83-4.8a10.08,10.08,0,0,0-1.3,2.71,13.43,13.43,0,0,1-.44-1.74,11,11,0,0,0-1.26,5.11,20.22,20.22,0,0,1-.89-3.5,9.08,9.08,0,0,0-1.24,2.2c-.71-1.94-1.19-4.4-1.9-6.4.1,2.25,1.15,4,1,6.26a2,2,0,0,0-1.58-1.83,7,7,0,0,0-.06,2.53c-.74-1.2-1.39-2.59-2-3.62a5.3,5.3,0,0,0-.39,3c-.24-.27-.9-.54-1.24-1-.12.63-.85,1.63-1,2.09-.2-.51-1-1.26-1.12-1.69-.28,1.13-.8,2.21-1.85,2.35-1.27-.6-1.92,1.45-4.17-.69-.08.82-.5,1.87-.56,2.59-.22-.15-.44-.34-.64-.49a7.29,7.29,0,0,1-.6,3.93,7.28,7.28,0,0,1-1.2-2.89c-.12.63-.47,1.2-.57,1.84a17.21,17.21,0,0,0-1.6-2.25,11.63,11.63,0,0,1-1.42,2.83c-.29-.68-1.21-1.37-1.58-1.88a28.76,28.76,0,0,0-1.59,5.32,11.24,11.24,0,0,0-.87-2.95c-.14.56-.76,1.45-.92,2.1a16.6,16.6,0,0,0-1-2.35c-.17.46-.81,1-1,1.4a8.81,8.81,0,0,0-1.7-2.62c-.4,1.45-.52,3.07-.86,4.53-.17-.29-.74-.84-1-1.26a11.94,11.94,0,0,0-.12,1.62c-.22,0-.59-.28-.79-.17a3.23,3.23,0,0,1-.69,2.31,10.89,10.89,0,0,0-3-2.6c.1.9,0,1.91.12,2.8-.37-.39-1.11-.71-1.51-1.22.21.8,0,1.69.19,2.48-.19-.28-.67-.64-.9-1,0,1.46-.09,3.5-1,4.58-.33-.78-1-1.33-1.28-2a21.88,21.88,0,0,1,.09,2.4,8.61,8.61,0,0,1-4.26-2.76c.2.55.21,1.31.48,1.9-.41-.41-1.24-.76-1.71-1.17a59.34,59.34,0,0,0,.13,6.69,44,44,0,0,1-1.94-4.63c0,1.33,0,2.72-1.54,2.72.14,1.69-.06,3.36,0,5.08l-1.62-2.23c.1,2.9-2.41,3.56-2.32,5.68a17.46,17.46,0,0,1-2-2.57c-.62,1.42-.09,2.88-.43,4.23-.81-.44-1.47-.71-1.81-1.7,0,.72-.44,1.3-.53,2-.13.17-.93,1-1.21,1.34-.06-.43-.19-.92-.23-1.36-.82,1.07-1,2.7-1.87,3.8-.11-.7-.62-1-.75-1.39-.29.66-.91.8-1.32,1.29-.94-1.59-1.16-3.4-2-4.87-.45,2-.36,5.09-1.22,6.53a10.83,10.83,0,0,0-.52-1.31c-.44,1.47-.68,3-1.06,4.58-.11-.64-.67-1.69-.87-2.35-.29.82-.86,1.61-1.12,2.46a6,6,0,0,0-1.16-2.07,29.5,29.5,0,0,0-1.67,5.3,17.79,17.79,0,0,1,0-3.23c-1.25,1.7-2.44,4.32-4.38,5.45a7,7,0,0,1,.19-5.32c-2.11.94-2.83,3.65-4,5.24-.7-1-.56-2.27-.74-3.52-.71.42-1.26.24-1.81,1.16-.19-1.34-.27-2.74-.35-4.11-1,2.53-2.22,6.4-3.65,8.48a16.06,16.06,0,0,1-.79-2.44c-1.29,1.38-1.58,3.46-2.81,4.64a4.19,4.19,0,0,1-.75-2.7c-1,1.09-2.21,11.08-4.52,7.52-.92.87-.92,1.09-1.91,0-.33,1.23-1,9.44-2.58,5.41-.31,1.31.57,3.78-.43,4.58l-.57,0c1.28,1.5,1.35,3.84,2.39,5.49a9.76,9.76,0,0,1-1.49-.9c.34,3.11,1.9,5.92,2,8.84-.24,0-.61-.08-.78-.08.21,1.92.38,3.89.43,5.81-.33,0-2.26,6.1-3.08,6.88.28,3.91,2.33,7.43.47,11.32-1.56,3.26-4.47,4.57-6.22,7.84-3.92,1.4-3.33,8.88.24,10,1.42.45,5.36-1.5,6.67-1.73,2.42-.42,4.27-1.17,6.8-.4,2.23.68,10.1-.48,11.94-1.27,2.41-1,7.42-.31,8.23-.34,1.37-.05,1.55-1.36,3.31-.88.49-.77,3.92-.49,5.33-1a15.5,15.5,0,0,1,5.35-1c0-.34,2-1.18,2.69-.41-.37-.23,1.73-.21,3.08.07,3.12.65,3.85-.41,1.54-1.82,1.28-.19,2.63-.24,3.91-.42-.5-.38-.9-1.17-1.42-1.57,1.63-.08,3.39-.51,4.94-.06a4.73,4.73,0,0,1-1.59-.77c3-.25,5.68,1.53,8.78,1.06a3,3,0,0,1-2.56-1.46c1.44-.2,2.92-.28,4.38-.39a11,11,0,0,1-1.34-.12c2.37-.86,3.45,1.56,5.2,2.32-2.4.05-2.09,3.57-3.24,5.05-1.4,1.8-3.79,2.6-5.7,3.67-3.42,1.92-6.47,4-9.71,5.83.73-.14,1.65,0,2.39-.09-1.81,2.35-5.92,2.06-6.6,5.27,1-.35,2-.56,3-1-.63,1.15-1.34,2.46-.55,3.69,2.19-2.19,5-.62,7.79-1.55-.26.79-.05,1.27-1.11,1.94,3.36-.4,7.82-.08,10.87-1.49.88-.41.84-1.43,1.62-1.8s2.2.08,2.84-.47c1.26-1.09.55-2.86.28-4.27,4.4-2.89,10.82-10.13,10.17-15.9,1.48-.15,2.68.89,4,1.33a12.5,12.5,0,0,1-.94-1.52,30.16,30.16,0,0,0,5.15,2.53,5.16,5.16,0,0,1-2.71-2.2,3.78,3.78,0,0,1,2.3.33,10.09,10.09,0,0,1,3.24,0c.11-.16-.22-.24-.18-.41,1.05.92,2.07,2.18,3.65,1.92-.78-.42-.9-1-1.59-1.57,1.5-.27,2.74.24,4.13.46-.13-.4,0-1-.18-1.39,1.57-.11,3.07.29,4.63-.09,0-.27,0-.5,0-.77a23.09,23.09,0,0,1,4.48-.16c-.43-.48-.37-1.12-.62-1.56,4.36-1,9.43,8.13,13,10.64,2.3,1.6,4.55,2.64,6.2,5s2,5.23,4.87,6a12.16,12.16,0,0,1-.83-1.28c1.85-.85,2.07-3.16,1.21-5,.35.33,1.79,2.21,2.76,2.69,1.65.8,3.35-.06,5,.87-.13-.76-.86-1.8-.81-2.35.08-1,.95-1.29.68-2.61-.43-2.13-3.17-2.44-3.16-4.55,1.39-.18,2.89-.06,4.15-.7a13,13,0,0,0-6.29-5.42,8.85,8.85,0,0,1-4-2.78c-.83-1-.55-2.11-1.63-3a2.29,2.29,0,0,1,3.16.58c.11-.34.72-1,.83-1.45a8.16,8.16,0,0,0,2.14,2.53c-.11-.53,0-1.12-.1-1.62,1.32,1.62,3.21,3.13,4.59,4.82a6.52,6.52,0,0,0,.23-1.21,9,9,0,0,1,.89.79l-.58,0a46,46,0,0,0,3.06,6.23c-.33-3.24,4.24,2.69,6.08,2.77a4.69,4.69,0,0,1-.2-.82c2.24-.35,3.91.58,5.94.6.05-.27,0-.5,0-.77,2-.25,4.1-.28,6.09-.56l-.41-.44c3.21-.43,7.53.32,9,3.25,1.07,2.16-.14,2.64,2,4.17,2,1.4,3.29,1.59,4.21-1,2.15,3.49,3.49,3.62,5.72.26,1,1.4,1.69,4.49,4.15,2.67,1.39-1,1.1-3.67.24-4.8-2-2.57-9.39-3.17-11.38-3.91,4.27.09,8.54.15,12.56,1.18a24.11,24.11,0,0,0-4-2.13c.55,0,1.25-.25,1.81-.23-.43-.46-.65-1.35-1.16-1.82,1.15-.16,2.39-.21,3.55-.38a20.73,20.73,0,0,1-2.12-2.29c1-.16,2.05-.2,3.06-.34a21,21,0,0,1-1.28-2.32c.48.21,1,.28,1.47.54a5.84,5.84,0,0,1-.34-1,14.61,14.61,0,0,1,1.64.88,8.78,8.78,0,0,1-1.78-2.55c.41,0,.95-.23,1.36-.21-.43-.4-.54-1.1-.92-1.55.49,0,1-.2,1.57-.15-2.48-1.5-4.16-4.2-5.79-6.37a8.35,8.35,0,0,1,.89.37,9.36,9.36,0,0,1-.4-1.56c.33.13.84.14,1.18.29-.09-.48,0-1-.12-1.5.29-.2.67,0,1-.16a4.34,4.34,0,0,1,.05-1.07c.9.33,1.57.31,2.28,1.06a3.16,3.16,0,0,0-.68-2.3c.57.07,1.34-.27,1.93-.24a29.3,29.3,0,0,1-1-3c.48.05,1.12-.23,1.62-.19a6.31,6.31,0,0,0-1.22-2.77c.34,0,.67,0,1-.07a9.9,9.9,0,0,0-1-2.92c.54,0,1.33-.36,1.92-.31a53,53,0,0,1-4.45-3.77c.47,0,1.26-.29,1.82-.27-.56-.52-.76-1.3-1.17-1.78.53.13,1.39.05,1.89.22a8.62,8.62,0,0,1-2-2.61,22.62,22.62,0,0,1,3.92-.12A11,11,0,0,1,1298.94,600.53Z"/></svg>