<svg id="artwork" xmlns="http://www.w3.org/2000/svg" viewBox="0 0 1600 680"><defs><style>.cls-1,.cls-2,.cls-4,.cls-5{fill:#231f20;}.cls-1,.cls-4,.cls-5{fill-rule:evenodd;}.cls-1,.cls-3{opacity:0.4;}.cls-5{opacity:0.5;}</style></defs><title>Spotlight area_barn owl with people</title><path class="cls-1" d="M1756.82,672.22l-1.31-1.56c.06-1.66.12-3.33.18-5,3.66-3.09,8.74-2.29,13-1.69,6.39.9,11.21-.51,15.48-4.15,4.89.82,2.8-2.94,3-5.19,1.29-2.56,2-4.9-2.44-5.86-2.78-.61-3.78-2.56-2.56-4.65,3.59-6.15-1.07-9.87-5.4-13.77-5.86-7.31-11.51-11.33-17.19-2-1.55,2.56-4.47-1-6.69-.41h0l-10,9.92-2.54-.17c-1.47-2.13-4.86-2.77-4.94-6,2.12-.58,3.67-1.61,3.05-4.26a4,4,0,0,0-3.05-3.18c-8.06-2.23-14.78,1.25-17.18,9-2.78-.85-5.83-4.69-8.25-1.91s2.51,2.37,3.14,4.08c.95,2.62-.93,3.36-2.69,3.23a80.61,80.61,0,0,1-9-1.63c-4.47-2.86-7.44-.76-10.3,1.75h0l-1.68-1.83c.5-2.26,2.39-4.61-1.33-6.59-.85-2.87,1.17-3.62,3-4.48,4.4,2.7,5.91.72,6.23-3.22,2.38-.73,5.84-.71,5.65-4-.3-4.72-4.26-1.3-6.26-2.83a40.15,40.15,0,0,0-5.6-3.06l0,0h0c0,1-.09,2-.13,3l-2.59-.45c-.4-4.26-7.12-.05-6.74-5.35-.6-5.17-2.66-9.82-7.47-15.56.5,8.2-6.81,7.23-9.58,11.14l-5,.35c-2.9-3.45-6.27-7.29-10.57-6.87-3.39.33.17,5.44-2,7.42a24.65,24.65,0,0,0-3.38-.7c-2.25,10.23-12.08,6.92-19,8.73-1.63-1.07-4.47-.95-4-4a5.23,5.23,0,0,1,3.82-3.37c4.27-7,10.36-13.51,4.06-23.67-4.71-3-6.66-11.32-14.26-8.54l-.05-.09v.11h0v0l0,0c-2.89-2.29-6.53.54-9.29-2.57-.3-.55-.58-1.1-.85-1.66-2.29-3.11-1.46-11-9-6.21-1.42.91-3.8-1-3.17-3.12.91-3.11-.4-5.13-2.92-7,.25-2.32,1-4.66.62-6.95-1.12-6-3.36-3.51-5.37-1.11-1.54.66-3.58,2.15-4.84.81-6.73-7.25-8.19-.87-10.85,2.53l-2.31-.49c-3.79-3.9-6.9-3.19-9.88-.06-6.26,6.61-12.72,4.6-19.2-2.37,1.07-.68,2.37-1.22,1.61-3a8.91,8.91,0,0,0-.95-1.24c1.51-1.05,2.46.69,3.66,1.19l5.19,1.27c2.55,1.83,5.63,3.27,6.87,0,1.6-4.16-1.92-7.36-4.89-10.36h0c-.66-1.74-1.33-3.48-2-5.22.48-.33,1-.66,1.46-1,3,1.67-12.12,2.61-14.52,4.09-6.24,3.83-4,8.07-.05,12.91h0q-.11,2.82-.21,5.63l-5.32,9.16c-3.73,5.78-10.38-1.47-13.31.42-7,4.53-8.67-.94-11.55-5.3,4.35-7.43-5.34-9.09-7.28-13.94,5.77-.91,6-6.64,8.63-10.25,1-4.93-1.76-4.29-4.66-3.45l-2.71-2.69c-5.92-4.39-10.53-.29-15.68.31l-3.95.29a14.56,14.56,0,0,0-11-12.75c-5.62-1.32-1.57,6.42-4.66,8.38l-1.28,1.17-13.81-.15c-.24-3.33,1.38-8-3.5-9-3.53-.77-4.1,3.67-5.06,6.52a6.16,6.16,0,0,0-.15.85c-3.48-1.47-12.51-3.58-12.66-1.89-5,.53-10.69,5.45,2.36,5.64.58.28,1.17.54,1.76.8q.93,3,1.86,6c-.16,3.08,4.28,6,1.6,9.15q-4,4.31-7.89,8.63l-5.09-.29c-2.23-4.85-2.05-10.83-8-13.92-1.47-5.71-5.81-4.06-9.29-4.59-1.23-1.71-2.24-4.12-4.77-3.27-3.08,1-3.9,3.55-3,6.86-2.06-.41-4.35-2.4-6.1-.69-1.51,1.49,0,3.36,1,5l-1.1,1-13-7h0c-6.68-7.93-8.73-8-11.83-.43-.84,2.07-1.8,4.08-2.71,6.12l-1.36,4.94-6.48.74c-6-1-.36,6.6-4.68,6.8-13.22,1.45-13.84,2.68-7.8,15.75-1.45,4-4.71,3.42-7.07.78-5.38-6-6.55-2-8.11,1.83-9.67-4.09-10.8,5.23-15.73,8.57-4.66-1.19-7.46-4.72-10.16-8.42-4.29-5.89-7.8-5.3-10.66,0l-3.43-1.65c-.36-1.56-1-3-2.9-3-8.73-.05-9.25,2-3.24,12.54.51,1.36,1,2.73,1.52,4.09l.74-.41h0l0,.09-.78.32c-2.23,5.78,2,15.07-7.58,16.86l-8.2,6.06-8.5-9.85.48-.37.44-.42c2.6,0,5.18-.78,4.4-3.74-3.87-14.61-21.24-8.31-16.5-5.09h0c-1.89,2.64-4.91,5-1.27,9.12a5.89,5.89,0,0,1-6.63.85c-6.73-2.91-10.11-.93-11.28,6.8.27,2.82,3.69,3.42,4.53,5.84h0c-3.26,1.43-6.72,2.64-7.86,6.5-2.85.51-6.26-2.22-8.76.32-6.32-6-10.46-6.54-11.11,2.79-.13,2-1.23,3.77-1.88,5.64-4.47,7.35-.73,12.83,6.24,17.58a10.75,10.75,0,0,1-.88,1.22h0c-4,4.44-8.37,8.52-10.75,14.24-2.67-.86-4.58-5.9-7.74-3.06-2.84,2.55,1.09,5.52,1.86,8.29.38,1.38,1.74,2.63,2.65,3.94,3.87,2.58,7,5.56,6.39,10.42-.38.2-.76.4-1.13.62l-3.67-1.51c-3-2.13-4.51-1.09-5.1,1.83l-6.65.25-1.29,1.23c0-.05,0-.1,0-.16l-.23.18c-5.15-.69-6,2.22-5,6.62"/><path class="cls-2" d="M437.68,31.74a4,4,0,0,0-.65-1.13.08.08,0,0,1,0,0l-.06,0a1.59,1.59,0,0,0-.32-.27c-7.31-6-14.29,10-16,15.16C419.33,49.37,416.91,45,411,52c-5.16,6.09-4.28,8.54-4,9.71-.5.53-.87.92-1,1.12-4.51,1-9.26,3.74-11.36,8.61-.45,1-.41,3.26-.53,4.9l-.65.74a6.68,6.68,0,0,0-1.27,1.06,15.83,15.83,0,0,0-7.27,3.38c-1.92,1.79-1.41,5.3-4.12,7.87-1.5,1.32-4.57,2.05-5.92,4-1.85,2.34-1.79,3.83-2.69,6.23-1.54,3.49-1.92,2-4.86,3.75-3.44,2.14-4.27,4.83-5.53,8.24a34.46,34.46,0,0,1-1.49,3.52c-9.31,10.91-.82-1.89-16.56,9.52C319.7,142,318.16,178,314.1,181.12c-4.26,3.23-29.25-50.28-135.52-67.08-16.25-2.57-44.91,11-44.09,14,4.19,15.66,20.94,43.82,48.81,60.51,1.67,1,4.9,0,7.79-.62a10.23,10.23,0,0,1,3.63,2.26c2.42,2.51,2.4,4.8,6.37,4.54,2.12-.14,5.35-.78,7.22.55s3.75,5.05,5,7.09c1.48,2.45,3,5,3.43,7.86a16.87,16.87,0,0,1,9.2,1.55,9.79,9.79,0,0,1,4.14,4.4c.57,1.12.61,2,1.77,2.27s3.34-.72,4.66-.67c4.16.16,7,5.18,8,8.76,3.77.38,8,.08,11.59,1.31,3.41,1.18,6.32,3.63,9.24,5.35,1.39,1.74,9.54.47,12.68-1.35,26.39-15.33,21,1.7,20.9,3.43-.07,2.26-13,18.65-32.72,28.64a121.91,121.91,0,0,1-22.72,28.09c-14.16,12.81-29.71,22.3-27.3,25.42,1.37,1.77,8.26-2.26,14.43-4.11,1.87-.56-.6,3,1.53,2.26,1.91-.7,8.07-3.08,10.13-3.91,1.19-.48,0,3.51,1.24,3,1.89-.8,8.86-5.88,10.76-6.72,5.41-2.39,13.59-13.75,18.12-16.13,9.94-5.23,14-.85,15.24-1,54.19-8.35,49.29-24.66,51.42-22.24,5,5.71,10.66,4.5,11.56,6.49,3.68,8.15,17.25,21.2,21,21.57h0c-.78.82-3.91,4-4.71,4.19,2.44.75,6.21-.85,8.28-2a29.83,29.83,0,0,0,5.71-3.76,32.3,32.3,0,0,0,9.65-6.55c14.8-14.21,17.75-45.47-2.3-65-7.69-7.5-19.65-16.49-30.62-18.95,0,0,6.14-45.77,49.46-84C430.48,99.94,445.93,52.5,437.68,31.74Z"/><path class="cls-2" d="M286,287.47c6.08,5.55,14.88,33.77,3.84,36.85.23,5.53-2.82,11.6-8.39,13.29,3.1-1.36,3.3-8.59,3.26-11.46-.85,5.06-2.35,9.21-7.32,11.28-.3-3.51,4-7.14,4.14-11-.64,5-9.63,11.21-13.82,13.53.42-4.41,6.53-6.73,7.72-11,.59-2.13-.42-3.94-.61-6.12-.22-2.46.47-4.66.6-7.08.49-9.56-4.9-17-8.42-25.23,3.64-.72,16.8-10.07,19-3.1"/><g class="cls-3"><path class="cls-4" d="M1437.44,421.69c-1.54-.34-6.89,2-6.86,3.07,0,2.1,2.14,5.66,4.38,6,4.29.59,9.35-.54,13.93-1.22a77.32,77.32,0,0,0,8.18-2.06c.05,1.09.5,2.25.06,3.27-2.06,4.81-4.72,9.54-6.31,14.39-.38,1.16,2.56,2.72,4,4.1,7.31-2.49,6.85,1.28,9.1,3.56a36.09,36.09,0,0,0-3.91-.18c-2.87,6.51-10.88,5.44-19,4.29a31,31,0,0,0-7.45-.5c-1.39.16-3.61,1.94-3.24,2.44a96.44,96.44,0,0,0,9.12,10.29c1,1,3.75,2.28,5.07,2.08,11.34-1.69,9.49,3.4,10.52,5.24-3.5,2.93-5.51,4.86-8,6.6-2.11,1.49-4.7,2.76-7.08,4.14-1.37-1.82-3.42-3.61-3.91-5.5s.42-4.12.74-6.18c-4.38,6.23-7.21-1.63-10.77.14.91,2.19,2.85,4.65,2.67,7-.16,2-2.44,5.55-4.3,5.65-4.19.21-9.43-.21-10.7-4.17-.58-1.83-4.49-3.33-8-5.73.54-2.62,2.22-6.78-8.79-7.23-.25,2.18-.46,4.1-.67,5.93-9.46,1-19.58,4.16-27.2-1-2.64-1.79-.34-6-.3-8.11,6.47-.74,10.74-1.25,16.39-1.92-7.78-5.35-14.4-5.76-22.06-2.4l-2.81-3.51c-4.48,1.16-10.22,1.59-12.29,3.43-2.8,2.49-2.78,6.07-4,9.18-.82.21-1.63.44-2.45.65-4.3-3.73-8.58-7.48-14.72-12.8-1.47,2.15-2.62,3.8-3.84,5.6-4.39-3.52-6.59-6.93-10.71-8.2-6.22-1.92-7.46-4.5-6.62-7.7.7-2.66,3.19-5.14,4-7.78.58-1.87.69-5.23-.73-5.6-4.3-1.1-9.43-1.29-14.23-1.31-.83,0-1.39,2.64-2.49,3.94a6.71,6.71,0,0,1-3.49,2.44,12.5,12.5,0,0,1-6-.27,72.63,72.63,0,0,1-8.19-4.46c-.73,4.5-1.91,8.32-1.79,12.14s1.92,7.63,2.15,11.44c.08,1.17-2.45,3.22-4.07,3.3a16.45,16.45,0,0,1-7.43-1.91c-1.48-.76-1.33-2.54-2.73-3.44-1.78-1.15-4.36-1.91-6.6-2.82-.51,1.79-2,3.68-1.33,5.33,1.12,3,3.46,5.93,5.26,8.81-12.85,3-15.69-1.24-16.52-4.55-5.76-2.12-9.46-3.47-13.46-4.94l-2.84,1.69c-8.31-6.76-4.18-14.12,11.36-18.23-5.67-4.23-11.07-8.23-18.1-13.48,0,3.28-.07,5-.1,7-9-1.49-9.59,1.77-11.22,3.72l-24.37,7c-.29-2.57-.71-6.18-1.23-10.81l10.31,2.75c4.1-5.27,1.81-7.73-10.52-6.35,1.23-4.57.12-10.17,3.62-11.4,7.24-2.53,16.65-2,21.71,2.75,1.91-2.34,4.15-4.46,5.37-6.77,1-1.9.78-4,1.19-6.61-5.37,1.58-8.15,3-11,3-2.59,0-5.28-1.53-7.83-2.46-2.39-.86-5.06-1.61-6.83-2.81-1.51-1-3.05-2.72-2.62-3.84,1.58-4-1.65-5.17-7.63-4.71-1-7.73.81-9,14.52-10.09-4.2-4.37-.73-7.74,5.25-9.66,1.89-.62,6.88,1.94,11.74,3.45,3.8-2.1,9.1-4.79,8.33-9.9-.18-1.31,2.49-3.33,4.79-4,10-3.1,13.26-6.48,11.26-13.53l-17,3.67c-.5,5.09-5.1,6.74-18.07,5.56-.26,1.36-.53,2.76-.9,4.74l-13.07-1.91c-7.58,2.5-14.38,4.76-21.54,7.11-2.14-3.9-3.62-6.59-5.11-9.28l-2.36.34c-1,1.53-2,3.08-3.53,5.41l-4.51-4.17L1141.6,371c-4.59-6.32-5.77-11.83-.3-17.62,1.63-1.71.84-4.19,1.26-7-5.79,1.38-9.37,2.22-13.89,3.28-1.61-5.47-3.23-10.82-4.68-16.19-.12-.41,1-.88,1.38-1.39a28.62,28.62,0,0,0,3-4.52c2.77-6.3,8.69-7.7,18.68-4.36,1.52.52,3.29.79,4.94,1.17,4.26-6.25,2.79-7.13-13.62-7.72,1.26-6.66,1.23-13.38-1.93-20a8.67,8.67,0,0,1-.43-3.41l-10.23-.51c.64-3.81,1.28-7.61,2-11.61-3.52-.48-11.62-6.53-10.18-9.65.85-1.86,3.61-3.64,6.34-4.83.71-.3,5,1.58,6.81,2.85,2.07,1.41,3.26,3.27,5.92,6.07.06-3.88-.35-6.59.25-9.19.76-3.35,1-7.79,8.82-7.67,5.79.1,8.28-1.55,11.39-3.49,7.76-4.81,16.4-8,28.5-4.76,1.17.31,3-.27,4.58-.46l10.73-1.29c0,2.73.32,5.51-.24,8.19-.24,1.19-2.3,2.23-2.41,2.33,5.61.29,14-.37,15.25,1,2.91,3.32,2.44,7.62,3.49,12.23,12.4,2.59,7.73,8.37,3.24,14.28l9.91,1.57c4.91-3.07,8.32-6.24,13.25-8,5.3-1.91,8.79-3.89,11.2-7.34,1.41-2,6.57-3.26,10.44-4.42,4.59-1.37,9.6-2.28,14.44-3.39-.11-.6-.22-1.2-.33-1.79-6.57-2.3-12.79-5.17-19.85-6.6-2.6-.53-7.14,2.33-10.8,3.66l-2.23-.57c2.43-5.17,4.28-10.46,7.47-15.46,1.81-2.82,5.25-5.06,12.49-3.79,5.59,1,11.58.54,15.82-2.85,2-1.64,6-2.38,9-3.67,7.63-3.37,22.41.47,24.9-8.15.07-.25,1.7-.54,2.52-.48,8.09.66,13.69-2.7,20.26-3.81,7.84-1.34,5.07-3.2,5.38-5.87l-16.38,4.14c-.86-2.62-1.71-5.25-2.62-8.06l-14.37-.21,2.26,10.15-30.71-4.87c-1.05,3.9-.09,9-11.58,6.08-4.5,4.39-11,3.63-17.82,1.57.28,6.14.88,6.35,13.79,4.26-.7,2.7-1.26,4.81-2.1,8-3.64-1.78-5.43-2.65-8.69-4.26-1.7,2.3-3.61,4-4.28,5.93-1.27,3.5-7.56,5.1-12.55,2.92-10.18-4.45-10.78-8.55-2-14.52,1.79.89,3.56,1.79,5.39,2.69,6.21-5.09,6.74-12.92,22.45-12.45q.12-7.72.23-15.42c-3.55,1.89-6.31,4-6.65,6.29-.92,6.39-.53,6.42-11.3,4.27-.8,2.75-1.6,5.51-2.53,8.66-13.38-5-14.34-12.79-19.48-19.66-1.08,3.16.2,6.22-.33,9.13s1.06,7.46-7.53,7.22c-2-4.14-4.05-7.85-5.66-11.62-.79-1.89-1.81-4.07-.95-5.79,1.44-2.85,4.35-5.43,6.64-8.13,5.34.37,6.6-2.22,7.41-5.6.27-1.14,2.91-2.11,4.61-3.06s3.76-1.79,5.52-2.77c4.9-2.73,9.61-5.58,14.76-8.13.52-.26,4.66,1,5.07,1.79.68,1.45-.25,3.13-.71,6,6.29-4,10.64-7.4,16.16-9.95,2-.92,7.83-.53,10,.57,3.69,1.84,5.87,4.71,9,7.36,1.8-2.63,2.16-5.41,4.39-6,7.64-2.16,6.92-5.53,5.67-9.31l-23-5.44,5.62-9.43-7.67.53c-4.09,5.11-7.13,9.44-11.16,13.44-.72.72-5.75.56-8.24,0-6.59-1.55-10.33-4.07-12.67-8.58s-8-9.39-18.79-9.45c-.66,3.11-1.38,6.44-2.17,10.07-12.54-3.94-12.65-4.34-5.18-12.53-2.07-1.77-3.46-3.78-6-4.9a25.18,25.18,0,0,0-9.26-1.67c-3.15,0-6.29,1-10.09,1.68,0-2.91,1-4.74-.08-6-2.86-3.44-1.91-6.29,1.63-9.19,3.79-3.11,2.11-5.65-1.71-8.73a6.56,6.56,0,0,1-1.68-8c1.45-2.43,6.71-4,9.55-6.22s4.86-5,7.24-7.57l-13.13-3.24c1.75-1.59,4-3.48,6-5.46,4.13-4.11,12.64-5.09,19.48-2.4a73.49,73.49,0,0,0,8.45,2.36c.6-3.6-.41-7.24,1.74-8,2.83-1.05,8.56-.42,12.33.5,9,2.2,17-.72,16.57-7-6.08.57-12.05,1.14-18.21,1.7-.5-1.21-1.06-2.59-1.41-3.43L1211,62c-1,2.32-1.64,3.83-3.07,7.2l-22.42-15.27c1,4.16,1.64,7.12,2.36,10.25-10.52-.85-16.49-9.4-10.69-14.53,3.53-1.11,8-2.68,8.06-4.36.19-4.91,1.75-8.58,9.57-8.73a78.64,78.64,0,0,0-1.72-8.91c-.55-1.8-1.92-3.52-2.93-5.28l-2.75.53c.6,1.69,1.2,3.38,1.35,3.86-7,3-13,5.48-18.91,8.11-5.15,2.3-12.48,1-14.79-2.68-3.48-5.55,4.85-7.39,10.24-11.16L1149,16.88,1160.82,5.8l-11.66-.17c-.75-8.74,11.56-7.56,20.92-8.62l-.59-2.17L1156-6.37l3.22-3.3c3.4-3.49,5.79-7.54,10.41-10.37,7.69-4.68,12.17,1.69,18.26,2.85,2.64.5,5.37.83,8.53,1.31,2.76-5.18,8.61-6.48,15.82-3.42,8.29,3.51,17.88,6.89,23.16,11.7,6.93,6.28,17.13,8.75,27.13,12.8,3.83-5.52,12.53-9.67,4.09-15.9-1-.77,2.08-5,3.93-5.11a27.37,27.37,0,0,1,11.36,2c2.16.88,2.65,3.16,4.51,5.66,2.47-2.28,3.85-3.89,5.79-5.25,1.77-1.24,4.38-3.22,6.16-3.05,2.85.27,6.26,1.75,7.71,3.26a9.71,9.71,0,0,1,2.34,6.38c.28,4.43,0,8.87-.11,13.66,9.66-.54,17.35-1.74,19.35,4.5.19.6,4.78,1.11,7.27,1,2,0,3.82-1.24,5.89-1.57C1354,8.66,1354,8.7,1352.07.89c-.89-3.58,6-8.06,11.21-7,8.84,1.78,17.52,3.85,27.79,6.15-.21-2.48-.88-4.51-.42-6.42.6-2.59,2.06-5.1,3.14-7.64,3,1.43,6.67,2.59,8.94,4.32,3.88,3,6.9,6.3,11.43,10.57l11.09-12.68a11.07,11.07,0,0,0-2.59-.85c-10.67,1-19.47.61-20.4-7.56-.12-1-3.48-1.9-5.37-2.82-2.74-1.31-5.51-2.61-8.21-3.89,6.87-5.21,5.67-9.09-4.35-15.27.45,1.92,1,3.26,1.06,4.59,0,2.8-2.23,4-7.31,3.24-3.78-.58-7.76-.73-11.43-1.46-1.56-.29-2.57-1.59-4.69-3,7.71-.79,15.48-.37,15.49-6.87l-11.94-.8a37,37,0,0,0-11.34-4.84c-4.46-1.21-8-2.31-5.4-5.74,5.34-6.95,4.9-7.4-7.93-10.33l3,15.7-3.09.71L1321-57.34a24.63,24.63,0,0,1-.73,5.43c-.43,1.29-1.47,3.06-3.13,3.48s-5.63-.08-6.54-.92c-5.46-5-11.49-2.74-18.11-1.25.84,2.53,1.6,4.81,2.95,8.89-7.31-2.15-13.32-3.16-17.55-5.34-5.12-2.62-8.73-6.23-13-9.42-1,.3-1.93.59-2.9.87l6.69,14.43-22.3,1.29c.36-1.32,1-2.55,1-3.79-.12-4.16,4.24-9.54-8.67-10.47-.87-.06-2-3.57-1.41-5.26.54-1.52,3.33-2.75,5.45-4.35l-8.62-2.07c1.86-3.44,1.11-7.85,11.09-5.43,1.33.32,5.68-1.21,5.84-2.08,1-5.36,6.18-6.13,13.63-4.4,3.52-7.54,3.52-7.54-.69-18.08a1.27,1.27,0,0,1,0-1.1c3.51-5.82.36-13.53,13.85-16.56,1.73-.4,2.41-2.13,4-3a12.74,12.74,0,0,1,4.63-1.35c4.65-.45,9.37-.67,14.05-1-.11.2-.24.38-.35.59l8.59.73c-1-6.66-1.77-12.48-2.6-18.29h-2.3c-.94,2-1.87,4-3,6.48-5-1-10-1.32-13.7-2.79-8.17-3.26-18.83-6-15-13.73.25-.51-1.26-1.27-1.67-2-3.31-5.7.59-10.71,9.45-12.17-2-4.72-9.09-9.57.78-14a32,32,0,0,1,23.66-1.5c.72-2.71.67-5,2-7,2-2.9,4.93-5.57,7.46-8.35l11.61,6.62c2.13.24,4.9.62,7.7.81,2.27.17,5.67.75,6.7.12,5.15-3.18,9.24,0,12,1.22,3.36,1.52,4.78,4.51,7,6.86l-11.67,3.32,3.93,5.74c11.43-3.43,11.06-3.32,16.75,3.48,2.08,2.49,6.33,4.39,9.5,6.51,1.77-.6,2.55-.9,3.38-1.14,3.27-1,6.55-2,9.84-3,1,2.51,2.41,5,2.89,7.55.4,2.15-.23,4.36-.47,6.54-.43,3.93,5,7.43,10.61,6.64a79.15,79.15,0,0,0,8.65-2c2.82-.72,7.1-1.14,7.93-2.36s-1.77-3.29-3.22-5.54c-7.07,3.86-9.9,2.24-11.49-1.59-.74-1.77-1.14-4-3.18-5.11-6.09-3.32-6.45-6.39-1.57-10.09.84-.65.27-2.81-.88-3.31-8.52-3.73-5.19-7.18.41-10.75-9.71-6.63,3.17-7.35,7.78-10.57-8.62-3.58-4.11-7.77-1-11.5,1-1.27,5.64-1.52,9.91-2.55,2.41-6,3.56-6.43,11.37-4.37,4.4-1.42,8.35-3.82,11.47-3.47,7.1.81,13.79,3,18.22,4,5.29-2.74,9-6,13.93-6.81s6.83-1.76,7.92-4.3c.44-1,2.06-1.87,3.81-3.38,3.11,2.59,5.4,4.47,8,6.62l5.69-5.49,2.66.08q1.7,4.21,3.36,8.4c10.46-3.12,11.75-2.81,21.76,5.54l13.09-3.2c-2.52-4.1-.57-10.44,3.69-12.35,1.51-.68,3.94-.68,6.09-1,1.4,1.8,2.51,3.23,3.6,4.65,11.26-2.47,14.22-1.81,20.91,5l8.77-6.8c9.42-1.56,13.5.61,11.21,6.59,2-.69,4-1.69,4.44-1.5,8.21,3.54,9.38-.08,9.61-3.35.34-5,5.21-6,12.46-5.84,4.42.1,9.54.64,13.15-.39,6.78-1.9,9.92-.39,12.11,3.05,4.95-1.62,4.95-1.62,22.53,3.76l7.19-2.26,4,5.66c8.76-2.29,12.85,1.3,14.46,4.91,1.44,3.23-.31,6.91-.67,10.64l-11-.16c1.71,3.59,3.17,6.62,4.61,9.66l2-.1c.25-2.22.5-4.43.77-6.71l7.66.79c.24-2,.43-3.63.62-5.22,13.42-1.77,14.17-2.29,14.79-9.65.08-1.09.28-2.6,1.48-3.11a184.7,184.7,0,0,1,18.78-7.23c3.66-1.13,8.49-.93,12.51-1.75,10.84-2.26,20.87,1.19,22.29,7.81a20.86,20.86,0,0,0,1.4,3.33c4.78.32,9.36.89,13.89.86,5.92-.05,11.8-.82,17.71-.83,11.07,0,15.54,6.07,23.16,9.23,2.26.94,3.77,4.67,2.42,5.88-1.9,1.68-6.74,2.92-10.48,3-6.3.18-12.73-.66-19-1.07q1.15,6.51,2.35,13.06l-1.44-.19,7.73,7.41,9.14.91,8.38-10.48c4.63,6.85,9.55,4.94,12.6,3.38l16.51,4.23,1.64-4.54c4.48,1.56,8.16,3.72,12.27,4.1,11.36,1,16.34,4.29,14.3,11.35,3.59.36,8,.09,10.61,1.22,4.44,1.9,7.87,4.65,11.38,7.21.13.1-3.29,1.84-6.14,3.4l12.68,1,3.19,5c12.07-1.47,8.79,4.16,11.9,7.84l-17.91.42q0,2.9-.09,5.88c16.64-.66,31.68,7.64,32.78,17.92.15,1.46.64,3.06-.2,4.34-.71,1.1-3.05,1.83-4.68,2.72-1.52-1-3.63-1.93-4.38-3.1-.93-1.46-.72-3.16-1.08-5.18-14.09,1.25-1.54,7.91-9.71,11.35l-10.51-5.1-4,3.77-8.17-6.66c-1.28,8.34,13.51,15.81,4.62,24.56-12.46.56-9.48-6.71-13.47-9.57L1871-93.86c-6-2.74,1.34-9.59-10.95-8.42-3.6,3.82-4.86,7.19,1.85,10.62,2.55,1.29,3,4,4.45,6,3.07,4.25,6.17,8.47,9.52,13.06,1.85-11.27,7.31-13.61,25.42-13.49a14.87,14.87,0,0,0,6.22-1.6c4.28-2.18,18.18-2.31,22.07-.16a79.79,79.79,0,0,0,7.58,3.28c1.5-1.65,3-3.29,4.46-5,.76-.89,1.3-1.85,2.57-3.67,3.8,3,6.28,6.76,9.59,7.06,7.53.68,7.78,3.74,9.92,6.49a12.74,12.74,0,0,0,4.5,3.94c12.82,6.11,12.84,8.4-.54,14.08,7,1,14.24,2,21.29,1.75,10.23-.39,20.43,2.94,22.22,8.63.84,2.69.06,5.52,0,8.91,14.52,6.37,14.53,6.39,14.18,16.72-4.87-1.39-8.87-2.27-12.37-3.58-6-2.24-11.95-1.05-15.16,1.4-3,2.28,1.35,4.18,5.4,5.77,2.47,1,4.52,3.67,4.17,5.4s-3.92,3.16-6.15,4.77c3.59,1.48,7,2.72,10.09,4.19,4.23,2,7.93,5.65,12.38,6,10.77.83,9.52,5.38,11,9.2.47,1.17-.33,2.5-.46,3.28-3.55.45-6.69.72-9.69,1.26s-5.71,1.35-7.94,1.89c-2.84-2.75-4.9-4.76-7-6.76l-3.22.77c1.94,3.74,2.33,8.17,6.2,11.06,5.78,4.3,2.8,7.44-.64,10.81-1.88,1.85-5,3.26-7.41,4.73-7.64-2.39-6.4-5.41-4.85-8.77.71-1.51.52-4.25-1-4.78-2.42-.86-6.26-.45-9.49-.41-1.9,0-3.81.37-8,.8,7.39,2.62,14.74,5,8.47,9.2-2.77,1.83-9.3,1.73-14.11,2.5,1.18,1.87,3,4.7,5,7.76l-8,1.87c1.07,3,2,5.55,3.11,8.57L1952.9,49c-1.24-2.33-2.8-5.27-4.37-8.2l-1.77,1.26-12.31-3.41c1.58,2.4,3.22,4.94,5.37,8.24l-9.13-.61c-1.12,2.3-2.18,4.46-3.38,6.85l6.64,2.61c9.48-5.82,13.52-4.44,20.85,6.82,4.71-.08,9.92.46,14.31-.38,6.87-1.31,11.85-.33,15.19,3,4.53,4.53,10,7.5,20.06,6.23.52-1.71,1.05-3.54,1.76-5.91l9.13,3.68-4.38,3.12c5,2.25,11.25,3.83,13.71,6.54,2.76,3,2.07,7,3,11.2-10.4-3.24-13.23,1.9-15.48,5-2.11,2.87-.23,6.76-.09,10.75,5-.75,7.23-1,9.24-1.42s3.8-1.25,5.74-1.83c5-1.48,14,.33,16.42,3.24,5.31,6.54,2.52,16-7.16,21.8,12.8,6.82,9.78,15.06,6.19,23.92l-26.27-.39c.75,1.62,1.92,4.14,3.06,6.62,8,.53,14.23,1.86,14.45,7.16.12,3.06,1.51,6.66-8.07,5.79l5.56,9.65c11.12-4.9,11-4.75,20.61-1,1.65.65,5.41-.79,8.24-.84,3.32-.06,8.09-.41,9.76.67,5,3.26,3.53,10.25-2,14l-6-3.11c.77.65,1.52,1.31,2.3,2-3.72,1.22-8.77,2-10.8,3.81s-.88,4.79-1,5.85c7.65.4,13.78-.19,18.12,1.18a38.88,38.88,0,0,1,13.5,7.72c3.09,2.68-3.56,6.57-9.54,5.85a24.29,24.29,0,0,1-3.65-.86c-1.42,4.3-2.35,8.36-4.16,12.27-2.17,4.71-7.5,7.79-18,9.49,1.53-3.54,2.05-6.26,3.89-8.62,2.61-3.42,2.33-5.59-4.87-6.37-6.51-.71-9.69-2.91-9.26-6.89.13-1.24-1-2.53-1.68-4.25-5.35,2.51-9.22,5.71-13.91,6.13-4.41.41-9.71-2.11-15.28-3.5-1.44,5.41-2.65,10-4,15.09l-14-7.8-15.92,4.11c-.87-.54-1.72-1.09-2.59-1.63,1.23-2.52,3.27-5,3.46-7.56.14-1.93-1.4-4.21-3.38-5.86s-5.7-2.71-8.34-4.2c-2.14-1.21-3.85-2.67-7.26-5.1-.06,3.92-.09,6.08-.13,8.72-2.89-2.79-5.25-5.07-7.61-7.33l-2.33.2-1.86,5.92-14.18-.21c1.35,2.71,2.35,4.72,2.82,5.67,5.7.74,11.36.46,13.43,1.92,5,3.53,8.45,7.83,12.36,11.87.27.28-1,.93-1.14,1.45-.58,2.6-2,5.32-1.28,7.82,1.12,3.85.71,6.51-8.58,6.53,3.08,3.6,5.65,6.61,8.22,9.62,13.66-3.9,16-3.15,17.76,4.23.64,2.79,2.36,5.85,8.69,4.63,0-2.15.06-3.84.1-6.41,4.11,2.17,6,4,8.58,4.41,12.47,1.88,18.79,6,16.66,13.64-.5,1.78-1,4.46-2.95,5-4.54,1.25-10,1.42-15,2-10.34,4.67-19.11,11.91-38,9.44a18.83,18.83,0,0,0,6.4,4.3c4.35,2.1,9,4,13,6.32a48.65,48.65,0,0,1,8.19,6.43c1.94,1.77,4.65,3.72,4.78,5.6.44,7.52.27,15,7.44,21.81,4-1,8.07-2,11.82-2.95l-2.8-4.38c4.54-.25,7.91-.85,11-.5s6,2.33,8.92,2.3c2.64,0,5.55-1.58,7.66-2.86,1.46-.88,1.74-2.43,3.62-5.34,4,3.74,6.78,6.07,9.05,8.55,6.52,7.12,7.91,7.39,20.35,2.73,4.91,4.75,11.66,9.2,14.2,14.32s3.68,11.63-10,13.53a25.68,25.68,0,0,0,1.9,3c8.5,9.91,8.54,9.92-4.94,18.12-2.83,1.73-6.87,3-8.66,5-2.61,2.92-9,4.1-13.37,1.66-3.57-2-6.91-4.15-9.11-5.48-4.93,2.09-8.48,4.13-12.79,5.06-1.15.25-4.56-2.89-7.7-5-9.89,1.58-8.24-5.19-13.13-8.56-1.34,1.42-2.77,2.28-3,3.24-1.8,7.68-3.29,15.38-5,23.07-.93,4.18-2.06,8.37-3.32,12.53-.14.43-1.85.68-2.84,1l-8.36,2.74c-1.63,6.22-3,11.42-4.39,16.7a89.34,89.34,0,0,0,9.29-.9c10.32-2,15.87-.59,20,5,.76,1,3.36,1.58,5.17,2.31,2,.83,4.59,1.37,6,2.44,3.58,2.64,1.87,14.54-2.19,16.79a16.59,16.59,0,0,1-3.43.82c-2.51.59-5,1.21-7.87,1.91-2.34-1.06-5.27-2.37-8.19-3.7-1.39.71-2.3,1.22-3.27,1.67-8.87,4.16-11.62,3.43-19.17-1.56-5.19-3.41-10.63-6.22-11.17-11.08-.06-.58-2.93-1.08-4.64-1.67-.92,3.2-1.75,6.14-2.6,9.13l-8.23-1.46c3.79,5.44-2.51,6.65-8.75,8.12-.08,5.41-.16,10.77-.24,16.29l-14,6.18c-1-3.57-4-7.09-2.21-9.28,3.83-4.74,3.65-8.57-2-12.71l-8.3,2.57c1.85,4.63,3.52,8.78,5.57,13.95l-18-2.08c-.07,4.93-.15,9.78-.22,14.95l8-1.71c-1-2.77-1.75-5.07-3.06-8.77,6.12.53,12.19,0,15.31,1.54,6.88,3.34,5.88,10.62-2.06,12.59-6.85,1.7-8.2,4.11-7.6,8.58-4.53-1-8.76-1.23-11-2.57-2.55-1.55-3.31-4.08-5.4-6.92-1.14,3.12-2,5.5-2.89,7.88l-2.5.58-23.72-19.38-2.76.73c.85,2.79,2.42,5.57,2.35,8.34A14.66,14.66,0,0,1,1853,500c-.49.64-6.51-.22-10.62-.43.52,1.21,1.12,2.59,1.72,4,1.49,3.41-2.74,4.51-6.57,3.78-9.2-1.75-17.47-.89-25.86,1.15-7.23,1.74-11.16.1-12.07-4.35a18.75,18.75,0,0,0-.63-2.27c-5.23-1.26-9.3-2.21-12.09-2.87-5.95,1.37-11.41,2.63-16.85,3.9l-2.25-.95c4.37-4.7,8.71-9.4,12.86-13.89-.42-2-.92-4.4-1.61-7.69l-15.22,1.53c-.22-2.07-.41-3.71-.69-6.41-8,4.44-6.09-1.42-11-3.13,1.13,3.05,1.48,5.19,2.73,7.16,3,4.67-.72,7.15-7.53,8.95-4.62,1.22-9,2.71-13,3.93l-13.82-6.94c-5.19,2.55-9.48,4.69-13.79,6.81l-1.48-1c-.17,1.57-.35,3.13-.44,3.84-8.32.44-15.81,1.4-23.13,1-5.25-.25-12.83.75-14.62-4.51-.85-2.56-3.72-3.42-6.76-.65h.06l-12.67-1.62,10.59-11.89-16.82-1.87c-.12-.31-.73-1.76-1-2.33-5.55,2-11.16,3.85-16.59,5.9-1.44.55-3.53,1.71-3.29,2.34,3.71,9.2-4.43,18.16.07,27.58,2.61,5.44,3.52,11.4-1.49,17.37-3.91,4.67-4.61,10.52-5,15.91-.95,12.61-.42,25.28-1.32,37.89-1,14.56-1.45,29,9,42.84,1.44,1.91,1.65,4.12,2.5,6.39-12.89-1-26.25,1.32-34.49-7.06-3.68,4.32-7.75,6.54-14.83,3.05-.86-.43-3.22.23-4.91.32-3,.13-6,.32-9,.28-3.4,0-6.81-.27-11-.46-.62-5.09,40.49,3,39.74-3.19-.44,0-14.4,3-14.83,3.05-.94,4-30.2-9.08-31.15-5l-3.37-.24c-.55-1.88,20.5-1,19.95-2.91,0,0,10.78-36.42,8.16-104.83,0-.32-17.55-24.71-17.85-31.8l-15.67,1.78c0-3.15.08-5.19.11-7.25l-2-.29c-2.18,3.6-4.38,7.19-6,9.85,2.39,3.54,4.71,6.38,6.14,9.35.54,1.13-.34,3-1.75,3.75-1,.56-4.66.33-6-.31-1.55-.79-3.18-2.79-2.49-3.6,5.49-6.5-1.93-9-10.06-11.42-1.69-1.68-3.38-3.37-5-5-2.18.08-4.39.25-6.6.18-3.41-.11-14.06-6.24-12.75-7.55,2.8-2.76,3.63-7.49,12.87-5.51,3.85.82,7.92,1.24,12.22,1.9,0-1.48.05-3.2.07-4.34-3.66-.84-8.76-1.58-8.7-2.08.26-2.33,1.93-4.59,3.14-6.94l10.15,1.84c7.75-8.39,5.94-11.28-9.56-11.92,2.25-1.83,3.5-4,5.31-4.11,7.78-.67,5.49-3.24,4.63-5.59C1509.52,432,1508,436,1504.93,439c-3.89,3.71-7.61,3.66-11.47.14-1.6-1.48-4.53-2.49-7-3.8-4.63,4.19-17.49,6.38-19.29,3.83-1.64-2.3.89-5.58,1.86-9.6l-12.16-2C1450.43,425.54,1444.18,423.22,1437.44,421.69Zm503.67-32.33c-3.59-3-6.52-6.2-10-9.56l-4.86,6c2.67,5.19,6.32,12.33,10,19.48,9.72-1.16,14.35-4,14.45-9.41,3.44.08,6.89.12,10.32.27,7.78.36,8.89-2.13,7.35-6.82L1951,395.89C1947.61,393.71,1944,391.7,1941.11,389.36Zm-83.9-352.2c7.94-4.7,14.31-5.74,18.73,2.13.32.57,8.1-.2,12.6-1,8.91,1.19,4.28,5.2,4,6.94,7.21,2.44,12.71,4.87,18.88,6.16,3.74.79,8.54-.21,12.86-.4.15-.54.29-1.08.44-1.61l-16.8-2.86c-.26-2.65-.6-6.05-1-9.85l-6.59,1.52c-.61-.92-1.6-1.65-1.35-2.18,3-6.5-6.1-7.87-12.78-10.26a13.77,13.77,0,0,1-2.41-.64c-2.49-2-5.07-5.76-7.19-5.68-9,.34-17.9,1.8-25.69,2.71L1854.53,37c-1.34.3-2.92,1-4,.84-5.65-1.08-11.17-2.4-17.44-3.79,2.06,6.32,3.79,11.57,5.51,16.83l2.53.31c3.06-5.23,19.75-5.5,13.37-14.18C1855.42,37.09,1856.79,37.4,1857.2,37.16Zm-9,150.38c-2.9,2.26-6.07,4.12-7.91,6.35a47.65,47.65,0,0,0-6.09,10c-.34.72,1.56,2.61,2.51,2.64,7.07.21,14.19.23,21.26,0a86,86,0,0,0,12.5-1.36,15.12,15.12,0,0,0,6.18-2.55,89.85,89.85,0,0,0,7.37-7.07l8.88,1.6,3.89-4.34-13.06-4.32c-.63,1.55-1.11,2.67-1.56,3.79-.58,0-1.18,0-1.77,0-.59-3.53-1.17-7.07-1.82-11l-11.47-1.69c-1.53,4.56-3,9-4.57,13.61C1856.63,190.83,1851.63,188.86,1848.22,187.54Zm-417.15,11.2c-.07-5.12,3.69-8.21,11.79-9.69,9.07-1.65,8.82-6,8.52-10.27,0-.76-1.27-1.77-2.46-2.19-3.89-1.35-8-2.48-12.47-3.82-.46,2.13-1.05,4.87-1.7,7.92l-7.31-1.14c-4.52,4.53-8.84,8.83-13.1,13.15-.44.46-1.06,1.08-.84,1.49,1.77,3.16,3.08,6.66-3,8.19-3.94,1-9.23.19-13.9.23-2.11,0-4.22.1-8.7.22,3,3.76,4.23,8.81,8.56,10,5.34,1.46,13.79,1.62,19.16-2.76,1.51-1.24,7.78-.48,13.47-.7C1429.62,206.63,1431.13,202.68,1431.08,198.73Zm431.49,185.84c-2.35.45-2.67,5-3,7.76-.18,1.45,1.56,3,3.17,5.76L1854,394c4.58,11.36,8.87,22,13.16,32.64l2.41,0c2.83-8-11.54-20.72,16.47-21.59,4.5-5.6-7.77-12.37,2.59-18.17L1870.54,393c-1.56-9.63,2.4-20.43-17-25.5L1843,384.21l2,.37,20.38-7.93C1866.83,380.39,1871,382.94,1862.57,384.57Zm-457.8-237c-2.51-2.75-4.77-5.2-8.17-8.89-.31,3.3-.52,5.41-.72,7.51L1384.44,148c2,2.74,3.67,5.15,5.38,7.57,14.38-2.43,17.3-1,17.66,8.34,15.68,3.81,17.1,3.47,23.55-5.49l7.23.11c-7.89-9.86-7.89-9.86-1.51-17.35C1431.74,139.87,1408.54,144.37,1404.76,147.61Zm4.88-202.76c-2.9,2.78-11.36,3.59-18.72,5.65-.15,4.66,17.62,7.53,7.67,13.56,6-3,12.53-6.21,19.83-9.81l12.78,7.14,12.94-7.58,3.52.68c-1.25-3.34-.58-8-4.12-9.76-9.1-4.61-9.3,4.8-17.5,4.39-8.09-4.4,1.24-14.41-14-16.41C1411.51-63.38,1413-58.39,1409.65-55.14ZM1484.53-110l4.73-4.43,8.28,1.51c14.59-9.06-3.91-10.73-11.4-16.22-.7,4.37-1.24,7.83-1.8,11.29l-25-7.18c-9.62,7.41,3,10.78,9.33,15.27.42-.47.85-1,1.28-1.42C1474.4-110.79,1478.87-110.42,1484.53-110Zm-6,448.76,2.36,0-15,6.48c12.73.56,23.09,1.06,33.46,1.38a6.2,6.2,0,0,0,3.56-1.59c3.58-3.35,7-6.79,11.45-11.24-7.94,2.45-13.15,4.42-18.85,5.68-3.11.7-10.56-6.46-7.77-8.17,9.61-5.88.81-6.76-9-9.1C1478.67,328.31,1478.59,333.54,1478.51,338.78ZM1450.12-150c-8.82,6-16.22,7.32-25.29,5.23,3.13,5.32,6.51,11,10.21,17.3.49-2.08.26-4.2,1.61-5.84a13,13,0,0,1,6.52-3.65c7.78-1.83,15.8-3.38,23.93-4.57.9-.13,3.23,2.82,4.88,4.35s3.14,2.9,4.73,4.37l7.9-4.15Zm131.54,346.11c.84.23,4-1.1,4.3-1.94s-1.58-2.91-2.4-2.9c-11.57.17-4.39-2.89-2.42-4.68,1.09-1,3.41-1.53,5.56-2.43l-3.56-2.41c-6,.44-10.19.71-14.32,1.07-3.95.35-7.87.79-13.45,1.36l-6.18-4.31c0,3.18,0,4.82-.13,6.46-.11,1.42.41,3.63-.9,4.13-12.62,4.81-1.11,8.59.18,12.77l3,.21c.42-1.26,1.81-2.74,1.11-3.71-4.33-5.93-4-6.51,6.37-9,2-.47,3.82-1.1,5.73-1.66,0,.54,0,1.07,0,1.6C1570.26,192.55,1575.82,194.5,1581.66,196.11ZM1628.37,2c1.12,3.07,5.15,5.87,8.34,8.62s7.59,3.41,9.64-.16,2.87-7.76,3.43-11.71c.12-.84-3.1-1.91-4.91-2.8-5.63-2.79-11.3-5.52-18.22-8.88C1622-7.58,1626.67-2.68,1628.37,2Zm281.1,204.44c15.61-.56,22.88-6.11,19.72-13.89-.6-1.49-2.73-3.09-4.92-4-4.73-1.93-10-3.44-14.47-4.93C1909.71,190.6,1909.59,198.48,1909.47,206.45Zm-250.14,8.85c2.35,7.14-20.78,8.63-11.55,19.08,3.48-2.77,6.15-5.29,9.56-7.43a15,15,0,0,1,7.42-2.21c1.88,0,5.27,2.12,5.08,3.08-.22,1.19-3.39,2.18-5.35,3.23-.62.32-1.37.56-3.92,1.57l10.86,1.29C1680.88,224.55,1672.63,219.19,1659.32,215.3Zm-12.26-21.61a10.84,10.84,0,0,1-2.41-.31c-2.65-1.52-5.23-3.1-7.82-4.65-1.5,2.22-3.83,4.39-4.33,6.72-.77,3.56-.3,7.22-.35,11,9.06.79,13.82-1.85,16.52-5.39,2.57-3.34,12.12-6,3.66-11.26Zm186.87,216.44c9.79-2.5,14.59-.7,15.79,4.6,10.61-7.52,2.78-16.23-18.58-20.13C1832.07,399.79,1832.94,404.57,1833.93,410.12Zm-42.87-11.27a150.48,150.48,0,0,0,16.65,11.26c.4.23,5.62-1.27,5.51-1.79-.82-4.15-1.54-8.43-4-12.29-1.44-2.23-4.12-6.61-11.43-2.84-1.17.6-4.11,0-6.84,0C1790.87,395.16,1789.52,397.59,1791.07,398.86Zm-19.43-18.37c-1.67-.84-7.29,1.07-11.5,1.78l-1.66-2.11-3-.1c-.22,2.27-2,5.14-.28,6.65,2.07,1.81,7,3.13,11,3.43,4.9.37,10-.52,16.82-1C1779.48,386.25,1776.37,382.8,1771.63,380.48Zm85.58,53.24c-4.35-2.61-10.77-7.24-18.06-2.07L1850.49,448C1852.15,442.14,1867.44,439.9,1857.21,433.72ZM1673.36,307.53c17.73-9.26,17.73-9.26,1-17.38.51,2.24,2.6,5,1.12,6.6-1.79,2-6.59,3-10.64,4.68Zm160.8-147.16c1.29-.81,1.85-3.37,1.06-3.68-3.37-1.34-7.3-2.72-11.15-2.89-1.93-.08-5.47,2.23-6,3.73-1.18,3.69-1,7.53-1.51,12.77C1822.76,166.88,1828.71,163.76,1834.16,160.37ZM1442,65.25c3.21.65,6.07,2,9.3,2.48,1.85.25,4.14-.74,6.23-1.14a22.71,22.71,0,0,0-2.31-3.49,43.56,43.56,0,0,0-4.12-3.39l-4.63,1.82L1437.36,53C1429.08,58.35,1431.29,63.07,1442,65.25Zm347.6,219.26c-.14-1.47-.31-3.38-.53-5.84l-14.08,3.79q3.33,5.17,6.82,10.56c6.16-2.38,10.27-7.25,20.81-3.66C1801.88,283.49,1793.75,286.46,1789.55,284.51Zm34.52-360.06c9.37-1.26,14.22-6.21,13.27-13.18L1826-89.86a49.45,49.45,0,0,1-1,7.1c-.06.2-3.15.1-6,.17C1821-79.83,1822.52-77.69,1824.08-75.55Zm-348.9,240.31L1486,150.94c-10.71-2.62-13.9,2.91-20,4.63Zm-33.8,112.91L1457.3,281c-1.59-3.66-3.18-7.34-4.77-11l-5.46-.19C1445.18,272.45,1443.28,275.07,1441.38,277.67Zm226.9-431.17-13.68-1.32c6.32,4.36,11.29,7.81,16.26,11.25l2.92-.27q-.76-7.5-1.49-15l-3.93.12C1668.34-157,1668.31-155.3,1668.28-153.5ZM1516.37,72.19c1.28-2.68,1.64-6.09-.21-8.57-1.59-2.15-7-2.33-8.57.67-1.45,2.73-1.47,5.73-2.53,10.43C1510.42,73.59,1515.82,73.3,1516.37,72.19Zm453.35-94.49-7.52,1.48c.56,3.67-2,8.39,7.57,9.1,2.53.18,5.65-2.73,8.5-4.22l-3.33-.82ZM1810.13-92.44c6.31.23,7.09.21,5.3-4.44-9.84,6.19-17.61-4.52-27.81-1.15l8,7.41C1798.68-95.08,1805.36-92.62,1810.13-92.44ZM1667,208.4c2.78,1.28,9.46-.41,8.39,3.71-.11.44,4.47,1.63,7,1.88.83.08,3.25-1.83,3-2.66a9.6,9.6,0,0,0-3.62-5.2c-1.89-1.38-5.1-2.16-8.66-3.56ZM1904.17,65.7c2.71-1.68,7-3.16,7.59-5.08.42-1.27-3.93-3.73-7-4.52-1.46-.38-4.9,1.84-8.88,3.48Zm-546.24-3.91-3.11-.92c-3.39,2.17-9.1,4.21-9.43,6.56-.25,1.74,6.46,3.89,12.35,7.1C1357.82,69.2,1357.87,65.49,1357.93,61.79Zm131.67,79.16c-1.41,7.73,5.2,14.55,17.54,17Zm173.48-263c.88-1.6,1.59-2.93,2.3-4.22-4.74-2.22-8.89-4.66-13.84-6.23-1.74-.55-5.43,1.08-10.07,2.12ZM1629.59-191c-2.43-1.9-4.78-3.92-7.45-5.79a20.11,20.11,0,0,0-4.1-1.56c-.71.77-2.25,2.14-2,2.25,8.1,3.91,1.69,8.28,2.45,12.81ZM1380,438.86c.24-.71.49-1.42.73-2.14-3.27-.9-7-2.83-9.75-2.48-5.75.74-11,2.7-16.46,4.16l2,1.6Zm343,30.22c-2.15,3.31,4.61,4.42,8.65,5.6,2.51.73,7.47-.1,10-1.24,1.28-.57-.4-3.35-.53-4.1ZM1421-107.47c-1.84,3.67,7.63,7.35-2.92,9.83,1,.8,1.74,2.08,3,2.32,4.12.75,8.43,1.12,13.82,1.79Zm-106-8.61-15.88,9.59c6.33,3.84,7.86,1.7,10.22-.8,1.84-1.92,5.26-3.32,8.79-5.43ZM1768,13.19l2.8.69c2.37-2.07,6.69-4.16,6.56-6.2s-4.82-3.93-7.5-5.88l-1.71,1.1Q1768.06,8,1768,13.19Zm-429-145-14.12,1.3c-.16.76-.33,1.53-.5,2.29l14.5,4.24C1338.92-127.49,1338.95-129.66,1339-131.82Zm542.44-6.92,7.08,3.38c2-2.14,4-4.27,6-6.4l-5-2.17Zm-93.95,491.81c12.71-1.22,13.16-2.48,3.22-10.73C1789.37,346.77,1788.48,349.73,1787.47,353.06Zm-139.36-517.5c-.58-.71-4.27-.6-6.53-.86a15.85,15.85,0,0,0,2,3.5c2.3,2.5,4.88,4.9,7.34,7.35l3.1-.46C1652.12-158.1,1650.57-161.39,1648.11-164.43Zm150.76,86.18c-1.18.61-2.36,1.23-3.55,1.84l6.68,10,10.69-7.24c-1-.84-1.95-1.68-2.92-2.52l-8.39,1.89Zm-215.78,99c1.34,1.91,2.82,4,4.34,6.12,5.37-1,12.22-.62,10.08-5.07ZM1952.64,6.07l-1.47-.31L1937,12.45l8.09,4.16ZM1816.81-137c-.07.87,2.07,1.83,3.21,2.76,1.44-.65,4.13-1.31,4.11-2-.08-2.69-1-5.38-1.59-8.07-1.17.14-2.34.27-3.5.42C1818.24-141.59,1817.05-139.34,1816.81-137ZM1785,188.56l16.65-4-17.27-3.31C1784.55,183.72,1784.71,185.68,1785,188.56Zm147.64-244c-2.71,1.93-6,3.34-5.55,4.12,1.18,2.22,3.86,4.18,6,6.26l4.51-1.23C1936.11-48.89,1934.74-51.48,1932.61-55.46ZM1503.5,43.94c-.51-.22-1-.43-1.54-.63L1496,47l-4.61-1.63c-.67.58-1.36,1-1.25,1.12,2.61,1.9,5.32,3.76,8,5.62l3.42-1C1502.22,48.7,1502.87,46.32,1503.5,43.94Zm332.6,135.77,8.6-9.3C1830.74,173,1830.74,173,1836.09,179.71Zm-463.36-32.44-3.85-5.19c-2.21,4.72-4.83,10.31-7.43,15.89l1,.32C1365.79,154.73,1369.09,151.2,1372.73,147.27Zm582.65-170.5c-6.53-1.92-11-3.24-15.47-4.57,0,1.94-.06,3.86-.1,6.17Zm-510.74,34-10.54,1.89c.61,2.68,1.23,5.46,1.86,8.24l2.29-.35ZM1313,66.75q7.2-3,14.4-6l-1.62-1C1321.15,61.76,1310.51,58.87,1313,66.75Zm108.81-26.27-3.46-1.2c-7.45,1.53-5.52,6.17-8.73,9.11l2.82.95Zm456.82-174.41c-1.64-1.39-3.43-2.9-6-5l-7,9.46,2,1.16Zm127.88,324.76c.42,2.83.65,4.6,1,6.38s.78,3.56,1.29,5.89C2016.22,199,2016.08,198.22,2006.52,190.83ZM1556.39-188.11l5.13,1.79,5.83-6.37-3.87-1.12Zm-240.3,371c4.76-7-8.62-6.91-12.88-10C1307.45,176.12,1311.66,179.4,1316.09,182.87Zm484.58,78.88,12.69-.37c0-3.84,0-3.84-10.46-4.81C1802.2,258.19,1801.5,259.86,1800.67,261.75Z"/><path class="cls-4" d="M1513,482.48c-1.69-1.68-3.38-3.37-5-5-8.44,2-5,5.81-3.57,9.15.22.53,4.36,1.14,4.56,1A38,38,0,0,0,1513,482.48Z"/><path class="cls-4" d="M1227.73,224.12c6-2.92,8.95-5.62,1.05-9C1221.33,217.7,1224.5,220.71,1227.73,224.12Z"/><path class="cls-4" d="M1436.74,141.22c-5-1.35-28.2,3.15-32,6.39-2.51-2.75-4.77-5.2-8.17-8.89-.31,3.3-.52,5.41-.72,7.51L1384.44,148c2,2.74,3.67,5.15,5.38,7.57,14.38-2.43,17.3-1,17.66,8.34,15.68,3.81,17.1,3.47,23.55-5.49l7.23.11C1430.36,148.71,1430.36,148.71,1436.74,141.22Z"/><path class="cls-4" d="M1456.85,427.57c-6.42-2-12.67-4.35-19.41-5.88-1.54-.34-6.89,2-6.86,3.07,0,2.1,2.14,5.66,4.38,6,4.29.59,9.35-.54,13.93-1.22a77.32,77.32,0,0,0,8.18-2.06A2,2,0,0,1,1456.85,427.57Z"/><path class="cls-4" d="M1466,155.57l9.19,9.2L1486,150.94C1475.25,148.32,1472.06,153.85,1466,155.57Z"/><path class="cls-4" d="M1507.13,158l-17.54-17C1488.19,148.68,1494.8,155.5,1507.13,158Z"/><path class="cls-4" d="M1501.59,51.08c.63-2.39,1.27-4.76,1.91-7.14-.51-.22-1-.43-1.54-.63L1496,47l-4.61-1.63c-.67.58-1.36,1-1.25,1.12,2.61,1.9,5.32,3.76,8,5.62Z"/><path class="cls-4" d="M1362.49,158.29c3.3-3.56,6.6-7.09,10.25-11l-3.85-5.19c-2.21,4.72-4.83,10.31-7.43,15.89Z"/><path class="cls-4" d="M1438.26,20.53l6.39-9.77-10.54,1.89c.61,2.68,1.23,5.46,1.86,8.24Z"/><path class="cls-4" d="M1303.21,172.84c4.23,3.28,8.45,6.56,12.88,10C1320.85,175.88,1307.47,176,1303.21,172.84Z"/></g><path class="cls-4" d="M418,522.12c-18,8-36.46,33.57-52.78,68.31,7.38-38.62,21.46-79.44,32.47-109.94,9.26-25.66-42.21,66.57-49.79,100.33-1.75,7.76-7.55,14.6-14.71,27.83-2.85-22.27-.34-41.42,8.65-72.54,6.49-22.47,13-45.26,13.28-62.51-4.18,7.79-9.4,15.18-12.36,23.45-9.89,27.67-19,55.65-29.79,87.76-4.51-42.09,20.41-73.85,21.95-113.33-13.63,22-17,56.7-35.5,78.43,5.78-29.48,24.2-96.24,25.29-102.33,2.4-13.5-1.16,13.76,0,0-14.79,26.63,0,0-24.39,44.08C285.19,519,287.18,553.89,280.69,587c1.71-9.12.39-119.48,3.43-150.6-17.21,55.49-.67,102.36-16.91,136.56-.2-9.24-5.07-50.63-5.17-49.87-1.31,10.33,1.06,40.87-4,46.93.12-6.17-3.66-19-8.23-24.08,0,0,.27,24.12,3.52,38.4l-8.72,6.91c-6.7-18.4-11.21-38-28.89-57.62L225.9,570.9c-15.85-6.18-48.4-28.36-56.59-30,0,2.12-3-3.41,0,0,24.11,27.83,48.38,32,60.25,58.4,57.08,11.2,67.56,36.35,123.19,47,1.2.23,48-16.41,49.51-17.6,1.11,1.86,1.85,4.7,3.11,5,32.5,6.6,65,12.94,98.69,19.54,14.67-7.16,20.57-25,32.49-37.12-1.1-1.6-38.38,26.55-43.71,30.54-6.67-11.6,7.5-17.87,8.63-29.09l-12.72,4.09c13.29-30.18,31.36-53.28,52.62-76.06-4.32,1.31-41.71,34.66-55.11,51-6.44,7.85-10.56,18-16.44,28.36-6-19.37,11.63-31.28,11-50.69l-25.55,35.32c-2.15-19.9,7.91-33.71,16.64-47.87,13.81-22.38,52.27-63,53.64-66.64,0,0-36.56,29.83-40.56,33.58-4.8,4.49-28.05,31-32.33,40.94,0-7.91,6.7-42.69,6.87-52-5.49,15.39-14.8,48.25-19,57.2A73.66,73.66,0,0,1,425,596.32c7-46.36,30.23-84.53,53.3-123.07C442,513,412.82,558,389.21,607.7,393,578,395.12,548.12,418,522.12Z"/><path class="cls-4" d="M154.86,401.08c-13.43,42.59-27.45,83-34.69,124.9,1.17-35.81-9.18-69.43-26.36-102.09,0,11.18.46,22.52,4.77,32.91,4.61,11.14,13,46.3,7.42,59.11-5.06-7.77-13.35-39.22-17.78-46-.93,10.38.83,20.42,3.31,30.37,4.16,16.69,4.83,23.54,2,30.56-11.38-39.27-35.28-66.69-64.68-70.13,36.71,23.34,48.7,54.45,60.79,85.71-11-7.74-38.55-28.41-44.27-30.19,3.32,10.18,15.27,15.6,11.7,25.17-8.47-3.55-15.46-7-23-9.48-6.89-2.25-14.36-3.42-21.58-5.07C36.76,542.94,63.2,556,66.31,582.73H231.62c-4.48-37.63,12.35-71.81,24.82-106.84-21.7,19.12-33.2,41.87-42.69,65.6-7.77-58.88,1.15-76.37,21.49-131.63-39,48.86-37.12,66.48-47.87,122-4.49-24-.72-48.22-5.79-72.12-4.75,12.76-14.34,64.07-24.09,76,0-25.31-3.1-50.71-3.1-76h0l-11.3,51.46C132.79,490.11,163.58,419.17,154.86,401.08Z"/><path class="cls-2" d="M34.39,550.67c16.81-.09,33.47-3,50.31-2.07,24.35,1.31,44.43,14.48,67.68,18.9,21.79,4.13,44.07,4.39,66.26,6.38,38.81,3.48,62,24.59,97.7,33.79,18.86,4.86,20.47,1.11,38.28,8,12.87,5,35.33-4.31,50.52-4.37,16.94-.06,34,.41,51.08,2.54a223.26,223.26,0,0,1,34.89,7.07c4.28,1.25.37,7.23,4.63,8.81,2.47.92,17.29,2.45,19.75,3.49,4.2,1.77,2,4.92,6,6.59,2.14.89,6.9-.86,9,0,1.45.59,5-1.69,6.48-1.12,2.69,1.07,1.68,1,4.38,2,1.6.59,4.2,1.17,5.81,1.73,2.08.73,3.16,1.43,5.27,2.1s5.45,3.38,7.72,4c3,.86,5.14-.33,8.32.41,3.47.81,8,1.54,11.74,2.19q4.25.74,8.75,1.33,4.78.62,9.61,1.09c2.79.27,5.59-.5,8.4-.29,3,.21,6,2.39,9,2.54,1.89.09,2.78-.83,4.68-.75,3.79.14,8.59.23,12.39.3q5.26.09,10.51.09c4.86,0,9.7,1,14.52.92,9-.1,18-2.56,27-3.17q5.51-.37,11-.81c4.84-.38,9.68.23,14.53-.15,5.95-.47,11.9.09,17.85-.27,7.37-.45,14.74-1.76,22.1-1.84,3.66,0,7.33-1,11-.91s7.4,2.28,11.09,2.54c2,.14,4-1.71,6-1.55q8.44.67,17,1.5,4.45.43,8.91.91c1.52.16,3,1.33,4.55,1.5q5.12.57,10.22,1.19c1.29.16,2.58,1.32,3.86,1.48,3.66.46,7.31-1.06,11-.56s7.27,2,10.87,2.55l3.56.53a101.53,101.53,0,0,0,16.51,0l5-.36c1.95-.14,3.95-1.29,6-1.44,3-.22,6,.55,9,.33,2.41-.18,4.78-1.35,7-1.52,3.55-.26,6.83.51,9.6.33,4.7-.31,7.91-.47,8.44-.38,3,.5,4,4.23,5.95,2,5-5.87,6.3.39,9.83,1,3,.56,7.36,1.23,10.34,1.81,4,.78,13.93-2.65,17.91-1.81,6.46,1.36,7.31,19.48,14.24,20.64H0c.14-38.65-.92-72.43,1.05-111,.09-1.81-2.7-5.63-1.63-7.07,5.79-7.73,33.09-2.22,35-11.29"/><path class="cls-4" d="M1678.58,680.75s5.7-1.47,6.3-2.92c1.12-3.38.78-5.66-3.15-5.23l-.16-.15-.05.12-.86-1-5-.34c-.18-2.28-1.21-3.11-3.66-1.53l-2.89,1.09c-.26-.18-.52-.35-.79-.51,0-3.78,2.61-6,5.75-7.94.8-1,1.93-1.93,2.34-3,.83-2.13,4-4.35,2.15-6.38-2.12-2.27-4,1.6-6.09,2.21-1.25-4.48-4.18-7.74-6.75-11.27h0a7.25,7.25,0,0,1-.55-1c5.66-3.52,9-7.69,6.28-13.48-.32-1.46-1-2.87-.89-4.41.37-7.24-2.79-6.92-8.08-2.4-1.64-2-4.45,0-6.54-.44-.5-3-3-4-5.3-5.2h0c.86-1.86,3.47-2.24,3.93-4.43-.17-6-2.52-7.62-7.84-5.52-1.94.76-3.66.53-4.9-.8,3.11-3.12,1.06-5-.12-7.09h0c3.84-2.4,1.21-6,3.41-8.86.71-.93-1-1.95-2.14-1.16-4.44,3.15-6.15.79-8.13-1.83-1-1.33-2-4.16-4.3-2.65-2.61,1.72-3.14,4.91-2.85,7.71,1.58,3.05,3.34,5.88,1.18,10.38-1.06,2.2,1,2.91,3,3l.29.33.33.3-7.27,7.45-5.6-4.87c-7-1.6-3-8.71-4.14-13.23l-.56-.26,0-.07h0l.51.33,1.52-3.14c5.48-8,5.27-9.64-1.28-9.78-1.44,0-2,1-2.44,2.25l-2.72,1.2c-1.67-4.14-4.24-4.67-8-.2-2.36,2.81-4.78,5.48-8.39,6.3-3.39-2.69-3.38-9.94-11-7-.81-3-1.32-6.14-5.91-1.59-2,2-4.52,2.4-5.23-.76,5.72-10,5.37-11-4.41-12.37-3.22-.25,1.67-6-2.89-5.37l-4.79-.71-.57-3.86c-.49-1.6-1-3.18-1.47-4.8-1.63-5.93-3.17-5.92-8.91.08h0l-10.41,5.17-.74-.79c.92-1.24,2.23-2.65,1.23-3.84-1.16-1.36-3.06.13-4.64.41,1-2.55.6-4.52-1.62-5.38-1.82-.71-2.8,1.14-3.88,2.43-2.66.34-5.77-1-7.39,3.36-4.75,2.26-5.16,6.9-7.28,10.61l-3.85.12-5.13-6.86c-1.72-2.52,1.87-4.66,2-7.05l1.95-4.6,1.39-.58c9.8.13,9.8.13,11.76-8.21l1.18-2.33-2.22,1.28c-2.26,3-4.73,5.46-8.44,4.94,0-1.31.09-2.62.13-3.93,5.18-4.69-2.58-6.12-.3-10.08h0a10.16,10.16,0,0,0,.12-1.25c1.16-2.78,4.09-3.68,6.06-5.68-.84-1.48-4.92.22-3.18-3.41,1.14-2.38,1.27-4.66-1.08-4.95s-2.58,2.67-3.8,4.17c-.48.6-.95,1.22-1.41,1.83-6.8,2.86-7.4,4.25-4,9.32h0c-2.14,4.71,1,6.77,3,9.41a8.58,8.58,0,0,1-5.18,5.76,4.57,4.57,0,0,0,0-.66c-.46-2.23-.48-5.69-3.2-5.16-3.76.72-3,4.35-3.45,6.93l-10.37-.18-.86-.93c-2.14-1.59,1.61-7.49-2.72-6.59a12.59,12.59,0,0,0-9.38,9.64l-2.94-.31c-3.81-.58-6.88-3.86-11.73-.58l-2.28,2c-2.1-.72-4.12-1.28-3.81,2.57,1.65,2.86,1.29,7.31,5.53,8.13-1.9,3.72-9.31,4.79-6.73,10.65-2.56,3.32-4.32,7.52-9.15,3.86-2-1.53-7.67,3.94-9.94-.61l-3.15-7.21.36-4.36h0c3.43-3.66,5.47-6.9,1.14-10-1.66-1.2-2.45-3.88-1.62-6.65,2.19-7.41-2.07-2.59-4.35-1.54-2.08-1.91-3-7.61-7.76-.61a1.41,1.41,0,0,1-2.35.34c-1.25-1.22-2.69-2.7-4.27.29-1.09,2.07-2.49,4.87,1.35,5,1.13,0,.93,1.19.52,2.18-.25.8,0,1.16.81,1.15l7.16-3.69,1,.79-2,4h0c-2.5,2.27-5.44,4.67-4.62,7.92.63,2.52,3.07,1.48,5.15.12l4-.87c.94-.36,1.81-1.69,2.85-.84a7.92,7.92,0,0,0-.83.94c-.73,1.38.18,1.83.93,2.38-5.49,5.26-10.52,6.67-14.61,1.42-1.95-2.5-4.21-3.12-7.42-.17l-1.78.33c-1.69-2.7-2.2-7.67-7.91-2.2-1.07,1-2.46-.18-3.56-.73-1.29-1.91-2.75-3.87-4.13.74-.53,1.76-.14,3.59-.17,5.39-2.07,1.4-3.23,2.93-2.83,5.36.27,1.69-1.68,3.08-2.66,2.35-5.2-3.86-5.3,2.26-7.3,4.62-.25.43-.51.85-.79,1.27-2.35,2.35-4.83.08-7.2,1.79l0,0v0h0l0-.09,0,.07c-5.45-2.32-7.68,4.12-11.47,6.31-5.66,7.74-1.68,12.9.88,18.43a3.52,3.52,0,0,1,2.56,2.69c0,2.41-2.08,2.25-3.4,3-5-1.55-12.69.8-13.45-7.18a19.32,19.32,0,0,0-2.6.47c-1.47-1.59,1.66-5.47-.85-5.8-3.19-.42-6.07,2.48-8.56,5.1l-3.74-.38c-1.72-3.09-7.29-2.5-6.16-8.84-4.14,4.34-6.11,7.9-7,11.9-.2,4.11-4.86.71-5.55,4l-2,.29c.06-.79.12-1.57.18-2.36h0l0,0a33.39,33.39,0,0,0-4.48,2.25c-1.64,1.14-4.3-1.59-5,2.06-.44,2.54,2.16,2.6,3.87,3.21-.12,3.06.83,4.63,4.38,2.63,1.32.71,2.77,1.33,1.87,3.54-3,1.45-1.77,3.31-1.6,5.08l-1.43,1.38h0c-1.91-2-4-3.7-7.56-1.58a61.46,61.46,0,0,1-6.89,1.07c-1.34.06-2.67-.55-1.72-2.56.63-1.32,4.36-.79,2.73-3.1s-4.2.71-6.36,1.31c-1.09-6-5.81-8.88-12.06-7.33a3.45,3.45,0,0,0-2.58,2.4c-.71,2,.36,2.88,1.9,3.37-.35,2.47-3,2.89-4.25,4.51l-1.92.08-6.61-7.9h0c-1.61-.48-4.12,2.19-5.05.17-3.4-7.38-8-4.39-13.07,1.15-3.6,2.93-7.44,5.71-5.31,10.55.73,1.65-.2,3.14-2.34,3.55-3.39.64-3.1,2.47-2.37,4.48-.06,1.75-2,4.62,1.77,4.09,2.87,2.92,6.36,4.11,11.23,3.56,3.27-.37,7.15-.87,9.61,1.6-.1,1.29-.22,2.59-.32,3.88l-1.13,1.18c-10.21,1.45-10.21,1.45-11.35,11.38-5.43,2.09-9.56,8.54-7.67,12"/><path class="cls-4" d="M1244.21,680c-64.05-41.8-223.13-37.08-334.24-23.64-24.21,2.93,65.89-1.32,31.84,23.64Z"/><path class="cls-5" d="M1170.74,548c1.56-7.16,1.45-19.78.73-27a108.17,108.17,0,0,0-5.74-25.19c-4.86-14.38-6.89-26.2-22.38-32.4-1.63-.65-8.86-.83-9.55-1.54-2.29-2.36,1.81-7.3,2.22-9.53a22.33,22.33,0,0,0-6.09-19,9.55,9.55,0,0,1-2.7-.54h-.46c-8.45-1.52-16.63,3.41-18,12.49a22.12,22.12,0,0,0,1.38,11.11c1.54,3.21,5.67,7,1.86,10.2-1,.85-4.14.8-5.56,1.48a18.38,18.38,0,0,0-5,3.73,42,42,0,0,0-5.75,9.47c-1.43,3-3.78,7.33-4.87,10.75-.6,1.88-.26,4-.92,5.68s-1.84,2.34-2.44,4.4c-1,3.41-.84,7-3.13,9.93-2.8,3.6-4.62,3.85-5.64,8.63a55.7,55.7,0,0,0-.95,12.08s0,.07,0,.11c-2.71-4.94-5.63-9.84-7.29-15-1.79-5.56-3.62-9.88-4.27-16-.29-2.77-.31-5-1.38-7.5s-1.75-7.31-3.48-7.31c-7.17-.46-6.25-3.81-6.71-7-.67-4.72-.06-8.87-1.38-13.41-1.13-3.9-1.7-10.53-4.27-13.71s-7.3-3.8-11-4.83c-4.21.77-6.87.83-9.82,4.16-2.58,2.92-4,7-5.35,10.64-2.3,6.37-6.85,14.25-5.74,20.74-6.16,1.21-6.73,11.13-8.72,16.29-2.57,6.63-3.81,12.94-5.21,19.78-1.34,6.56-.57,14.42-1.61,21.39a38.59,38.59,0,0,0-.11,10.18c.4,4-.69,6.73-.85,10.56a8.44,8.44,0,0,0,1.56.34c-.51.75-1.33,1-1.53,1.87-.37,1.58.37,1.82.47,3.37.16,2.43-1,5.45.45,7.32.21-.12.33-.51.56-.6a11.44,11.44,0,0,0,.41,2.41,12.26,12.26,0,0,0,1.42-.66c0,.54.2,1.23.13,1.77.48-.34,1.47-.4,2.07-1,.37,3.65,2.46.5,2.66-1.51.18-1.81-2.29-5.21.66-5.44a13.24,13.24,0,0,0,.47,4.29c1.73-1.05,2-3.9,1.42-6.19-.28-1.13-1.2-1.72-1.48-2.63a12.85,12.85,0,0,1-.23-3l1.53-.16c.56-6.64-.92-16.91-.47-18.16,1,2.64-1.12,9,2.25,10.28.19,3.79-.12,7.66.07,11.48.22,4.32,1.87,7.48,2.67,11.57,1.52,7.7,2.89,15.29,5.19,22.21,2.24,6.75,1.33,16,.57,23.6-.67,6.78.74,17,2.31,23.7.77,3.29,4,7.9,2.6,11.48-.43,1.11-8.23,8.77-1.5,8.29-.28,0-.41.13-.39.38,4.24.29,7.77.52,10.76-2.2,2.33-2.12,4.63-5,2.26-7.87,1-.53,1.29-1.39,2.75-1.46.32-6.84-1.3-13.35-2.23-19.82-.53-3.68,0-7.38-.37-10.85-.36-3.28-1.49-6.55-2-9.53-1-6.82,0-13.84,0-20.82,0-8.18-.67-15.71.11-23.58,2.5,4.07,1.52,14.16,1.75,19.07a92.88,92.88,0,0,0,.85,9.5c.38,2.56,1.8,5.65,1.94,8,.34,5.86-.46,12.77-.47,18.87,0,3-.65,6.87,0,9.82.69,3.27,3.68,4.73,4.27,7.81.39.09.9-.1,1.24.13.2,3.49-.73,10.2,3.41,11.51,4.41,1.39,4.1-5.26,4.52-8.44.58-4.34-.58-8.84-.37-12.75.19-3.52,1.05-6.4.83-10.39a93.18,93.18,0,0,1,.46-13.78c.41-4.24-1.33-7.77-.84-11.59.25-1.95,2.22-3.46,2.24-6,0-2-.43-4.42-.45-6.48,0-4.32-.32-8.31-.13-12.62.35-7.73,1.84-14.66,1.1-22.48.77.15,2-.33,2.66-.24-.22-9.2-3-20.21,0-29.51,2.74,2.46,1.13,6.21,2.67,9s3.84,4.2,5.32,7.17c1.29,2.59,3.06,6.66,5.88,8.12a6.06,6.06,0,0,0,1.46.53c-.73,2.92-1.74,5.54-1,8.82.52,2.48,2.09,7.18,5,7.27,1.06-2.32,4.73-1,2.88-4.83,4.83-2.16,3.32-6.58,2.66-9.93.26.12.51.23.75.32,0-2.27-1.36-7.68.79-8.4-.06-5.13,3.94-5.24,6.25-9.1,1-1.62,1.9-5,2.61-7,1.88-5.26,3.41-9.81,7-14.09,0,3,.71,7-.08,9.91-.56,2.05-2.06,2-2.25,4.63-.14,2,.66,2.65,1,4.43.28,1.31,1.15,2.17.82,3.91-.29,1.54-1.87,1.38-2.32,2.73-1,3.11-.4,7-.84,10.13.82.08,1.28.58,2.16.61-1.12,7.84-3.17,14.2-3.17,22.71,0,4.19.13,8.11-.91,12s-3,8-1.86,12.4c.53,2,2.42,3.2,2.8,5.09.44,2.21-1.31,3.52-1.41,5.66-.2,4.3,2.69,8.07,4.72,11.44,2.4,4,4.58,7.06,5,11.69.21,2.35-.21,4.34.57,6.58.67,1.93,3.44,4.07,2.72,6.29-.42,1.29-4.73,3.17-6,4.16-2.55,1.93-3.81,2-3.18,5.93,6.67.32,14.24-1.84,20.2-4.18a9.86,9.86,0,0,0,3.84-2.52,46.43,46.43,0,0,1,.77-8.14c.17-.84.33-1.62.49-2.37-.57-2.68-1.37-5.5-1.78-8.26-.76-5.09-4.67-9.19-5.55-14.7a29.75,29.75,0,0,0-1.62-5.81c-1.21-3.51-2-1.07-.21-5.68,2.54-6.5,5.32-15.1,9.72-20.9,3.22,6.14,1.89,13.31,3.22,20,.7,3.52,1.21,6.52.46,10.09s-.27,5.06-.46,8.79-2.46,6.36-2.78,10.18a46.88,46.88,0,0,1-1,6.32c.86,4.06,1.16,7.8-1.26,10.51,0,3.73.69,7.22,3.12,7.28-.37,6.62,1.68,7.14,6,11.14,6.07,5.65,8.6,7.69,17.16,7.25,0-3.46-.36-5.27-2.24-7.79-2.55-3.41-7.34-4.91-5.84-10.12.86.2,2.25-.37,3-.24.13-8.09,2.91-15.49,3.31-23.43.46-9.11,1.33-17.59.9-26.63a38.72,38.72,0,0,1,1.5-12.46c1.43-5.31,1-9.61.84-15.07-.15-4.25.72-7.08,1.5-11.11,1-4.92-1.77-9.75-1-14.23,5.68-1.39,1.81-5.82,1.3-8.87-.64-3.8,1.92-6.09,1.9-9.73,0-5.5-5-12.56.81-17.54,4.14,8.73,5.16,16.77,5.64,26.44.17,3.29-1.18,10.46.47,12.4h0a20.45,20.45,0,0,0-3.73,6c-1,3.23,1.87,5.87-1.13,8.64,2.32,1.61,4,.78,6.39.6,1.44-.11,1.63.63,3.25,0,1.06-.41,1-1.57,2.25-1.9.76-2.47.32-4,.35-6.45,0-2.09,1.2-4.06,1.46-6.18A8.69,8.69,0,0,0,1170.74,548Z"/></svg>