<svg id="Layer_1" data-name="Layer 1" xmlns="http://www.w3.org/2000/svg" viewBox="0 0 1600 680"><defs><style>.cls-1,.cls-2,.cls-4,.cls-5,.cls-8{fill:none;stroke:#231f20;stroke-miterlimit:10;}.cls-1{stroke-width:3.38px;}.cls-2{stroke-width:3.23px;}.cls-10,.cls-3,.cls-6,.cls-9{fill:#231f20;}.cls-4{stroke-width:4.76px;}.cls-5{stroke-width:4.21px;}.cls-6,.cls-7,.cls-9{opacity:0.6;}.cls-8{stroke-width:1.1px;}.cls-10,.cls-9{fill-rule:evenodd;}</style></defs><title>Spotlight area_swifts and meadow</title><path class="cls-1" d="M212.27,553.14c19.4-39.47,34.63-83.34,28.87-109.35"/><path class="cls-2" d="M293,549.63c17.94-54,9.42-130.6-4.9-164.92"/><path class="cls-3" d="M239.07,447.35c-16.17-2.56-15.29-11.43-19.33-21.16,1.47,1.66,3.94,2.87,3.65-.42-.32-3.67-2.09-5.9-.8-9.73,1.16,2.42,2.39,1.78,2.45-.71.08-3.4-1.14-6.94-1.45-10.34.53.32,1,.74,1.57,1.08,1.37-1.33,1.23-3.44,2.46-4.9s2.73-3,4.08-4.41,8.35-7.84,9.6-6.19a4,4,0,0,0,1-1.79c.73.62,1.29,1.66,2.23,2,1.12.45,2.12-.12,3.26.56,1.72,1,2.24,3.33,4,4.34,1.21-1.29,3.15,4.33,3.95,5.14,1.72,1.73,2.7,3.11,2.84,5.75.07,1.31-.2,2.65.29,3.91.41,1.05,1.33,1.61,1.88,2.54,1.64,2.73.59,7.27.32,10.27,4-.44-2.3,8.69-2.86,9.6,5.78-.16-.92,6.16-2.66,7.33a6,6,0,0,1,1.49.09c-.56,5.43-14.16,7.24-18,7"/><path class="cls-3" d="M289.33,388.77c-3.35,1.53-11.73,1.47-15.59.17.42,0,1.44-.17,1.49-.74.07-.8-1.69-1.09-2.25-1.26-1.65-.49-3.24-.72-4.89-1.23,2.05-.27,2.19-2,.49-2.94s-3.46-1.22-5.1-2.4a15.23,15.23,0,0,1-5.65-7c2.21.25,1.28-1,.72-2.31a19.64,19.64,0,0,1-1.1-3.94c-.55-2.72-1.22-5.34-1-8.17.2-2.41.81-1.21,2.68-1.75s1.36-2.89,1.35-4.7c0-2.81-1-5.36-.82-8.09,1.89,3.79,4.46,1.46,4.77-1.59.28-2.77-.1-5.66.13-8.46,2.06-.51,3.73,2.13,5.61.78,1-.7.49-1.36,2-1.34a7.77,7.77,0,0,1,2.56.86c2.3.93,4.67.9,6.67,1.67.82.32,3.78,2.12,4.6,1.79s.54-1.73.52-2.57c.68,1.69,3.25,3.05,4.53,4.32.8.8.7,1.59,1.69.68.4-.37.45-1.63.56-2.16,2.6.86,3.35,5.83,5.9,6.69a3.85,3.85,0,0,0,.29-1.85c2.22,1.11,3.35,5.34,4.53,7.5a17.2,17.2,0,0,1,2.47,8,2.06,2.06,0,0,0,1-.7c1.8,4.18.77,13.21-2.35,16.54.57,0,1.19,0,1.75.09.34,1.39-2.92,4.4-3.84,5.59a21,21,0,0,1-5.47,5.09c-1.56,1-3.24,2.48-5,2.93-1.07.27-2.26.17-3.34.42s.85,1.16,0,0"/><path class="cls-3" d="M121.52,379.95c-4.16,11.73-16,18.72-27.75,15.2s-20.27-16.78-14.8-28c15.75-32.21-25.1-42.26,31.46-25.73C165.73,357.61,135.14,341.57,121.52,379.95Z"/><path class="cls-4" d="M72.58,549.18c-2.33-61.85,3.23-127,25.54-157.12"/><path class="cls-3" d="M76.64,449.75a13.93,13.93,0,0,0-.4-6.28c-.74-2.46-1.91-2.57-3-4.58h-.79c-2-4.24-9.14-5.45-12.94-7.75-5-3-7.63-6.92-9.69-12.23-3.93-10.15-5-22-7.5-32.67.24,1.47.34,1.1,1.24,1.64,1.15,2.74,3.06,4.95,4.43,7.48,1.17,2.16,2.64,4.21,4,6.29a114.22,114.22,0,0,0,9.48,13,39.67,39.67,0,0,0,8.08,7.43c4.13,2.83,6.64,8.2,8.27,12.89,1.78,5.12,1.51,9.34-1.32,13.87"/><path class="cls-3" d="M74.17,487.44c-3.17-3-2.86-9.07-.79-12.63,2.22-3.82,6.67-5.41,10.49-7.52a48,48,0,0,0,13-10.81c3.29-3.81,4.4-8.7,6-13.35a74,74,0,0,0,3.69-14.76c.54,4.76,2.76,8.62,2.65,13.55a42.4,42.4,0,0,1-2,13.5c-3.33,9.43-13.42,13.45-19.84,20.23-4.06,4.28-8.16,9-13.11,12.27"/><path class="cls-3" d="M88.92,342.59c-1.32-7.51-25.55,4.94-30.82,6.1C50,350.45,25,351.71,22,341c6.3.57,11.72,4.58,18.81,4.33a95.48,95.48,0,0,0,18.6-4.07c5.44-1.84,31.82-16.38,28.63.23"/><path class="cls-3" d="M87.9,337.94c-4.49-7.14-32.73.34-43-.34-22.12-1.65-28.39-21.4-18.88-35.82.17-.27.07.31,0,0-1,11.6,6.56,25.52,19.42,27.91,10.11,1.68,36.22-3.7,42.41,8.26"/><path class="cls-3" d="M88.2,340.8c-4.15-16-18.86-10.49-30.49-13.14-12.31-2.83-17.24-23.84-11.25-33.59A47.14,47.14,0,0,0,49,308.77c2.56,7.23,7.13,8.83,14.56,10.13,7.12,1.36,15.14.91,20.66,6.84,3.88,4.35,6.23,10.66,3.15,15.88"/><path class="cls-3" d="M88.17,339.18c0-4.23-3.33-12.26-6-15.58-4-5-10.82-6.4-14.66-12.06-4.21-5.9-9.78-20.92-5.11-27.79,1.43,3.58,2.77,15.63,7.28,16.92,8.7,2.64,5.66-14.23,4.91-17.64,9.3,8.36,4.93,18.08,7.17,28.31,2,9.3,9.31,15.83,6.63,25.83"/><path class="cls-3" d="M94.33,339.13c-8.24-5-13.44-27.27-5.36-34.88,2.57,4.31,1.89,11.6,3,16.88.88,4,7.25,15.3,2.8,17.25"/><path class="cls-3" d="M98.66,341.11c-8.74-11.73,1.66-35.44,12.7-41.43-1.73,4-5.67,6.76-7.2,11.64a37.31,37.31,0,0,0-2.48,10.94c0,4.54,5.69,18.57-2.71,18.78"/><path class="cls-3" d="M102.81,346.7c-8.74-11.73,1.66-35.44,12.69-41.43-1.73,4-5.67,6.76-7.2,11.64a37.25,37.25,0,0,0-2.48,10.94c0,4.54,5.69,18.57-2.71,18.78"/><path class="cls-3" d="M93.63,336.57c-8.74-11.73,1.66-35.45,12.69-41.43-1.73,4-5.67,6.76-7.2,11.64a37.29,37.29,0,0,0-2.48,10.94c0,4.54,5.69,18.57-2.71,18.78"/><path class="cls-3" d="M106.67,353.1c-8.74-11.73,1.66-35.45,12.69-41.43-1.73,4-5.67,6.76-7.2,11.64a37.25,37.25,0,0,0-2.48,10.94c0,4.54,5.69,18.57-2.71,18.78"/><path class="cls-3" d="M102.85,351.06c14.59-1,25.8-24.35,23.16-36.62-1.87,3.89-1.44,8.7-4.14,13a37.26,37.26,0,0,1-6.68,9c-3.46,2.94-17.79,7.78-12.48,14.29"/><path class="cls-3" d="M114.41,351.05c14-4.31,19.58-29.59,14.2-40.94-.93,4.21.58,8.8-1.06,13.65a37.26,37.26,0,0,1-4.45,10.29c-2.7,3.65-15.55,11.63-8.9,16.76"/><path class="cls-3" d="M113.09,347.24c14.53,1.69,29.85-19.18,29.51-31.73-2.55,3.48-3,8.29-6.48,12.06a37.34,37.34,0,0,1-8.23,7.62c-3.94,2.26-18.92,4.37-14.9,11.75"/><path class="cls-3" d="M106.51,342.46c14-4.31,19.58-29.59,14.2-40.94-.93,4.21.58,8.8-1.06,13.65a37.24,37.24,0,0,1-4.45,10.29c-2.7,3.66-15.55,11.63-8.9,16.76"/><path class="cls-3" d="M123.79,350.55c13.07-7.08,21.37,1.17,23.46,13.7s3.74,24.52,19.55,21.06c-12.76-3.38-9.93-15.69-11.48-25.75-1.12-6.58-3.82-11.51-10.28-14.32-6.84-3.05-21.83-6.26-22.69,4.64"/><path class="cls-3" d="M200.09,360.81c-.81,6.67-11.84,9.74-17.51,9-9.74-1.44-12.25-10-17.05-17.06-5.17-7.31-13.42-12.33-22-13-6.54-.19-17,1.12-21.36,6.3,18.76-1.83,31.44,4.16,43.17,19.13,5.93,7.8,11.38,13.42,21.44,11.87,6.89-1.18,18.67-6.69,13.23-15.24"/><path class="cls-3" d="M127.23,341c6.82-1.49,14.19-3.43,19.64-8.2,8-6.62,3.8-13.82,6-21.77,5.26,1.77,7,11.14,5.7,15.64a22.37,22.37,0,0,0,11.68-14.9c5.26,1.77,4.13,11.44,2,15.15-2.53,4.78-8.39,7.68-13.14,9.7-9.75,4.41-21.36,6.3-32,6.68"/><path class="cls-3" d="M131,342.14c11.27-3.44,19.94-5.34,31.89-5.68,10.7-.07,22.73-3,26.82-14,6.08,2.57,4.05,14.05-.12,17.24-4.79,3.32-11.37,4.44-17.22,4.42-13.63.06-27.36-1.81-41.09-.75"/><path class="cls-3" d="M146.15,341.43c10.09-2.86,18.27,1.85,26.14,6.62,3.33,1.87,7.9,3.47,11.69,3,3.48-.44,8.62-5.14,10.15.38,2.38,7.92-16.3,7.14-19.91,4-9.27-6.74-13.07-13.71-25.56-12.92a27.3,27.3,0,0,0-9.85,2.48"/><path class="cls-3" d="M116,373.3c-3.85-1.43,1.56-13.79,2.85-17,2.24-5.63,6-8.46,10.4-11.75,5.6-4.23,10.85-8.5,13.62-15.89,1.46-3.9,1.27-6.07,1-9.92-.18-3.14-.93-7.4.52-10.41,4,1.18,4.7,2.55,5.5,7.36a42.61,42.61,0,0,1,.59,8.8c-.22,5.42-2,12.78-5.21,17.34-2.2,3.15-5,4.83-7.84,7-3.77,2.89-6.68,6.39-9.74,10.19-3.77,4.68-6.22,13.54-12.71,12.77"/><path class="cls-3" d="M359.82,292.56c4.83-12-9.44-30-20.23-32.6,2.38,3,6.38,4.51,8.79,8.34a33,33,0,0,1,4.59,8.8c1,3.89-.67,17.18,6.57,15.47"/><path class="cls-3" d="M364.43,292.06c6.45-11.23-5.18-31-15.5-35.1,1.94,3.29,5.69,5.35,7.55,9.48a33,33,0,0,1,3.33,9.36c.46,4-3.05,16.92,4.35,16.23"/><path class="cls-3" d="M351.23,296.69c-12.83-1.81-21.27-23.12-18.17-33.8,1.41,3.55.73,7.78,2.85,11.78a33,33,0,0,0,5.34,8.37c2.87,2.82,15.23,8,10.13,13.41"/><path class="cls-3" d="M361.32,297c-12.83-1.81-21.27-23.12-18.17-33.8,1.41,3.55.73,7.78,2.85,11.78a33,33,0,0,0,5.34,8.37c2.87,2.82,15.23,8,10.13,13.4"/><path class="cls-3" d="M366.32,288c-12.83-1.81-21.27-23.12-18.17-33.8,1.41,3.55.73,7.78,2.85,11.78a33,33,0,0,0,5.34,8.37c2.87,2.82,15.23,8,10.13,13.4"/><path class="cls-5" d="M417,549c5.62-93-23.6-179.82-47.2-222.85"/><path class="cls-3" d="M388.29,369.48c-6.42-13.65-26.15-14-38.87-10.54-5.73,1.54-10.76,5.13-15,9.23-4.58,4.47-7.89,10.86-13,14.67,6.56.12,12,.64,18.19-2,4.95-2.07,8.4-6.12,12.07-9.89,4.07-4.18,10.18-9.32,16.28-9.41,5-.07,8.75,1.72,12.82,4.13,2.37,1.4,5.18,3.76,8,3.78"/><path class="cls-3" d="M383.8,351.5c.12-5.66-1-11.17,2.88-15.87,4-4.91,9.22-6.2,14.71-8.65,11.15-5,25.29-10.63,32.3-21.39,1.54,11.69-9.17,21.07-18.37,26-6.08,3.27-12,4.68-18.38,7-6.13,2.28-8.87,6.93-12,12.29"/><path class="cls-3" d="M398.41,392.52c-.06-10.25,5.24-17.16,12.83-23.43,4.52-3.74,10.48-6,15.56-8.72a64.64,64.64,0,0,1,9.55-4.54c3.81-1.27,9.08-3.83,13-4.26-1.83,3.48-7.14,6.16-10.49,8a63.07,63.07,0,0,0-12.45,9.1c-4.93,4.55-8.67,10.38-13.41,15.4-5,5.26-7.49,7.66-14.62,7.86"/><path class="cls-3" d="M411.33,456.58c-2.46-4.49-3.27-10.28-5.4-14.76-2.88-6.08-10-7.44-16.36-8.86-7.22-1.62-13.65-5.51-19.6-10.08-4.66-3.58-9.76-7.36-13.73-11.65-.55,6,5.82,13.47,9.31,17.85,3.74,4.69,7.83,8.6,10.73,13.83,3.78,6.79,9.4,12.85,17.65,13.09,5.83.17,12.27,1.49,18,1.14"/><path class="cls-3" d="M348,301.74c-8.52-6.74-22.41-5.48-30.48.84s-31.82,19.39-38.55,3.37c5.83-.84,10.76-.84,16.58-2.11,6.27-1.69,11.21-4.64,17.48-7.59,10.31-4.64,30.48-10.11,34.51,5.06"/><path class="cls-3" d="M343.37,305.11c-9.2-30.49-67.5,16.2-63.11-24.77,10.08,14.77,17.09,10,31.12,5.72,12.71-3.81,33.75,3.33,35.5,19.06"/><path class="cls-3" d="M370.1,290.09c-9.69-10.11,13.49-24.44,17.7-32.45,4.64-8.43,7.16-19.39,7.59-29.08,6.32,8,8.43,22.76,2.53,31.19-4.64,7.17-13.06,9.69-18.12,15.59-3.79,4.21-3.37,14.75-9.69,16"/><path class="cls-3" d="M371.75,289.83c2.53-6.32,2.53-9.69,10.54-10.11,8.43,0,11.8,1.69,19.39-4.21,8-6.32,13.06-17.7,5.9-27-4.21,10.11-.42,19.81-13.06,25.71-11.38,5.48-28-1.69-22.76,14.33"/><path class="cls-3" d="M370.87,289.83c.84-10.94,25-26.91,29.66-36,4.21-7.75,3.37-16.87,1.69-25.08,7.59,3.19,4.21,24.17,1.26,30.1-6.32,11.4-23.76,21.89-32.61,31"/><path class="cls-3" d="M344.46,294.88c-.62.51-1.31.18-2-.5-.48-1.77-2.31-1.58-3.64-2.39-1.7-1-2.88-2.82-4-4.42a44.83,44.83,0,0,1-6.16-11.13c-2.33-6.77-1.87-15.2-.48-22,1,.75,1.15,3.51,1.56,4.83.63,2,1.1,4.08,1.62,6.07,1,3.89,1.67,7.77,3,11.61,1.27,3.57,3.2,6.19,5.19,9.38,1.23,2,6.05,6.51,4.52,8.54"/><path class="cls-3" d="M359.21,289c-1.15-1.49-1.11-8-.77-10.09.53-3.38,1.89-6.75,2-10.34a26.34,26.34,0,0,0-2.13-12.74c-1.66-3.7-4.18-6.16-3.71-10.6,8.06,2.26,11.19,14.91,11.7,22.07.29,4,.53,9.12-.41,13-.54,2.25-4.75,8.28-7.15,7.82"/><path class="cls-3" d="M367.52,298.4c-3.64-.09-2.66-12-2.51-15.07.25-5.36,2.63-8.82,5.33-12.83,3.48-5.15,6.65-10.24,6.84-17.22.1-3.68-.68-5.45-2-8.6-1.06-2.57-2.91-5.93-2.56-8.87,3.66-.15,4.67.79,6.72,4.58a37.72,37.72,0,0,1,3,7.2c1.38,4.61,2,11.29.63,16-.94,3.27-2.82,5.49-4.56,8.11A51.65,51.65,0,0,0,373.23,283c-1.81,5-1.31,13.13-7,14.35"/><path class="cls-3" d="M341.93,296.13c-4.24-7.06-15.38-10.67-22.86-11.83-8.65-1.34-17.34-6-17.63-15.72-.11-3.67,1.07-11.94,5.47-12.86.12,4.41-1.52,9,1.19,13,1.25,1.83,3.55,3.58,5.24,5a17.79,17.79,0,0,0,6.84,3.51c8.07,2.52,22.29,9.48,21.33,19.77"/><path class="cls-3" d="M356.75,284.64c2,0,5.37-5.27,6.55-6.9a22.71,22.71,0,0,0,4.1-7.86,67.94,67.94,0,0,0,1.2-10.36c.2-2.56-.57-7.46.49-9.62,6.47,1,3.48,19.19,2.31,23-1.82,5.85-5.9,16.69-13.72,11.86"/><path class="cls-3" d="M333.08,248.52c-.06,9.06.75,16.6,3.78,25,1.41,3.94,2.25,7.66,4.12,11.4s5.14,9,9.74,8.62c.75-2.22-2.24-3.57-3.34-5a20.24,20.24,0,0,1-2.5-5.46c-1.27-3.55-3.37-7.32-4.22-11s-1.56-7.24-2.52-10.78c-1.23-4.54-.08-9.17-3.8-12.39"/><path class="cls-3" d="M319.52,250.21c-4.15,9.86-11.89,21.13,1.21,28.93,5.12,3,10.81,4.87,16.06,7.75,6.46,3.54,9.15,8.47,12.62,14.23,1.86-4.29.08-9.47-2.85-13.11-3.95-4.88-10.62-6.21-15.76-10C322.4,271.75,319,261.06,319,252"/><path class="cls-3" d="M374.81,333.24c-7.59,7.16-27.82,1.26-32-8-2.11-5.48.84-11.38-.84-16.44-2.11-6.32-8.43-5.9-12.64-8.85,3.37-2.53,8.43-1.69,12.64-4.64a52.93,52.93,0,0,1,13.49-7.59c2.11-1.26,3.37-2.53,5.48-3.37,1.26-.42,2.53,1.69,3.79,1.26.84-.42,3.37-2.53,4.21-2.53,3,0,3.37,2.11,6.32,1.26,1.69-.42,3.79-3.79,5.9-4.21-1.69,7.59-1.69,10.11,3.37,16,3.79,4.64,5.9,7.59,6.32,13.91.84,12.22-7.16,16.44-16,23.18"/><path class="cls-3" d="M586.86,341.06c10.72-7.28,8.9-30.13,1.4-38.35.31,3.81,2.78,7.3,2.64,11.83a33,33,0,0,1-1.1,9.87c-1.34,3.79-10.15,13.88-3.19,16.5"/><path class="cls-3" d="M591,343.21c11.62-5.71,13-28.6,6.72-37.78-.23,3.81,1.74,7.62,1,12.08a33.08,33.08,0,0,1-2.46,9.62c-1.85,3.57-12,12.34-5.45,15.89"/><path class="cls-3" d="M577.43,339.69c-9.64-8.66-4.75-31.06,3.79-38.18-.82,3.73-3.74,6.86-4.22,11.36a33.09,33.09,0,0,0-.24,9.93c.81,3.94,8.18,15.13.93,16.78"/><path class="cls-3" d="M585.61,345.6c-9.63-8.66-4.75-31.06,3.79-38.18-.82,3.73-3.74,6.86-4.22,11.36a33.12,33.12,0,0,0-.24,9.93c.81,3.94,8.18,15.13.93,16.78"/><path class="cls-3" d="M594.83,340.87c-9.63-8.66-4.75-31.06,3.79-38.18-.82,3.73-3.74,6.86-4.21,11.37a33,33,0,0,0-.24,9.93c.81,3.94,8.18,15.13.93,16.78"/><path class="cls-5" d="M491.14,585.75c56.57-74,80.77-162.38,85.21-211.26"/><path class="cls-3" d="M568.12,431.1c-1.36-5.5-1.49-11.11-6.3-14.85-5-3.9-10.36-4-16.25-5.21-12-2.41-27-4.81-36.22-13.77,1.07,11.74,13.58,18.54,23.64,21.34,6.65,1.85,12.78,1.92,19.48,2.83,6.48.88,10.17,4.81,14.43,9.34"/><path class="cls-3" d="M545.29,491.35C551,482.81,559.22,480,569,479.07c5.84-.58,12.07.83,17.77,1.45a64.77,64.77,0,0,1,10.45,1.56c3.87,1.07,9.67,1.9,13.19,3.74-3.46,1.87-9.36,1.13-13.19.82a63.07,63.07,0,0,0-15.41.6c-6.63,1-13,3.77-19.72,5.29-7.06,1.59-10.49,2.18-16.51-1.63"/><path class="cls-3" d="M571.9,342.05c-3.3-10.35-15.54-17.05-25.76-16.31s-37.23-1.67-33.86-18.72c5.3,2.55,9.4,5.3,14.94,7.51,6.15,2.1,11.88,2.41,18.74,3.46,11.14,1.91,30.93,8.62,25.81,23.46"/><path class="cls-3" d="M566.21,342.29c9.38-30.44-65-24.23-38.54-55.78.12,17.88,8.6,17.84,22.63,22.11,12.67,3.93,26.14,21.6,18.82,35.63"/><path class="cls-3" d="M596.77,344.75c-2.4-13.8,24.83-12.76,32.8-17,8.55-4.41,16.76-12.09,22.52-19.9.78,10.17-5.71,23.59-15.31,27.29-7.85,3.36-16.25.75-23.74,2.82-5.5,1.38-11,10.36-17,7.88"/><path class="cls-3" d="M598.29,345.45c5.63-3.83,7.51-6.63,14.39-2.51,7,4.7,8.85,8,18.44,7.32,10.17-.78,20.72-7.4,19.95-19.09-9.14,6-11.41,16.2-25.19,14-12.5-1.8-22.27-17-26.88-.81"/><path class="cls-3" d="M597.56,345c6.81-8.61,35.78-8.36,44.72-13.34,7.83-4.08,12.22-12.12,15.4-19.87,4.51,6.88-10,22.41-15.75,25.68-11.61,5.93-31.93,4.91-44.37,7.53"/><path class="cls-3" d="M572.82,334.41c-.79.08-1.18-.58-1.4-1.55.59-1.73-1-2.6-1.69-4-.84-1.8-.82-4-.88-5.92a44.77,44.77,0,0,1,1.1-12.67c1.84-6.92,6.93-13.65,11.87-18.52.41,1.18-1,3.56-1.41,4.88-.62,2-1.37,4-2,5.94-1.33,3.8-2.94,7.38-4,11.33-.94,3.67-.8,6.92-.93,10.68-.08,2.31,1.39,8.78-1,9.61"/><path class="cls-3" d="M588.36,337.75c-.12-1.88,3.52-7.22,5-8.8,2.33-2.51,5.34-4.54,7.46-7.44a26.33,26.33,0,0,0,5.35-11.76c.69-4,0-7.44,2.84-10.87,5.43,6.37,1,18.62-2.61,24.85-2,3.5-4.65,7.86-7.62,10.59-1.7,1.56-8.56,4.22-10.3,2.5"/><path class="cls-3" d="M590,350.2c-3-2.11,4.49-11.44,6.33-13.91,3.2-4.3,7.11-5.85,11.59-7.67,5.76-2.33,11.23-4.79,15.29-10.47,2.14-3,2.47-4.9,3.16-8.24.56-2.73.9-6.54,2.83-8.79,3.12,1.91,3.43,3.26,3,7.55a37.78,37.78,0,0,1-1.51,7.66c-1.43,4.59-4.66,10.47-8.42,13.64-2.6,2.19-5.41,3-8.31,4.18a51.68,51.68,0,0,0-10.66,6.49c-4.29,3.14-8.42,10.16-13.79,8"/><path class="cls-3" d="M570,334c.43-8.23-6.8-17.44-12.37-22.58-6.43-5.94-11.05-14.64-5.86-22.88,2-3.11,7.55-9.31,11.72-7.62-2.37,3.73-6.3,6.65-6.27,11.46,0,2.22.95,5,1.57,7a17.84,17.84,0,0,0,3.72,6.73c5.29,6.6,13.21,20.3,6.67,28.31"/><path class="cls-3" d="M588.74,332.77c1.68,1.12,7.39-1.38,9.29-2.07a22.67,22.67,0,0,0,7.79-4.23,67.87,67.87,0,0,0,6.78-7.92c1.6-2,3.69-6.51,5.78-7.71,4.79,4.47-7.82,17.87-10.9,20.34-4.78,3.83-14.21,10.55-18,2.19"/><path class="cls-3" d="M589.25,289.6c-5.1,7.48-8.64,14.19-10.84,22.89-1,4.06-2.41,7.61-2.94,11.75s-.77,10.37,3.28,12.59c1.86-1.43.14-4.21,0-6a20.28,20.28,0,0,1,1-5.93c.93-3.66,1.29-8,2.63-11.46s2.74-6.88,3.92-10.35c1.51-4.46,5.05-7.66,3.76-12.4"/><path class="cls-3" d="M577.06,283.43c-8.94,5.87-21.66,10.9-15.14,24.68,2.55,5.38,6.25,10.07,9,15.39,3.38,6.54,2.86,12.13,2.54,18.85,3.94-2.53,5.36-7.81,4.95-12.47-.55-6.26-5.35-11.08-7.49-17.1-3.5-9.87-.37-20.65,4.71-28.17"/><path class="cls-3" d="M576.6,383.17c-10.29,1.71-23.79-14.47-22.11-24.52,1.31-5.72,7.05-9,8.47-14.11,1.78-6.42-3.7-9.6-5.55-14.4,4.21-.22,7.94,3.31,13.08,3.21a52.92,52.92,0,0,1,15.42,1.23c2.45.13,4.21-.22,6.43.26,1.28.36,1.16,2.81,2.44,3.17.93.12,4.21-.22,4.91.25,2.45,1.65,1.62,3.63,4.54,4.58,1.63.59,5.26-1,7.25-.2-5.63,5.35-7,7.45-6.14,15.17.56,6,.66,9.59-2.52,15.07-6.12,10.61-15.12,9.64-26.23,10.29"/><path class="cls-6" d="M536.92,105c44-43.72,97.37-61.11,89.28-60.35-59.82,5.62-107,41.95-117.72,51.18-4.58,3.94-9.61,14.7-12,24.73a21.3,21.3,0,0,0-7-1.26,32.36,32.36,0,0,0-8.91.7c-2.94.8-5.47,3.11-8.52,3.27,9,5.06,12.37,12.82,19.07,18.24a45,45,0,0,0,19.29,8.85l58.38,68.76,1.88-.37-.52-2.64-37.44-65.37c.73-.12,1.46-.23,2.18-.37,5.89-1.15,11.6-2.91,17.55-3.83,6.28-1,12.57-.23,18.76-1.77-3.27-1.59-13.59-4.64-14.71-8a34.41,34.41,0,0,0,12.73-8.36c-7.76,1.79-15.45,3.27-23.29,4.53a80.6,80.6,0,0,1-17.3,1.19C528.54,130.89,528.27,113.64,536.92,105Z"/><g class="cls-7"><path class="cls-3" d="M250,220.35c1.35-3.29,2.49-5.27,6-6.6,3.19-1.22,5.24-.68,7.76,1.46,2.17,1.84,4.9,2.75,5.83,5.69.81,2.58-.84,4.41-1.08,6.92l-.4.23c.44,2.69-3.46,4.08-5.65,3.83.07,1.31,1.3,1.21,1.79,2.23-.38,0-.83.42-1.21.48,0,1.06.95,1.12,1.36,1.77-.48.11-1,.47-1.47.56a2.88,2.88,0,0,0,.61,1.45c-.16,0-.71.14-1,.09.05.47-.14.87,0,1.35-1,.1-1.57.79-1.14,1.81-.66.38-1.75.12-2.25.46-.7.48-.92,1.92-1.37,2.48a18.13,18.13,0,0,0-1.47-1.23c.15.87-.28,1.38-1.14,1.17a3.1,3.1,0,0,0-.32,1.86c-.1-.13-.25-.16-.41-.48-1.25.43-1,2.65-1.63,3.75a8.29,8.29,0,0,1-1.65-1.41c-.2,2.21-1.55,1-2.45.24-.09.2-.26.42-.34.57-.11-.48-.46-1-.56-1.49a2.92,2.92,0,0,0-2.24,1.9c-.32-.3-.67-.44-.91-.86a2.5,2.5,0,0,0-1.59,1c0-.4-.42-.87-.47-1.27-1.14.69-1.81,2-3.27,2.16-.34-.82-.57-1.7-.88-2.53-4.3-.7-5.18.72-6.76,4.36-1.39,3.21-4.15,4.93-6.67,7.18a65.27,65.27,0,0,1-8,5.91c-2.58,1.69-6.61,5.63-9.82,3.36-2.63-1.86-3.55-6.41-4.5-9.3a12,12,0,0,1-.39-7.84,13.86,13.86,0,0,1,5.71-7.81c3-1.75,6.81-1.36,9.57-3.36s4.43-5.29,7-7.5c2.35-2,4.7-4.11,7.1-6.09,1.28,0,1.42.26,2.4-.51.69-.54.28-1.39,1.42-1.67-.22-.4-.25-1.15-.44-1.5a22.77,22.77,0,0,0,2.88-1c.74-.47.76-1.33,1.27-1.73.93-.72,1.82.17,2.64,1.3.7-.73.67-4.21,2.42-3.65.78.25,1.09,1.9.87,2.5a4.89,4.89,0,0,1,.42-2.6,13.56,13.56,0,0,1,1.2,3,11.64,11.64,0,0,1,.92-2.42,3.88,3.88,0,0,1,.83,1.59,3,3,0,0,0,1-.3"/><path class="cls-3" d="M262.78,215.64l-.1-.19a1.59,1.59,0,0,1-.22-.58,3.91,3.91,0,0,1-.1-1,8.08,8.08,0,0,1,.13-1.26c.08-.45.19-.94.32-1.42a5.78,5.78,0,0,1,.63-1.68l.37-.45a2.69,2.69,0,0,1,1.55-.71c.67-.1,1.26-.11,1.83-.16s1.18-.06,1.75-.1,1.15-.05,1.71-.07a21.29,21.29,0,0,1,3.09.1,8.52,8.52,0,0,1,1.23.19,5.91,5.91,0,0,1,.93.24c.51.17.78.28.78.28l-.83,0c-.52,0-1.25.08-2.12.19l-3,.39c-.55.07-1.11.17-1.7.21l-1.77.16c-.61,0-1.21,0-1.69.09a1.33,1.33,0,0,0-1,.42,7.15,7.15,0,0,0-.65,1.24l-.58,1.3c-.16.4-.31.76-.42,1.1a5.53,5.53,0,0,0-.2.86,1.86,1.86,0,0,0,0,.6Z"/><path class="cls-3" d="M264.16,219.16l-.1-.19a1.59,1.59,0,0,1-.22-.58,3.9,3.9,0,0,1-.1-1,8.12,8.12,0,0,1,.13-1.26c.08-.45.19-.94.32-1.42a5.78,5.78,0,0,1,.63-1.68l.37-.45a2.69,2.69,0,0,1,1.55-.71c.67-.1,1.26-.11,1.83-.16s1.18-.06,1.75-.1,1.15-.05,1.71-.07a21.28,21.28,0,0,1,3.09.1,8.55,8.55,0,0,1,1.23.19,5.92,5.92,0,0,1,.93.24c.51.17.78.28.78.28l-.83,0c-.52,0-1.25.08-2.12.19l-3,.39c-.55.07-1.11.17-1.7.21s-1.19.11-1.77.16-1.21,0-1.69.09a1.33,1.33,0,0,0-1,.42,7.15,7.15,0,0,0-.65,1.24l-.58,1.3c-.16.4-.31.76-.42,1.1a5.47,5.47,0,0,0-.2.86,1.86,1.86,0,0,0,0,.6Z"/><path class="cls-3" d="M236.26,223.1c-4.81,2.13-12.7-1.93-16.59-4.53-4.82-3.22-10.39-5.2-15.68-7.56-3.38-1.51-6.4-3.89-10-4.69-.79,2.85,1.42,8.17,2.75,10.65.34.64,1.25,1.54.88,2.18-.45.8-3.67.48-4.46.49-1.86,0-3.73-.05-5.59.14s-3.56-.15-5.3.18c1.16,4.08,4.51,9.62,8.54,11.54-1,.44-3.17,1.47-3.49,2.66-.42,1.57,1.93,2.94,3.06,3.8a21.85,21.85,0,0,0,9,3.57c10.16,1.61,20.65-3.14,29.62-7.22,1.36-.62,2.58-1.38,2.94-3,.22-1,2-.49,2.18-1.41.48-2.35,1.18-4.18,1.84-6.74"/><path class="cls-8" d="M248.47,244.75c-1.42.16-2.87,3.13-3.63,4.37-.9,1.46-1.8,4.63-3.59,5.21,1.08,4.27,5.58,11.1,1.23,14.53"/><path class="cls-8" d="M250.88,246.85c-1.86.27-2.24,2.92-2.91,4.4a47.91,47.91,0,0,1-2.65,4.3c2.21,2.27,9.14,10.62,4.36,13.28"/><path class="cls-8" d="M257.23,242.48c1.17.72,2.07,1.77,3.4,2.48,1,.54,2.11.94,3,1.41-1.82,1.87-2.63,4.6-3.93,6.79-1.2,2-3,2.41-5.18,3.15"/><path class="cls-8" d="M256.82,240.32c1.16,0,3.36,1.58,4.55,2a21.29,21.29,0,0,1,3.57,1.15,25.44,25.44,0,0,1-2.21,4.24,16.39,16.39,0,0,1-1.58,6.12,18.83,18.83,0,0,1-4.89,4.27"/><path class="cls-8" d="M241.56,243c-3.52,1.08-6.43,3.88-6.12,7.57a37.17,37.17,0,0,0,1.11,5.44c.45,2-.63,2.54-1.44,4.34"/><path class="cls-8" d="M242.5,244.1c-2.74.45-3.36,4.33-3.08,6.48.15,1.17.81,2,.67,3.15a20.47,20.47,0,0,1-1,3"/></g><path class="cls-6" d="M1131.32,106.42c1.32-.94,3.19-1.16,4.17-2.5a16.33,16.33,0,0,1,5.6-4.89c3.45-1.67,6-.48,9.81-1.21.25-3.92-.16-8.5,1.34-12.18s20.77-19.8,29-24.21c7.08-3.78,11.4-6.72,18.63-10.23a144,144,0,0,0-20.3,26.11c-7.64,12.15-1.7,24.68,9.66,31.46,7.61,4.54,15.72,4.47,24.16,2.9-1.71,1.48-4.9,5.3-8,6.94,1.33,2.59,1.52,3.76,3.59,6.83-5.58-.56-10.08-5.51-17.12-6.4-2.47-.31-5.29.29-7.66.55-3.15.35-6.45.54-9.43,1.77a9,9,0,0,0,1.73,1.38c0,1.33-1.29,2.29-1.25,3.46s1.59,2.07,1.59,3.06c0,1.31-1.73,2-1.92,3.2-.26,1.77.58,1.06,1.4,2.37,1.5,2.39-.91,3.49-.12,6,.45,1.42,1.45,2.1,1.67,3.62.47,3.28-.42,6.82-.21,10.15.11,1.76.35,3.41.53,5.22.39,4.06-.28,8.21-.11,12.3.16,3.79-.17,7.77-.35,11.62a42.81,42.81,0,0,0,.36,5.81c.15,1.93-.7,4.11-.44,6,.31,2.19,1.28,4,1.26,6.48,0,2.16-1.08,4.68-.33,6.74-4.57-3.82-6.34-11.19-8.58-16.42-2.62-6.11-5.34-14-7.94-20.14-2.89-6.82-5.43-10-8.21-16.86-1.77-4.34-4.92-16.48-5.15-20.12-.46-7.4-.08-15.31,1.92-20.65-2.31,1.6-6.74-1.15-9.24-2l-4-3.09-2.2-1.21Z"/><path class="cls-9" d="M939.9,617.75c2-9.54,4.87-19-2.81-29.55,7.68,4.52,13.27,14.47,16.64,27,9.62-1,1.31-23.16,1-25.71s-1.64-4.84-1.81-7.25c-.68-9.55-3.51-21.29-1.51-23.45,3.53,11,4.27,11,6.85,22s5.76,22.18,5,33.4c-.16,2.58,1.75,5.34,3.5,10.22,12.86-5,4.82-38.63,6.92-44,1,2.87,2.58,5.73,2.93,8.61,1.19,9.62,1.95,19.25,3,30.34,7.64-12.4-.29-25,4.09-37.29,3.73,8.3,1.33,16.08,7.48,24.87,1-9.71,2.24-17.69,2.36-25.74,0-1.31-.83-14.16.4-18.51,3.69,9.86,3,19.75,3.86,29.53.93,10.31-1.73,20.6-2.88,31.5,5.07-1.94,7.14-12.12,7.09-15.07-.16-10.86,3.51-20.9,10.78-31.55.66,11.9-10.3,20.57-6.89,32.92l2.92-6.35c.69.42,2.11,8-1.74,10.86-1.59,1.18-.68,4.13,1,6.56l2.63-6.75c1.27,7.68,1.21,7.67-2.21,11.68l3.31,3.12c5.62-4.88,10.34-10.38,21.43-14.39l-9.74,10.28c8.46-.09,27.06-3.18,31.23-2.74-.29.65-27.53,4.31-36.69,11-27.32.59-109.71-8-139.63-14.78-6.16-3.87-9.4-15.83-8.67-16.19a66,66,0,0,1,5.39,4.88c1.4,1.57,2,3.48,3.45,5,1.79,2,4,3.7,6.1,5.53,4.73-2.8-1.31-6.34-.4-9.91l5.62,2.71c-2.51-10.78-8.24-19.93-15.56-29.35,1.92.89,15.66,15.4,20,21.94,2.09,3.15,2.77,6.73,4.26,10.58,5.39-5.27-1.56-10.93,1.25-16.82l7.77,13.76c3.62-5.86.55-11.25-1.83-16.59-3.77-8.45-17.08-25.31-17.28-26.58,3.57.17,23.14,22.26,23.9,24s.88,3.63,1.66,7.17c1-2.43,1.44-3.37,1.83-4.32s.67-1.7,1.79-4.56c.66,5.35.7,8.64,1.56,11.87a21.59,21.59,0,0,0,4.74,8.36c2.63-15-3.65-29.4-9.79-43.86A150.17,150.17,0,0,1,939.9,617.75Z"/><path class="cls-9" d="M1406.32,590.21c-5.39-14-12-27.58-2.9-45.51-10.55,8.71-16.62,25.16-18.71,45-14.82.86-7.6-34.82-7.8-38.76-.19-3.73,1.31-7.74,1-11.44-1.28-14.66.17-33.15-3.4-35.95-2.69,17.57-3.83,17.66-5.06,35.1s-3.37,35,.44,51.9c.87,3.88-1.37,8.53-2.83,16.35-20.73-4.48-16.68-57.43-21.15-65-.84,4.6-2.52,9.32-2.36,13.77.53,14.88,1.71,29.67,2.78,46.75-14.59-17-5.62-38-15.25-55.58-3.65,13.5,1.87,24.72-5.32,39.54-3.91-14.48-7.69-26.3-9.81-38.48-.35-2-2.18-21.68-5.09-28-3.21,15.86.27,30.69,1.29,45.73,1.08,15.86,7.62,30.83,12,47.1-8.17-1.72-13.77-16.66-14.41-21.14-2.39-16.51-10.39-30.85-24-45.25,1.88,18.21,20.6,28.71,18.42,48.27l-6-8.93c-.94.81-1.26,12.64,5.27,16,2.7,1.41,2,6.1.12,10.19l-5.63-9.6c-.06,12,0,11.93,6.19,17.19l-4.27,5.53c-9.71-6-18.21-13.25-36-16.63l17.27,13.23c-12.85,1.92-41.83,1.73-48,3.41.59.91,42.81-.12,58.33,7.88,41.59-5.73,164.51-38.64,208.25-56.25,8.4-7.37,10.43-26.29,9.22-26.67-2.36,2.9-5.06,5.71-7,8.71-1.74,2.72-2.23,5.78-4,8.48-2.25,3.4-5.25,6.59-7.92,9.87-7.85-3.1.45-9.94-1.8-15.13l-7.87,5.47c1.19-17,7.68-32.24,16.49-48.29-2.69,1.82-20,27.15-25,38.14-2.41,5.28-2.57,10.88-3.91,17.08-9.46-6.68-.28-17-6-25.21l-8.45,22.75c-6.91-8-3.56-16.94-1.24-25.62,3.67-13.73,19.78-42.53,19.77-44.5-5.38,1.12-29.72,39.38-30.43,42.23s-.45,5.73-.78,11.28c-2.15-3.44-3-4.76-3.82-6.11s-1.42-2.41-3.81-6.49c.3,8.27,1,13.28.51,18.38a33.15,33.15,0,0,1-5.16,13.83c-7.63-22.16-1.59-45.48,4.23-68.9A230.73,230.73,0,0,0,1406.32,590.21Z"/><path class="cls-9" d="M781.61,592.09c8.86-.5,10.22-6.12,13.9-9.27,4.19-3.58,8.81-6.83,12.67-10.66,4-4,8.39-7.05,18.18-8.57-10.92,10.7-22.85,17.27-24.94,31.59,11.36-4.66,17.51-12.87,26.47-17.88,9.17-5.13,18.8-9.67,28.31-14.35.41-.21-22.7,16.11-28.49,29.48,6.15-14.07,51-25.35,66.27-27.76.61-.09-49.4,29.06-66.27,52L674.5,577.08c-.24-12.84-6.13-24.71-16-36l9.18,5.68c.18-1.36.58-2.11.29-2.54-2.73-4-5.58-8-9.25-13.21,10.09,4.74,17.17,15.45,20.31,29.5,2.71-2.44,3.39-4.53,2.53-7.53-.79-2.77-.36-5.75-1.31-8.46-5.2-14.87-8.84-30.17-18.66-43.85,0,0,.7-.42,1.07-.64,11.72,6.91,18.47,21.45,26.67,58.14,3.74-4.84,4.46-9.82,4.93-14.42.62-6-.44-12.19-.75-18.29a11.75,11.75,0,0,1,.05-2.46c3.21-19.28,3.7-42.18,17.82-57.78,1.83-2,1.62-5.5,3.49-8.06-3,29.38-17.83,56.65-13,90.18,6.15-13.53,5.23-27,15.7-36.64,1,11-5.69,18.8-9.06,27.67-3.46,9.11-4,18.68-2.57,30.21,11.64-31.1,28.28-56.82,66.7-67.73-2,2.35-29.86,23.83-39,36.4-2.32,3.17-12.79,28.79-9.86,34.88,5.09-4.22,10-8.07,14.62-12.19s9-8.65,13.54-13c4.31,7-3.1,10.8-6,14.9-3.08,4.4-4.68,8.56-6.08,16,16-17.38,29.8-44,49.4-46.93h0c-12.62,7.19-21.27,23.49-25,35.92a43.42,43.42,0,0,0-2,11.55c7.77-10.08,15.28-20.19,29.11-29.28-3.82,6.91-5.51,11.94-9,15.71-4.21,4.58-3.75,9.91-6.49,17.31,2.62-7.07,57-55.92,63.45-45.66C839.36,536.4,794.79,556.3,781.61,592.09Z"/><path class="cls-3" d="M1600,680H0V563c2.07-.6,5.94-.08,8-.67,1.5-.43,1.21-2,2.7-2.39,1.92-.54,3.84-2.08,5.75-2.61,1.6-.44,3.19.12,4.79-.32l5.66-1.53,5.94-1.58c3.18-.84,6.36-2.66,9.52-3.47l5.16-1.31c1.62-.41,3.24.19,4.85-.21q4.83-1.2,9.63-2.35c2.94-.71,4.87.6,7.79-.08,1.27-.3,3.55.41,4.82.12,1.73-.4,3.47-3.79,5.2-4.18l5.82-1.3,2.49-.54,4.4-1c2.5-.54,6,1.93,8.48,1.41.85-.18.7-3.35,1.54-3.53q8.34-1.73,16.6-3.32l2.21-.42q4.26-.81,8.49-1.59l4.22-.77,7.53-1.33q5.24-.91,10.45-1.77,4.76-.79,9.5-1.53c.92-.14,4,3,4.87,2.91,4.05-.63,6-4.56,10-5.14l3.19-.46c3.94-.56,3.67.47,7.58,0,5.78-.76,15.73-4,21.44-4.69q6.5-.75,12.94-1.43c2.77-.29,5.52.43,8.27.16s5.42-1.52,8.12-1.76c2.5-.23,5,.56,7.49.35,1.69-.14,3.37-1.28,5.05-1.41,2.16-.17,3.32.67,5.47.51,1.54-.11,4.08-.22,5.62-.33,2-.14,3-.27,4.94-.39,1.53-.1,4.05-.19,5.57-.28s3,.83,4.43.75c1.84-.1,3.68-1.2,5.51-1.29l4.62-.22c3.12-.14,6.24-1.28,9.34-1.39,1.35-.05,2.69.9,4,.85.84,0,1.68-1.06,2.51-1.08l5.48-.16c.83,0,1.67,1,2.5.94L316,513l5.13-.07c2.13,0,3.25-.06,5.37-.08l7,0h6q4.27,0,8.5,0l2.49,0L355,513l4,.07,3.31.07,3.71.09q6.3.17,12.54.4,5.28.2,10.52.45l7,.36,3.14.17,4.78.28,2.86.18,6.7.45,5.51.4,5.05.39,4.53.37C520,524.36,600.4,542.69,672,563c6.43,1.82,11.82,4.61,18.18,6.35,1.66.46,3.16,3.7,4.82,4.15,4,1.08,9.1-1.64,13-.6q6.51,1.73,13,3.4c2.35.61,4.7,2.21,7,2.81s4.61.17,6.9.75,4.6,2.16,6.89,2.72c1.89.47,3.78-.06,5.66.4l6.91,1.68c3.79.92,7.57.82,11.34,1.71,1.88.44,3.76,1.88,5.63,2.32,3.38.79,7.75,1.57,11.11,2.33,3.59.82,6.17,1.62,9.74,2.41,4.23.94,8.45,2.86,12.65,3.76,2.65.57,5.29.13,7.93.69,2.44.51,4.87,0,7.3.53,1.71.35,3.43,1.71,5.13,2.05,2.44.5,4.87,0,7.3.48,1.37.27,2.74,1.55,4.1,1.82l10,2q5.35,1,10.65,2c1.15.21,2.31-.57,3.46-.36,3,.55,5.91,3.08,8.85,3.61,1.94.35,3.87-.31,5.8,0l5.55,1,4.14.71c2.75.47,5.49-.07,8.22.38,1.37.23,2.73,1.45,4.1,1.67,2.72.44,5.43-.12,8.14.31,2.9.46,5.79,1.91,8.67,2.35,2,.31,4,1.62,6.06,1.92,2.25.34,4.48-.33,6.72,0l4.1.59c3.12.45,6.23,1.88,9.33,2.31,3.54.49,7.06,0,10.56.42l3.36.44,7.47.95,8.69,1.06c4.63.55,9.23,2.08,13.81,2.59,4,.44,7.93-.14,11.87.27,3.12.32,6.22,1.63,9.32,1.93,1.59.15,3.17-.7,4.75-.55,3.14.3,6.27,1.58,9.38,1.85.88.08,1.76-.85,2.65-.77,1.33.11,2.65,1.23,4,1.34,2.92.24,5.82-.52,8.72-.3q7.78.6,15.44,1.12c2.68.18,5.35,1.35,8,1.52,1.77.11,3.54-.79,5.31-.68l6,.33,3.79.2c2.51.13,5,1.25,7.51,1.37,2.9.13,5.78-.74,8.65-.63l3.82.15c1.84.07,3.67-.87,5.5-.81,2,.07,4,2.13,6.05,2.19,1.76.05,3.52-.9,5.27-.86,1.57,0,3.13-.92,4.69-.89l4.66.09,6.68.11,6.66.07c2.67,0,5.33,1,8,1,2.45,0,4.89-1,7.32-1,4,0,8,1,12,.91l3.35,0c3.34,0,6.66.89,10,.81,5.39-.12,10.72-1.28,16-1.47l3.38-.12q5-.19,10-.42l3.32-.16,4-.21q5.73-.3,11.38-.65c2.66-.17,5.3.66,7.92.48,1.09-.08,2.18-1.15,3.27-1.23q9.56-.69,18.87-1.51c1.53-.13,3.06-1.27,4.58-1.41,3.79-.35,7.55.28,11.28-.1q5-.51,9.88-1.06c3.36-.37,6.7-1.76,10-2.16q5.69-.69,11.27-1.42c2.93-.39,5.84.22,8.72-.19q5-.71,10-1.45c2.47-.37,4.92.25,7.35-.13l4.76-.76c4-.65,8-2.32,11.88-3q5.25-.92,10.38-1.87c2.9-.54,5.77-2.09,8.62-2.64,1.59-.31,3.17.38,4.75.06,2.72-.55,5.41-2.1,8.08-2.66,2-.42,4,.15,6-.28l5.17-1.13,6.56-1.49,6-1.4c3.07-.73,6.11-2.47,9.11-3.22,1.84-.46,3.67.08,5.49-.38,2.84-.73,5.65-2.46,8.43-3.2s5.44-.47,8.12-1.21c1.21-.34,2.41.33,3.61,0,1.84-.52,3.66-2,5.46-2.56,1.21-.35,2.42-1.7,3.61-2.05,3.25-1,6.45-.92,9.6-1.89q3.34-1,6.6-2.06c2.51-.8,5-2.6,7.43-3.4l3.6-1.19,5.39-1.82c1.48-.51,2.94,0,4.4-.52l3.59-1.27c1-.36,2,.28,3-.08,3-1.07,5.89-4.15,8.74-5.22q4-1.51,7.89-3c1.66-.65,3.3-.29,4.92-.94,1.12-.44,2.22-2.89,3.32-3.33,1.93-.78,3.83-2.56,5.7-3.34,3.35-1.39,6.61-.78,9.76-2.15,1.74-.76,3.46-.52,5.14-1.27,1.38-.62,2.74-2.23,4.08-2.84,3-1.36,5.88-1.71,8.67-3s5.29-3.55,7.79-4.78c2.11-1,4.15-1.08,6.13-2.09l3.2-1.65,3.14-1.65c1.36-.72,2.69-.44,4-1.14l3.64-2c1.48-.82,2.9-2.62,4.26-3.4,4.21-2.4,7.88-3.6,11-5.54,2.1-1.3,4-3.48,5.59-4.54,5.74-3.73,8.58-5.91,8.58-5.91Z"/><path class="cls-10" d="M593.28,442.58c-21.08,8.19-42.24,35.15-60.71,72,7.85-41.21,23.55-84.61,35.85-117,10.35-27.28-48.28,70.37-56.48,106.36-1.89,8.28-8.57,15.47-16.73,29.48-3.84-23.91-1.31-44.36,8.6-77.5C511,432,518.14,407.7,518.11,389.24c-4.76,8.25-10.75,16-14,24.84-11,29.41-21.14,59.19-33.19,93.34-6.24-45.18,22.44-78.65,23.38-120.89-15.58,23.24-18.74,60.35-40.12,83.22,6.17-31.45,26.41-102.54,27.56-109,2.53-14.41-1.06,14.71,0,0-16.85,28.2,0,0-27.78,46.68-17.21,28.92-14.1,66.36-21,101.69,1.81-9.73,2.36-140.84.74-161.22-11.85,37,1.45,109.62-16.93,145.89-.43-9.9-2.05-57.65-2.15-56.83-1.32,11-2.89,47.1-8.7,53.47,0-6.61-4.73-20.47-10.23-26,0,0,.85,25.83,5,41.2l-10.12,7.21c-8.3-19.86-14-40.94-35.32-62.34L368,490.61c-18.81-7-57.66-31.43-67.36-33.34.09,2.27-3.56-3.72,0,0,29,30.33,57.72,35.38,72.29,63.88,67.52,13.24,80.42,40.41,146.23,53.09,1.42.28,56.25-16.52,58-17.76,1.35,2,2.28,5.07,3.77,5.37,38.45,7.79,76.95,15.29,116.75,23.09,17.13-7.35,23.69-26.29,37.47-39-1.33-1.74-44.65,27.59-50.84,31.75-8.11-12.57,8.45-19,9.53-31l-14.91,4.1c15-32,35.79-56.37,60.34-80.3-5.06,1.3-48.4,36.21-63.84,53.42-7.42,8.27-12,19-18.75,30-7.44-20.88,13-33.25,11.89-54l-29.34,37.27c-3-21.36,8.58-35.93,18.57-50.9,15.79-23.67,60.22-66.35,61.76-70.19,0,0-42.43,31.15-47.07,35.07-5.56,4.7-32.38,32.6-37.2,43.14-.18-8.48,7-45.58,7-55.5C636,455.1,625.77,490.09,621,499.59a75.29,75.29,0,0,1-17.87,22.62c7.24-49.5,33.78-89.87,60.11-130.64-41.94,41.73-75.32,89.28-102.05,142C565,501.9,566.9,469.92,593.28,442.58Z"/><path class="cls-10" d="M404.64,341.06c-16.72,53.06-34.2,103.34-43.21,155.58C362.88,452,350,410.15,328.59,369.46c0,13.93.58,28.05,5.94,41,5.75,13.88,16.21,57.68,9.25,73.63-6.3-9.68-16.63-48.85-22.15-57.32-1.16,12.92,1,25.44,4.12,37.83,5.19,20.8,3.34,13.56-.15,22.31-14.29-49.32-37.83-66.91-77.9-71.61,45.73,29.07,48.23,37.27,63.28,76.21-13.69-9.65-22.53-22.14-29.66-24.37,4.14,12.68,6,36.75,1.52,48.68-10.55-4.42-19.26-8.74-28.64-11.81-8.58-2.81-17.89-4.26-26.89-6.32,30.21,20.08,63.15,36.29,67,69.64H500.27c-5.58-46.88,15.39-89.45,30.91-133.08-27,23.82-41.36,52.16-53.17,81.71-9.68-73.34,1.43-95.14,26.76-164-48.56,60.86-46.24,82.82-59.63,152-5.59-29.85-.9-60.07-7.21-89.84C432,430,420.07,494,407.92,508.82c0-31.53-3.86-63.16-3.86-94.7h0L390,478.23C377.16,452,415.5,363.59,404.64,341.06Z"/><path class="cls-10" d="M83.28,376.88c29.55,45.72,59.08,88.63,81.17,135.58-13-41.71-11.79-84.58-2.27-128.53,3.66,13.13,6.77,26.62,5.1,40.23-1.79,14.58-.21,58.63,10.49,71.88,3.4-10.77,2.91-50.41,5.88-59.83,4.46,11.89,5.66,24.27,6,36.76.54,21,2,29.23,7.55,36.58.58-49.84,19.67-89.79,53-103.36-35.42,39.31-39.37,79.76-43.37,120.41,10.36-12.66,35.93-45.86,42.05-49.81-.58,13-12.82,23.27-5.53,33.37,8.77-6.92,15.83-13.25,23.85-18.58,7.34-4.88,15.71-8.67,23.63-12.94-23.17,26.79-49.91,50.64-44.87,83.11L52.34,615.23c-7-45.68-37.78-80.41-63.75-117.55C20.22,513.14,41.07,536.16,59.88,561c-10-71.72-26.13-89.4-67.9-147.77C53.5,458,57,479.34,87.66,541.14,85.14,511.52,72.85,484.22,71,454.49c9.7,13.46,37.59,70.67,52.89,81.54-8.22-29.75-12.83-60.6-21.05-90.36h0l29.94,56.83C138,474.4,78.94,401,83.28,376.88Z"/><path class="cls-10" d="M1506.58,445.23c-7.71,34.2-16.44,66.94-17.47,99.13-4.62-26.23-21.51-48-45.74-67.37,1.81,8.11,4.22,16.2,10.65,22.65,6.9,6.92,13.59,13.41,9.58,24.08l-18.78-12c.69,7.75,4.28,14.59,8.63,21.17,7.32,11.06,9.17,15.85,7.26,21.63-18.95-25.61-49.68-39.5-82.5-34.66,44.12,7.74,62.39,27.29,80.8,46.92-13.33-2.87-24-7.4-35.86-11-4-1.2-11.11,0-17.67.15,5.32,6.54,19.32,7.49,17,15.32-9.88-.46-18.11-1.22-26.78-1.13-7.93.09-16.32,1.1-24.51,1.71,29.26,5.62,60.4,8.46,68.23,27.07l181.32-41.25c-11.11-26.14,1.72-55.09,9.62-83.58-20.65,19.27-29.52,38.61-36,58.16-18.22-40.71-2.43-86.07,10.77-131.17-34.71,45.12-38.66,87.88-41.29,130.79-8.87-16.24-8.73-34.75-18.24-50.8-3.1,10.42-1.1,20.29-5.65,30.34-4.78,10.57.48,19.65-8.26,30.73l-12.51-55-3.41.72q-2,20-3.91,40.09c-14.77-12.7-2-30.46-5.87-45.08-.11-.43,2.09-1.37,2.07-1.86C1507.44,469.63,1519.13,456.17,1506.58,445.23Z"/><path class="cls-10" d="M1313,622.49c10.29-3,10.18-9.5,13.55-13.94,3.85-5.06,8.3-9.86,11.68-15.1,3.53-5.47,7.74-10,18.81-14.38-9.61,14.66-21.67,25.12-19.77,41.22,12-8.23,16.71-18.85,25.74-26.79,9.25-8.12,19.21-15.74,29-23.48.43-.34-21.85,23.81-24.6,39.93,3-17,52.42-41.76,69.63-48.64.7-.27-49.36,45.32-62.26,74.88H1182.26c-4.19-13.85-14.74-25.07-29.78-34.6l12.54,3.59c-.2-1.52,0-2.45-.43-2.84-4.44-3.61-9-7.12-14.92-11.73,13.33,2.32,24.93,11.94,32.9,26.3,2.45-3.4-9.38-32.05-14.9-39.24-4.93-6.41-22.9-21.21-22.9-21.21,9.76-3,21.14,12.46,26.33,19A172.48,172.48,0,0,1,1181.95,591c1.73,2.73,13.19,18,12,20.49,2.94-6.3,2.26-11.89,1.43-17-1.09-6.65-14.41-46.8-2.06-99.63.71-3-1.42,3.3,0,0,5.39,32.69-3.78,66.4,12.13,101.38,3.13-16.38-2-30.73,7.36-44.11-5.82,17.39-1,22-2.26,32.53-1.31,10.85,1,21.36,6.16,33.46,4.25-37,16-69.5,58-92.08-1.67,3.12-31.72,32.75-41.62,57-1.68,4.12-9.44,33.63,5.7,34,9.53-.34,10.69-6.88,14.86-12.64,4-5.48,6-17.38,10.79-22,1.78-1.7-5.54,27.88-4.93,36.31,13.51-23.31,21.72-56.05,43.92-64.7h0c-12.68,11.32-17.92,31.42-18.53,45.93A44.71,44.71,0,0,0,1286,613c6.09-13.1,11.86-26.16,25.39-39.89-2.4,8.56-2.86,14.48-5.79,19.54-3.56,6.14-1.4,11.8-2.38,20.58.94-8.4,50.14-76.56,60.87-67.25C1364.11,546,1317.66,580,1313,622.49Z"/><path class="cls-3" d="M1426.8,77.11c-8.2-2.37-41.94,22.64-77.79,60.66-26,27.56-36.67,64.69-35.6,92.11.32,8.16,5.36,16.8,1.08,22.55-23.83,4.29-28.85,8.18-31,15.19l-.23.07c-2.07.08-4.72,3.2-6.22,4.73,1.41,1.23,4.32,1.06,6.5,1.85,2.35,6.77,10.87,15.49,22.66,21.74.42.22.86.44,1.31.65a41.17,41.17,0,0,0-3.52,6.88c-9.42,25.77-10.64,64.38,5.65,98.58,22.47,47.18,46.92,81.33,55.45,81.59a16.3,16.3,0,0,0,3.33.66c-1.31-3.94.32-3.07-1.91-6.55-1.12-1.74-2.3-3.47-3.26-5.31,2.18-1.91,1.82-4,.9-6.61a27.49,27.49,0,0,0-4.3-7.78c-1-1.17-3.09-2.14-2.45-3.62.24-.55,1.43-.61,1.72-1.34.56-1.42-1-4.22-1.44-5.6a31.07,31.07,0,0,0-3.19-6.69c-1-1.84-4.35-5.73-4.43-7.82-.05-1.31.85-1.13,1.42-2.16a6.14,6.14,0,0,0,.4-2.36c.19-2.84-.75-5.81-1.25-8.58a17.82,17.82,0,0,0-1.14-4.52,14.23,14.23,0,0,1-1.46-2.95c4-2.8,1.62-8.47.91-12.69-.4-2.39-2.15-6.61-1.39-8.65.24-.64,1-1.19,1.33-1.9a11.32,11.32,0,0,0,.72-4.06,22.06,22.06,0,0,0-1.43-7.54c-.55-1.53-2.09-3.37-1.86-5s1.87-2.63,2.6-4.14a14.55,14.55,0,0,0,1.34-5.81c0-2.42-1.9-5.4-1.44-7.67.33-1.64,1.47-2.88,1.71-4.71a21.64,21.64,0,0,0,0-6.9c-.23-1.13-.2-2.71-.46-4.09.17-.71.27-1.13.27-1.21a19.12,19.12,0,0,1,.91-3.86c.18-.72-2.63-.38-2.41-1.15,1.06-3.68,6.13-8.25,10.5-13,.71-.76-2-.78-1.32-1.55,2.73-2.89,7.68-6.46,10.21-9.4.54-.63-.29-.75-1.06-.89a161.9,161.9,0,0,0,19.31-.18c15.57,7.05,63.15,28.36,63.5,25.44.42-3.49-9.49-8.4-8.65-8.82,1.52-.76,3.31-2.1,1.35-3.61l-10.7-8.26s4-1.54-.38-3.79L1419,302.69l16.71.5c4.94.15,2.16-3.14,2.16-3.14l13.36-2.08c2.45-.38,1.53-2.41.56-3.81-.54-.78,10.51-.31,11.83-3.56,1-2.55-44.52-6.47-64.29-8.05a140.77,140.77,0,0,0-18.78-14.26c-.75-3.48-4.8-10.16-4.89-12.39-.07-1.86,3.77,3.22,3.63,1-.24-4-4.25-8.52-5.51-11.68-.58-1.45,3,.42,2.4-1-1.51-3.57-5.13-8.49-6.84-12.08-.46-1,2.17-.13,1.73-1.07-2.71-5.82-6.14-11.72-6-15.55,0-.8,2.6.38,2.64-.36a19.19,19.19,0,0,1,.32-4c0-.08.06-.51.12-1.24.67-1.23,1.13-2.74,1.69-3.75a21.57,21.57,0,0,0,2.14-6.56c.34-1.81-.36-3.35-.18-5,.26-2.3,3-4.56,3.72-6.86a14.55,14.55,0,0,0,.51-5.94c-.23-1.65-1.49-3.08-1.21-4.73s2.31-2.91,3.31-4.2a22.1,22.1,0,0,0,3.68-6.74,11.34,11.34,0,0,0,.56-4.08c-.07-.76-.65-1.53-.68-2.21-.09-2.17,2.86-5.65,4-7.8,2-3.81,6-8.45,3-12.36.52-1,1.55-1.54,2.3-2.36a17.87,17.87,0,0,0,2.47-4c1.33-2.49,3.13-5,3.82-7.79a6.2,6.2,0,0,0,.35-2.37c-.23-1.15-1.14-1.26-.69-2.49.72-2,5.06-4.65,6.62-6.08a31.16,31.16,0,0,0,5.08-5.39c.8-1.19,3.18-3.36,3.08-4.89,0-.78-1.17-1.2-1.22-1.8-.16-1.61,2.17-1.88,3.44-2.7a27.54,27.54,0,0,0,6.48-6.09c1.66-2.16,2.66-4.08,1.17-6.57,1.47-1.46,3.13-2.74,4.73-4.06,3.19-2.63,1.38-2.31,3.83-5.65A16.19,16.19,0,0,0,1426.8,77.11Z"/></svg>