<svg id="Layer_1" data-name="Layer 1" xmlns="http://www.w3.org/2000/svg" viewBox="0 0 1600 680"><defs><style>.cls-1{fill:none;}.cls-2,.cls-3,.cls-5,.cls-6{fill:#231f20;}.cls-3{opacity:0.5;}.cls-4{opacity:0.6;}.cls-5,.cls-7{opacity:0.4;}.cls-6{opacity:0.7;}</style></defs><title>Spotlight area_marine</title><path class="cls-1" d="M1583.05,436.27c24.06-45.94,107.58-58.45,153-58.5"/><path class="cls-2" d="M1307.22,327l-.51.58c-.34.39-.85,1-1.41,1.69a53.74,53.74,0,0,0-4.57,7,89.91,89.91,0,0,0-5.5,11.94,117.52,117.52,0,0,0-7.44,36.52,106.12,106.12,0,0,0,.18,11.07,88.45,88.45,0,0,0,1.6,11.43,68.92,68.92,0,0,0,8.75,22.37,60.58,60.58,0,0,0,7.53,9.84,66.1,66.1,0,0,0,9.45,8.2,79.8,79.8,0,0,0,22.46,10.86,122,122,0,0,0,23.89,4.58,179.13,179.13,0,0,0,22.81.61c7.27-.2,14.11-.9,20.42-1.59s12.05-1.65,17.13-2.54l7.11-1.31,6-1.24c3.63-.73,6.45-1.45,8.39-1.88l3-.68-3,.71c-1.93.44-4.75,1.2-8.37,2l-6,1.31-7.1,1.39c-5.07,1-10.82,1.89-17.12,2.74s-13.16,1.54-20.45,1.82a180,180,0,0,1-22.92-.36,123.09,123.09,0,0,1-24.16-4.36,81.18,81.18,0,0,1-23-10.8,67.72,67.72,0,0,1-9.77-8.3,62.27,62.27,0,0,1-7.85-10,70.81,70.81,0,0,1-9.24-22.88,90.43,90.43,0,0,1-1.77-11.69,108.23,108.23,0,0,1-.31-11.31,120,120,0,0,1,7.2-37.4,92.66,92.66,0,0,1,5.54-12.37,56.5,56.5,0,0,1,4.76-7.44c.64-.86,1.14-1.42,1.47-1.81l.51-.59Z"/><path class="cls-2" d="M1283,330.47l-.56.47c-.37.31-.92.77-1.57,1.37-1.32,1.19-3.27,3.07-5.59,5.59a195.58,195.58,0,0,0-17.55,22.47c-3.31,4.9-6.71,10.34-10,16.25a182.9,182.9,0,0,0-9.32,19.15,119.44,119.44,0,0,0-6.8,21.66c-1.5,7.56-2.19,15.5-.85,23.22a40.42,40.42,0,0,0,3.53,11.08,36.68,36.68,0,0,0,6.66,9.41c.7.66,1.33,1.39,2.08,2l2.2,1.83,2.33,1.65c.76.57,1.62,1,2.42,1.5l1.22.73,1.26.64c.84.41,1.67.86,2.52,1.25,1.73.71,3.42,1.5,5.18,2.05a95.29,95.29,0,0,0,20.8,4.56,169,169,0,0,0,19.13,1c3,0,5.82-.1,8.52-.2s5.27-.25,7.68-.44l6.74-.55,5.71-.61c3.45-.35,6.14-.78,8-1l2.83-.37-2.82.41c-1.84.24-4.53.71-8,1.09l-5.71.68-6.74.63c-2.41.22-5,.34-7.68.54s-5.56.24-8.54.3a169.6,169.6,0,0,1-19.21-.77,96.13,96.13,0,0,1-21-4.35c-1.79-.54-3.52-1.32-5.29-2-.87-.38-1.72-.83-2.58-1.24l-1.29-.63-1.25-.73c-.82-.5-1.7-.93-2.49-1.5l-2.41-1.66-2.29-1.86c-.78-.61-1.44-1.35-2.17-2a38,38,0,0,1-7-9.66,41.86,41.86,0,0,1-3.79-11.43c-1.47-7.95-.85-16.09.58-23.82a121.21,121.21,0,0,1,6.64-22.09,184.86,184.86,0,0,1,9.2-19.49c3.28-6,6.65-11.55,9.94-16.55a198.47,198.47,0,0,1,17.53-23c2.35-2.61,4.31-4.55,5.73-5.86.71-.67,1.25-1.13,1.61-1.44l.55-.48Z"/><path class="cls-2" d="M1244,419.37c-2.56-11.61-3.6-23-2-34.83.18-1.37.39-3.29.65-5.23a43.92,43.92,0,0,1-12.73-7.27,72.58,72.58,0,0,1-6.29-6.15c1.86-1.91,4.2-2.72,6.52-4.08.83-3.58,2.43-5.91-1.05-10-2.2.26-11.48,3.18-13.06,1.76-1-.9-1.18-6.44.22-6.85,15.08-4.44,29.32-11.48,37.54-25.52,6.75-11.53,12.33-25.84,22.28-35.2,18-16.9,55.17-40.95,82.47-39.48,12.48.67,25.21,1.78,37,6.66,19.27,8,17.09,19.5,23.53,15.18,10.9-7.32,21.07-3.84,27.3-1.76a46.56,46.56,0,0,1,22.46,15.75c3.73,4.85,7-2.88,12.86-1.67,6.66,1.38,14.52,13.06,21.32,9.82,10.43-5,12.82,7.53,31.25,7.91,5.71.12,14.27,2.59,16,9.2,2.55,9.94-10.95,11.26-15.13,17.27-6,8.54-17,8.86-23.74,20.76-2.43,4.31-8.21-.7-14.52,2.2a22.56,22.56,0,0,1-7.47,14.63c-11.41,10.32-10.92,7.17-24.55,10.45-5.28,1.27-5.08,13.45-8.24,17.91-3.46,4.9-8.4,9.12-13.17,12.7-16.73,12.54-46.59,13.25-64,2-8.29-5.36-14-12.82-22.47-17.52,2.47,13.13,5.82,25.84,12,37.55a26.34,26.34,0,0,0,3.17,5.12c1.56,1.78,3.93,2.26,3.84,5.13-14.12,3.63-24.8-35.19-26.34-45.66a26.75,26.75,0,0,1-.26-5.38c-2.16-.74-4.33-1.42-6.52-2,.19,2.26-.15,4.18-1.46,5.45a7.51,7.51,0,0,1-1.62,1.15c3.45,13,3.93,27.34,7.3,40.22.51,1.94,4,12,1.63,13.5s-5.54-7-6.09-8.34a137.67,137.67,0,0,1-6.63-21.34c-.92-4.17-2.55-8.12-3.48-12.28-.44-2-1.71-6.44-2.29-9.89a5,5,0,0,1-2.6-.68c-2-1.74-3.35-6.19-4.28-11-2.07-.09-4.15-.08-6.24,0a5.83,5.83,0,0,1-2.1,2,4.69,4.69,0,0,1-.85.34c2.86,6,7.09,10.33,7.11,17.39,0,12.49-5.74,21.84-10.89,32.64-2.92,6.13-3.93,12.82-6.31,19.16s-6.62,16.14-15,14.35c2.11-7.69,3.14-21.63-2.33-28.06-2.11,7.55-.21,13.16.37,20.28-7.24-.51-13.29-10.17-15.44-16.43-2.77-8.06-.09-16.31-1.89-24.54-1.88-8.57-1.08-24,4.76-33.27a100.86,100.86,0,0,1-22.27-1.53c-1.44,7.24-2.91,17.15-1.37,27.44.74,4.92,3,15.69,5.11,20.2,2.45,5.32,5.27,13,9.92,16.47-5.13,2.07-11.54-5.37-14.32-8.93C1247.14,431.68,1245.47,426,1244,419.37Z"/><path class="cls-3" d="M561.62,211.3c.51-3.53-9.91,1.5-11.9-.82-2.89-3.37-13.21-.19-19.29,1.3-5.55,1.36-9.83,4.63-15.21,6.24-6,1.8-11.48,3.21-17.41,5.44-11.63,4.38-23,8.6-34.9,12.16-5.7,1.7-11.27,4.13-16.94,6-3.11,1-6.48,1.38-9.48,2.73-2.77,1.25-4.32,3.13-7.5,2.46-11.75-2.45-22.83-8.74-35.37-6.3-1.4.27-4.22,2-5.6,2.37,6.61,1.93,19.24,3.61,16.72,12.13-2.43,8.21-16.26,12.35-23.53,13.88-8.23,1.73-16.06,4.67-24.24,6.53-8.44,1.92-17,1.37-25.55,2.18-9.58.91-19,3.62-28.38,5.59-3.2-5.59-5.43-10.29-11.33-13.6-5.49-3.08-13.72-5.67-20.08-5.09a24.19,24.19,0,0,1,5.91,10.93c.77,3.68-.72,11.27,1,14.35,1,1.7,4.29,1.27,4.45,3.36.19,2.58-3.54,2-2.56,4.89.64,1.87,2.87,2.51,3.38,5,.46,2.24-.1,3.91-.71,6-1.25,4.31-3.37,7.4-5.58,11.2,6.08-4.12,13.93-7.1,18.2-13.31,3.76-5.48,4.74-11.71,7.61-11.77,7.87-.16,19.72,2.5,27.76,2.56a148.93,148.93,0,0,1,23.45,1.84c16.25,2.7,31.86,2.1,48.28,2.09a291.23,291.23,0,0,0,52.54-4.88c17-3.07,33.92-9.9,47.81-20.24,1.31-1,2.59-2,3.87-3-4.4,8.34-1.34,9-1.56,13.83-.16,3.43-3.92,11.17-2.81,14.09,2.25,5.93,15.21-12.82,16.6-16,4.16-9.51-1.85-20.51,4-29.16s15.67-14.33,22.65-21.85a141.07,141.07,0,0,1,12.29-11.59c3.89-3.31,8.29-10.12,3.43-11.53"/><g class="cls-4"><path class="cls-2" d="M208.94,661.75c-.3.27-.67.51-1,.75,4.32-3.72,6-8.75,6-14.3,0-7.27.64-9.32,6.62-13.78,9.59-7.16,16.07-16.4,23-26,15.1-21,1.44-43.28,8.27-66.28,2-6.8,2.64-13.62,7.56-18.93a12.76,12.76,0,0,1,7-4.23c3.65-1,3.15,1.56,6.29-1.53,1.94-2.1,2.45-6.08,1.43-7-2-1.8-2.75.26-4.41-.79-2.32-1.46-2.65-4.71-4.74-6.58-2.55,1.73-3.7,2.6-4.65,5.18s-.25,4.8-2,7.27c0,0-3.44-.28-5.25,5.7-.78,2.58-3,4.41-4.34,6.72-1.82-4.73,0-7.3,1.62-11.57s-1.71-6.18-2.24-10.46c-.4-3.26,3-4,1.72-7.17-2.25-5.72-4.93-.72-7.34-1-1.73-.2-2.07-1.79-3.26-1.37-4.72,1.7-4.17,4.17-2.22,7.84,2.92,5.51,2.92,5.5,1.39,11.43-1.79,6.92,4.47,14,1.28,20.88-2,4.36-4.77,3.83-2.51,9.23,2.33,5.57,2.81,5.32.9,10.85-1.49,4.31-.18,4.85,1,8.82.73,2.54,1.46,7.1-1.9,8.34-7.58,2.78-7.56-11.27-8.07-15.16-.42-3.22-1.77-6.5-2.09-9.65-.41-4.12,1.64-5.08,3.15-8.63,1.78-4.21-1.61-8.82.56-12.79,2-3.57,7-4.37,6-9.23-.19-.91-2-1.58-3-3.18-1.47-2.23-.53-7-2-6.86-3.09.39-6.79,9.55-7.89,12-1.65-3.62,2.44-12.71-.08-14-5.62-2.92-3.52,2.31-6,3.41-1.43.63-5.15-1.67-5.9-1.3-4.06,2-3.6,4.32,0,8,3.81,3.89,1.78,6.38,2.66,11.13.74,4,5.6,9,5.5,13-.12,4.9-1.45,4.25-5.74,3.09-12.37-3.34-10.62-21.26-17.71-15.26-.8.68-.21,3.21-1.47,5.23s-4.36,3.54-4.75,4.52c-2.43,6.12,6.09,6.65,10.9,8.16,8.16,2.57,16.21,11.31,16.43,20.51.26,10.73,4.84,13.17,11.59,21,5.89,6.83.34,17.37-3.08,24.37-3.6,7.38-9.2,13.54-13.12,20.78-2.08,3.84-2.42,6.45-2.71,10.73-.31,4.55-2.49,8.22-3.11,12.6a14.94,14.94,0,0,0,.45,6"/><path class="cls-2" d="M204.72,666.1c6.12-8.32-2.5-22.86-8-29.72,1.48-.63,2.92,0,4,1.45a15.28,15.28,0,0,0,4.49-4.41A43.7,43.7,0,0,0,206.47,648c1.34,5.4,3.58,13.31-.74,18"/></g><path class="cls-5" d="M474.3,91.48c.8,3,2.85,5.39,3.56,8.49.94,4.09-1.63,4.66-1.88,8-.11,1.51,1.58,2.84,1.31,4.32s-1.91,1.74-2.31,3c-.53,1.66.69,3.25.7,4.91,0,2-1,3.45-1.94,5.16-1.77,3.13-3.73,4.68-6.46,6.94,7,.18,12.54-2.31,18.53-5.76,5.35-3.08,7.92-8.8,12.92-11.84,5.49-3.34,13.34.34,19.39-.16,7.28-.61,13.7-1.45,21-.45,6.64.91,13.24,2.13,20,1.77s13.05-1.79,19.83-.67c13.36,2.19,27,.51,40.51.73s29-1.91,41.33-7.37c1.66-.74,3.3-1.53,4.93-2.33,1.38,8.46-13,13.26-19,14.49,16.77,6.22,37.06-3.95,44.4-19.58,1.79-3.82,3.38-7.4,7.57-9.06s9.33-1.52,13.79-3A121.85,121.85,0,0,0,724.77,84c4.13-1.9,6.94-4.82,10.71-7.14,4.17-2.56,28.35-3.73,18.21-12-5.22-.87-11.39,1.08-15.44-3-1.93-1.93-2.94-4.08-5.67-5.07s-19.32-3.19-25.21-2.94a125.3,125.3,0,0,0-20.11,2.32c-13.9,2.83-27.84,5.48-41.69,8.59-6.25,1.4-12.93,1.83-19,3.93-6.25,2.17-10.67,5-17.36,2.61-5.43-2-11-2.76-16.67-3.8-5.28-1-12-2.8-17.25-1.58a24.13,24.13,0,0,0-4.52,1.7c5.46,1.9,17.06,6.91,11.84,14.5-5.1,7.42-19.28,7.22-27.14,9.29-10.32,2.72-20.19,4.29-30.7,6A86.41,86.41,0,0,0,509,102c-3.7,1.34-7.42,2.78-11.16.86-4.19-2.15-7-6.57-11-9.07s-8.06-3-12.63-2.61"/><path class="cls-6" d="M467.14,155.33s-1.87.24-1.86-.1c0-1.06-.3-1.72-1.33-1.93-4.87-1-10.14-.11-15.22-1.85-1.64-.64-1.53-3.61-2.87-4.61-3.39-2.52-8-3.63-14.13-5.09A176,176,0,0,0,392.21,139c-25.8,1.61-55.91,2.21-80.51,9.33-12.06,3.84-24.12,7.67-37.08,8.93-9.69-9.4-24-13.62-33.42-17-5.06-1.65-15.55-5.27-21.05-4.07-8.22,2.14.63,3.1,3.91,8.42s8.78,8,4.66,16.76c-3,5.18-15.13,11.17-20.44,14.46-12,6.69-26.32,11.48-39.29,15.45-22.58,6.23-36.87-.55-68.56,9.66-6.09,2-10.24,5-14.65,4.82-5.87-.27-8.94-4.21-16.53-8.34-10.62-5.78-24.27-9.35-36.2-13l-.77-.51a4.33,4.33,0,0,0-.54.11l-.16,0,.12.05c-5.35,1.49,10.15,11.45,14.62,15.8,7,7.79,7.16,17.24,18.61,12-2,1.58-1.14,2.91-3.8,4.55,2.37,2.94,0,0,6.51,2.22.13,1.39.19,2.09,2.4,3.29,4.83,3.07,23.65-2.12,23.65-2.12,11.89,3.49,38.61,9.67,52.41,13.53,25.16,6.86,52.84,1.19,79.36,1.3,18.94.08,47.53-2.93,71.28-6.74l11.91-1.9a3.57,3.57,0,0,0-.29,1.85c.79,2.43,2.57.24,4,2.15-1.1.85-2.45,1.66-3.61,2.49-.3,3.23,2.3,6,1.77,9.37-.41,2.62-2.48,5-3.82,7.17,8.23-1.13,14.85-4.47,18.62-12.17,2-4.07,4.31-10.23,3-14.26,12.69-2.46,25-5.55,36.81-10.3-12,7.39-4.91,11.66-8.46,19-1.71,4.36-11.61,13.55-11.24,15.39,2.67,13.22,30.38-17.1,33.42-22.28,5.14-9.45,7.26-16.78,8-23.86,0,0,11-4.84,17.87-7.91,12.78-6.06,25.75-13.88,38.41-21.33C450.42,166.38,469,164.5,467.14,155.33Z"/><g class="cls-7"><path class="cls-2" d="M1165.16,530c-.83-4.38,3.72-9.59,4.88-13.86a39.27,39.27,0,0,0,1.29-14.72c-1-9.53-5.28-16.28-12.29-22.45-8.56-7.53-20.4-8.82-30.23-14.75-5.55-3.35-8-7.55-9.27-14.09-1.42-7.12.22-10.59-8-10.9-3-.12-8.83,1.89-11.52-.43-5.56-4.8,1.1-6.39,4.32-8,6-2.93,9.26-7.86,2.92-13.1-3.85-3.18-9.37-3.9-12.53-8.55-2.94-4.33-.06-8.89-2.23-12.58-1.8-3.06-6.41-3.06-9.08-4.42-4.9-2.49-4.67-5.23-6.87-9.33-1.23-2.28-7.17-4.19-7.22-7.64,2.65-1,5.09-3.67,7.89-2.44,2.41,1.06,2.53,5.59,4.89,6.31,4.87,1.47,4.52-9.83,9.46-10.46,6.46-.82,5.32,20.18,8,25.54S1109,406,1111,396.12c1-5-3.21-9.38-4.23-14.43-.82-4.06-1-12.08,5.43-10.78,5.46,1.11,4.46,8.28,6.83,12a14.22,14.22,0,0,1,.91,3.08c4.38-1.93,7-4.55,10.58.79,1.74,2.58,1.71,6.52,1.09,9-1.67,6.79-7.78,11.31-7.36,19,5.28.3,12-8,16-3.2,3.21,3.81.58,12.44-.73,16.3-3.22,9.54-8.64,20.5-4.4,31.1,6.56-.29,6.41-6.25,8.22-11.06,2.86-7.6,7.92-7.42,9.81.39,2.13,8.79-.87,18.73,5.13,26.36,3.24,4.12,8.8,5.67,12.61,9.42,3.29,3.23,4.29,6.28,5.82,10.73,3.26,9.54-.53,14-4.25,22.65-1.78,4.15-3.15,9-6.37,12.25"/><path class="cls-2" d="M1175.73,528.2c2.92-4.12,8-6.29,10.71-10.8,2-3.25,2.66-7.15,3.25-10.8,1.4-8.59-1.33-20-5.76-27.59s-13.46-11.09-18-18.7-3-16-6.57-24c-2.14-4.81-17-17.76-6.17-19.33a7.52,7.52,0,0,0,2.93,3.62c6.57-5.67-6.14-11.8-9.08-15.14s-1.71-5.16-2.27-8.44-3.21-5-4.42-8.37-.66-5.9,3.75-6.27c5-.42,6.06,3.53,8.45,6.74,4.64,6.24,5.58-2.17,10.5.58,3.39,1.89,1.72,7.1,3.12,10,7.35-.3-.41-21.95,9-20.39,2.48.41,1.86,3.94,4.18,4.23,2.8.35,5.88-4.84,8.28-5.57,4.85-1.47,9.76,3.88,10,8.89.3,5.34-5.4,8.32-9.4,10.68-2.18,1.29-13.25,6.1-12.94,8.35.54,4,8.58-1.48,7.22,5.66-1,5.12-8.35,7.55-10.69,12.26-2.47,5-.31,7.92,1.69,12.34,1.88,4.16.56,7.47.77,12.15.19,4.35.41,10.58,6.27,8.72s7.63-8.34,6.16-13.38c-1.87-6.38-6.3-6.9-9.64-11.39-3-4-1.77-9.06,3.19-10.41,7.93-2.15,6.92,7.48,12,6.54,4.47-.83,2.53-8.62,8.95-6.61,11.28,3.52,2.23,15.62-.51,21-.94,1.85-2.8,4.5-1.74,6.6,1.4,2.77,4.24,1,6.47,3.61,3.51,4.13-1.52,8.37-4.59,10.65-3.39,2.51-7.86,4.18-9,8.9-1.48,6.18,4.61,4.62,6.91,9,1.72,3.3,1.31,8.11,2.05,11.76.92,4.54,1.83,8.55-.74,12.73s-7.3,9-10.64,12.61a54.09,54.09,0,0,1-12.78,9.71"/><path class="cls-2" d="M1176,530.92c8.48-4.45,15.19-8.23,21.85-15.57,4.63-5.09,11.45-13.69,11.48-21,0-5.31-7.22-17.09-4.89-21.45.46-.87,7.57-4,9-3.64,3.53.88,4,6.91,5,9.9,5.29-.38,6-7,9.55-9.5,5.07-3.67,11.39-3.11,13.94,1.63,4.92,9.14-9.61,16-16.06,20.75-2.47,1.84-10.51,7.85-11,10.6-1,5.75,5.75,2.46,8.18,5.38,6.1,7.34-16.41,11.37-21.1,12.79-8.64,2.61-15.52,8-24.33,10.22"/><path class="cls-2" d="M1166.55,531.2a45.72,45.72,0,0,0-10,4.12c-3.31,1.89-6.53,5.21-10.06,6.51-3,5.43,1,6.56,4.94,8.44,3.46,1.65,9.66,6.68,7.6,11.25-1.52,3.37-10.49,4.59-13.73,4.88-6.5.59-9.36-2.19-9.23-8.54.05-2.38,1.72-4.39.12-6.87-1.75-2.71-6.16-2.4-8.53-4-7.44-5.14.86-9.64,7-11.6,9.93-3.18,29.13,2.78,27.84-12.79-1.89-22.91-28.74-25.7-44.5-15.48-4.38,2.84-8.84,5.73-12.67,9.54-4,4-6.82,8.4-12.15,9.62-24.75,5.68,3.95-13.06-8.9-16.74-5.58-1.6-10.36,1.94-14.73,3.45-8.68,3-8.69.94-6.92-5.74,1.94-7.33.52-8.42-6.25-8-4.09.25-9.69-1.43-6.38-7.37,6.55-11.76,20.85,2.66,27.92,5.22,12.42,4.5,16-8.84,6-14.83-8.62-5.17-21.8,1.67-29-5.88-3.62-3.78-2.11-8.59-6-11.69-4.15-3.28-8.78-1.77-13.64-1.75s-13.9-2.06-8-8.12c4.82-4.95,13.64,1.13,7.3-7.33-7.5-10,6.15-15.56,10.2-5.42,1.37,3.42,2.28,10.47,7.89,7.5,4.5-2.38-.81-8.46-1.44-12.41-.59-3.69-1.3-5.11,4.35-5.41a9.12,9.12,0,0,1,5.67,1.55c3.53,2.34,5.45,8.5,5.77,12.59.39,5.11-1.9,9.17.23,14.56,1,2.63,4.86,10.09,9.11,8.12,7.31-3.4-12-28.43,5.26-24.21,20.5,5,9.94,34.15,20.07,46.69,2.93,3.63,7,6.62,11.61,6.16,7.43-.76,9.82-6.37,6-12.66-4.53-7.56-23-8.18-19-20.58,2-6.13,11.85-8.8,16-4.26,3.15,3.45,4.31,8.08,5.61,12.56,3.2,11,10.61,10.43,20.11,13.92,15.22,5.6,34.62,25.38,25.11,43.29"/></g><path class="cls-2" d="M0,536.28a79.9,79.9,0,0,1,16.35,7.27c2.39,1.33,4.77,2.71,7.12,4.09s4.39,2.56,6.54,3.77c2.62,1.47,5.2,2.82,7.7,4,2,.9,3.91.87,5.8,1.43,2.48.74,5.06,2.29,7.71,3.09L55.13,561l3.6,1.06c2,.59,2.09,1.41,4.13,2,1.41.41,4.74.59,6.17,1l2.7.77c.9.25,1.8,1.29,2.7,1.54,1.81.51,3.63.23,5.45.73q3.38.93,6.76,1.81l5.23,1.35q2.91.74,5.76,1.42,2.29.55,4.54,1.06c1.86.42,3.69,1.6,5.49,2q2.38.49,4.73.89c1.49.25,3-.31,4.44-.1,2.8.38,5.58,1.47,8.34,1.72,3.94.36,7.84-.17,11.73.05,4.51.26,9,.49,13.5.8,3,.21,5.93.46,8.91.78,2,.21,4-.32,6,0,4,.6,8.09,2.16,12.18,3.21,1.56.4,3.08,1.55,4.58,1.9s2.84-.14,4.23.15c2.47.52,4.86,1.75,7.2,2.14,2.83.47,5.58.07,8.28.37q2.67.3,5.29.5c2,.15,3.94.27,5.9.35,1,0,2-.71,3-.69,2.74.07,5.49.85,8.28.81q2.56,0,5.17-.13l3.95-.16,4.32-.22,4.33-.25c1.54-.09,4.65.47,6.25.37s1.39-.85,2.9-.94l3.26-.21,2.56-.15c1.37-.08,6.34,1.37,7.7,1.31,1.57-.08-.48-1.67,1.08-1.73l2.35-.08c3.16-.11,7.05-2.21,10.19-2.26,1.57,0,2.39.42,4,.41q3.84,0,7.65,0c3.73,0,7.44,2.43,11.15,2.52,3.51.08,7,1,10.51,1.1l7.08.28,3.58.16c2.92.14,5.84-1.29,8.76-1.13l7,.38,5.34.3,5.24.31,8.85.53,4.53.27,5.87.34c2.75.16,5.5-.47,8.25-.33,1.94.1,3.88-.58,5.83-.49l8.21.38q4.08.17,8.19.31t8.34.24c1.86,0,3.72.87,5.59.89,3.75.06,7.51.87,11.28.87h5.91l5.86.06,3.52,0,5.84.11,2.95.06,5.69.14,2.53.07c2.73.07,5.46.93,8.2,1l3.54.1,7,.2c2.15.06,4.31-.67,6.46-.61l2.93.07,4.69.1c2.08,0,4.17,1.64,6.26,1.68l4.18.05,2.79,0,5.58,0c2.36,0,4.71-.73,7.07-.64,1.34.05,2.69-.67,4-.59q2.39.14,4.77.32l3.33.27,3.68.33q3.2.3,6.4.64c.92.1,1.84,1,2.76,1.07,1.84.2,3.68-.39,5.52-.2l5.24.54c1.56.16,3.12-.48,4.68-.34,1.76.16,3.51,2.66,5.26,2.79,2.33.18,4.66-.46,7-.35s4.65.18,7,.21c3.08,0,6.16-.81,9.24-1q2.31-.12,4.63-.33c1.06-.1,2.13,1.37,3.19,1.27,1.34-.12,3.86.54,5.2.42s1.37-.23,2.64-.34,2.71-1,4.07-1.15c2.47-.22,4.94-2,7.41-2.23l5.92-.52,2.31-.21,3.53-.31c1.15-.1,2.31-1,3.46-1.09.84-.08.52-.15,1.36-.23s3-.16,4-.25l4.11-.37c2.14-.19,4.28.4,6.41.21,1.42-.13,2.84.53,4.27.39l4.52-.41,4.52-.42c1.16-.11,2.32-1,3.47-1.11l5.08-.48c3.38-.33,6.75.13,10.11-.21,1.77-.18,3.42-1.19,5-1.47a54.94,54.94,0,0,0,7.83-2c2.06-.69,4-1.46,5.79-2.27,2.19-1,4.28-2.79,6.44-3.81,1.42-.67,2.88-1.35,4.41-2,1-.44,2.1-.87,3.21-1.28,2.31-.85,4.84-.86,7.71-1.54,1.25-.3,2.57.25,3.94.06s2.74-1.11,4.18-1.22c1.69-.12,3.43-.2,5.21-.25,2.12-.05,4.29-.06,6.48-.06,1.75,0,3.52.81,5.28.82,3,0,6-.75,8.93-.83,1.47,0,2.91-.1,4.31-.19s2.7-.21,4-.36a5.79,5.79,0,0,1,1.18-2.31,12.13,12.13,0,0,1,4.9-3.26,33.7,33.7,0,0,1,5.61-1.66,81.46,81.46,0,0,1,11-1.45c3-.22,6.15-.34,9.35-.39,2.14,0,4.31,0,6.47,0,3.16,0,6.31.89,9.38,1a43.46,43.46,0,0,0,5.92-.54c2.66.12,5.2.25,7.55.37,4.33.22,8,1.2,10.66,1.26l5.17.1,7.65.13c2.17,0,4.32-.71,6.45-.67l6.45.12,7,.14c1.18,0,2.35.84,3.52.87q4.45.11,8.84.25l4.73.17c2.29.09,4.58-.6,6.86-.49q4,.19,7.91.43l5.2.35,4,.31q4.08.32,8.21.72,3.15.31,6.35.66,3.91.43,7.91.95,5.67.73,11.57,1.65,3,.47,6.12,1c.79.13,1.58,1,2.37,1.17q5.08.8,10.18,1.39c4.67.54,9.36.19,14.06.53s9.38.59,14.09.79c2.15.09,4.31-.62,6.47-.55.29,0,6.34-1.74,17-4.91,7.16-2.12,26.54-23.78,37.53-27.07,8.52-2.55,15.6-8.64,49.13-18.74,13.33-4,31.69-5.73,46.69-10.26,20.08-6.06,32.05-25.31,54.18-32,10.13-3.06,23.59-11.24,34-14.38,10.79-3.26,34-6.3,45-9.62,17.7-5.36,21.78-19.6,39.54-25,22.53-6.82,46.39-4.09,68.14-10.67,16.12-4.88,31.36-18.78,46.57-23.38,26.07-7.89,34.92-12.37,56.75-19,15.13-4.57,22.73-9.7,35-13.39,13.35-4,48.87,2.74,58,0,15.32-4.6,22.84,24.39,23,24.41V680H0"/><path class="cls-2" d="M205,620.58c-10.67-11.14-14.15-14-15.66-29.92a77.52,77.52,0,0,0-9-30.54c-12.71-24.45-32.94-41.34-60.73-46.6C107,511.13,88.9,507,79.88,518.05c-3.29,4-7.3,11-8.69,16-1.47,5.33-.58,9.52.43,14.49,2.68,13.17-7.48,5.19-14.57,2.18-2.7-1.15-12-1.61-14.11-3.22-10.82-8.42,11.84-8.56,14.46-21-4.93-8.07-19.25-1.51-26.24-.38-3.79.62-4.78-2.72-7.16-6.87s-6.18-9.14-.43-11.15c5.08-1.78,24.71,3.33,33.9-3.31C78,490,43.76,499,37.83,500.29c-7,1.47-12.87,3.39-16.66-3.48-2.51-4.55-2.41-10.24,1.84-13.68-2.48-17.12,15.66-14.79,28.58-9.33-3.6-9.38-20.81-11.34-26.07-18.29-4-5.24,4-9,9.74-14.07,3.15-2.8,3.16-7.81,5.84-9.44,11.65,9.79,17,33.24,36.71,29.64,14.64-2.68,4.35-9.48-1.63-16.22-5.41-6.1-11.37-13.06-14.67-20.57,3-3.34,6.81-3.65,9.35.28,6.43-12.07,8.73-17.13,16.44,1A150.83,150.83,0,0,0,104,455.39c6.13,8.5,12.51,18,20.23,25.2,7.06,6.62,12.1,11.41,18.31,19.2,4.48,5.62,22.86,22.49,25.71,16.87,3.69-7.28-9.15-31-13-38.48-5.53-10.84-13.14-16.95-24.16-23.55-10.68-6.39-18.63-12.67-26.77-22.55C98,424.43,86.9,414.33,85.85,404c-1.74-17.09,17.09-7.61,21.82.71,1.86-5.59-2-11.37.69-16.66,4.55-9.09,7-6,11.72.64,8.23,11.65,1.78,25.33,10.66,36.27,2,2.45,11.19,12.85,14.45,12.22,7.49-1.44,2.6-13.86,1.09-17.85-4.69-12.42-11.7-23.85-16.46-36C128.12,379,126.24,369,134,368.13c7.06-.78,6.17,11.06,13.51,12.33,2-7.8,2.95-21.77,13.79-12.55,7.38,6.27,1.75,12.29-.16,20.13-1.47,6-.61,23.05,9.82,14.66,2.39-1.92,11.07-29,15.88-10.52-2.59,2-2.71,4-1.67,7.07,7.36-3.16,10.87,2,9.27,7.48-1.22,4.16-7,7.37-9.47,10.82-5.95,8.33-4,15.19-5.08,24.41-1.6,13.53-11.32,33.17-.38,46,13.9-5.27,18.87-31.87,20.55-44.62,1.13-8.59,0-17.35.91-25.65,1.57-15,9.63-4.47,13,4,2.58-3.1,3.23-7.24,7.34-9.18,16.44,13.61-14.35,26.49-1.92,40.44,8.37-.74,7.71-8.79,9.59-15.18,2.31-7.86,4.42-12.75,11.77-16.6a26.63,26.63,0,0,1,5.79,7.47c2.72-8.07,9.89-2.14,11.69,3.08-8.81,6.45-14.82,16.29-23.56,23.41-6.37,5.19-28,18.83-18,28.69,14.17-2.37,15.08-15.43,21.25-26.71,3.41-6.23,6.33-13.71,13.07-16.09,1.5-.53,3.14,3.71,5.87,3.37,3.86-.47,8.9-5.14,10.16-2.53-4,3.26-12.11,12.4-7.22,17.37,3.23-.8,9.34-6.39,12.21-6.17,3.29.26,7.55,6.48,9.64,9.3-5,6.68-43,16.34-35.31,25.21,9,.42,19.39-6.63,26.31,2.69,4.16,5.61-1.16,5.13-5.91,7.09-2.89,1.19-2.17,7.39-6.34,7.25-10-9.13-17.49-7.32-24.28-9.22,3.22,7,15.73,12.19,18.22,19.67a21.46,21.46,0,0,1-7.13,4.5c-2.33-1.05-2.44-5.3-4.46-6.31-2.27-1.14-7.5,2-8.43,0-7.64-16.66-18.34-7.4-30.49-.56-17.16,9.66-10.77,22.48-4.69,39.31,2.89,8,5.82,13.59,5,22.3-.76,8.51-2.11,12.56,1.56,20.58,6.15,13.45,10.38,24.93,13.57,39.44"/><path class="cls-2" d="M251.79,624.57c1.61-10.07,5-17.7,11-25.95,7.58-10.49,6.29-18.76,3.32-30.91-1.36-5.57-6.75-10-5.88-17.62,1.11-9.66-2.44-18-3.19-23.71-.56-4.33-.41-7.13,4.34-9.65,4.19-2.23,8,4.14,8.48,8.1.42,3.53-4,9.93-4.46,18.2-.43,7.16,6.25,15.14,6.25,15.14,3.16,0,3.38-4.22,2.51-14.76-.39-4.76,1.12-5.78,1.71-8.5s.26-7.13.88-8.48c1.58-3.41,3.58-8.44,6.77-5.21s-.91,14.9-1.8,18.42c-2.25,8.9,4.67,10.12-2.93,24.94-1.18,2.31-2.44,2.27-3.43,4.61-.93,2.19.11,6.14-.68,8.68-1.75,5.61-5.13,10.21-6.8,15.34-3,9.35-11.09,15.2-14.6,24.21a47.58,47.58,0,0,0-1.89,6.56"/><path class="cls-2" d="M256.49,612.58c-.12.45-.16.94-.24,1.4,1.48-6.32,5.66-10.7,11.28-13.62,7.35-3.82,9.08-5.55,10.44-13.95,2.18-13.46,8.11-24.88,14.16-36.9,13.23-26.29,43-24.25,62.63-43.26,5.81-5.62,12.38-9.84,15.15-17.62a14.54,14.54,0,0,0,.62-9.27c-.9-4.22-3.24-2.37-1.76-7.16,1.11-3.08,4.86-5.68,6.3-5.13,2.9,1.12,1.18,2.91,3.12,4,2.7,1.58,6.15.2,9.15,1.32-.4,3.49-.68,5.12-2.79,7.43s-4.73,2.78-6.31,5.82c0,0,2.1,3.32-3,8.31-2.2,2.15-2.9,5.31-4.51,7.92,5.73-.65,7.37-3.86,10.84-7.73s7.15-1.52,11.75-3.24c3.51-1.31,2.42-5.1,6.34-5.52,7-.74,3.33,4.61,4.87,6.89,1.12,1.64,2.91,1.15,3.1,2.57.78,5.67-2,6.41-6.75,6.37-7.11-.06-7.1-.06-12.29,4.62-6,5.45-16.55,2.87-21.78,9.7-3.34,4.36-1.36,6.84-8,7.4-6.86.58-6.86,0-11.44,4.81-3.57,3.78-4.8,2.74-9.41,3.68-3,.61-7.95,2.27-7.42,6.31,1.18,9.13,15.37,1.71,19.57.18,3.48-1.27,7.51-1.64,10.85-3,4.38-1.76,4.26-4.33,7.07-7.73,3.31-4,9.77-3,12.63-7.3,2.57-3.85.72-9.4,6.15-11,1-.29,2.62,1.14,4.8,1.37,3,.31,7.4-3.17,8-1.57,1.24,3.33-6.08,11.89-7.95,14.28,4.53-.24,11.57-9.16,14.22-7.3,5.91,4.14-.48,4.78-.28,7.89.12,1.77,4.4,4.32,4.43,5.28.14,5.14-2.48,5.92-8.06,4.22-5.94-1.81-7.38,1.56-12.65,3.18-4.46,1.37-12-.94-16,1.28-4.88,2.7-3.54,3.7-.1,7.43,9.89,10.74,27.08-.46,24.75,9.86-.26,1.16-3.13,1.9-4.51,4.24s-1.27,6.27-2.07,7.19c-4.9,5.68-9.93-2.66-14-6.73-6.9-6.89-20-10.42-29.38-5.8-11,5.39-15.86,2.05-27.32-.66-10-2.36-17.74,8.81-23,15.94-5.56,7.52-8.85,16.43-14.09,24.2-2.79,4.13-5.25,5.84-9.41,8.4-4.43,2.71-7,6.84-11.09,9.78a17,17,0,0,1-6.32,2.71"/><path class="cls-2" d="M254.31,619.14c5.18-10.56,24.42-9.51,34.25-7.58-.14-1.83-1.51-3-3.56-3.26a17.37,17.37,0,0,1,2.1-6.86,49.87,49.87,0,0,1-15.38,6.37c-6.16,1.49-15.34,3.39-17.75,10.2"/><path class="cls-2" d="M257,612.67c4.13-6.88,7.19-9.44,14.85-12,6.53-2.22,13.49-3.6,18.94-8.1,10.94-9,14-22.06,16.17-35.57,1.32-8,1.19-12.42-1.3-20.19-2.14-6.68-3.93-14.29-1.71-21.2,4.29-13.35,18.14-21.66,23.44-34.76,3.4-8.4,1.83-15.79,10.88-20.8,5.28-2.92,21.42-11.67,16.52-20.62-5.54.66-11.64,17.77-16.09,11.74s9.34-12.65,8.95-18.46c-1-14.91-5.91,6.1-11.78,2-2.83-2,4.75-8.08-1.38-11.2-4.24-2.16-5.87,5.22-6.49,8.43-1.28,6.57,1.37,13,1.24,19.84-.17,8.95-2.36,12.11-10,15.76-6.44,3.09-7.35,10.6-11.79,16.05s-3.88-5.46-5.71-10.3c-1.52-4-9.18-9.12-6.6-12.84,2.34-3.37,13.2-12.28,17-13.81,3-1.2,17.47-1.92,14.33-8.49-1.78-3.71-8.82.19-12-.06.42-3.58,7.75-21-4.75-9.08-2.6,2.48-1.63,11.3-5.51,16-7.39,8.86-6.87-3.9-5.76-9.16.92-4.32,6.8-17.09-.3-18.46-6.8,5-4.78,11.35-6.89,18.4-6.32-2.81-1.18-18.75-8.68-17.38-6,1.1-.71,16.82,1.11,20.51,3.88,7.91,9.71,11.43,5.46,24.45-2.4,7.36-5.46,8.21-4.28,16.69s5.29,17.41,7.55,27.9c1.74,8.1,4.71,15.45,5.27,23.55.58,8.39-.52,16.33-.17,24.73.32,7.73-3.07,14.66-4.05,22.25-1.26,9.84-2.82,15.63-12.85,18.82-8,2.54-21.2,3.06-22.27,13.54"/><path class="cls-2" d="M986.47,570.14c1.54-8.24-9.05-17.13-23.66-19.86s-34.22,9-35.76,17.27c-.73,3.92,2.76,6.33,8.2,8.08l42,3.44C982.26,577.24,985.72,574.13,986.47,570.14Z"/><path class="cls-2" d="M919.34,563.76c.34-4.86-6.36-9.29-15-9.9s-19.16,7.48-19.5,12.34,9.64,4.64,18.26,5.25S919,568.62,919.34,563.76Z"/></svg>