<?xml version="1.0" encoding="UTF-8" standalone="no"?>
<!-- Created with Inkscape (http://www.inkscape.org/) -->

<svg
   xmlns:dc="http://purl.org/dc/elements/1.1/"
   xmlns:cc="http://creativecommons.org/ns#"
   xmlns:rdf="http://www.w3.org/1999/02/22-rdf-syntax-ns#"
   xmlns:svg="http://www.w3.org/2000/svg"
   xmlns="http://www.w3.org/2000/svg"
   xmlns:sodipodi="http://sodipodi.sourceforge.net/DTD/sodipodi-0.dtd"
   xmlns:inkscape="http://www.inkscape.org/namespaces/inkscape"
   id="svg2"
   version="1.1"
   inkscape:version="0.91 r13725"
   xml:space="preserve"
   width="187.5"
   height="187.5"
   viewBox="0 0 187.5 187.5"
   sodipodi:docname="kbyg-footprints.svg"><metadata
     id="metadata8"><rdf:RDF><cc:Work
         rdf:about=""><dc:format>image/svg+xml</dc:format><dc:type
           rdf:resource="http://purl.org/dc/dcmitype/StillImage" /><dc:title></dc:title></cc:Work></rdf:RDF></metadata><defs
     id="defs6"><clipPath
       clipPathUnits="userSpaceOnUse"
       id="clipPath16"><path
         d="M 0,150 150,150 150,0 0,0 0,150 Z"
         id="path18"
         inkscape:connector-curvature="0" /></clipPath></defs><sodipodi:namedview
     pagecolor="#ffffff"
     bordercolor="#666666"
     borderopacity="1"
     objecttolerance="10"
     gridtolerance="10"
     guidetolerance="10"
     inkscape:pageopacity="0"
     inkscape:pageshadow="2"
     inkscape:window-width="640"
     inkscape:window-height="480"
     id="namedview4"
     showgrid="false"
     inkscape:zoom="1.2586667"
     inkscape:cx="93.75"
     inkscape:cy="93.75"
     inkscape:window-x="0"
     inkscape:window-y="400"
     inkscape:window-maximized="0"
     inkscape:current-layer="g10" /><g
     id="g10"
     inkscape:groupmode="layer"
     inkscape:label="footprints icon"
     transform="matrix(1.25,0,0,-1.25,0,187.5)"><g
       id="g12"><g
         id="g14"
         clip-path="url(#clipPath16)"><g
           id="g20"
           transform="translate(9.9517,75)"><path
             d="m 0,0 c 0,-36.657 29.717,-66.374 66.374,-66.374 36.658,0 66.376,29.717 66.376,66.374 0,36.658 -29.718,66.375 -66.376,66.375 C 29.717,66.375 0,36.658 0,0 Z"
             style="fill:none;stroke:#000000;stroke-width:11.36800003;stroke-linecap:butt;stroke-linejoin:miter;stroke-miterlimit:10;stroke-dasharray:none;stroke-opacity:1"
             id="path22"
             inkscape:connector-curvature="0" /></g><g
           id="g24"
           transform="translate(97.7061,65.3906)"><path
             d="m 0,0 c 2.338,-3.047 1.915,-7.23 0.287,-10.611 -0.983,-2.043 -2.377,-3.998 -3.843,-5.725 -4.581,-5.385 -10.543,-8.957 -16.885,-11.898 -1.543,-0.717 -1.947,-0.516 -2.722,0.968 -2.1,4.028 -4.5,7.842 -7.908,10.926 -0.792,0.715 -1.112,1.504 -0.513,2.524 4.65,7.949 10.99,13.873 19.963,16.613 3.756,1.152 8.252,0.807 11.076,-2.158 C -0.349,0.432 -0.167,0.221 0,0"
             style="fill:#000000;fill-opacity:1;fill-rule:evenodd;stroke:none"
             id="path26"
             inkscape:connector-curvature="0" /></g><g
           id="g28"
           transform="translate(48.4385,30.3691)"><path
             d="m 0,0 c -2.023,2.906 -2.239,6.947 1.031,10.053 2.623,2.496 5.769,4.146 9.032,5.631 0.794,0.359 1.146,0.107 1.504,-0.53 1.611,-2.869 3.237,-5.726 4.853,-8.59 C 17.236,5.117 18.049,3.666 18.975,2.016 17.73,1.162 16.519,0.217 15.204,-0.541 13.529,-1.504 11.823,-2.465 10.032,-3.162 5.992,-4.732 2.062,-2.955 0,0"
             style="fill:#000000;fill-opacity:1;fill-rule:evenodd;stroke:none"
             id="path30"
             inkscape:connector-curvature="0" /></g><g
           id="g32"
           transform="translate(106.0146,118.3057)"><path
             d="m 0,0 c -2.615,2.815 -6.81,3.104 -10.413,2.067 -2.18,-0.626 -4.343,-1.668 -6.29,-2.824 -6.081,-3.608 -10.604,-8.883 -14.568,-14.645 -0.968,-1.399 -0.84,-1.83 0.494,-2.843 3.619,-2.751 6.971,-5.756 9.44,-9.635 0.568,-0.899 1.295,-1.349 2.4,-0.932 8.617,3.248 15.526,8.5 19.736,16.886 1.765,3.508 2.183,7.997 -0.262,11.278 C 0.364,-0.417 0.185,-0.206 0,0"
             style="fill:#000000;fill-opacity:1;fill-rule:evenodd;stroke:none"
             id="path34"
             inkscape:connector-curvature="0" /></g><g
           id="g36"
           transform="translate(63.2012,75.6338)"><path
             d="m 0,0 c 2.522,-2.486 6.466,-3.376 10.08,-0.675 2.902,2.168 5.06,4.987 7.072,7.955 0.489,0.723 0.299,1.112 -0.273,1.572 -2.552,2.069 -5.096,4.151 -7.645,6.23 C 7.943,16.129 6.651,17.174 5.179,18.364 4.127,17.282 2.996,16.248 2.022,15.075 0.79,13.588 -0.443,12.071 -1.433,10.419 -3.659,6.702 -2.564,2.528 0,0"
             style="fill:#000000;fill-opacity:1;fill-rule:evenodd;stroke:none"
             id="path38"
             inkscape:connector-curvature="0" /></g></g></g></g></svg>