<?xml version="1.0" encoding="UTF-8" standalone="no"?>
<!-- Created with Inkscape (http://www.inkscape.org/) -->

<svg
   xmlns:dc="http://purl.org/dc/elements/1.1/"
   xmlns:cc="http://creativecommons.org/ns#"
   xmlns:rdf="http://www.w3.org/1999/02/22-rdf-syntax-ns#"
   xmlns:svg="http://www.w3.org/2000/svg"
   xmlns="http://www.w3.org/2000/svg"
   xmlns:sodipodi="http://sodipodi.sourceforge.net/DTD/sodipodi-0.dtd"
   xmlns:inkscape="http://www.inkscape.org/namespaces/inkscape"
   id="svg2"
   version="1.1"
   inkscape:version="0.91 r13725"
   xml:space="preserve"
   width="187.5"
   height="187.5"
   viewBox="0 0 187.5 187.5"
   sodipodi:docname="kbyg-dog-on-a-lead.svg"><metadata
     id="metadata8"><rdf:RDF><cc:Work
         rdf:about=""><dc:format>image/svg+xml</dc:format><dc:type
           rdf:resource="http://purl.org/dc/dcmitype/StillImage" /><dc:title></dc:title></cc:Work></rdf:RDF></metadata><defs
     id="defs6"><clipPath
       clipPathUnits="userSpaceOnUse"
       id="clipPath16"><path
         d="M 0,150 150,150 150,0 0,0 0,150 Z"
         id="path18"
         inkscape:connector-curvature="0" /></clipPath></defs><sodipodi:namedview
     pagecolor="#ffffff"
     bordercolor="#666666"
     borderopacity="1"
     objecttolerance="10"
     gridtolerance="10"
     guidetolerance="10"
     inkscape:pageopacity="0"
     inkscape:pageshadow="2"
     inkscape:window-width="640"
     inkscape:window-height="480"
     id="namedview4"
     showgrid="false"
     inkscape:zoom="1.2586667"
     inkscape:cx="93.75"
     inkscape:cy="93.75"
     inkscape:window-x="0"
     inkscape:window-y="400"
     inkscape:window-maximized="0"
     inkscape:current-layer="g10" /><g
     id="g10"
     inkscape:groupmode="layer"
     inkscape:label="dog on lead icon"
     transform="matrix(1.25,0,0,-1.25,0,187.5)"><g
       id="g12"><g
         id="g14"
         clip-path="url(#clipPath16)"><g
           id="g20"
           transform="translate(9.9517,75)"><path
             d="m 0,0 c 0,-36.657 29.717,-66.374 66.374,-66.374 36.658,0 66.376,29.717 66.376,66.374 0,36.658 -29.718,66.375 -66.376,66.375 C 29.717,66.375 0,36.658 0,0 Z"
             style="fill:none;stroke:#000000;stroke-width:11.36800003;stroke-linecap:butt;stroke-linejoin:miter;stroke-miterlimit:10;stroke-dasharray:none;stroke-opacity:1"
             id="path22"
             inkscape:connector-curvature="0" /></g><g
           id="g24"
           transform="translate(54.5693,52.3535)"><path
             d="m 0,0 c -0.199,-2.563 -0.342,-5.133 -0.618,-7.689 -0.234,-2.165 -0.45,-4.356 -0.986,-6.456 -0.672,-2.636 -5.039,-3.919 -7.229,-2.279 -0.955,0.715 -0.36,3.447 1.283,3.893 2.847,0.767 2.447,2.717 2.429,4.707 -0.054,5.838 -0.768,11.476 -2.906,17.051 -1.744,4.544 -2.375,9.517 -3.462,14.148 -1.823,0.39 -4.33,0.216 -5.51,1.385 -1.152,1.141 -0.947,3.651 -1.418,5.956 -0.55,-0.054 -1.656,-0.142 -2.759,-0.276 -5.139,-0.624 -9.878,3.143 -10.222,8.331 -0.051,0.752 0.708,1.847 1.404,2.291 1.075,0.687 2.412,0.97 3.651,1.382 1.887,0.625 3.055,1.759 3.93,3.681 1.456,3.202 4.566,4.347 7.866,4.633 5.172,0.448 9.051,-1.663 11.961,-6.037 2.773,-4.167 5.918,-8.086 8.914,-12.103 0.839,-1.123 1.905,-1.541 3.392,-1.483 1.324,0.052 2.668,-0.491 4.009,-0.745 3.401,-0.637 6.783,-1.594 10.211,-1.812 5.869,-0.371 11.77,-0.263 17.657,-0.39 1.674,-0.036 2.728,0.631 3.264,2.263 1.197,3.637 0.958,7.114 -0.746,10.566 -1.025,2.073 -1.969,4.222 -2.624,6.432 -0.758,2.561 0.49,4.972 2.613,5.799 1.362,0.531 2.626,0.248 3.162,-1.052 1.894,-4.593 3.988,-9.152 5.316,-13.917 1.247,-4.478 -0.214,-8.942 -1.926,-13.154 -0.744,-1.834 -0.429,-3.305 0.159,-5.152 1.445,-4.528 2.456,-9.205 3.466,-13.86 0.859,-3.959 1.183,-8.074 4.389,-11.111 0.433,-0.408 0.715,-1.152 0.758,-1.762 0.28,-3.918 0.514,-7.84 0.677,-11.761 0.063,-1.499 -0.155,-3.083 -1.959,-3.461 -1.904,-0.403 -3.876,-0.231 -5.249,1.32 -1.158,1.308 -0.3,2.58 0.865,3.295 1.328,0.814 1.363,1.685 1.119,3.082 -0.483,2.765 -1.612,5.047 -3.698,6.945 -2.141,1.947 -4.148,4.041 -6.697,6.547 0.305,-1.373 0.224,-2.443 0.721,-2.994 2.133,-2.367 1.849,-5.006 1.283,-7.774 -0.273,-1.343 -0.321,-2.734 -0.553,-4.089 -0.467,-2.698 -2.297,-3.848 -4.922,-2.93 -0.76,0.266 -1.658,1.072 -1.83,1.791 -0.131,0.543 0.643,1.609 1.279,1.963 1.248,0.691 1.736,1.496 1.681,2.939 -0.29,7.319 -6.96,15.42 -14.118,16.963 C 27.355,5.221 26.606,5.195 25.925,5.072 21.069,4.193 16.239,3.156 11.365,2.412 8.994,2.049 8.089,0.803 8.067,-1.365 8.024,-5.568 8.38,-9.813 7.886,-13.957 c -0.333,-2.777 -1.628,-5.527 -2.918,-8.072 -0.774,-1.526 -5.524,-1.569 -6.655,-0.207 -1.218,1.466 -0.074,3.013 1.056,3.377 3.194,1.021 2.842,3.433 2.772,5.787 C 2.007,-8.666 2.027,-4.229 0,0"
             style="fill:#000000;fill-opacity:1;fill-rule:evenodd;stroke:none"
             id="path26"
             inkscape:connector-curvature="0" /></g><g
           id="g28"
           transform="translate(43.0801,75.728)"><path
             d="M 0,0 73.097,52.531"
             style="fill:none;stroke:#000000;stroke-width:1.69799995;stroke-linecap:butt;stroke-linejoin:miter;stroke-miterlimit:10;stroke-dasharray:none;stroke-opacity:1"
             id="path30"
             inkscape:connector-curvature="0" /></g></g></g></g></svg>