<?xml version="1.0" encoding="UTF-8" standalone="no"?>
<!-- Created with Inkscape (http://www.inkscape.org/) -->

<svg
   xmlns:dc="http://purl.org/dc/elements/1.1/"
   xmlns:cc="http://creativecommons.org/ns#"
   xmlns:rdf="http://www.w3.org/1999/02/22-rdf-syntax-ns#"
   xmlns:svg="http://www.w3.org/2000/svg"
   xmlns="http://www.w3.org/2000/svg"
   xmlns:sodipodi="http://sodipodi.sourceforge.net/DTD/sodipodi-0.dtd"
   xmlns:inkscape="http://www.inkscape.org/namespaces/inkscape"
   id="svg2"
   version="1.1"
   inkscape:version="0.91 r13725"
   xml:space="preserve"
   width="187.5"
   height="187.5"
   viewBox="0 0 187.5 187.5"
   sodipodi:docname="kbyg-no-dogs.svg"><metadata
     id="metadata8"><rdf:RDF><cc:Work
         rdf:about=""><dc:format>image/svg+xml</dc:format><dc:type
           rdf:resource="http://purl.org/dc/dcmitype/StillImage" /><dc:title></dc:title></cc:Work></rdf:RDF></metadata><defs
     id="defs6"><clipPath
       clipPathUnits="userSpaceOnUse"
       id="clipPath16"><path
         d="M 0,150 150,150 150,0 0,0 0,150 Z"
         id="path18"
         inkscape:connector-curvature="0" /></clipPath></defs><sodipodi:namedview
     pagecolor="#ffffff"
     bordercolor="#666666"
     borderopacity="1"
     objecttolerance="10"
     gridtolerance="10"
     guidetolerance="10"
     inkscape:pageopacity="0"
     inkscape:pageshadow="2"
     inkscape:window-width="640"
     inkscape:window-height="480"
     id="namedview4"
     showgrid="false"
     inkscape:zoom="1.2586667"
     inkscape:cx="93.75"
     inkscape:cy="93.75"
     inkscape:window-x="0"
     inkscape:window-y="400"
     inkscape:window-maximized="0"
     inkscape:current-layer="g10" /><g
     id="g10"
     inkscape:groupmode="layer"
     inkscape:label="no dogs"
     transform="matrix(1.25,0,0,-1.25,0,187.5)"><g
       id="g12"><g
         id="g14"
         clip-path="url(#clipPath16)"><g
           id="g20"
           transform="translate(74.9873,87.7427)"><path
             d="m 0,0 c 1.731,2.005 3.388,4.084 5.095,6.111 1.018,1.206 2.031,2.417 3.056,3.618 1.145,1.343 1.849,2.852 2.152,4.621 0.218,1.281 0.808,2.496 1.217,3.743 0.266,0.816 0.483,1.65 0.76,2.464 0.243,0.709 0.124,1.342 -0.26,1.96 -0.824,1.32 -1.572,2.687 -1.692,4.271 -0.185,2.48 -0.515,4.967 0.075,7.443 0.055,0.219 0.118,0.441 0.207,0.649 0.655,1.51 1.898,1.859 3.166,0.808 1.619,-1.34 2.69,-3.096 3.526,-5.001 0.255,-0.578 0.489,-1.166 0.754,-1.739 0.304,-0.654 0.867,-1.036 1.55,-1.099 1.596,-0.149 3.197,-0.238 4.795,-0.324 1.103,-0.059 1.923,0.414 2.387,1.429 0.374,0.804 0.663,1.647 1.077,2.428 0.532,1.004 1.114,1.993 1.753,2.933 0.275,0.402 0.714,0.767 1.157,0.965 0.898,0.396 1.411,0.41 1.799,-0.616 0.814,-2.158 0.973,-4.393 0.883,-6.67 -0.064,-1.648 -0.519,-3.183 -1.097,-4.716 -0.261,-0.696 -0.298,-1.487 -0.365,-2.242 -0.09,-1.011 -0.146,-2.029 -0.144,-3.043 0,-0.355 0.125,-0.797 0.356,-1.041 0.504,-0.532 1.122,-0.954 1.682,-1.434 0.865,-0.748 4.552,-2.414 3.784,-3.911 C 36.899,10.101 35.899,8.995 35.056,7.531 34.103,5.872 29.826,5.757 28.119,6.035 26.873,6.234 26.691,6.101 26.381,4.889 25.643,1.991 26.106,-0.893 26.41,-3.777 c 0.241,-2.268 0.618,-4.524 0.811,-6.8 0.223,-2.629 -0.649,-4.986 -2.04,-7.192 -0.722,-1.145 -1.419,-2.307 -2.123,-3.464"
             style="fill:#000000;fill-opacity:1;fill-rule:evenodd;stroke:none"
             id="path22"
             inkscape:connector-curvature="0" /></g><g
           id="g24"
           transform="translate(80.957,49.5801)"><path
             d="m 0,0 c -0.805,-0.612 -1.712,-1.342 -2.659,-2.014 -1.116,-0.795 -1.705,-1.793 -1.479,-2.954 0.932,-0.678 1.775,-1.188 2.485,-1.84 0.669,-0.611 1.145,-1.412 0.726,-2.38 -0.429,-0.994 -1.292,-1.425 -2.315,-1.464 -0.705,-0.024 -1.424,0.058 -2.122,0.175 -1.345,0.221 -2.745,0.331 -4.006,0.794 -1.807,0.67 -3.332,-0.095 -4.812,-0.742 -1.837,-0.804 -1.907,-0.97 -0.582,-2.586 0.58,-0.714 1.417,-1.231 2.194,-1.753 1.117,-0.746 2.124,-1.586 2.805,-2.755 0.601,-1.028 0.35,-1.491 -0.829,-1.596 -0.005,-0.856 -0.252,-1.032 -1.36,-0.867 -0.404,0.059 -0.646,0.086 -1.028,-0.255 -0.324,-0.29 -1.064,-0.216 -1.596,-0.142 -1.411,0.196 -2.339,1.154 -3.171,2.209 -0.423,0.541 -0.85,1.087 -1.218,1.663 -1.043,1.641 -2.6,2.226 -4.456,2.335 -1.058,0.067 -2.126,0.207 -3.153,0.467 -1.303,0.326 -1.985,1.216 -2.216,2.594 -0.24,1.431 -0.708,2.832 -1.103,4.343 -0.797,-0.248 -1.479,-0.518 -2.184,-0.66 -1.715,-0.341 -3.429,-0.713 -5.162,-0.905 -2.108,-0.232 -3.853,-1.131 -5.479,-2.418 -1.19,-0.945 -2.39,-1.911 -3.915,-2.295 -0.166,-0.039 -0.343,-0.043 -0.555,-0.07 -0.315,1.667 0.09,3.119 1.149,4.354 2.017,2.355 4.588,3.582 7.702,3.771 1.743,0.102 3.477,0.381 5.212,0.604 0.269,0.032 0.529,0.165 0.782,0.279 1.321,0.576 1.333,0.698 1.073,2.047 -0.693,3.59 0.076,6.961 1.641,10.187 1.055,2.177 2.617,4.006 4.271,5.735 3.041,3.182 5.585,6.741 7.986,10.402 0.413,0.633 1.67,2.377 3.241,3.147 C -4.976,31.886 14.499,11.813 14.396,10.291 14.212,7.493 13.992,4.7 13.973,1.903 c -0.014,-2.15 0.129,-4.324 0.441,-6.455 0.351,-2.42 1.854,-3.562 4.325,-3.633 0.488,-0.011 0.971,0.004 1.454,-0.003 1.881,-0.032 2.616,-0.7 2.905,-2.692 -0.188,0.078 -0.345,0.141 -0.501,0.207 -0.782,-1.858 -1.842,-2.969 -4.399,-2.565 -1,0.161 -2.003,0.322 -3.008,0.47 -0.37,0.052 -0.583,0.146 -0.698,0.605 -0.422,1.698 -1.612,2.907 -2.8,4.104 -0.521,0.526 -1.043,1.043 -1.552,1.578 C 9.146,-5.437 8.625,-4.23 8.719,-2.75 8.839,-0.892 8.723,0.957 7.963,2.704 7.914,2.816 7.866,2.938 7.81,3.049 7.791,3.088 7.742,3.107 7.489,3.312 c 0,-2.147 0.016,-4.117 -0.004,-6.09 -0.032,-2.954 -0.143,-5.909 -0.111,-8.863 0.011,-1.047 0.265,-2.111 0.552,-3.128 0.345,-1.223 1.178,-2.094 2.343,-2.659 0.908,-0.444 1.808,-0.919 2.664,-1.457 0.904,-0.567 1.328,-1.451 1.283,-2.526 -0.008,-0.199 -0.119,-0.494 -0.272,-0.568 -0.792,-0.389 -1.572,-0.821 -2.509,-0.793 -0.244,0.003 -0.486,-0.224 -0.739,-0.302 -0.175,-0.059 -0.377,-0.094 -0.556,-0.071 -3.227,0.42 -5.348,2.323 -6.445,5.249 -0.837,2.242 -1.482,4.58 -1.938,6.925 C 1.041,-7.29 0.559,-3.563 0,0"
             style="fill:#000000;fill-opacity:1;fill-rule:evenodd;stroke:none"
             id="path26"
             inkscape:connector-curvature="0" /></g><g
           id="g28"
           transform="translate(9.9517,75)"><path
             d="m 0,0 c 0,-36.657 29.717,-66.374 66.374,-66.374 36.658,0 66.376,29.717 66.376,66.374 0,36.658 -29.718,66.375 -66.376,66.375 C 29.717,66.375 0,36.658 0,0 Z"
             style="fill:none;stroke:#000000;stroke-width:11.36800003;stroke-linecap:butt;stroke-linejoin:miter;stroke-miterlimit:10;stroke-dasharray:none;stroke-opacity:1"
             id="path30"
             inkscape:connector-curvature="0" /></g><g
           id="g32"
           transform="translate(27.7407,116.7197)"><path
             d="M 0,0 95.282,-86.601"
             style="fill:none;stroke:#000000;stroke-width:10.60200024;stroke-linecap:butt;stroke-linejoin:miter;stroke-miterlimit:10;stroke-dasharray:none;stroke-opacity:1"
             id="path34"
             inkscape:connector-curvature="0" /></g></g></g></g></svg>