<?xml version="1.0" encoding="UTF-8" standalone="no"?>
<!-- Created with Inkscape (http://www.inkscape.org/) -->

<svg
   xmlns:dc="http://purl.org/dc/elements/1.1/"
   xmlns:cc="http://creativecommons.org/ns#"
   xmlns:rdf="http://www.w3.org/1999/02/22-rdf-syntax-ns#"
   xmlns:svg="http://www.w3.org/2000/svg"
   xmlns="http://www.w3.org/2000/svg"
   xmlns:sodipodi="http://sodipodi.sourceforge.net/DTD/sodipodi-0.dtd"
   xmlns:inkscape="http://www.inkscape.org/namespaces/inkscape"
   id="svg2"
   version="1.1"
   inkscape:version="0.91 r13725"
   xml:space="preserve"
   width="187.5"
   height="187.5"
   viewBox="0 0 187.5 187.5"
   sodipodi:docname="kbyg-entry-fee.svg"><metadata
     id="metadata8"><rdf:RDF><cc:Work
         rdf:about=""><dc:format>image/svg+xml</dc:format><dc:type
           rdf:resource="http://purl.org/dc/dcmitype/StillImage" /><dc:title></dc:title></cc:Work></rdf:RDF></metadata><defs
     id="defs6"><clipPath
       clipPathUnits="userSpaceOnUse"
       id="clipPath16"><path
         d="M 0,150 150,150 150,0 0,0 0,150 Z"
         id="path18"
         inkscape:connector-curvature="0" /></clipPath></defs><sodipodi:namedview
     pagecolor="#ffffff"
     bordercolor="#666666"
     borderopacity="1"
     objecttolerance="10"
     gridtolerance="10"
     guidetolerance="10"
     inkscape:pageopacity="0"
     inkscape:pageshadow="2"
     inkscape:window-width="709"
     inkscape:window-height="480"
     id="namedview4"
     showgrid="false"
     inkscape:zoom="1.2586667"
     inkscape:cx="212.52648"
     inkscape:cy="93.75"
     inkscape:window-x="0"
     inkscape:window-y="400"
     inkscape:window-maximized="0"
     inkscape:current-layer="text24" /><g
     id="g10"
     inkscape:groupmode="layer"
     inkscape:label="entry fee"
     transform="matrix(1.25,0,0,-1.25,0,187.5)"><g
       id="g12"><g
         id="g14"
         clip-path="url(#clipPath16)"><g
           id="g20"
           transform="translate(9.9517,75)"><path
             d="m 0,0 c 0,-36.657 29.717,-66.374 66.374,-66.374 36.658,0 66.376,29.717 66.376,66.374 0,36.658 -29.718,66.375 -66.376,66.375 C 29.717,66.375 0,36.658 0,0 Z"
             style="fill:none;stroke:#000000;stroke-width:11.36800003;stroke-linecap:butt;stroke-linejoin:miter;stroke-miterlimit:10;stroke-dasharray:none;stroke-opacity:1"
             id="path22"
             inkscape:connector-curvature="0" /></g><g
           transform="matrix(1,0,0,-1,43.126,39.4648)"
           style="font-variant:normal;font-weight:bold;font-stretch:normal;font-size:111.74770355px;font-family:Adelle;-inkscape-font-specification:Adelle-Bold;writing-mode:lr-tb;fill:#000000;fill-opacity:1;fill-rule:nonzero;stroke:none"
           id="text24"><path
             d="m 58.667544,0 0,-19.332353 -9.163311,0 -1.787964,9.163312 c -0.223495,0.8939816 -0.44699,1.3409724 -1.564467,1.3409724 l -27.042945,0 c 6.481367,-6.4813664 7.040106,-13.0744814 7.040106,-23.5787654 l 18.550118,0 0,-9.72205 -18.550118,0 0,-6.257872 c 0,-9.72205 3.464178,-14.862444 12.068752,-14.862444 7.375348,0 8.71632,3.352431 8.828068,9.386807 l 11.733509,-1.564468 c 0,-14.527201 -10.169041,-17.320894 -20.561577,-17.320894 -19.667596,0 -24.919738,11.510013 -24.919738,24.584495 l 0,6.034376 -8.4928257,0 0,9.72205 8.4928257,0 0,1.340972 c 0,13.186229 -0.558739,17.54439 -8.381078,23.0200273 L 6.4813668,0 58.667544,0 Z"
             style=""
             id="path3391" /></g><text
           xml:space="preserve"
           style="font-style:normal;font-weight:normal;font-size:32px;line-height:125%;font-family:sans-serif;letter-spacing:0px;word-spacing:0px;fill:#000000;fill-opacity:1;stroke:none;stroke-width:1px;stroke-linecap:butt;stroke-linejoin:miter;stroke-opacity:1"
           x="203.38983"
           y="-83.262711"
           id="text3386"
           sodipodi:linespacing="125%"
           transform="scale(1,-1)"><tspan
             sodipodi:role="line"
             id="tspan3388"
             x="203.38983"
             y="-83.262711">z</tspan></text>
</g></g></g></svg>