<?xml version="1.0" encoding="UTF-8" standalone="no"?>
<!-- Created with Inkscape (http://www.inkscape.org/) -->

<svg
   xmlns:dc="http://purl.org/dc/elements/1.1/"
   xmlns:cc="http://creativecommons.org/ns#"
   xmlns:rdf="http://www.w3.org/1999/02/22-rdf-syntax-ns#"
   xmlns:svg="http://www.w3.org/2000/svg"
   xmlns="http://www.w3.org/2000/svg"
   xmlns:sodipodi="http://sodipodi.sourceforge.net/DTD/sodipodi-0.dtd"
   xmlns:inkscape="http://www.inkscape.org/namespaces/inkscape"
   id="svg2"
   version="1.1"
   inkscape:version="0.91 r13725"
   xml:space="preserve"
   width="187.5"
   height="187.5"
   viewBox="0 0 187.5 187.5"
   sodipodi:docname="kbyg-grazing.svg"><metadata
     id="metadata8"><rdf:RDF><cc:Work
         rdf:about=""><dc:format>image/svg+xml</dc:format><dc:type
           rdf:resource="http://purl.org/dc/dcmitype/StillImage" /><dc:title></dc:title></cc:Work></rdf:RDF></metadata><defs
     id="defs6"><clipPath
       clipPathUnits="userSpaceOnUse"
       id="clipPath16"><path
         d="M 0,150 150,150 150,0 0,0 0,150 Z"
         id="path18"
         inkscape:connector-curvature="0" /></clipPath></defs><sodipodi:namedview
     pagecolor="#ffffff"
     bordercolor="#666666"
     borderopacity="1"
     objecttolerance="10"
     gridtolerance="10"
     guidetolerance="10"
     inkscape:pageopacity="0"
     inkscape:pageshadow="2"
     inkscape:window-width="640"
     inkscape:window-height="480"
     id="namedview4"
     showgrid="false"
     inkscape:zoom="1.2586667"
     inkscape:cx="93.75"
     inkscape:cy="93.75"
     inkscape:window-x="0"
     inkscape:window-y="400"
     inkscape:window-maximized="0"
     inkscape:current-layer="g10" /><g
     id="g10"
     inkscape:groupmode="layer"
     inkscape:label="grazing icon"
     transform="matrix(1.25,0,0,-1.25,0,187.5)"><g
       id="g12"><g
         id="g14"
         clip-path="url(#clipPath16)"><g
           id="g20"
           transform="translate(9.9517,75)"><path
             d="m 0,0 c 0,-36.657 29.717,-66.374 66.374,-66.374 36.658,0 66.376,29.717 66.376,66.374 0,36.658 -29.718,66.375 -66.376,66.375 C 29.717,66.375 0,36.658 0,0 Z"
             style="fill:none;stroke:#000000;stroke-width:11.36800003;stroke-linecap:butt;stroke-linejoin:miter;stroke-miterlimit:10;stroke-dasharray:none;stroke-opacity:1"
             id="path22"
             inkscape:connector-curvature="0" /></g><g
           id="g24"
           transform="translate(124.0137,46.7344)"><path
             d="m 0,0 c -0.018,-0.016 -0.037,-0.023 -0.055,-0.036 0.159,0.964 0.213,1.957 -0.041,2.549 -0.261,0.608 -1.412,0.864 -1.58,1.454 -0.719,2.51 -0.885,4.835 -0.703,7.422 l 1.006,5.394 -0.061,1.784 c 0,0 -0.896,1.385 -0.943,1.454 -0.877,1.355 -1.871,2.156 -3.166,2.867 2.605,3.239 0.758,9.239 -0.262,12.491 -1.189,-2.625 -1.601,-5.445 -3.468,-7.742 -0.86,-1.059 -1.323,-1.878 -1.416,-2.612 -1.797,2.167 -3.565,4.349 -5.081,6.734 -4.119,6.494 -6.898,14.991 -13.328,19.712 -2.756,2.019 -5.167,2.865 -8.56,3.072 0,0 -4.143,0.143 -4.317,0.148 -8.476,0.294 -16.663,-1.299 -25.13,0.652 -2.883,0.665 -5.708,1.506 -8.616,2.06 0,0 -4.031,1.337 -4.065,1.35 -3.144,1.033 -5.691,1.872 -8.445,-0.464 -2.069,-1.752 -5.997,-5.245 -6.449,-8.088 -0.252,-1.681 -0.476,-3.232 -0.593,-4.723 -0.063,0.127 -0.123,0.257 -0.2,0.378 l 0.006,-0.196 c -0.51,-4.693 0.289,-9.007 2.425,-13.163 1.079,-2.101 1.833,-3.406 1.799,-5.905 -0.034,-2.505 0.716,-4.537 0.68,-7.038 -0.041,-2.915 -2.217,-0.076 -2.29,-7.928 0.21,0.003 0.57,1.589 0.785,1.594 0.326,0.01 0.511,-1.565 0.837,-1.563 0.16,10e-4 0.319,10e-4 0.476,0 0.052,-0.578 0,0.112 -0.001,0.044 -0.078,1.827 0.375,1.415 0.841,2.916 0.069,-0.133 0.14,-0.279 0.204,-0.444 0.238,-0.603 0.15,-1.551 0.217,-2.204 l 0.426,-3.708 -0.058,-2.683 -0.415,-0.907 -0.857,-1.07 -0.409,-1.057 -0.156,-4.173 2.258,-0.669 1.934,0.068 2.081,0.071 0.723,4.938 -1.113,2.045 -0.236,2.525 -0.776,3.099 -0.096,2.826 1.864,4.232 1.112,2.3 0.657,2.525 -0.06,1.784 -0.201,1.482 1.798,-0.383 2.432,-1.408 1.235,-1.295 -1.698,-2.562 -1.695,-2.617 -0.551,-1.36 0.063,-1.784 0.505,-1.769 0.489,-1.175 0.778,-1.015 0.088,-2.528 0.091,-2.678 c 0,0 0.072,-2.082 0.076,-2.222 0.025,-0.704 -0.242,-1.532 -0.375,-2.228 1.147,-0.832 1.636,-1.034 3.017,-0.964 l 2.675,0.094 1.636,0.055 c -0.076,2.286 -0.018,3.139 -1.362,5.014 l -1.251,1.744 -0.949,1.607 -0.651,1.615 -0.056,1.633 0.656,2.553 0.965,2.268 0.543,1.507 1.406,2.46 2.251,-0.547 2.087,-0.076 3.42,0.114 3.271,0.114 9.938,1.116 2.379,0.081 2.15,-1.891 1.016,-3.539 0.835,-2.651 0.111,-3.271 0.11,-3.271 0.084,-2.379 -0.826,-1.964 -0.498,-2.848 0.031,-0.89 1.518,-0.841 3.136,0.107 2.516,0.085 -1.996,6.037 0.051,2.832 0.644,2.999 c 0,0 0.827,1.648 0.834,1.665 0.485,0.965 1.562,1.087 1.869,2.214 0.725,2.657 -0.578,5.326 0.461,8.012 0.452,-0.177 0.913,-0.366 1.36,-0.572 0.681,-0.288 1.431,0.167 2.193,0.515 l 0.037,-0.435 c 0.058,-1.525 0.537,-2.796 0.74,-4.275 0.196,-1.477 0.096,-3.106 0.772,-4.457 1.27,-2.543 1.105,-6.184 -0.223,-8.594 -0.541,-0.984 -0.535,-2.637 -0.636,-4.081 2.191,-0.693 4.392,-1.453 5.63,0.389 1.221,1.819 0.315,4.368 -0.357,6.186 -0.908,2.47 -0.736,4.159 0.27,6.572 0.65,1.564 2.418,3.779 1.939,5.579 0.945,-0.575 1.861,-1.157 2.693,-1.706 4.618,-3.015 4.217,-9.087 8.5,-12.221 l 2.407,-0.661 c 1.084,-0.299 2.875,-3.903 3.593,-4.939 0.563,-0.813 1.543,-1.164 2.655,-1.278 0.677,-1.024 2.929,-0.563 3.89,-0.398 0.659,0.111 1.885,0.132 2.237,0.775 C 0.375,-1.809 0.148,-0.439 0,0"
             style="fill:#000000;fill-opacity:1;fill-rule:nonzero;stroke:none"
             id="path26"
             inkscape:connector-curvature="0" /></g></g></g></g></svg>