<?xml version="1.0" encoding="UTF-8" standalone="no"?>
<!-- Created with Inkscape (http://www.inkscape.org/) -->

<svg
   xmlns:dc="http://purl.org/dc/elements/1.1/"
   xmlns:cc="http://creativecommons.org/ns#"
   xmlns:rdf="http://www.w3.org/1999/02/22-rdf-syntax-ns#"
   xmlns:svg="http://www.w3.org/2000/svg"
   xmlns="http://www.w3.org/2000/svg"
   xmlns:sodipodi="http://sodipodi.sourceforge.net/DTD/sodipodi-0.dtd"
   xmlns:inkscape="http://www.inkscape.org/namespaces/inkscape"
   id="svg2"
   version="1.1"
   inkscape:version="0.91 r13725"
   xml:space="preserve"
   width="187.5"
   height="187.5"
   viewBox="0 0 187.5 187.5"
   sodipodi:docname="kbyg-bicycle-parking.svg"><metadata
     id="metadata8"><rdf:RDF><cc:Work
         rdf:about=""><dc:format>image/svg+xml</dc:format><dc:type
           rdf:resource="http://purl.org/dc/dcmitype/StillImage" /><dc:title></dc:title></cc:Work></rdf:RDF></metadata><defs
     id="defs6"><clipPath
       clipPathUnits="userSpaceOnUse"
       id="clipPath16"><path
         d="M 0,150 150,150 150,0 0,0 0,150 Z"
         id="path18"
         inkscape:connector-curvature="0" /></clipPath></defs><sodipodi:namedview
     pagecolor="#ffffff"
     bordercolor="#666666"
     borderopacity="1"
     objecttolerance="10"
     gridtolerance="10"
     guidetolerance="10"
     inkscape:pageopacity="0"
     inkscape:pageshadow="2"
     inkscape:window-width="640"
     inkscape:window-height="480"
     id="namedview4"
     showgrid="false"
     inkscape:zoom="1.2586667"
     inkscape:cx="93.75"
     inkscape:cy="93.75"
     inkscape:window-x="0"
     inkscape:window-y="400"
     inkscape:window-maximized="0"
     inkscape:current-layer="g10" /><g
     id="g10"
     inkscape:groupmode="layer"
     inkscape:label="bicycle parking"
     transform="matrix(1.25,0,0,-1.25,0,187.5)"><g
       id="g12"><g
         id="g14"
         clip-path="url(#clipPath16)"><g
           id="g20"
           transform="translate(9.9517,75)"><path
             d="m 0,0 c 0,-36.657 29.717,-66.374 66.374,-66.374 36.658,0 66.376,29.717 66.376,66.374 0,36.658 -29.718,66.375 -66.376,66.375 C 29.717,66.375 0,36.658 0,0 Z"
             style="fill:none;stroke:#000000;stroke-width:11.36800003;stroke-linecap:butt;stroke-linejoin:miter;stroke-miterlimit:10;stroke-dasharray:none;stroke-opacity:1"
             id="path22"
             inkscape:connector-curvature="0" /></g><g
           id="g24"
           transform="translate(44.1553,87.1938)"><path
             d="m 0,0 c -2.389,-8.902 2.892,-18.054 11.793,-20.442 8.901,-2.389 18.054,2.893 20.443,11.795 2.388,8.9 -2.892,18.053 -11.793,20.442 C 11.542,14.182 2.387,8.903 0,0 Z"
             style="fill:none;stroke:#000000;stroke-width:2.99799991;stroke-linecap:butt;stroke-linejoin:miter;stroke-miterlimit:10;stroke-dasharray:none;stroke-opacity:1"
             id="path26"
             inkscape:connector-curvature="0" /></g><g
           id="g28"
           transform="translate(98.8262,72.5264)"><path
             d="m 0,0 c -2.39,-8.901 2.89,-18.055 11.792,-20.442 8.901,-2.388 18.055,2.891 20.443,11.794 C 34.623,0.253 29.343,9.406 20.441,11.794 11.539,14.183 2.387,8.902 0,0 Z"
             style="fill:none;stroke:#000000;stroke-width:2.99799991;stroke-linecap:butt;stroke-linejoin:miter;stroke-miterlimit:10;stroke-dasharray:none;stroke-opacity:1"
             id="path30"
             inkscape:connector-curvature="0" /></g><g
           id="g32"
           transform="translate(117.0547,67.7695)"><path
             d="M 0,0 -28.612,1.812"
             style="fill:none;stroke:#000000;stroke-width:2.99799991;stroke-linecap:round;stroke-linejoin:miter;stroke-miterlimit:10;stroke-dasharray:none;stroke-opacity:1"
             id="path34"
             inkscape:connector-curvature="0" /></g><g
           id="g36"
           transform="translate(117.0547,67.7695)"><path
             d="M 0,0 -12.416,26.425"
             style="fill:none;stroke:#000000;stroke-width:2.99799991;stroke-linecap:round;stroke-linejoin:miter;stroke-miterlimit:10;stroke-dasharray:none;stroke-opacity:1"
             id="path38"
             inkscape:connector-curvature="0" /></g><g
           id="g40"
           transform="translate(78.2813,101.1143)"><path
             d="M 0,0 26.357,-6.92"
             style="fill:none;stroke:#000000;stroke-width:2.99799991;stroke-linecap:round;stroke-linejoin:miter;stroke-miterlimit:10;stroke-dasharray:none;stroke-opacity:1"
             id="path42"
             inkscape:connector-curvature="0" /></g><g
           id="g44"
           transform="translate(88.4424,69.5811)"><path
             d="m 0,0 16.196,24.613 1.924,4.362"
             style="fill:none;stroke:#000000;stroke-width:2.99799991;stroke-linecap:round;stroke-linejoin:miter;stroke-miterlimit:10;stroke-dasharray:none;stroke-opacity:1"
             id="path46"
             inkscape:connector-curvature="0" /></g><g
           id="g48"
           transform="translate(88.4424,69.5811)"><path
             d="M 0,0 -12.875,28.651"
             style="fill:none;stroke:#000000;stroke-width:2.99799991;stroke-linecap:round;stroke-linejoin:miter;stroke-miterlimit:10;stroke-dasharray:none;stroke-opacity:1"
             id="path50"
             inkscape:connector-curvature="0" /></g><g
           id="g52"
           transform="translate(60.2725,82.8711)"><path
             d="M 0,0 C 8.74,4.523 15.295,15.361 21.718,24.84"
             style="fill:none;stroke:#000000;stroke-width:2.99799991;stroke-linecap:round;stroke-linejoin:miter;stroke-miterlimit:10;stroke-dasharray:none;stroke-opacity:1"
             id="path54"
             inkscape:connector-curvature="0" /></g><g
           id="g56"
           transform="translate(89.2988,62.4795)"><path
             d="M 0,0 0.676,15.696"
             style="fill:none;stroke:#000000;stroke-width:1.49899995;stroke-linecap:butt;stroke-linejoin:miter;stroke-miterlimit:10;stroke-dasharray:none;stroke-opacity:1"
             id="path58"
             inkscape:connector-curvature="0" /></g><g
           id="g60"
           transform="translate(88.5264,78.9453)"><path
             d="M 0,0 3.208,-0.86"
             style="fill:none;stroke:#000000;stroke-width:1.49899995;stroke-linecap:butt;stroke-linejoin:miter;stroke-miterlimit:10;stroke-dasharray:none;stroke-opacity:1"
             id="path62"
             inkscape:connector-curvature="0" /></g><g
           id="g64"
           transform="translate(91.1963,61.9697)"><path
             d="M 0,0 -3.532,0.948"
             style="fill:none;stroke:#000000;stroke-width:1.49899995;stroke-linecap:butt;stroke-linejoin:miter;stroke-miterlimit:10;stroke-dasharray:none;stroke-opacity:1"
             id="path66"
             inkscape:connector-curvature="0" /></g><g
           id="g68"
           transform="translate(98.9609,102.0342)"><path
             d="m 0,0 c -0.348,-1.293 3.587,-3.954 7.817,-5.089 4.23,-1.134 7.765,0.023 8.113,1.315 C 16.276,-2.48 0,0 0,0"
             style="fill:#000000;fill-opacity:1;fill-rule:nonzero;stroke:none"
             id="path70"
             inkscape:connector-curvature="0" /></g><g
           id="g72"
           transform="translate(90.5791,111.7661)"><path
             d="m 0,0 -6.212,1.667 -3.435,-2.44 1.298,-3.346"
             style="fill:none;stroke:#000000;stroke-width:2.99799991;stroke-linecap:round;stroke-linejoin:miter;stroke-miterlimit:10;stroke-dasharray:none;stroke-opacity:1"
             id="path74"
             inkscape:connector-curvature="0" /></g><g
           id="g76"
           transform="translate(25.3691,53.375)"><path
             d="M 0,0 36.093,0"
             style="fill:none;stroke:#000000;stroke-width:2.99799991;stroke-linecap:round;stroke-linejoin:miter;stroke-miterlimit:10;stroke-dasharray:none;stroke-opacity:1"
             id="path78"
             inkscape:connector-curvature="0" /></g><g
           id="g80"
           transform="translate(30.2993,53.375)"><path
             d="M 0,0 0,33.263"
             style="fill:none;stroke:#000000;stroke-width:2.99799991;stroke-linecap:butt;stroke-linejoin:miter;stroke-miterlimit:10;stroke-dasharray:none;stroke-opacity:1"
             id="path82"
             inkscape:connector-curvature="0" /></g><g
           id="g84"
           transform="translate(56.3408,53.375)"><path
             d="M 0,0 C 0.006,18.517 0.116,33.263 0.25,33.263"
             style="fill:none;stroke:#000000;stroke-width:2.99799991;stroke-linecap:butt;stroke-linejoin:miter;stroke-miterlimit:10;stroke-dasharray:none;stroke-opacity:1"
             id="path86"
             inkscape:connector-curvature="0" /></g><g
           id="g88"
           transform="translate(30.2993,84.9453)"><path
             d="M 0,0 C 0,7.344 5.867,13.287 13.117,13.287"
             style="fill:none;stroke:#000000;stroke-width:2.99799991;stroke-linecap:butt;stroke-linejoin:miter;stroke-miterlimit:10;stroke-dasharray:none;stroke-opacity:1"
             id="path90"
             inkscape:connector-curvature="0" /></g><g
           id="g92"
           transform="translate(56.5332,84.9453)"><path
             d="M 0,0 C 0,7.344 -5.867,13.287 -13.117,13.287"
             style="fill:none;stroke:#000000;stroke-width:2.99799991;stroke-linecap:butt;stroke-linejoin:miter;stroke-miterlimit:10;stroke-dasharray:none;stroke-opacity:1"
             id="path94"
             inkscape:connector-curvature="0" /></g></g></g></g></svg>