<?xml version="1.0" encoding="UTF-8" standalone="no"?>
<!-- Created with Inkscape (http://www.inkscape.org/) -->

<svg
   xmlns:dc="http://purl.org/dc/elements/1.1/"
   xmlns:cc="http://creativecommons.org/ns#"
   xmlns:rdf="http://www.w3.org/1999/02/22-rdf-syntax-ns#"
   xmlns:svg="http://www.w3.org/2000/svg"
   xmlns="http://www.w3.org/2000/svg"
   xmlns:sodipodi="http://sodipodi.sourceforge.net/DTD/sodipodi-0.dtd"
   xmlns:inkscape="http://www.inkscape.org/namespaces/inkscape"
   id="svg2"
   version="1.1"
   inkscape:version="0.91 r13725"
   xml:space="preserve"
   width="180.14751"
   height="180.14626"
   viewBox="0 0 180.14751 180.14626"
   sodipodi:docname="kbyg-access.svg"><metadata
     id="metadata8"><rdf:RDF><cc:Work
         rdf:about=""><dc:format>image/svg+xml</dc:format><dc:type
           rdf:resource="http://purl.org/dc/dcmitype/StillImage" /><dc:title></dc:title></cc:Work></rdf:RDF></metadata><defs
     id="defs6"><clipPath
       clipPathUnits="userSpaceOnUse"
       id="clipPath16"><path
         d="M 0,150 150,150 150,0 0,0 0,150 Z"
         id="path18"
         inkscape:connector-curvature="0" /></clipPath></defs><sodipodi:namedview
     pagecolor="#ffffff"
     bordercolor="#666666"
     borderopacity="1"
     objecttolerance="10"
     gridtolerance="10"
     guidetolerance="10"
     inkscape:pageopacity="0"
     inkscape:pageshadow="2"
     inkscape:window-width="640"
     inkscape:window-height="480"
     id="namedview4"
     showgrid="false"
     fit-margin-top="0"
     fit-margin-left="0"
     fit-margin-right="0"
     fit-margin-bottom="0"
     inkscape:zoom="1.2586667"
     inkscape:cx="88.415375"
     inkscape:cy="90.0725"
     inkscape:window-x="0"
     inkscape:window-y="400"
     inkscape:window-maximized="0"
     inkscape:current-layer="g10" /><g
     id="g10"
     inkscape:groupmode="layer"
     inkscape:label="access icon"
     transform="matrix(1.25,0,0,-1.25,-5.334625,183.82375)"><g
       id="g12"><g
         id="g14"
         clip-path="url(#clipPath16)"><g
           id="g20"
           transform="translate(9.9517,75)"><path
             d="m 0,0 c 0,-36.657 29.717,-66.374 66.374,-66.374 36.658,0 66.376,29.717 66.376,66.374 0,36.658 -29.718,66.375 -66.376,66.375 C 29.717,66.375 0,36.658 0,0 Z"
             style="fill:none;stroke:#000000;stroke-width:11.36800003;stroke-linecap:butt;stroke-linejoin:miter;stroke-miterlimit:10;stroke-dasharray:none;stroke-opacity:1"
             id="path22"
             inkscape:connector-curvature="0" /></g><g
           id="g24"
           transform="translate(70.6519,38.6563)"><path
             d="m 0,0 -0.117,16.905 -18.389,0.196 -18.39,0.195 -2.693,2.421 c -1.484,1.327 -4.608,4.334 -6.911,6.637 l -4.217,4.255 6.833,6.716 6.832,6.716 18.468,0.078 18.467,0.117 0.117,3.982 0.117,4.021 -9.8,0 c -6.012,0 -10.111,0.157 -10.58,0.391 -0.703,0.391 -0.742,0.976 -0.742,13.04 0,10.034 0.117,12.728 0.507,13.08 0.352,0.273 3.944,0.468 10.464,0.507 l 9.917,0.118 0.195,4.685 c 0.156,3.982 0.313,4.88 1.093,6.09 1.055,1.757 2.929,2.694 5.349,2.694 2.226,0 3.748,-0.741 5.154,-2.576 1.015,-1.367 1.093,-1.758 1.288,-6.169 l 0.196,-4.724 13.938,-0.196 13.939,-0.195 1.678,-1.562 c 4.452,-4.099 11.635,-11.361 11.635,-11.713 0,-0.429 -5.739,-6.168 -10.853,-10.854 l -2.812,-2.616 -13.86,0 -13.861,0 0,-4.099 0,-4.099 5.662,0 c 5.154,0 5.661,-0.079 6.051,-0.743 0.235,-0.468 0.391,-5.27 0.391,-12.845 0,-11.205 -0.039,-12.103 -0.703,-12.688 -0.585,-0.547 -1.64,-0.664 -6.052,-0.664 l -5.349,0 0,-16.984 0,-16.984 -6.442,0 -6.442,0 L 0,0 Z"
             style="fill:#000000;fill-opacity:1;fill-rule:nonzero;stroke:none"
             id="path26"
             inkscape:connector-curvature="0" /></g></g></g></g></svg>