<?xml version="1.0" encoding="UTF-8" standalone="no"?>
<!-- Created with Inkscape (http://www.inkscape.org/) -->

<svg
   xmlns:dc="http://purl.org/dc/elements/1.1/"
   xmlns:cc="http://creativecommons.org/ns#"
   xmlns:rdf="http://www.w3.org/1999/02/22-rdf-syntax-ns#"
   xmlns:svg="http://www.w3.org/2000/svg"
   xmlns="http://www.w3.org/2000/svg"
   xmlns:sodipodi="http://sodipodi.sourceforge.net/DTD/sodipodi-0.dtd"
   xmlns:inkscape="http://www.inkscape.org/namespaces/inkscape"
   id="svg2"
   version="1.1"
   inkscape:version="0.91 r13725"
   xml:space="preserve"
   width="187.5"
   height="187.5"
   viewBox="0 0 187.5 187.5"
   sodipodi:docname="kbyg-what-to-bring.svg"><metadata
     id="metadata8"><rdf:RDF><cc:Work
         rdf:about=""><dc:format>image/svg+xml</dc:format><dc:type
           rdf:resource="http://purl.org/dc/dcmitype/StillImage" /><dc:title></dc:title></cc:Work></rdf:RDF></metadata><defs
     id="defs6"><clipPath
       clipPathUnits="userSpaceOnUse"
       id="clipPath16"><path
         d="M 0,150 150,150 150,0 0,0 0,150 Z"
         id="path18"
         inkscape:connector-curvature="0" /></clipPath></defs><sodipodi:namedview
     pagecolor="#ffffff"
     bordercolor="#666666"
     borderopacity="1"
     objecttolerance="10"
     gridtolerance="10"
     guidetolerance="10"
     inkscape:pageopacity="0"
     inkscape:pageshadow="2"
     inkscape:window-width="640"
     inkscape:window-height="480"
     id="namedview4"
     showgrid="false"
     inkscape:zoom="1.2586667"
     inkscape:cx="93.75"
     inkscape:cy="93.75"
     inkscape:window-x="0"
     inkscape:window-y="400"
     inkscape:window-maximized="0"
     inkscape:current-layer="g10" /><g
     id="g10"
     inkscape:groupmode="layer"
     inkscape:label="what to bring icon"
     transform="matrix(1.25,0,0,-1.25,0,187.5)"><g
       id="g12"><g
         id="g14"
         clip-path="url(#clipPath16)"><g
           id="g20"
           transform="translate(9.9517,75)"><path
             d="m 0,0 c 0,-36.657 29.717,-66.374 66.374,-66.374 36.658,0 66.376,29.717 66.376,66.374 0,36.658 -29.718,66.375 -66.376,66.375 C 29.717,66.375 0,36.658 0,0 Z"
             style="fill:none;stroke:#000000;stroke-width:11.36800003;stroke-linecap:butt;stroke-linejoin:miter;stroke-miterlimit:10;stroke-dasharray:none;stroke-opacity:1"
             id="path22"
             inkscape:connector-curvature="0" /></g><g
           id="g24"
           transform="translate(80.21,128.8867)"><path
             d="M 0,0 C 0.034,-0.437 0.345,-0.582 0.704,-0.675 2.802,-1.21 4.46,-3.957 4.521,-6.057 4.614,-9.278 4.609,-9.271 7.885,-9.25 c 1.367,0.011 2.726,0.067 4.065,-0.406 1.109,-0.388 1.692,-1.085 1.72,-2.221 0.034,-1.37 0.038,-2.744 -0.011,-4.115 -0.037,-1.091 -1.093,-2.203 -2.181,-2.304 -0.881,-0.081 -1.77,-0.067 -2.653,-0.067 -8.635,0 -17.264,-0.004 -25.896,0.024 -2.19,0.006 -2.935,0.785 -2.996,2.947 -0.021,0.796 0.027,1.594 -0.032,2.388 -0.202,2.665 1.204,3.48 3.714,3.735 1.314,0.134 2.659,0.119 3.977,0.004 1.315,-0.111 1.618,0.453 1.508,1.617 -0.188,1.999 0.204,3.875 1.565,5.427 0.604,0.689 1.265,1.365 2.25,1.545 0.37,0.068 0.664,0.249 0.706,0.676 L 0,0 Z"
             style="fill:#000000;fill-opacity:1;fill-rule:evenodd;stroke:none"
             id="path26"
             inkscape:connector-curvature="0" /></g><path
           d="m 99.146,88.343 -43.488,0 0,2.061 43.488,0 0,-2.061 z m 0,-25.635 -43.488,0 0,2.061 43.488,0 0,-2.061 z m -43.891,14.878 43.488,0 0,-2.06 -43.488,0 0,2.06 z m 46.725,36.965 c -0.14,-0.007 -0.285,0.012 -0.426,0.015 -2.828,0.071 -2.904,0.068 -2.871,-2.712 0.049,-3.895 -3.245,-7.234 -7.267,-7.177 -9.75,0.138 -19.503,0.068 -29.253,0.036 -3.689,-0.014 -6.7,3.112 -6.82,6.717 -0.108,3.253 -0.095,3.114 -3.319,3.159 -3.541,0.048 -6.522,-3.306 -6.522,-6.836 -0.005,-22.86 -0.02,-45.724 0.035,-68.585 0.008,-3.009 1.168,-5.502 4.311,-6.598 0.282,-0.098 53.941,-0.144 54.177,-0.06 3.452,1.207 4.461,3.928 4.466,7.225 0.014,22.672 0.013,45.345 0.009,68.018 -0.002,3.49 -2.939,7.003 -6.52,6.798"
           style="fill:#000000;fill-opacity:1;fill-rule:nonzero;stroke:none"
           id="path28"
           inkscape:connector-curvature="0" /></g></g></g></svg>