<?xml version="1.0" encoding="UTF-8" standalone="no"?>
<!-- Created with Inkscape (http://www.inkscape.org/) -->

<svg
   xmlns:dc="http://purl.org/dc/elements/1.1/"
   xmlns:cc="http://creativecommons.org/ns#"
   xmlns:rdf="http://www.w3.org/1999/02/22-rdf-syntax-ns#"
   xmlns:svg="http://www.w3.org/2000/svg"
   xmlns="http://www.w3.org/2000/svg"
   xmlns:sodipodi="http://sodipodi.sourceforge.net/DTD/sodipodi-0.dtd"
   xmlns:inkscape="http://www.inkscape.org/namespaces/inkscape"
   id="svg2"
   version="1.1"
   inkscape:version="0.91 r13725"
   xml:space="preserve"
   width="187.5"
   height="187.5"
   viewBox="0 0 187.5 187.5"
   sodipodi:docname="kbyg-wheelchai.svg"><metadata
     id="metadata8"><rdf:RDF><cc:Work
         rdf:about=""><dc:format>image/svg+xml</dc:format><dc:type
           rdf:resource="http://purl.org/dc/dcmitype/StillImage" /><dc:title></dc:title></cc:Work></rdf:RDF></metadata><defs
     id="defs6"><clipPath
       clipPathUnits="userSpaceOnUse"
       id="clipPath16"><path
         d="M 0,150 150,150 150,0 0,0 0,150 Z"
         id="path18"
         inkscape:connector-curvature="0" /></clipPath></defs><sodipodi:namedview
     pagecolor="#ffffff"
     bordercolor="#666666"
     borderopacity="1"
     objecttolerance="10"
     gridtolerance="10"
     guidetolerance="10"
     inkscape:pageopacity="0"
     inkscape:pageshadow="2"
     inkscape:window-width="640"
     inkscape:window-height="480"
     id="namedview4"
     showgrid="false"
     inkscape:zoom="1.2586667"
     inkscape:cx="93.75"
     inkscape:cy="93.75"
     inkscape:window-x="149"
     inkscape:window-y="500"
     inkscape:window-maximized="0"
     inkscape:current-layer="g10" /><g
     id="g10"
     inkscape:groupmode="layer"
     inkscape:label="wheelchair icon"
     transform="matrix(1.25,0,0,-1.25,0,187.5)"><g
       id="g12"><g
         id="g14"
         clip-path="url(#clipPath16)"><g
           id="g20"
           transform="translate(9.9517,75)"><path
             d="m 0,0 c 0,-36.657 29.717,-66.374 66.374,-66.374 36.658,0 66.376,29.717 66.376,66.374 0,36.658 -29.718,66.375 -66.376,66.375 C 29.717,66.375 0,36.658 0,0 Z"
             style="fill:none;stroke:#000000;stroke-width:11.36800003;stroke-linecap:butt;stroke-linejoin:miter;stroke-miterlimit:10;stroke-dasharray:none;stroke-opacity:1"
             id="path22"
             inkscape:connector-curvature="0" /></g><g
           id="g24"
           transform="translate(53.3101,119.9048)"><path
             d="m 0,0 c 0,-5.235 4.244,-9.478 9.479,-9.478 5.233,0 9.478,4.243 9.478,9.478 0,5.235 -4.245,9.479 -9.478,9.479 C 4.244,9.479 0,5.235 0,0"
             style="fill:#000000;fill-opacity:1;fill-rule:nonzero;stroke:none"
             id="path26"
             inkscape:connector-curvature="0" /></g><g
           id="g28"
           transform="translate(118.1582,44.9639)"><path
             d="m 0,0 -17.995,29.186 -26.392,-0.264 -0.867,11.131 18.078,0 c 2.228,0 4.033,1.807 4.033,4.034 0,2.226 -1.805,4.033 -4.033,4.033 l -18.708,0 -0.637,8.17 c -0.347,4.441 -4.227,7.761 -8.669,7.414 -4.442,-0.346 -7.762,-4.228 -7.415,-8.669 l 2.382,-30.532 c 0.11,-1.419 0.588,-2.718 1.322,-3.824 0.858,-2.305 3.07,-3.946 5.665,-3.946 0.02,0 0.042,0 0.062,0.001 l 28.466,0.285 14.409,-23.369 c 1.144,-1.855 3.126,-2.876 5.154,-2.876 1.083,0 2.181,0.29 3.17,0.901 C 0.869,-6.57 1.754,-2.844 0,0"
             style="fill:#000000;fill-opacity:1;fill-rule:nonzero;stroke:none"
             id="path30"
             inkscape:connector-curvature="0" /></g><g
           id="g32"
           transform="translate(68.7998,24.7744)"><path
             d="m 0,0 c -19.412,0 -35.205,15.794 -35.205,35.204 0,10.974 4.982,21.124 13.668,27.85 0.808,0.627 1.653,1.224 2.511,1.777 0,0 2.711,-7.206 2.075,-7.699 -6.841,-5.297 -10.763,-13.289 -10.763,-21.928 0,-15.281 12.432,-27.713 27.714,-27.713 11.476,0 21.604,6.899 25.802,17.575 0,0 6.179,-4.631 5.726,-5.544 C 28.893,14.22 24.968,9.676 20.049,6.264 14.145,2.166 7.211,0 0,0"
             style="fill:#000000;fill-opacity:1;fill-rule:nonzero;stroke:none"
             id="path34"
             inkscape:connector-curvature="0" /></g></g></g></g></svg>