<?xml version="1.0" encoding="UTF-8" standalone="no"?>
<!-- Created with Inkscape (http://www.inkscape.org/) -->

<svg
   xmlns:dc="http://purl.org/dc/elements/1.1/"
   xmlns:cc="http://creativecommons.org/ns#"
   xmlns:rdf="http://www.w3.org/1999/02/22-rdf-syntax-ns#"
   xmlns:svg="http://www.w3.org/2000/svg"
   xmlns="http://www.w3.org/2000/svg"
   xmlns:sodipodi="http://sodipodi.sourceforge.net/DTD/sodipodi-0.dtd"
   xmlns:inkscape="http://www.inkscape.org/namespaces/inkscape"
   id="svg2"
   version="1.1"
   inkscape:version="0.91 r13725"
   xml:space="preserve"
   width="187.5"
   height="187.5"
   viewBox="0 0 187.5 187.5"
   sodipodi:docname="kbyg-mobility.svg"><metadata
     id="metadata8"><rdf:RDF><cc:Work
         rdf:about=""><dc:format>image/svg+xml</dc:format><dc:type
           rdf:resource="http://purl.org/dc/dcmitype/StillImage" /><dc:title></dc:title></cc:Work></rdf:RDF></metadata><defs
     id="defs6"><clipPath
       clipPathUnits="userSpaceOnUse"
       id="clipPath16"><path
         d="M 0,150 150,150 150,0 0,0 0,150 Z"
         id="path18"
         inkscape:connector-curvature="0" /></clipPath></defs><sodipodi:namedview
     pagecolor="#ffffff"
     bordercolor="#666666"
     borderopacity="1"
     objecttolerance="10"
     gridtolerance="10"
     guidetolerance="10"
     inkscape:pageopacity="0"
     inkscape:pageshadow="2"
     inkscape:window-width="640"
     inkscape:window-height="480"
     id="namedview4"
     showgrid="false"
     inkscape:zoom="1.2586667"
     inkscape:cx="93.75"
     inkscape:cy="93.75"
     inkscape:window-x="0"
     inkscape:window-y="400"
     inkscape:window-maximized="0"
     inkscape:current-layer="g10" /><g
     id="g10"
     inkscape:groupmode="layer"
     inkscape:label="mobility icon"
     transform="matrix(1.25,0,0,-1.25,0,187.5)"><g
       id="g12"><g
         id="g14"
         clip-path="url(#clipPath16)"><g
           id="g20"
           transform="translate(9.9517,75)"><path
             d="m 0,0 c 0,-36.657 29.717,-66.374 66.374,-66.374 36.658,0 66.376,29.717 66.376,66.374 0,36.658 -29.718,66.375 -66.376,66.375 C 29.717,66.375 0,36.658 0,0 Z"
             style="fill:none;stroke:#000000;stroke-width:11.36800003;stroke-linecap:butt;stroke-linejoin:miter;stroke-miterlimit:10;stroke-dasharray:none;stroke-opacity:1"
             id="path22"
             inkscape:connector-curvature="0" /></g><g
           id="g24"
           transform="translate(97.3857,69.4473)"><path
             d="m 0,0 c -0.146,-0.091 -0.104,-0.25 -0.141,-0.378 -0.552,-1.937 -2.255,-3.029 -4.306,-2.768 -1.767,0.229 -3.054,1.744 -3.1,3.679 -0.023,1.032 -0.011,2.068 -0.011,3.101 l 0,21.223 0,0.661 -1.792,0 C -9.472,25.266 -9.412,25 -9.412,24.741 -9.418,2.378 -9.418,-19.983 -9.415,-42.343 c 0,-1.02 -0.053,-2.031 -0.483,-2.979 -0.873,-1.914 -2.798,-2.973 -5.079,-2.791 -2.083,0.164 -3.897,1.661 -4.459,3.666 -0.194,0.681 -0.225,1.375 -0.225,2.077 0.004,12.891 0,25.775 0,38.665 0,0.223 0.047,0.45 -0.063,0.693 -0.474,0.07 -0.959,0.039 -1.441,0.02 -0.157,-0.244 -0.088,-0.493 -0.088,-0.729 -0.003,-12.905 -0.003,-25.811 0,-38.717 0,-1.547 -0.269,-3.014 -1.418,-4.15 -1.555,-1.544 -3.422,-1.941 -5.459,-1.217 -1.974,0.703 -2.923,2.235 -3.089,4.279 -0.033,0.438 -0.039,0.877 -0.039,1.311 -0.004,22.314 0,44.622 0,66.931 l 0,0.809 -1.787,0 c -0.138,-0.193 -0.066,-0.432 -0.066,-0.65 -0.002,-7.912 -0.002,-15.829 -0.002,-23.745 0.002,-0.76 -0.088,-1.499 -0.412,-2.196 -0.719,-1.523 -2.486,-2.382 -4.163,-2.027 -1.771,0.379 -2.961,1.738 -2.97,3.504 -0.019,5.412 -0.012,10.824 -0.012,16.236 0,3.922 -0.088,7.847 0.034,11.767 0.15,4.748 3.462,9.44 8.431,10.61 0.943,0.223 1.895,0.303 2.86,0.303 5.902,0.004 11.805,-0.025 17.703,0.009 C -5.134,39.372 -0.81,34.337 -0.104,29.138 -0.088,29.019 -0.037,28.907 0,28.791 L 0,0 Z"
             style="fill:#000000;fill-opacity:1;fill-rule:evenodd;stroke:none"
             id="path26"
             inkscape:connector-curvature="0" /></g><g
           id="g28"
           transform="translate(78.0498,128.7095)"><path
             d="m 0,0 c 0.962,-0.243 1.936,-0.427 2.836,-0.873 3.543,-1.752 5.24,-5.422 4.89,-8.785 -0.393,-3.744 -3.182,-7.055 -7.295,-7.754 -5.565,-0.946 -10.574,3.636 -10.184,9.282 0.285,4.07 3.42,7.447 7.467,8.03 0.099,0.016 0.194,0.066 0.291,0.1 L 0,0 Z"
             style="fill:#000000;fill-opacity:1;fill-rule:evenodd;stroke:none"
             id="path30"
             inkscape:connector-curvature="0" /></g><g
           id="g32"
           transform="translate(98.7041,22.7695)"><path
             d="m 0,0 c 0,13.981 0.188,43.109 0.188,43.109 -1.035,6.206 -8.344,4.183 -8.344,-1.417"
             style="fill:none;stroke:#000000;stroke-width:2.48000002;stroke-linecap:round;stroke-linejoin:miter;stroke-miterlimit:10;stroke-dasharray:none;stroke-opacity:1"
             id="path34"
             inkscape:connector-curvature="0" /></g></g></g></g></svg>