<?xml version="1.0" encoding="utf-8"?>
<!-- Generator: Adobe Illustrator 21.0.2, SVG Export Plug-In . SVG Version: 6.00 Build 0)  -->
<svg version="1.1" id="Layer_1" xmlns="http://www.w3.org/2000/svg" xmlns:xlink="http://www.w3.org/1999/xlink" x="0px" y="0px"
	 viewBox="0 0 21.5 20.1" style="enable-background:new 0 0 21.5 20.1;" xml:space="preserve">
<g>
	<path d="M11.3,14.9l-3.2,2.7c-1.5,1.2-3.7,1.1-5.1-0.5l-0.7-0.8c-1.2-1.5-1.1-3.7,0.5-5.1l3.6-2.9c1.5-1.2,3.7-1.1,5.1,0.5l1.1,1.3
		c0.3,0.4,0.8,0.4,1.3,0.1c0.4-0.3,0.4-0.8,0.1-1.3l-1.1-1.3C11,5.3,7.7,5.1,5.5,6.9L1.8,10c-2.2,1.8-2.5,5.1-0.7,7.3L2,18.2
		c1.9,2.2,5.1,2.5,7.3,0.7l3.1-2.6c0.4-0.3,0.4-0.8,0.1-1.3C12.2,14.6,11.7,14.7,11.3,14.9z"/>
	<path d="M12.3,1.2L9.6,3.4C9.2,3.7,9.2,4.2,9.5,4.7s0.8,0.4,1.3,0.1l2.7-2.2C15,1.3,17.2,1.4,18.6,3l0.8,1c1.2,1.5,1.1,3.7-0.5,5.1
		l-3.1,2.6c-1.5,1.2-3.7,1.1-5.1-0.5L9.4,9.6C9.2,9.2,8.6,9.1,8.2,9.4c-0.4,0.3-0.4,0.8-0.1,1.3L9.2,12c1.9,2.2,5.1,2.5,7.3,0.7
		l3.1-2.6c2.2-1.9,2.5-5.1,0.7-7.3L19.6,2C17.9-0.3,14.6-0.6,12.3,1.2z"/>
</g>
</svg>
