<?xml version="1.0" encoding="utf-8"?>
<!-- Generator: Adobe Illustrator 21.0.2, SVG Export Plug-In . SVG Version: 6.00 Build 0)  -->
<svg version="1.1" id="Layer_1" xmlns="http://www.w3.org/2000/svg" xmlns:xlink="http://www.w3.org/1999/xlink" x="0px" y="0px"
	 viewBox="0 0 20 14.1" style="enable-background:new 0 0 20 14.1;" xml:space="preserve" width="24" height="24">
<g id="Layer_3">
	<g>
		<g id="Lozenge_2_">
			<g>
				<path fill="#e52d27" class="st0" d="M19.8,3c0,0-0.2-1.4-0.8-2c-0.8-0.8-1.6-0.8-2-0.8C14.2,0,10,0,10,0l0,0c0,0-4.2,0-7,0.2
					C2.6,0.2,1.8,0.3,1,1C0.4,1.7,0.2,3,0.2,3S0,4.7,0,6.3v1.5C0,9.4,0.2,11,0.2,11s0.2,1.4,0.8,2c0.8,0.8,1.8,0.8,2.2,0.9
					C4.8,14,10,14.1,10,14.1s4.2,0,7-0.2c0.4,0,1.2-0.1,2-0.8c0.6-0.6,0.8-2,0.8-2S20,9.4,20,7.8V6.3C20,4.7,19.8,3,19.8,3z
					 M7.9,9.6V4l5.4,2.8L7.9,9.6z"/>
			</g>
		</g>
	</g>
</g>
</svg>
