<?xml version="1.0" encoding="utf-8"?>
<!-- Generator: Adobe Illustrator 21.0.2, SVG Export Plug-In . SVG Version: 6.00 Build 0)  -->
<svg version="1.1" id="Layer_1" xmlns="http://www.w3.org/2000/svg" xmlns:xlink="http://www.w3.org/1999/xlink" x="0px" y="0px"
	 viewBox="0 0 20 12.7" style="enable-background:new 0 0 20 12.7;" xml:space="preserve" width="24" height="24">
<g id="Layer_3">
	<g>
		<path class="st0" d="M0,6.4C-0.1,3.1,2.7,0.1,6,0c1.7-0.1,3.3,0.5,4.6,1.6c-0.5,0.6-1,1.1-1.6,1.7C7.9,2.6,6.5,2.1,5.2,2.5
			C3.1,3.1,1.9,5.6,2.6,7.6c0.6,2.1,3.3,3.3,5.3,2.4C9,9.7,9.7,8.7,10,7.7c-1.2,0-2.4,0-3.6,0c0-0.7,0-1.4,0-2.2c2,0,4.1,0,6.1,0
			c0.1,1.8-0.1,3.7-1.3,5.1c-1.6,2-4.5,2.6-6.9,1.8C1.8,11.5-0.1,9,0,6.4z"/>
		<path class="st0" d="M16.4,3.6c0.6,0,1.2,0,1.8,0c0,0.6,0,1.2,0,1.8c0.6,0,1.2,0,1.8,0c0,0.6,0,1.2,0,1.8c-0.6,0-1.2,0-1.8,0
			c0,0.6,0,1.2,0,1.8c-0.6,0-1.2,0-1.8,0c0-0.6,0-1.2,0-1.8c-0.6,0-1.2,0-1.8,0c0-0.6,0-1.2,0-1.8c0.6,0,1.2,0,1.8,0
			C16.4,4.8,16.4,4.2,16.4,3.6z"/>
	</g>
</g>
</svg>
