<?xml version="1.0" encoding="utf-8"?>
<!-- Generator: Adobe Illustrator 21.0.2, SVG Export Plug-In . SVG Version: 6.00 Build 0)  -->
<svg version="1.1" id="Layer_1" xmlns="http://www.w3.org/2000/svg" xmlns:xlink="http://www.w3.org/1999/xlink" x="0px" y="0px"
	 viewBox="0 0 18 14.6" style="enable-background:new 0 0 18 14.6;" xml:space="preserve" width="24" height="24">
<g id="Layer_3">
	<path  style="fill:#4099ff;" d="M18,1.7c-0.7,0.3-1.4,0.5-2.1,0.6c0.8-0.5,1.3-1.2,1.6-2C16.8,0.7,16,1,15.2,1.2C14.5,0.4,13.5,0,12.5,0
		c-2,0-3.7,1.7-3.7,3.7c0,0.3,0,0.6,0.1,0.8C5.8,4.4,3.1,2.9,1.3,0.7C0.9,1.2,0.8,1.9,0.8,2.5c0,1.3,0.7,2.4,1.6,3.1
		c-0.6,0-1.2-0.2-1.7-0.5l0,0c0,1.8,1.3,3.3,3,3.6C3.4,8.9,3,8.9,2.7,8.9c-0.2,0-0.5,0-0.7-0.1c0.5,1.5,1.8,2.5,3.4,2.6
		c-1.3,1-2.9,1.6-4.6,1.6c-0.2,0-0.5,0-0.8,0c1.6,1,3.6,1.7,5.7,1.7c6.8,0,10.5-5.6,10.5-10.5c0-0.2,0-0.3,0-0.5
		C16.9,3.1,17.5,2.5,18,1.7z"/>
</g>
</svg>
