<?xml version="1.0" encoding="UTF-8" standalone="no"?>
<!-- Created with Inkscape (http://www.inkscape.org/) -->

<svg
   xmlns:dc="http://purl.org/dc/elements/1.1/"
   xmlns:cc="http://creativecommons.org/ns#"
   xmlns:rdf="http://www.w3.org/1999/02/22-rdf-syntax-ns#"
   xmlns:svg="http://www.w3.org/2000/svg"
   xmlns="http://www.w3.org/2000/svg"
   xmlns:sodipodi="http://sodipodi.sourceforge.net/DTD/sodipodi-0.dtd"
   xmlns:inkscape="http://www.inkscape.org/namespaces/inkscape"
   id="svg2"
   version="1.1"
   inkscape:version="0.91 r13725"
   xml:space="preserve"
   width="40"
   height="40"
   viewBox="0 0 187.5 187.5"
   sodipodi:docname="stat-hand.svg"><metadata
     id="metadata8"><rdf:RDF><cc:Work
         rdf:about=""><dc:format>image/svg+xml</dc:format><dc:type
           rdf:resource="http://purl.org/dc/dcmitype/StillImage" /><dc:title></dc:title></cc:Work></rdf:RDF></metadata><defs
     id="defs6"><clipPath
       clipPathUnits="userSpaceOnUse"
       id="clipPath16"><path
         d="M 0,150 150,150 150,0 0,0 0,150 Z"
         id="path18"
         inkscape:connector-curvature="0" /></clipPath></defs><sodipodi:namedview
     pagecolor="#ffffff"
     bordercolor="#666666"
     borderopacity="1"
     objecttolerance="10"
     gridtolerance="10"
     guidetolerance="10"
     inkscape:pageopacity="0"
     inkscape:pageshadow="2"
     inkscape:window-width="640"
     inkscape:window-height="480"
     id="namedview4"
     showgrid="false"
     inkscape:zoom="1.2586667"
     inkscape:cx="93.75"
     inkscape:cy="93.75"
     inkscape:window-x="0"
     inkscape:window-y="400"
     inkscape:window-maximized="0"
     inkscape:current-layer="g10" /><g
     id="g10"
     inkscape:groupmode="layer"
     inkscape:label="hand"
     transform="matrix(1.25,0,0,-1.25,0,187.5)"><g
       id="g12"><g
         id="g14"
         clip-path="url(#clipPath16)"><g
           id="g20"
           transform="translate(102.1064,104.4419)"><path
             d="m 0,0 c 0,-7.679 -0.413,-15.391 0.169,-23.026 0.298,-3.95 1.862,-8.022 3.745,-11.566 1.803,-3.399 4.122,-3.023 5.686,0.484 2.675,6.007 5.306,12.042 7.73,18.156 1.384,3.505 3.852,5.448 7.288,6.57 4.811,1.57 6.834,0.086 6.016,-5.027 -1.08,-6.729 -2.717,-13.367 -3.822,-20.091 -1.446,-8.841 -6.931,-15.235 -12.862,-21.843 -4.225,-4.71 -7.717,-9.15 -11.634,-14.126 -4.02,-5.11 -2.353,-12.785 -2.361,-18.755 -0.005,-7.467 1.18,-6.638 -6.504,-6.665 -12.798,-0.046 -25.597,0.063 -38.394,-0.069 -2.891,-0.029 -3.989,0.888 -3.659,3.755 0.956,8.299 -0.508,15.543 -6.836,21.936 -5.052,5.103 -6.728,11.905 -6.55,19.483 0.452,19.373 0.19,38.762 0.115,58.142 -0.01,2.975 1.248,5.316 3.804,5.961 1.766,0.445 4.269,-0.4 5.865,-1.501 1.072,-0.74 1.552,-2.931 1.581,-4.485 0.149,-8.289 0.06,-16.579 0.084,-24.867 0.004,-1.782 -0.347,-4.218 2.425,-3.756 0.932,0.153 2.142,2.392 2.156,3.688 0.157,13.774 0.077,27.549 0.13,41.324 0.006,1.547 -0.098,3.626 0.791,4.521 1.491,1.499 3.766,3.143 5.664,3.093 2.821,-0.073 4.769,-2.442 4.921,-5.468 0.192,-3.769 0.077,-7.555 0.078,-11.333 0.008,-9.874 -0.052,-19.751 0.061,-29.621 0.023,-1.793 -1.229,-4.758 2.07,-4.879 3.264,-0.125 2.796,2.701 2.8,4.852 0.016,14.995 0.006,29.987 0.017,44.98 0.004,4.855 2.175,7.223 6.561,7.209 4.096,-0.014 6.56,-2.765 6.566,-7.451 0.023,-14.263 0.014,-28.524 0.016,-42.786 0,-0.854 -0.281,-1.862 0.078,-2.524 0.582,-1.075 1.588,-1.923 2.412,-2.866 0.826,0.975 2.338,1.927 2.372,2.93 0.218,6.574 0.122,13.159 0.124,19.742 0.008,6.705 -0.023,13.408 0.024,20.112 0.02,3.552 2.301,6.012 5.42,6.027 3.252,0.015 5.8,-2.591 5.819,-6.126 C 0.008,16.09 -0.021,8.044 -0.021,0 L 0,0 Z"
             style="fill:#777777;fill-opacity:1;fill-rule:evenodd;stroke:none"
             id="path22"
             inkscape:connector-curvature="0" /></g></g></g></g></svg>
