<?xml version="1.0" encoding="UTF-8" standalone="no"?>
<!-- Created with Inkscape (http://www.inkscape.org/) -->

<svg
   xmlns:dc="http://purl.org/dc/elements/1.1/"
   xmlns:cc="http://creativecommons.org/ns#"
   xmlns:rdf="http://www.w3.org/1999/02/22-rdf-syntax-ns#"
   xmlns:svg="http://www.w3.org/2000/svg"
   xmlns="http://www.w3.org/2000/svg"
   xmlns:sodipodi="http://sodipodi.sourceforge.net/DTD/sodipodi-0.dtd"
   xmlns:inkscape="http://www.inkscape.org/namespaces/inkscape"
   id="svg2"
   version="1.1"
   inkscape:version="0.91 r13725"
   xml:space="preserve"
   width="40"
   height="40"
   viewBox="0 0 187.5 187.5"
   sodipodi:docname="stat-grazing.svg"><metadata
     id="metadata8"><rdf:RDF><cc:Work
         rdf:about=""><dc:format>image/svg+xml</dc:format><dc:type
           rdf:resource="http://purl.org/dc/dcmitype/StillImage" /><dc:title></dc:title></cc:Work></rdf:RDF></metadata><defs
     id="defs6"><clipPath
       clipPathUnits="userSpaceOnUse"
       id="clipPath16"><path
         d="M 0,150 150,150 150,0 0,0 0,150 Z"
         id="path18"
         inkscape:connector-curvature="0" /></clipPath></defs><sodipodi:namedview
     pagecolor="#ffffff"
     bordercolor="#666666"
     borderopacity="1"
     objecttolerance="10"
     gridtolerance="10"
     guidetolerance="10"
     inkscape:pageopacity="0"
     inkscape:pageshadow="2"
     inkscape:window-width="640"
     inkscape:window-height="480"
     id="namedview4"
     showgrid="false"
     inkscape:zoom="1.2586667"
     inkscape:cx="93.75"
     inkscape:cy="93.75"
     inkscape:window-x="0"
     inkscape:window-y="400"
     inkscape:window-maximized="0"
     inkscape:current-layer="g10" /><g
     id="g10"
     inkscape:groupmode="layer"
     inkscape:label="grazing"
     transform="matrix(1.25,0,0,-1.25,0,187.5)"><g
       id="g12"><g
         id="g14"
         clip-path="url(#clipPath16)"><g
           id="g20"
           transform="translate(104.9551,46.7344)"><path
             d="m 0,0 c -0.018,-0.016 -0.037,-0.023 -0.055,-0.036 0.159,0.964 0.213,1.957 -0.041,2.549 -0.261,0.608 -1.412,0.864 -1.58,1.454 -0.719,2.51 -0.885,4.835 -0.703,7.422 l 1.006,5.394 -0.061,1.784 c 0,0 -0.896,1.385 -0.943,1.454 -0.877,1.355 -1.871,2.156 -3.166,2.867 2.605,3.239 0.758,9.239 -0.262,12.491 -1.189,-2.625 -1.601,-5.445 -3.468,-7.742 -0.86,-1.059 -1.323,-1.878 -1.416,-2.612 -1.797,2.167 -3.565,4.349 -5.081,6.734 -4.119,6.494 -6.898,14.991 -13.328,19.711 -2.755,2.02 -5.167,2.866 -8.56,3.073 0,0 -4.143,0.143 -4.317,0.148 -8.476,0.294 -16.663,-1.299 -25.13,0.652 -2.883,0.665 -5.708,1.506 -8.616,2.06 0,0 -4.03,1.338 -4.065,1.35 -3.144,1.033 -5.691,1.872 -8.445,-0.464 -2.069,-1.752 -5.997,-5.245 -6.448,-8.087 -0.252,-1.682 -0.478,-3.234 -0.594,-4.724 -0.063,0.127 -0.123,0.257 -0.199,0.378 l 0.006,-0.196 c -0.51,-4.693 0.289,-9.007 2.424,-13.163 1.08,-2.101 1.834,-3.406 1.799,-5.905 -0.035,-2.505 0.716,-4.537 0.68,-7.038 -0.041,-2.915 -2.217,-0.076 -2.29,-7.928 0.211,0.003 0.569,1.589 0.784,1.594 0.327,0.01 0.512,-1.565 0.838,-1.563 0.16,10e-4 0.319,10e-4 0.476,0 0.052,-0.578 0,0.112 0,0.044 -0.079,1.827 0.375,1.415 0.84,2.916 0.069,-0.133 0.14,-0.279 0.205,-0.444 0.238,-0.603 0.15,-1.551 0.215,-2.204 l 0.427,-3.708 -0.058,-2.683 -0.415,-0.907 -0.857,-1.07 -0.409,-1.057 -0.156,-4.173 2.257,-0.669 1.934,0.068 2.082,0.071 0.723,4.938 -1.113,2.045 -0.236,2.525 -0.776,3.099 -0.096,2.826 1.863,4.232 1.113,2.3 0.657,2.525 -0.061,1.784 -0.2,1.482 1.798,-0.383 2.432,-1.408 1.235,-1.295 -1.698,-2.562 -1.696,-2.617 -0.55,-1.36 0.062,-1.784 0.507,-1.769 0.488,-1.175 0.778,-1.015 0.088,-2.528 0.091,-2.678 c 0,0 0.072,-2.082 0.076,-2.222 0.025,-0.704 -0.243,-1.532 -0.376,-2.228 1.148,-0.832 1.637,-1.034 3.018,-0.964 l 2.675,0.094 1.637,0.055 c -0.077,2.286 -0.019,3.139 -1.363,5.014 l -1.251,1.744 -0.949,1.607 -0.651,1.615 -0.056,1.633 0.655,2.553 0.965,2.268 0.544,1.507 1.405,2.46 2.252,-0.547 2.087,-0.076 3.42,0.114 3.271,0.114 9.938,1.116 2.379,0.081 2.149,-1.891 1.017,-3.539 0.835,-2.651 0.111,-3.271 0.111,-3.271 0.084,-2.379 -0.827,-1.964 -0.498,-2.848 0.031,-0.89 1.518,-0.841 3.136,0.107 2.516,0.085 -1.996,6.037 0.051,2.832 0.644,2.999 c 0,0 0.826,1.648 0.834,1.665 0.485,0.965 1.562,1.087 1.869,2.214 0.725,2.657 -0.577,5.326 0.461,8.012 0.451,-0.177 0.913,-0.366 1.36,-0.572 0.681,-0.288 1.432,0.167 2.193,0.515 l 0.037,-0.435 c 0.058,-1.525 0.538,-2.796 0.74,-4.275 0.196,-1.477 0.097,-3.106 0.771,-4.457 1.27,-2.543 1.106,-6.184 -0.221,-8.594 -0.541,-0.984 -0.536,-2.637 -0.638,-4.081 2.192,-0.693 4.393,-1.453 5.631,0.389 1.221,1.819 0.315,4.368 -0.357,6.186 -0.908,2.47 -0.736,4.159 0.27,6.572 0.65,1.564 2.418,3.779 1.939,5.579 0.945,-0.575 1.861,-1.157 2.693,-1.706 4.618,-3.015 4.217,-9.087 8.5,-12.221 l 2.407,-0.661 c 1.084,-0.299 2.875,-3.903 3.593,-4.939 0.563,-0.813 1.543,-1.164 2.655,-1.278 0.677,-1.024 2.929,-0.563 3.89,-0.398 0.659,0.111 1.885,0.132 2.237,0.775 C 0.375,-1.809 0.148,-0.439 0,0"
             style="fill:#777777;fill-opacity:1;fill-rule:nonzero;stroke:none"
             id="path22"
             inkscape:connector-curvature="0" /></g><g
           id="g24"
           transform="translate(145.8477,86.5898)"><path
             d="m 0,0 c -0.305,0.423 -1.006,0.23 -1.488,0.586 -1.309,0.955 -0.641,2.787 -1.963,3.865 -0.541,0.437 -0.381,0.811 -0.938,1.506 -0.447,0.561 -0.752,0.629 -1.068,1.208 -0.35,0.65 -0.855,1.148 -1.441,1.534 -0.196,0.259 -0.485,0.52 -0.903,0.826 -2.396,1.729 -5.099,2.237 -8.008,1.967 -3.367,-0.313 -6.652,-1.085 -10.103,-0.958 -2.955,0.113 -5.246,0.838 -6.934,3.31 -0.771,1.133 -1.578,2.163 -0.547,3.564 0.362,0.49 0.373,1.09 0.079,1.685 -0.84,0.24 -1.446,-0.272 -1.965,-0.733 -0.75,-0.67 -1.465,-1.028 -2.543,-0.894 -1.407,0.174 -2.705,-0.484 -3.338,-1.681 -0.627,-1.191 -1.258,-2.404 -1.805,-3.639 -0.603,-1.368 0.266,-2.881 1.58,-2.948 2.442,-0.126 3.371,-0.909 3.86,-3.255 0.195,-0.953 0.58,-1.857 0.818,-2.782 0.273,-1.052 1.242,-1.948 0.865,-3.137 -1.156,-3.635 -1.254,-7.332 -0.672,-11.169 0.621,0.181 3.16,-0.457 2.416,0.898 -1.187,2.162 -0.312,4.29 -0.312,4.29 -0.25,1.901 0.58,2.232 2.158,2.882 0.613,0.255 1.225,0.504 1.914,0.788 0.404,-3.538 2.846,-6.196 1.063,-9.91 0.039,-0.603 2.211,-0.498 2.74,-0.102 0.869,0.651 0.377,1.893 0.18,3.116 -0.401,2.473 -0.497,4.962 -0.209,7.546 0.472,0 0.865,0.047 1.242,-0.006 2.527,-0.364 5.062,-0.216 7.564,0.06 1.567,0.173 2.942,0.562 3.262,-1.62 0.057,-0.384 0.443,-0.76 0.756,-1.053 0.642,-0.607 0.767,-1.339 0.566,-2.128 -0.238,-0.933 -0.289,-1.907 -0.744,-2.799 -0.525,-1.023 -1.137,-2.319 -0.828,-3.465 0.617,-0.062 1.756,0.07 2.43,0 1.466,3.419 3.65,6.427 3.607,10.468 0.834,-0.872 2.027,-0.925 2.143,-2.162 0.166,-1.807 2.082,-4.315 2.298,-7.342 0.059,-0.837 2.213,-0.242 3.133,-0.214 0,0.4 -0.502,0.934 -0.623,1.223 -1.013,2.476 -1.111,5.163 -1.808,7.709 -0.379,1.376 -0.975,2.656 -2.139,3.541 -1.408,1.07 -2.234,4.337 -1.416,5.876 0.062,0.119 0.113,0.224 0.162,0.331 1.078,-1.035 0.746,-2.267 2.002,-3.265 0.686,-0.548 1.143,-0.489 1.516,-1.414 0.261,-0.657 -0.102,-1.17 0.326,-1.803 0.193,-0.288 2.353,-1.902 2.681,-1.821 0.323,0.085 0.618,0.822 0.577,1.128 C 0.121,-0.223 0.072,-0.097 0,0"
             style="fill:#777777;fill-opacity:1;fill-rule:evenodd;stroke:none"
             id="path26"
             inkscape:connector-curvature="0" /></g></g></g></g></svg>
