<?xml version="1.0" encoding="UTF-8" standalone="no"?>
<!-- Created with Inkscape (http://www.inkscape.org/) -->

<svg
   xmlns:dc="http://purl.org/dc/elements/1.1/"
   xmlns:cc="http://creativecommons.org/ns#"
   xmlns:rdf="http://www.w3.org/1999/02/22-rdf-syntax-ns#"
   xmlns:svg="http://www.w3.org/2000/svg"
   xmlns="http://www.w3.org/2000/svg"
   xmlns:sodipodi="http://sodipodi.sourceforge.net/DTD/sodipodi-0.dtd"
   xmlns:inkscape="http://www.inkscape.org/namespaces/inkscape"
   id="svg2"
   version="1.1"
   inkscape:version="0.91 r13725"
   xml:space="preserve"
   width="40"
   height="40"
   viewBox="0 0 187.5 187.5"
   sodipodi:docname="stat-lecture_series.svg"><metadata
     id="metadata8"><rdf:RDF><cc:Work
         rdf:about=""><dc:format>image/svg+xml</dc:format><dc:type
           rdf:resource="http://purl.org/dc/dcmitype/StillImage" /><dc:title></dc:title></cc:Work></rdf:RDF></metadata><defs
     id="defs6"><clipPath
       clipPathUnits="userSpaceOnUse"
       id="clipPath16"><path
         d="M 0,150 150,150 150,0 0,0 0,150 Z"
         id="path18"
         inkscape:connector-curvature="0" /></clipPath></defs><sodipodi:namedview
     pagecolor="#ffffff"
     bordercolor="#666666"
     borderopacity="1"
     objecttolerance="10"
     gridtolerance="10"
     guidetolerance="10"
     inkscape:pageopacity="0"
     inkscape:pageshadow="2"
     inkscape:window-width="640"
     inkscape:window-height="480"
     id="namedview4"
     showgrid="false"
     inkscape:zoom="1.2586667"
     inkscape:cx="93.75"
     inkscape:cy="93.75"
     inkscape:window-x="0"
     inkscape:window-y="400"
     inkscape:window-maximized="0"
     inkscape:current-layer="g10" /><g
     id="g10"
     inkscape:groupmode="layer"
     inkscape:label="lecture series"
     transform="matrix(1.25,0,0,-1.25,0,187.5)"><g
       id="g12"><g
         id="g14"
         clip-path="url(#clipPath16)"><g
           id="g20"
           transform="translate(29.8594,84.0439)"><path
             d="m 0,0 c 4.069,-1.427 7.841,-2.734 11.601,-4.075 10.704,-3.817 21.409,-7.632 32.095,-11.502 0.893,-0.322 1.547,-0.054 2.31,0.216 14.092,5.026 28.187,10.041 42.285,15.053 0.21,0.074 0.443,0.084 0.66,0.124 0.423,-0.419 0.252,-0.904 0.254,-1.331 0.013,-11.33 -0.008,-22.659 0.036,-33.988 0.004,-1.12 -0.423,-1.595 -1.381,-2.052 -10.687,-5.088 -21.897,-8.237 -33.69,-9.344 -2.74,-0.258 -5.463,-0.409 -8.168,-0.452 -3.832,-0.06 -7.624,0.097 -11.381,0.466 -11.268,1.114 -22.2,4.157 -32.813,9.086 -1.441,0.671 -1.847,1.458 -1.836,3 0.069,10.864 0.031,21.73 0.028,32.593 L 0,0 Z"
             style="fill:#777777;fill-opacity:1;fill-rule:evenodd;stroke:none"
             id="path22"
             inkscape:connector-curvature="0" /></g><g
           id="g24"
           transform="translate(135.9375,90.0439)"><path
             d="m 0,0 c 2.073,0.75 4.07,1.474 6.31,2.282 l 0,-9.461 c -0.004,-4.824 0.013,-9.648 -0.023,-14.472 -0.006,-0.938 0.246,-1.575 0.987,-2.231 2.974,-2.634 2.992,-6.813 0.079,-9.471 -0.602,-0.55 -0.746,-0.997 -0.581,-1.784 0.915,-4.373 1.756,-8.762 2.634,-13.141 0.405,-2.02 0.278,-3.401 -1.54,-3.144 0,0 -6.104,-1.377 -10.426,0.774 -1.01,0.253 -1.286,0.837 -1.044,1.949 0.964,4.424 1.771,8.879 2.709,13.304 0.21,0.962 0.031,1.575 -0.633,2.314 -2.386,2.649 -2.201,6.547 0.472,8.881 0.858,0.753 1.076,1.49 1.07,2.529 C -0.017,-14.987 0,-8.304 0,-1.62 L 0,0 Z"
             style="fill:#777777;fill-opacity:1;fill-rule:evenodd;stroke:none"
             id="path26"
             inkscape:connector-curvature="0" /></g><g
           id="g28"
           transform="translate(3.1362,97.2734)"><path
             d="m 0,0 c 0.646,-4.885 63.928,-20.835 71.983,-20.863 8.055,-0.029 69.005,18.26 69.077,22.674 C 141.132,6.224 80.589,15.726 71.983,16.039 63.375,16.352 -0.647,4.884 0,0"
             style="fill:#777777;fill-opacity:1;fill-rule:evenodd;stroke:none"
             id="path30"
             inkscape:connector-curvature="0" /></g></g></g></g></svg>
