<?xml version="1.0" encoding="UTF-8" standalone="no"?>
<!-- Created with Inkscape (http://www.inkscape.org/) -->

<svg
   xmlns:dc="http://purl.org/dc/elements/1.1/"
   xmlns:cc="http://creativecommons.org/ns#"
   xmlns:rdf="http://www.w3.org/1999/02/22-rdf-syntax-ns#"
   xmlns:svg="http://www.w3.org/2000/svg"
   xmlns="http://www.w3.org/2000/svg"
   xmlns:sodipodi="http://sodipodi.sourceforge.net/DTD/sodipodi-0.dtd"
   xmlns:inkscape="http://www.inkscape.org/namespaces/inkscape"
   id="svg2"
   version="1.1"
   inkscape:version="0.91 r13725"
   xml:space="preserve"
   width="40"
   height="40"
   viewBox="0 0 187.5 187.5"
   sodipodi:docname="stat-clipboard.svg"><metadata
     id="metadata8"><rdf:RDF><cc:Work
         rdf:about=""><dc:format>image/svg+xml</dc:format><dc:type
           rdf:resource="http://purl.org/dc/dcmitype/StillImage" /><dc:title></dc:title></cc:Work></rdf:RDF></metadata><defs
     id="defs6"><clipPath
       clipPathUnits="userSpaceOnUse"
       id="clipPath16"><path
         d="M 0,150 150,150 150,0 0,0 0,150 Z"
         id="path18"
         inkscape:connector-curvature="0" /></clipPath></defs><sodipodi:namedview
     pagecolor="#ffffff"
     bordercolor="#666666"
     borderopacity="1"
     objecttolerance="10"
     gridtolerance="10"
     guidetolerance="10"
     inkscape:pageopacity="0"
     inkscape:pageshadow="2"
     inkscape:window-width="640"
     inkscape:window-height="480"
     id="namedview4"
     showgrid="false"
     inkscape:zoom="1.2586667"
     inkscape:cx="93.75"
     inkscape:cy="93.75"
     inkscape:window-x="0"
     inkscape:window-y="400"
     inkscape:window-maximized="0"
     inkscape:current-layer="g10" /><g
     id="g10"
     inkscape:groupmode="layer"
     inkscape:label="clipboard"
     transform="matrix(1.25,0,0,-1.25,0,187.5)"><g
       id="g12"><g
         id="g14"
         clip-path="url(#clipPath16)"><g
           id="g20"
           transform="translate(39.5391,4.9424)"><path
             d="m 0,0 c -4.576,1.596 -6.265,5.227 -6.277,9.608 -0.08,33.293 -0.058,66.591 -0.052,99.883 10e-4,5.141 4.343,10.026 9.499,9.955 4.694,-0.065 4.676,0.137 4.834,-4.6 0.174,-5.25 4.558,-9.803 9.932,-9.783 14.198,0.048 28.403,0.15 42.601,-0.052 5.859,-0.083 10.655,4.781 10.584,10.453 -0.048,4.049 0.062,4.052 4.181,3.95 0.206,-0.006 0.416,-0.033 0.621,-0.023 5.214,0.299 9.492,-4.818 9.495,-9.9 C 85.423,76.472 85.425,43.452 85.404,10.435 85.398,5.631 83.928,1.669 78.901,-0.088 78.557,-0.211 0.412,-0.144 0,0"
             style="fill:#777777;fill-opacity:1;fill-rule:evenodd;stroke:none"
             id="path22"
             inkscape:connector-curvature="0" /></g><g
           id="g24"
           transform="translate(83.7568,145.2104)"><path
             d="m 0,0 c 0.05,-0.637 0.502,-0.847 1.026,-0.982 3.055,-0.779 5.469,-4.78 5.558,-7.838 0.137,-4.691 0.129,-4.681 4.898,-4.651 1.992,0.016 3.972,0.098 5.921,-0.59 1.615,-0.566 2.464,-1.581 2.505,-3.235 0.05,-1.995 0.056,-3.996 -0.015,-5.993 -0.054,-1.588 -1.592,-3.208 -3.178,-3.356 -1.282,-0.118 -2.576,-0.098 -3.862,-0.098 -12.575,0.002 -25.143,-0.005 -37.714,0.035 -3.189,0.009 -4.275,1.144 -4.362,4.293 -0.031,1.159 0.038,2.322 -0.048,3.477 -0.294,3.881 1.754,5.068 5.408,5.44 1.915,0.196 3.874,0.173 5.794,0.007 1.914,-0.163 2.355,0.659 2.194,2.353 -0.272,2.912 0.299,5.644 2.28,7.904 0.88,1.003 1.842,1.989 3.277,2.251 0.539,0.098 0.966,0.362 1.028,0.983 L 0,0 Z"
             style="fill:#777777;fill-opacity:1;fill-rule:evenodd;stroke:none"
             id="path26"
             inkscape:connector-curvature="0" /></g></g></g></g></svg>
