<?xml version="1.0" encoding="UTF-8" standalone="no"?>
<svg
   xmlns:dc="http://purl.org/dc/elements/1.1/"
   xmlns:cc="http://creativecommons.org/ns#"
   xmlns:rdf="http://www.w3.org/1999/02/22-rdf-syntax-ns#"
   xmlns:svg="http://www.w3.org/2000/svg"
   xmlns="http://www.w3.org/2000/svg"
   xmlns:sodipodi="http://sodipodi.sourceforge.net/DTD/sodipodi-0.dtd"
   xmlns:inkscape="http://www.inkscape.org/namespaces/inkscape"
   data-name="Layer 1"
   viewBox="0 0 512 640"
   x="0px"
   y="0px"
   version="1.1"
   id="svg3698"
   width="40"
   height="40"
   sodipodi:docname="birthday.svg"
   inkscape:version="0.92.1 r15371">
  <metadata
     id="metadata3704">
    <rdf:RDF>
      <cc:Work
         rdf:about="">
        <dc:format>image/svg+xml</dc:format>
        <dc:type
           rdf:resource="http://purl.org/dc/dcmitype/StillImage" />
      </cc:Work>
    </rdf:RDF>
  </metadata>
  <defs
     id="defs3702" />
  <sodipodi:namedview
     pagecolor="#ffffff"
     bordercolor="#666666"
     borderopacity="1"
     objecttolerance="10"
     gridtolerance="10"
     guidetolerance="10"
     inkscape:pageopacity="0"
     inkscape:pageshadow="2"
     inkscape:window-width="1920"
     inkscape:window-height="1018"
     id="namedview3700"
     showgrid="false"
     inkscape:zoom="1.3265625"
     inkscape:cx="256"
     inkscape:cy="320"
     inkscape:window-x="-8"
     inkscape:window-y="-8"
     inkscape:window-maximized="1"
     inkscape:current-layer="svg3698" />
  <title
     id="title3680">5</title>
  <path fill="#777777"
     d="M314.79,335.19c-18.73-8.22-34.9-15.31-58.8-10.83-16.74,3.14-25,9.61-33.74,16.46-9.77,7.66-19.88,15.58-39.54,16l-1.54,0c-23.54,0-39.85-11.25-54.28-21.2-13.63-9.4-25.4-17.52-41.73-16.36-10.76.77-21.45,5.46-32,14V479.57h405.7V310.09c-28.08,25.19-56.69,38.43-85.33,39.42C349.33,350.36,331.78,342.64,314.79,335.19Z"
     id="path3682" />
  <path fill="#777777"
     d="M136.35,321.89c13.9,9.58,27,18.63,46,18.24,14.1-.29,20.6-5.39,29.6-12.44s20.21-15.84,41-19.73c29-5.42,49.09,3.41,68.57,12,16,7,31.09,13.62,51.5,12.92,28.28-1,57.14-16.41,85.91-45.87V205.74h-0.42a13.29,13.29,0,0,0-6.2-8.94c-6-3.68-12.23-7.73-18.92-9.52-17.05-4.54-34.36-8.22-51.68-11.63-9.63-1.9-19.5-2.59-29.64-3.87,0-2,0-3.73,0-5.43,0-21.54,0-43.07,0-64.61,0-7.69-4-13.45-10.49-15.79-10.87-3.91-21.32,3.76-21.43,16.11-0.18,20.32-.06,40.64-0.06,61,0,2,0,4,0,5.12-12.07,0-23.33.08-34.58,0-13.49-.11-13.49-0.18-13.49-13.76,0-21.36.08-42.72-.07-64.09a15.67,15.67,0,0,0-13.17-15.78C251,73.26,243.31,77.64,241,85a32.19,32.19,0,0,0-.94,9.25c-0.06,22.75-.14,45.5.08,68.25,0,4.41-1.35,5.64-5.59,5.55-7.46-.17-14.93.15-22.4,0.4-6.54.22-13.07,0.63-20.17,1,0-2.54,0-4.4,0-6.26,0-19.8,0-39.6-.07-59.4a26.73,26.73,0,0,0-1.26-8.67,15.84,15.84,0,0,0-30.62,6q-0.16,33.08,0,66.17c0,3.77-1,4.81-4.85,5.33-18.21,2.49-36.43,5-54.49,8.39-13.12,2.45-26,6.21-37.58,13.27-4.77,2.9-8.09,6.49-9.43,11.48H53.19V209c-0.06.69-.1,1.39-0.1,2.13q0.11,29.82.1,59.65v42.06A68.28,68.28,0,0,1,84,302.63C106.12,301,121.49,311.64,136.35,321.89Z"
     id="path3684" />
  <path fill="#777777"
     d="M454.34,490.48l-319.81,0q-39.33,0-78.65,0c-8.2,0-13.31,4.07-13.4,10.59C42.39,507.79,47.58,512,56.09,512H454.55c9.68,0,14.85-3.67,15-10.61C469.64,494.3,464.33,490.48,454.34,490.48Z"
     id="path3686" />
  <path fill="#777777"
     d="M322.88,71.14c8.78,4.4,17.73,4.48,26.48-.1,5.35-2.8,8.74-7.41,7.78-13.52a65.94,65.94,0,0,0-5-17.78c-3.88-8.21-4.64-16.2-1.81-24.68,0.42-1.26.79-2.53,1.33-4.23a17.93,17.93,0,0,0-2.94.22c-25.69,6.83-34.3,28.49-34,48.2C314.85,64.7,318.08,68.73,322.88,71.14Z"
     id="path3688" />
  <path fill="#777777"
     d="M163.79,71.62a27.8,27.8,0,0,0,24.6-.13c6.55-3.12,9.93-8.5,8.68-15.56a71.31,71.31,0,0,0-5.42-17.17c-3.46-7.51-4.31-14.86-1.65-22.66,0.54-1.57.9-3.21,1.49-5.38-1.66.28-2.82,0.37-3.91,0.68-20.25,5.67-32.81,23.33-32.88,45.82C154.68,64.13,157.71,68.81,163.79,71.62Z"
     id="path3690" />
  <path fill="#777777"
     d="M238.24,56.78c6.31,7.54,21.66,9.11,31.36,3.5,7.67-4.44,9.71-12.2,6.12-23.46a20.69,20.69,0,0,0-1.79-4.31c-6.08-10.19-7.52-20.73-1.84-32.51-2,.25-2.85.27-3.66,0.47C247.2,5.59,231.77,28.3,235.07,49.86A14.82,14.82,0,0,0,238.24,56.78Z"
     id="path3692" />
</svg>
