<?xml version="1.0" encoding="UTF-8" standalone="no"?>
<!-- Created with Inkscape (http://www.inkscape.org/) -->

<svg
   xmlns:dc="http://purl.org/dc/elements/1.1/"
   xmlns:cc="http://creativecommons.org/ns#"
   xmlns:rdf="http://www.w3.org/1999/02/22-rdf-syntax-ns#"
   xmlns:svg="http://www.w3.org/2000/svg"
   xmlns="http://www.w3.org/2000/svg"
   xmlns:sodipodi="http://sodipodi.sourceforge.net/DTD/sodipodi-0.dtd"
   xmlns:inkscape="http://www.inkscape.org/namespaces/inkscape"
   id="svg2"
   version="1.1"
   inkscape:version="0.91 r13725"
   xml:space="preserve"
   width="40"
   height="40"
   viewBox="0 0 187.5 187.5"
   sodipodi:docname="stat-footprints.svg"><metadata
     id="metadata8"><rdf:RDF><cc:Work
         rdf:about=""><dc:format>image/svg+xml</dc:format><dc:type
           rdf:resource="http://purl.org/dc/dcmitype/StillImage" /><dc:title></dc:title></cc:Work></rdf:RDF></metadata><defs
     id="defs6"><clipPath
       clipPathUnits="userSpaceOnUse"
       id="clipPath16"><path
         d="M 0,150 150,150 150,0 0,0 0,150 Z"
         id="path18"
         inkscape:connector-curvature="0" /></clipPath></defs><sodipodi:namedview
     pagecolor="#ffffff"
     bordercolor="#666666"
     borderopacity="1"
     objecttolerance="10"
     gridtolerance="10"
     guidetolerance="10"
     inkscape:pageopacity="0"
     inkscape:pageshadow="2"
     inkscape:window-width="640"
     inkscape:window-height="480"
     id="namedview4"
     showgrid="false"
     inkscape:zoom="1.2586667"
     inkscape:cx="93.75"
     inkscape:cy="93.75"
     inkscape:window-x="0"
     inkscape:window-y="400"
     inkscape:window-maximized="0"
     inkscape:current-layer="g10" /><g
     id="g10"
     inkscape:groupmode="layer"
     inkscape:label="footprints"
     transform="matrix(1.25,0,0,-1.25,0,187.5)"><g
       id="g12"><g
         id="g14"
         clip-path="url(#clipPath16)"><g
           id="g20"
           transform="translate(100.2813,57.3145)"><path
             d="m 0,0 c 3.024,-3.943 2.478,-9.354 0.373,-13.727 -1.273,-2.64 -3.076,-5.171 -4.972,-7.404 -5.923,-6.963 -13.635,-11.584 -21.838,-15.387 -1.997,-0.927 -2.518,-0.668 -3.52,1.25 -2.717,5.213 -5.82,10.145 -10.228,14.133 -1.025,0.926 -1.438,1.946 -0.665,3.264 6.016,10.279 14.216,17.943 25.82,21.488 4.857,1.488 10.674,1.041 14.325,-2.791 C -0.45,0.557 -0.216,0.285 0,0"
             style="fill:#777777;fill-opacity:1;fill-rule:evenodd;stroke:none"
             id="path22"
             inkscape:connector-curvature="0" /></g><g
           id="g24"
           transform="translate(36.5601,12.0176)"><path
             d="m 0,0 c -2.616,3.758 -2.896,8.984 1.334,13.002 3.394,3.228 7.461,5.363 11.682,7.281 1.027,0.467 1.483,0.141 1.946,-0.683 2.082,-3.711 4.185,-7.405 6.276,-11.108 1.056,-1.873 2.106,-3.75 3.304,-5.885 C 22.933,1.502 21.366,0.281 19.666,-0.699 17.499,-1.945 15.292,-3.189 12.975,-4.09 7.75,-6.119 2.666,-3.82 0,0"
             style="fill:#777777;fill-opacity:1;fill-rule:evenodd;stroke:none"
             id="path26"
             inkscape:connector-curvature="0" /></g><g
           id="g28"
           transform="translate(119.2578,136.4932)"><path
             d="m 0,0 c -3.383,3.642 -8.808,4.015 -13.467,2.673 -2.819,-0.809 -5.617,-2.157 -8.137,-3.652 -7.864,-4.667 -13.713,-11.488 -18.841,-18.941 -1.252,-1.81 -1.086,-2.369 0.639,-3.678 4.681,-3.557 9.018,-7.444 12.21,-12.461 0.736,-1.164 1.675,-1.744 3.106,-1.205 11.143,4.2 20.078,10.993 25.524,21.839 2.282,4.538 2.823,10.343 -0.34,14.587 C 0.472,-0.541 0.239,-0.266 0,0"
             style="fill:#777777;fill-opacity:1;fill-rule:evenodd;stroke:none"
             id="path30"
             inkscape:connector-curvature="0" /></g><g
           id="g32"
           transform="translate(63.8853,81.3032)"><path
             d="m 0,0 c 3.261,-3.215 8.363,-4.368 13.038,-0.874 3.752,2.804 6.543,6.45 9.145,10.289 0.633,0.936 0.387,1.439 -0.352,2.034 -3.302,2.676 -6.591,5.368 -9.889,8.057 C 10.273,20.861 8.601,22.211 6.698,23.75 5.338,22.351 3.874,21.013 2.615,19.498 1.021,17.573 -0.574,15.612 -1.854,13.476 -4.733,8.667 -3.317,3.269 0,0"
             style="fill:#777777;fill-opacity:1;fill-rule:evenodd;stroke:none"
             id="path34"
             inkscape:connector-curvature="0" /></g></g></g></g></svg>
