<?xml version="1.0" encoding="UTF-8" standalone="no"?>
<!-- Created with Inkscape (http://www.inkscape.org/) -->

<svg
   xmlns:dc="http://purl.org/dc/elements/1.1/"
   xmlns:cc="http://creativecommons.org/ns#"
   xmlns:rdf="http://www.w3.org/1999/02/22-rdf-syntax-ns#"
   xmlns:svg="http://www.w3.org/2000/svg"
   xmlns="http://www.w3.org/2000/svg"
   xmlns:sodipodi="http://sodipodi.sourceforge.net/DTD/sodipodi-0.dtd"
   xmlns:inkscape="http://www.inkscape.org/namespaces/inkscape"
   id="svg2"
   version="1.1"
   inkscape:version="0.91 r13725"
   xml:space="preserve"
   width="40"
   height="40"
   viewBox="0 0 187.5 187.5"
   sodipodi:docname="stat-permit_required.svg"><metadata
     id="metadata8"><rdf:RDF><cc:Work
         rdf:about=""><dc:format>image/svg+xml</dc:format><dc:type
           rdf:resource="http://purl.org/dc/dcmitype/StillImage" /><dc:title></dc:title></cc:Work></rdf:RDF></metadata><defs
     id="defs6"><clipPath
       clipPathUnits="userSpaceOnUse"
       id="clipPath16"><path
         d="M 0,150 150,150 150,0 0,0 0,150 Z"
         id="path18"
         inkscape:connector-curvature="0" /></clipPath></defs><sodipodi:namedview
     pagecolor="#ffffff"
     bordercolor="#666666"
     borderopacity="1"
     objecttolerance="10"
     gridtolerance="10"
     guidetolerance="10"
     inkscape:pageopacity="0"
     inkscape:pageshadow="2"
     inkscape:window-width="640"
     inkscape:window-height="480"
     id="namedview4"
     showgrid="false"
     inkscape:zoom="1.2586667"
     inkscape:cx="93.75"
     inkscape:cy="93.75"
     inkscape:window-x="0"
     inkscape:window-y="400"
     inkscape:window-maximized="0"
     inkscape:current-layer="g10" /><g
     id="g10"
     inkscape:groupmode="layer"
     inkscape:label="permit required"
     transform="matrix(1.25,0,0,-1.25,0,187.5)"><g
       id="g12"><g
         id="g14"
         clip-path="url(#clipPath16)"><g
           id="g20"
           transform="translate(53.8657,106.646)"><path
             d="m 0,0 c 7.162,-0.05 14.352,-0.483 21.476,0.006 3.686,0.255 7.495,1.687 10.814,3.418 3.178,1.663 2.843,3.827 -0.416,5.308 -5.585,2.538 -11.196,5.032 -16.882,7.33 -3.261,1.316 -5.057,3.629 -6.081,6.841 -1.433,4.495 -0.035,6.372 4.728,5.576 6.268,-1.049 12.448,-2.621 18.713,-3.692 8.238,-1.412 14.163,-6.569 20.288,-12.143 4.365,-3.969 8.485,-7.255 13.103,-10.941 4.738,-3.786 11.906,-2.281 17.474,-2.324 6.962,-0.055 6.199,1.055 6.173,-6.111 -0.04,-11.936 -0.227,-23.874 -0.186,-35.811 0.006,-2.696 -0.857,-3.716 -3.529,-3.386 -7.733,0.944 -14.498,-0.372 -20.502,-6.236 -4.797,-4.678 -11.149,-6.197 -18.216,-5.979 0,0 5.337,31.283 -5.881,33.1 -22.691,3.671 -75.175,0.704 -75.175,0.704 -0.434,0.884 -0.644,1.969 -0.63,3.26 0.039,3.82 2.622,6.1 6.992,6.078 13.302,-0.075 26.602,-0.177 39.904,-0.267 0.797,-0.005 1.735,-0.275 2.356,0.055 1.007,0.538 1.803,1.467 2.688,2.234 -0.904,0.776 -1.781,2.192 -2.716,2.227 -6.131,0.249 -12.273,0.201 -18.413,0.249 -6.255,0.048 -12.505,0.063 -18.759,0.151 -3.311,0.046 -5.591,2.186 -5.584,5.096 0.006,3.032 2.454,5.39 5.751,5.386 C -15.007,0.116 -7.504,0.037 0,-0.018 L 0,0 Z"
             style="fill:#777777;fill-opacity:1;fill-rule:evenodd;stroke:none"
             id="path22"
             inkscape:connector-curvature="0" /></g><g
           id="g24"
           transform="translate(48.0249,44.0391)"><path
             d="m 0,0 -28.89,0 c 0.124,4.234 2.385,6.25 6.15,7.37 4.334,1.286 4.687,2.667 3.031,6.802 -0.774,1.932 -1.479,4.193 -1.198,6.162 0.271,1.899 1.538,4.767 2.924,5.143 2.13,0.574 5.33,0.084 6.965,-1.283 1.457,-1.215 1.436,-4.232 1.996,-6.471 0.08,-0.325 -0.235,-0.756 -0.394,-1.124 C -12.505,9.406 -11.874,9.26 -5.507,7.195 -2.098,6.094 -0.157,3.817 0,0"
             style="fill:#777777;fill-opacity:1;fill-rule:evenodd;stroke:none"
             id="path26"
             inkscape:connector-curvature="0" /></g><g
           id="g28"
           transform="translate(12.041,44.4014)"><path
             d="m 0,0 c 0,-7.425 6.018,-13.442 13.443,-13.442 l 62.439,0 c 7.423,0 13.442,6.017 13.442,13.442 l 0,25.754 c 0,7.423 -6.019,13.441 -13.442,13.441 l -62.439,0 C 6.018,39.195 0,33.177 0,25.754 L 0,0 Z"
             style="fill:none;stroke:#231f20;stroke-width:4.48099995;stroke-linecap:butt;stroke-linejoin:miter;stroke-miterlimit:10;stroke-dasharray:none;stroke-opacity:1"
             id="path30"
             inkscape:connector-curvature="0" /></g><g
           id="g32"
           transform="translate(56.7021,70.3379)"><path
             d="M 0,0 32.768,0"
             style="fill:none;stroke:#777777;stroke-width:6.72100019;stroke-linecap:butt;stroke-linejoin:miter;stroke-miterlimit:10;stroke-dasharray:none;stroke-opacity:1"
             id="path34"
             inkscape:connector-curvature="0" /></g><g
           id="g36"
           transform="translate(56.7021,57.4824)"><path
             d="M 0,0 32.768,0"
             style="fill:none;stroke:#777777;stroke-width:6.72100019;stroke-linecap:butt;stroke-linejoin:miter;stroke-miterlimit:10;stroke-dasharray:none;stroke-opacity:1"
             id="path38"
             inkscape:connector-curvature="0" /></g><g
           id="g40"
           transform="translate(56.7021,44.9082)"><path
             d="M 0,0 32.768,0"
             style="fill:none;stroke:#777777;stroke-width:6.72100019;stroke-linecap:butt;stroke-linejoin:miter;stroke-miterlimit:10;stroke-dasharray:none;stroke-opacity:1"
             id="path42"
             inkscape:connector-curvature="0" /></g></g></g></g></svg>
