<?xml version="1.0" encoding="UTF-8" standalone="no"?>
<svg
   xmlns:dc="http://purl.org/dc/elements/1.1/"
   xmlns:cc="http://creativecommons.org/ns#"
   xmlns:rdf="http://www.w3.org/1999/02/22-rdf-syntax-ns#"
   xmlns:svg="http://www.w3.org/2000/svg"
   xmlns="http://www.w3.org/2000/svg"
   xmlns:sodipodi="http://sodipodi.sourceforge.net/DTD/sodipodi-0.dtd"
   xmlns:inkscape="http://www.inkscape.org/namespaces/inkscape"
   version="1.1"
   x="0px"
   y="0px"
   width="40"
   height="40"
   viewBox="0 0 90 112.5"
   enable-background="new 0 0 90 90"
   xml:space="preserve"
   id="svg12"
   sodipodi:docname="fish.svg"
   inkscape:version="0.92.1 r15371"><metadata
     id="metadata18"><rdf:RDF><cc:Work
         rdf:about=""><dc:format>image/svg+xml</dc:format><dc:type
           rdf:resource="http://purl.org/dc/dcmitype/StillImage" /></cc:Work></rdf:RDF></metadata><defs
     id="defs16" /><sodipodi:namedview
     pagecolor="#ffffff"
     bordercolor="#666666"
     borderopacity="1"
     objecttolerance="10"
     gridtolerance="10"
     guidetolerance="10"
     inkscape:pageopacity="0"
     inkscape:pageshadow="2"
     inkscape:window-width="1920"
     inkscape:window-height="1018"
     id="namedview14"
     showgrid="false"
     inkscape:zoom="2.0977778"
     inkscape:cx="-36.276483"
     inkscape:cy="56.25"
     inkscape:window-x="-8"
     inkscape:window-y="-8"
     inkscape:window-maximized="1"
     inkscape:current-layer="svg12" /><g
     id="g6"
     transform="rotate(-36.732169,51.012563,36.963945)"><g
       id="g4"><path
         d="m 3.77,14.117 c 0,0 3.055,16.617 17.72,28.506 14.669,11.886 24.395,15.774 34.361,14.522 0,0 2.726,0.424 3.553,1.415 1.375,1.648 2.256,6.256 4.123,9.86 1.865,3.604 6.441,10.335 7.446,10.862 0,0 3.107,-10.087 0.805,-14.674 0,0 7.894,0.402 14.453,-2.781 0,0 -7.133,-4.081 -10.129,-5.371 C 71.216,54.35 66.454,55.631 63.95,54.067 62.308,53.046 62.537,52.43 61.815,49.994 61.086,47.556 58.834,35.165 46.852,23.463 c 0,0 -5.626,-3.342 -9.959,-4.606 C 36.892,18.856 18.076,4.306 3.77,14.117 Z m 10.059,16.496 c 0,0 0.288,-0.114 0.775,-0.285 0.244,-0.08 0.535,-0.183 0.868,-0.275 0.339,-0.08 0.692,-0.252 1.079,-0.4 0.377,-0.171 0.813,-0.276 1.217,-0.503 0.403,-0.229 0.85,-0.409 1.257,-0.658 0.396,-0.292 0.842,-0.509 1.22,-0.842 0.369,-0.33 0.794,-0.61 1.11,-1.009 0.375,-0.342 0.673,-0.748 0.981,-1.146 0.308,-0.396 0.547,-0.843 0.815,-1.248 0.476,-0.865 0.88,-1.728 1.19,-2.501 0.608,-1.556 0.943,-2.724 0.943,-2.724 0,0 0.466,1.156 0.368,2.993 -0.029,0.453 -0.051,0.957 -0.167,1.474 -0.083,0.526 -0.268,1.06 -0.458,1.622 -0.228,0.539 -0.456,1.119 -0.806,1.642 -0.333,0.538 -0.716,1.059 -1.18,1.514 -0.423,0.488 -0.961,0.86 -1.474,1.231 -0.507,0.385 -1.11,0.597 -1.64,0.865 -0.553,0.223 -1.115,0.332 -1.631,0.469 -0.514,0.138 -1.031,0.104 -1.483,0.141 -0.461,0.031 -0.876,0.043 -1.241,-0.027 -0.37,-0.045 -0.685,-0.109 -0.944,-0.153 -0.517,-0.1 -0.799,-0.18 -0.799,-0.18 z M 12.4,14.505 c 0.603,-0.691 1.646,-0.764 2.339,-0.164 0.688,0.602 0.767,1.651 0.164,2.343 -0.599,0.687 -1.642,0.762 -2.34,0.162 C 11.871,16.247 11.798,15.2 12.4,14.505 Z"
         id="path2"
         inkscape:connector-curvature="0"
         style="fill:#777777" /></g></g></svg>
