<?xml version="1.0" encoding="UTF-8" standalone="no"?>
<!-- Created with Inkscape (http://www.inkscape.org/) -->

<svg
   xmlns:dc="http://purl.org/dc/elements/1.1/"
   xmlns:cc="http://creativecommons.org/ns#"
   xmlns:rdf="http://www.w3.org/1999/02/22-rdf-syntax-ns#"
   xmlns:svg="http://www.w3.org/2000/svg"
   xmlns="http://www.w3.org/2000/svg"
   xmlns:sodipodi="http://sodipodi.sourceforge.net/DTD/sodipodi-0.dtd"
   xmlns:inkscape="http://www.inkscape.org/namespaces/inkscape"
   id="svg2"
   version="1.1"
   inkscape:version="0.91 r13725"
   xml:space="preserve"
   width="40"
   height="40"
   viewBox="0 0 187.5 187.5"
   sodipodi:docname="stat-volunteers.svg"><metadata
     id="metadata8"><rdf:RDF><cc:Work
         rdf:about=""><dc:format>image/svg+xml</dc:format><dc:type
           rdf:resource="http://purl.org/dc/dcmitype/StillImage" /><dc:title></dc:title></cc:Work></rdf:RDF></metadata><defs
     id="defs6"><clipPath
       clipPathUnits="userSpaceOnUse"
       id="clipPath16"><path
         d="M 0,150 150,150 150,0 0,0 0,150 Z"
         id="path18"
         inkscape:connector-curvature="0" /></clipPath></defs><sodipodi:namedview
     pagecolor="#ffffff"
     bordercolor="#666666"
     borderopacity="1"
     objecttolerance="10"
     gridtolerance="10"
     guidetolerance="10"
     inkscape:pageopacity="0"
     inkscape:pageshadow="2"
     inkscape:window-width="640"
     inkscape:window-height="480"
     id="namedview4"
     showgrid="false"
     inkscape:zoom="1.2586667"
     inkscape:cx="93.75"
     inkscape:cy="93.75"
     inkscape:window-x="0"
     inkscape:window-y="400"
     inkscape:window-maximized="0"
     inkscape:current-layer="g10" /><g
     id="g10"
     inkscape:groupmode="layer"
     inkscape:label="boot"
     transform="matrix(1.25,0,0,-1.25,0,187.5)"><g
       id="g12"><g
         id="g14"
         clip-path="url(#clipPath16)"><g
           id="g20"
           transform="translate(128.2529,37.7344)"><path
             d="m 0,0 c -1.718,3.807 -3.019,8.068 -3.273,12.201 -0.021,0.336 0.563,12.869 0.796,17.832 1.099,23.384 4.072,46.758 3.255,70.152 -0.197,5.662 -68.706,8.435 -67.89,0.01 0.559,-5.773 1.114,-11.544 1.66,-17.316 1.902,-20.098 3.691,-40.208 5.699,-60.295 0.474,-4.742 -2.408,-7.406 -4.368,-11.57 -4.961,-10.537 -38.125,-16.92 -39.81,-17.664 -4.741,-2.1 -5.912,-6.594 -4.749,-13.338 0.205,-1.192 0.55,-2.049 0.994,-2.666 0,0 2.96,-6.596 4.79,-7.006 3.245,-0.725 8.23,-0.908 10.081,1.008 3.099,3.209 4.174,2.613 7.061,0.216 1.392,-1.156 5.691,-1.205 6.623,-0.07 2.822,3.436 4.462,2.26 7.33,0.213 1.486,-1.061 5.274,-1.092 6.437,0.041 2.584,2.516 4.046,2.053 6.779,0.348 2.054,-1.283 6.455,-2.291 7.417,-1.237 3.356,3.678 7.286,3.512 11.196,3.274 l -10e-4,-0.002 c 1.538,0.014 6.727,-2.307 7.921,-3.551 1.934,-2.014 5.929,-1.994 7.024,0.531 1.771,4.086 3.396,2.805 5.261,0.121 2.044,-2.937 4.327,-2.617 6.346,0.12 0.74,1 4.441,1.269 4.493,1.113 1.904,-5.752 6.205,-2.444 9.675,-3.059 0.311,2.532 0.573,4.684 0.877,7.162 0,0 0.217,0.733 0.26,1.075 C 2.851,-14.824 3.309,-7.324 0,0"
             style="fill:#777777;fill-opacity:1;fill-rule:evenodd;stroke:none"
             id="path22"
             inkscape:connector-curvature="0" /></g></g></g></g></svg>
