<?xml version="1.0" encoding="UTF-8" standalone="no"?>
<!-- Created with Inkscape (http://www.inkscape.org/) -->

<svg
   xmlns:dc="http://purl.org/dc/elements/1.1/"
   xmlns:cc="http://creativecommons.org/ns#"
   xmlns:rdf="http://www.w3.org/1999/02/22-rdf-syntax-ns#"
   xmlns:svg="http://www.w3.org/2000/svg"
   xmlns="http://www.w3.org/2000/svg"
   xmlns:sodipodi="http://sodipodi.sourceforge.net/DTD/sodipodi-0.dtd"
   xmlns:inkscape="http://www.inkscape.org/namespaces/inkscape"
   id="svg2"
   version="1.1"
   inkscape:version="0.91 r13725"
   xml:space="preserve"
   width="40"
   height="40"
   viewBox="0 0 187.5 187.5"
   sodipodi:docname="stat-flower.svg"><metadata
     id="metadata8"><rdf:RDF><cc:Work
         rdf:about=""><dc:format>image/svg+xml</dc:format><dc:type
           rdf:resource="http://purl.org/dc/dcmitype/StillImage" /><dc:title></dc:title></cc:Work></rdf:RDF></metadata><defs
     id="defs6"><clipPath
       clipPathUnits="userSpaceOnUse"
       id="clipPath16"><path
         d="M 0,150 150,150 150,0 0,0 0,150 Z"
         id="path18"
         inkscape:connector-curvature="0" /></clipPath></defs><sodipodi:namedview
     pagecolor="#ffffff"
     bordercolor="#666666"
     borderopacity="1"
     objecttolerance="10"
     gridtolerance="10"
     guidetolerance="10"
     inkscape:pageopacity="0"
     inkscape:pageshadow="2"
     inkscape:window-width="640"
     inkscape:window-height="480"
     id="namedview4"
     showgrid="false"
     inkscape:zoom="1.2586667"
     inkscape:cx="93.75"
     inkscape:cy="93.75"
     inkscape:window-x="0"
     inkscape:window-y="400"
     inkscape:window-maximized="0"
     inkscape:current-layer="g10" /><g
     id="g10"
     inkscape:groupmode="layer"
     inkscape:label="flower"
     transform="matrix(1.25,0,0,-1.25,0,187.5)"><g
       id="g12"><g
         id="g14"
         clip-path="url(#clipPath16)"><g
           id="g20"
           transform="translate(116.2666,4.0127)"><path
             d="M 0,0 C 5.45,29.125 -10.858,60.18 -28.817,82.146"
             style="fill:none;stroke:#777777;stroke-width:3.11299992;stroke-linecap:butt;stroke-linejoin:miter;stroke-miterlimit:10;stroke-dasharray:none;stroke-opacity:1"
             id="path22"
             inkscape:connector-curvature="0" /></g><g
           id="g24"
           transform="translate(128.2715,78.292)"><path
             d="m 0,0 c -1.789,8.044 -21.363,17.664 -34.688,15.477 -1.252,-0.205 -2.458,-0.315 -3.623,-0.355 -0.473,-2.582 -1.806,-4.991 -3.978,-6.56 1.074,-0.662 2.005,-1.348 2.711,-2.041 7.933,-7.815 25.395,-17.365 36.135,-12.535 4.344,1.952 -1.211,3.145 -0.605,3.908 C -3.058,-0.867 0.901,-4.062 0,0"
             style="fill:#777777;fill-opacity:1;fill-rule:nonzero;stroke:none"
             id="path26"
             inkscape:connector-curvature="0" /></g><g
           id="g28"
           transform="translate(89.9971,83.9429)"><path
             d="m 0,0 c -0.672,1.613 -1.078,3.701 -1.312,5.937 -1.609,-2.811 -4.521,-4.863 -8.722,-4.863 -0.366,0 -0.719,0.022 -1.066,0.051 -7.5,-9.881 -5.69,-31.805 1.688,-38.055 3.733,-3.162 2.112,2.039 3.761,2.127 1.018,0.053 -0.028,-5.289 3.707,-2.822 C 7.271,-31.524 4.686,-11.268 0,0"
             style="fill:#777777;fill-opacity:1;fill-rule:nonzero;stroke:none"
             id="path30"
             inkscape:connector-curvature="0" /></g><g
           id="g32"
           transform="translate(119.4111,118.4688)"><path
             d="m 0,0 c -0.62,1.455 4.069,2.903 0.069,4.369 -7.937,2.897 -25.707,-7.585 -30.115,-19.426 -0.256,-0.687 -0.541,-1.329 -0.843,-1.953 1.625,-2.57 2.037,-5.911 1.244,-8.913 1.835,1.025 3.626,1.825 5.161,2.132 10.654,2.144 27.359,10.979 28.211,22.168 C 4.069,2.903 0.382,-0.901 0,0"
             style="fill:#777777;fill-opacity:1;fill-rule:nonzero;stroke:none"
             id="path34"
             inkscape:connector-curvature="0" /></g><g
           id="g36"
           transform="translate(70.5742,98.3833)"><path
             d="m 0,0 c -0.464,0.345 -0.891,0.697 -1.255,1.058 -8.29,8.168 -25.968,17.518 -36.046,11.201 -4.078,-2.556 1.407,-3.446 0.873,-4.355 -0.864,-1.478 -4.951,1.799 -3.776,-2.703 2.335,-8.928 22.068,-18.181 34.854,-14.635 2.192,0.607 4.248,0.833 6.206,0.884 C -0.523,-6.01 -0.801,-2.841 0,0"
             style="fill:#777777;fill-opacity:1;fill-rule:nonzero;stroke:none"
             id="path38"
             inkscape:connector-curvature="0" /></g><g
           id="g40"
           transform="translate(71.085,99.8101)"><path
             d="m 0,0 c 1.21,2.79 3.569,5.044 7.062,5.708 -0.141,0.989 -0.25,1.93 -0.32,2.784 -0.953,11.849 -8.369,30.874 -20.377,32.709 -4.857,0.745 -1.213,-3.602 -2.237,-3.951 -1.653,-0.564 -2.62,4.696 -4.718,0.426 C -24.748,29.214 -14.481,11.052 -3.432,3.104 -2.042,2.106 -0.939,1.058 0,0"
             style="fill:#777777;fill-opacity:1;fill-rule:nonzero;stroke:none"
             id="path42"
             inkscape:connector-curvature="0" /></g><g
           id="g44"
           transform="translate(79.9707,105.7085)"><path
             d="m 0,0 c 0.12,0.002 0.232,0.018 0.354,0.018 2.559,0 4.612,-0.765 6.166,-1.992 0.832,1.395 1.826,2.77 3.12,4.058 8.308,8.271 9.378,29.28 3.256,36.153 -3.091,3.468 -2.228,-1.644 -3.777,-1.511 -0.955,0.083 0.686,4.979 -3.103,3.14 C -3.344,35.323 -3.457,15.905 -0.493,4.684 -0.141,3.351 -0.005,1.73 0,0"
             style="fill:#777777;fill-opacity:1;fill-rule:nonzero;stroke:none"
             id="path46"
             inkscape:connector-curvature="0" /></g><g
           id="g48"
           transform="translate(71.7695,89.2749)"><path
             d="M 0,0 C -0.816,-0.323 -1.603,-0.577 -2.327,-0.713 -13.218,-2.77 -30.416,-11.585 -31.515,-23 c -0.443,-4.623 3.39,-0.781 3.759,-1.706 0.602,-1.49 -4.202,-2.917 -0.161,-4.462 8.02,-3.055 26.334,7.434 31.072,19.467 0.851,2.164 1.927,3.985 3.081,5.615 C 3.374,-3.598 1.299,-2.051 0,0"
             style="fill:#777777;fill-opacity:1;fill-rule:nonzero;stroke:none"
             id="path50"
             inkscape:connector-curvature="0" /></g><g
           id="g52"
           transform="translate(79.9629,85.0166)"><path
             d="M 0,0 C -13.364,0 -12.981,20.71 0.361,20.71 13.728,20.71 13.345,0 0,0 m 14.821,23.856 c -6.903,8.504 -19.396,9.8 -27.901,2.893 -8.501,-6.905 -9.8,-19.396 -2.896,-27.9 6.908,-8.506 19.4,-9.8 27.905,-2.895 8.504,6.905 9.8,19.398 2.892,27.902"
             style="fill:#777777;fill-opacity:1;fill-rule:nonzero;stroke:none"
             id="path54"
             inkscape:connector-curvature="0" /></g></g></g></g></svg>
