<?xml version="1.0" encoding="UTF-8" standalone="no"?>
<!-- Created with Inkscape (http://www.inkscape.org/) -->

<svg
   xmlns:dc="http://purl.org/dc/elements/1.1/"
   xmlns:cc="http://creativecommons.org/ns#"
   xmlns:rdf="http://www.w3.org/1999/02/22-rdf-syntax-ns#"
   xmlns:svg="http://www.w3.org/2000/svg"
   xmlns="http://www.w3.org/2000/svg"
   xmlns:sodipodi="http://sodipodi.sourceforge.net/DTD/sodipodi-0.dtd"
   xmlns:inkscape="http://www.inkscape.org/namespaces/inkscape"
   id="svg2"
   version="1.1"
   inkscape:version="0.91 r13725"
   xml:space="preserve"
   width="40"
   height="40"
   viewBox="0 0 187.5 187.5"
   sodipodi:docname="stat-map.svg"><metadata
     id="metadata8"><rdf:RDF><cc:Work
         rdf:about=""><dc:format>image/svg+xml</dc:format><dc:type
           rdf:resource="http://purl.org/dc/dcmitype/StillImage" /><dc:title></dc:title></cc:Work></rdf:RDF></metadata><defs
     id="defs6"><clipPath
       clipPathUnits="userSpaceOnUse"
       id="clipPath16"><path
         d="M 0,150 150,150 150,0 0,0 0,150 Z"
         id="path18"
         inkscape:connector-curvature="0" /></clipPath></defs><sodipodi:namedview
     pagecolor="#ffffff"
     bordercolor="#666666"
     borderopacity="1"
     objecttolerance="10"
     gridtolerance="10"
     guidetolerance="10"
     inkscape:pageopacity="0"
     inkscape:pageshadow="2"
     inkscape:window-width="640"
     inkscape:window-height="480"
     id="namedview4"
     showgrid="false"
     inkscape:zoom="1.2586667"
     inkscape:cx="93.75"
     inkscape:cy="93.75"
     inkscape:window-x="0"
     inkscape:window-y="400"
     inkscape:window-maximized="0"
     inkscape:current-layer="g10" /><g
     id="g10"
     inkscape:groupmode="layer"
     inkscape:label="map"
     transform="matrix(1.25,0,0,-1.25,0,187.5)"><g
       id="g12"><g
         id="g14"
         clip-path="url(#clipPath16)"><g
           id="g20"
           transform="translate(49.6396,115.9092)"><path
             d="m 0,0 -23.32,9.421 c -2.365,0 -4.163,-1.975 -4.163,-4.82 l 0,-25.839 0,-1.574 0,-43.834 c 0,-2.843 0.548,-4.6 4.272,-5.805 l 22.894,-8.873 c 3.542,-1.129 4.602,1.986 4.602,4.83 l 0,45.119 0,1.213 0,25.011 C 4.285,-2.306 3.31,-1.881 0,0"
             style="fill:#777777;fill-opacity:1;fill-rule:nonzero;stroke:none"
             id="path22"
             inkscape:connector-curvature="0" /></g><g
           id="g24"
           transform="translate(86.7158,124.605)"><path
             d="m 0,0 -23.32,-9.42 c -2.744,-1.201 -4.283,-2.306 -4.283,-5.151 l 0,-25.82 0,-1.219 0,-44.305 c 0,-2.842 2.372,-5.813 4.599,-4.829 l 22.895,8.871 c 3.724,1.208 4.274,2.961 4.274,5.806 l 0,29.001 0,1.473 0,40.773 C 4.165,-1.975 3.397,0 0,0"
             style="fill:#777777;fill-opacity:1;fill-rule:nonzero;stroke:none"
             id="path26"
             inkscape:connector-curvature="0" /></g><g
           id="g28"
           transform="translate(123.5625,115.4385)"><path
             d="m 0,0 -23.321,9.419 c -3.106,0.968 -4.163,-1.975 -4.163,-4.819 l 0,-40.431 0,-1.465 0,-29.351 c 0,-2.844 0.546,-4.599 4.272,-5.803 l 22.895,-8.874 c 2.516,-0.984 4.598,1.986 4.598,4.828 l 0,43.552 0,1.595 0,26.198 C 4.281,-2.307 2.502,-0.978 0,0"
             style="fill:#777777;fill-opacity:1;fill-rule:nonzero;stroke:none"
             id="path30"
             inkscape:connector-curvature="0" /></g></g></g></g></svg>
