<?xml version="1.0" encoding="UTF-8" standalone="no"?>
<!-- Created with Inkscape (http://www.inkscape.org/) -->

<svg
   xmlns:dc="http://purl.org/dc/elements/1.1/"
   xmlns:cc="http://creativecommons.org/ns#"
   xmlns:rdf="http://www.w3.org/1999/02/22-rdf-syntax-ns#"
   xmlns:svg="http://www.w3.org/2000/svg"
   xmlns="http://www.w3.org/2000/svg"
   xmlns:sodipodi="http://sodipodi.sourceforge.net/DTD/sodipodi-0.dtd"
   xmlns:inkscape="http://www.inkscape.org/namespaces/inkscape"
   id="svg2"
   version="1.1"
   inkscape:version="0.91 r13725"
   xml:space="preserve"
   width="40"
   height="40"
   viewBox="0 0 187.5 187.5"
   sodipodi:docname="stat-landscapes.svg"><metadata
     id="metadata8"><rdf:RDF><cc:Work
         rdf:about=""><dc:format>image/svg+xml</dc:format><dc:type
           rdf:resource="http://purl.org/dc/dcmitype/StillImage" /><dc:title></dc:title></cc:Work></rdf:RDF></metadata><defs
     id="defs6"><clipPath
       clipPathUnits="userSpaceOnUse"
       id="clipPath16"><path
         d="M 0,150 150,150 150,0 0,0 0,150 Z"
         id="path18"
         inkscape:connector-curvature="0" /></clipPath></defs><sodipodi:namedview
     pagecolor="#ffffff"
     bordercolor="#666666"
     borderopacity="1"
     objecttolerance="10"
     gridtolerance="10"
     guidetolerance="10"
     inkscape:pageopacity="0"
     inkscape:pageshadow="2"
     inkscape:window-width="640"
     inkscape:window-height="480"
     id="namedview4"
     showgrid="false"
     inkscape:zoom="1.2586667"
     inkscape:cx="93.75"
     inkscape:cy="93.75"
     inkscape:window-x="0"
     inkscape:window-y="400"
     inkscape:window-maximized="0"
     inkscape:current-layer="g10" /><g
     id="g10"
     inkscape:groupmode="layer"
     inkscape:label="river"
     transform="matrix(1.25,0,0,-1.25,0,187.5)"><g
       id="g12"><g
         id="g14"
         clip-path="url(#clipPath16)"><g
           id="g20"
           transform="translate(14.041,42.6279)"><path
             d="m 0,0 c -4.135,-1.547 -6.936,-4.306 -8.315,-9.362 -1.48,-5.423 -1.155,-11.425 4.43,-14.382 6.188,-3.277 60.139,-13.597 66.971,-13.49 15.926,0.247 37.893,10.473 42.863,27.013 5.803,19.312 -19.617,29.077 -27.871,41.857 -2.136,3.306 -4.015,8.866 -0.92,12.028 8.301,8.481 24.387,7.663 35.155,9.866 3.312,0.678 25.085,5.208 16.812,11.902 -2.932,2.372 -20.801,6.432 -25.504,7.242 -3.283,0.564 -6.605,1.054 -9.912,1.465 -6.82,0.848 -18.98,2.667 -19.328,6.763 -0.429,5.073 24.491,9.595 25.842,14.25 1.367,4.713 -6.946,6.827 -11.803,6.827 l -9.062,-1.348 c 0,0 0.215,0 0,0 2.458,-0.002 7.797,-1.882 7.707,-5.001 -0.105,-3.662 -6.829,-4.041 -9.368,-4.463 -7.888,-1.313 -18.36,-0.444 -25.234,-5.128 -6.272,-4.273 -0.845,-11.054 5.007,-12.402 6.858,-1.58 13.668,-3.449 20.444,-5.078 3.369,-0.81 5.869,-1.428 8.365,-3.932 C 84.53,61.242 75.096,60.061 71.607,59.371 57.499,56.584 42.001,55.582 27.957,49.702 22.302,47.335 19.61,39.456 21.516,33.979 23.355,28.696 28.734,25.432 30.838,20.213 36.541,6.068 13.538,2.765 4.405,1.153 2.801,0.87 1.331,0.498 0,0"
             style="fill:#777777;fill-opacity:1;fill-rule:nonzero;stroke:none"
             id="path22"
             inkscape:connector-curvature="0" /></g></g></g></g></svg>
