<?xml version="1.0" encoding="UTF-8" standalone="no"?>
<!-- Created with Inkscape (http://www.inkscape.org/) -->

<svg
   xmlns:dc="http://purl.org/dc/elements/1.1/"
   xmlns:cc="http://creativecommons.org/ns#"
   xmlns:rdf="http://www.w3.org/1999/02/22-rdf-syntax-ns#"
   xmlns:svg="http://www.w3.org/2000/svg"
   xmlns="http://www.w3.org/2000/svg"
   xmlns:sodipodi="http://sodipodi.sourceforge.net/DTD/sodipodi-0.dtd"
   xmlns:inkscape="http://www.inkscape.org/namespaces/inkscape"
   id="svg2"
   version="1.1"
   inkscape:version="0.91 r13725"
   xml:space="preserve"
   width="40"
   height="40"
   viewBox="0 0 187.5 187.5"
   sodipodi:docname="stat-bee.svg"><metadata
     id="metadata8"><rdf:RDF><cc:Work
         rdf:about=""><dc:format>image/svg+xml</dc:format><dc:type
           rdf:resource="http://purl.org/dc/dcmitype/StillImage" /><dc:title></dc:title></cc:Work></rdf:RDF></metadata><defs
     id="defs6"><clipPath
       clipPathUnits="userSpaceOnUse"
       id="clipPath16"><path
         d="M 0,150 150,150 150,0 0,0 0,150 Z"
         id="path18"
         inkscape:connector-curvature="0" /></clipPath></defs><sodipodi:namedview
     pagecolor="#ffffff"
     bordercolor="#666666"
     borderopacity="1"
     objecttolerance="10"
     gridtolerance="10"
     guidetolerance="10"
     inkscape:pageopacity="0"
     inkscape:pageshadow="2"
     inkscape:window-width="640"
     inkscape:window-height="480"
     id="namedview4"
     showgrid="false"
     inkscape:zoom="1.2586667"
     inkscape:cx="93.75"
     inkscape:cy="93.75"
     inkscape:window-x="0"
     inkscape:window-y="400"
     inkscape:window-maximized="0"
     inkscape:current-layer="g10" /><g
     id="g10"
     inkscape:groupmode="layer"
     inkscape:label="bee"
     transform="matrix(1.25,0,0,-1.25,0,187.5)"><g
       id="g12"><g
         id="g14"
         clip-path="url(#clipPath16)"><g
           id="g20"
           transform="translate(100.9619,69.7891)"><path
             d="M 0,0 C -3.428,2.619 -8.179,2.82 -13.181,2.412 -6.552,4.115 -0.205,6.64 5.7,10.42 12.704,14.902 16.716,21.206 17.052,29.862 17.001,40.473 7.315,48.644 -3.392,47.211 -11.88,46.077 -17.926,41.492 -22.358,34.545 c -5.673,-8.89 -8.01,-19.068 -10.8,-29.056 -0.055,-0.199 -0.041,-0.418 -0.057,-0.627 -0.085,-1.092 0.019,-1.982 0.28,-2.716 -0.433,0.182 -0.854,0.383 -1.247,0.625 -0.52,0.32 -1.162,0.458 -1.767,0.601 -0.759,0.18 -1.507,0.311 -2.247,0.406 3.543,15.563 6.946,30.985 19.457,42.673 -4.547,5.286 -10.209,6.105 -16.199,4.396 -9.479,-2.704 -15.852,-13.179 -14.294,-23.923 0.957,-6.595 3.124,-13.006 4.395,-19.568 0.311,-1.605 0.859,-2.758 1.612,-3.552 -3.96,-0.491 -7.642,-2.17 -11.101,-4.716 -2.434,-1.791 -4.184,-4.623 -7.908,-4.208 -0.877,0.098 -2.062,-1.012 -2.834,-1.823 -2.296,-2.411 -3.248,-5.396 -2.9,-8.683 0.181,-1.715 -0.461,-2.52 -1.859,-3.474 -2.227,-1.519 -4.236,-3.418 -6.093,-5.385 -0.52,-0.552 -0.187,-1.911 -0.247,-2.899 0.813,0.433 1.789,0.703 2.408,1.327 2.097,2.111 4.068,4.346 6.271,6.735 0.089,0.096 1.477,-2.49 1.417,-2.955 -0.128,-0.983 -1.883,-2.849 -2.419,-3.784 -1.352,-2.36 -3.401,-5.812 -1.66,-8.454 3.136,2.439 3.654,7.526 5.511,10.847 1.28,-1.36 5.323,-1.088 6.792,-0.269 1.993,1.11 4.597,-1.24 6.385,-1.352 4.594,-0.29 8.061,1.453 12.289,1.453 -2.112,-0.603 -1.191,-2.458 -0.901,-4.355 0.52,-3.404 0.807,-6.848 1.041,-10.287 0.074,-1.1 -0.33,-2.233 -0.516,-3.352 0.291,-0.031 0.581,-0.061 0.872,-0.092 3.006,4.812 1.289,10.177 1.412,15.455 3.68,2.28 7.369,4.794 12.715,2.374 -0.383,-3.211 -0.971,-6.776 -1.188,-10.364 -0.23,-3.797 0.311,-7.471 3.922,-11.047 -0.505,4.309 -1.407,7.775 -1.172,11.164 0.247,3.574 1.577,7.072 2.444,10.649 4.091,0.287 7.229,-2.336 7.666,-6.186 0.367,-3.216 0.987,-6.416 1.732,-9.567 0.254,-1.077 1.227,-1.983 1.872,-2.968 0.248,0.149 0.495,0.299 0.744,0.448 -1.658,4.646 -2.481,9.343 -1.633,13.768 3.234,-1.35 6.082,-3.322 9.107,-3.654 8.563,-0.94 15.996,9.659 13.477,18.717 C 10.593,-6.564 4.992,-3.815 0,0"
             style="fill:#777777;fill-opacity:1;fill-rule:evenodd;stroke:none"
             id="path22"
             inkscape:connector-curvature="0" /></g></g></g></g></svg>
