<?xml version="1.0" encoding="UTF-8" standalone="no"?>
<!-- Created with Inkscape (http://www.inkscape.org/) -->

<svg
   xmlns:dc="http://purl.org/dc/elements/1.1/"
   xmlns:cc="http://creativecommons.org/ns#"
   xmlns:rdf="http://www.w3.org/1999/02/22-rdf-syntax-ns#"
   xmlns:svg="http://www.w3.org/2000/svg"
   xmlns="http://www.w3.org/2000/svg"
   xmlns:sodipodi="http://sodipodi.sourceforge.net/DTD/sodipodi-0.dtd"
   xmlns:inkscape="http://www.inkscape.org/namespaces/inkscape"
   id="svg2"
   version="1.1"
   inkscape:version="0.91 r13725"
   xml:space="preserve"
   width="40"
   height="40"
   viewBox="0 0 187.5 187.5"
   sodipodi:docname="stat-visitors.svg"><metadata
     id="metadata8"><rdf:RDF><cc:Work
         rdf:about=""><dc:format>image/svg+xml</dc:format><dc:type
           rdf:resource="http://purl.org/dc/dcmitype/StillImage" /><dc:title></dc:title></cc:Work></rdf:RDF></metadata><defs
     id="defs6"><clipPath
       clipPathUnits="userSpaceOnUse"
       id="clipPath16"><path
         d="M 0,150 150,150 150,0 0,0 0,150 Z"
         id="path18"
         inkscape:connector-curvature="0" /></clipPath></defs><sodipodi:namedview
     pagecolor="#ffffff"
     bordercolor="#666666"
     borderopacity="1"
     objecttolerance="10"
     gridtolerance="10"
     guidetolerance="10"
     inkscape:pageopacity="0"
     inkscape:pageshadow="2"
     inkscape:window-width="640"
     inkscape:window-height="480"
     id="namedview4"
     showgrid="false"
     inkscape:zoom="1.2586667"
     inkscape:cx="93.75"
     inkscape:cy="93.75"
     inkscape:window-x="0"
     inkscape:window-y="400"
     inkscape:window-maximized="0"
     inkscape:current-layer="g10" /><g
     id="g10"
     inkscape:groupmode="layer"
     inkscape:label="visitor centre"
     transform="matrix(1.25,0,0,-1.25,0,187.5)"><g
       id="g12"><g
         id="g14"
         clip-path="url(#clipPath16)"><path
           d="m 123.552,53.634 -13.345,0 0,14.618 13.345,0 0,-14.618 z m -59.797,0 -13.346,0 0,14.618 13.346,0 0,-14.618 z m -20.599,0 -13.345,0 0,14.618 13.345,0 0,-14.618 z m 87.522,55.852 -17.083,-2.135 0,11.553 c 2.24,0 4.632,0.25 6.852,-0.049 2.252,-0.305 4.071,-1.718 6.074,-2.66 1.162,-0.544 3.995,-1.96 5.225,-1.195 1.376,0.855 0.593,4.472 0.621,5.9 0.025,1.121 0.586,3.688 -0.598,4.36 -0.628,0.359 -2.536,-0.02 -3.322,0.079 -0.665,0.084 -1.74,0.073 -2.35,0.393 -1.107,0.583 -2.082,1.537 -3.116,2.248 -0.849,0.585 -9.386,1.302 -9.386,0.782 l 0,4.382 c 0,0 -1.755,1.896 -3.506,0 l 0,-26.231 L 9.768,94.374 16.482,88.676 c -0.087,0.019 -0.142,0.032 -0.142,0.032 l 0,-54.966 c 0,0 23.865,-6.979 57.827,-7.486 l 0,30.807 23.655,0 0,-30.065 c 12.732,1.002 26.269,3.076 40.085,6.744 l 0,50.032 9.658,3.296 -16.887,22.416 z"
           style="fill:#777777;fill-opacity:1;fill-rule:nonzero;stroke:none"
           id="path20"
           inkscape:connector-curvature="0" /></g></g></g></svg>
