<?xml version="1.0" encoding="UTF-8" standalone="no"?>
<!-- Created with Inkscape (http://www.inkscape.org/) -->

<svg
   xmlns:dc="http://purl.org/dc/elements/1.1/"
   xmlns:cc="http://creativecommons.org/ns#"
   xmlns:rdf="http://www.w3.org/1999/02/22-rdf-syntax-ns#"
   xmlns:svg="http://www.w3.org/2000/svg"
   xmlns="http://www.w3.org/2000/svg"
   xmlns:sodipodi="http://sodipodi.sourceforge.net/DTD/sodipodi-0.dtd"
   xmlns:inkscape="http://www.inkscape.org/namespaces/inkscape"
   id="svg2"
   version="1.1"
   inkscape:version="0.91 r13725"
   xml:space="preserve"
   width="40"
   height="40"
   viewBox="0 0 187.5 187.5"
   sodipodi:docname="stat-key.svg"><metadata
     id="metadata8"><rdf:RDF><cc:Work
         rdf:about=""><dc:format>image/svg+xml</dc:format><dc:type
           rdf:resource="http://purl.org/dc/dcmitype/StillImage" /><dc:title></dc:title></cc:Work></rdf:RDF></metadata><defs
     id="defs6"><clipPath
       clipPathUnits="userSpaceOnUse"
       id="clipPath16"><path
         d="M 0,150 150,150 150,0 0,0 0,150 Z"
         id="path18"
         inkscape:connector-curvature="0" /></clipPath></defs><sodipodi:namedview
     pagecolor="#ffffff"
     bordercolor="#666666"
     borderopacity="1"
     objecttolerance="10"
     gridtolerance="10"
     guidetolerance="10"
     inkscape:pageopacity="0"
     inkscape:pageshadow="2"
     inkscape:window-width="640"
     inkscape:window-height="480"
     id="namedview4"
     showgrid="false"
     inkscape:zoom="1.2586667"
     inkscape:cx="93.75"
     inkscape:cy="93.75"
     inkscape:window-x="0"
     inkscape:window-y="400"
     inkscape:window-maximized="0"
     inkscape:current-layer="g10" /><g
     id="g10"
     inkscape:groupmode="layer"
     inkscape:label="key"
     transform="matrix(1.25,0,0,-1.25,0,187.5)"><g
       id="g12"><g
         id="g14"
         clip-path="url(#clipPath16)"><g
           id="g20"
           transform="translate(41.4375,38.2637)"><path
             d="m 0,0 c -4.251,-2.404 -9.65,-0.909 -12.055,3.342 -2.404,4.25 -0.908,9.647 3.344,12.052 4.251,2.409 9.646,0.912 12.053,-3.341 C 5.746,7.802 4.25,2.406 0,0 m 100.317,68.853 c -0.179,0.317 -0.359,0.635 -0.539,0.952 -1.888,3.332 -11.108,3.893 -15.294,4.862 -1.835,0.426 -3.221,0.344 -4.861,-0.59 C 62.217,64.152 44.741,54.334 27.344,44.39 25.411,43.285 23.955,43.136 21.867,44.109 10.018,49.625 -1.487,48.495 -11.967,40.922 -28.038,29.312 -29.369,4.747 -14.733,-8.97 c 9.889,-9.273 21.726,-11.971 34.384,-7.089 12.288,4.737 19.29,14.226 20.701,27.479 0.204,1.932 0.762,3.143 2.541,4.02 2.611,1.283 5.065,2.881 7.64,4.247 1.23,0.652 1.897,1.536 2.226,2.878 0.985,4.053 2.073,8.081 3.145,12.221 4.016,-0.706 7.368,-2.251 11.798,-2.585 0.652,3.354 1.308,6.723 2.13,10.95 4.032,-1.478 7.411,-2.715 11.461,-4.198 0.888,4.201 1.636,7.747 2.577,12.192 3.921,-1.365 7.399,-2.577 10.971,-3.818 3.644,6.436 6.555,15.179 5.476,21.526"
             style="fill:#777777;fill-opacity:1;fill-rule:evenodd;stroke:none"
             id="path22"
             inkscape:connector-curvature="0" /></g></g></g></g></svg>
