<?xml version="1.0" encoding="UTF-8" standalone="no"?>
<svg
   xmlns:sketch="http://www.bohemiancoding.com/sketch/ns"
   xmlns:dc="http://purl.org/dc/elements/1.1/"
   xmlns:cc="http://creativecommons.org/ns#"
   xmlns:rdf="http://www.w3.org/1999/02/22-rdf-syntax-ns#"
   xmlns:svg="http://www.w3.org/2000/svg"
   xmlns="http://www.w3.org/2000/svg"
   xmlns:sodipodi="http://sodipodi.sourceforge.net/DTD/sodipodi-0.dtd"
   xmlns:inkscape="http://www.inkscape.org/namespaces/inkscape"
   viewBox="0 0 100 106.25"
   version="1.1"
   x="0px"
   y="0px"
   id="svg16"
   width="40"
   height="40"
   sodipodi:docname="hare.svg"
   inkscape:version="0.92.1 r15371">
  <metadata
     id="metadata22">
    <rdf:RDF>
      <cc:Work
         rdf:about="">
        <dc:format>image/svg+xml</dc:format>
        <dc:type
           rdf:resource="http://purl.org/dc/dcmitype/StillImage" />
      </cc:Work>
    </rdf:RDF>
  </metadata>
  <defs
     id="defs20" />
  <sodipodi:namedview
     pagecolor="#ffffff"
     bordercolor="#666666"
     borderopacity="1"
     objecttolerance="10"
     gridtolerance="10"
     guidetolerance="10"
     inkscape:pageopacity="0"
     inkscape:pageshadow="2"
     inkscape:window-width="732"
     inkscape:window-height="480"
     id="namedview18"
     showgrid="false"
     inkscape:zoom="2.2211765"
     inkscape:cx="50"
     inkscape:cy="53.125"
     inkscape:window-x="0"
     inkscape:window-y="0"
     inkscape:window-maximized="0"
     inkscape:current-layer="svg16" />
  <title
     id="title2">Path 356 Copy 2</title>
  <desc
     id="desc4">Created with Sketch.</desc>
  <g
     stroke="none"
     stroke-width="1"
     fill="none"
     fill-rule="evenodd"
     sketch:type="MSPage"
     id="g10">
    <g
       sketch:type="MSArtboardGroup"
       transform="translate(0.000000, -7.000000)"
       fill="#777777"
       id="g8">
      <path
         d="M60.1164483,76.5101184 C60.1164483,77.7869765 61.1184016,79.097951 62.3543737,79.4324469 L72.798828,82.2590697 C74.9502082,82.841306 76.9428079,85.1218308 77.229578,87.3473934 L77.4381368,88.9659749 L61.2268002,86.7611761 C59.0007748,86.4584288 55.762595,85.1122528 53.9830021,83.7528954 L30.0193357,65.4480423 C18.6673757,64.6909954 9.4627489,56.133214 7.77382209,45.1160791 L4.34635739,45.1647777 C1.94608449,45.1988816 -1.83318034e-16,43.2833095 -1.07537429e-17,40.8862227 L12.0835739,27.3645101 C17.4743573,21.3386402 23.6068695,17.4194231 31.6593886,17.4194231 C32.7498041,17.4194231 33.8233498,17.4912885 34.8755022,17.6305187 C36.0956627,17.7349159 37.3050822,17.9433886 38.4888396,18.2605754 C54.0954993,22.4423673 65.570761,42.6024939 65.570761,42.6024939 C66.516058,44.0861571 68.636741,45.6806441 70.3388841,46.136732 L71.0643059,46.3311082 C72.7686884,46.7877961 75.036606,46.0402598 76.1348435,44.6627794 L79.3667959,40.6090557 L69.0683577,35.5886404 C54.9830017,29.5 58.824985,11.8109045 58.824985,11.8109045 C58.9924242,10.7260817 59.7843012,10.4649372 60.587326,11.2216236 L82.7393229,32.0953411 L64.7779732,12.0675015 C65.0289152,8.20500861 68.1652109,7 68.1652109,7 L85.5324488,34.7272898 L86.921334,36.0360295 L96.0521825,42.4677019 C98.138955,43.9376022 99.8625925,47.2144004 99.8888571,49.7773535 L100.007257,61.3310185 L99.3236978,61.8899026 C97.5857982,63.3108255 94.5445704,63.6651439 92.5224884,62.6881932 L89.3807164,61.1702742 C86.2103299,59.6385304 81.4523901,60.2321429 78.7512966,62.4950512 L69.6842316,70.0912108 C68.6969982,70.9182902 67.3970043,71.7079683 65.972973,72.3860195 C65.450814,57.828347 59.4984737,45.9574271 46.7248907,37.1161254 C45.6127483,36.4326524 43.9592431,38.4195836 44.7777067,39.1109172 C56.0407574,49.2817354 60.1164483,60.3235994 60.1164483,74.5177084 L60.1164483,76.5101184 Z M95.0509461,53.9162538 C96.1764172,53.9162538 97.0887918,53.0084656 97.0887918,51.8886521 C97.0887918,50.7688386 96.1764172,49.8610504 95.0509461,49.8610504 C93.925475,49.8610504 93.0131004,50.7688386 93.0131004,51.8886521 C93.0131004,53.0084656 93.925475,53.9162538 95.0509461,53.9162538 L95.0509461,53.9162538 Z M19.9417759,92 L19.9417759,89.8393536 C19.9417758,87.5932185 21.6918837,85.2820263 23.828826,84.6248277 C23.828826,84.6248277 35.0800582,81.8619915 38.1368268,76.9378159 C38.1368268,76.9378159 46.7248911,83.7447645 46.7248911,83.7447645 C34.7889374,89.6827409 19.9417759,92 19.9417759,92 L19.9417759,92 Z"
         sketch:type="MSShapeGroup"
         id="path6" />
    </g>
  </g>
</svg>
