<?xml version="1.0" encoding="UTF-8" standalone="no"?>
<!-- Created with Inkscape (http://www.inkscape.org/) -->

<svg
   xmlns:dc="http://purl.org/dc/elements/1.1/"
   xmlns:cc="http://creativecommons.org/ns#"
   xmlns:rdf="http://www.w3.org/1999/02/22-rdf-syntax-ns#"
   xmlns:svg="http://www.w3.org/2000/svg"
   xmlns="http://www.w3.org/2000/svg"
   xmlns:sodipodi="http://sodipodi.sourceforge.net/DTD/sodipodi-0.dtd"
   xmlns:inkscape="http://www.inkscape.org/namespaces/inkscape"
   id="svg2"
   version="1.1"
   inkscape:version="0.91 r13725"
   xml:space="preserve"
   width="40"
   height="40"
   viewBox="0 0 187.5 187.5"
   sodipodi:docname="stat-bird.svg"><metadata
     id="metadata8"><rdf:RDF><cc:Work
         rdf:about=""><dc:format>image/svg+xml</dc:format><dc:type
           rdf:resource="http://purl.org/dc/dcmitype/StillImage" /><dc:title></dc:title></cc:Work></rdf:RDF></metadata><defs
     id="defs6"><clipPath
       clipPathUnits="userSpaceOnUse"
       id="clipPath16"><path
         d="M 0,150 150,150 150,0 0,0 0,150 Z"
         id="path18"
         inkscape:connector-curvature="0" /></clipPath></defs><sodipodi:namedview
     pagecolor="#ffffff"
     bordercolor="#666666"
     borderopacity="1"
     objecttolerance="10"
     gridtolerance="10"
     guidetolerance="10"
     inkscape:pageopacity="0"
     inkscape:pageshadow="2"
     inkscape:window-width="640"
     inkscape:window-height="480"
     id="namedview4"
     showgrid="false"
     inkscape:zoom="1.2586667"
     inkscape:cx="93.75"
     inkscape:cy="93.75"
     inkscape:window-x="0"
     inkscape:window-y="400"
     inkscape:window-maximized="0"
     inkscape:current-layer="g10" /><g
     id="g10"
     inkscape:groupmode="layer"
     inkscape:label="bird"
     transform="matrix(1.25,0,0,-1.25,0,187.5)"><g
       id="g12"><g
         id="g14"
         clip-path="url(#clipPath16)"><g
           id="g20"
           transform="translate(144.0811,67.1416)"><path
             d="m 0,0 c -2.578,1.204 -5.208,1.946 -8.082,1.495 -1.639,-0.26 -3.352,-0.625 -5.032,-0.998 -2.958,3.205 -12.477,5.362 -21.522,4.233 -4.013,-0.502 -8.062,-3.522 -10.838,-5.739 0.21,2.518 0.845,5.005 1.458,6.875 2.714,8.015 1.756,12.764 -4.183,18.556 -11.787,10.783 -26.12,31.805 -30.045,35.4 -3.926,3.595 -1.72,-2.631 -2.027,-3.477 -2.185,1.367 -3.292,3.978 -5.495,5.439 -6.17,3.738 -0.195,-5.29 -0.715,-7.781 0.067,0.35 -3.62,1.757 -4.206,1.581 -1.081,-0.325 -0.441,-2.15 -0.251,-2.876 0.89,-3.391 2.145,-6.684 3.331,-9.99 -4.037,3.451 -26.867,22.888 -29.424,23.33 -2.805,0.484 -1.154,-4.512 -2.24,-4.11 -5.612,2.079 -7.271,5.03 -7.648,3.055 -0.379,-1.973 22.289,-41.866 24.418,-49.722 3.301,-11.889 -6.48,-31.475 15.466,-34.633 l -18.49,-13.524 -15.885,-8.734 -18.155,-7.609 19.173,-1.135 14.361,8.301 c 0.205,-0.057 26.771,-7.381 50.815,0.845 24.138,8.262 38.578,34.065 39.771,34.776 0.843,0.504 1.514,1.095 2.027,1.722 0.096,-0.074 0.175,-0.076 0.233,0.018 0.475,0.75 14.731,3.404 14.586,3.82 C 1.244,-0.431 0.375,-0.173 0,0"
             style="fill:#777777;fill-opacity:1;fill-rule:nonzero;stroke:none"
             id="path22"
             inkscape:connector-curvature="0" /></g></g></g></g></svg>
