<?xml version="1.0" encoding="UTF-8" standalone="no"?>
<!-- Created with Inkscape (http://www.inkscape.org/) -->

<svg
   xmlns:dc="http://purl.org/dc/elements/1.1/"
   xmlns:cc="http://creativecommons.org/ns#"
   xmlns:rdf="http://www.w3.org/1999/02/22-rdf-syntax-ns#"
   xmlns:svg="http://www.w3.org/2000/svg"
   xmlns="http://www.w3.org/2000/svg"
   xmlns:sodipodi="http://sodipodi.sourceforge.net/DTD/sodipodi-0.dtd"
   xmlns:inkscape="http://www.inkscape.org/namespaces/inkscape"
   id="svg2"
   version="1.1"
   inkscape:version="0.91 r13725"
   xml:space="preserve"
   width="40"
   height="40"
   viewBox="0 0 187.5 187.5"
   sodipodi:docname="stat-members.svg"><metadata
     id="metadata8"><rdf:RDF><cc:Work
         rdf:about=""><dc:format>image/svg+xml</dc:format><dc:type
           rdf:resource="http://purl.org/dc/dcmitype/StillImage" /><dc:title></dc:title></cc:Work></rdf:RDF></metadata><defs
     id="defs6"><clipPath
       clipPathUnits="userSpaceOnUse"
       id="clipPath16"><path
         d="M 0,150 150,150 150,0 0,0 0,150 Z"
         id="path18"
         inkscape:connector-curvature="0" /></clipPath></defs><sodipodi:namedview
     pagecolor="#ffffff"
     bordercolor="#666666"
     borderopacity="1"
     objecttolerance="10"
     gridtolerance="10"
     guidetolerance="10"
     inkscape:pageopacity="0"
     inkscape:pageshadow="2"
     inkscape:window-width="640"
     inkscape:window-height="480"
     id="namedview4"
     showgrid="false"
     inkscape:zoom="1.2586667"
     inkscape:cx="93.75"
     inkscape:cy="93.75"
     inkscape:window-x="0"
     inkscape:window-y="400"
     inkscape:window-maximized="0"
     inkscape:current-layer="g10" /><g
     id="g10"
     inkscape:groupmode="layer"
     inkscape:label="members only"
     transform="matrix(1.25,0,0,-1.25,0,187.5)"><g
       id="g12"><g
         id="g14"
         clip-path="url(#clipPath16)"><g
           id="g20"
           transform="translate(88.3232,35.3867)"><path
             d="m 0,0 c 0.97,-1.84 2.424,-2.484 4.6,-2.248 0.663,0.07 0.972,0.34 0.962,0.998 -0.01,0.639 -0.135,1.227 -0.914,1.242 C 3.152,0.023 1.651,0 0,0 m -30.66,65.096 c 0,-0.496 -0.01,-0.644 0,-0.793 0.072,-0.959 -0.285,-2.238 0.573,-2.748 0.885,-0.524 1.603,0.637 2.36,1.105 1.192,0.733 2.388,1.556 3.838,0.924 3.036,-1.33 3.274,-0.313 4.055,2.246 0.171,0.559 0.291,1.156 0.3,1.738 0.019,1.414 0.638,2.318 2.006,2.739 0.831,0.258 1.514,0.667 1.509,1.736 -0.007,1.095 -0.385,1.907 -1.386,2.397 -1.494,0.735 -3.03,0.777 -4.584,0.256 -2.139,-0.717 -3.876,-2.089 -5.618,-3.469 -2.105,-1.67 -3.43,-3.663 -3.053,-6.131 m 61.741,1.415 c 0.096,1.628 -0.237,3.426 -2.033,4.713 -1.547,1.112 -2.635,2.815 -4.442,3.609 -0.344,0.153 -0.793,0.24 -1.152,0.163 -2.464,-0.524 -4.95,-0.749 -7.468,-0.722 -0.586,0.009 -1.145,-0.288 -1.353,-0.959 -0.224,-0.715 0.062,-1.261 0.568,-1.707 0.757,-0.662 1.678,-1.001 2.633,-1.263 2.616,-0.721 2.605,-0.726 2.943,-3.523 0.093,-0.783 0.203,-1.718 1.291,-1.627 1.585,0.133 2.452,-0.777 3.222,-1.92 0.739,-1.103 1.725,-1.509 3.052,-1.223 2.497,0.542 2.924,1.136 2.739,4.459 M -16.662,31.553 c 0.427,3.054 -1.554,4.265 -3.836,5.252 -1.518,0.656 -2.219,1.84 -2.272,3.483 -0.071,2.055 -0.942,3.671 -2.718,4.8 -1.078,0.686 -2.131,1.43 -3.122,2.236 -3.115,2.528 -6.471,3.84 -10.662,3.875 -3.601,0.029 -6.802,-0.525 -9.887,-2.221 -0.777,-0.427 -1.576,-0.809 -2.35,-1.237 -4.072,-2.248 -4.318,-2.845 -2.56,-7.068 0.577,-1.379 0.384,-2.419 -0.668,-3.45 -1.441,-1.418 -2.73,-2.989 -4.207,-4.36 -2.186,-2.033 -2.455,-3.367 -0.919,-6.029 1.257,-2.18 0.7,-3.752 -0.243,-5.568 -0.298,-0.567 -0.582,-1.141 -0.864,-1.715 -1.099,-2.254 -2.229,-4.49 -3.275,-6.772 -0.528,-1.146 -0.03,-3.088 0.959,-3.732 1.073,-0.697 1.71,0.367 2.398,0.853 6.757,4.768 13.572,9.442 21.07,13.004 4.79,2.276 9.336,1.844 13.613,-1.31 1.794,-1.324 3.404,-2.85 4.855,-4.53 3.777,-4.353 7.503,-8.751 11.254,-13.132 0.757,-0.885 1.285,-1.871 1.231,-3.073 -0.072,-1.535 0.847,-2.341 2.103,-2.879 1.266,-0.539 1.629,-0.298 1.763,1.083 0.327,3.337 4.59,5.476 7.432,3.685 C 4.37,1.523 6.291,1.4 8.249,2.633 9.288,3.285 10.345,3.395 11.48,2.9 c 0.675,-0.295 1.395,-0.494 2.06,-0.808 0.713,-0.338 1.084,-0.166 1.301,0.594 0.369,1.275 0.707,2.548 0.857,3.876 0.2,1.77 -0.271,3.184 -1.802,4.215 -0.937,0.633 -1.781,1.403 -2.689,2.08 -0.508,0.377 -0.832,0.829 -0.846,1.469 -0.035,1.774 -0.137,3.547 0.26,5.301 0.235,1.039 0.797,1.666 1.852,1.814 1.037,0.149 2.004,0.024 2.559,-1.002 0.879,-1.632 2.224,-2.877 3.416,-4.25 0.948,-1.087 2.156,-1.369 3.288,-0.49 2.862,2.219 5.203,4.842 5.441,8.701 0.104,1.715 0.466,3.289 1.469,4.715 0.744,1.057 1.392,2.209 1.378,3.528 -0.018,1.72 0.675,3.152 1.561,4.529 0.719,1.117 1.409,2.266 2.23,3.299 1.336,1.694 1.789,3.443 0.879,5.494 -0.31,0.708 -0.372,1.521 -0.36,2.322 0.01,0.724 -0.23,1.363 -0.932,1.718 -1.806,0.906 -4.63,0.054 -5.592,-1.751 -2.012,-3.775 -3.983,-7.576 -5.967,-11.367 -1.635,-3.125 -2.593,-3.485 -5.869,-2.19 -0.139,0.055 -0.272,0.116 -0.41,0.17 -1.752,0.696 -2.601,1.936 -2.579,3.869 0.03,2.226 0.457,4.404 0.622,6.608 0.466,6.191 -1.338,12.071 -2.604,18.02 -0.105,0.49 -0.306,1.021 -0.848,1.112 C 8.866,64.698 8.439,65.69 8.028,66.698 7.154,68.835 6.362,69.317 4.182,68.525 2.753,68.005 1.51,68.043 0.08,68.511 c -1.552,0.511 -3.325,0.679 -4.613,-0.588 -1.21,-1.194 -0.426,-2.694 -0.079,-4.051 0.204,-0.81 0.526,-1.587 0.784,-2.384 0.36,-1.125 0.729,-2.246 1.062,-3.381 0.261,-0.895 0.048,-1.595 -0.986,-1.747 -1.238,-0.181 -1.461,-1.009 -1.375,-2.044 0.323,-4.117 0.465,-8.253 1.078,-12.354 0.362,-2.431 0.546,-4.853 2.41,-6.782 0.534,-0.551 0.755,-1.504 0.894,-2.309 C 0.263,26.934 0.626,20.941 0.767,14.926 0.808,13.143 -0.129,12.027 -1.536,11.527 -3.683,10.77 -5.176,9.484 -6.162,7.482 -6.581,6.629 -7.137,6.758 -7.587,7.477 -8.214,8.475 -8.152,9.545 -7.8,10.609 c 0.48,1.444 0.555,2.899 0.166,4.364 -0.442,1.66 -0.977,3.297 -1.379,4.968 -0.358,1.485 0.213,2.485 1.635,3.039 0.59,0.231 1.23,0.346 1.829,0.565 1.038,0.383 1.784,1.008 1.813,2.242 0.016,0.637 0.167,1.27 0.217,1.906 0.279,3.438 -0.25,4.174 -3.318,5.457 -2.387,1.002 -4.564,0.924 -6.703,-0.576 -0.835,-0.582 -1.71,-1.181 -3.122,-1.021 m -55.214,-43.867 0,103.223 120.969,0 0,-103.21"
             style="fill:#777777;fill-opacity:1;fill-rule:evenodd;stroke:none"
             id="path22"
             inkscape:connector-curvature="0" /></g><g
           id="g24"
           transform="translate(101.1357,66.5547)"><path
             d="M 0,0 C 1.123,-0.26 2.168,-0.477 2.647,0.887 2.694,1.018 2.948,1.133 3.121,1.152 4.823,1.4 7.437,-0.762 7.512,-2.504 7.565,-3.725 6.793,-4.414 5.753,-4.785 3.063,-5.748 -0.333,-3.01 0,0"
             style="fill:#777777;fill-opacity:1;fill-rule:evenodd;stroke:none"
             id="path26"
             inkscape:connector-curvature="0" /></g><g
           id="g28"
           transform="translate(76.2607,64.9961)"><path
             d="M 0,0 C 0.713,-0.166 1.361,-0.316 1.96,-0.457 2.638,0.109 2.075,0.842 2.425,1.443 4.099,1.43 5.372,0.619 6.375,-0.664 7.352,-1.912 6.762,-3.604 5.243,-4.027 3.334,-4.562 0.229,-2.557 -0.058,-0.602 -0.082,-0.422 -0.022,-0.23 0,0"
             style="fill:#777777;fill-opacity:1;fill-rule:evenodd;stroke:none"
             id="path30"
             inkscape:connector-curvature="0" /></g><g
           id="g32"
           transform="translate(140.833,30.7852)"><path
             d="m 0,0 c 0,-6.607 -5.357,-11.969 -11.966,-11.969 l -105.055,0 c -6.608,0 -11.966,5.362 -11.966,11.969 l 0,88.431 c 0,6.609 5.358,11.967 11.966,11.967 l 105.055,0 C -5.357,100.398 0,95.04 0,88.431 L 0,0 Z"
             style="fill:none;stroke:#777777;stroke-width:9.97299957;stroke-linecap:butt;stroke-linejoin:miter;stroke-miterlimit:10;stroke-dasharray:none;stroke-opacity:1"
             id="path34"
             inkscape:connector-curvature="0" /></g></g></g></g></svg>
