<?xml version="1.0" encoding="UTF-8" standalone="no"?>
<!-- Created with Inkscape (http://www.inkscape.org/) -->

<svg
   xmlns:dc="http://purl.org/dc/elements/1.1/"
   xmlns:cc="http://creativecommons.org/ns#"
   xmlns:rdf="http://www.w3.org/1999/02/22-rdf-syntax-ns#"
   xmlns:svg="http://www.w3.org/2000/svg"
   xmlns="http://www.w3.org/2000/svg"
   xmlns:sodipodi="http://sodipodi.sourceforge.net/DTD/sodipodi-0.dtd"
   xmlns:inkscape="http://www.inkscape.org/namespaces/inkscape"
   id="svg2"
   version="1.1"
   inkscape:version="0.91 r13725"
   xml:space="preserve"
   width="40"
   height="40"
   viewBox="0 0 187.5 187.5"
   sodipodi:docname="stat-supporters.svg"><metadata
     id="metadata8"><rdf:RDF><cc:Work
         rdf:about=""><dc:format>image/svg+xml</dc:format><dc:type
           rdf:resource="http://purl.org/dc/dcmitype/StillImage" /><dc:title></dc:title></cc:Work></rdf:RDF></metadata><defs
     id="defs6"><clipPath
       clipPathUnits="userSpaceOnUse"
       id="clipPath16"><path
         d="M 0,150 150,150 150,0 0,0 0,150 Z"
         id="path18"
         inkscape:connector-curvature="0" /></clipPath></defs><sodipodi:namedview
     pagecolor="#ffffff"
     bordercolor="#666666"
     borderopacity="1"
     objecttolerance="10"
     gridtolerance="10"
     guidetolerance="10"
     inkscape:pageopacity="0"
     inkscape:pageshadow="2"
     inkscape:window-width="640"
     inkscape:window-height="480"
     id="namedview4"
     showgrid="false"
     inkscape:zoom="1.2586667"
     inkscape:cx="93.75"
     inkscape:cy="93.75"
     inkscape:window-x="0"
     inkscape:window-y="400"
     inkscape:window-maximized="0"
     inkscape:current-layer="g10" /><g
     id="g10"
     inkscape:groupmode="layer"
     inkscape:label="family event"
     transform="matrix(1.25,0,0,-1.25,0,187.5)"><g
       id="g12"><g
         id="g14"
         clip-path="url(#clipPath16)"><g
           id="g20"
           transform="translate(142.7588,70.3066)"><path
             d="m 0,0 c -0.126,-0.078 -0.089,-0.215 -0.121,-0.325 -0.475,-1.664 -1.938,-2.603 -3.7,-2.378 -1.519,0.196 -2.624,1.498 -2.664,3.161 -0.02,0.888 -0.009,1.776 -0.009,2.665 l 0,18.236 0,0.569 -1.54,0 C -8.139,21.71 -8.088,21.482 -8.088,21.26 -8.093,2.044 -8.093,-17.172 -8.091,-36.385 c 0,-0.877 -0.045,-1.746 -0.415,-2.56 -0.749,-1.645 -2.404,-2.555 -4.363,-2.399 -1.79,0.141 -3.35,1.428 -3.832,3.151 -0.167,0.586 -0.194,1.181 -0.194,1.785 0.003,11.076 0,22.148 0,33.224 0,0.192 0.041,0.387 -0.053,0.596 -0.408,0.06 -0.824,0.033 -1.239,0.017 -0.135,-0.21 -0.076,-0.424 -0.076,-0.626 -0.003,-11.09 -0.003,-22.18 0,-33.27 0,-1.33 -0.231,-2.59 -1.218,-3.566 -1.336,-1.326 -2.941,-1.668 -4.691,-1.045 -1.696,0.603 -2.512,1.92 -2.654,3.676 -0.029,0.377 -0.034,0.754 -0.034,1.127 -0.003,19.173 0,38.343 0,57.513 l 0,0.695 -1.536,0 c -0.118,-0.166 -0.056,-0.37 -0.056,-0.558 -0.002,-6.799 -0.002,-13.602 -0.002,-20.404 0.002,-0.653 -0.075,-1.288 -0.355,-1.887 -0.617,-1.309 -2.135,-2.047 -3.577,-1.741 -1.521,0.325 -2.544,1.492 -2.552,3.011 -0.016,4.65 -0.01,9.3 -0.01,13.95 0,3.371 -0.075,6.744 0.029,10.112 0.129,4.081 2.976,8.111 7.245,9.118 0.811,0.19 1.629,0.26 2.458,0.26 5.071,0.002 10.144,-0.022 15.212,0.008 5.593,0.03 9.309,-4.296 9.915,-8.764 C -0.075,24.936 -0.032,24.839 0,24.74 L 0,0 Z"
             style="fill:#777777;fill-opacity:1;fill-rule:evenodd;stroke:none"
             id="path22"
             inkscape:connector-curvature="0" /></g><g
           id="g24"
           transform="translate(126.1436,121.231)"><path
             d="m 0,0 c 0.826,-0.209 1.663,-0.368 2.437,-0.751 3.044,-1.505 4.502,-4.659 4.202,-7.548 -0.338,-3.218 -2.735,-6.062 -6.269,-6.663 -4.782,-0.813 -9.086,3.123 -8.751,7.975 0.245,3.499 2.939,6.4 6.416,6.901 0.086,0.014 0.167,0.057 0.25,0.086 L 0,0 Z"
             style="fill:#777777;fill-opacity:1;fill-rule:evenodd;stroke:none"
             id="path26"
             inkscape:connector-curvature="0" /></g><g
           id="g28"
           transform="translate(67.8848,58.5234)"><path
             d="m 0,0 c -0.09,-0.057 -0.063,-0.153 -0.086,-0.233 -0.341,-1.189 -1.386,-1.861 -2.647,-1.699 -1.084,0.139 -1.876,1.071 -1.904,2.259 -0.014,0.636 -0.006,1.27 -0.006,1.905 l 0,13.039 0,0.408 -1.101,0 c -0.075,-0.156 -0.04,-0.32 -0.04,-0.478 -0.001,-13.738 -0.001,-27.477 0,-41.215 0,-0.627 -0.033,-1.25 -0.298,-1.832 -0.535,-1.175 -1.719,-1.824 -3.118,-1.715 -1.281,0.1 -2.395,1.024 -2.741,2.254 -0.119,0.416 -0.138,0.844 -0.138,1.276 0.001,7.922 0.001,15.837 0,23.756 0,0.136 0.028,0.276 -0.038,0.425 -0.294,0.041 -0.59,0.022 -0.887,0.012 -0.097,-0.15 -0.054,-0.304 -0.054,-0.449 -0.003,-7.929 -0.003,-15.858 -10e-4,-23.787 0,-0.951 -0.164,-1.852 -0.871,-2.549 -0.955,-0.947 -2.102,-1.191 -3.354,-0.746 -1.213,0.432 -1.794,1.371 -1.896,2.629 -0.022,0.269 -0.026,0.537 -0.026,0.804 l 0,41.122 0,0.496 -1.097,0 c -0.083,-0.119 -0.04,-0.266 -0.04,-0.401 -0.001,-4.859 -0.003,-9.724 -0.001,-14.586 0.001,-0.466 -0.053,-0.921 -0.254,-1.349 -0.44,-0.938 -1.527,-1.463 -2.557,-1.246 -1.088,0.234 -1.82,1.068 -1.824,2.152 -0.013,3.324 -0.009,6.649 -0.009,9.975 0,2.409 -0.055,4.822 0.021,7.231 0.093,2.917 2.127,5.799 5.181,6.518 0.58,0.137 1.166,0.185 1.758,0.185 3.625,0.003 7.252,-0.014 10.877,0.008 3.998,0.019 6.654,-3.072 7.088,-6.268 0.009,-0.073 0.042,-0.14 0.063,-0.213 L 0,0 Z"
             style="fill:#777777;fill-opacity:1;fill-rule:evenodd;stroke:none"
             id="path30"
             inkscape:connector-curvature="0" /></g><g
           id="g32"
           transform="translate(56.0049,94.9341)"><path
             d="m 0,0 c 0.591,-0.15 1.189,-0.263 1.742,-0.537 2.178,-1.078 3.219,-3.333 3.004,-5.399 -0.24,-2.299 -1.955,-4.334 -4.48,-4.763 -3.421,-0.582 -6.497,2.233 -6.257,5.702 0.173,2.501 2.1,4.576 4.588,4.935 0.06,0.008 0.118,0.041 0.177,0.062 L 0,0 Z"
             style="fill:#777777;fill-opacity:1;fill-rule:evenodd;stroke:none"
             id="path34"
             inkscape:connector-curvature="0" /></g><g
           id="g36"
           transform="translate(6.5063,74.9106)"><path
             d="m 0,0 c 0.604,2.007 1.205,4.014 1.81,6.021 1.601,5.33 3.133,10.683 4.83,15.983 1.21,3.775 3.839,6.158 7.754,7.03 0.482,0.108 0.982,0.145 1.478,0.145 3.521,0 7.043,0.032 10.563,-0.008 2.776,-0.032 5.014,-1.275 6.892,-3.257 1.544,-1.632 2.343,-3.618 2.965,-5.74 1.88,-6.405 3.833,-12.789 5.756,-19.181 0.259,-0.862 0.398,-1.731 0.124,-2.617 -0.416,-1.338 -1.32,-2.152 -2.709,-2.304 -1.273,-0.137 -2.227,0.459 -2.903,1.527 -0.418,0.659 -0.579,1.414 -0.792,2.146 -1.786,6.134 -3.566,12.271 -5.35,18.408 -0.032,0.113 -0.076,0.223 -0.119,0.344 l -1.819,0 C 31.875,6.845 35.261,-4.771 38.657,-16.424 l -9.421,0 c -0.128,-0.207 -0.071,-0.407 -0.071,-0.594 -0.004,-8.53 -0.003,-17.063 -0.004,-25.594 -0.002,-1.449 -0.581,-2.56 -1.923,-3.205 -0.28,-0.131 -0.581,-0.217 -0.872,-0.324 l -1.354,0 c -0.22,0.166 -0.501,0.164 -0.743,0.277 -1.378,0.625 -2.052,1.711 -2.052,3.209 -0.007,8.541 -0.004,17.082 -0.007,25.623 0,0.192 0.049,0.387 -0.045,0.57 l -2.033,0 0,-0.572 0,-22.152 c 0,-1.188 0.015,-2.377 -0.008,-3.566 -0.028,-1.612 -1.073,-2.897 -2.639,-3.29 -0.085,-0.021 -0.183,-0.009 -0.239,-0.099 l -1.354,0 c -0.323,0.113 -0.66,0.199 -0.967,0.346 -1.465,0.707 -1.995,1.949 -1.995,3.5 10e-4,8.425 10e-4,16.851 -0.003,25.28 0,0.187 0.06,0.39 -0.09,0.603 l -9.153,0 c 3.322,11.665 6.628,23.276 9.942,34.914 l -1.587,0 C 11.996,18.371 11.95,18.244 11.914,18.118 10.045,11.694 8.179,5.27 6.31,-1.154 6.167,-1.647 5.966,-2.118 5.661,-2.534 4.878,-3.604 3.818,-4.092 2.519,-3.84 1.221,-3.59 0.407,-2.761 0.09,-1.465 0.072,-1.395 0.031,-1.331 0,-1.266 L 0,0 Z"
             style="fill:#777777;fill-opacity:1;fill-rule:evenodd;stroke:none"
             id="path38"
             inkscape:connector-curvature="0" /></g><g
           id="g40"
           transform="translate(28.5381,121.231)"><path
             d="m 0,0 c 0.688,-0.196 1.397,-0.303 2.065,-0.587 3.083,-1.313 4.863,-4.431 4.58,-7.581 -0.319,-3.52 -2.908,-6.228 -6.279,-6.797 -4.805,-0.81 -9.122,3.166 -8.746,8.023 0.27,3.491 2.95,6.355 6.415,6.856 0.086,0.011 0.166,0.057 0.249,0.086 L 0,0 Z"
             style="fill:#777777;fill-opacity:1;fill-rule:evenodd;stroke:none"
             id="path42"
             inkscape:connector-curvature="0" /></g><g
           id="g44"
           transform="translate(70.6953,68.127)"><path
             d="m 0,0 c 0.51,1.693 1.016,3.387 1.527,5.077 1.35,4.497 2.64,9.011 4.072,13.482 1.022,3.182 3.239,5.191 6.54,5.93 0.407,0.088 0.826,0.118 1.245,0.118 2.97,0 5.94,0.029 8.908,-0.005 2.34,-0.027 4.229,-1.077 5.812,-2.748 1.302,-1.377 1.975,-3.051 2.501,-4.841 1.583,-5.402 3.231,-10.785 4.855,-16.173 0.217,-0.727 0.335,-1.463 0.104,-2.208 -0.351,-1.13 -1.114,-1.814 -2.286,-1.943 -1.073,-0.116 -1.876,0.386 -2.447,1.288 -0.352,0.555 -0.488,1.191 -0.666,1.808 -1.508,5.174 -3.011,10.35 -4.514,15.527 -0.026,0.093 -0.064,0.188 -0.101,0.289 l -1.535,0 c 2.866,-9.83 5.721,-19.623 8.584,-29.45 l -7.946,0 c -0.107,-0.176 -0.058,-0.343 -0.058,-0.499 -0.006,-7.194 -0.003,-14.39 -0.006,-21.586 0,-1.222 -0.488,-2.156 -1.62,-2.701 -0.237,-0.113 -0.489,-0.183 -0.736,-0.273 l -1.14,0 c -0.186,0.142 -0.421,0.138 -0.625,0.232 -1.165,0.528 -1.732,1.444 -1.732,2.705 -0.007,7.205 -0.002,14.408 -0.007,21.61 0,0.161 0.042,0.328 -0.038,0.48 l -1.714,0 0,-0.482 0,-18.682 c 0,-0.998 0.013,-2.002 -0.008,-3.006 -0.022,-1.361 -0.903,-2.441 -2.223,-2.775 -0.072,-0.018 -0.155,-0.008 -0.203,-0.082 l -1.141,0 c -0.273,0.094 -0.555,0.166 -0.818,0.291 -1.234,0.596 -1.68,1.642 -1.68,2.949 0,7.106 0,14.215 -0.003,21.32 0,0.159 0.051,0.327 -0.078,0.51 l -7.716,0 c 2.802,9.837 5.588,19.626 8.384,29.442 l -1.339,0 C 10.115,15.494 10.077,15.387 10.045,15.282 8.473,9.864 6.897,4.446 5.321,-0.971 5.199,-1.387 5.031,-1.784 4.773,-2.133 4.113,-3.037 3.22,-3.451 2.124,-3.236 1.029,-3.027 0.342,-2.326 0.075,-1.231 0.062,-1.176 0.025,-1.121 0,-1.064 L 0,0 Z"
             style="fill:#777777;fill-opacity:1;fill-rule:evenodd;stroke:none"
             id="path46"
             inkscape:connector-curvature="0" /></g><g
           id="g48"
           transform="translate(89.2734,107.1919)"><path
             d="m 0,0 c 0.58,-0.167 1.181,-0.258 1.742,-0.497 2.6,-1.105 4.103,-3.737 3.862,-6.394 -0.269,-2.965 -2.451,-5.252 -5.292,-5.729 -4.052,-0.684 -7.694,2.67 -7.379,6.765 0.23,2.943 2.49,5.358 5.409,5.78 0.075,0.011 0.142,0.048 0.212,0.075 L 0,0 Z"
             style="fill:#777777;fill-opacity:1;fill-rule:evenodd;stroke:none"
             id="path50"
             inkscape:connector-curvature="0" /></g></g></g></g></svg>
