<?xml version="1.0" encoding="UTF-8" standalone="no"?>
<!-- Created with Inkscape (http://www.inkscape.org/) -->

<svg
   xmlns:dc="http://purl.org/dc/elements/1.1/"
   xmlns:cc="http://creativecommons.org/ns#"
   xmlns:rdf="http://www.w3.org/1999/02/22-rdf-syntax-ns#"
   xmlns:svg="http://www.w3.org/2000/svg"
   xmlns="http://www.w3.org/2000/svg"
   xmlns:sodipodi="http://sodipodi.sourceforge.net/DTD/sodipodi-0.dtd"
   xmlns:inkscape="http://www.inkscape.org/namespaces/inkscape"
   id="svg2"
   version="1.1"
   inkscape:version="0.91 r13725"
   xml:space="preserve"
   width="40"
   height="40"
   viewBox="0 0 187.5 187.5"
   sodipodi:docname="stat-parking.svg"><metadata
     id="metadata8"><rdf:RDF><cc:Work
         rdf:about=""><dc:format>image/svg+xml</dc:format><dc:type
           rdf:resource="http://purl.org/dc/dcmitype/StillImage" /><dc:title></dc:title></cc:Work></rdf:RDF></metadata><defs
     id="defs6"><clipPath
       clipPathUnits="userSpaceOnUse"
       id="clipPath16"><path
         d="M 0,150 150,150 150,0 0,0 0,150 Z"
         id="path18"
         inkscape:connector-curvature="0" /></clipPath></defs><sodipodi:namedview
     pagecolor="#ffffff"
     bordercolor="#666666"
     borderopacity="1"
     objecttolerance="10"
     gridtolerance="10"
     guidetolerance="10"
     inkscape:pageopacity="0"
     inkscape:pageshadow="2"
     inkscape:window-width="640"
     inkscape:window-height="480"
     id="namedview4"
     showgrid="false"
     inkscape:zoom="1.2586667"
     inkscape:cx="93.75"
     inkscape:cy="93.75"
     inkscape:window-x="0"
     inkscape:window-y="400"
     inkscape:window-maximized="0"
     inkscape:current-layer="g10" /><g
     id="g10"
     inkscape:groupmode="layer"
     inkscape:label="parking"
     transform="matrix(1.25,0,0,-1.25,0,187.5)"><g
       id="g12"><g
         id="g14"
         clip-path="url(#clipPath16)"><g
           id="g20"
           transform="translate(80.0879,66.0771)"><path
             d="m 0,0 -7.477,0 0,-16.39 c 0,-1.638 0.102,-1.843 1.639,-2.048 l 14.648,-0.82 0,-8.092 -40.154,0 0,8.092 6.453,0.718 c 1.434,0.204 1.639,0.512 1.639,2.048 l 0,52.343 c 0,1.537 -0.205,1.946 -1.639,2.049 l -6.453,0.717 0,8.195 34.725,0 c 18.95,0 24.685,-10.039 24.685,-21.819 C 28.066,7.17 17.312,0 0,0 m 41.448,66.563 -93.073,0 c -5.557,0 -10.063,-5.849 -10.063,-13.063 l 0,-89.152 c 0,-7.214 4.506,-13.065 10.063,-13.065 l 93.073,0 c 5.562,0 10.065,5.851 10.065,13.065 l 0,89.152 c 0,7.214 -4.503,13.063 -10.065,13.063 m -42.882,-30.917 -6.043,0 0,-24.686 5.122,0 c 6.76,0 14.238,1.537 14.238,13.111 0,9.834 -6.044,11.575 -13.317,11.575"
             style="fill:#777777;fill-opacity:1;fill-rule:nonzero;stroke:none"
             id="path22"
             inkscape:connector-curvature="0" /></g></g></g></g></svg>
