<?xml version="1.0" encoding="UTF-8" standalone="no"?>
<!-- Created with Inkscape (http://www.inkscape.org/) -->

<svg
   xmlns:dc="http://purl.org/dc/elements/1.1/"
   xmlns:cc="http://creativecommons.org/ns#"
   xmlns:rdf="http://www.w3.org/1999/02/22-rdf-syntax-ns#"
   xmlns:svg="http://www.w3.org/2000/svg"
   xmlns="http://www.w3.org/2000/svg"
   xmlns:sodipodi="http://sodipodi.sourceforge.net/DTD/sodipodi-0.dtd"
   xmlns:inkscape="http://www.inkscape.org/namespaces/inkscape"
   id="svg2"
   version="1.1"
   inkscape:version="0.91 r13725"
   xml:space="preserve"
   width="40"
   height="40"
   viewBox="0 0 125 125"
   sodipodi:docname="stat-binocular.svg"><metadata
     id="metadata8"><rdf:RDF><cc:Work
         rdf:about=""><dc:format>image/svg+xml</dc:format><dc:type
           rdf:resource="http://purl.org/dc/dcmitype/StillImage" /><dc:title></dc:title></cc:Work></rdf:RDF></metadata><defs
     id="defs6"><clipPath
       clipPathUnits="userSpaceOnUse"
       id="clipPath16"><path
         d="M 0,100 100,100 100,0 0,0 0,100 Z"
         id="path18"
         inkscape:connector-curvature="0" /></clipPath></defs><sodipodi:namedview
     pagecolor="#ffffff"
     bordercolor="#666666"
     borderopacity="1"
     objecttolerance="10"
     gridtolerance="10"
     guidetolerance="10"
     inkscape:pageopacity="0"
     inkscape:pageshadow="2"
     inkscape:window-width="640"
     inkscape:window-height="480"
     id="namedview4"
     showgrid="false"
     inkscape:zoom="1.888"
     inkscape:cx="62.5"
     inkscape:cy="62.5"
     inkscape:window-x="0"
     inkscape:window-y="400"
     inkscape:window-maximized="0"
     inkscape:current-layer="g10" /><g
     id="g10"
     inkscape:groupmode="layer"
     inkscape:label="binoculars"
     transform="matrix(1.25,0,0,-1.25,0,125)"><g
       id="g12"><g
         id="g14"
         clip-path="url(#clipPath16)"><g
           id="g20"
           transform="translate(75.5205,23.9463)"><path
             d="m 0,0 c -8.186,0 -14.845,6.66 -14.845,14.846 0,8.186 6.659,14.844 14.845,14.844 8.186,0 14.845,-6.658 14.845,-14.844 C 14.845,6.66 8.186,0 0,0 m -51.041,0.565 c -8.186,0 -14.845,6.66 -14.845,14.845 0,8.186 6.659,14.845 14.845,14.845 8.186,0 14.845,-6.659 14.845,-14.845 0,-8.185 -6.659,-14.845 -14.845,-14.845 M 20.283,18.16 c 0.488,3.481 -19.971,39.657 -30.977,39.657 -6.29,0 -11.566,-3.209 -13.018,-7.539 -0.022,-0.067 -2.691,-0.654 -3.926,-0.041 -1.433,4.35 -6.723,7.58 -13.032,7.58 -10.517,0 -25.854,-25.69 -28.548,-32.826 -1.515,-2.863 -2.378,-6.122 -2.378,-9.581 0,-11.335 9.221,-20.555 20.555,-20.555 6.555,0 12.398,3.089 16.165,7.881 -0.013,-0.167 0.003,-0.254 0.059,-0.252 6.787,0.408 13.062,-0.378 18.54,-0.168 3.76,-4.877 9.657,-8.025 16.277,-8.025 11.334,0 20.555,9.222 20.555,20.555 0,1.129 -0.096,2.235 -0.272,3.314"
             style="fill:#777777;fill-opacity:1;fill-rule:nonzero;stroke:none"
             id="path22"
             inkscape:connector-curvature="0" /></g></g></g></g></svg>
