<?xml version="1.0" encoding="UTF-8" standalone="no"?>
<!-- Created with Inkscape (http://www.inkscape.org/) -->

<svg
   xmlns:dc="http://purl.org/dc/elements/1.1/"
   xmlns:cc="http://creativecommons.org/ns#"
   xmlns:rdf="http://www.w3.org/1999/02/22-rdf-syntax-ns#"
   xmlns:svg="http://www.w3.org/2000/svg"
   xmlns="http://www.w3.org/2000/svg"
   xmlns:sodipodi="http://sodipodi.sourceforge.net/DTD/sodipodi-0.dtd"
   xmlns:inkscape="http://www.inkscape.org/namespaces/inkscape"
   id="svg2"
   version="1.1"
   inkscape:version="0.91 r13725"
   xml:space="preserve"
   width="40"
   height="40"
   viewBox="0 0 187.5 187.5"
   sodipodi:docname="stat-petition.svg"><metadata
     id="metadata8"><rdf:RDF><cc:Work
         rdf:about=""><dc:format>image/svg+xml</dc:format><dc:type
           rdf:resource="http://purl.org/dc/dcmitype/StillImage" /><dc:title></dc:title></cc:Work></rdf:RDF></metadata><defs
     id="defs6"><clipPath
       clipPathUnits="userSpaceOnUse"
       id="clipPath16"><path
         d="M 0,150 150,150 150,0 0,0 0,150 Z"
         id="path18"
         inkscape:connector-curvature="0" /></clipPath></defs><sodipodi:namedview
     pagecolor="#ffffff"
     bordercolor="#666666"
     borderopacity="1"
     objecttolerance="10"
     gridtolerance="10"
     guidetolerance="10"
     inkscape:pageopacity="0"
     inkscape:pageshadow="2"
     inkscape:window-width="640"
     inkscape:window-height="480"
     id="namedview4"
     showgrid="false"
     inkscape:zoom="1.2586667"
     inkscape:cx="93.75"
     inkscape:cy="93.75"
     inkscape:window-x="0"
     inkscape:window-y="400"
     inkscape:window-maximized="0"
     inkscape:current-layer="g10" /><g
     id="g10"
     inkscape:groupmode="layer"
     inkscape:label="petition"
     transform="matrix(1.25,0,0,-1.25,0,187.5)"><g
       id="g12"><g
         id="g14"
         clip-path="url(#clipPath16)"><g
           id="g20"
           transform="translate(119.4482,105.9243)"><path
             d="m 0,0 c -1.261,0.748 -2.727,1.446 -1.935,3.281 2.816,6.495 -0.887,14.659 5.659,19.912 -3.947,3.412 -8.581,4.721 -11.886,8.032 -0.309,-0.079 -0.623,-0.156 -0.935,-0.235 -1.32,-3.188 -2.371,-6.79 -5.694,-8.359 -5.257,-2.476 -9.209,-6.311 -12.647,-10.782 -9.633,-12.512 -16.769,-26.514 -23.749,-39.8 0.64,-0.388 1.264,-0.762 1.901,-1.153 -2.677,-4.229 -4.747,-7.187 -5.261,-6.881 -8.384,-17.437 -17.71,-34.957 -22.341,-54.421 0.193,-0.786 0.388,-1.572 0.587,-2.349 3.037,-1.161 4.811,1.1 6.615,2.709 7.257,6.447 13.193,14.087 19.111,21.723 5.402,6.979 10.762,13.99 15.246,20.87 -0.44,0.271 1.393,3.152 4.26,7.213 0.987,-0.598 1.963,-1.198 2.951,-1.803 8.254,11.461 15.799,23.717 22.804,36.498 2.557,-0.95 4.7,-2.154 6.955,-4.489 -4.273,-6.838 -8.539,-13.614 -12.752,-20.421 -1.335,-2.157 -1.532,-4.438 0.931,-5.821 2.207,-1.224 3.988,-0.029 5.193,1.983 4.714,7.832 9.386,15.687 14.122,23.503 1.674,2.769 1.068,4.788 -1.699,6.359 C 4.925,-3.005 2.483,-1.469 0,0"
             style="fill:#777777;fill-opacity:1;fill-rule:evenodd;stroke:none"
             id="path22"
             inkscape:connector-curvature="0" /></g></g></g></g></svg>
