<?xml version="1.0" encoding="UTF-8" standalone="no"?>
<!-- Created with Inkscape (http://www.inkscape.org/) -->

<svg
   xmlns:dc="http://purl.org/dc/elements/1.1/"
   xmlns:cc="http://creativecommons.org/ns#"
   xmlns:rdf="http://www.w3.org/1999/02/22-rdf-syntax-ns#"
   xmlns:svg="http://www.w3.org/2000/svg"
   xmlns="http://www.w3.org/2000/svg"
   xmlns:sodipodi="http://sodipodi.sourceforge.net/DTD/sodipodi-0.dtd"
   xmlns:inkscape="http://www.inkscape.org/namespaces/inkscape"
   id="svg2"
   version="1.1"
   inkscape:version="0.91 r13725"
   xml:space="preserve"
   width="40"
   height="40"
   viewBox="0 0 187.5 187.5"
   sodipodi:docname="stat-bat.svg"><metadata
     id="metadata8"><rdf:RDF><cc:Work
         rdf:about=""><dc:format>image/svg+xml</dc:format><dc:type
           rdf:resource="http://purl.org/dc/dcmitype/StillImage" /><dc:title></dc:title></cc:Work></rdf:RDF></metadata><defs
     id="defs6"><clipPath
       clipPathUnits="userSpaceOnUse"
       id="clipPath16"><path
         d="M 0,150 150,150 150,0 0,0 0,150 Z"
         id="path18"
         inkscape:connector-curvature="0" /></clipPath></defs><sodipodi:namedview
     pagecolor="#ffffff"
     bordercolor="#666666"
     borderopacity="1"
     objecttolerance="10"
     gridtolerance="10"
     guidetolerance="10"
     inkscape:pageopacity="0"
     inkscape:pageshadow="2"
     inkscape:window-width="657"
     inkscape:window-height="480"
     id="namedview4"
     showgrid="false"
     inkscape:zoom="1.2586667"
     inkscape:cx="122.92188"
     inkscape:cy="71.011551"
     inkscape:window-x="0"
     inkscape:window-y="400"
     inkscape:window-maximized="0"
     inkscape:current-layer="g10" /><g
     id="g10"
     inkscape:groupmode="layer"
     inkscape:label="bat"
     transform="matrix(1.25,0,0,-1.25,0,187.5)"><g
       id="g12"><g
         id="g14"
         clip-path="url(#clipPath16)"><g
           id="g20"
           transform="translate(59.5078,44.626)"><path
             d="m 0,0 c -1.717,5.787 -3.871,11.336 -8.051,15.88 -4.065,4.425 -8.99,6.846 -15.071,6.708 -0.132,0 -0.264,0.016 -0.497,0.031 -0.06,0.551 -0.119,1.105 -0.173,1.658 -0.512,5.617 -2.893,10.185 -7.634,13.372 -3.25,2.187 -6.945,3.071 -10.791,3.39 -0.694,0.06 -1.046,0.291 -1.338,0.907 -0.591,1.242 -1.339,2.39 -2.317,3.379 -2.349,2.375 -5.157,3.234 -8.43,2.573 -0.261,-0.054 -0.523,-0.101 -0.783,-0.149 -0.017,-0.001 -0.04,0.039 -0.112,0.106 2.265,1.611 4.658,2.989 7.144,4.191 4.895,2.37 10.09,3.757 15.446,4.567 0.409,0.061 0.789,0.018 1.181,-0.124 8.801,-3.223 16.965,-7.58 24.168,-13.642 0.612,-0.514 1.018,-1.087 1.306,-1.834 1.338,-3.461 3.238,-6.535 6.292,-8.761 1.044,-0.762 2.144,-1.46 3.532,-1.756 0.31,1.166 0.664,2.254 1.844,2.782 -0.662,2.013 0.912,4.5 1.866,6.328 2.29,-1.113 3.983,-3.157 4.869,-5.586 1.487,0.098 1.887,0.317 3.223,-0.658 0.386,0.206 0.397,0.612 0.551,0.922 0.865,1.751 2.261,2.86 4.089,3.481 0.379,0.127 0.615,0.066 0.843,-0.271 1.359,-1.988 2.149,-4.041 0.745,-6.341 -0.225,-0.368 -0.183,-0.665 10e-4,-1.022 0.403,-0.771 0.782,-1.555 1.149,-2.345 0.156,-0.336 0.336,-0.527 0.755,-0.502 4.298,0.268 8.433,1.088 12.067,3.589 1.22,0.84 2.278,1.858 3.151,3.057 0.232,0.318 0.451,0.537 0.857,0.605 7.62,1.288 15.239,2.614 23.005,2.643 6.755,0.027 6.767,0.02 12.157,-4.042 3.473,-2.62 6.85,-5.354 9.412,-8.938 0.595,-0.829 1.205,-1.651 1.727,-2.81 -1.111,0.505 -1.982,1.006 -2.919,1.307 -4.627,1.499 -8.723,0.114 -11.788,-3.882 -0.463,-0.604 -0.709,-1.596 -1.397,-1.742 -0.66,-0.139 -1.451,0.351 -2.185,0.565 C 62.212,19.265 56.563,19.498 50.96,17.296 46.261,15.448 42.805,12.147 40.119,7.971 39.776,7.435 39.509,7.274 38.851,7.438 34.228,8.577 29.597,8.797 24.994,7.3 20.432,5.813 10.809,-1.129 10.503,-1.01 8.476,-0.233 6.911,1.251 4.729,1.063 4.125,1.018 0,0 0,0"
             style="fill:#777777;fill-opacity:1;fill-rule:evenodd;stroke:none"
             id="path22"
             inkscape:connector-curvature="0" /></g></g></g></g></svg>
