<?xml version="1.0" encoding="UTF-8" standalone="no"?>
<!-- Created with Inkscape (http://www.inkscape.org/) -->

<svg
   xmlns:dc="http://purl.org/dc/elements/1.1/"
   xmlns:cc="http://creativecommons.org/ns#"
   xmlns:rdf="http://www.w3.org/1999/02/22-rdf-syntax-ns#"
   xmlns:svg="http://www.w3.org/2000/svg"
   xmlns="http://www.w3.org/2000/svg"
   xmlns:sodipodi="http://sodipodi.sourceforge.net/DTD/sodipodi-0.dtd"
   xmlns:inkscape="http://www.inkscape.org/namespaces/inkscape"
   id="svg2"
   version="1.1"
   inkscape:version="0.91 r13725"
   xml:space="preserve"
   width="40"
   height="40"
   viewBox="0 0 187.5 187.5"
   sodipodi:docname="stat-foot_print.svg"><metadata
     id="metadata8"><rdf:RDF><cc:Work
         rdf:about=""><dc:format>image/svg+xml</dc:format><dc:type
           rdf:resource="http://purl.org/dc/dcmitype/StillImage" /><dc:title></dc:title></cc:Work></rdf:RDF></metadata><defs
     id="defs6"><clipPath
       clipPathUnits="userSpaceOnUse"
       id="clipPath16"><path
         d="M 0,150 150,150 150,0 0,0 0,150 Z"
         id="path18"
         inkscape:connector-curvature="0" /></clipPath></defs><sodipodi:namedview
     pagecolor="#ffffff"
     bordercolor="#666666"
     borderopacity="1"
     objecttolerance="10"
     gridtolerance="10"
     guidetolerance="10"
     inkscape:pageopacity="0"
     inkscape:pageshadow="2"
     inkscape:window-width="640"
     inkscape:window-height="480"
     id="namedview4"
     showgrid="false"
     inkscape:zoom="1.2586667"
     inkscape:cx="93.75"
     inkscape:cy="93.75"
     inkscape:window-x="0"
     inkscape:window-y="400"
     inkscape:window-maximized="0"
     inkscape:current-layer="g10" /><g
     id="g10"
     inkscape:groupmode="layer"
     inkscape:label="foot print"
     transform="matrix(1.25,0,0,-1.25,0,187.5)"><g
       id="g12"><g
         id="g14"
         clip-path="url(#clipPath16)"><g
           id="g20"
           transform="translate(90.8945,138.5479)"><path
             d="m 0,0 c 8.144,-1.993 13.143,-9.681 14.995,-17.653 1.121,-4.824 1.429,-10.055 1.292,-14.998 -0.427,-15.416 -5.681,-29.641 -12.454,-43.319 -1.646,-3.325 -2.604,-3.54 -5.951,-2.072 -9.082,3.981 -18.376,7.186 -28.387,7.771 -2.325,0.133 -3.949,1.041 -4.328,3.588 -2.951,19.878 -0.269,38.622 11.244,55.552 4.82,7.089 12.933,12.652 21.784,11.47 C -1.187,0.257 -0.586,0.143 0,0"
             style="fill:#777777;fill-opacity:1;fill-rule:evenodd;stroke:none"
             id="path22"
             inkscape:connector-curvature="0" /></g><g
           id="g24"
           transform="translate(54.9795,11.6289)"><path
             d="m 0,0 c -7.413,2.171 -13.301,8.745 -11.988,18.505 1.053,7.83 4.14,14.939 7.664,21.924 0.859,1.703 1.803,1.747 3.285,1.153 6.657,-2.674 13.327,-5.311 19.99,-7.968 3.37,-1.345 6.735,-2.707 10.566,-4.248 C 28.566,26.216 27.801,22.953 26.598,19.86 25.067,15.934 23.483,11.968 21.385,8.33 16.662,0.141 7.542,-2.208 0,0"
             style="fill:#777777;fill-opacity:1;fill-rule:evenodd;stroke:none"
             id="path26"
             inkscape:connector-curvature="0" /></g></g></g></g></svg>
