<?xml version="1.0" encoding="UTF-8" standalone="no"?>
<!-- Created with Inkscape (http://www.inkscape.org/) -->

<svg
   xmlns:dc="http://purl.org/dc/elements/1.1/"
   xmlns:cc="http://creativecommons.org/ns#"
   xmlns:rdf="http://www.w3.org/1999/02/22-rdf-syntax-ns#"
   xmlns:svg="http://www.w3.org/2000/svg"
   xmlns="http://www.w3.org/2000/svg"
   xmlns:sodipodi="http://sodipodi.sourceforge.net/DTD/sodipodi-0.dtd"
   xmlns:inkscape="http://www.inkscape.org/namespaces/inkscape"
   id="svg2"
   version="1.1"
   inkscape:version="0.91 r13725"
   xml:space="preserve"
   width="40"
   height="40"
   viewBox="0 0 187.5 187.5"
   sodipodi:docname="stat-children.svg"><metadata
     id="metadata8"><rdf:RDF><cc:Work
         rdf:about=""><dc:format>image/svg+xml</dc:format><dc:type
           rdf:resource="http://purl.org/dc/dcmitype/StillImage" /><dc:title></dc:title></cc:Work></rdf:RDF></metadata><defs
     id="defs6"><clipPath
       clipPathUnits="userSpaceOnUse"
       id="clipPath16"><path
         d="M 0,150 150,150 150,0 0,0 0,150 Z"
         id="path18"
         inkscape:connector-curvature="0" /></clipPath></defs><sodipodi:namedview
     pagecolor="#ffffff"
     bordercolor="#666666"
     borderopacity="1"
     objecttolerance="10"
     gridtolerance="10"
     guidetolerance="10"
     inkscape:pageopacity="0"
     inkscape:pageshadow="2"
     inkscape:window-width="640"
     inkscape:window-height="480"
     id="namedview4"
     showgrid="false"
     inkscape:zoom="1.2586667"
     inkscape:cx="93.75"
     inkscape:cy="93.75"
     inkscape:window-x="0"
     inkscape:window-y="400"
     inkscape:window-maximized="0"
     inkscape:current-layer="g10" /><g
     id="g10"
     inkscape:groupmode="layer"
     inkscape:label="family activity"
     transform="matrix(1.25,0,0,-1.25,0,187.5)"><g
       id="g12"><g
         id="g14"
         clip-path="url(#clipPath16)"><g
           id="g20"
           transform="translate(142.1152,68.4248)"><path
             d="m 0,0 c -0.991,-0.008 -2.199,-0.438 -3.207,-0.446 -2.454,-0.027 -3.735,1.771 -4.593,3.863 -2.145,5.251 -7.554,6.978 -12.666,4.47 -2.741,-1.348 -5.4,-2.865 -8.303,-4.416 -1.017,2.806 -1.847,5.114 -2.686,7.416 -1.864,5.078 -3.599,10.209 -5.634,15.225 -1.452,3.6 -4.642,4.927 -8.29,5.228 -2.062,0.162 -4.159,-0.118 -4.864,-2.426 -2.245,-7.355 -5.836,-14.541 -5.817,-22.268 0.027,-9.362 -0.758,-18.284 -5.371,-26.624 -1.167,-2.11 -1.574,-4.713 1.224,-5.911 2.638,-1.125 4.258,0.536 5.302,2.967 2.711,6.285 6.77,12.036 7.323,19.253 2.591,-6.048 4.845,-12.015 6.967,-18.028 0.93,-2.632 1.928,-5.428 5.352,-4.245 3.526,1.215 2.252,4.261 1.521,6.725 -2.444,8.169 -4.928,16.332 -7.54,24.452 -0.872,2.718 -1.148,5.213 0.9,8.254 1.212,-2.602 2.231,-4.802 3.255,-7.001 4.403,-9.429 4.403,-9.423 13.769,-5.507 0.441,0.185 0.914,0.279 2.157,0.646 -1.506,-4.669 -2.535,-8.62 -2.333,-12.752 0.232,-4.753 -3.343,-7.687 -5.337,-11.37 -0.686,-1.26 -0.964,-2.566 0.523,-3.431 1.349,-0.777 2.603,-0.338 3.456,0.877 2.467,3.545 5.974,6.444 6.904,11.984 1.894,-4.246 3.446,-7.65 4.932,-11.074 0.671,-1.527 1.655,-2.61 3.396,-1.971 1.872,0.691 1.56,2.25 1.034,3.725 -1.468,4.175 -2.79,8.419 -4.51,12.491 -1.348,3.222 -0.9,5.846 1.521,8.664 -0.515,-0.599 2.371,-2.675 2.756,-2.868 1.278,-0.634 2.699,-0.684 4.064,-1.013 2.488,-0.607 6.724,0.612 6.724,2.756 C 1.929,-1.241 1.032,0 0,0"
             style="fill:#777777;fill-opacity:1;fill-rule:evenodd;stroke:none"
             id="path22"
             inkscape:connector-curvature="0" /></g><g
           id="g24"
           transform="translate(89.1924,105.231)"><path
             d="m 0,0 c 4.932,-0.263 6.358,-2.249 5.237,-6.272 -1.867,-6.719 -3.876,-13.405 -5.714,-20.132 -0.808,-2.954 -2.031,-4.778 -5.507,-3.941 -5.49,1.325 -8.366,3.785 -7.49,7.474 1.304,5.487 2.682,11.049 4.89,16.191 C -6.957,-2.885 -2.508,-1.898 0,0"
             style="fill:#777777;fill-opacity:1;fill-rule:evenodd;stroke:none"
             id="path26"
             inkscape:connector-curvature="0" /></g><g
           id="g28"
           transform="translate(105.0762,107.8091)"><path
             d="m 0,0 c 0.057,-2.723 -2.562,-5.352 -5.286,-5.305 -2.718,0.041 -4.952,2.328 -4.997,5.115 -0.047,2.906 1.943,5.046 4.809,5.161 C -2.516,5.095 -0.054,2.859 0,0"
             style="fill:#777777;fill-opacity:1;fill-rule:evenodd;stroke:none"
             id="path30"
             inkscape:connector-curvature="0" /></g><g
           id="g32"
           transform="translate(134.3691,82.7612)"><path
             d="m 0,0 c -0.236,-2.193 -1.471,-3.583 -3.94,-3.595 -2.525,-0.012 -3.897,1.584 -3.931,3.837 -0.041,2.496 1.62,4.141 4.147,4.019 C -1.444,4.152 -0.026,2.675 0,0"
             style="fill:#777777;fill-opacity:1;fill-rule:evenodd;stroke:none"
             id="path34"
             inkscape:connector-curvature="0" /></g><g
           id="g36"
           transform="translate(58.4727,96.0239)"><path
             d="m 0,0 c -2.946,-0.008 -5.226,2.287 -5.225,5.25 0.005,2.884 2.288,5.142 5.183,5.185 C 2.724,10.476 5.202,8.281 5.22,5.21 5.242,2.313 2.899,0.003 0,0"
             style="fill:#777777;fill-opacity:1;fill-rule:evenodd;stroke:none"
             id="path38"
             inkscape:connector-curvature="0" /></g><g
           id="g40"
           transform="translate(17.6387,74.6094)"><path
             d="m 0,0 c -2.321,0.005 -4.105,1.848 -4.105,4.226 0,2.171 1.927,4.081 4.173,4.066 C 2.345,8.273 4.244,6.379 4.225,4.13 4.204,1.811 2.349,-0.007 0,0"
             style="fill:#777777;fill-opacity:1;fill-rule:evenodd;stroke:none"
             id="path42"
             inkscape:connector-curvature="0" /></g><g
           id="g44"
           transform="translate(70.4951,78.7822)"><path
             d="m 0,0 c -2.945,1.105 -5.895,2.195 -8.847,3.279 -0.41,0.151 -0.671,0.355 -0.846,0.789 -1.06,2.701 -2.16,5.388 -3.252,8.073 -0.484,1.193 -1.073,2.326 -2.014,3.225 -1.958,1.871 -4.868,2.272 -7.487,1.05 -1.193,-0.559 -2.263,-1.328 -3.377,-2.026 -2.765,-1.738 -5.527,-3.484 -8.291,-5.222 -0.644,-0.408 -1.074,-0.974 -1.305,-1.704 -0.968,-3.069 -1.945,-6.134 -2.93,-9.199 -0.081,-0.256 -0.091,-0.555 -0.328,-0.752 -0.618,0.052 -1.191,-0.059 -1.763,-0.291 -4.345,-1.764 -13.049,-4.524 -13.607,-4.535 -0.26,-0.009 -0.52,0.074 -0.784,0.074 -2.728,0.01 -4.836,-1.191 -6.416,-3.358 -1.097,-1.514 -1.747,-3.267 -2.624,-4.9 -0.959,-1.786 -0.37,-3.382 1.594,-4.059 1.069,-0.368 2.167,-0.567 3.251,-0.798 0.078,-0.181 -0.029,-0.311 -0.081,-0.444 -1.067,-2.72 -2.14,-5.436 -3.211,-8.154 -0.674,-1.703 -1.362,-3.402 -2.014,-5.117 -0.653,-1.718 0.281,-3.354 2.08,-3.698 1.317,-0.251 2.83,0.678 3.381,2.079 0.988,2.51 1.968,5.023 2.964,7.53 0.051,0.133 0.025,0.351 0.27,0.386 1.288,-2.731 2.581,-5.457 3.858,-8.189 0.477,-1.022 1.275,-1.572 2.377,-1.606 2.362,-0.079 3.993,2.427 2.983,4.504 -1.483,3.048 -2.894,6.133 -4.347,9.2 -0.145,0.303 -0.188,0.566 -0.063,0.894 1.464,3.908 2.918,7.823 4.357,11.74 0.136,0.371 0.343,0.576 0.699,0.732 2.404,1.051 4.801,2.115 7.201,3.182 0.538,0.238 1.057,0.516 1.373,1.035 0.162,0.264 0.35,0.225 0.572,0.163 0.48,-0.134 0.962,-0.134 1.444,-0.009 1.129,0.299 1.656,1.159 2.011,2.171 0.957,2.738 1.904,5.483 2.861,8.222 0.051,0.154 0.106,0.358 0.227,0.431 0.865,0.555 1.745,1.085 2.631,1.629 0.117,-0.187 0.04,-0.285 0.004,-0.386 -0.789,-2.181 -1.593,-4.358 -2.351,-6.553 -0.447,-1.295 -0.615,-2.567 -0.412,-3.791 l -8.697,-14.675 5.182,-0.236 c -0.405,-1.005 -0.81,-2.009 -1.221,-3.008 -1.448,-3.517 -2.906,-7.026 -4.355,-10.54 -0.166,-0.401 -0.266,-0.82 -0.274,-1.256 -0.034,-1.702 1.202,-3.231 2.871,-3.555 1.693,-0.328 3.313,0.599 3.999,2.301 2.122,5.237 4.241,10.478 6.36,15.72 l 7.338,-0.336 c 0.035,-0.113 0.066,-0.224 0.08,-0.351 0.152,-1.417 0.31,-2.836 0.478,-4.252 0.398,-3.352 0.818,-6.703 1.204,-10.056 0.202,-1.736 1.655,-3.114 3.407,-3.148 1.991,-0.041 3.866,1.595 3.594,4.031 -0.261,2.327 -0.546,4.655 -0.817,6.983 -0.256,2.156 -0.518,4.311 -0.761,6.465 l 3.893,-0.175 -10.671,13.631 c 1.039,2.528 2.052,5.062 3.1,7.583 0.157,0.38 0.234,0.817 0.571,1.205 0.17,-0.418 0.319,-0.775 0.459,-1.131 0.357,-0.908 0.922,-1.642 1.86,-1.993 3.593,-1.346 7.19,-2.677 10.794,-4 1.362,-0.5 2.813,0.135 3.43,1.455 C 2.317,-2.237 1.635,-0.613 0,0"
             style="fill:#777777;fill-opacity:1;fill-rule:evenodd;stroke:none"
             id="path46"
             inkscape:connector-curvature="0" /></g></g></g></g></svg>
