<?xml version="1.0" encoding="UTF-8" standalone="no"?>
<!-- Created with Inkscape (http://www.inkscape.org/) -->

<svg
   xmlns:dc="http://purl.org/dc/elements/1.1/"
   xmlns:cc="http://creativecommons.org/ns#"
   xmlns:rdf="http://www.w3.org/1999/02/22-rdf-syntax-ns#"
   xmlns:svg="http://www.w3.org/2000/svg"
   xmlns="http://www.w3.org/2000/svg"
   xmlns:sodipodi="http://sodipodi.sourceforge.net/DTD/sodipodi-0.dtd"
   xmlns:inkscape="http://www.inkscape.org/namespaces/inkscape"
   id="svg2"
   version="1.1"
   inkscape:version="0.91 r13725"
   xml:space="preserve"
   width="40"
   height="40"
   viewBox="0 0 187.5 187.5"
   sodipodi:docname="stat-toilets.svg"><metadata
     id="metadata8"><rdf:RDF><cc:Work
         rdf:about=""><dc:format>image/svg+xml</dc:format><dc:type
           rdf:resource="http://purl.org/dc/dcmitype/StillImage" /><dc:title></dc:title></cc:Work></rdf:RDF></metadata><defs
     id="defs6"><clipPath
       clipPathUnits="userSpaceOnUse"
       id="clipPath16"><path
         d="M 0,150 150,150 150,0 0,0 0,150 Z"
         id="path18"
         inkscape:connector-curvature="0" /></clipPath></defs><sodipodi:namedview
     pagecolor="#ffffff"
     bordercolor="#666666"
     borderopacity="1"
     objecttolerance="10"
     gridtolerance="10"
     guidetolerance="10"
     inkscape:pageopacity="0"
     inkscape:pageshadow="2"
     inkscape:window-width="640"
     inkscape:window-height="480"
     id="namedview4"
     showgrid="false"
     inkscape:zoom="1.2586667"
     inkscape:cx="93.75"
     inkscape:cy="93.75"
     inkscape:window-x="0"
     inkscape:window-y="400"
     inkscape:window-maximized="0"
     inkscape:current-layer="g10" /><g
     id="g10"
     inkscape:groupmode="layer"
     inkscape:label="toilets"
     transform="matrix(1.25,0,0,-1.25,0,187.5)"><g
       id="g12"><g
         id="g14"
         clip-path="url(#clipPath16)"><g
           id="g20"
           transform="translate(115.8555,48.0371)"><path
             d="m 0,0 c -0.112,-0.072 -0.079,-0.197 -0.108,-0.299 -0.438,-1.523 -1.777,-2.387 -3.396,-2.178 -1.392,0.18 -2.407,1.372 -2.442,2.899 -0.02,0.814 -0.008,1.629 -0.008,2.443 l 0,16.729 0,0.521 -1.414,0 c -0.093,-0.199 -0.05,-0.408 -0.05,-0.613 -0.003,-17.625 -0.003,-35.252 0,-52.877 0,-0.805 -0.043,-1.604 -0.385,-2.348 -0.683,-1.509 -2.204,-2.343 -3.999,-2.199 -1.642,0.127 -3.072,1.307 -3.517,2.889 -0.151,0.535 -0.178,1.084 -0.178,1.637 0.007,10.16 0.003,20.316 0,30.478 0,0.174 0.04,0.354 -0.046,0.545 -0.378,0.055 -0.757,0.029 -1.137,0.014 -0.127,-0.192 -0.07,-0.387 -0.07,-0.573 -0.002,-10.173 -0.002,-20.345 -0.002,-30.517 0,-1.221 -0.212,-2.377 -1.118,-3.274 -1.225,-1.215 -2.697,-1.527 -4.302,-0.959 -1.556,0.557 -2.301,1.76 -2.432,3.373 -0.03,0.348 -0.034,0.694 -0.034,1.036 l 0,52.755 0,0.637 -1.409,0 c -0.104,-0.152 -0.048,-0.338 -0.048,-0.51 -0.007,-6.238 -0.007,-12.478 -0.004,-18.718 0.004,-0.598 -0.068,-1.182 -0.328,-1.729 -0.562,-1.203 -1.955,-1.881 -3.277,-1.598 -1.399,0.297 -2.333,1.368 -2.342,2.762 -0.017,4.264 -0.012,8.531 -0.012,12.797 0,3.092 -0.069,6.186 0.031,9.273 0.117,3.745 2.727,7.442 6.644,8.365 0.745,0.175 1.495,0.239 2.255,0.239 4.652,0.002 9.305,-0.02 13.954,0.007 5.13,0.027 8.541,-3.941 9.095,-8.038 C -0.067,22.875 -0.026,22.787 0,22.695 L 0,0 Z"
             style="fill:#777777;fill-opacity:1;fill-rule:evenodd;stroke:none"
             id="path22"
             inkscape:connector-curvature="0" /></g><g
           id="g24"
           transform="translate(100.6172,94.7505)"><path
             d="m 0,0 c 0.755,-0.191 1.524,-0.337 2.231,-0.689 2.798,-1.381 4.132,-4.273 3.856,-6.924 -0.307,-2.952 -2.506,-5.56 -5.747,-6.113 -4.389,-0.744 -8.337,2.866 -8.027,7.317 0.221,3.209 2.696,5.87 5.884,6.33 0.079,0.013 0.154,0.052 0.231,0.079 L 0,0 Z"
             style="fill:#777777;fill-opacity:1;fill-rule:evenodd;stroke:none"
             id="path26"
             inkscape:connector-curvature="0" /></g><g
           id="g28"
           transform="translate(28.6172,52.252)"><path
             d="m 0,0 c 0.554,1.842 1.105,3.682 1.66,5.523 1.468,4.889 2.874,9.799 4.431,14.661 1.11,3.463 3.521,5.648 7.113,6.448 0.442,0.099 0.9,0.134 1.356,0.134 3.23,0 6.46,0.028 9.689,-0.008 2.546,-0.029 4.599,-1.17 6.321,-2.988 1.416,-1.497 2.151,-3.319 2.722,-5.266 1.724,-5.875 3.513,-11.731 5.278,-17.594 0.239,-0.791 0.365,-1.588 0.115,-2.4 -0.382,-1.229 -1.211,-1.973 -2.486,-2.114 -1.168,-0.126 -2.042,0.42 -2.662,1.401 -0.384,0.603 -0.532,1.297 -0.727,1.969 -1.639,5.627 -3.271,11.257 -4.907,16.886 -0.03,0.102 -0.07,0.203 -0.11,0.315 l -1.668,0 c 3.114,-10.688 6.22,-21.344 9.334,-32.035 l -8.642,0 c -0.116,-0.19 -0.066,-0.371 -0.066,-0.543 -0.002,-7.825 -0.001,-15.651 -0.002,-23.477 -0.002,-1.328 -0.533,-2.35 -1.765,-2.937 -0.255,-0.123 -0.532,-0.202 -0.799,-0.299 l -1.242,0 c -0.202,0.152 -0.459,0.148 -0.682,0.252 -1.263,0.574 -1.881,1.57 -1.881,2.945 -0.006,7.834 -0.004,15.668 -0.006,23.504 0,0.174 0.043,0.353 -0.043,0.521 l -1.864,0 0,-0.523 0,-20.32 c 0,-1.09 0.013,-2.18 -0.008,-3.272 -0.025,-1.478 -0.983,-2.656 -2.42,-3.017 -0.078,-0.02 -0.167,-0.01 -0.22,-0.09 l -1.241,0 c -0.297,0.101 -0.606,0.181 -0.887,0.316 -1.344,0.649 -1.831,1.787 -1.831,3.211 0.002,7.729 0.002,15.457 -0.002,23.19 0,0.169 0.056,0.355 -0.083,0.552 l -8.395,0 c 3.046,10.7 6.079,21.35 9.119,32.026 l -1.455,0 C 11.003,16.85 10.962,16.734 10.928,16.621 9.214,10.727 7.502,4.834 5.788,-1.059 5.656,-1.512 5.473,-1.943 5.192,-2.324 4.475,-3.305 3.503,-3.754 2.31,-3.523 1.12,-3.293 0.373,-2.533 0.083,-1.344 0.066,-1.281 0.028,-1.221 0,-1.162 L 0,0 Z"
             style="fill:#777777;fill-opacity:1;fill-rule:evenodd;stroke:none"
             id="path30"
             inkscape:connector-curvature="0" /></g><g
           id="g32"
           transform="translate(48.8271,94.7407)"><path
             d="m 0,0 c 0.631,-0.179 1.281,-0.278 1.893,-0.539 2.83,-1.204 4.461,-4.064 4.202,-6.954 -0.292,-3.229 -2.667,-5.713 -5.76,-6.236 -4.408,-0.741 -8.367,2.906 -8.022,7.361 0.247,3.202 2.706,5.829 5.883,6.289 0.079,0.01 0.153,0.052 0.229,0.079 L 0,0 Z"
             style="fill:#777777;fill-opacity:1;fill-rule:evenodd;stroke:none"
             id="path34"
             inkscape:connector-curvature="0" /></g><text
           transform="matrix(1,0,0,-1,11.9258,105.9844)"
           style="font-variant:normal;font-weight:bold;font-stretch:normal;font-size:45.14960098px;font-family:Adelle;-inkscape-font-specification:Adelle-Bold;writing-mode:lr-tb;fill:#231f20;fill-opacity:1;fill-rule:nonzero;stroke:none"
           id="text36"><tspan
             x="0 28.263649 54.360119 68.627396 82.894669 106.46275"
             y="0"
             sodipodi:role="line"
             id="tspan38">Toilet</tspan></text>
</g></g></g></svg>
