<?xml version="1.0" encoding="UTF-8" standalone="no"?>
<svg
   xmlns:dc="http://purl.org/dc/elements/1.1/"
   xmlns:cc="http://creativecommons.org/ns#"
   xmlns:rdf="http://www.w3.org/1999/02/22-rdf-syntax-ns#"
   xmlns:svg="http://www.w3.org/2000/svg"
   xmlns="http://www.w3.org/2000/svg"
   xmlns:sodipodi="http://sodipodi.sourceforge.net/DTD/sodipodi-0.dtd"
   xmlns:inkscape="http://www.inkscape.org/namespaces/inkscape"
   version="1.1"
   x="0px"
   y="0px"
   viewBox="0 0 100 125"
   enable-background="new 0 0 100 100"
   width="40"
   height="40"
   xml:space="preserve"
   id="svg40"
   sodipodi:docname="newspaper.svg"
   inkscape:version="0.92.1 r15371"><metadata
     id="metadata46"><rdf:RDF><cc:Work
         rdf:about=""><dc:format>image/svg+xml</dc:format><dc:type
           rdf:resource="http://purl.org/dc/dcmitype/StillImage" /></cc:Work></rdf:RDF></metadata><defs
     id="defs44" /><sodipodi:namedview
     pagecolor="#ffffff"
     bordercolor="#666666"
     borderopacity="1"
     objecttolerance="10"
     gridtolerance="10"
     guidetolerance="10"
     inkscape:pageopacity="0"
     inkscape:pageshadow="2"
     inkscape:window-width="732"
     inkscape:window-height="480"
     id="namedview42"
     showgrid="false"
     inkscape:zoom="1.888"
     inkscape:cx="50"
     inkscape:cy="62.5"
     inkscape:window-x="0"
     inkscape:window-y="0"
     inkscape:window-maximized="0"
     inkscape:current-layer="svg40" /><g
     id="g34"><path fill="#777777"
       d="M93.744,71.269c1.213,0,2.198-0.982,2.198-2.197s-0.985-2.198-2.198-2.198H7.803v-3.59h85.941c0.013,0,0.023,0,0.036,0   c1.212,0,2.196-0.983,2.196-2.198c0-0.229-0.034-0.453-0.102-0.661l-4.436-35.498C91.302,23.826,90.366,23,89.259,23H13.228   c-1.038,0-1.933,0.728-2.148,1.74L3.458,60.628c-0.06,0.278-0.053,0.556-0.007,0.827c-0.007,0.074-0.042,0.141-0.042,0.215v14.802   c0,1.216,0.984,2.198,2.197,2.198h88.139c1.213,0,2.198-0.982,2.198-2.198c0-1.215-0.985-2.197-2.198-2.197H7.803v-3.006H93.744z    M15.008,27.395h72.312l3.936,31.495H8.318L15.008,27.395z"
       id="path2" /><path fill="#777777"
       d="M74.025,41.118h10.496c1.142,0,1.988-0.93,1.882-2.067l-0.688-7.386c-0.105-1.137-1.124-2.068-2.267-2.068h-9.501   c-1.143,0-2.07,0.934-2.062,2.077l0.047,7.368C71.942,40.184,72.884,41.118,74.025,41.118z"
       id="path4" /><path fill="#777777"
       d="M25.612,43.142h-9.878c-1.143,0-2.227,0.921-2.412,2.048l-1.345,8.238c-0.182,1.128,0.6,2.049,1.742,2.049h10.495   c1.143,0,2.182-0.928,2.31-2.062l0.931-8.211C27.582,44.07,26.754,43.142,25.612,43.142z"
       id="path6" /><path fill="#777777"
       d="M15.327,31.739h54.76c0.404,0,0.732-0.328,0.732-0.733c0-0.404-0.328-0.732-0.732-0.732h-54.76   c-0.407,0-0.732,0.328-0.732,0.732C14.594,31.411,14.92,31.739,15.327,31.739z"
       id="path8" /><path fill="#777777"
       d="M14.966,34.552h55.121c0.404,0,0.732-0.327,0.732-0.732c0-0.405-0.328-0.732-0.732-0.732H14.966   c-0.403,0-0.733,0.327-0.733,0.732C14.233,34.225,14.562,34.552,14.966,34.552z"
       id="path10" /><path fill="#777777"
       d="M14.593,37.365h55.494c0.404,0,0.732-0.329,0.732-0.732c0-0.405-0.328-0.733-0.732-0.733H14.593   c-0.405,0-0.733,0.329-0.733,0.733C13.86,37.037,14.188,37.365,14.593,37.365z"
       id="path12" /><path fill="#777777"
       d="M14.068,40.177h56.256c0.403,0,0.732-0.328,0.732-0.732c0-0.405-0.329-0.732-0.732-0.732H14.068   c-0.403,0-0.732,0.327-0.732,0.732C13.336,39.85,13.666,40.177,14.068,40.177z"
       id="path14" /><path fill="#777777"
       d="M48.131,44.228H28.794c-0.406,0-0.732,0.328-0.732,0.732c0,0.405,0.326,0.733,0.732,0.733h19.337   c0.403,0,0.733-0.328,0.733-0.733C48.864,44.556,48.535,44.228,48.131,44.228z"
       id="path16" /><path fill="#777777"
       d="M48.131,46.958H28.666c-0.404,0-0.732,0.329-0.732,0.733c0,0.405,0.328,0.733,0.732,0.733h19.465   c0.403,0,0.733-0.329,0.733-0.733C48.864,47.286,48.535,46.958,48.131,46.958z"
       id="path18" /><path fill="#777777"
       d="M48.131,49.685H28.477c-0.404,0-0.732,0.329-0.732,0.733c0,0.403,0.328,0.731,0.732,0.731h19.655   c0.403,0,0.733-0.329,0.733-0.731C48.864,50.013,48.535,49.685,48.131,49.685z"
       id="path20" /><path fill="#777777"
       d="M48.131,52.414H28.156c-0.405,0-0.732,0.329-0.732,0.733c0,0.405,0.328,0.731,0.732,0.731h19.975   c0.403,0,0.733-0.326,0.733-0.731C48.864,52.743,48.535,52.414,48.131,52.414z"
       id="path22" /><path fill="#777777"
       d="M87.356,45.693c0.406,0,0.732-0.328,0.732-0.733c0-0.404-0.326-0.732-0.732-0.732H67.612c-0.405,0-0.732,0.328-0.732,0.732   c0,0.405,0.327,0.733,0.732,0.733H87.356z"
       id="path24" /><path fill="#777777"
       d="M67.84,46.958c-0.406,0-0.732,0.329-0.732,0.733c0,0.405,0.326,0.733,0.732,0.733h19.776c0.405,0,0.731-0.329,0.731-0.733   c0-0.404-0.326-0.733-0.731-0.733H67.84z"
       id="path26" /><path fill="#777777"
       d="M67.84,49.685c-0.406,0-0.732,0.329-0.732,0.733c0,0.403,0.326,0.731,0.732,0.731h20.285c0.405,0,0.733-0.329,0.733-0.731   c0-0.405-0.328-0.733-0.733-0.733H67.84z"
       id="path28" /><path fill="#777777"
       d="M88.607,52.414H67.84c-0.406,0-0.732,0.329-0.732,0.733c0,0.405,0.326,0.731,0.732,0.731h20.768   c0.403,0,0.732-0.326,0.732-0.731C89.34,52.743,89.011,52.414,88.607,52.414z"
       id="path30" /><path fill="#777777"
       d="M64.14,43.142H52.225c-1.143,0-2.121,0.934-2.171,2.074l-0.323,7.069c-0.05,1.141,0.839,2.075,1.982,2.075h12.868   c1.142,0,2.039-0.935,1.993-2.075l-0.276-7.069C66.253,44.076,65.282,43.142,64.14,43.142z"
       id="path32" /></g></svg>
