<?xml version="1.0" encoding="UTF-8" standalone="no"?>
<!-- Created with Inkscape (http://www.inkscape.org/) -->

<svg
   xmlns:dc="http://purl.org/dc/elements/1.1/"
   xmlns:cc="http://creativecommons.org/ns#"
   xmlns:rdf="http://www.w3.org/1999/02/22-rdf-syntax-ns#"
   xmlns:svg="http://www.w3.org/2000/svg"
   xmlns="http://www.w3.org/2000/svg"
   xmlns:sodipodi="http://sodipodi.sourceforge.net/DTD/sodipodi-0.dtd"
   xmlns:inkscape="http://www.inkscape.org/namespaces/inkscape"
   id="svg2"
   version="1.1"
   inkscape:version="0.91 r13725"
   xml:space="preserve"
   width="40"
   height="40"
   viewBox="0 0 187.5 187.5"
   sodipodi:docname="stat-wheelchair_access.svg"><metadata
     id="metadata8"><rdf:RDF><cc:Work
         rdf:about=""><dc:format>image/svg+xml</dc:format><dc:type
           rdf:resource="http://purl.org/dc/dcmitype/StillImage" /><dc:title></dc:title></cc:Work></rdf:RDF></metadata><defs
     id="defs6"><clipPath
       clipPathUnits="userSpaceOnUse"
       id="clipPath16"><path
         d="M 0,150 150,150 150,0 0,0 0,150 Z"
         id="path18"
         inkscape:connector-curvature="0" /></clipPath></defs><sodipodi:namedview
     pagecolor="#ffffff"
     bordercolor="#666666"
     borderopacity="1"
     objecttolerance="10"
     gridtolerance="10"
     guidetolerance="10"
     inkscape:pageopacity="0"
     inkscape:pageshadow="2"
     inkscape:window-width="640"
     inkscape:window-height="480"
     id="namedview4"
     showgrid="false"
     inkscape:zoom="1.2586667"
     inkscape:cx="93.75"
     inkscape:cy="93.75"
     inkscape:window-x="0"
     inkscape:window-y="400"
     inkscape:window-maximized="0"
     inkscape:current-layer="g10" /><g
     id="g10"
     inkscape:groupmode="layer"
     inkscape:label="wheelchair access"
     transform="matrix(1.25,0,0,-1.25,0,187.5)"><g
       id="g12"><g
         id="g14"
         clip-path="url(#clipPath16)"><g
           id="g20"
           transform="translate(51.7822,133.4307)"><path
             d="m 0,0 c 0,-6.969 5.65,-12.618 12.619,-12.618 6.969,0 12.619,5.649 12.619,12.618 0,6.97 -5.65,12.62 -12.619,12.62 C 5.65,12.62 0,6.97 0,0"
             style="fill:#777777;fill-opacity:1;fill-rule:nonzero;stroke:none"
             id="path22"
             inkscape:connector-curvature="0" /></g><g
           id="g24"
           transform="translate(138.1201,33.6543)"><path
             d="m 0,0 -23.958,38.858 -35.138,-0.351 -1.155,14.82 24.07,0 c 2.965,0 5.369,2.405 5.369,5.371 0,2.965 -2.404,5.369 -5.369,5.369 l -24.908,0 -0.849,10.877 c -0.461,5.913 -5.627,10.333 -11.541,9.871 -5.914,-0.461 -10.334,-5.629 -9.873,-11.542 l 3.171,-40.649 c 0.147,-1.89 0.784,-3.619 1.761,-5.093 1.141,-3.068 4.088,-5.252 7.542,-5.252 0.027,0 0.056,0 0.082,0.001 l 37.9,0.378 19.185,-31.112 c 1.522,-2.47 4.161,-3.829 6.862,-3.828 1.442,0 2.904,0.386 4.22,1.198 C 1.158,-8.748 2.335,-3.786 0,0"
             style="fill:#777777;fill-opacity:1;fill-rule:nonzero;stroke:none"
             id="path26"
             inkscape:connector-curvature="0" /></g><g
           id="g28"
           transform="translate(72.4053,6.7744)"><path
             d="m 0,0 c -25.845,0 -46.872,21.027 -46.872,46.871 0,14.61 6.632,28.124 18.197,37.08 1.076,0.833 2.201,1.629 3.344,2.364 0,0 3.609,-9.593 2.761,-10.25 -9.106,-7.051 -14.329,-17.693 -14.329,-29.194 0,-20.346 16.553,-36.897 36.899,-36.897 15.278,0 28.763,9.184 34.353,23.399 0,0 8.227,-6.166 7.624,-7.381 C 38.467,18.933 33.241,12.882 26.692,8.339 18.831,2.884 9.601,0 0,0"
             style="fill:#777777;fill-opacity:1;fill-rule:nonzero;stroke:none"
             id="path30"
             inkscape:connector-curvature="0" /></g></g></g></g></svg>
