<?xml version="1.0" encoding="UTF-8" standalone="no"?>
<!-- Created with Inkscape (http://www.inkscape.org/) -->

<svg
   xmlns:dc="http://purl.org/dc/elements/1.1/"
   xmlns:cc="http://creativecommons.org/ns#"
   xmlns:rdf="http://www.w3.org/1999/02/22-rdf-syntax-ns#"
   xmlns:svg="http://www.w3.org/2000/svg"
   xmlns="http://www.w3.org/2000/svg"
   xmlns:sodipodi="http://sodipodi.sourceforge.net/DTD/sodipodi-0.dtd"
   xmlns:inkscape="http://www.inkscape.org/namespaces/inkscape"
   id="svg2"
   version="1.1"
   inkscape:version="0.91 r13725"
   xml:space="preserve"
   width="40"
   height="40"
   viewBox="0 0 187.5 187.5"
   sodipodi:docname="stat-dog_on_a_lead.svg"><metadata
     id="metadata8"><rdf:RDF><cc:Work
         rdf:about=""><dc:format>image/svg+xml</dc:format><dc:type
           rdf:resource="http://purl.org/dc/dcmitype/StillImage" /><dc:title></dc:title></cc:Work></rdf:RDF></metadata><defs
     id="defs6"><clipPath
       clipPathUnits="userSpaceOnUse"
       id="clipPath16"><path
         d="M 0,150 150,150 150,0 0,0 0,150 Z"
         id="path18"
         inkscape:connector-curvature="0" /></clipPath></defs><sodipodi:namedview
     pagecolor="#ffffff"
     bordercolor="#666666"
     borderopacity="1"
     objecttolerance="10"
     gridtolerance="10"
     guidetolerance="10"
     inkscape:pageopacity="0"
     inkscape:pageshadow="2"
     inkscape:window-width="640"
     inkscape:window-height="480"
     id="namedview4"
     showgrid="false"
     inkscape:zoom="1.2586667"
     inkscape:cx="93.75"
     inkscape:cy="93.75"
     inkscape:window-x="0"
     inkscape:window-y="400"
     inkscape:window-maximized="0"
     inkscape:current-layer="g10" /><g
     id="g10"
     inkscape:groupmode="layer"
     inkscape:label="dog on a lead"
     transform="matrix(1.25,0,0,-1.25,0,187.5)"><g
       id="g12"><g
         id="g14"
         clip-path="url(#clipPath16)"><g
           id="g20"
           transform="translate(51.6792,37.1953)"><path
             d="m 0,0 c -0.286,-3.679 -0.491,-7.367 -0.886,-11.034 -0.337,-3.106 -0.646,-6.251 -1.417,-9.265 -0.963,-3.782 -7.229,-5.624 -10.372,-3.271 -1.371,1.028 -0.517,4.949 1.842,5.586 4.083,1.102 3.511,3.899 3.484,6.755 -0.077,8.378 -1.102,16.469 -4.171,24.469 -2.502,6.524 -3.407,13.659 -4.967,20.303 -2.616,0.561 -6.214,0.311 -7.908,1.988 -1.652,1.637 -1.358,5.24 -2.034,8.548 -0.79,-0.079 -2.378,-0.205 -3.959,-0.396 -7.375,-0.897 -14.175,4.51 -14.671,11.955 -0.071,1.078 1.016,2.65 2.017,3.287 1.542,0.985 3.46,1.392 5.24,1.983 2.707,0.898 4.383,2.523 5.638,5.283 2.091,4.594 6.553,6.239 11.289,6.649 7.421,0.643 12.988,-2.386 17.164,-8.663 3.979,-5.979 8.492,-11.605 12.793,-17.369 1.204,-1.613 2.733,-2.212 4.866,-2.128 1.9,0.074 3.829,-0.705 5.755,-1.068 4.879,-0.915 9.732,-2.289 14.652,-2.602 8.422,-0.534 16.891,-0.378 25.338,-0.559 2.403,-0.052 3.916,0.905 4.685,3.247 1.717,5.22 1.374,10.209 -1.071,15.164 -1.471,2.974 -2.827,6.057 -3.765,9.229 -1.087,3.676 0.704,7.136 3.75,8.321 1.954,0.762 3.768,0.357 4.537,-1.509 2.717,-6.591 5.723,-13.134 7.629,-19.972 1.789,-6.426 -0.307,-12.831 -2.764,-18.876 -1.069,-2.632 -0.617,-4.743 0.228,-7.395 2.073,-6.496 3.524,-13.208 4.974,-19.887 1.232,-5.683 1.697,-11.587 6.298,-15.946 0.62,-0.586 1.025,-1.654 1.087,-2.528 0.402,-5.623 0.739,-11.25 0.972,-16.879 0.09,-2.149 -0.221,-4.421 -2.81,-4.966 -2.734,-0.577 -5.564,-0.332 -7.533,1.895 -1.661,1.879 -0.431,3.703 1.24,4.727 1.906,1.169 1.957,2.42 1.606,4.424 -0.692,3.969 -2.313,7.243 -5.306,9.967 -3.073,2.795 -5.952,5.8 -9.611,9.395 0.438,-1.971 0.322,-3.507 1.036,-4.297 3.059,-3.396 2.652,-7.183 1.84,-11.154 -0.392,-1.93 -0.461,-3.926 -0.795,-5.871 -0.669,-3.871 -3.295,-5.52 -7.062,-4.204 -1.091,0.383 -2.379,1.54 -2.627,2.57 -0.187,0.779 0.924,2.311 1.836,2.818 1.791,0.993 2.492,2.147 2.412,4.216 C 60.064,-6.557 50.491,5.07 40.22,7.285 39.256,7.49 38.181,7.456 37.204,7.278 30.235,6.018 23.304,4.53 16.309,3.46 12.907,2.939 11.607,1.152 11.576,-1.96 c -0.06,-6.031 0.45,-12.123 -0.26,-18.07 -0.477,-3.986 -2.336,-7.931 -4.187,-11.584 -1.11,-2.189 -7.926,-2.251 -9.549,-0.297 -1.748,2.105 -0.106,4.326 1.515,4.847 4.582,1.466 4.078,4.927 3.977,8.303 C 2.88,-12.438 2.91,-6.069 0,0"
             style="fill:#777777;fill-opacity:1;fill-rule:evenodd;stroke:none"
             id="path22"
             inkscape:connector-curvature="0" /></g><g
           id="g24"
           transform="translate(35.1919,70.7383)"><path
             d="M 0,0 104.896,75.385"
             style="fill:none;stroke:#777777;stroke-width:2.43700004;stroke-linecap:butt;stroke-linejoin:miter;stroke-miterlimit:10;stroke-dasharray:none;stroke-opacity:1"
             id="path26"
             inkscape:connector-curvature="0" /></g></g></g></g></svg>
