<?xml version="1.0" encoding="UTF-8" standalone="no"?>
<!-- Created with Inkscape (http://www.inkscape.org/) -->

<svg
   xmlns:dc="http://purl.org/dc/elements/1.1/"
   xmlns:cc="http://creativecommons.org/ns#"
   xmlns:rdf="http://www.w3.org/1999/02/22-rdf-syntax-ns#"
   xmlns:svg="http://www.w3.org/2000/svg"
   xmlns="http://www.w3.org/2000/svg"
   xmlns:sodipodi="http://sodipodi.sourceforge.net/DTD/sodipodi-0.dtd"
   xmlns:inkscape="http://www.inkscape.org/namespaces/inkscape"
   id="svg2"
   version="1.1"
   inkscape:version="0.91 r13725"
   xml:space="preserve"
   width="40"
   height="40"
   viewBox="0 0 187.5 187.5"
   sodipodi:docname="stat-hectares.svg"><metadata
     id="metadata8"><rdf:RDF><cc:Work
         rdf:about=""><dc:format>image/svg+xml</dc:format><dc:type
           rdf:resource="http://purl.org/dc/dcmitype/StillImage" /><dc:title></dc:title></cc:Work></rdf:RDF></metadata><defs
     id="defs6"><clipPath
       clipPathUnits="userSpaceOnUse"
       id="clipPath16"><path
         d="M 0,150 150,150 150,0 0,0 0,150 Z"
         id="path18"
         inkscape:connector-curvature="0" /></clipPath></defs><sodipodi:namedview
     pagecolor="#ffffff"
     bordercolor="#666666"
     borderopacity="1"
     objecttolerance="10"
     gridtolerance="10"
     guidetolerance="10"
     inkscape:pageopacity="0"
     inkscape:pageshadow="2"
     inkscape:window-width="640"
     inkscape:window-height="480"
     id="namedview4"
     showgrid="false"
     inkscape:zoom="1.2586667"
     inkscape:cx="93.75"
     inkscape:cy="93.75"
     inkscape:window-x="0"
     inkscape:window-y="400"
     inkscape:window-maximized="0"
     inkscape:current-layer="g10" /><g
     id="g10"
     inkscape:groupmode="layer"
     inkscape:label="tree"
     transform="matrix(1.25,0,0,-1.25,0,187.5)"><g
       id="g12"><g
         id="g14"
         clip-path="url(#clipPath16)"><g
           id="g20"
           transform="translate(142.2598,68.7363)"><path
             d="m 0,0 c 3.636,7.881 6.192,11.124 0,22.426 -8.324,15.197 -17.576,4.242 -23.03,12.123 -3.636,6.06 2.581,12.77 -0.449,19.438 -3.029,6.059 -11.069,10.865 -17.737,13.289 -9.696,3.031 -32.119,7.274 -39.998,0 0,0 -6.667,-3.301 -7.881,-12.726 -1.421,-11.036 -15.152,-3.031 -21.213,-11.517 -2.423,-3.031 -0.606,-7.273 -2.423,-9.698 -3.031,-4.241 -7.881,-3.636 -12.729,-6.059 -10.91,-4.244 -11.865,-14.247 -2.263,-18.746 6.111,-2.865 6.111,-2.865 -1.374,-7.924 -6.754,-4.563 -9.696,-12.726 -9.091,-21.213 1.818,-20.607 27.274,-19.997 41.213,-13.937 7.175,2.937 15.227,7.251 23.308,9.217 0.433,-10.674 -1.485,-38.243 -5.566,-38.265 l 25.453,0 c -1.49,6.516 -3.188,12.95 -3.29,19.678 -0.029,1.74 -2.016,12.774 -2.49,18.806 2.115,-0.576 4.199,-1.45 6.226,-2.77 7.271,-4.244 9.697,-10.909 18.182,-13.336 7.273,-2.424 17.734,-1.166 25.009,2.472 6.667,3.028 13.779,10.864 13.779,18.135 C 3.636,-10.299 -4.848,-9.696 0,0"
             style="fill:#777777;fill-opacity:1;fill-rule:nonzero;stroke:none"
             id="path22"
             inkscape:connector-curvature="0" /></g></g></g></g></svg>
