<?xml version="1.0" encoding="UTF-8" standalone="no"?>
<!-- Created with Inkscape (http://www.inkscape.org/) -->

<svg
   xmlns:dc="http://purl.org/dc/elements/1.1/"
   xmlns:cc="http://creativecommons.org/ns#"
   xmlns:rdf="http://www.w3.org/1999/02/22-rdf-syntax-ns#"
   xmlns:svg="http://www.w3.org/2000/svg"
   xmlns="http://www.w3.org/2000/svg"
   xmlns:sodipodi="http://sodipodi.sourceforge.net/DTD/sodipodi-0.dtd"
   xmlns:inkscape="http://www.inkscape.org/namespaces/inkscape"
   id="svg2"
   version="1.1"
   inkscape:version="0.91 r13725"
   xml:space="preserve"
   width="40"
   height="40"
   viewBox="0 0 187.5 187.5"
   sodipodi:docname="stat-dawn_chorus.svg"><metadata
     id="metadata8"><rdf:RDF><cc:Work
         rdf:about=""><dc:format>image/svg+xml</dc:format><dc:type
           rdf:resource="http://purl.org/dc/dcmitype/StillImage" /><dc:title></dc:title></cc:Work></rdf:RDF></metadata><defs
     id="defs6"><clipPath
       clipPathUnits="userSpaceOnUse"
       id="clipPath24"><path
         d="M 0,150 150,150 150,0 0,0 0,150 Z"
         id="path26"
         inkscape:connector-curvature="0" /></clipPath></defs><sodipodi:namedview
     pagecolor="#ffffff"
     bordercolor="#666666"
     borderopacity="1"
     objecttolerance="10"
     gridtolerance="10"
     guidetolerance="10"
     inkscape:pageopacity="0"
     inkscape:pageshadow="2"
     inkscape:window-width="640"
     inkscape:window-height="480"
     id="namedview4"
     showgrid="false"
     inkscape:zoom="1.2586667"
     inkscape:cx="93.75"
     inkscape:cy="93.75"
     inkscape:window-x="0"
     inkscape:window-y="400"
     inkscape:window-maximized="0"
     inkscape:current-layer="g10" /><g
     id="g10"
     inkscape:groupmode="layer"
     inkscape:label="dawn chorus"
     transform="matrix(1.25,0,0,-1.25,0,187.5)"><g
       id="g12"
       transform="translate(53.0508,27.8105)"><path
         d="M 0,0 -11.511,18.28"
         style="fill:none;stroke:#777777;stroke-width:1.61300004;stroke-linecap:butt;stroke-linejoin:miter;stroke-miterlimit:10;stroke-dasharray:none;stroke-opacity:1"
         id="path14"
         inkscape:connector-curvature="0" /></g><g
       id="g16"
       transform="translate(60.9272,35.4902)"><path
         d="M 0,0 -12.679,10.54"
         style="fill:none;stroke:#777777;stroke-width:1.61300004;stroke-linecap:butt;stroke-linejoin:miter;stroke-miterlimit:10;stroke-dasharray:none;stroke-opacity:1"
         id="path18"
         inkscape:connector-curvature="0" /></g><g
       id="g20"><g
         id="g22"
         clip-path="url(#clipPath24)"><g
           id="g28"
           transform="translate(83.4922,98.2905)"><path
             d="M 0,0 C -0.119,0.071 -0.232,0.146 -0.332,0.229 L 0.164,0.529 0,0 Z M 4.49,-2.16 14.875,0.749 0.527,0.748 13.488,8.57 4.193,7.465 C 3.09,8.302 -1.646,9.097 -6.735,8.513 -8.206,8.402 -9.747,8.165 -11.298,7.751 -13.963,7.04 -16.078,4.494 -17.766,2.469 -18.669,1.38 -19.543,0.254 -20.33,-0.92 c -1.421,-2.126 -2.117,-3.767 -4.378,-4.957 -1.873,-0.986 -10.804,-6.405 -15.876,-10.647 -5.992,-5.014 -18.625,-23.827 -20.753,-27.519 -2.445,-4.235 4.037,0.366 7.836,-0.919 l -20.516,-18.625 9.212,-8.258 16.299,22.639 c 4.306,-4.065 11.022,-5.862 18.629,-2.45 9.203,4.122 18.026,9.447 24.652,17.157 6.645,7.731 3.413,16.721 5.313,25.825 0.635,3.047 4.781,4.929 4.422,6.465 -0.004,0.017 -0.012,0.033 -0.02,0.049"
             style="fill:#777777;fill-opacity:1;fill-rule:nonzero;stroke:none"
             id="path30"
             inkscape:connector-curvature="0" /></g><g
           id="g32"
           transform="translate(83.4922,98.2905)"><path
             d="M 0,0 C -0.119,0.071 -0.232,0.146 -0.332,0.229 L 0.164,0.529 0,0 Z M 4.49,-2.16 14.875,0.749 0.527,0.748 13.488,8.57 4.193,7.465 C 3.09,8.302 -1.646,9.097 -6.735,8.513 -8.206,8.402 -9.747,8.165 -11.298,7.751 -13.963,7.04 -16.078,4.494 -17.766,2.469 -18.669,1.38 -19.543,0.254 -20.33,-0.92 c -1.421,-2.126 -2.117,-3.767 -4.378,-4.957 -1.873,-0.986 -10.804,-6.405 -15.876,-10.647 -5.992,-5.014 -18.625,-23.827 -20.753,-27.519 -2.445,-4.235 4.037,0.366 7.836,-0.919 l -20.516,-18.625 9.212,-8.258 16.299,22.639 c 4.306,-4.065 11.022,-5.862 18.629,-2.45 9.203,4.122 18.026,9.447 24.652,17.157 6.645,7.731 3.413,16.721 5.313,25.825 0.635,3.047 4.781,4.929 4.422,6.465 -0.004,0.017 -0.012,0.033 -0.02,0.049 z"
             style="fill:none;stroke:#777777;stroke-width:0.40599999;stroke-linecap:butt;stroke-linejoin:miter;stroke-miterlimit:10;stroke-dasharray:none;stroke-opacity:1"
             id="path34"
             inkscape:connector-curvature="0" /></g><g
           id="g36"
           transform="translate(111.3516,123.2954)"><path
             d="m 0,0 c -6.238,1.071 -8.795,-1.522 -8.795,-1.522 l 8.574,-14.68 c -0.595,-0.103 -1.203,-0.316 -1.781,-0.654 -2.08,-1.215 -2.992,-3.525 -2.039,-5.159 0.957,-1.633 3.416,-1.974 5.496,-0.759 2.078,1.215 2.992,3.525 2.037,5.159 l -8.457,14.478 c 4.281,1.987 8.854,0.991 7.363,-3.752 0,0 0.34,0.065 0.6,0.62 C 3.988,-4.157 4.408,-0.756 0,0"
             style="fill:#777777;fill-opacity:1;fill-rule:nonzero;stroke:none"
             id="path38"
             inkscape:connector-curvature="0" /></g><g
           id="g40"
           transform="translate(126.4727,107.7241)"><path
             d="M 0,0 -0.881,2.52 7.016,4.648 7.914,2.069 0,0 Z m 9.051,5.197 0,0 L 8.385,7.364 -3.697,4.206 1.031,-9.338 c -0.508,0.01 -1.049,-0.069 -1.582,-0.254 -1.918,-0.671 -3.047,-2.436 -2.519,-3.944 0.527,-1.507 2.508,-2.187 4.425,-1.517 1.922,0.671 3.051,2.436 2.524,3.944 l -3.104,8.89 7.895,2.128 2.408,-6.894 c -0.512,0.011 -1.051,-0.066 -1.584,-0.254 -1.92,-0.669 -3.047,-2.435 -2.521,-3.941 0.525,-1.509 2.509,-2.188 4.427,-1.52 1.922,0.671 3.051,2.437 2.524,3.945 L 9.051,5.197 Z"
             style="fill:#777777;fill-opacity:1;fill-rule:nonzero;stroke:none"
             id="path42"
             inkscape:connector-curvature="0" /></g></g></g></g></svg>
