<?xml version="1.0" encoding="UTF-8" standalone="no"?>
<!-- Created with Inkscape (http://www.inkscape.org/) -->

<svg
   xmlns:dc="http://purl.org/dc/elements/1.1/"
   xmlns:cc="http://creativecommons.org/ns#"
   xmlns:rdf="http://www.w3.org/1999/02/22-rdf-syntax-ns#"
   xmlns:svg="http://www.w3.org/2000/svg"
   xmlns="http://www.w3.org/2000/svg"
   xmlns:sodipodi="http://sodipodi.sourceforge.net/DTD/sodipodi-0.dtd"
   xmlns:inkscape="http://www.inkscape.org/namespaces/inkscape"
   id="svg2"
   version="1.1"
   inkscape:version="0.91 r13725"
   xml:space="preserve"
   width="40"
   height="40"
   viewBox="0 0 187.5 187.5"
   sodipodi:docname="stat-paint_brush.svg"><metadata
     id="metadata8"><rdf:RDF><cc:Work
         rdf:about=""><dc:format>image/svg+xml</dc:format><dc:type
           rdf:resource="http://purl.org/dc/dcmitype/StillImage" /><dc:title></dc:title></cc:Work></rdf:RDF></metadata><defs
     id="defs6"><clipPath
       clipPathUnits="userSpaceOnUse"
       id="clipPath16"><path
         d="M 0,150 150,150 150,0 0,0 0,150 Z"
         id="path18"
         inkscape:connector-curvature="0" /></clipPath></defs><sodipodi:namedview
     pagecolor="#ffffff"
     bordercolor="#666666"
     borderopacity="1"
     objecttolerance="10"
     gridtolerance="10"
     guidetolerance="10"
     inkscape:pageopacity="0"
     inkscape:pageshadow="2"
     inkscape:window-width="640"
     inkscape:window-height="480"
     id="namedview4"
     showgrid="false"
     inkscape:zoom="1.2586667"
     inkscape:cx="93.75"
     inkscape:cy="93.75"
     inkscape:window-x="0"
     inkscape:window-y="400"
     inkscape:window-maximized="0"
     inkscape:current-layer="g10" /><g
     id="g10"
     inkscape:groupmode="layer"
     inkscape:label="paint brush"
     transform="matrix(1.25,0,0,-1.25,0,187.5)"><g
       id="g12"><g
         id="g14"
         clip-path="url(#clipPath16)"><g
           id="g20"
           transform="translate(119.7568,139.3374)"><path
             d="m 0,0 c -1.981,1.068 -4.457,0.321 -5.519,-1.667 -0.596,-4.38 -53.394,-96.091 -53.394,-96.091 -0.152,-0.284 -0.349,-0.743 -0.57,-1.308 l -0.773,0.37 -3.839,-7.981 c -1.801,-0.242 -3.259,-1.258 -4.512,-2.594 -2.373,-2.524 -4.597,-5.184 -6.956,-7.719 -3.222,-3.472 -7.053,-5.616 -11.989,-5.24 -1.316,0.1 -2.565,0.826 -3.927,0.419 0.007,-0.18 0.014,-0.356 0.021,-0.532 2.078,-1.548 3.608,-3.802 6.173,-4.709 4.994,-1.768 10.142,-2.677 15.393,-1.727 3.558,0.646 7.499,1.468 9.96,4.004 2.791,2.872 5.667,6.223 5.533,10.83 -0.008,0.155 0.102,0.409 0.23,0.684 l 0.144,-0.069 4.546,9.455 -0.694,0.333 c 0.512,0.754 0.888,1.338 1.032,1.608 0,0 49.747,95.151 50.894,97.138 C 2.24,-3.188 1.985,-1.063 0,0"
             style="fill:#777777;fill-opacity:1;fill-rule:nonzero;stroke:none"
             id="path22"
             inkscape:connector-curvature="0" /></g></g></g></g></svg>
