<?xml version="1.0" encoding="UTF-8" standalone="no"?>
<!-- Created with Inkscape (http://www.inkscape.org/) -->

<svg
   xmlns:dc="http://purl.org/dc/elements/1.1/"
   xmlns:cc="http://creativecommons.org/ns#"
   xmlns:rdf="http://www.w3.org/1999/02/22-rdf-syntax-ns#"
   xmlns:svg="http://www.w3.org/2000/svg"
   xmlns="http://www.w3.org/2000/svg"
   xmlns:sodipodi="http://sodipodi.sourceforge.net/DTD/sodipodi-0.dtd"
   xmlns:inkscape="http://www.inkscape.org/namespaces/inkscape"
   id="svg2"
   version="1.1"
   inkscape:version="0.91 r13725"
   xml:space="preserve"
   width="40"
   height="40"
   viewBox="0 0 187.5 187.5"
   sodipodi:docname="stat-pond_dipping_net.svg"><metadata
     id="metadata8"><rdf:RDF><cc:Work
         rdf:about=""><dc:format>image/svg+xml</dc:format><dc:type
           rdf:resource="http://purl.org/dc/dcmitype/StillImage" /><dc:title></dc:title></cc:Work></rdf:RDF></metadata><defs
     id="defs6"><clipPath
       clipPathUnits="userSpaceOnUse"
       id="clipPath16"><path
         d="M 0,150 150,150 150,0 0,0 0,150 Z"
         id="path18"
         inkscape:connector-curvature="0" /></clipPath></defs><sodipodi:namedview
     pagecolor="#ffffff"
     bordercolor="#666666"
     borderopacity="1"
     objecttolerance="10"
     gridtolerance="10"
     guidetolerance="10"
     inkscape:pageopacity="0"
     inkscape:pageshadow="2"
     inkscape:window-width="640"
     inkscape:window-height="480"
     id="namedview4"
     showgrid="false"
     inkscape:zoom="1.2586667"
     inkscape:cx="93.75"
     inkscape:cy="93.75"
     inkscape:window-x="0"
     inkscape:window-y="400"
     inkscape:window-maximized="0"
     inkscape:current-layer="g10" /><g
     id="g10"
     inkscape:groupmode="layer"
     inkscape:label="pond dipping net"
     transform="matrix(1.25,0,0,-1.25,0,187.5)"><g
       id="g12"><g
         id="g14"
         clip-path="url(#clipPath16)"><g
           id="g20"
           transform="translate(145.0088,57.2734)"><path
             d="m 0,0 c -2.57,-0.702 -8.834,2.34 -10.772,3.029 -4.473,1.588 -8.909,3.284 -13.334,4.992 -9.636,3.711 -19.22,7.552 -28.791,11.42 -3.57,1.443 -7.137,2.896 -10.708,4.333 -0.374,0.151 -7.202,2.824 -7.204,2.821 0.002,0.005 1.709,4.386 1.709,4.386 7.512,-2.927 15.001,-5.927 22.539,-8.792 C -34.053,17.436 -4.087,6.261 -1.747,5.123 -0.359,4.446 2.302,2.296 0.801,0.479 0.608,0.247 0.337,0.092 0,0"
             style="fill:#777777;fill-opacity:1;fill-rule:nonzero;stroke:none"
             id="path22"
             inkscape:connector-curvature="0" /></g><g
           id="g24"
           transform="translate(73.123,91.1143)"><path
             d="m 0,0 -58.832,22.913 -3.411,-8.769 0.305,-0.121 c 0.571,-10.215 11.208,-50.118 19.89,-50.368 4.732,-0.134 24.645,20.686 34.866,29.045 L -3.416,-8.769 0,0 Z"
             style="fill:#777777;fill-opacity:1;fill-rule:nonzero;stroke:none"
             id="path26"
             inkscape:connector-curvature="0" /></g></g></g></g></svg>
