<?xml version="1.0" encoding="UTF-8" standalone="no"?>
<!-- Created with Inkscape (http://www.inkscape.org/) -->

<svg
   xmlns:dc="http://purl.org/dc/elements/1.1/"
   xmlns:cc="http://creativecommons.org/ns#"
   xmlns:rdf="http://www.w3.org/1999/02/22-rdf-syntax-ns#"
   xmlns:svg="http://www.w3.org/2000/svg"
   xmlns="http://www.w3.org/2000/svg"
   xmlns:sodipodi="http://sodipodi.sourceforge.net/DTD/sodipodi-0.dtd"
   xmlns:inkscape="http://www.inkscape.org/namespaces/inkscape"
   id="svg2"
   version="1.1"
   inkscape:version="0.91 r13725"
   xml:space="preserve"
   width="40"
   height="40"
   viewBox="0 0 187.5 187.5"
   sodipodi:docname="stat-cup_of_coffee.svg"><metadata
     id="metadata8"><rdf:RDF><cc:Work
         rdf:about=""><dc:format>image/svg+xml</dc:format><dc:type
           rdf:resource="http://purl.org/dc/dcmitype/StillImage" /><dc:title></dc:title></cc:Work></rdf:RDF></metadata><defs
     id="defs6"><clipPath
       clipPathUnits="userSpaceOnUse"
       id="clipPath16"><path
         d="M 0,150 150,150 150,0 0,0 0,150 Z"
         id="path18"
         inkscape:connector-curvature="0" /></clipPath></defs><sodipodi:namedview
     pagecolor="#ffffff"
     bordercolor="#666666"
     borderopacity="1"
     objecttolerance="10"
     gridtolerance="10"
     guidetolerance="10"
     inkscape:pageopacity="0"
     inkscape:pageshadow="2"
     inkscape:window-width="640"
     inkscape:window-height="480"
     id="namedview4"
     showgrid="false"
     inkscape:zoom="1.2586667"
     inkscape:cx="93.75"
     inkscape:cy="93.75"
     inkscape:window-x="0"
     inkscape:window-y="400"
     inkscape:window-maximized="0"
     inkscape:current-layer="g10" /><g
     id="g10"
     inkscape:groupmode="layer"
     inkscape:label="cup of coffee"
     transform="matrix(1.25,0,0,-1.25,0,187.5)"><g
       id="g12"><g
         id="g14"
         clip-path="url(#clipPath16)"><g
           id="g20"
           transform="translate(130.2773,97.7178)"><path
             d="m 0,0 c -7.152,0.095 -12.945,-5.473 -13.076,-12.568 -0.138,-7.496 5.347,-13.058 12.917,-13.095 C 6.989,-25.697 6.967,-0.092 0,0 m -122.3,-41.906 29.449,0 c -10.96,15.571 -15.833,32.022 -14.579,50.567 1.851,0.09 3.406,0.231 4.961,0.233 28.542,0.013 57.083,0.037 85.625,-0.052 1.976,-0.005 3.948,-0.881 5.848,-1.897 C -9.589,6.193 -3.351,8.693 -1.257,8.6 7.126,8.227 10.532,2.09 11.4,-5.379 c 1.243,-10.669 -0.167,-31.643 -16.181,-28.236 -4.576,0.975 -9.349,4.083 -12.829,7.133 -2.814,-4.922 -5.579,-9.762 -8.751,-15.311 l 31.798,0 c -2.946,-7.201 -7.527,-12.141 -13.654,-14.418 -7.845,-2.919 -16.183,-5.631 -24.438,-6.084 -16.946,-0.932 -33.987,-0.658 -50.97,-0.19 -12.393,0.339 -24.174,3.329 -33.109,12.921 -1.796,1.927 -3.136,4.278 -5.566,7.658"
             style="fill:#777777;fill-opacity:1;fill-rule:evenodd;stroke:none"
             id="path22"
             inkscape:connector-curvature="0" /></g></g></g></g></svg>
