<?xml version="1.0" encoding="UTF-8" standalone="no"?>
<!-- Created with Inkscape (http://www.inkscape.org/) -->

<svg
   xmlns:dc="http://purl.org/dc/elements/1.1/"
   xmlns:cc="http://creativecommons.org/ns#"
   xmlns:rdf="http://www.w3.org/1999/02/22-rdf-syntax-ns#"
   xmlns:svg="http://www.w3.org/2000/svg"
   xmlns="http://www.w3.org/2000/svg"
   xmlns:sodipodi="http://sodipodi.sourceforge.net/DTD/sodipodi-0.dtd"
   xmlns:inkscape="http://www.inkscape.org/namespaces/inkscape"
   id="svg2"
   version="1.1"
   inkscape:version="0.91 r13725"
   xml:space="preserve"
   width="40"
   height="40"
   viewBox="0 0 187.5 187.5"
   sodipodi:docname="stat-education.svg"><metadata
     id="metadata8"><rdf:RDF><cc:Work
         rdf:about=""><dc:format>image/svg+xml</dc:format><dc:type
           rdf:resource="http://purl.org/dc/dcmitype/StillImage" /><dc:title></dc:title></cc:Work></rdf:RDF></metadata><defs
     id="defs6"><clipPath
       clipPathUnits="userSpaceOnUse"
       id="clipPath16"><path
         d="M 0,150 150,150 150,0 0,0 0,150 Z"
         id="path18"
         inkscape:connector-curvature="0" /></clipPath></defs><sodipodi:namedview
     pagecolor="#ffffff"
     bordercolor="#666666"
     borderopacity="1"
     objecttolerance="10"
     gridtolerance="10"
     guidetolerance="10"
     inkscape:pageopacity="0"
     inkscape:pageshadow="2"
     inkscape:window-width="640"
     inkscape:window-height="480"
     id="namedview4"
     showgrid="false"
     inkscape:zoom="1.2586667"
     inkscape:cx="93.75"
     inkscape:cy="93.75"
     inkscape:window-x="0"
     inkscape:window-y="400"
     inkscape:window-maximized="0"
     inkscape:current-layer="g10" /><g
     id="g10"
     inkscape:groupmode="layer"
     inkscape:label="school"
     transform="matrix(1.25,0,0,-1.25,0,187.5)"><g
       id="g12"><g
         id="g14"
         clip-path="url(#clipPath16)"><g
           id="g20"
           transform="translate(42.7344,94.5879)"><path
             d="m 0,0 c 0.207,5.04 -3.378,9.43 -7.857,10.826 -3.697,1.164 -7.456,2.114 -11.187,3.158 -5.147,1.432 -10.292,2.872 -15.447,4.287 -1.683,0.46 -3.288,-0.313 -4.118,-1.897 -0.782,-1.502 -0.437,-3.411 0.828,-4.496 0.573,-0.499 1.256,-0.777 1.974,-0.978 C -28.273,8.809 -4.33,0.456 -0.08,-0.732 -0.051,-0.486 -0.01,-0.248 0,0"
             style="fill:#777777;fill-opacity:1;fill-rule:evenodd;stroke:none"
             id="path22"
             inkscape:connector-curvature="0" /></g><g
           id="g24"
           transform="translate(64.0156,95.0459)"><path
             d="m 0,0 c -0.698,5.135 -4.969,10.106 -11.394,10.073 -5.825,-0.031 -11.653,-0.006 -17.481,-0.01 -0.476,0 -1.427,-0.068 -1.893,0.01 0,0 0.225,0.037 0,0 l 0,-14.44 0,-66.088 c 0,-0.434 0.004,-0.864 0.043,-1.298 0.163,-2.018 1.1,-3.529 3.047,-4.223 2.011,-0.715 3.853,-0.326 5.39,1.202 1.135,1.12 1.397,2.567 1.397,4.095 0,12.747 0,25.491 0.006,38.233 0,0.232 -0.07,0.477 0.087,0.721 0.478,0.019 0.955,0.046 1.423,-0.02 0.109,-0.244 0.06,-0.467 0.06,-0.687 0.004,-12.724 0.007,-25.45 0,-38.18 0,-0.694 0.033,-1.376 0.226,-2.051 0.553,-1.981 2.346,-3.459 4.401,-3.62 2.253,-0.18 4.156,0.868 5.013,2.757 0.427,0.933 0.48,1.936 0.48,2.943 -10e-4,22.078 -10e-4,44.159 0,66.243 0,0.254 -0.053,0.518 0.065,0.767 l 1.772,0 0,-0.652 0,-20.958 c 0,-1.017 -0.016,-2.04 0.007,-3.065 0.044,-1.908 1.319,-3.405 3.058,-3.629 2.032,-0.26 3.707,0.82 4.258,2.733 0.035,0.125 -0.005,0.284 0.134,0.372 l 0,28.434 C 0.065,-0.23 0.014,-0.116 0,0"
             style="fill:#777777;fill-opacity:1;fill-rule:evenodd;stroke:none"
             id="path26"
             inkscape:connector-curvature="0" /></g><g
           id="g28"
           transform="translate(44.3496,126.6411)"><path
             d="m 0,0 c 0.945,-0.237 1.913,-0.425 2.8,-0.86 3.502,-1.731 5.169,-5.353 4.825,-8.677 -0.382,-3.696 -3.136,-6.966 -7.202,-7.655 -5.493,-0.938 -10.44,3.589 -10.052,9.161 0.278,4.021 3.377,7.354 7.373,7.932 0.099,0.016 0.191,0.066 0.286,0.099 L 0,0 Z"
             style="fill:#777777;fill-opacity:1;fill-rule:evenodd;stroke:none"
             id="path30"
             inkscape:connector-curvature="0" /></g><g
           id="g32"
           transform="translate(92.8633,43.0908)"><path
             d="m 0,0 c -0.073,-0.044 -0.054,-0.122 -0.07,-0.182 -0.272,-0.941 -1.097,-1.475 -2.095,-1.347 -0.855,0.112 -1.485,0.846 -1.503,1.793 -0.016,0.497 -0.008,1.005 -0.008,1.504 l 0,10.315 0,0.325 -0.87,0 C -4.604,12.286 -4.58,12.156 -4.58,12.028 l 0,-32.612 c 0,-0.497 -0.024,-0.99 -0.234,-1.452 -0.425,-0.93 -1.358,-1.444 -2.468,-1.356 -1.014,0.08 -1.898,0.809 -2.17,1.785 -0.095,0.33 -0.111,0.669 -0.111,1.004 0.003,6.272 0,12.539 0,18.801 0,0.109 0.025,0.219 -0.029,0.339 -0.231,0.03 -0.466,0.021 -0.702,0.01 -0.078,-0.119 -0.04,-0.24 -0.04,-0.355 l 0,-18.823 c 0,-0.756 -0.133,-1.467 -0.689,-2.019 -0.759,-0.752 -1.668,-0.946 -2.654,-0.589 -0.961,0.337 -1.423,1.084 -1.506,2.08 -0.015,0.21 -0.02,0.422 -0.02,0.638 l 0,32.542 0,0.389 -0.867,0 c -0.063,-0.096 -0.029,-0.209 -0.029,-0.314 -0.005,-3.849 -0.005,-7.695 0,-11.548 0,-0.367 -0.046,-0.726 -0.203,-1.064 -0.348,-0.743 -1.211,-1.157 -2.021,-0.99 -0.866,0.186 -1.44,0.848 -1.448,1.707 -0.011,2.631 -0.004,5.261 -0.004,7.892 0,1.908 -0.044,3.815 0.013,5.724 0.08,2.308 1.689,4.585 4.105,5.156 0.454,0.108 0.92,0.147 1.391,0.147 2.867,0.003 5.739,-0.01 8.607,0.007 3.163,0.012 5.263,-2.435 5.605,-4.962 C -0.045,14.107 -0.021,14.052 0,13.998 L 0,0 Z"
             style="fill:#777777;fill-opacity:1;fill-rule:evenodd;stroke:none"
             id="path34"
             inkscape:connector-curvature="0" /></g><g
           id="g36"
           transform="translate(83.4609,71.9043)"><path
             d="m 0,0 c 0.466,-0.117 0.94,-0.208 1.374,-0.425 1.729,-0.849 2.55,-2.637 2.38,-4.27 -0.189,-1.822 -1.546,-3.43 -3.544,-3.771 -2.705,-0.46 -5.144,1.769 -4.954,4.514 0.14,1.98 1.663,3.62 3.631,3.903 0.049,0.01 0.098,0.033 0.139,0.049 L 0,0 Z"
             style="fill:#777777;fill-opacity:1;fill-rule:evenodd;stroke:none"
             id="path38"
             inkscape:connector-curvature="0" /></g><g
           id="g40"
           transform="translate(116.9629,43.0908)"><path
             d="m 0,0 c -0.07,-0.044 -0.05,-0.122 -0.067,-0.182 -0.272,-0.941 -1.097,-1.475 -2.095,-1.347 -0.855,0.112 -1.485,0.846 -1.507,1.793 -0.013,0.497 -0.003,1.005 -0.003,1.504 l 0,10.315 0,0.325 -0.872,0 c -0.058,-0.122 -0.032,-0.252 -0.032,-0.38 l 0,-32.612 c 0,-0.497 -0.026,-0.99 -0.236,-1.452 -0.42,-0.93 -1.361,-1.444 -2.466,-1.356 -1.016,0.08 -1.899,0.809 -2.17,1.785 -0.099,0.33 -0.112,0.669 -0.112,1.004 0.004,6.272 0,12.539 0,18.801 0,0.109 0.024,0.219 -0.029,0.339 -0.231,0.03 -0.466,0.021 -0.701,0.01 -0.075,-0.119 -0.041,-0.24 -0.041,-0.355 -0.005,-6.274 -0.005,-12.548 -0.005,-18.823 0,-0.756 -0.128,-1.467 -0.688,-2.019 -0.755,-0.752 -1.664,-0.946 -2.65,-0.589 -0.961,0.337 -1.423,1.084 -1.506,2.08 -0.016,0.21 -0.02,0.422 -0.02,0.638 l 0,32.542 0,0.389 -0.866,0 c -0.066,-0.096 -0.029,-0.209 -0.029,-0.314 -0.005,-3.849 -0.005,-7.695 0,-11.548 0,-0.367 -0.046,-0.726 -0.203,-1.064 -0.349,-0.743 -1.209,-1.157 -2.025,-0.99 -0.863,0.186 -1.441,0.848 -1.444,1.707 -0.009,2.631 -0.004,5.261 -0.004,7.892 0,1.908 -0.045,3.815 0.012,5.724 0.078,2.308 1.687,4.585 4.105,5.156 0.454,0.108 0.92,0.147 1.39,0.147 2.868,0.003 5.74,-0.01 8.603,0.007 3.168,0.012 5.272,-2.435 5.611,-4.962 0.008,-0.058 0.032,-0.113 0.05,-0.167 L 0,0 Z"
             style="fill:#777777;fill-opacity:1;fill-rule:evenodd;stroke:none"
             id="path42"
             inkscape:connector-curvature="0" /></g><g
           id="g44"
           transform="translate(107.5645,71.9043)"><path
             d="m 0,0 c 0.466,-0.117 0.936,-0.208 1.378,-0.425 1.724,-0.849 2.546,-2.637 2.376,-4.27 -0.19,-1.822 -1.547,-3.43 -3.545,-3.771 -2.705,-0.46 -5.144,1.769 -4.954,4.514 0.141,1.98 1.663,3.62 3.635,3.903 0.045,0.01 0.094,0.033 0.135,0.049 L 0,0 Z"
             style="fill:#777777;fill-opacity:1;fill-rule:evenodd;stroke:none"
             id="path46"
             inkscape:connector-curvature="0" /></g><g
           id="g48"
           transform="translate(70.9028,100.4058)"><path
             d="m 0,0 c 0.343,1.143 0.685,2.288 1.032,3.43 0.911,3.039 1.787,6.09 2.752,9.11 0.689,2.153 2.188,3.511 4.422,4.008 0.271,0.062 0.56,0.081 0.841,0.081 2.006,0 4.015,0.022 6.02,-0.003 1.584,-0.016 2.858,-0.726 3.928,-1.858 0.879,-0.928 1.337,-2.061 1.691,-3.269 1.072,-3.654 2.187,-7.291 3.284,-10.934 0.145,-0.491 0.223,-0.986 0.067,-1.491 -0.237,-0.766 -0.752,-1.228 -1.544,-1.315 -0.726,-0.08 -1.267,0.262 -1.655,0.871 -0.238,0.375 -0.329,0.805 -0.449,1.223 -1.018,3.499 -2.034,6.993 -3.049,10.492 -0.017,0.066 -0.046,0.128 -0.07,0.196 l -1.039,0 C 18.169,3.898 20.1,-2.719 22.036,-9.363 l -5.372,0 c -0.076,-0.118 -0.038,-0.232 -0.038,-0.337 -0.004,-4.866 -0.004,-9.729 -0.004,-14.591 0,-0.827 -0.33,-1.459 -1.092,-1.828 -0.161,-0.074 -0.335,-0.121 -0.505,-0.184 l -0.767,0 c -0.128,0.096 -0.284,0.095 -0.425,0.156 -0.784,0.358 -1.167,0.979 -1.167,1.831 -0.009,4.87 -0.004,9.737 -0.009,14.606 0,0.109 0.03,0.22 -0.025,0.326 l -1.159,0 0,-0.328 0,-12.626 c 0,-0.676 0.013,-1.354 -0.005,-2.034 -0.015,-0.92 -0.61,-1.649 -1.501,-1.874 -0.05,-0.011 -0.102,-0.004 -0.135,-0.057 l -0.772,0 c -0.186,0.064 -0.375,0.115 -0.553,0.198 -0.838,0.402 -1.138,1.111 -1.138,1.994 l 0,14.411 c 0,0.105 0.037,0.221 -0.05,0.345 l -5.219,0 c 1.892,6.647 3.777,13.264 5.668,19.9 l -0.907,0 C 6.84,10.471 6.811,10.396 6.791,10.326 5.727,6.665 4.663,3.001 3.598,-0.661 3.516,-0.941 3.4,-1.209 3.225,-1.444 2.782,-2.055 2.177,-2.335 1.436,-2.191 0.698,-2.047 0.231,-1.574 0.049,-0.838 0.042,-0.797 0.017,-0.762 0,-0.724 L 0,0 Z"
             style="fill:#777777;fill-opacity:1;fill-rule:evenodd;stroke:none"
             id="path50"
             inkscape:connector-curvature="0" /></g><g
           id="g52"
           transform="translate(83.4609,126.8062)"><path
             d="M 0,0 C 0.393,-0.111 0.797,-0.171 1.18,-0.334 2.934,-1.081 3.949,-2.859 3.788,-4.656 3.605,-6.661 2.13,-8.207 0.21,-8.528 c -2.743,-0.464 -5.201,1.803 -4.987,4.571 0.156,1.991 1.683,3.623 3.655,3.907 0.05,0.008 0.095,0.033 0.144,0.05 L 0,0 Z"
             style="fill:#777777;fill-opacity:1;fill-rule:evenodd;stroke:none"
             id="path54"
             inkscape:connector-curvature="0" /></g><g
           id="g56"
           transform="translate(95.0264,100.4058)"><path
             d="m 0,0 c 0.342,1.143 0.688,2.288 1.031,3.43 0.915,3.039 1.786,6.09 2.755,9.11 0.69,2.153 2.188,3.511 4.419,4.008 0.276,0.062 0.558,0.081 0.842,0.081 2.006,0 4.015,0.022 6.023,-0.003 1.58,-0.016 2.856,-0.726 3.924,-1.858 0.884,-0.928 1.341,-2.061 1.692,-3.269 1.073,-3.654 2.186,-7.291 3.284,-10.934 0.144,-0.491 0.226,-0.986 0.07,-1.491 -0.24,-0.766 -0.755,-1.228 -1.547,-1.315 -0.722,-0.08 -1.267,0.262 -1.65,0.871 -0.243,0.375 -0.331,0.805 -0.454,1.223 -1.019,3.499 -2.035,6.993 -3.049,10.492 -0.021,0.066 -0.046,0.128 -0.07,0.196 l -1.037,0 C 18.169,3.898 20.1,-2.719 22.035,-9.363 l -5.367,0 c -0.075,-0.118 -0.042,-0.232 -0.042,-0.337 -0.004,-4.866 -0.004,-9.729 -0.004,-14.591 0,-0.827 -0.33,-1.459 -1.093,-1.828 -0.161,-0.074 -0.335,-0.121 -0.5,-0.184 l -0.771,0 c -0.128,0.096 -0.284,0.095 -0.425,0.156 -0.784,0.358 -1.167,0.979 -1.167,1.831 -0.005,4.87 -0.005,9.737 -0.005,14.606 0,0.109 0.026,0.22 -0.029,0.326 l -1.154,0 0,-0.328 0,-12.626 c 0,-0.676 0.007,-1.354 -0.008,-2.034 -0.013,-0.92 -0.612,-1.649 -1.503,-1.874 -0.05,-0.011 -0.103,-0.004 -0.136,-0.057 l -0.771,0 c -0.186,0.064 -0.375,0.115 -0.553,0.198 -0.834,0.402 -1.135,1.111 -1.135,1.994 0,4.804 0,9.605 -0.004,14.411 0,0.105 0.032,0.221 -0.05,0.345 l -5.218,0 c 1.892,6.647 3.778,13.264 5.668,19.9 l -0.903,0 C 6.84,10.471 6.811,10.396 6.79,10.326 5.727,6.665 4.661,3.001 3.597,-0.661 3.515,-0.941 3.398,-1.209 3.226,-1.444 2.784,-2.055 2.178,-2.335 1.438,-2.191 0.696,-2.047 0.229,-1.574 0.049,-0.838 0.041,-0.797 0.016,-0.762 0,-0.724 L 0,0 Z"
             style="fill:#777777;fill-opacity:1;fill-rule:evenodd;stroke:none"
             id="path58"
             inkscape:connector-curvature="0" /></g><g
           id="g60"
           transform="translate(107.585,126.8062)"><path
             d="M 0,0 C 0.392,-0.111 0.796,-0.171 1.176,-0.334 2.933,-1.081 3.948,-2.859 3.787,-4.656 3.605,-6.661 2.129,-8.207 0.206,-8.528 c -2.735,-0.464 -5.198,1.803 -4.984,4.571 0.153,1.991 1.683,3.623 3.655,3.907 0.05,0.008 0.1,0.033 0.144,0.05 L 0,0 Z"
             style="fill:#777777;fill-opacity:1;fill-rule:evenodd;stroke:none"
             id="path62"
             inkscape:connector-curvature="0" /></g><g
           id="g64"
           transform="translate(120.1104,100.4058)"><path
             d="m 0,0 c 0.342,1.143 0.686,2.288 1.031,3.43 0.912,3.039 1.786,6.09 2.752,9.11 0.689,2.153 2.187,3.511 4.423,4.008 0.273,0.062 0.562,0.081 0.841,0.081 2.006,0 4.016,0.022 6.02,-0.003 1.585,-0.016 2.86,-0.726 3.928,-1.858 0.878,-0.928 1.337,-2.061 1.692,-3.269 1.073,-3.654 2.182,-7.291 3.28,-10.934 0.148,-0.491 0.226,-0.986 0.07,-1.491 -0.24,-0.766 -0.751,-1.228 -1.543,-1.315 -0.726,-0.08 -1.271,0.262 -1.654,0.871 -0.24,0.375 -0.331,0.805 -0.454,1.223 -1.016,3.499 -2.032,6.993 -3.045,10.492 -0.022,0.066 -0.05,0.128 -0.07,0.196 l -1.041,0 c 1.94,-6.643 3.867,-13.26 5.806,-19.904 l -5.373,0 C 16.59,-9.481 16.622,-9.595 16.622,-9.7 l 0,-14.591 c 0,-0.827 -0.329,-1.459 -1.098,-1.828 -0.156,-0.074 -0.329,-0.121 -0.498,-0.184 l -0.771,0 c -0.124,0.096 -0.281,0.095 -0.421,0.156 -0.784,0.358 -1.173,0.979 -1.173,1.831 -0.003,4.87 0,9.737 -0.003,14.606 0,0.109 0.029,0.22 -0.025,0.326 l -1.159,0 0,-0.328 0,-12.626 c 0,-0.676 0.012,-1.354 -0.009,-2.034 -0.013,-0.92 -0.611,-1.649 -1.497,-1.874 -0.05,-0.011 -0.108,-0.004 -0.14,-0.057 l -0.768,0 c -0.185,0.064 -0.375,0.115 -0.552,0.198 -0.839,0.402 -1.139,1.111 -1.139,1.994 l 0,14.411 c 0,0.105 0.033,0.221 -0.055,0.345 l -5.218,0 c 1.893,6.647 3.783,13.264 5.669,19.9 l -0.904,0 C 6.837,10.471 6.812,10.396 6.791,10.326 5.727,6.665 4.662,3.001 3.598,-0.661 3.515,-0.941 3.4,-1.209 3.223,-1.444 2.78,-2.055 2.179,-2.335 1.436,-2.191 0.696,-2.047 0.231,-1.574 0.05,-0.838 0.041,-0.797 0.017,-0.762 0,-0.724 L 0,0 Z"
             style="fill:#777777;fill-opacity:1;fill-rule:evenodd;stroke:none"
             id="path66"
             inkscape:connector-curvature="0" /></g><g
           id="g68"
           transform="translate(132.6689,126.8062)"><path
             d="M 0,0 C 0.392,-0.111 0.796,-0.171 1.176,-0.334 2.934,-1.081 3.948,-2.859 3.787,-4.656 3.602,-6.661 2.129,-8.207 0.206,-8.528 c -2.738,-0.464 -5.202,1.803 -4.987,4.571 0.156,1.991 1.686,3.623 3.659,3.907 0.05,0.008 0.096,0.033 0.144,0.05 L 0,0 Z"
             style="fill:#777777;fill-opacity:1;fill-rule:evenodd;stroke:none"
             id="path70"
             inkscape:connector-curvature="0" /></g><g
           id="g72"
           transform="translate(120.1104,45.9785)"><path
             d="m 0,0 c 0.342,1.144 0.686,2.288 1.031,3.43 0.912,3.042 1.786,6.095 2.752,9.112 0.689,2.153 2.187,3.509 4.423,4.009 0.273,0.059 0.562,0.083 0.841,0.083 2.006,0 4.016,0.018 6.02,-0.007 1.585,-0.017 2.86,-0.725 3.928,-1.855 0.878,-0.928 1.337,-2.062 1.692,-3.271 1.073,-3.654 2.182,-7.291 3.28,-10.934 0.148,-0.491 0.226,-0.986 0.07,-1.493 -0.24,-0.763 -0.751,-1.226 -1.543,-1.312 -0.726,-0.078 -1.271,0.262 -1.654,0.873 -0.24,0.375 -0.331,0.802 -0.454,1.221 -1.016,3.496 -2.032,6.995 -3.045,10.494 -0.022,0.061 -0.05,0.126 -0.07,0.193 l -1.041,0 c 1.94,-6.64 3.867,-13.262 5.806,-19.904 l -5.373,0 C 16.59,-9.481 16.622,-9.591 16.622,-9.7 l 0,-14.589 c 0,-0.824 -0.329,-1.46 -1.098,-1.825 -0.156,-0.078 -0.329,-0.124 -0.498,-0.185 l -0.771,0 c -0.124,0.094 -0.281,0.09 -0.421,0.156 -0.784,0.359 -1.173,0.975 -1.173,1.828 -0.003,4.87 0,9.741 -0.003,14.609 0,0.107 0.029,0.219 -0.025,0.322 l -1.159,0 0,-0.324 0,-12.627 c 0,-0.679 0.012,-1.352 -0.009,-2.032 -0.013,-0.92 -0.611,-1.653 -1.497,-1.877 -0.05,-0.01 -0.108,-0.006 -0.14,-0.055 l -0.768,0 c -0.185,0.066 -0.375,0.112 -0.552,0.197 -0.839,0.405 -1.139,1.112 -1.139,1.995 l 0,14.407 c 0,0.109 0.033,0.225 -0.055,0.346 l -5.218,0 C 3.989,-2.705 5.879,3.913 7.765,10.55 l -0.904,0 C 6.837,10.472 6.812,10.398 6.791,10.331 5.727,6.665 4.662,3.005 3.598,-0.656 3.515,-0.938 3.4,-1.204 3.223,-1.441 2.78,-2.053 2.179,-2.332 1.436,-2.188 0.696,-2.045 0.231,-1.574 0.05,-0.836 0.041,-0.795 0.017,-0.758 0,-0.722 L 0,0 Z"
             style="fill:#777777;fill-opacity:1;fill-rule:evenodd;stroke:none"
             id="path74"
             inkscape:connector-curvature="0" /></g><g
           id="g76"
           transform="translate(132.6689,72.3809)"><path
             d="M 0,0 C 0.392,-0.111 0.796,-0.174 1.176,-0.334 2.934,-1.081 3.948,-2.856 3.787,-4.655 3.602,-6.66 2.129,-8.203 0.206,-8.53 c -2.738,-0.462 -5.202,1.805 -4.987,4.573 0.156,1.989 1.686,3.623 3.659,3.91 0.05,0.005 0.096,0.03 0.144,0.047 L 0,0 Z"
             style="fill:#777777;fill-opacity:1;fill-rule:evenodd;stroke:none"
             id="path78"
             inkscape:connector-curvature="0" /></g></g></g></g></svg>
