<?xml version="1.0" encoding="UTF-8" standalone="no"?>
<!-- Created with Inkscape (http://www.inkscape.org/) -->

<svg
   xmlns:dc="http://purl.org/dc/elements/1.1/"
   xmlns:cc="http://creativecommons.org/ns#"
   xmlns:rdf="http://www.w3.org/1999/02/22-rdf-syntax-ns#"
   xmlns:svg="http://www.w3.org/2000/svg"
   xmlns="http://www.w3.org/2000/svg"
   xmlns:sodipodi="http://sodipodi.sourceforge.net/DTD/sodipodi-0.dtd"
   xmlns:inkscape="http://www.inkscape.org/namespaces/inkscape"
   id="svg2"
   version="1.1"
   inkscape:version="0.91 r13725"
   xml:space="preserve"
   width="40"
   height="40"
   viewBox="0 0 187.5 187.5"
   sodipodi:docname="stat-butterfly.svg"><metadata
     id="metadata8"><rdf:RDF><cc:Work
         rdf:about=""><dc:format>image/svg+xml</dc:format><dc:type
           rdf:resource="http://purl.org/dc/dcmitype/StillImage" /><dc:title></dc:title></cc:Work></rdf:RDF></metadata><defs
     id="defs6"><clipPath
       clipPathUnits="userSpaceOnUse"
       id="clipPath16"><path
         d="M 0,150 150,150 150,0 0,0 0,150 Z"
         id="path18"
         inkscape:connector-curvature="0" /></clipPath></defs><sodipodi:namedview
     pagecolor="#ffffff"
     bordercolor="#666666"
     borderopacity="1"
     objecttolerance="10"
     gridtolerance="10"
     guidetolerance="10"
     inkscape:pageopacity="0"
     inkscape:pageshadow="2"
     inkscape:window-width="640"
     inkscape:window-height="480"
     id="namedview4"
     showgrid="false"
     inkscape:zoom="1.2586667"
     inkscape:cx="93.75"
     inkscape:cy="93.75"
     inkscape:window-x="0"
     inkscape:window-y="400"
     inkscape:window-maximized="0"
     inkscape:current-layer="g10" /><g
     id="g10"
     inkscape:groupmode="layer"
     inkscape:label="butterfly"
     transform="matrix(1.25,0,0,-1.25,0,187.5)"><g
       id="g12"><g
         id="g14"
         clip-path="url(#clipPath16)"><g
           id="g20"
           transform="translate(124.9395,57.374)"><path
             d="m 0,0 c 5.428,3.688 13.921,18.772 15.642,25.548 0.691,2.723 5.515,19.069 1.361,19.765 -16.076,2.689 -32.544,-0.268 -48.418,-8.364 -0.605,-0.307 -2.959,-1.729 -5.673,-3.501 -0.282,1.841 -0.724,4.351 -1.85,5.526 -0.489,0.51 -1.011,0.812 -1.554,0.938 -2.488,0.585 -5.724,-2.028 -8.235,-4.938 -1.581,3.744 -3.222,7.191 -3.628,7.9 -8.849,15.468 -21.005,26.96 -35.93,33.516 -3.856,1.693 -8.773,-14.624 -9.686,-17.281 -2.272,-6.611 -3.429,-23.886 -0.907,-29.942 1.652,-3.968 5.161,-4.597 8.918,-4.743 -8.302,-5.064 -15.743,-13.113 -16.544,-22.61 -0.704,-8.278 6.659,-15.163 12.782,-21.229 1.046,-1.036 0.054,-3.989 1.122,-4.845 5.989,4.938 18.096,9.81 20.431,-1.514 2.573,3.512 5.525,8.606 8.513,14.195 -0.096,-3.985 0.557,-7.144 1.934,-8.798 0.173,-1.328 0.189,-2.707 0.575,-3.989 1.146,0.438 2.131,1.954 3.012,2.86 1.961,0.539 4.158,2.545 6.25,5.572 -0.5,-5.878 -0.769,-11.317 -0.553,-15.404 8.156,8.195 15.618,-2.512 17.922,-9.923 1.362,0.131 2.152,3.145 3.594,3.44 8.445,1.719 18.376,3.449 22.321,10.759 4.53,8.384 2.715,19.195 -1.458,27.98 C -6.836,-1.018 -3.556,-2.414 0,0"
             style="fill:#777777;fill-opacity:1;fill-rule:nonzero;stroke:none"
             id="path22"
             inkscape:connector-curvature="0" /></g></g></g></g></svg>
