<?xml version="1.0" encoding="UTF-8" standalone="no"?>
<!-- Created with Inkscape (http://www.inkscape.org/) -->

<svg
   xmlns:dc="http://purl.org/dc/elements/1.1/"
   xmlns:cc="http://creativecommons.org/ns#"
   xmlns:rdf="http://www.w3.org/1999/02/22-rdf-syntax-ns#"
   xmlns:svg="http://www.w3.org/2000/svg"
   xmlns="http://www.w3.org/2000/svg"
   xmlns:sodipodi="http://sodipodi.sourceforge.net/DTD/sodipodi-0.dtd"
   xmlns:inkscape="http://www.inkscape.org/namespaces/inkscape"
   id="svg2"
   version="1.1"
   inkscape:version="0.91 r13725"
   xml:space="preserve"
   width="40"
   height="40"
   viewBox="0 0 187.5 187.5"
   sodipodi:docname="stat-knife_and_fork.svg"><metadata
     id="metadata8"><rdf:RDF><cc:Work
         rdf:about=""><dc:format>image/svg+xml</dc:format><dc:type
           rdf:resource="http://purl.org/dc/dcmitype/StillImage" /><dc:title></dc:title></cc:Work></rdf:RDF></metadata><defs
     id="defs6"><clipPath
       clipPathUnits="userSpaceOnUse"
       id="clipPath16"><path
         d="M 0,150 150,150 150,0 0,0 0,150 Z"
         id="path18"
         inkscape:connector-curvature="0" /></clipPath></defs><sodipodi:namedview
     pagecolor="#ffffff"
     bordercolor="#666666"
     borderopacity="1"
     objecttolerance="10"
     gridtolerance="10"
     guidetolerance="10"
     inkscape:pageopacity="0"
     inkscape:pageshadow="2"
     inkscape:window-width="640"
     inkscape:window-height="480"
     id="namedview4"
     showgrid="false"
     inkscape:zoom="1.2586667"
     inkscape:cx="93.75"
     inkscape:cy="93.75"
     inkscape:window-x="0"
     inkscape:window-y="400"
     inkscape:window-maximized="0"
     inkscape:current-layer="g10" /><g
     id="g10"
     inkscape:groupmode="layer"
     inkscape:label="knife and fork"
     transform="matrix(1.25,0,0,-1.25,0,187.5)"><g
       id="g12"><g
         id="g14"
         clip-path="url(#clipPath16)"><g
           id="g20"
           transform="translate(101.5557,75.9814)"><path
             d="m 0,0 c 0.003,-20.799 1.587,-41.597 1.489,-62.394 -0.01,-1.92 -1.906,-4.284 -3.053,-5.621 -0.974,-1.135 -3.499,-1.756 -5.023,-1.368 -1.493,0.377 -3.029,2.115 -3.727,3.633 -0.676,1.47 -1.934,3.42 -1.934,5.159 -0.02,21.526 1.639,43.051 1.413,64.573 -0.033,2.967 -1.688,5.922 -2.627,8.871 -0.819,2.571 -2.363,5.112 -2.418,7.691 -0.253,11.92 -0.145,23.849 -0.072,35.775 0.052,7.973 3.716,11.279 11.611,11.215 3.475,-0.028 4.422,-1.366 4.403,-4.706 C -0.063,41.886 -0.002,20.942 0,0"
             style="fill:#777777;fill-opacity:1;fill-rule:evenodd;stroke:none"
             id="path22"
             inkscape:connector-curvature="0" /></g><g
           id="g24"
           transform="translate(60.1567,141.5332)"><path
             d="m 0,0 c 0,-6.655 -0.003,-13.311 0.002,-19.966 0.002,-1.31 -0.208,-2.693 0.146,-3.907 0.289,-0.984 1.277,-1.766 1.955,-2.637 0.717,0.886 1.988,1.727 2.064,2.664 0.518,6.38 0.77,12.78 1.138,19.173 0.093,1.654 0.288,3.302 0.438,4.952 0.412,0.031 0.828,0.063 1.241,0.095 0.233,-1.399 0.609,-2.791 0.671,-4.196 0.284,-6.398 0.372,-12.807 0.802,-19.194 0.081,-1.203 1.397,-2.324 2.142,-3.482 0.649,1.202 1.832,2.394 1.859,3.611 0.173,7.678 0.086,15.363 0.086,23.044 0.495,0.07 0.988,0.138 1.482,0.207 0.353,-1.084 0.844,-2.145 1.039,-3.257 1.278,-7.304 2.526,-14.615 3.717,-21.933 1.039,-6.376 -0.9,-11.911 -4.396,-17.252 -1.625,-2.483 -2.965,-5.699 -2.992,-8.597 -0.23,-25.181 1.421,-50.364 1.401,-75.548 0,-1.739 -1.188,-3.798 -1.974,-5.134 -0.944,-1.603 -2.933,-3.562 -4.476,-3.57 -1.574,-0.008 -3.621,1.884 -4.596,3.475 -0.801,1.307 -1.973,3.39 -1.973,5.129 -0.006,25.182 1.532,50.365 1.602,75.549 0.009,3.474 -1.271,6.11 -3.019,9.145 -2.506,4.353 -4.789,9.724 -4.589,14.553 0.356,8.642 2.627,17.205 4.133,25.795 0.091,0.518 0.494,0.979 0.751,1.467 C -0.896,0.125 -0.449,0.062 0,0"
             style="fill:#777777;fill-opacity:1;fill-rule:evenodd;stroke:none"
             id="path26"
             inkscape:connector-curvature="0" /></g></g></g></g></svg>
