<?xml version="1.0" encoding="UTF-8" standalone="no"?>
<!-- Created with Inkscape (http://www.inkscape.org/) -->

<svg
   xmlns:dc="http://purl.org/dc/elements/1.1/"
   xmlns:cc="http://creativecommons.org/ns#"
   xmlns:rdf="http://www.w3.org/1999/02/22-rdf-syntax-ns#"
   xmlns:svg="http://www.w3.org/2000/svg"
   xmlns="http://www.w3.org/2000/svg"
   xmlns:sodipodi="http://sodipodi.sourceforge.net/DTD/sodipodi-0.dtd"
   xmlns:inkscape="http://www.inkscape.org/namespaces/inkscape"
   id="svg2"
   version="1.1"
   inkscape:version="0.91 r13725"
   xml:space="preserve"
   width="40"
   height="40"
   viewBox="0 0 187.5 187.5"
   sodipodi:docname="stat-wildlife.svg"><metadata
     id="metadata8"><rdf:RDF><cc:Work
         rdf:about=""><dc:format>image/svg+xml</dc:format><dc:type
           rdf:resource="http://purl.org/dc/dcmitype/StillImage" /><dc:title></dc:title></cc:Work></rdf:RDF></metadata><defs
     id="defs6"><clipPath
       clipPathUnits="userSpaceOnUse"
       id="clipPath16"><path
         d="M 0,150 150,150 150,0 0,0 0,150 Z"
         id="path18"
         inkscape:connector-curvature="0" /></clipPath></defs><sodipodi:namedview
     pagecolor="#ffffff"
     bordercolor="#666666"
     borderopacity="1"
     objecttolerance="10"
     gridtolerance="10"
     guidetolerance="10"
     inkscape:pageopacity="0"
     inkscape:pageshadow="2"
     inkscape:window-width="640"
     inkscape:window-height="480"
     id="namedview4"
     showgrid="false"
     inkscape:zoom="1.2586667"
     inkscape:cx="93.75"
     inkscape:cy="93.75"
     inkscape:window-x="0"
     inkscape:window-y="400"
     inkscape:window-maximized="0"
     inkscape:current-layer="g10" /><g
     id="g10"
     inkscape:groupmode="layer"
     inkscape:label="paw print"
     transform="matrix(1.25,0,0,-1.25,0,187.5)"><g
       id="g12"><g
         id="g14"
         clip-path="url(#clipPath16)"><g
           id="g20"
           transform="translate(92.9707,4.5078)"><path
             d="m 0,0 c -4.719,0.702 -8.49,1.343 -12.021,2.882 -3.372,1.472 -6.7,1.221 -10.088,0.135 -2.259,-0.723 -4.52,-1.501 -6.838,-1.968 -4.15,-0.832 -8.247,-0.345 -12.085,1.428 -2.796,1.29 -4.832,3.592 -6.224,6.253 -2.636,5.046 -1.236,9.575 3.809,12.445 1.12,0.637 2.376,1.062 3.602,1.496 4.219,1.485 7.477,4.114 9.686,8.018 0.49,0.869 0.988,1.731 1.49,2.589 3.901,6.654 10.843,8.173 17.078,6.885 1.193,-0.246 2.344,-0.709 3.505,-1.097 2.321,-0.779 4.265,-2.089 5.581,-4.19 1.177,-1.871 2.329,-3.759 3.421,-5.68 1.239,-2.178 2.972,-3.896 4.932,-5.384 1.403,-1.061 2.837,-2.109 4.37,-2.961 2.33,-1.297 3.55,-3.292 4.125,-5.788 0.191,-0.817 0.306,-1.658 0.474,-2.48 C 15.965,6.993 12.088,1.388 6.383,0.555 3.978,0.202 1.535,0.125 0,0"
             style="fill:#777777;fill-opacity:1;fill-rule:evenodd;stroke:none"
             id="path22"
             inkscape:connector-curvature="0" /></g><g
           id="g24"
           transform="translate(85.3936,115.2822)"><path
             d="m 0,0 c 0.336,4.042 0.681,8.083 1.001,12.129 0.13,1.64 0.531,3.148 1.594,4.469 1.467,1.818 3.697,2.446 5.711,1.28 1.103,-0.637 2.211,-1.49 2.937,-2.511 2.078,-2.929 4.015,-5.963 5.907,-9.017 1.49,-2.402 2.972,-4.83 4.194,-7.375 1.383,-2.884 2.607,-5.862 3.63,-8.89 0.53,-1.562 0.549,-3.314 0.666,-4.988 0.161,-2.348 -0.414,-4.557 -1.587,-6.604 -2.435,-4.251 -5.659,-7.773 -9.609,-10.671 -3.895,-2.856 -7.965,-1.336 -10.467,1.352 -3.199,3.431 -4.383,7.631 -5.057,12.08 C -2.031,-12.439 -0.941,-6.217 0,0"
             style="fill:#777777;fill-opacity:1;fill-rule:evenodd;stroke:none"
             id="path26"
             inkscape:connector-curvature="0" /></g><g
           id="g28"
           transform="translate(76.9648,103.3203)"><path
             d="m 0,0 c -0.612,-5.657 -1.241,-10.15 -3.417,-14.212 -1.348,-2.518 -3.069,-4.872 -6.037,-5.643 -4.273,-1.113 -8.126,-0.3 -11.543,2.671 -3.705,3.221 -4.977,7.58 -6.084,12.066 -1.669,6.754 0.913,12.559 4.356,17.998 2.366,3.743 5.195,7.207 8.011,10.641 1.595,1.949 3.577,3.529 6.224,4.056 3.266,0.651 5.588,-0.588 6.508,-3.798 0.398,-1.388 0.587,-2.854 0.728,-4.298 0.443,-4.575 0.879,-9.152 1.193,-13.737 C 0.098,3.458 -0.005,1.157 0,0"
             style="fill:#777777;fill-opacity:1;fill-rule:evenodd;stroke:none"
             id="path30"
             inkscape:connector-curvature="0" /></g><g
           id="g32"
           transform="translate(130.1191,60.4932)"><path
             d="m 0,0 c -0.474,-5.604 -1.377,-11.087 -4.407,-16.005 -1.844,-2.989 -4.339,-5.316 -7.08,-7.432 -0.119,-0.093 -0.261,-0.159 -0.395,-0.234 -3.891,-2.165 -10.657,-1.058 -13.598,2.281 -1.719,1.953 -3.428,3.925 -5.011,5.983 -2.166,2.821 -2.625,6.04 -1.384,9.329 1.433,3.803 3.953,6.849 7.129,9.404 3.883,3.125 7.531,6.486 10.658,10.419 1.198,1.508 2.881,2.861 4.632,3.634 2.475,1.095 5.172,0.689 7.37,-0.961 0.813,-0.608 1.284,-1.88 1.57,-2.941 C 0.363,10.196 0.449,6.818 0.276,3.438 0.219,2.291 0.096,1.147 0,0"
             style="fill:#777777;fill-opacity:1;fill-rule:evenodd;stroke:none"
             id="path34"
             inkscape:connector-curvature="0" /></g><g
           id="g36"
           transform="translate(28.0098,71.292)"><path
             d="m 0,0 c 0.174,1.217 0.353,2.432 0.526,3.644 0.324,2.245 1.542,3.967 3.199,5.421 0.964,0.844 2.088,1.35 3.386,0.987 2.557,-0.715 4.832,-1.788 6.257,-4.269 2.262,-3.929 5.037,-7.479 8.218,-10.73 1.6,-1.636 3.072,-3.438 4.364,-5.323 1.951,-2.845 2.872,-6.11 2.937,-9.539 0.053,-2.895 -1.054,-5.247 -3.427,-7.17 -2.381,-1.932 -5.024,-3.332 -7.861,-4.164 -5.469,-1.609 -12.254,0.984 -14.916,6.289 -0.512,1.018 -0.92,2.11 -1.218,3.214 C -0.446,-14.527 -0.864,-7.307 0,0"
             style="fill:#777777;fill-opacity:1;fill-rule:evenodd;stroke:none"
             id="path38"
             inkscape:connector-curvature="0" /></g><g
           id="g40"
           transform="translate(68.4751,133.1113)"><path
             d="M 0,0 C 2.479,4.321 5.277,8.127 9.017,11.235 8.165,7.122 7.31,3.009 6.404,-1.37 6.027,-0.991 5.64,-0.769 5.522,-0.447 5.369,-0.036 5.468,0.463 5.391,0.911 5.116,2.496 4.264,2.852 3.03,1.88 2.495,1.458 2.072,0.875 1.508,0.504 1.081,0.222 0.507,0.161 0,0"
             style="fill:#777777;fill-opacity:1;fill-rule:evenodd;stroke:none"
             id="path42"
             inkscape:connector-curvature="0" /></g><g
           id="g44"
           transform="translate(123.6641,91.9482)"><path
             d="m 0,0 c 1.144,-3.632 2.285,-7.266 3.456,-10.983 -2.47,-1.04 -2.045,2.025 -3.559,2.388 -2.094,-0.131 -1.594,-3.157 -3.871,-3.653 0.739,2.236 1.245,4.29 2.091,6.198 0.851,1.923 0.132,4.211 1.238,6.036 0.217,0.003 0.43,0.01 0.645,0.014"
             style="fill:#777777;fill-opacity:1;fill-rule:evenodd;stroke:none"
             id="path46"
             inkscape:connector-curvature="0" /></g><g
           id="g48"
           transform="translate(92.6875,135.7134)"><path
             d="m 0,0 c -0.792,-0.884 -1.261,-0.292 -1.804,0.336 -0.555,0.644 -0.874,1.711 -2.226,1.378 -0.157,-0.912 -0.321,-1.86 -0.529,-3.059 -0.467,0.278 -0.978,0.4 -1.085,0.678 C -6.025,0.326 -6.25,1.377 -6.573,2.394 -7.239,4.493 -7.934,6.582 -8.607,8.677 -8.718,9.014 -8.78,9.362 -8.885,9.779 -6.809,9.246 -3.714,5.795 0,0"
             style="fill:#777777;fill-opacity:1;fill-rule:evenodd;stroke:none"
             id="path50"
             inkscape:connector-curvature="0" /></g><g
           id="g52"
           transform="translate(31.3774,83.292)"><path
             d="M 0,0 C 1.283,3.778 2.57,7.556 3.879,11.409 4.987,11.165 5.074,10.217 5.211,9.47 5.677,6.916 6.04,4.344 6.429,1.775 6.488,1.375 6.458,1.371 5.357,0.966 4.575,2.381 4.973,4.206 3.919,5.902 2.446,3.771 2.645,1.004 0,0"
             style="fill:#777777;fill-opacity:1;fill-rule:evenodd;stroke:none"
             id="path54"
             inkscape:connector-curvature="0" /></g></g></g></g></svg>
