<?xml version="1.0" encoding="UTF-8" standalone="no"?>
<!-- Created with Inkscape (http://www.inkscape.org/) -->

<svg
   xmlns:dc="http://purl.org/dc/elements/1.1/"
   xmlns:cc="http://creativecommons.org/ns#"
   xmlns:rdf="http://www.w3.org/1999/02/22-rdf-syntax-ns#"
   xmlns:svg="http://www.w3.org/2000/svg"
   xmlns="http://www.w3.org/2000/svg"
   xmlns:sodipodi="http://sodipodi.sourceforge.net/DTD/sodipodi-0.dtd"
   xmlns:inkscape="http://www.inkscape.org/namespaces/inkscape"
   id="svg2"
   version="1.1"
   inkscape:version="0.91 r13725"
   xml:space="preserve"
   width="40"
   height="40"
   viewBox="0 0 187.5 187.5"
   sodipodi:docname="stat-events.svg"><metadata
     id="metadata8"><rdf:RDF><cc:Work
         rdf:about=""><dc:format>image/svg+xml</dc:format><dc:type
           rdf:resource="http://purl.org/dc/dcmitype/StillImage" /><dc:title></dc:title></cc:Work></rdf:RDF></metadata><defs
     id="defs6"><clipPath
       clipPathUnits="userSpaceOnUse"
       id="clipPath16"><path
         d="M 0,150 150,150 150,0 0,0 0,150 Z"
         id="path18"
         inkscape:connector-curvature="0" /></clipPath></defs><sodipodi:namedview
     pagecolor="#ffffff"
     bordercolor="#666666"
     borderopacity="1"
     objecttolerance="10"
     gridtolerance="10"
     guidetolerance="10"
     inkscape:pageopacity="0"
     inkscape:pageshadow="2"
     inkscape:window-width="640"
     inkscape:window-height="480"
     id="namedview4"
     showgrid="false"
     inkscape:zoom="1.2586667"
     inkscape:cx="93.75"
     inkscape:cy="93.75"
     inkscape:window-x="0"
     inkscape:window-y="400"
     inkscape:window-maximized="0"
     inkscape:current-layer="g10" /><g
     id="g10"
     inkscape:groupmode="layer"
     inkscape:label="calendar"
     transform="matrix(1.25,0,0,-1.25,0,187.5)"><g
       id="g12"><g
         id="g14"
         clip-path="url(#clipPath16)"><path
           d="m 111.025,39.842 -69.396,0 0,57.87 69.396,0 0,-57.87 z m 24.576,89.296 c -0.022,3.564 -1.85,5.996 -4.937,6.402 -1.671,0.218 -3.399,0.035 -5.349,0.035 0,-1.24 0.05,-2.315 -0.006,-3.384 -0.15,-2.957 0.078,-6.012 -0.612,-8.846 -1.323,-5.451 -6.815,-8.755 -12.413,-7.973 -5.651,0.793 -9.722,5.37 -9.822,11.078 -0.05,3.019 -0.007,6.04 -0.007,9.077 l -15.872,0 c 0,-3.533 0.125,-6.965 -0.06,-10.375 -0.082,-1.494 -0.58,-3.09 -1.327,-4.396 -2.503,-4.392 -7.422,-6.515 -12.173,-5.484 -5.173,1.128 -8.752,4.965 -9.217,10.186 -0.242,2.716 -0.075,5.473 -0.274,8.198 -0.043,0.614 -0.814,1.665 -1.28,1.68 -4.509,0.127 -9.019,0.077 -14.054,0.077 0,-3.866 0.299,-7.317 -0.071,-10.695 -0.583,-5.178 -5.089,-9.236 -10.242,-9.755 -5.156,-0.519 -10.384,2.539 -11.995,7.482 -0.758,2.316 -0.878,4.89 -0.932,7.362 -0.089,3.743 -0.444,5.007 -2.223,5.261 -0.924,0.134 -5.778,-0.005 -6.347,-0.151 -1.835,-0.471 -1.515,-5.533 -1.519,-6.65 C 14.738,102.68 14.403,29.85 14.378,21.328 c -0.014,-4.768 2.284,-6.952 7.053,-7.101 6.852,-0.213 13.701,-0.498 20.561,-0.711 7.884,-0.256 65.875,0.242 86.98,0.768 4.545,0.107 6.614,2.362 6.629,6.97 0.021,12.108 0.021,24.218 0.021,36.334 l 0,47.628 c -0.015,7.976 0.007,15.949 -0.021,23.922"
           style="fill:#777777;fill-opacity:1;fill-rule:evenodd;stroke:none"
           id="path20"
           inkscape:connector-curvature="0" /><g
           id="g22"
           transform="translate(108.2588,126.3325)"><path
             d="m 0,0 c 0.174,-3.179 2.481,-5.413 5.395,-5.37 2.827,0.05 5.063,2.169 5.181,5.291 0.15,3.884 0.159,7.79 -0.008,11.677 -0.13,3.085 -2.481,5.144 -5.344,5.091 C 2.354,16.636 0.174,14.5 0,11.428 -0.1,9.529 -0.015,7.619 -0.015,5.713 -0.015,3.805 -0.1,1.899 0,0"
             style="fill:#777777;fill-opacity:1;fill-rule:evenodd;stroke:none"
             id="path24"
             inkscape:connector-curvature="0" /></g><g
           id="g26"
           transform="translate(69.7412,126.1191)"><path
             d="m 0,0 c 0.135,-2.938 2.251,-5.064 5.015,-5.164 2.801,-0.113 5.334,2.052 5.448,5.007 0.145,4.054 0.152,8.119 -0.008,12.173 -0.117,2.868 -2.507,4.902 -5.299,4.897 C 2.376,16.906 0.167,14.845 0,11.925 -0.113,9.945 -0.018,7.95 -0.018,5.963 -0.018,3.976 -0.096,1.984 0,0"
             style="fill:#777777;fill-opacity:1;fill-rule:evenodd;stroke:none"
             id="path28"
             inkscape:connector-curvature="0" /></g><g
           id="g30"
           transform="translate(36.3735,120.9556)"><path
             d="m 0,0 c 2.855,0.025 5.075,2.205 5.21,5.238 0.085,1.899 0.018,3.809 0.018,5.713 l 0.01,0 c 0,1.904 0.047,3.811 -0.01,5.712 -0.1,3.193 -2.312,5.417 -5.289,5.414 C -2.916,22.075 -5.199,19.898 -5.277,16.851 -5.377,12.96 -5.388,9.068 -5.274,5.174 -5.188,2.18 -2.824,-0.021 0,0"
             style="fill:#777777;fill-opacity:1;fill-rule:evenodd;stroke:none"
             id="path32"
             inkscape:connector-curvature="0" /></g></g></g></g></svg>
