<?xml version="1.0" encoding="UTF-8" standalone="no"?>
<!-- Created with Inkscape (http://www.inkscape.org/) -->

<svg
   xmlns:dc="http://purl.org/dc/elements/1.1/"
   xmlns:cc="http://creativecommons.org/ns#"
   xmlns:rdf="http://www.w3.org/1999/02/22-rdf-syntax-ns#"
   xmlns:svg="http://www.w3.org/2000/svg"
   xmlns="http://www.w3.org/2000/svg"
   xmlns:sodipodi="http://sodipodi.sourceforge.net/DTD/sodipodi-0.dtd"
   xmlns:inkscape="http://www.inkscape.org/namespaces/inkscape"
   id="svg2"
   version="1.1"
   inkscape:version="0.91 r13725"
   xml:space="preserve"
   width="40"
   height="40"
   viewBox="0 0 187.5 187.5"
   sodipodi:docname="stat-no_wheelchair_access.svg"><metadata
     id="metadata8"><rdf:RDF><cc:Work
         rdf:about=""><dc:format>image/svg+xml</dc:format><dc:type
           rdf:resource="http://purl.org/dc/dcmitype/StillImage" /><dc:title></dc:title></cc:Work></rdf:RDF></metadata><defs
     id="defs6"><clipPath
       clipPathUnits="userSpaceOnUse"
       id="clipPath16"><path
         d="M 0,150 150,150 150,0 0,0 0,150 Z"
         id="path18"
         inkscape:connector-curvature="0" /></clipPath></defs><sodipodi:namedview
     pagecolor="#ffffff"
     bordercolor="#666666"
     borderopacity="1"
     objecttolerance="10"
     gridtolerance="10"
     guidetolerance="10"
     inkscape:pageopacity="0"
     inkscape:pageshadow="2"
     inkscape:window-width="640"
     inkscape:window-height="480"
     id="namedview4"
     showgrid="false"
     inkscape:zoom="1.2586667"
     inkscape:cx="93.75"
     inkscape:cy="93.75"
     inkscape:window-x="0"
     inkscape:window-y="400"
     inkscape:window-maximized="0"
     inkscape:current-layer="g10" /><g
     id="g10"
     inkscape:groupmode="layer"
     inkscape:label="no wheelchair access"
     transform="matrix(1.25,0,0,-1.25,0,187.5)"><g
       id="g12"><g
         id="g14"
         clip-path="url(#clipPath16)"><g
           id="g20"
           transform="translate(59.0933,122.1006)"><path
             d="m 0,0 c 0,-4.999 4.054,-9.055 9.053,-9.055 5.003,0 9.054,4.056 9.054,9.055 0,5.002 -4.051,9.055 -9.054,9.055 C 4.054,9.055 0,5.002 0,0"
             style="fill:#777777;fill-opacity:1;fill-rule:nonzero;stroke:none"
             id="path22"
             inkscape:connector-curvature="0" /></g><g
           id="g24"
           transform="translate(121.0469,50.5068)"><path
             d="m 0,0 -17.193,27.88 -25.214,-0.251 -0.829,10.636 17.273,0 c 2.125,0 3.852,1.724 3.852,3.853 0,2.127 -1.727,3.853 -3.852,3.853 l -17.873,0 -0.609,7.803 c -0.33,4.245 -4.039,7.416 -8.281,7.086 -4.245,-0.332 -7.419,-4.039 -7.086,-8.283 l 2.276,-29.168 c 0.103,-1.355 0.563,-2.597 1.265,-3.653 0.817,-2.202 2.932,-3.77 5.41,-3.77 l 0.058,0 27.196,0.274 13.763,-22.327 c 1.094,-1.769 2.989,-2.748 4.93,-2.748 1.031,0 2.08,0.276 3.025,0.862 C 0.83,-6.277 1.672,-2.718 0,0"
             style="fill:#777777;fill-opacity:1;fill-rule:nonzero;stroke:none"
             id="path26"
             inkscape:connector-curvature="0" /></g><g
           id="g28"
           transform="translate(73.8916,31.2197)"><path
             d="m 0,0 c -18.546,0 -33.633,15.085 -33.633,33.631 0,10.483 4.759,20.182 13.058,26.605 0.77,0.599 1.579,1.169 2.398,1.697 0,0 2.588,-6.881 1.981,-7.351 -6.535,-5.061 -10.282,-12.699 -10.282,-20.951 0,-14.602 11.877,-26.473 26.478,-26.473 10.96,0 20.638,6.591 24.647,16.787 0,0 5.907,-4.424 5.473,-5.295 C 27.603,13.584 23.853,9.241 19.151,5.985 13.513,2.071 6.886,0 0,0"
             style="fill:#777777;fill-opacity:1;fill-rule:nonzero;stroke:none"
             id="path30"
             inkscape:connector-curvature="0" /></g><g
           id="g32"
           transform="translate(10.188,75.5664)"><path
             d="m 0,0 c 0,-36.22 29.359,-65.578 65.581,-65.578 36.219,0 65.581,29.358 65.581,65.578 0,36.223 -29.362,65.585 -65.581,65.585 C 29.359,65.585 0,36.223 0,0 Z"
             style="fill:none;stroke:#777777;stroke-width:11.23200035;stroke-linecap:butt;stroke-linejoin:miter;stroke-miterlimit:10;stroke-dasharray:none;stroke-opacity:1"
             id="path34"
             inkscape:connector-curvature="0" /></g><g
           id="g36"
           transform="translate(27.7651,116.79)"><path
             d="M 0,0 94.141,-85.566"
             style="fill:none;stroke:#777777;stroke-width:10.47500038;stroke-linecap:butt;stroke-linejoin:miter;stroke-miterlimit:10;stroke-dasharray:none;stroke-opacity:1"
             id="path38"
             inkscape:connector-curvature="0" /></g></g></g></g></svg>
