<?xml version="1.0" standalone="no"?>
<!DOCTYPE svg PUBLIC "-//W3C//DTD SVG 20010904//EN"
 "http://www.w3.org/TR/2001/REC-SVG-20010904/DTD/svg10.dtd">
<svg version="1.0" xmlns="http://www.w3.org/2000/svg"
 width="16.000000pt" height="16.000000pt" viewBox="0 0 16.000000 16.000000"
 preserveAspectRatio="xMidYMid meet">
<metadata>
Created by potrace 1.11, written by Peter Selinger 2001-2013
</metadata>
<g transform="translate(0.000000,16.000000) scale(0.009581,-0.009581)"
fill="#000000" stroke="none">
<path d="M0 835 l0 -835 835 0 835 0 0 835 0 835 -835 0 -835 0 0 -835z m785
601 c43 -18 44 -38 5 -66 -18 -12 -34 -37 -41 -61 -15 -48 -35 -67 -51 -51
-18 18 -52 14 -81 -8 -14 -11 -28 -20 -31 -20 -3 0 -6 24 -6 53 0 63 17 88 91
133 63 38 68 39 114 20z m736 -32 c51 -37 68 -77 55 -128 -9 -35 -88 -51 -100
-21 -3 9 -19 21 -35 26 -23 8 -31 17 -33 42 -3 29 -8 34 -51 46 -39 12 -47 19
-45 35 3 23 36 32 117 35 35 1 52 -6 92 -35z m-320 -88 c9 -15 23 -32 31 -39
9 -7 20 -34 26 -62 32 -153 35 -180 29 -274 -6 -86 -5 -100 11 -114 25 -22 90
-38 99 -24 5 6 37 66 73 132 66 122 78 133 125 121 19 -5 26 -16 35 -60 11
-55 11 -55 -31 -121 -23 -36 -45 -80 -50 -98 -31 -117 -66 -199 -101 -233 -46
-47 -74 -42 -119 21 -51 71 -86 60 -90 -29 -3 -55 -1 -59 33 -89 50 -44 58
-64 43 -107 -9 -26 -17 -34 -31 -31 -11 2 -41 2 -69 2 -75 -3 -86 -2 -133 5
-56 8 -92 -14 -92 -56 0 -17 -3 -30 -8 -30 -19 0 -51 33 -57 59 -3 15 -20 41
-37 57 -16 16 -66 73 -110 126 -65 81 -91 105 -151 138 -63 36 -79 40 -122 37
-69 -5 -145 -42 -303 -148 -105 -71 -139 -89 -151 -82 -27 17 -23 38 27 139
l48 99 -19 33 c-26 44 -17 69 47 139 l53 58 -14 34 c-21 51 -7 72 80 114 70
34 83 37 165 37 88 0 91 -1 150 -40 79 -53 122 -102 122 -140 0 -26 7 -34 50
-58 36 -19 48 -32 44 -44 -8 -26 11 -29 41 -6 26 20 31 21 89 9 33 -7 66 -18
72 -24 8 -8 10 -33 7 -69 l-5 -57 -40 -6 c-22 -4 -42 -14 -45 -22 -3 -8 2 -39
11 -69 12 -37 15 -68 10 -102 -8 -62 7 -73 45 -35 16 15 43 39 61 52 l33 25
-7 125 c-10 166 -19 219 -41 235 -14 10 -22 38 -31 117 -18 142 -18 189 0 189
25 0 25 13 0 90 -13 41 -24 78 -24 82 0 13 61 23 133 22 67 -1 73 -4 88 -28z
m-68 -1052 c31 -7 37 -34 7 -34 -29 0 -70 22 -70 37 0 9 7 12 18 9 9 -3 29 -8
45 -12z"/>
<path d="M1314 765 c-4 -10 -13 -13 -25 -10 -34 11 -23 -31 15 -54 42 -26 58
-26 81 -1 21 23 11 41 -37 66 -25 13 -29 13 -34 -1z"/>
<path d="M914 745 c-4 -10 -13 -13 -25 -10 -13 4 -19 2 -19 -8 0 -18 27 -43
62 -56 21 -8 29 -6 42 8 21 23 12 48 -25 67 -26 13 -30 13 -35 -1z"/>
</g>
</svg>
